<?xml version="1.0" encoding="utf-8"?>
<!-- Generator: Adobe Illustrator 25.4.1, SVG Export Plug-In . SVG Version: 6.00 Build 0)  -->
<svg version="1.1" id="Capa_1" xmlns="http://www.w3.org/2000/svg" xmlns:xlink="http://www.w3.org/1999/xlink" x="0px" y="0px"
	 viewBox="0 0 1027.5 919.9" style="enable-background:new 0 0 1027.5 919.9;" xml:space="preserve">
<style type="text/css">
	.st0{opacity:0.7;fill:#D6A8CA;}
	.st1{fill:none;}
	.st2{fill:#3C246F;}
	.st3{font-family:'Bitter-Regular';}
	.st4{font-size:38.9687px;}
</style>
<g>
	<g>
		<path class="st0" d="M248.9,76C228.7,70.2,93,81.8,84.3,80.5c-8.2-2.1,2.9-45.2,10.2-51.9c2.6-2.3,5.6-2.9,12.7-2.1
			c7.4,0.9,85.4-3.3,155.1-6.9c0,0,229.9-6.4,265.3-7.1c12.1-0.2,2.5,2.4,16.7,1.4c30.3-2.2,96.3,0,119.2-2.1
			c18.4-1.7,22.3-1.8,40-0.1c15.3,1.5,113.7,1.3,124.8-1.6c2.7-0.7,4.7-0.4,4.7,0.5c0,0,48.2,1.8,64.7,2.9c1.9,0.1,3,0.3,3,0.4
			c0.5,1,2.5,1.4,4.5,0.9c3.5-1,75.4-2.3,76.5,0.5c3.2,8.1-7.8,41.2-16.2,49.2c-8.8,8.3-54.6-2.8-92.8,1.5
			c-197.9-3.9-174.4-2.6-212.2,0.4c-4.3-2.9-20.8,4-30.8-1c-4.2-2.1-33.9-2.4-40.5-0.3c-4.8,1.5-156.6-2.1-173.5,4.3
			C384.5,64.6,264.2,75,248.9,76z"/>
		<path class="st0" d="M249.1,150.4c-17.8-6-149.6-3.6-159.2-5.5c-7.7-2.4,5.8-41.1,13.2-46.6c2.6-2,5.6-2.2,12.3-1.1
			c10.7,2.1,149.5,2.5,149.5,2.5c1.8,1.3,7.4-2.7,8.4-1.2c3.1,3.5,228,5.2,247.2,5.5c11.6,0.2,2.4,2.3,16.1,1.7
			c29.2-1,92.7,2.5,114.8,1c17.7-1.3,21.5-1.2,38.5,0.7c17.3,1.8,109.6,2.5,120.2,0.1c2.6-0.7,4.6-0.4,4.5,0.5
			c0,0.2,65,2.6,65.2,3.3c0.5,0.9,2.4,1.3,4.3,0.8c3.4-0.8,72.7-2.1,73.7,0.4c3.2,7.3-7.2,37.7-15.4,45c-8.4,7.7-53.3-2.5-89.8,1.3
			l-169-4.3l-36.3,2c-4.1-2.7-20.2,3.4-29.7-1.5c-4-2-32.8-3-39.2-1.3c-5.6,1.4-152.7-6.6-167.9-1.8
			C383.7,146.9,274.4,150,249.1,150.4z"/>
		<path class="st0" d="M218.5,185.4c-19.3-5.5-148.1,3.9-156.2,2.7c-7.7-2,3.3-41.3,10.3-47.3c2.5-2.1,5.4-2.6,12.1-1.8
			c6.7,0.8,72.2-2,147.3-4.9c0,0,193.7-3.2,251.9-3.6c11.5-0.1,2.4,2.2,15.9,1.5c28.8-1.7,91.4,1.2,113.2-0.4
			c17.5-1.3,21.2-1.3,37.9,0.4c14.2,1.5,107.9,2.8,118.5,0.3c2.6-0.6,4.5-0.3,4.5,0.6c1.7,0.2,8.3,0.5,10,0.6c0.7,0,54,2.8,54.3,3.4
			c0.5,0.9,2.4,1.4,4.2,0.9c3.4-0.9,71.7-0.9,72.7,1.7c2.9,7.4-8,37.5-16.1,44.7c-8.5,7.5-51.7-3.4-88.1-0.1c0,0-10.4-0.4-25.9-0.9
			c-155.8-5.4-144.2-3.7-175.5-1.7c-4-2.7-19.8,3.4-29.2-1.3c-3.9-2-32.2-2.6-38.5-0.8c-4.5,1.3-149.1-3.8-164.8,1.8
			C346.9,176.4,230.5,184.8,218.5,185.4z"/>
		<path class="st0" d="M144.3,217.4c-9.5-5.8-79.2-1.7-84.3-3.5c-4.1-2.3,2.8-41.1,6.7-46.8c1.4-2,2.9-2.3,6.5-1.2
			c5.7,1.9,79.1,0.6,79.1,0.6c1,1.2,3.9-2.8,4.4-1.3c1.7,3.5,120.7,2.4,130.9,2.5c6.2,0.1,1.3,2.3,8.5,1.5
			c15.5-1.4,49.1,1.4,60.8-0.4c9.4-1.5,11.4-1.5,20.4,0.2c9.2,1.5,58,1.2,63.6-1.4c1.4-0.7,2.4-0.4,2.4,0.5c0,0.2,34.4,1.8,34.5,2.5
			c0.3,0.9,1.3,1.3,2.3,0.7c1.8-0.8,38.5-3,39-0.5c1.7,7.3-3.6,37.8-7.9,45.2c-4.4,7.8-28.2-1.8-47.5,2.4l-89.5-2.2l-19.2,2.4
			c-2.2-2.7-10.7,3.6-15.7-1.2c-2.1-1.9-17.4-2.6-20.8-0.8c-2.9,1.4-80.8-4.7-88.9,0.3C215.5,212.2,157.7,216.7,144.3,217.4z"/>
	</g>
	<g>
		<path class="st0" d="M173.5,297.9c-14.6-5.3-104.5,10-110.9,9c-5.7-1.8-1.8-44.1,2.7-50.7c1.6-2.4,3.6-3,8.5-2.4
			c4.3,0.5,33.9-3,105.4-11c1.4,1.2,4.9-3.4,5.8-1.9c0.6,0.9,11,0.4,26.5-0.5c17.3-1,64.5-4.5,87.8-5.9c34.4-2.1,21.4-1.7,60.7-3.6
			c8.2-0.4,1.8,2.3,11.5,1.1c20.6-2.5,65.7-1,81.3-3.2c12.5-1.8,15.2-1.9,27.3-0.4c9.6,1.2,77.5,0.7,85.2-1.9
			c1.8-0.7,3.2-0.4,3.2,0.5c0.8,0.1,46,2.5,46.2,3.3c0.3,0.9,1.7,1.4,3,0.9c2.4-1,51.6-1.9,52.2,0.9c1.9,7.8-6.4,40.2-12.3,47.9
			c-6.2,8.1-36.6-3-62.8,1.1c0,0-7.4-0.2-18.5-0.5c-108.1-3.2-104.4-1-125,1.5c-2.9-2.8-13.9,4.1-20.8-0.7c-2.8-2-23-2-27.4,0.1
			c-0.9,0.4-8.1,0.6-18.5,0.7c-10.4,0.1-23.9,0.2-37.7,0.6c-6.9,0.2-13.8,0.4-20.4,0.6c-6.6,0.3-12.9,0.7-18.5,1.1
			c-11.2,0.9-19.5,2-22.1,3.5C265.2,284.1,193,295.1,173.5,297.9z"/>
		<path class="st0" d="M231.6,308.8c-27.7-6.5-162.4,17-166.5,16.9c-8.4-1-4.2-43.4,3.3-51.5c2.5-2.6,5.7-3.6,13.4-3.9
			c0,0,82.4-10.1,161.7-17.1c2.1,1.2,7.7-3.6,8.9-2.1c0.9,0.9,16.7,0.2,40.2-1c23.5-1.2,221.9-11,225.9-11.2
			c12.5-0.5,2.7,2.3,17.4,1c35.7-3,100.2-1.5,123.5-4c19-2,23.1-1.8,41.4-0.5c18.7,1.3,118,0.1,129.4-2.6c2.8-0.7,4.9-0.4,4.9,0.5
			c0,0,42,1.1,67.2,2.7c1.9,0.1,3.1,0.3,3.1,0.3c0.5,0.9,2.6,1.5,4.6,0.8c3.6-1.1,78.4-1.7,79.5,1c3.2,7.9-8.5,40.1-17.3,47.9
			c-9.1,8-55.1-3.2-95.9,1.1c-19.9-0.5-96.5-1.6-180.8-1.2l-38.8,3.3c-4.4-2.7-21.4,4.3-31.8-0.5c-4.4-2-35.1-1.8-42,0.3
			c-5.5,1.7-160.6,0.5-179.5,7.6C372.8,292.8,256.1,306.1,231.6,308.8z"/>
		<path class="st0" d="M688.4,290.4c14.6,6.2,131.2,8.6,144.2,12.6c6.8,3-8.7,43.4-15.7,48.9c-2.5,2-5.2,2.1-11,0.5
			c-7.9-2.2-61.6-5.4-70-5.8c-54.2-2.7-44.6-1.8-63.1-2.2c-1.6-1.4-6.7,2.7-7.5,1.1c-0.7-0.9-13.7-2.1-33.2-2.9
			c-40.3-1.6-63-1.7-91.6-1.7c-39.7,0-91.9,1.2-96.2,1.3c-10.4,0.2-2.2-2.3-14.5-1.3c-26.1,2.2-83.1,1.1-102.8,4
			c-15.8,2.3-19.2,2.3-34.5,1.3c-18-1.1-98.4,4-107.6,7.5c-2.3,0.9-4,0.7-4.1-0.2c-0.6,0-58.4,1.6-58.6,1.2
			c-0.5-0.9-2.3-1.3-3.9-0.5c-3,1-64.8,7.9-66,5.3c-3.4-7.6,3.2-40.7,9.9-49.1c7-8.9,48.5-1.6,80.6-8.3
			c193.9-9.4,127.7-3.4,185.2-10.5c3.8,2.7,18-4.5,26.9,0.2c3.7,2,29.7,1.6,35.5-0.5c6.4-2.3,139.6,1.8,152-3
			C558.1,291.8,602.6,291,688.4,290.4z"/>
		<path class="st0" d="M179.4,485.2c-15.4-6.1-113.4,4.9-119.9,3.7c-6-2,0.5-44.1,5.7-50.6c1.8-2.3,4-2.9,9.3-2
			c4.3,0.7,55.7-2.6,60-2.9c27.4-1.6,53.8-3,53.8-3c1.4,1.3,5.5-3.1,6.3-1.6c1.3,1.9,87.5,0.3,89.7,0.3c28.3-0.3,69.6-0.7,98.7-0.5
			c8.9,0.1,1.9,2.4,12.3,1.7c22.2-1.4,70.5,2.4,87.3,0.9c13.5-1.2,16.4-1.1,29.3,0.9c13.2,2,83.3,3.8,91.3,1.2
			c2-0.6,3.5-0.3,3.4,0.6c1.9,0.2,22.8,1.8,24.7,2c0.5,0,24.7,1.9,24.8,2.4c0.4,0.9,1.8,1.5,3.3,0.9c2.6-0.8,55.1-1.2,55.9,1.5
			c2.3,7.9-5.6,40.1-11.8,47.8c-6.5,8.1-40.4-3.5-68.1,0.1C485.9,481,513.5,482,480,484.5c-3.1-2.9-15.2,3.4-22.5-1.7
			c-3-2.1-24.8-3.2-29.7-1.3c-3.4,1.3-115.2-5.6-126.8,0.1C278.5,476.4,201.4,483.4,179.4,485.2z"/>
		<path class="st0" d="M811.3,369.2c10.7,4.9,76.3,8.2,87.8,8.9c8.2,0.5,74.5,4.5,81.5,6.8c8,3.8-9.9,54.2-18,61.1
			c-2.9,2.4-6,2.7-13,0.5c-8.8-2.7-73.6-6.5-82.5-7c-20.4-1.2-42.1-1.9-74.5-3c-1.9-1.7-7.9,3.4-8.9,1.4c-0.8-1.2-16.2-2.5-39.2-3.8
			c-69.5-4-174.5-3.3-221.5-3.2c-12.3,0-2.5-3-17-1.9c-30.8,2.2-97.8-0.1-121.1,3.2c-18.6,2.6-22.6,2.5-40.6,1.2
			c-9.7-0.7-35.6,0.4-45.2,0.8c-9.2,0.4-70.6,3.9-81.2,8.2c-2.7,1.1-4.8,0.9-4.8-0.2c-0.3,0-68.5,2.9-68.6,2.6
			c-0.6-1.1-2.7-1.5-4.6-0.6c-2.4,1.2-75.6,12.6-77,9.6c-4.2-9.3,2.7-50.9,10.5-61.9c4.1-5.7,18.3-7.1,36.4-7.9
			c69.4-3.3,28-3.8,87.2-7.5c148.3-9.1,109.8-1.8,190.4-11c4.4,3.4,21.3-5.3,31.7,0.6c4.3,2.4,34.9,2.7,41.7,0.2
			c1.5-0.5,12.4-0.7,28.1-0.5c15.8,0.2,36.4,0.6,57.3,1.1c41.9,0.8,85,1.6,93.1-1.6C665.4,371.4,776.8,368.6,811.3,369.2z"/>
	</g>
	<g>
		<path class="st0" d="M228.1,604.2c-22.3-6.7-159.4,12.6-169.2,11.3c-8.7-2.3-2.7-55.6,4.1-64c2.4-3,5.5-3.8,12.9-3
			c6.5,0.7,51.7-3.8,160.7-13.9c2.1,1.5,7.5-4.3,8.8-2.4c1,1.1,16.8,0.5,40.4-0.6c26.4-1.3,98.4-5.7,133.9-7.5
			c52.4-2.7,32.6-2.1,92.6-4.5c12.6-0.5,2.7,2.9,17.5,1.4c31.4-3.2,100.2-1.3,124-4.1c19.1-2.3,23.2-2.4,41.6-0.5
			c14.7,1.6,118.2,0.9,129.9-2.4c2.8-0.9,4.9-0.5,4.9,0.7c1.2,0.1,70.2,3.2,70.5,4.2c0.5,1.2,2.6,1.8,4.6,1.1
			c3.7-1.3,78.6-2.4,79.7,1.1c3,9.9-9.7,50.7-18.7,60.5c-9.4,10.3-55.9-3.8-95.8,1.4c0,0-11.3-0.3-28.1-0.7
			c-164.8-4.1-159.2-1.3-190.6,1.9c-4.5-3.5-21.3,5.2-31.7-0.9c-4.3-2.5-35-2.5-41.8,0.1c-1.4,0.5-12.4,0.8-28.2,0.9
			c-15.8,0.1-36.5,0.2-57.5,0.7c-10.5,0.3-21.1,0.5-31.2,0.8c-10.1,0.3-19.7,0.9-28.2,1.4c-17,1.1-29.8,2.5-33.7,4.4
			C368.1,586.7,257.9,600.6,228.1,604.2z"/>
		<path class="st0" d="M230.3,598.6c-27.6-9.9-168.3-1.3-172.4-1.8c-8.5-2,0.6-45,9.3-52.4c2.8-2.4,6.3-3,14.1-2.4
			c0,0,85.6-0.9,167.5,1.1c2,1.4,8.3-2.8,9.4-1.1c0.8,1,17.1,2.1,41.3,3.6c24.2,1.5,228.5,14.3,232.6,14.6c12.9,0.9,2.5,2.6,17.7,3
			c36.9,1.1,102.8,10,127,10.1c19.7,0.1,23.9,0.8,42.5,4.2c19,3.5,120.8,13.7,132.8,12.2c3-0.4,5.1,0.1,5,1.1c0,0,42.9,6,68.5,10.5
			c2,0.4,3.1,0.6,3.1,0.7c0.4,1,2.5,1.8,4.6,1.4c3.9-0.7,80.5,7.3,81.3,10.2c2.4,8.4-13.3,40.1-23.2,47.1
			c-10.3,7.2-56.1-9.6-98.3-9.9c-20.4-2.8-98.6-12.7-185-22l-40.1-1.1c-4.2-3.3-22.4,1.9-32.6-4.1c-4.2-2.5-35.8-5.9-43-4.5
			c-5.8,1.1-164.5-17.9-184.7-12.8C376.7,598.5,255.6,598.6,230.3,598.6z"/>
		<path class="st0" d="M832.8,593.3c18.1,7.6,162.5,10.7,178.6,15.6c8.4,3.8-10.8,53.8-19.4,60.6c-3.1,2.4-6.4,2.6-13.7,0.6
			c-9.8-2.8-76.3-6.7-86.7-7.2c-67.2-3.3-55.2-2.3-78.2-2.7c-2-1.7-8.3,3.4-9.3,1.4c-0.8-1.1-17-2.6-41.2-3.6
			c-49.9-2-78-2.1-113.5-2c-49.2,0-113.9,1.5-119.2,1.6c-12.9,0.2-2.7-2.9-17.9-1.6c-32.3,2.8-103,1.3-127.4,4.9
			c-19.6,2.9-23.8,2.8-42.7,1.6c-22.3-1.4-122,5-133.3,9.3c-2.8,1.1-5,0.9-5.1-0.3c-0.7,0-72.4,2-72.7,1.5c-0.6-1.1-2.8-1.6-4.8-0.7
			c-3.7,1.3-80.3,9.8-81.8,6.5c-4.2-9.4,3.9-50.4,12.2-60.9c8.7-11,60.1-2,99.9-10.3c240.2-11.7,158.2-4.2,229.4-13
			c4.7,3.3,22.3-5.6,33.4,0.2c4.6,2.4,36.8,2,43.9-0.6c7.9-2.9,173,2.2,188.3-3.7C671.3,595,726.4,594.1,832.8,593.3z"/>
		<path class="st0" d="M195.2,706.7c-22.7-7.4-167.5,9.5-177,8.2c-8.9-2.5,1-56.6,8.6-65c2.7-3,6-3.8,13.7-2.9
			c6.3,0.7,82.2-5,88.6-5.4c40.5-2.9,79.5-5.4,79.5-5.4c2.1,1.6,8.1-4.2,9.3-2.2c2,2.4,129.2-2.1,132.4-2.2
			c41.8-1.2,102.7-2.9,145.7-3.5c13.1-0.2,2.7,3,18.1,1.9c32.8-2.5,104.1,1,128.9-1.4c19.9-2,24.2-1.9,43.2,0.3
			c19.4,2.2,123,2.4,134.8-1.1c2.9-0.9,5.1-0.5,5.1,0.7c2.7,0.3,33.7,1.7,36.4,1.8c0.7,0,36.5,1.8,36.7,2.4c0.5,1.2,2.7,1.8,4.8,1.1
			c3.8-1.1,81.4-3.1,82.6,0.4c3.4,10-8.4,51.6-17.6,61.7c-9.6,10.5-59.7-3.3-100.5,2.1c-220.7-5.5-180-5-229.4-0.9
			c-4.6-3.7-22.5,4.8-33.2-1.5c-4.5-2.6-36.6-3.4-43.8-0.8c-5,1.8-170.1-3.9-187.2,3.8C341.6,692.5,227.7,703.7,195.2,706.7z"/>
		<path class="st0" d="M817.6,666.9c10.7,3.8,75.5,5.1,86.8,5.5c8.1,0.3,73.6,2.2,80.6,3.9c8,3-8.4,44.9-16.2,50.7
			c-2.8,2.1-5.9,2.3-12.8,0.7c-8.7-2.1-72.7-3.8-81.6-4.1c-20.2-0.5-41.5-0.7-73.5-0.9c-1.9-1.4-7.7,3-8.7,1.3
			c-0.8-1-16-1.7-38.7-2.3c-68.7-1.8-172.2,0.9-218.6,2c-12.1,0.3-2.6-2.4-16.8-1.2c-30.3,2.5-96.5,1.9-119.4,5.1
			c-18.3,2.6-22.3,2.6-40,1.9c-9.5-0.4-35.1,1.1-44.5,1.6c-9,0.5-69.5,4.7-79.9,8.5c-2.6,1-4.7,0.9-4.7-0.1
			c-0.3,0-67.5,3.8-67.6,3.6c-0.6-0.9-2.7-1.2-4.5-0.4c-2.3,1-74.2,12-75.7,9.5c-4.4-7.6,1.4-42,8.9-51.2c3.9-4.8,17.9-6.2,35.7-7.3
			c68.4-4.2,27.5-3.7,85.8-8c146.1-10.6,108.3-3.8,187.6-13.1c4.4,2.7,20.9-4.8,31.3-0.2c4.3,1.9,34.5,1.5,41.2-0.7
			c1.4-0.5,12.2-0.8,27.7-1c15.5-0.2,35.9-0.2,56.6-0.3c41.3-0.2,83.9-0.5,91.8-3.2C673.7,671.7,783.5,667.1,817.6,666.9z"/>
	</g>
	<g>
		<path class="st0" d="M206.3,814.8c-19.5-5.1-150.3,6.9-158.6,5.8c-7.9-1.8,2.6-41.3,9.6-47.4c2.5-2.2,5.4-2.7,12.2-2
			c6.9,0.7,76.1-3.6,149.4-7.9c0,0,216-7.9,255.7-9c11.6-0.3,2.5,2.2,16.1,1.1c29.2-2.3,92.8-0.8,114.9-3
			c17.7-1.7,21.5-1.8,38.5-0.4c14.6,1.2,109.6,0.2,120.3-2.5c2.6-0.7,4.6-0.4,4.6,0.4c0.7,0,65.1,1.8,65.3,2.4
			c0.5,0.9,2.4,1.3,4.3,0.8c3.4-1,72.7-2.7,73.8-0.1c3.1,7.3-7.1,37.6-15.2,45c-4.2,3.8-17.5,3.3-34.3,2.4
			c-52.8-3.1-28.4,0-81.6-0.5c-164.3-1.5-135.8-1.2-178.3,2.4c-4.1-2.6-20,3.8-29.7-0.6c-4.1-1.9-32.7-1.9-39.1,0.1
			c-4.6,1.4-151-0.5-167.3,5.5C336.9,803,220.9,813.7,206.3,814.8z"/>
		<path class="st0" d="M138.9,861c-11.2-5.3-83.2,6.1-88,5.1c-4.4-1.9,0.5-41.2,4.3-47.3c1.3-2.2,3-2.7,6.8-2
			c3.4,0.7,34.8-2.6,83.4-7.1c0,0,71.3-4.4,142.8-5.7c6.5-0.1,1.3,2.2,9,1.4c16.3-1.8,51.8,1,64.2-0.6c9.9-1.3,12-1.3,21.5,0.5
			c7.4,1.4,61,3,67.2,0.7c1.5-0.6,2.6-0.3,2.5,0.6c1,0.2,4.7,0.5,5.7,0.6c0.6,0.1,30.6,3.1,30.7,3.8c0.2,0.9,1.3,1.4,2.4,0.9
			c1.9-0.9,40.7-0.2,41.1,2.3c1.4,7.4-5.6,37.3-10.4,44.4c-2.5,3.7-9.8,2.7-19.1,1.2c-28.6-4.8-15.9-0.9-45.2-3.1
			c-85.4-6.2-82.5-4.1-98.9-2.3c-2.2-2.7-11.1,3.4-16.4-1.3c-2.2-1.9-18.1-2.5-21.7-0.8c-2.8,1.4-83.9-3.2-92.8,2.6
			C211.8,850.7,155.1,858.8,138.9,861z"/>
	</g>
	<rect x="74" y="23" class="st1" width="896.6" height="866.2"/>
	<text transform="matrix(1 0 0 1 74.0459 53.127)"><tspan x="0" y="0" class="st2 st3 st4">- A los 20 MINUTOS disminuye la presión arte</tspan><tspan x="828.2" y="0" class="st2 st3 st4">-</tspan><tspan x="0" y="46.8" class="st2 st3 st4">rial. </tspan><tspan x="0" y="140.3" class="st2 st3 st4">-A las 12 HORAS se normaliza el monóxido de </tspan><tspan x="0" y="187" class="st2 st3 st4">carbono en sangre.</tspan><tspan x="0" y="280.6" class="st2 st3 st4">-Entre las 2 SEMANAS y los 3 MESES mejora la </tspan><tspan x="0" y="327.3" class="st2 st3 st4">circulación sanguínea. </tspan><tspan x="0" y="420.9" class="st2 st3 st4">-En 1 AÑO el riesgo de enfermedad coronaria </tspan><tspan x="0" y="467.6" class="st2 st3 st4">baja a la mitad y mejora la energía.</tspan><tspan x="0" y="561.1" class="st2 st3 st4">-A los 5 AÑOS el riesgo de sufrir un ACV se iguala </tspan><tspan x="0" y="607.9" class="st2 st3 st4">al de un no fumador/a y el riesgo de padecer </tspan><tspan x="0" y="654.7" class="st2 st3 st4">cáncer de boca, garganta, esófago o vejiga dismi</tspan><tspan x="864.5" y="654.7" class="st2 st3 st4">-</tspan><tspan x="0" y="701.4" class="st2 st3 st4">nuye a la mitad. </tspan><tspan x="0" y="795" class="st2 st3 st4">-A los 10 AÑOS el riesgo del cáncer de pulmón </tspan></text>
</g>
</svg>
