<?xml version="1.0" encoding="utf-8"?>
<!-- Generator: Adobe Illustrator 25.4.1, SVG Export Plug-In . SVG Version: 6.00 Build 0)  -->
<svg version="1.1" id="Capa_1" xmlns="http://www.w3.org/2000/svg" xmlns:xlink="http://www.w3.org/1999/xlink" x="0px" y="0px"
	 viewBox="0 0 995.8 334" style="enable-background:new 0 0 995.8 334;" xml:space="preserve">
<style type="text/css">
	.st0{opacity:0.7;fill:#D7E36A;}
	.st1{fill:#3C246F;}
	.st2{font-family:'Bitter-Regular';}
	.st3{font-size:36.5864px;}
</style>
<g>
	<path class="st0" d="M109.5,53.9C98.5,49.3,27.4,58,22.7,57c-4.4-1.6,0.2-34.2,3.9-39.2c1.3-1.8,2.9-2.2,6.7-1.6
		c3.3,0.6,27-1.2,82.5-4.9c1.1,1,4-2.5,4.6-1.3c0.9,1.3,71.9-1.6,136.8-1.8c6.4,0,1.3,1.9,8.9,1.3c16.2-1.3,51.3,1.4,63.5,0.2
		c9.8-1,11.9-1,21.3,0.6c7.4,1.3,60.4,3.1,66.5,1.3c1.5-0.5,2.5-0.2,2.5,0.5c1,0.1,4.6,0.5,5.6,0.6c11.3,1.1,15,1.4,24.7,2.6
		c3.4,0.4,5.6,0.7,5.7,0.9c0.2,0.7,1.3,1.2,2.3,0.8c1.9-0.7,40.3,0.2,40.7,2.3c1.3,6.1-6.2,30.9-11.1,36.7c-5.1,6.1-28.5-3.5-49-1.1
		c-17.6-1.3-31.4-2.2-46-3.1c-52.4-3.1-45.9-2.4-65.9-0.8c-2.2-2.3-11,2.7-16.2-1.2c-2.2-1.6-17.8-2.3-21.4-0.9
		c-0.8,0.3-6.3,0.2-14.4-0.1c-7.6-0.2-70.1-2.6-77.2,1.2C181.5,46.2,125.6,52.3,109.5,53.9z"/>
	<path class="st0" d="M85.9,86.1c-5.7-4.5-47,0.9-50-0.4c-2.5-1.8,1.1-34.2,3.4-39c0.8-1.7,1.7-2,3.8-1.2c3.4,1.4,47-1.8,47-1.8
		c0.6,1,2.3-2.4,2.6-1.2c1,2.8,71.6-1.7,77.7-1.9c3.7-0.1,0.8,1.8,5.1,1c9.2-1.6,29.1-0.3,36.1-2.2c5.5-1.5,6.7-1.6,12.1-0.4
		c5.5,1,34.4-0.8,37.7-3.1c0.8-0.6,1.4-0.4,1.4,0.3c0,0.2,20.4,0.5,20.5,1.1c0.2,0.7,0.8,1.1,1.4,0.6c1.1-0.8,22.8-3.7,23.1-1.6
		c1.1,6-1.6,31.4-4.1,37.7c-2.5,6.6-16.8-0.7-28.2,3.4l-53.1,0.9L211,80.8c-1.3-2.1-6.3,3.3-9.4-0.5c-1.3-1.5-10.3-1.7-12.3,0
		c-1.7,1.3-48-1.5-52.7,2.9C128.1,79.6,93.8,85.1,85.9,86.1z"/>
	<path class="st0" d="M83,115.6c-3.2-3.3-21.6-6-38.5-2.5c-0.6,0.1-6.6,1.6-7.2,1.5c-2.4-1.3-2.7-33.3-0.3-39.3
		c1.2-3.2,2.8-1.8,7.3-2.1c12.1-1.1,13.7-2.1,45.4,1c0.5,1.1,2.4-2,2.6-0.7c0.4,1.5,17.8,4.2,35.8,5.7c18,1.5,36.7,1.7,39.6,1.8
		c3.6,0.1,0.7,1.9,4.9,1.4c8.9-1.1,28.3,0.9,35.1-0.9c12.7-3.5,3.6,1.9,30.9-1.1c2.5-0.3,15.2-1.7,17.5-3.6c0.8-0.6,1.4-0.5,1.4,0.2
		c0.2,0,19.9-0.8,20-0.4c0.2,0.7,0.8,1,1.3,0.4c1-0.9,22-5.9,22.4-4c1.3,5.8-0.1,31.5-2.3,38c-2.3,6.9-16.6,1.3-27.8,6.2
		c-60.1,5.5-38.4,0.1-64,5.6c-1.3-2.2-6.2,3.2-9.3-0.6c-1.3-1.6-10.2-2-12.2-0.4c-0.9,0.6-12.8-0.3-25.1-1.2
		c-12.3-0.9-24.9-2-27.4,0C127.3,117,107.8,116.5,83,115.6z"/>
	<path class="st0" d="M88.1,147.7c-5.1-4.7-44.3-2.3-47.4-4c-2.3-2,2.1-34,4.4-38.6c0.8-1.6,1.7-1.9,3.7-0.9
		c3.3,1.7,39.9,1.5,44.3,1.4c0.5,1,2.2-2.3,2.5-1c1.1,3.4,71.4,1.7,73.3,1.7c3.4,0,0.7,1.8,4.8,1.2c8.6-1.4,27.5,0.5,34-1.3
		c5.2-1.4,6.4-1.4,11.4-0.2c5.1,1.2,32.5-0.4,35.6-2.8c0.8-0.6,1.3-0.4,1.4,0.3c0.3,0,19.3,0.5,19.4,1c0.2,0.7,0.7,1,1.3,0.5
		c1-0.7,21.5-3.9,21.8-1.9c1.1,6-1.3,31.4-3.6,37.7c-2.4,6.6-15.9-0.4-26.7,3.7c-59.7,1-46-0.3-61.2,3c-1.2-2.2-6,3.1-8.9-0.7
		c-1.2-1.6-9.8-1.9-11.7-0.3c-0.8,0.6-12.2-0.1-24-0.5c-11.7-0.4-23.8-0.6-26.1,1.5C128.2,143.7,95.6,147.3,88.1,147.7z"/>
	<path class="st0" d="M222.3,189c-9.8-2.3-50.8-2.3-92-3.5c-41.1-1.2-80-3.8-87-5.5c-4-1.4,1.9-9.5,9.6-17.9
		c20-21.7,23.3-21.3,33.5-19c7,1.6,42.6,3.5,77.8,3.9c29.2,0.4,54.6-0.1,72.9-0.4c2,1,7.6-2.4,8.7-1.1c1.5,1.4,62.2,1,125,0.1
		c62.8-0.9,127.6-2.4,137.8-2.6c12.4-0.2,2.7,1.8,17.2,0.9c30.9-1.8,98.7-0.9,122-2.9c18.7-1.7,22.7-1.7,40.9-0.8
		c18.5,0.9,116.7-1.7,127.5-4.3c2.7-0.6,4.8-0.5,4.9,0.3c2.8,0.1,31.8,0,34.7,0c0.9,0,34.7-0.1,34.9,0.3c0.6,0.7,2.7,1,4.6,0.5
		c3.5-0.8,76.8-4.7,78.3-2.6c4.2,5.9-3.2,31.5-10.9,37.8c-8.2,6.7-57.1,0.1-95.5,4.6c-215.2,3.4-164.9,1.5-219,5.6
		c-4.6-2.1-21.1,3.4-31.8-0.3c-4.4-1.5-35.2-1.4-41.9,0.2c-5.8,1.4-163.4-0.7-179.3,3.7C366.2,182.6,250.5,188.4,222.3,189z"/>
</g>
<g>
	<path class="st0" d="M109.5,198.9c-11.1-4.5-82.1,4.1-86.9,3.2c-4.4-1.6,0.2-34.2,3.9-39.2c1.3-1.8,2.9-2.2,6.7-1.6
		c3.3,0.6,27-1.2,82.5-4.9c1.1,1,4-2.5,4.6-1.3c0.9,1.3,71.9-1.6,136.8-1.8c6.4,0,1.3,1.9,8.9,1.3c16.2-1.3,51.3,1.4,63.5,0.2
		c9.8-1,11.9-1,21.3,0.6c7.4,1.3,60.4,3.1,66.5,1.3c1.5-0.5,2.5-0.2,2.5,0.5c1,0.1,4.6,0.5,5.6,0.6c11.3,1.1,15,1.4,24.7,2.6
		c3.4,0.4,5.6,0.7,5.7,0.9c0.2,0.7,1.3,1.2,2.3,0.8c1.9-0.7,40.3,0.2,40.7,2.3c1.3,6.1-6.2,30.9-11.1,36.7c-5.1,6.1-28.5-3.5-49-1.1
		c-17.6-1.3-31.4-2.2-46-3.1c-52.4-3.1-45.9-2.4-65.9-0.8c-2.2-2.3-11,2.7-16.2-1.2c-2.2-1.6-17.8-2.3-21.4-0.9
		c-0.8,0.3-6.3,0.2-14.4-0.1c-7.6-0.2-70.1-2.6-77.2,1.2C181.5,191.2,125.6,197.3,109.5,198.9z"/>
	<path class="st0" d="M118.3,231.1c-9.3-4.5-77,0.9-82-0.4c-4-1.8,1.9-34.2,5.5-39c1.3-1.7,2.8-2,6.3-1.2c5.5,1.4,76.9-1.8,76.9-1.8
		c1,1,3.7-2.4,4.3-1.2c1.7,2.8,117.3-1.7,127.2-1.9c6-0.1,1.3,1.8,8.3,1c15-1.6,47.7-0.3,59-2.2c9.1-1.5,11-1.6,19.8-0.4
		c8.9,1,56.4-0.8,61.8-3.1c1.3-0.6,2.3-0.4,2.3,0.3c0,0.2,33.5,0.5,33.6,1.1c0.3,0.7,1.3,1.1,2.2,0.6c1.7-0.8,37.3-3.7,37.9-1.6
		c1.8,6-2.7,31.4-6.7,37.7c-4.1,6.6-27.5-0.7-46.1,3.4l-87,0.9l-18.6,2.6c-2.2-2.1-10.3,3.3-15.3-0.5c-2.1-1.5-16.9-1.7-20.2,0
		c-2.8,1.3-78.7-1.5-86.4,2.9C187.4,224.6,131.3,230.1,118.3,231.1z"/>
	<path class="st0" d="M128.9,260.6c-6.3-3.3-42.3-6-75.4-2.5c-1.1,0.1-13,1.6-14.1,1.5c-4.7-1.3-5.2-33.3-0.6-39.3
		c2.4-3.2,5.6-1.8,14.3-2.1c23.7-1.1,26.8-2.1,88.9,1c1,1.1,4.7-2,5.2-0.7c0.9,1.5,34.9,4.2,70.2,5.7c35.3,1.5,71.9,1.7,77.6,1.8
		c7,0.1,1.4,1.9,9.6,1.4c17.5-1.1,55.6,0.9,68.8-0.9c25-3.5,7,1.9,60.6-1.1c5-0.3,29.8-1.7,34.3-3.6c1.5-0.6,2.7-0.5,2.7,0.2
		c0.5,0,39-0.8,39.2-0.4c0.4,0.7,1.6,1,2.6,0.4c2-0.9,43.1-5.9,43.9-4c2.6,5.8-0.3,31.5-4.5,38c-4.4,6.9-32.6,1.3-54.5,6.2
		c-117.9,5.5-75.2,0.1-125.6,5.6c-2.5-2.2-12.3,3.2-18.2-0.6c-2.5-1.6-20.1-2-24-0.4c-1.7,0.6-25.1-0.3-49.2-1.2
		c-24.1-0.9-48.9-2-53.7,0C215.8,262,177.7,261.5,128.9,260.6z"/>
	<path class="st0" d="M138.9,292.7c-10.1-4.7-86.9-2.3-93-4c-4.5-2,4.2-34,8.5-38.6c1.6-1.6,3.3-1.9,7.2-0.9
		c6.4,1.7,78.3,1.5,86.9,1.4c1,1,4.3-2.3,4.9-1c2.1,3.4,139.9,1.7,143.6,1.7c6.8,0,1.4,1.8,9.4,1.2c16.9-1.4,53.9,0.5,66.7-1.3
		c10.3-1.4,12.5-1.4,22.4-0.2c10.1,1.2,63.7-0.4,69.8-2.8c1.5-0.6,2.6-0.4,2.7,0.3c0.5,0,37.8,0.5,38,1c0.3,0.7,1.5,1,2.5,0.5
		c2-0.7,42.1-3.9,42.8-1.9c2.1,6-2.6,31.4-7,37.7c-4.7,6.6-31.2-0.4-52.3,3.7c-117.1,1-90.2-0.3-120,3c-2.4-2.2-11.7,3.1-17.4-0.7
		c-2.4-1.6-19.2-1.9-22.9-0.3c-1.6,0.6-24-0.1-47-0.5c-23-0.4-46.8-0.6-51.2,1.5C217.7,288.7,153.8,292.3,138.9,292.7z"/>
	<path class="st0" d="M139.4,334c-5.2-2.3-27.1-2.3-49-3.5c-21.9-1.2-42.6-3.8-46.4-5.5c-2.1-1.4,1-9.5,5.1-17.9
		c10.7-21.7,12.4-21.3,17.9-19c3.7,1.6,22.7,3.5,41.5,3.9c15.5,0.4,29.1-0.1,38.9-0.4c1,1,4.1-2.4,4.6-1.1c0.8,1.4,33.1,1,66.6,0.1
		c33.5-0.9,68-2.4,73.5-2.6c6.6-0.2,1.4,1.8,9.2,0.9c16.5-1.8,52.6-0.9,65.1-2.9c10-1.7,12.1-1.7,21.8-0.8c9.9,0.9,62.2-1.7,68-4.3
		c1.4-0.6,2.6-0.5,2.6,0.3c1.5,0.1,17,0,18.5,0c0.5,0,18.5-0.1,18.6,0.3c0.3,0.7,1.5,1,2.5,0.5c1.9-0.8,40.9-4.7,41.7-2.6
		c2.2,5.9-1.7,31.5-5.8,37.8c-4.4,6.7-30.4,0.1-50.9,4.6c-114.7,3.4-87.9,1.5-116.8,5.6c-2.4-2.1-11.3,3.4-17-0.3
		c-2.4-1.5-18.8-1.4-22.3,0.2c-3.1,1.4-87.1-0.7-95.5,3.7C216.1,327.6,154.4,333.4,139.4,334z"/>
</g>
<g>
	<text transform="matrix(1 0 0 1 38.4658 40.1043)"><tspan x="0" y="0" class="st1 st2 st3">- Enfermedades cardíacas</tspan><tspan x="0" y="43.9" class="st1 st2 st3">- Embolia</tspan><tspan x="0" y="87.8" class="st1 st2 st3">- Cáncer</tspan><tspan x="0" y="131.7" class="st1 st2 st3">- Aumenta probabilidades de portar VIH, Hepatitis B o C</tspan><tspan x="0" y="175.6" class="st1 st2 st3">- Endocarditis</tspan><tspan x="0" y="219.5" class="st1 st2 st3">- Enfermedades pulmonares</tspan><tspan x="0" y="263.4" class="st1 st2 st3">- Trastornos de salud mental</tspan></text>
</g>
</svg>
