<?xml version="1.0" encoding="utf-8"?>
<!-- Generator: Adobe Illustrator 25.4.1, SVG Export Plug-In . SVG Version: 6.00 Build 0)  -->
<svg version="1.1" id="Capa_1" xmlns="http://www.w3.org/2000/svg" xmlns:xlink="http://www.w3.org/1999/xlink" x="0px" y="0px"
	 viewBox="0 0 1002.7 496.6" style="enable-background:new 0 0 1002.7 496.6;" xml:space="preserve">
<style type="text/css">
	.st0{opacity:0.7;}
	.st1{opacity:0.7;fill:#C2DD89;}
	.st2{fill:none;}
	.st3{fill:#3C246F;}
	.st4{font-family:'Bitter-Regular';}
	.st5{font-size:42.6066px;}
</style>
<g class="st0">
	<path class="st1" d="M202.6,74.3C182.5,68.5,47,80.1,38.3,78.8c-8.2-2.1,2.9-45.2,10.2-51.8c2.6-2.3,5.6-2.9,12.7-2.1
		c7.4,0.9,85.3-3.3,154.8-6.9c0,0,229.6-6.4,264.9-7.1c12.1-0.2,2.5,2.4,16.7,1.4c30.2-2.2,96.1,0,119-2.1C635,8.4,639,8.4,656.6,10
		c15.3,1.5,113.5,1.3,124.6-1.6c2.7-0.7,4.7-0.4,4.7,0.5c0,0,48.1,1.8,64.7,2.9c1.9,0.1,3,0.3,3,0.4c0.5,1,2.5,1.4,4.4,0.9
		c3.5-1,75.3-2.3,76.4,0.5c3.1,8-7.8,41.2-16.2,49.2c-8.8,8.3-54.5-2.8-92.7,1.5c-197.6-3.9-174.1-2.6-211.9,0.4
		c-4.3-2.9-20.7,4-30.7-0.9c-4.2-2.1-33.9-2.4-40.5-0.3c-4.8,1.5-156.4-2.1-173.3,4.3C338.1,62.9,218,73.3,202.6,74.3z"/>
	<path class="st1" d="M218.7,106.9c-19.5-6.5-163.6-3.9-174-6c-8.5-2.7,6.4-44.9,14.5-51c2.9-2.2,6.1-2.4,13.5-1.2
		C84.3,51,236,51.5,236,51.5c2,1.4,8.1-2.9,9.2-1.3c3.4,3.8,249.3,5.7,270.2,6.1c12.7,0.2,2.6,2.5,17.6,1.9
		c31.9-1.1,101.3,2.8,125.5,1.1c19.4-1.4,23.5-1.3,42.1,0.7c18.9,1.9,119.8,2.8,131.4,0.1c2.8-0.7,5-0.4,5,0.6
		c0,0.2,71,2.9,71.3,3.6c0.5,1,2.7,1.5,4.7,0.9c3.7-0.9,79.5-2.3,80.6,0.5c3.5,8-7.9,41.3-16.9,49.2c-9.2,8.5-58.3-2.7-98.2,1.4
		l-184.8-4.7l-39.7,2.2c-4.4-3-22.1,3.7-32.5-1.7c-4.4-2.1-35.8-3.3-42.9-1.4c-6.1,1.5-166.9-7.2-183.6-2
		C365.9,103.1,246.4,106.5,218.7,106.9z"/>
	<path class="st1" d="M185.2,145.2c-21.1-6-161.9,4.3-170.8,2.9C5.9,146,18,103,25.6,96.5c2.7-2.3,5.9-2.9,13.2-1.9
		c7.3,0.9,79-2.1,161-5.4c0,0,211.8-3.5,275.5-3.9c12.5-0.1,2.6,2.4,17.4,1.6c31.5-1.8,99.9,1.3,123.8-0.5
		c19.1-1.5,23.2-1.5,41.5,0.5c15.5,1.7,117.9,3.1,129.5,0.3c2.8-0.7,4.9-0.3,4.9,0.6c1.9,0.2,9,0.5,10.9,0.6
		c0.7,0,59.1,3.1,59.3,3.8c0.5,1,2.6,1.5,4.6,0.9c3.7-1,78.3-1,79.4,1.8c3.1,8.1-8.7,41-17.6,48.9c-9.3,8.2-56.5-3.7-96.4-0.1
		c0,0-11.3-0.4-28.3-1c-170.4-6-157.6-4-191.9-1.9c-4.4-2.9-21.6,3.7-31.9-1.4c-4.3-2.1-35.2-2.9-42.1-0.9c-4.9,1.4-163-4.2-180.2,2
		C325.6,135.3,198.3,144.5,185.2,145.2z"/>
	<path class="st1" d="M182.8,180.1c-19.1-6.3-159.5-1.9-169.7-3.9c-8.3-2.6,5.7-45,13.5-51.2c2.8-2.2,5.9-2.5,13.1-1.4
		c11.4,2.1,159.4,0.7,159.4,0.7c1.9,1.4,7.9-3,8.9-1.4c3.3,3.8,243.1,2.6,263.5,2.7c12.4,0.1,2.5,2.5,17.2,1.7
		c31.1-1.5,98.8,1.5,122.4-0.4c18.9-1.6,22.9-1.6,41,0.2c18.5,1.7,116.8,1.3,128.1-1.5c2.8-0.8,4.9-0.4,4.8,0.5
		c0,0.2,69.3,2,69.6,2.8c0.5,1,2.6,1.4,4.6,0.8c3.6-0.9,77.5-3.3,78.6-0.5c3.5,7.9-7.2,41.4-15.9,49.4c-8.9,8.6-56.9-2-95.7,2.7
		l-180.2-2.4l-38.7,2.6c-4.4-2.9-21.5,4-31.7-1.3c-4.3-2.1-35-2.9-41.8-0.9c-5.9,1.6-162.8-5.1-179,0.3
		C326.3,174.5,209.8,179.4,182.8,180.1z"/>
</g>
<path class="st1" d="M202.6,287.3c-20.1-5.8-155.6,5.8-164.3,4.5c-8.2-2.1,2.9-45.2,10.2-51.8c2.6-2.3,5.6-2.9,12.7-2.1
	c7.4,0.9,85.3-3.3,154.8-6.9c0,0,229.6-6.4,264.9-7.1c12.1-0.2,2.5,2.4,16.7,1.4c30.2-2.2,96.1,0,119-2.1
	c18.4-1.7,22.3-1.8,39.9-0.1c15.3,1.5,113.5,1.3,124.6-1.6c2.7-0.7,4.7-0.4,4.7,0.5c0,0,48.1,1.8,64.7,2.9c1.9,0.1,3,0.3,3,0.4
	c0.5,1,2.5,1.4,4.4,0.9c3.5-1,75.3-2.3,76.4,0.5c3.1,8-7.8,41.2-16.2,49.2c-8.8,8.3-54.5-2.8-92.7,1.5
	c-197.6-3.9-174.1-2.6-211.9,0.4c-4.3-2.9-20.7,4-30.7-0.9c-4.2-2.1-33.9-2.4-40.5-0.3c-4.8,1.5-156.4-2.1-173.3,4.3
	C338.1,276,218,286.3,202.6,287.3z"/>
<path class="st1" d="M109.8,344.3c-8.7-8.2-72.1,5.8-76,3.9c-3.6-3,5.4-61.9,9.3-70.9c1.4-3.2,2.8-3.9,6-2.7
	c3.3,1.3,39.5-3.4,71.8-7.4c0,0,106.2-5.6,122.5-6.1c5.6-0.2,0.9,3.3,7.6,2.1c14.1-2.6,44.2,1.3,54.9-1.3c8.6-2.1,10.4-2.1,18.4,0.4
	c6.9,2.2,52.1,3.3,57.4-0.5c1.3-0.9,2.2-0.5,2.1,0.8c0,0,22,3.1,29.5,4.9c0.8,0.2,1.3,0.4,1.3,0.5c0.1,1.3,1,2,2,1.2
	c1.7-1.4,34.9-2.1,35.1,1.7c0.7,11.1-7.2,56.3-11.8,67.2c-4.8,11.3-24.8-4.6-42.8,0.8c-90.5-8.1-79.9-5.9-97.5-2.3
	c-1.7-4-9.9,5.2-14-1.7c-1.7-2.9-15.4-3.7-18.6-1c-2.4,2-71.7-5-80.1,3.5C173.2,330.6,117,343.2,109.8,344.3z"/>
<path class="st1" d="M207.3,435.5c-17.6-8.4-147.8-5-157.3-7.7c-7.6-3.4,5.8-57.5,13.1-65.3c2.6-2.8,5.5-3.1,12.2-1.5
	c10.5,2.9,147.7,3.5,147.7,3.5c1.8,1.8,7.3-3.7,8.3-1.6c3.1,4.9,225.3,7.3,244.2,7.7c11.5,0.3,2.3,3.2,15.9,2.4
	c28.9-1.5,91.6,3.6,113.5,1.4c17.5-1.8,21.3-1.7,38,1c17.1,2.5,108.2,3.5,118.7,0.1c2.6-1,4.5-0.5,4.5,0.7c0,0.3,64.2,3.7,64.5,4.7
	c0.5,1.2,2.4,1.9,4.2,1.1c3.4-1.1,71.8-3,72.8,0.6c3.2,10.2-7.1,52.8-15.2,63c-8.3,10.8-52.7-3.5-88.7,1.8l-167-6l-35.9,2.8
	c-4-3.8-20,4.7-29.4-2.2c-4-2.7-32.4-4.3-38.7-1.8c-5.5,1.9-150.9-9.2-165.9-2.5C340.4,430.6,232.4,435,207.3,435.5z"/>
<path class="st1" d="M186.1,467.7c-15.3-8.4-128.1-5-136.3-7.7c-6.6-3.4,5-57.5,11.3-65.3c2.2-2.8,4.8-3.1,10.5-1.5
	c9.1,2.9,128,3.5,128,3.5c1.5,1.8,6.3-3.7,7.2-1.6c2.7,4.9,195.3,7.3,211.7,7.7c10,0.3,2,3.2,13.8,2.4c25-1.5,79.4,3.6,98.3,1.4
	c15.2-1.8,18.4-1.7,33,1c14.8,2.5,93.8,3.5,102.9,0.1c2.2-1,3.9-0.5,3.9,0.7c0,0.3,55.6,3.7,55.9,4.7c0.4,1.2,2.1,1.9,3.7,1.1
	c2.9-1.1,62.3-3,63.1,0.6c2.7,10.2-6.2,52.8-13.2,63c-7.2,10.8-45.7-3.5-76.9,1.8l-144.7-6l-31.1,2.8c-3.5-3.8-17.3,4.7-25.5-2.2
	c-3.4-2.7-28.1-4.3-33.6-1.8c-4.8,1.9-130.8-9.2-143.8-2.5C301.4,462.8,207.8,467.2,186.1,467.7z"/>
<rect x="61.4" y="24" class="st2" width="880.9" height="521"/>
<text transform="matrix(1 0 0 1 61.3831 56.8516)"><tspan x="0" y="0" class="st3 st4 st5">- Ingieras comida y mucha agua. (ya que </tspan><tspan x="0" y="51.1" class="st3 st4 st5">beber sin comer, produce efectos que </tspan><tspan x="0" y="102.3" class="st3 st4 st5">pueden ser incontrolables y desagradables)</tspan><tspan x="0" y="204.5" class="st3 st4 st5">- Designes con tus amig@s, un/a conduc</tspan><tspan x="792.6" y="204.5" class="st3 st4 st5">-</tspan><tspan x="0" y="255.6" class="st3 st4 st5">tor/a que no haya bebido.</tspan><tspan x="0" y="357.9" class="st3 st4 st5">- Quien conduzca un vehículo  NO tiene que </tspan><tspan x="0" y="409" class="st3 st4 st5">haber consumido alcohol ni drogas</tspan></text>
</svg>
