<?xml version="1.0" encoding="utf-8"?>
<!-- Generator: Adobe Illustrator 25.4.1, SVG Export Plug-In . SVG Version: 6.00 Build 0)  -->
<svg version="1.1" id="Capa_1" xmlns="http://www.w3.org/2000/svg" xmlns:xlink="http://www.w3.org/1999/xlink" x="0px" y="0px"
	 viewBox="0 0 514.6 440.5" style="enable-background:new 0 0 514.6 440.5;" xml:space="preserve">
<style type="text/css">
	.st0{clip-path:url(#SVGID_00000172422519738795094600000008591039447166367376_);}
	.st1{fill:#E6B275;}
	.st2{fill:#FFB915;}
	.st3{fill:#1E3872;}
	.st4{fill:#851E00;}
	.st5{fill:#191919;}
	.st6{fill:#282828;}
	.st7{fill:#3A6190;}
	.st8{fill:#5479B1;}
	.st9{fill:#DC9A00;}
	.st10{fill:#F3CB91;}
	.st11{fill:#B13208;}
	.st12{clip-path:url(#SVGID_00000035489078520423546920000000047855917353297809_);}
	.st13{clip-path:url(#SVGID_00000088129769720484787610000004577318829906440885_);}
	.st14{clip-path:url(#SVGID_00000142874595544232778480000015056214370351176070_);}
	.st15{clip-path:url(#SVGID_00000078012000760068204020000017809943038261944767_);}
	.st16{clip-path:url(#SVGID_00000104691184947368517110000009320442534433379988_);}
	.st17{fill:#7795CF;}
	.st18{clip-path:url(#SVGID_00000133508063659699399220000018102435690357953960_);}
	.st19{clip-path:url(#SVGID_00000092449217797048171510000011490076447067012539_);}
	.st20{clip-path:url(#SVGID_00000101782637945647647180000006860176599878509702_);}
</style>
<g>
	<defs>
		<rect id="SVGID_1_" x="21.5" y="1.9" width="290.1" height="340.5"/>
	</defs>
	<clipPath id="SVGID_00000062177846213494991600000000216438389408678529_">
		<use xlink:href="#SVGID_1_"  style="overflow:visible;"/>
	</clipPath>
	<g style="clip-path:url(#SVGID_00000062177846213494991600000000216438389408678529_);">
		<g>
			<g>
				<path class="st1" d="M96.1,106.9c-4.6,1.3-9.8,0.6-13.8-2c-0.6-0.4-1.3-0.9-1.7-1.5c-0.8-1.3-3-3.6-4.1-4.7
					c2.8-0.1,6.5-3.4,7.7-5.9c1.2-2.5,1.7-8.2,3.7-10.1c2.3,0.4,5.7,4.9,8,5.4c0.9,0.2,1.9,0.5,2.1,1.3c0.1,0.5-0.1,1-0.3,1.5
					c-1.4,3.7-2.4,7.6-2.8,11.6C94.9,104.1,94.9,105.9,96.1,106.9z"/>
			</g>
			<g>
				<path class="st2" d="M197.6,1c-0.4-0.6-1-1.3-1.7-1.1c-0.9,0.2-1.1,1.3-1.2,2.2c-0.6,11.3-1.3,19.6-1.2,33.3
					c0,2.3,0.4,9.1,1,11.4c0.6,2.3,0.7,0.5,2.8,1.4c0.9-3.7,0.5-7.6,0.2-11.4c-0.7-9.1-0.4-18.4,0.7-27.4C198.6,6.5,199,3.5,197.6,1
					z"/>
			</g>
			<g>
				<path class="st2" d="M193.5,60.7c-0.4-0.4-1.1-0.3-1.6,0.1c-0.4,0.4-0.7,0.9-0.9,1.5c-0.7,1.9-0.9,4.1-0.4,6
					c0.6,2,2,3.8,3.9,4.4c0.8,0.3,1.7,0.4,2.5,0.4c1.6,0,3.3-0.1,4.7-0.9c2.5-1.4,3.7-4.8,2.7-7.5C203.5,62,196.3,60.4,193.5,60.7z"
					/>
			</g>
			<g>
				<path class="st3" d="M159.5,94.8c7.2-0.4,18.6-1.2,23.5-0.4c1.8,0.3-3,5.3-4.5,6.3c-0.8,0.5-3,2-3.7,2.7c-1.6,1.7-1.1,3.5-1,5.8
					c0.4,6.7,1.4,12.1,1.8,18.8c0.1,1.3,0.3,2.9,1.6,3.3c0.8,0.3,1.7,1,2.2,1.8c0.5,0.9-0.7,1.8-1.7,2.1c-1.2,0.4-6.4,0.7-6.7-0.5
					c-0.4-1.4,1.5-2.3,2-3.6c0.2-0.7,0.1-1.4-0.1-2.2c-1.4-6.8-1.6-11-1.6-18c0-1-0.6-4.8-0.9-5.7c-0.5-1.3-2.3-1.5-4.4-2.6
					c-2.4-1.3-5.3-3.2-6.1-5.1C159.4,96.3,158.3,94.9,159.5,94.8z"/>
			</g>
			<g>
				<path class="st4" d="M179,300.2c-2.9,0.2-5.9,0.4-8.9,0.6c0.7,2.1,1.3,5.7,1.9,7.8c0.3,0.8,0.6,1.7,1.2,2.3
					c0.8,0.9,2.1,1.1,3.3,1.4c6.2,1.1,12.5,2.3,18.7,1.7c0.7-0.1,1.4-0.2,1.9-0.6c1-0.9,0.5-2.6-0.3-3.6c-2.7-3-8.1-2.5-10.5-5.7
					c-0.7-1-1.1-2.2-1.9-3.2C183.1,299.1,181.3,300.1,179,300.2z"/>
			</g>
			<g>
				<path class="st4" d="M144.5,310.9c-1.1,0.5-2.2,0.9-3.3,1.4c0.2,3.9,0.6,7.9,1.8,11.6c0.1,0.4,0.3,0.8,0.6,1.1
					c0.3,0.2,0.7,0.3,1.1,0.3c7.4,0.6,12,1.9,19.4,1.9c2.8,0,2.9-0.4,3.5-0.9c0.7-0.7,0.4-1.9,0-2.8c-1.3-2.4-2.5-3.6-5-4.7
					c-2.5-1.1-5.2-1.8-7.8-2.9c-0.5-0.2-1-0.4-1.4-0.8c-1.2-1.3-0.3-3.4-0.7-5.1C150.3,309.7,146.7,309.9,144.5,310.9z"/>
			</g>
			<g>
				<path class="st5" d="M159.8,196.9c-0.9-0.6-4.1-1.2-5.2-0.9c-0.1,5.5,0,11,0.3,16.5c0.3,5.3,0.7,10.5,1.1,15.7
					c2.1,26.2,4.3,52.4,6.4,78.5c0.1,1.4,0.3,2.9,1,4.2c0.8,1.2,2.3,2.1,3.7,1.5c-3.1-26.7-5.1-49.4-6-76.3
					c-0.2-5.9-0.6-11.1-0.9-20.8C160.1,209.4,159.4,202.9,159.8,196.9z"/>
			</g>
			<g>
				<path class="st6" d="M40.4,160.7c-0.8,0.1-1.6,0.3-2.4,0.7c-2.4,1.3-3.1,4.6-2.8,7.3c4.4,47.9,8,86.9,13.3,104.3
					c0.2,0.7,1.2-1.3,1.8-1.2c0.7,0.2,1.3-0.5,1.8-1.1c2.7-3.9,5.4-7.8,8-11.7c1.8-2.7,3.6-5.4,4.5-8.5c1.3-4.3,0.8-8.8,0.2-13.3
					c-2.6-22.4-5.3-44.8-7.9-67.2c-0.4-3.8,1.8-6.6-1.6-8.3C53.2,160.7,41.9,160.5,40.4,160.7z"/>
			</g>
			<g>
				<path class="st6" d="M112.9,258c0.3-0.5,1,0.2,1.1,0.8c1,5.6,1.7,11.3,1.9,17c0,0.8,0,1.7-0.5,2.3c-0.9,0.9-2.7,0.3-3.8,1
					c-8.3-1.8-61.7,1.5-63.2-6.5c-0.6-3,3.7-4.3,5.6-6.7c3.3-4.2,6.7-8.5,10-12.7c0.7-0.9,1.4-1.8,2.3-2.4c1.1-0.7,2.4-1,3.6-1.2
					c9.4-1.6,19,0.9,28.2,3.4c4.4,1.2,8.8,2.4,13.2,3.6C112.3,256.8,113.6,257.4,112.9,258z"/>
			</g>
			<g>
				<path class="st6" d="M52.9,270.7c1.1-0.4,4-0.4,5.9-0.6c0.1,21.8,2.7,44.1,3.5,63.4c-1.8,0.7-3,0.7-4.9,0.6
					C58.1,334.1,51.5,271.1,52.9,270.7z"/>
			</g>
			<g>
				<path class="st6" d="M65.7,259.1c1.1-0.4,4-0.4,5.9-0.6c0.1,21.8,2.7,44.1,3.5,63.4c-1.8,0.7-3,0.7-4.9,0.6
					C70.9,322.6,64.4,259.5,65.7,259.1z"/>
			</g>
			<g>
				<path class="st6" d="M101.3,333.2c1.3,0.2,2.6-0.6,3.9-0.4c-0.2-20.1,0.6-39.1-0.9-59.2c-0.4-1.3-3.4-1.4-4.2-0.3
					c-0.7,1.2-0.3,2.7-0.3,4C100,299,100.5,323,101.3,333.2z"/>
			</g>
			<g>
				<path class="st6" d="M110.3,322.3c1.3,0.2,2.6-0.6,3.9-0.4c-0.2-20.1,0.6-39.1-0.9-59.2c-0.4-1.3-3.4-1.5-4.2-0.3
					c-0.7,1.2-0.3,2.7-0.3,4C109,288,109.5,312,110.3,322.3z"/>
			</g>
			<g>
				<path class="st7" d="M92.7,227.4c2.5-2.9,5.2-5.8,8.9-6.9c2.1-0.6,2.3-0.1,4.5,0c13.5,0.7,29,2.7,41.9,6.8
					c4.2,1.3,8.5,2.9,12,5.6c6.6,5.1,9.6,13.3,12.3,21.1c5.3,15.2,10.6,30.3,15.9,45.5c0.2,0.5,0.3,1,0.2,1.5
					c-0.2,0.6-0.9,0.9-1.5,1.2c-10.2,3.7-21.5,4.4-32.1,1.9c-1.4-9.2-2.8-18.4-4.2-27.6c-1.1-7.4-2.4-15.1-6.9-21
					c-1.8-2.4-4.1-4.4-6.6-6.1c-5.1-3.5-11.1-5.8-17.3-6.6c-9-1.2-19.2,0.5-26.2-5.2c-2.1-1.7-3.8-4.3-3.1-6.9
					C90.9,229.4,91.8,228.4,92.7,227.4z"/>
			</g>
			<g>
				<path class="st8" d="M64.3,227c-0.9-0.1-4.4-0.5-4.8,0.4c-3.8,7.4-2.3,17.2-1,25.4c1,5.8,3.6,11.7,8.7,14.7
					c2.5,1.4,5.4,2,8.3,2.5c17.4,2.8,35.3,1.9,52.3-2.5c-3.5,15.3,0.5,31.8,3.8,47.1c0.2,0.9,0.4,1.7,1,2.4c0.5,0.6,1.3,0.9,2,1.1
					c7.3,1.9,17.4-1.9,21.4-3.2c0.6-0.2,4.1-42.4,3.4-53.2c-0.1-2,0.2-9.2-0.4-11.8c-0.6-2.3-2.8-5.1-4.7-6.6
					c-6.7-5.4-16.2-7.6-24.8-8.8c-3.4-0.5-6.8-0.6-10.2-1c-18.2-1.9-36.1-10.1-54.3-7.2L64.3,227z"/>
			</g>
			<g>
				<path class="st5" d="M278.7,204.2c1.8-1.9,0.6-6.2-0.6-8.5c-1.9-3.9-3.7-6.5-5.6-10.4c-0.6-1.3-1.3-2.6-2.5-3.4
					c-1-0.6-3-1.5-4.1-1.7c-12.2-1.4-81.2-3.4-97.7-3.4c-12.5,0-24.1-0.9-36.5-0.7c-4.3,5.2-6.9,11.8-7.4,18.5c-0.2,2.3,0.1,5,2,6.2
					c1.2,0.8,2.7,0.8,4.1,0.8C157.1,201.7,277.1,205.9,278.7,204.2z"/>
			</g>
			<g>
				<path class="st9" d="M254.7,154c-1.9-0.6-3.9,0.6-5,2.3c-1,1.7-1.3,3.7-1.4,5.6c-0.2,2.8-0.2,5.6,0.8,8.2c1.1,3,3.4,5.5,6.2,6.9
					c-0.2,1.6-0.6,3.2-1.9,4.2c-1.3,1-2.7,2.5-2.2,4.1c0.1,0.3,0.2,0.5,0.4,0.7c0.4,0.4,1,0.4,1.6,0.4c4.3,0,8.3-1.8,12.2-3.6
					c0.7-0.3,1.4-0.6,1.7-1.2c0.6-0.9,0.3-2,0.1-3c-0.8-3.1-1.6-6.3-2.3-9.4c-0.5-1.8-0.9-3.7-1.6-5.5
					C261.7,159.4,259,155.3,254.7,154z"/>
			</g>
			<g>
				<path class="st5" d="M261.8,200.8c-1.7-0.1-3.3-0.2-5-0.3c0.2,37.2,3.2,78.7,5,111.6c0.9,0.9,3,1,3.8,0
					C266.2,311,262.9,237.1,261.8,200.8z"/>
			</g>
			<g>
				<path class="st5" d="M145.2,198.5c-0.3-0.2-0.7-0.3-1.1-0.4c-2.9-0.6-3-0.7-5.9-1.3c2.7,12.8,6.4,107.9,7.5,133.9
					c1.5,0.2,4.4,0.4,5.9,0.6C150,321.4,146,199.1,145.2,198.5z"/>
			</g>
			<g>
				<path class="st5" d="M272.9,320.8c-0.9-40-1.2-79.9-0.9-119.9c1.5-0.4,3.2,1.2,4.6,1.9c0,7.2,0.6,19.4,0.7,28.7
					c0.4,28.7,0,58.4,0.8,88C278.2,320.8,274.1,321.5,272.9,320.8z"/>
			</g>
			<g>
				<path class="st4" d="M97.3,104.4c1.3,0.1,2.5,0.6,3.5,1.3c6.3,3.9,9,11.8,9.3,19.2c0.3,7.4-1.5,14.7-2.1,22.1
					c-1.9,24.4,9.1,48.3,7.7,72.6c0,0.6-0.1,1.2-0.4,1.8c-0.3,0.6-0.9,1-1.4,1.4c-7.5,5.4-19.2,6.7-28.4,7c-9.2,0.3-14.9,1-25.5,1.3
					c-1.3,0-2.5,0.5-3.7,0.1c-2-0.7-2.9-2.9-3.5-4.9c-7.6-25.1-10-51.7-6.9-77.7c1-8.5,2.6-17.1,5.8-25c3.2-8,8.2-15.4,15-20.6
					c2.9-2.2,6.2-4,9.7-4.8c1.2-0.3,2.5-0.4,3.6,0.3c0.8,0.5,1.2,1.4,1.8,2.2c2.4,3.5,7,5.4,11.1,4.6
					C94.5,104.9,95.8,104.4,97.3,104.4z"/>
			</g>
			<g>
				<path class="st10" d="M119.3,88.1c2.3,1,4.7,1.9,7,2.9c1.2,0.5,2.9,0.8,3.5-0.3c0.3-0.5,0.2-1.2,0-1.8c-0.9-2.6-3.4-4.3-4.5-6.8
					c-1.4-3-1.4-7.5,1.3-9.4c0.7-3.9-0.2-8.2-2.6-11.4c-0.7-1-1.5-1.9-2.6-2.5c-1.7-1.1-3.8-1.4-5.9-1.4c-7.9-0.1-15.8,4.2-20,11
					c-2.4,3.8-6.6,4.7-8.4,8.8c-1.8,4.1-2,9.1,0.3,13c2.2,3.9,7.2,7.4,11.6,6.4c2.5-0.5,4.5-3,6.9-1.9c0.9,0.4,1.8,1.7,2.7,2.1
					c2.1,0.8,2.5-1.6,1.7-2.7c1.4,0.3,3,1.2,4.2,0.5c1-0.6,0.3-2.4-0.3-3.3C116,89.9,117.6,89.3,119.3,88.1z"/>
			</g>
			<g>
				<path class="st9" d="M90.8,51.3c8.9-3.1,13.1-3.5,22.5-2.6c6.3,0.6,10.2,4,13.2,7.7c2.5,3,4.2,6.7,4,10.6
					c-0.2,3.9-2.5,7.7-6.1,9c-0.9-7-7.9-12.7-14.9-12c-4.2,0.4-8,2.6-11.6,4.9c-0.8,0.5-4.4,2.2-6.8,4.2c-1.4,1.1,1.8-6,2.3-7.7
					c0.5-1.7,1.5-3.4,1.2-5.1c-0.4-2-2.9-4-4.8-4.7c-1.9-0.7-5.3-1.3-5.1-1.8C85,53.1,87.1,52.6,90.8,51.3z"/>
			</g>
			<g>
				<path class="st10" d="M130.2,201.3c0,2.4,0.8,4,1.3,7.2c0.1,0.9,0.5,1.6,1.8,1.4c1-0.1,1.5-0.9,1.8-1.9c0.7-2.6,1.1-5,1-7.7
					c-0.1-1.7-0.5-3.4-1.1-5.1c-1-2.8-2.6-5.4-5-7.1c-2.4-1.6-5.9-2-8.3-0.4c-1.9,1.3-2.9,3.8-3,6.1c-0.1,2.4,0.6,4.7,1.4,6.9
					c1,2.8,1.5,6.4,2.8,9.1c0.8,1.6,2.2,0.6,2.3-0.1c0.4-2.4-0.5-5.9,0.1-8.9c-0.2,3.3,0,7.3,2.4,8.8c0.8,0.5,2.6,0.3,2.7-1.6
					C130.5,205.9,130.3,203.3,130.2,201.3z"/>
			</g>
			<g>
				<path class="st10" d="M164.6,130c-1.1-1.5-2.1-3.1-3.2-4.6c-0.3-0.4-0.6-0.8-0.7-1.3c-0.1-0.5-0.1-0.9,0-1.4
					c0.3-3.1,0.8-6.5,3.1-8.5c2-1.7,4.8-1.9,7.4-2c1.6-0.1,3.3-0.2,4.9-0.2c1,0,2.4,0.3,2.3,1.3c-2.3,1.8-5,3.1-7.9,3.6
					c3-0.4,6.1-0.5,9.2-0.3c0.1,1.3-1.2,2.1-2.4,2.6c-1.4,0.7-2.7,1.3-4.1,2c1.9-0.2,3.8-0.3,5.7-0.2c0.6,0,1.3,0.5,1,0.9
					c-2,1.4-4.1,2.9-6.1,4.3c1.7-0.4,3.5-0.4,5.2-0.1c0.7,0.1,1.6,0.5,1.7,1.2c0.1,0.7-0.6,1.2-1.2,1.6c-2.3,1.4-4.6,2.7-7,3.9
					c-0.9,0.5-1.8,0.9-2.8,0.9C167.5,133.8,165.9,131.8,164.6,130z"/>
			</g>
			<g>
				<path class="st3" d="M208.6,186c1.5-1.9,2.1-11.3,2.1-16.3c0-5-1.1-10.4-4.7-13.8c-1.4-1.3-3.2-2.3-4.4-3.9
					c-1.4-1.8-1.8-4-2.1-6.2c-1-6.2-0.5-12.4-1.9-18.5c-0.1-0.3-0.1-0.6-0.2-1c0.8-0.3,1.6-0.6,2.4-0.9c0.2-0.1,0.4-0.2,0.6-0.3
					c0.5-0.7-0.5-1.4-1.3-1.6c-3.1-0.5-10.4-0.3-10.9,0.2c-1.9,2.1,2.9,2.5,3.2,2.9c0.3,0.4,0.5,2,0.6,2.5c0.3,6.7,0.7,13.4,1,20.1
					c0.1,2.9-4.3,4.3-6.4,6.2c-3.6,3.4-5,8.7-4.7,13.7c0.3,5,2.1,9.7,3.8,14.4c0.3,0.8,0.7,2.8,1.4,3.3
					C187.6,187.5,207,188.1,208.6,186z"/>
			</g>
			<g>
				<path class="st2" d="M244.2,186c0.1,2.2,5,5.2,4.6,2.2c-0.8-5.6,1.4-14,0.9-23.6c-0.1-0.9,1.1-5,1.9-5.1c2.4-0.4,6.2,3,6.4,5.8
					c0.3,2.8-2.1,3.2-1.5,8.6c0.4,3.5,3.9,3.9,6.3,6.4c-1.1,2-3.6,2.6-5.7,3.4c-2.1,0.8-6.2,3.1-4.5,4.5c3.2,2.8,16.7,1.3,21.2,0.7
					c3.1-0.4,1.2-4.4,4.1-5.6c8.7-3.6,17.5-12.6,19.5-21.9c2-9.2,2.4-20.7-0.2-29.8c-1.3-4.4-3.9-8-6.5-11.8
					c-2.6-3.8-6.3-7-10.7-8.3c-1.4-0.4-3-0.6-4.4-0.2c-1.4,0.4-3,1.7-2.8,3.2c0.5,4.1,7.8,1.5,13.9,13.3c3,5.9,3.5,12.7,3.6,19.3
					c0,3.9-0.2,10.7-1.5,14.4c-1.8,5.1-3.4,8.7-7.1,12.6c-0.5,0.5-3,2.1-3.6,2c-0.8-0.2-1.3-1.1-1.2-1.9c1.4-7.3,3.3-10.5-2.5-22.5
					c-3.1-6.5-12.2-13.7-18-18c-3.1-2.3,2.6-5.6-3.9-10.9c-2.1-1.7-2.2-5.7-3.1-6c-1.2-0.4-2.4,2.5-2.7,4.2c-1.3-0.1-3.7-4-4.5-3.8
					c-1.3,0.3-0.6,3.8-0.2,5.8c0.1,0.8-2,1.7-4.1,4.3c-1.9,2.4-2.9,3.9-2.8,4.5c0.1,0.9,1,1.4,1.8,1.9c5.2,3.6,5.6,9.6,3.6,15.4
					c-2.7,8-1.5,24.4-1.1,32.8c0.2,4.5-2.9,4.9-1.5,6.6C239.7,190.4,243.9,188.6,244.2,186z"/>
			</g>
			<g>
				<path class="st8" d="M201.7,159.8c-1-0.8-2.4-1.2-3.7-1.4c-2.4-0.3-5.1,0.1-6.6,2c-1.1,1.4-1.4,3.2-1.3,5
					c0.1,1.4,0.5,2.8,1.5,3.8c0.7,0.7,1.6,1.1,2.5,1.3c2.9,0.8,6.4,0,8.3-2.4C204.2,165.6,204,161.7,201.7,159.8z"/>
			</g>
			<g>
				<path class="st9" d="M176.1,63.8c-0.1,0.2-0.6,4.5-0.5,4.7c0.3,0.6,30.6-4,44.7-2.1c-0.5-1.9-1-3.8-2.4-6.6
					c-2.6-5-5.3-8.3-9.8-11.6c-4.5-3.3-12.2-4.5-17.5-2.5c-3.8,1.5-6.6,3.5-9.2,6.7C178.6,56,177.7,58.9,176.1,63.8z"/>
			</g>
			<g>
				<path class="st11" d="M73.9,128.6c0.3-6.7,3.8-10.5,7.9-13c4.3-2.7,20.2-5.1,29.4,0.7c7.6,4.7,11.4,15.8,15.6,23.6
					c4.2,7.9,7.5,18.5,13.7,24.9c0-13.4,6.6-32.3,15.2-42.5c1.2-1.5,2.7-3,5.3-1.8c1.3,0.6,2.3,1.6,3.1,2.8c1.3,2.2,2.7,4.5,4,6.7
					c0.6,1,1.2,2,1.3,3.2c0.1,1.3-0.6,2.5-1.2,3.7c-5.2,10-7.4,21.3-10.3,32.2c-2.8,10.2-6.8,20.8-15.5,26.7
					c-1.2,0.8-2.5,1.5-3.9,1.5c-1.9,0-3.5-1.2-4.9-2.4c-11.4-10-18.2-25.7-30.8-34.1c-8.1-5.4-16.9-9.3-23-16.9
					C76.1,139.4,73.6,134.3,73.9,128.6z"/>
			</g>
			<g>
				<path class="st9" d="M110.4,63.7c-1.9,0.5-5.1,1.9-7.1,4c-1.3,1.5-1.7,3-2.4,4.8c-0.8,2.2,0.2,4.7,1,6.4c-0.9,0-3.8,0.3-4.7,0.3
					c0.2-1.4,0.3-3-0.1-4.4c-0.4-1.4-1.2-2.5-2.6-2.7c-1.5-0.3-4.3,1.2-3.9,1c-0.2-0.5,1.8-3.5,2.1-3.9
					C96.7,64,103.8,63.5,110.4,63.7z"/>
			</g>
			<g>
				<path class="st5" d="M122.4,78.8c-0.2,0-0.4-0.1-0.6-0.2c-3.2-2.7-6-5.7-8.4-9.1c-0.3-0.4-0.2-0.9,0.2-1.2
					c0.4-0.3,0.9-0.2,1.2,0.2c2.4,3.2,5.1,6.2,8.2,8.8c0.4,0.3,0.4,0.8,0.1,1.2C122.9,78.7,122.6,78.8,122.4,78.8z"/>
			</g>
			<g>
				<path class="st5" d="M118.9,79.2c0,0.8-0.7,1.5-1.5,1.5c-0.8,0-1.5-0.7-1.5-1.5s0.7-1.5,1.5-1.5
					C118.3,77.7,118.9,78.3,118.9,79.2z"/>
			</g>
			<g>
				<path class="st5" d="M123.2,89c-0.2,0-0.4-0.1-0.6-0.3l-0.2-0.2c-0.3-0.3-0.3-0.9,0-1.2c0.3-0.3,0.9-0.3,1.2,0l0.2,0.2
					c0.3,0.3,0.3,0.9,0,1.2C123.7,89,123.4,89,123.2,89z"/>
			</g>
			<g>
				<path class="st5" d="M90.9,83.7c-0.1,0-0.1,0-0.2,0c-1.7-0.5-2.9-2.3-2.7-4.1c0.2-1.7,1.8-3.2,3.5-3.3c1-0.1,2.3,0.4,2.7,1.5
					c0.2,0.4-0.1,0.9-0.5,1.1c-0.4,0.2-0.9-0.1-1.1-0.5c-0.1-0.2-0.5-0.4-0.9-0.4c-1,0.1-1.8,0.9-2,1.8c-0.1,0.9,0.5,1.9,1.4,2.2
					c0.5,0.1,0.7,0.6,0.6,1C91.6,83.4,91.3,83.7,90.9,83.7z"/>
			</g>
			<g>
				<path class="st5" d="M245.9,127.4c-0.2,0-0.4-0.1-0.6-0.3c-0.3-0.3-0.3-0.9,0-1.2l0.2-0.2c0.3-0.3,0.9-0.3,1.2,0
					c0.3,0.3,0.3,0.9,0,1.2l-0.2,0.2C246.4,127.4,246.1,127.4,245.9,127.4z"/>
			</g>
			<g>
				<path class="st5" d="M242.3,126.1c-0.3,0-0.6-0.2-0.8-0.5c-0.2-0.4-0.1-0.9,0.4-1.2l0.4-0.2c0.4-0.2,0.9-0.1,1.2,0.4
					c0.2,0.4,0.1,0.9-0.4,1.2l-0.4,0.2C242.5,126.1,242.4,126.1,242.3,126.1z"/>
			</g>
			<g>
				<path class="st5" d="M237.8,134.6c0,0-0.1,0-0.1,0c-0.8,0-1.5-0.4-2-1c-0.5-0.6-0.7-1.3-0.6-2.1c0.3-1.6,1.9-3.1,2.7-3.6
					c0.4-0.3,0.9-0.1,1.2,0.2c0.3,0.4,0.1,0.9-0.2,1.2c-0.7,0.5-1.8,1.6-1.9,2.5c0,0.3,0,0.5,0.2,0.8c0.2,0.2,0.4,0.4,0.8,0.4
					c0.8,0.1,1.9-0.5,2.7-1.3c0.3-0.3,0.9-0.4,1.2,0c0.3,0.3,0.4,0.9,0,1.2C240.7,133.7,239.2,134.6,237.8,134.6z"/>
			</g>
			<g>
				<path class="st5" d="M242.1,138.1c-0.6,0-1.1-0.1-1.7-0.3c-0.4-0.2-0.7-0.7-0.5-1.1c0.2-0.4,0.7-0.7,1.1-0.5
					c1.5,0.6,3.5-0.2,4.2-1.6c0.2-0.4,0.7-0.6,1.2-0.4c0.4,0.2,0.6,0.7,0.4,1.2C245.9,137.1,244,138.1,242.1,138.1z"/>
			</g>
			<g>
				<defs>
					<path id="SVGID_00000085949262116275107650000006280752312944882068_" d="M179,300.2c-2.9,0.2-5.9,0.4-8.9,0.6
						c0.7,2.1,1.3,5.7,1.9,7.8c0.3,0.8,0.6,1.7,1.2,2.3c0.8,0.9,2.1,1.1,3.3,1.4c6.2,1.1,12.5,2.3,18.7,1.7c0.7-0.1,1.4-0.2,1.9-0.6
						c1-0.9,0.5-2.6-0.3-3.6c-2.7-3-8.1-2.5-10.5-5.7c-0.7-1-1.1-2.2-1.9-3.2C183.1,299.1,181.3,300.1,179,300.2z"/>
				</defs>
				<clipPath id="SVGID_00000091736667984859163920000001147911275763985069_">
					<use xlink:href="#SVGID_00000085949262116275107650000006280752312944882068_"  style="overflow:visible;"/>
				</clipPath>
				<g style="clip-path:url(#SVGID_00000091736667984859163920000001147911275763985069_);">
					<path class="st5" d="M181.8,307.4c-0.3,0-0.6-0.2-0.7-0.4c-0.2-0.4-0.1-0.9,0.3-1.2l6.5-3.8c0.4-0.2,0.9-0.1,1.2,0.3
						c0.2,0.4,0.1,0.9-0.3,1.2l-6.5,3.8C182.1,307.4,181.9,307.4,181.8,307.4z"/>
				</g>
				<g style="clip-path:url(#SVGID_00000091736667984859163920000001147911275763985069_);">
					<path class="st5" d="M185,309.2c-0.3,0-0.5-0.1-0.7-0.4c-0.3-0.4-0.2-0.9,0.2-1.2c2.3-1.7,4.6-3.5,6.8-5.4
						c0.4-0.3,0.9-0.3,1.2,0.1c0.3,0.4,0.3,0.9-0.1,1.2c-2.2,1.9-4.5,3.8-6.9,5.5C185.4,309.1,185.2,309.2,185,309.2z"/>
				</g>
			</g>
			<g>
				<defs>
					<path id="SVGID_00000093889541183767639270000004774892433445426600_" d="M144.5,310.9c-1.1,0.5-2.2,0.9-3.3,1.4
						c0.2,3.9,0.6,7.9,1.8,11.6c0.1,0.4,0.3,0.8,0.6,1.1c0.3,0.2,0.7,0.3,1.1,0.3c7.4,0.6,12,1.9,19.4,1.9c2.8,0,2.9-0.4,3.5-0.9
						c0.7-0.7,0.4-1.9,0-2.8c-1.3-2.4-2.5-3.6-5-4.7c-2.5-1.1-5.2-1.8-7.8-2.9c-0.5-0.2-1-0.4-1.4-0.8c-1.2-1.3-0.3-3.4-0.7-5.1
						C150.3,309.7,146.7,309.9,144.5,310.9z"/>
				</defs>
				<clipPath id="SVGID_00000043423303723147706220000012828873748846766509_">
					<use xlink:href="#SVGID_00000093889541183767639270000004774892433445426600_"  style="overflow:visible;"/>
				</clipPath>
				<g style="clip-path:url(#SVGID_00000043423303723147706220000012828873748846766509_);">
					<path class="st5" d="M154.9,319.6c-0.2,0-0.5-0.1-0.7-0.3c-0.3-0.4-0.2-0.9,0.1-1.2c1.7-1.4,3.2-2.8,4.7-4.4
						c0.3-0.3,0.9-0.4,1.2,0c0.3,0.3,0.4,0.9,0,1.2c-1.5,1.6-3.1,3.1-4.8,4.6C155.2,319.5,155,319.6,154.9,319.6z"/>
				</g>
				<g style="clip-path:url(#SVGID_00000043423303723147706220000012828873748846766509_);">
					<path class="st5" d="M158.4,321.1c-0.3,0-0.6-0.1-0.7-0.4c-0.2-0.4-0.1-0.9,0.3-1.2c1.6-1,3-2.4,4-4c0.3-0.4,0.8-0.5,1.2-0.3
						c0.4,0.3,0.5,0.8,0.3,1.2c-1.2,1.8-2.7,3.4-4.6,4.5C158.7,321,158.5,321.1,158.4,321.1z"/>
				</g>
			</g>
			<g>
				<defs>
					<path id="SVGID_00000019674982896592619860000000118499059683911352_" d="M64.3,227c-0.9-0.1-4.4-0.5-4.8,0.4
						c-3.8,7.4-2.3,17.2-1,25.4c1,5.8,3.6,11.7,8.7,14.7c2.5,1.4,5.4,2,8.3,2.5c17.4,2.8,35.3,1.9,52.3-2.5
						c-3.5,15.3,0.5,31.8,3.8,47.1c0.2,0.9,0.4,1.7,1,2.4c0.5,0.6,1.3,0.9,2,1.1c7.3,1.9,17.4-1.9,21.4-3.2
						c0.6-0.2,4.1-42.4,3.4-53.2c-0.1-2,0.2-9.2-0.4-11.8c-0.6-2.3-2.8-5.1-4.7-6.6c-6.7-5.4-16.2-7.6-24.8-8.8
						c-3.4-0.5-6.8-0.6-10.2-1c-18.2-1.9-36.1-10.1-54.3-7.2L64.3,227z"/>
				</defs>
				<clipPath id="SVGID_00000139266687225511819860000005550929678957869718_">
					<use xlink:href="#SVGID_00000019674982896592619860000000118499059683911352_"  style="overflow:visible;"/>
				</clipPath>
				<g style="clip-path:url(#SVGID_00000139266687225511819860000005550929678957869718_);">
					<path class="st5" d="M125.2,277.6c-0.4,0-0.8-0.3-0.8-0.7c-0.4-2.7,0.5-5.6,2.4-8.3c1.7-2.3,3.9-4.1,6.1-5.8
						c1.3-1,2.6-2.1,4.2-2.9c0.4-0.2,0.9,0,1.1,0.4c0.2,0.4,0,0.9-0.4,1.1c-1.4,0.7-2.6,1.7-3.8,2.6c-2.1,1.7-4.2,3.4-5.8,5.5
						c-1.7,2.3-2.4,4.8-2.1,7c0.1,0.5-0.3,0.9-0.7,1C125.3,277.6,125.2,277.6,125.2,277.6z"/>
				</g>
				<g style="clip-path:url(#SVGID_00000139266687225511819860000005550929678957869718_);">
					<path class="st5" d="M124.1,280.2c-0.4,0-0.8-0.3-0.9-0.8c-0.9-8.4,2-17,7.9-23.1c0.3-0.3,0.9-0.4,1.2,0c0.3,0.3,0.4,0.9,0,1.2
						c-5.5,5.7-8.3,13.9-7.4,21.8C125,279.7,124.7,280.1,124.1,280.2C124.2,280.2,124.2,280.2,124.1,280.2z"/>
				</g>
			</g>
			<g>
				<defs>
					<path id="SVGID_00000021095769168307878890000007953682576814278053_" d="M73.9,128.6c0.3-6.7,3.8-10.5,7.9-13
						c4.3-2.7,20.2-5.1,29.4,0.7c7.6,4.7,11.4,15.8,15.6,23.6c4.2,7.9,7.5,18.5,13.7,24.9c0-13.4,6.6-32.3,15.2-42.5
						c1.2-1.5,2.7-3,5.3-1.8c1.3,0.6,2.3,1.6,3.1,2.8c1.3,2.2,2.7,4.5,4,6.7c0.6,1,1.2,2,1.3,3.2c0.1,1.3-0.6,2.5-1.2,3.7
						c-5.2,10-7.4,21.3-10.3,32.2c-2.8,10.2-6.8,20.8-15.5,26.7c-1.2,0.8-2.5,1.5-3.9,1.5c-1.9,0-3.5-1.2-4.9-2.4
						c-11.4-10-18.2-25.7-30.8-34.1c-8.1-5.4-16.9-9.3-23-16.9C76.1,139.4,73.6,134.3,73.9,128.6z"/>
				</defs>
				<clipPath id="SVGID_00000089556814026957743630000003136850386048123019_">
					<use xlink:href="#SVGID_00000021095769168307878890000007953682576814278053_"  style="overflow:visible;"/>
				</clipPath>
				<g style="clip-path:url(#SVGID_00000089556814026957743630000003136850386048123019_);">
					<path class="st5" d="M140,179c-0.1,0-0.2,0-0.2,0c-0.5-0.1-0.7-0.6-0.6-1.1c1.9-6.5,1-13.2-2.1-17.4c-0.8-1.1-0.3-2.5,0.1-3.8
						c0.2-0.5,0.3-1,0.4-1.3c0.1-0.5,0.5-0.8,1-0.7c0.5,0.1,0.8,0.5,0.7,1c-0.1,0.5-0.3,1.1-0.5,1.7c-0.3,0.8-0.6,1.8-0.3,2.2
						c3.5,4.6,4.4,11.9,2.4,18.9C140.7,178.8,140.4,179,140,179z"/>
				</g>
				<g style="clip-path:url(#SVGID_00000089556814026957743630000003136850386048123019_);">
					<path class="st5" d="M146.3,175.3c-0.4,0-0.8-0.3-0.9-0.8c-0.5-4.4-1.3-8.6-4.1-11.3c-0.2-0.2-0.5-0.4-0.8-0.7
						c-0.9-0.8-1.9-1.6-2.3-2.9c-0.1-0.5,0.1-0.9,0.5-1.1c0.4-0.2,0.9,0.1,1.1,0.5c0.3,0.8,1,1.5,1.8,2.1c0.3,0.2,0.6,0.5,0.8,0.7
						c3.2,3,4,7.6,4.6,12.3c0.1,0.5-0.3,0.9-0.7,1C146.3,175.3,146.3,175.3,146.3,175.3z"/>
				</g>
			</g>
			<g>
				<defs>
					<path id="SVGID_00000006688573164933204010000010343576193548021684_" d="M244.2,186c0.1,2.2,5,5.2,4.6,2.2
						c-0.8-5.6,1.4-14,0.9-23.6c-0.1-0.9,1.1-5,1.9-5.1c2.4-0.4,6.2,3,6.4,5.8c0.3,2.8-2.1,3.2-1.5,8.6c0.4,3.5,3.9,3.9,6.3,6.4
						c-1.1,2-3.6,2.6-5.7,3.4c-2.1,0.8-6.2,3.1-4.5,4.5c3.2,2.8,16.7,1.3,21.2,0.7c3.1-0.4,1.2-4.4,4.1-5.6
						c8.7-3.6,17.5-12.6,19.5-21.9c2-9.2,2.4-20.7-0.2-29.8c-1.3-4.4-3.9-8-6.5-11.8c-2.6-3.8-6.3-7-10.7-8.3
						c-1.4-0.4-3-0.6-4.4-0.2c-1.4,0.4-3,1.7-2.8,3.2c0.5,4.1,7.8,1.5,13.9,13.3c3,5.9,3.5,12.7,3.6,19.3c0,3.9-0.2,10.7-1.5,14.4
						c-1.8,5.1-3.4,8.7-7.1,12.6c-0.5,0.5-3,2.1-3.6,2c-0.8-0.2-1.3-1.1-1.2-1.9c1.4-7.3,3.3-10.5-2.5-22.5
						c-3.1-6.5-12.2-13.7-18-18c-3.1-2.3,2.6-5.6-3.9-10.9c-2.1-1.7-2.2-5.7-3.1-6c-1.2-0.4-2.4,2.5-2.7,4.2c-1.3-0.1-3.7-4-4.5-3.8
						c-1.3,0.3-0.6,3.8-0.2,5.8c0.1,0.8-2,1.7-4.1,4.3c-1.9,2.4-2.9,3.9-2.8,4.5c0.1,0.9,1,1.4,1.8,1.9c5.2,3.6,5.6,9.6,3.6,15.4
						c-2.7,8-1.5,24.4-1.1,32.8c0.2,4.5-2.9,4.9-1.5,6.6C239.7,190.4,243.9,188.6,244.2,186z"/>
				</defs>
				<clipPath id="SVGID_00000177456510774102663850000010953182121953953968_">
					<use xlink:href="#SVGID_00000006688573164933204010000010343576193548021684_"  style="overflow:visible;"/>
				</clipPath>
				<g style="clip-path:url(#SVGID_00000177456510774102663850000010953182121953953968_);">
					<path class="st5" d="M252.2,142.3c-0.2,0-0.5-0.1-0.6-0.3c-0.3-0.4-0.3-0.9,0.1-1.2c2.5-2.1,5.2-4.1,8-5.7
						c0.4-0.2,0.9-0.1,1.2,0.3c0.2,0.4,0.1,0.9-0.3,1.2c-2.7,1.6-5.3,3.5-7.8,5.6C252.6,142.2,252.4,142.3,252.2,142.3z"/>
				</g>
				<g style="clip-path:url(#SVGID_00000177456510774102663850000010953182121953953968_);">
					<path class="st5" d="M252.6,148c-0.2,0-0.5-0.1-0.6-0.3c-0.3-0.4-0.3-0.9,0.1-1.2c3.6-3.2,7.6-5.9,11.8-8.1
						c0.4-0.2,0.9-0.1,1.2,0.4c0.2,0.4,0.1,0.9-0.4,1.2c-4.1,2.2-8,4.8-11.5,7.9C253,148,252.8,148,252.6,148z"/>
				</g>
				<g style="clip-path:url(#SVGID_00000177456510774102663850000010953182121953953968_);">
					<path class="st5" d="M253.3,154.5c-0.3,0-0.6-0.1-0.7-0.4c-0.3-0.4-0.1-0.9,0.3-1.2l16.9-11c0.4-0.3,0.9-0.1,1.2,0.3
						c0.3,0.4,0.1,0.9-0.3,1.2l-16.9,11C253.6,154.5,253.4,154.5,253.3,154.5z"/>
				</g>
				<g style="clip-path:url(#SVGID_00000177456510774102663850000010953182121953953968_);">
					<path class="st5" d="M258.2,157.5c-0.3,0-0.6-0.2-0.8-0.4c-0.2-0.4-0.1-0.9,0.3-1.2l15.2-8.4c0.4-0.2,0.9-0.1,1.2,0.3
						c0.2,0.4,0.1,0.9-0.3,1.2l-15.2,8.4C258.5,157.4,258.4,157.5,258.2,157.5z"/>
				</g>
				<g style="clip-path:url(#SVGID_00000177456510774102663850000010953182121953953968_);">
					<path class="st5" d="M265.3,160.1c-0.3,0-0.7-0.2-0.8-0.5c-0.2-0.4,0-0.9,0.5-1.1c4.3-1.7,8.4-3.8,12.3-6.2
						c0.4-0.2,0.9-0.1,1.2,0.3c0.2,0.4,0.1,0.9-0.3,1.2c-4,2.4-8.2,4.5-12.6,6.3C265.5,160.1,265.4,160.1,265.3,160.1z"/>
				</g>
				<g style="clip-path:url(#SVGID_00000177456510774102663850000010953182121953953968_);">
					<path class="st5" d="M266.8,165.3c-0.3,0-0.7-0.2-0.8-0.6c-0.2-0.4,0.1-0.9,0.5-1.1c4.1-1.6,8.2-3.5,12.1-5.6
						c0.4-0.2,0.9-0.1,1.2,0.3c0.2,0.4,0.1,0.9-0.3,1.2c-4,2.2-8.1,4.1-12.3,5.7C267,165.3,266.9,165.3,266.8,165.3z"/>
				</g>
				<g style="clip-path:url(#SVGID_00000177456510774102663850000010953182121953953968_);">
					<path class="st5" d="M267.9,170.5c-0.4,0-0.7-0.2-0.8-0.6c-0.1-0.5,0.1-0.9,0.6-1.1c3.8-1.2,7.6-2.6,11.2-4.2
						c0.4-0.2,0.9,0,1.1,0.4c0.2,0.4,0,0.9-0.4,1.1c-3.7,1.7-7.5,3.1-11.4,4.3C268,170.5,267.9,170.5,267.9,170.5z"/>
				</g>
				<g style="clip-path:url(#SVGID_00000177456510774102663850000010953182121953953968_);">
					<path class="st5" d="M268.7,176.3c-0.4,0-0.7-0.2-0.8-0.6c-0.2-0.4,0.1-0.9,0.5-1.1c3.8-1.3,7.4-3.2,10.7-5.6
						c0.4-0.3,0.9-0.2,1.2,0.2c0.3,0.4,0.2,0.9-0.2,1.2c-3.4,2.5-7.1,4.5-11.1,5.8C268.9,176.2,268.8,176.3,268.7,176.3z"/>
				</g>
				<g style="clip-path:url(#SVGID_00000177456510774102663850000010953182121953953968_);">
					<path class="st5" d="M243.5,190.7C243.5,190.7,243.5,190.7,243.5,190.7c-0.6-0.1-0.9-0.5-0.9-1c0.6-5,1-10,1.3-14.9
						c0.2-3.3,0.1-5.8-0.1-8.5c-0.1-2.4-0.2-4.8-0.1-8c0-0.5,0.4-0.8,0.9-0.8c0,0,0,0,0,0c0.5,0,0.8,0.4,0.8,0.9
						c-0.1,3.1,0,5.5,0.1,7.8c0.1,2.7,0.3,5.3,0.1,8.7c-0.3,5-0.7,10-1.3,15C244.4,190.4,244,190.7,243.5,190.7z"/>
				</g>
				<g style="clip-path:url(#SVGID_00000177456510774102663850000010953182121953953968_);">
					<path class="st5" d="M279.4,116.1c-0.2,0-0.4-0.1-0.5-0.2c-0.4-0.3-0.4-0.8-0.2-1.2c1.3-1.7,3.1-3.2,5-4.3
						c0.4-0.2,0.9-0.1,1.2,0.3c0.2,0.4,0.1,0.9-0.3,1.2c-1.7,1-3.2,2.3-4.5,3.9C279.9,116,279.6,116.1,279.4,116.1z"/>
				</g>
				<g style="clip-path:url(#SVGID_00000177456510774102663850000010953182121953953968_);">
					<path class="st5" d="M283.6,119.2c-0.3,0-0.5-0.1-0.7-0.4c-0.3-0.4-0.2-0.9,0.2-1.2c2-1.5,4.2-2.5,6.6-3.2
						c0.5-0.1,0.9,0.1,1.1,0.6c0.1,0.5-0.1,0.9-0.6,1.1c-2.2,0.6-4.2,1.6-6,2.9C284,119.1,283.8,119.2,283.6,119.2z"/>
				</g>
				<g style="clip-path:url(#SVGID_00000177456510774102663850000010953182121953953968_);">
					<path class="st5" d="M287.5,123.7c-0.3,0-0.6-0.1-0.7-0.4c-0.2-0.4-0.1-0.9,0.3-1.2c1.8-1.1,3.8-2,5.9-2.5
						c0.5-0.1,0.9,0.1,1.1,0.6c0.1,0.5-0.1,0.9-0.6,1.1c-1.9,0.5-3.7,1.3-5.4,2.3C287.8,123.7,287.6,123.7,287.5,123.7z"/>
				</g>
				<g style="clip-path:url(#SVGID_00000177456510774102663850000010953182121953953968_);">
					<path class="st5" d="M291.3,128.6c-0.3,0-0.6-0.1-0.7-0.4c-0.2-0.4-0.1-0.9,0.3-1.2c1.9-1.2,4-1.9,6.2-2.2
						c0.5-0.1,0.9,0.3,1,0.7c0.1,0.5-0.3,0.9-0.7,1c-1.9,0.3-3.8,0.9-5.5,2C291.7,128.6,291.5,128.6,291.3,128.6z"/>
				</g>
				<g style="clip-path:url(#SVGID_00000177456510774102663850000010953182121953953968_);">
					<path class="st5" d="M293.3,133.4c-0.4,0-0.7-0.2-0.8-0.6c-0.1-0.5,0.1-0.9,0.6-1.1c2.6-0.8,5.3-1,8-0.8c0.5,0,0.8,0.5,0.8,0.9
						c0,0.5-0.4,0.8-0.9,0.8c-2.5-0.2-5,0-7.4,0.7C293.5,133.4,293.4,133.4,293.3,133.4z"/>
				</g>
				<g style="clip-path:url(#SVGID_00000177456510774102663850000010953182121953953968_);">
					<path class="st5" d="M297.3,139.3c-0.8,0-1.7,0-2.5-0.1c-0.5,0-0.8-0.5-0.8-0.9c0-0.5,0.5-0.8,0.9-0.8c2.4,0.2,4.7,0.1,7.1-0.3
						c0.5-0.1,0.9,0.2,1,0.7c0.1,0.5-0.2,0.9-0.7,1C300.6,139.2,298.9,139.3,297.3,139.3z"/>
				</g>
				<g style="clip-path:url(#SVGID_00000177456510774102663850000010953182121953953968_);">
					<path class="st5" d="M303,146.2c-0.1,0-0.2,0-0.2,0c-2.6-0.7-5.3-1.1-8-1.1c-0.5,0-0.9-0.4-0.9-0.9c0-0.5,0.4-0.9,0.9-0.9l0,0
						c2.8,0,5.7,0.4,8.4,1.1c0.5,0.1,0.7,0.6,0.6,1.1C303.7,146,303.4,146.2,303,146.2z"/>
				</g>
				<g style="clip-path:url(#SVGID_00000177456510774102663850000010953182121953953968_);">
					<path class="st5" d="M303.6,153.1c-0.1,0-0.1,0-0.2,0l-8.4-1.5c-0.5-0.1-0.8-0.5-0.7-1c0.1-0.5,0.5-0.8,1-0.7l8.4,1.5
						c0.5,0.1,0.8,0.5,0.7,1C304.4,152.8,304,153.1,303.6,153.1z"/>
				</g>
				<g style="clip-path:url(#SVGID_00000177456510774102663850000010953182121953953968_);">
					<path class="st5" d="M302.4,161.2c-0.1,0-0.2,0-0.3-0.1c-2.3-1-4.6-1.7-7-2.3c-0.5-0.1-0.8-0.6-0.7-1c0.1-0.5,0.6-0.8,1-0.7
						c2.5,0.5,5,1.3,7.3,2.4c0.4,0.2,0.6,0.7,0.4,1.1C303.1,161,302.7,161.2,302.4,161.2z"/>
				</g>
				<g style="clip-path:url(#SVGID_00000177456510774102663850000010953182121953953968_);">
					<path class="st5" d="M300.5,168.9c-0.1,0-0.3,0-0.4-0.1c-2.3-1.3-4.8-2.4-7.4-3.2c-0.5-0.1-0.7-0.6-0.6-1.1
						c0.1-0.5,0.6-0.7,1.1-0.6c2.7,0.8,5.3,2,7.8,3.4c0.4,0.2,0.6,0.8,0.3,1.2C301.1,168.7,300.8,168.9,300.5,168.9z"/>
				</g>
				<g style="clip-path:url(#SVGID_00000177456510774102663850000010953182121953953968_);">
					<path class="st5" d="M297.2,175.9c-0.2,0-0.4-0.1-0.6-0.2c-1.7-1.6-3.7-2.9-5.8-3.9c-0.4-0.2-0.6-0.7-0.4-1.1
						c0.2-0.4,0.7-0.6,1.1-0.4c2.3,1,4.4,2.5,6.3,4.2c0.3,0.3,0.4,0.9,0,1.2C297.7,175.8,297.4,175.9,297.2,175.9z"/>
				</g>
				<g style="clip-path:url(#SVGID_00000177456510774102663850000010953182121953953968_);">
					<path class="st5" d="M292.7,181.5c-0.2,0-0.4-0.1-0.6-0.2l-3.6-3.4c-0.5-0.5-1-1-1.6-1.4c-0.4-0.3-0.5-0.8-0.2-1.2
						c0.3-0.4,0.8-0.5,1.2-0.2c0.7,0.5,1.2,1,1.8,1.5l3.6,3.4c0.3,0.3,0.4,0.9,0,1.2C293.1,181.4,292.9,181.5,292.7,181.5z"/>
				</g>
			</g>
		</g>
		<g>
			<g>
				<path class="st5" d="M70.3,108.9c0.7,0.5,1.6,0.8,2.4,0.9c0.7,0.1,1-0.9,0.3-1c-0.7-0.1-1.5-0.4-2.2-0.8
					C70.3,107.6,69.7,108.6,70.3,108.9L70.3,108.9z"/>
			</g>
		</g>
		<g>
			<g>
				<path class="st5" d="M75.7,104.6c0.8-0.4,1.6-0.8,2.4-1.1c0.6-0.2,0.4-1.3-0.3-1c-0.9,0.3-1.8,0.7-2.7,1.2
					C74.5,104,75.1,105,75.7,104.6L75.7,104.6z"/>
			</g>
		</g>
		<g>
			<g>
				<path class="st5" d="M78.6,108.6c0.3,0.7,0.4,1.5,0.6,2.3c0.1,0.7,1.1,0.4,1-0.3c-0.1-0.8-0.3-1.5-0.6-2.3
					C79.4,107.7,78.4,108,78.6,108.6L78.6,108.6z"/>
			</g>
		</g>
		<g>
			<g>
				<path class="st5" d="M86.6,109.3c1-0.1,2-0.4,2.8-0.9c0.6-0.4,0.1-1.3-0.5-0.9c-0.7,0.4-1.5,0.7-2.3,0.8
					C85.9,108.3,85.9,109.4,86.6,109.3L86.6,109.3z"/>
			</g>
		</g>
		<g>
			<g>
				<path class="st5" d="M96.2,107.6c0.7,0.2,1.3,0.5,1.8,1c0.5,0.5,1.3-0.3,0.8-0.8c-0.7-0.6-1.4-1-2.2-1.3
					C95.8,106.3,95.5,107.4,96.2,107.6L96.2,107.6z"/>
			</g>
		</g>
		<g>
			<g>
				<path class="st5" d="M91.4,111.8c0.2-0.1,0.4-0.2,0.6-0.3c0.6-0.3,0.1-1.2-0.5-0.9c-0.2,0.1-0.4,0.2-0.6,0.3
					C90.3,111.2,90.8,112.1,91.4,111.8L91.4,111.8z"/>
			</g>
		</g>
		<g>
			<g>
				<path class="st5" d="M75,116.2c-0.3,0.4-0.6,0.7-1,1c-0.6,0.4,0,1.3,0.5,0.9c0.5-0.4,1-0.8,1.3-1.3
					C76.3,116.2,75.4,115.7,75,116.2L75,116.2z"/>
			</g>
		</g>
		<g>
			<g>
				<path class="st5" d="M68.5,114.1c-1.1,0.9-2.1,2.2-3.5,2.7c-0.6,0.2-0.4,1.3,0.3,1c1.6-0.6,2.7-2,4-3
					C69.8,114.4,69,113.7,68.5,114.1L68.5,114.1z"/>
			</g>
		</g>
		<g>
			<g>
				<path class="st5" d="M60.9,112.8c0.4,0.7,0.9,1.3,1.6,1.6c0.6,0.3,1.2-0.6,0.5-0.9c-0.5-0.3-1-0.7-1.2-1.2
					C61.5,111.6,60.6,112.1,60.9,112.8L60.9,112.8z"/>
			</g>
		</g>
		<g>
			<g>
				<path class="st5" d="M57.7,122.4c0.9,0.5,1.8,0.9,2.7,1.2c0.7,0.2,0.9-0.8,0.3-1c-0.8-0.3-1.7-0.7-2.4-1.1
					C57.6,121.1,57.1,122.1,57.7,122.4L57.7,122.4z"/>
			</g>
		</g>
		<g>
			<g>
				<path class="st5" d="M67.7,123.6c0,0.8,0.5,1.4,1.2,1.7c0.7,0.2,0.9-0.8,0.3-1c-0.3-0.1-0.5-0.3-0.5-0.6
					C68.8,122.9,67.7,122.9,67.7,123.6L67.7,123.6z"/>
			</g>
		</g>
		<g>
			<g>
				<path class="st5" d="M61.8,132.2c-0.4,1-0.6,2-0.6,3.1c0,0.7,1.1,0.7,1.1,0c0-0.9,0.1-1.8,0.5-2.6
					C63,132.1,62.1,131.6,61.8,132.2L61.8,132.2z"/>
			</g>
		</g>
		<g>
			<g>
				<path class="st5" d="M54.9,132.2c-0.6,1-1.1,2.2-0.9,3.4c0.1,0.7,1.1,0.7,1.1,0c-0.1-1.1,0.3-2,0.8-2.9
					C56.2,132.2,55.3,131.6,54.9,132.2L54.9,132.2z"/>
			</g>
		</g>
		<g>
			<g>
				<path class="st5" d="M68.2,132.9c0.3,0.3,0.5,0.7,0.8,1c0.4,0.6,1.3,0,0.9-0.5c-0.3-0.4-0.6-0.9-0.9-1.3
					C68.5,131.6,67.7,132.4,68.2,132.9L68.2,132.9z"/>
			</g>
		</g>
		<g>
			<g>
				<path class="st5" d="M67.9,142.9c0.7,0.7,1.6,1.1,2.5,1.3c0.7,0.1,1-0.9,0.3-1c-0.8-0.1-1.5-0.5-2.1-1
					C68.1,141.7,67.4,142.4,67.9,142.9L67.9,142.9z"/>
			</g>
		</g>
		<g>
			<g>
				<path class="st5" d="M58.1,143.9c0.6,0.8,1.3,1.7,2.1,2.4c0.5,0.5,1.3-0.3,0.8-0.8c-0.7-0.7-1.3-1.4-1.9-2.2
					C58.6,142.8,57.7,143.4,58.1,143.9L58.1,143.9z"/>
			</g>
		</g>
		<g>
			<g>
				<path class="st5" d="M49.9,148.3c1.1,1.2,2.4,2.2,3.3,3.6c0.4,0.6,1.3,0,0.9-0.5c-1-1.5-2.4-2.5-3.5-3.8
					C50.2,147.1,49.4,147.8,49.9,148.3L49.9,148.3z"/>
			</g>
		</g>
		<g>
			<g>
				<path class="st5" d="M59.2,153.1c0,1.1-0.2,2.1-0.3,3.1c-0.1,0.7,1,0.7,1.1,0c0.1-1,0.2-2.1,0.3-3.1
					C60.3,152.4,59.2,152.4,59.2,153.1L59.2,153.1z"/>
			</g>
		</g>
		<g>
			<g>
				<path class="st5" d="M52.4,159.9c-0.7,0.9-1,1.8-1,3c0,0.7,1.1,0.7,1.1,0c0-0.8,0.2-1.6,0.7-2.2
					C53.6,160.1,52.9,159.3,52.4,159.9L52.4,159.9z"/>
			</g>
		</g>
		<g>
			<g>
				<path class="st5" d="M52,170.5c1.4,0,2.8-0.1,4.1,0.3c0.7,0.2,1-0.9,0.3-1c-1.4-0.4-2.9-0.3-4.4-0.3
					C51.3,169.4,51.3,170.5,52,170.5L52,170.5z"/>
			</g>
		</g>
		<g>
			<g>
				<path class="st5" d="M61.4,166.2c1.2,0.1,2.4,0,3.6-0.3c0.7-0.2,0.4-1.2-0.3-1c-1.1,0.3-2.2,0.4-3.3,0.3
					C60.7,165.1,60.7,166.2,61.4,166.2L61.4,166.2z"/>
			</g>
		</g>
		<g>
			<g>
				<path class="st5" d="M69.3,158.2c0.7,0.2,1.3,0.5,1.9,0.8c0.6,0.3,1.1-0.6,0.5-0.9c-0.7-0.4-1.4-0.7-2.1-0.9
					C68.9,157,68.6,158,69.3,158.2L69.3,158.2z"/>
			</g>
		</g>
		<g>
			<g>
				<path class="st5" d="M75,150c0.8,0.7,1.5,1.6,2.3,2.3c0.5,0.5,1.3-0.3,0.8-0.8c-0.8-0.7-1.5-1.5-2.3-2.3
					C75.3,148.8,74.5,149.6,75,150L75,150z"/>
			</g>
		</g>
		<g>
			<g>
				<path class="st5" d="M68.5,151.3c-0.6,0.7-0.7,1.4,0.1,2c0.6,0.4,1.1-0.5,0.5-0.9c-0.1-0.1,0-0.2,0.1-0.3
					C69.7,151.5,68.9,150.8,68.5,151.3L68.5,151.3z"/>
			</g>
		</g>
		<g>
			<g>
				<path class="st5" d="M84.3,156c0,0.9,0.1,1.8,0.3,2.7c0.1,0.7,1.2,0.4,1-0.3c-0.2-0.8-0.2-1.6-0.3-2.4
					C85.4,155.3,84.3,155.3,84.3,156L84.3,156z"/>
			</g>
		</g>
		<g>
			<g>
				<path class="st5" d="M79.7,161.4c-0.1,0.9,0,1.7,0.4,2.6c0.3,0.6,1.2,0.1,0.9-0.5c-0.3-0.6-0.3-1.3-0.2-2c0-0.3-0.3-0.5-0.5-0.5
					C80,160.9,79.8,161.1,79.7,161.4L79.7,161.4z"/>
			</g>
		</g>
		<g>
			<g>
				<path class="st5" d="M74,169.6c1.1,0.8,2.2,1.5,3.6,1.8c0.7,0.1,1-0.9,0.3-1c-1.3-0.2-2.3-0.9-3.3-1.7
					C74,168.2,73.5,169.2,74,169.6L74,169.6z"/>
			</g>
		</g>
		<g>
			<g>
				<path class="st5" d="M65.9,175.2c0.6,0.8,1.3,1.6,1.6,2.6c0.2,0.7,1.3,0.4,1-0.3c-0.4-1.2-1.1-2.2-1.9-3.1
					C66.2,173.9,65.5,174.7,65.9,175.2L65.9,175.2z"/>
			</g>
		</g>
		<g>
			<g>
				<path class="st5" d="M59,176.5c-1,1.2-1.7,2.5-2.1,4c-0.2,0.7,0.8,0.9,1,0.3c0.4-1.3,1-2.5,1.9-3.5
					C60.2,176.7,59.5,175.9,59,176.5L59,176.5z"/>
			</g>
		</g>
		<g>
			<g>
				<path class="st5" d="M49.6,178.7c-0.8,1-1.2,2.2-1,3.5c0.1,0.7,1.2,0.7,1.1,0c-0.1-1,0-2,0.7-2.8C50.8,179,50,178.2,49.6,178.7
					L49.6,178.7z"/>
			</g>
		</g>
		<g>
			<g>
				<path class="st5" d="M52.7,187.5c0.8,0.9,1.7,1.7,2.8,2.1c0.7,0.2,0.9-0.8,0.3-1c-1-0.4-1.7-1.1-2.3-1.9
					C53.1,186.2,52.3,187,52.7,187.5L52.7,187.5z"/>
			</g>
		</g>
		<g>
			<g>
				<path class="st5" d="M61.6,185.5c0.6,0.6,1.4,1,2.2,1.3c0.7,0.2,1-0.9,0.3-1c-0.7-0.2-1.3-0.5-1.8-1
					C61.9,184.3,61.1,185,61.6,185.5L61.6,185.5z"/>
			</g>
		</g>
		<g>
			<g>
				<path class="st5" d="M53.7,194.7c-0.4,1.3-0.6,2.7-0.9,4c-0.2,0.7,0.9,1,1,0.3c0.3-1.3,0.5-2.7,0.9-4
					C55,194.3,53.9,194,53.7,194.7L53.7,194.7z"/>
			</g>
		</g>
		<g>
			<g>
				<path class="st5" d="M61.7,195.6c0.7,0.4,1.3,0.8,1.9,1.3c0.5,0.5,1.3-0.3,0.8-0.8c-0.6-0.6-1.3-1.1-2.1-1.5
					C61.6,194.3,61.1,195.3,61.7,195.6L61.7,195.6z"/>
			</g>
		</g>
		<g>
			<g>
				<path class="st5" d="M58.9,204c0,0.9,0.3,1.8,1,2.4c0.5,0.5,1.3-0.3,0.8-0.8c-0.5-0.4-0.7-1-0.7-1.6
					C60,203.3,58.9,203.3,58.9,204L58.9,204z"/>
			</g>
		</g>
		<g>
			<g>
				<path class="st5" d="M52.9,209.7c0,1.1,0.2,2.1,0.6,3.1c0.3,0.6,1.2,0.1,0.9-0.5c-0.4-0.8-0.5-1.7-0.5-2.6
					C54,209,52.9,209,52.9,209.7L52.9,209.7z"/>
			</g>
		</g>
		<g>
			<g>
				<path class="st5" d="M57.1,224.2c0.7,0.4,1.3,0.7,2,1.1c0.6,0.4,1.1-0.6,0.5-0.9c-0.7-0.4-1.3-0.8-2-1.1
					C57.1,223,56.5,223.9,57.1,224.2L57.1,224.2z"/>
			</g>
		</g>
		<g>
			<g>
				<path class="st5" d="M60,217.1c1.1,0,2.1,0,3.1,0c0.7,0,0.7-1.1,0-1.1c-1,0-2.1,0-3.1,0C59.3,216.1,59.3,217.1,60,217.1
					L60,217.1z"/>
			</g>
		</g>
		<g>
			<g>
				<path class="st5" d="M68.7,227.6c1.1-1.3,2.7-2,4.2-2.8c0.6-0.3,0.1-1.2-0.5-0.9c-1.6,0.8-3.2,1.6-4.4,2.9
					C67.4,227.3,68.2,228.1,68.7,227.6L68.7,227.6z"/>
			</g>
		</g>
		<g>
			<g>
				<path class="st5" d="M71.1,217.6c1-0.5,2-0.7,3-1.1c0.6-0.3,0.4-1.3-0.3-1c-1.1,0.4-2.2,0.7-3.3,1.2
					C70,217,70.5,217.9,71.1,217.6L71.1,217.6z"/>
			</g>
		</g>
		<g>
			<g>
				<path class="st5" d="M69,209c0.4,0.5,1,0.8,1.7,1c0.7,0.2,1-0.9,0.3-1c-0.5-0.1-0.9-0.3-1.2-0.7C69.3,207.7,68.6,208.4,69,209
					L69,209z"/>
			</g>
		</g>
		<g>
			<g>
				<path class="st5" d="M71,198.1c1.1,0.9,2.4,1.4,3.8,1.3c0.7,0,0.7-1.1,0-1.1c-1.1,0.1-2.2-0.2-3.1-1
					C71.3,196.9,70.5,197.6,71,198.1L71,198.1z"/>
			</g>
		</g>
		<g>
			<g>
				<path class="st5" d="M73.6,187.4c1.4-0.5,3-0.6,4.4-1.2c0.6-0.3,0.1-1.2-0.5-0.9c-1.3,0.6-2.8,0.6-4.2,1.1
					C72.6,186.6,72.9,187.6,73.6,187.4L73.6,187.4z"/>
			</g>
		</g>
		<g>
			<g>
				<path class="st5" d="M79.3,191.9c1.2,0.4,2.4,0.5,3.6,0.6c0.7,0,0.7-1,0-1.1c-1.1,0-2.2-0.2-3.3-0.6
					C78.9,190.7,78.6,191.7,79.3,191.9L79.3,191.9z"/>
			</g>
		</g>
		<g>
			<g>
				<path class="st5" d="M84.5,179.5c0.8,0.6,1.7,1,2.7,1c0.7,0,0.7-1.1,0-1.1c-0.7,0-1.4-0.3-1.9-0.7
					C84.7,178.3,83.9,179.1,84.5,179.5L84.5,179.5z"/>
			</g>
		</g>
		<g>
			<g>
				<path class="st5" d="M89.9,169.2c0.8,1,2.1,1.6,3.4,1.9c0.7,0.1,1-0.9,0.3-1c-1.1-0.2-2.2-0.7-2.9-1.6
					C90.2,167.9,89.5,168.7,89.9,169.2L89.9,169.2z"/>
			</g>
		</g>
		<g>
			<g>
				<path class="st5" d="M78.4,178.2c0.7,0.1,1.4,0.1,2-0.4c0.5-0.5-0.3-1.2-0.8-0.8c-0.2,0.2-0.6,0.2-0.9,0.1
					C78,177,77.7,178.1,78.4,178.2L78.4,178.2z"/>
			</g>
		</g>
		<g>
			<g>
				<path class="st5" d="M93.3,163.3c0.7-0.2,1.4-0.3,2.1-0.3c0.7,0,0.7-1,0-1.1c-0.8,0-1.6,0-2.4,0.3
					C92.4,162.5,92.6,163.6,93.3,163.3L93.3,163.3z"/>
			</g>
		</g>
		<g>
			<g>
				<path class="st5" d="M100.4,166.8c0.8,0.1,1.7,0.1,2.4-0.3c0.6-0.4,0-1.3-0.5-0.9c-0.5,0.3-1.1,0.3-1.6,0.2
					C100.1,165.6,99.8,166.7,100.4,166.8L100.4,166.8z"/>
			</g>
		</g>
		<g>
			<g>
				<path class="st5" d="M100.9,172.4c0.9,0.4,1.8,0.7,2.7,0.9c0.7,0.2,1-0.9,0.3-1c-0.8-0.2-1.7-0.5-2.4-0.8
					C100.8,171.2,100.3,172.2,100.9,172.4L100.9,172.4z"/>
			</g>
		</g>
		<g>
			<g>
				<path class="st5" d="M97.3,178.5c0.4,1,0.9,2,1.1,3c0.1,0.7,1.2,0.4,1-0.3c-0.2-1.1-0.7-2.2-1.2-3.3
					C97.9,177.4,97,177.9,97.3,178.5L97.3,178.5z"/>
			</g>
		</g>
		<g>
			<g>
				<path class="st5" d="M92.8,185.5c0.9,0.8,1.9,1.5,3,2.1c0.6,0.3,1.2-0.6,0.5-0.9c-1-0.5-1.9-1.2-2.8-1.9
					C93,184.3,92.2,185.1,92.8,185.5L92.8,185.5z"/>
			</g>
		</g>
		<g>
			<g>
				<path class="st5" d="M90.6,195c-0.2,1,0.1,1.8,0.7,2.5c0.5,0.5,1.2-0.2,0.8-0.8c-0.4-0.4-0.5-0.9-0.4-1.5
					C91.8,194.6,90.8,194.3,90.6,195L90.6,195z"/>
			</g>
		</g>
		<g>
			<g>
				<path class="st5" d="M82.4,200.6c0.6,0.7,1,1.6,1.4,2.4c0.3,0.6,1.3,0.4,1-0.3c-0.4-1-0.9-1.9-1.5-2.7
					C82.9,199.5,82,200,82.4,200.6L82.4,200.6z"/>
			</g>
		</g>
		<g>
			<g>
				<path class="st5" d="M80.4,210.3c0.5,1,1.5,1.8,2.6,2c0.7,0.1,1-0.9,0.3-1c-0.9-0.1-1.6-0.7-2-1.5
					C81,209.1,80.1,209.7,80.4,210.3L80.4,210.3z"/>
			</g>
		</g>
		<g>
			<g>
				<path class="st5" d="M91,208.2c0.8,0.3,1.6,0.5,2.4,0.6c0.7,0.1,0.7-1,0-1.1c-0.7-0.1-1.5-0.3-2.1-0.6
					C90.6,207,90.4,208,91,208.2L91,208.2z"/>
			</g>
		</g>
		<g>
			<g>
				<path class="st5" d="M84.3,218.3c1.1,0,2.3,0,3.4,0c0.7,0,0.7-1.1,0-1.1c-1.1,0-2.3,0-3.4,0C83.6,217.2,83.6,218.3,84.3,218.3
					L84.3,218.3z"/>
			</g>
		</g>
		<g>
			<g>
				<path class="st5" d="M83,226.8c1.1,0.3,2.2,0.4,3.3,0.3c0.7-0.1,0.7-1.1,0-1.1c-1,0.1-2,0.1-3-0.3
					C82.6,225.6,82.3,226.6,83,226.8L83,226.8z"/>
			</g>
		</g>
		<g>
			<g>
				<path class="st5" d="M96.4,221.7c0.6-0.2,1.2-0.3,1.9-0.3c0.7,0,0.7-1,0-1.1c-0.7,0-1.5,0.1-2.1,0.3
					C95.5,220.9,95.8,221.9,96.4,221.7L96.4,221.7z"/>
			</g>
		</g>
		<g>
			<g>
				<path class="st5" d="M100.6,213.3c0.8-0.5,1.6-0.9,2.4-1.1c0.7-0.2,0.4-1.2-0.3-1c-1,0.2-1.9,0.6-2.7,1.2
					C99.5,212.8,100,213.7,100.6,213.3L100.6,213.3z"/>
			</g>
		</g>
		<g>
			<g>
				<path class="st5" d="M100.5,202.4c0.3-1.1,1-2.1,1.9-2.9c0.5-0.5-0.3-1.2-0.8-0.8c-1,1-1.8,2.1-2.1,3.4
					C99.3,202.8,100.3,203.1,100.5,202.4L100.5,202.4z"/>
			</g>
		</g>
		<g>
			<g>
				<path class="st5" d="M100.5,192.7c0.1-0.5,0.4-0.7,0.9-0.8c0.7-0.1,0.7-1.1,0-1.1c-0.9,0.1-1.7,0.6-1.9,1.5
					C99.3,193.1,100.4,193.4,100.5,192.7L100.5,192.7z"/>
			</g>
		</g>
		<g>
			<g>
				<path class="st5" d="M105.3,184.3c0.3,0.6,0.8,1,1.3,1.3c0.6,0.3,1.2-0.6,0.5-0.9c-0.4-0.2-0.7-0.5-1-1
					C105.9,183.1,104.9,183.7,105.3,184.3L105.3,184.3z"/>
			</g>
		</g>
		<g>
			<g>
				<path class="st5" d="M107.5,178.3c0,0.5,0.3,0.8,0.8,0.8c0.7,0,0.7-1.1,0-1.1c0.1,0.1,0.2,0.2,0.2,0.2
					C108.6,177.6,107.5,177.6,107.5,178.3L107.5,178.3z"/>
			</g>
		</g>
		<g>
			<g>
				<path class="st5" d="M110.4,190.1c-0.2,0.9-0.3,1.8-0.3,2.7c0,0.7,1.1,0.7,1.1,0c0-0.8,0.1-1.6,0.3-2.4
					C111.6,189.7,110.5,189.5,110.4,190.1L110.4,190.1z"/>
			</g>
		</g>
		<g>
			<g>
				<path class="st5" d="M107,194.6c0.2,0.3,0.4,0.6,0.6,0.9c0.4,0.6,1.3,0,0.9-0.5c-0.2-0.3-0.4-0.6-0.6-0.9
					C107.5,193.4,106.6,194,107,194.6L107,194.6z"/>
			</g>
		</g>
		<g>
			<g>
				<path class="st5" d="M108.3,202.2c0.4,0.2,0.5,0.5,0.6,1c0.1,0.7,1.1,0.7,1.1,0c-0.1-0.8-0.4-1.5-1.1-1.9
					C108.3,200.9,107.7,201.9,108.3,202.2L108.3,202.2z"/>
			</g>
		</g>
		<g>
			<g>
				<path class="st5" d="M109,213.8c0.5-0.4,1-0.8,1.4-1.1c0.5-0.4-0.2-1.2-0.8-0.8c-0.5,0.4-1,0.8-1.4,1.1
					C107.7,213.5,108.4,214.3,109,213.8L109,213.8z"/>
			</g>
		</g>
		<g>
			<g>
				<path class="st5" d="M108.3,220.6c-0.1,0.8,0.4,1.5,1.3,1.7c0.7,0.1,1-0.9,0.3-1c-0.4-0.1-0.5-0.2-0.5-0.6
					C109.5,219.9,108.4,219.9,108.3,220.6L108.3,220.6z"/>
			</g>
		</g>
		<g>
			<g>
				<path class="st5" d="M155.4,124c2.2,2.3,4.5,4.4,6.8,6.6c1.7,1.6,4.6,3.9,5.1,6.3c0.1,0.7,1.2,0.4,1-0.3
					c-0.4-2.3-2.8-4.3-4.4-5.8c-2.6-2.6-5.3-5-7.8-7.6C155.7,122.8,154.9,123.5,155.4,124L155.4,124z"/>
			</g>
		</g>
		<g>
			<g>
				<path class="st5" d="M100,120.3c-1.2,1.4-0.8,3.1,0.8,4c1.6,0.9,3.6,0.3,4.5-1.3c0.8-1.4,0.2-2.9-1-3.8c-1.4-1-3.3-0.5-4.3,0.8
					c-0.4,0.5,0.3,1.3,0.8,0.8c0.7-0.8,1.6-1.4,2.7-0.9c0.9,0.4,1.4,1.3,1.1,2.3c-0.8,2.7-5.5,1-3.7-1.1
					C101.2,120.5,100.4,119.8,100,120.3L100,120.3z"/>
			</g>
		</g>
		<g>
			<g>
				<path class="st5" d="M110.6,157.8c-1.2,1.4-0.8,3.1,0.8,4c1.6,0.9,3.6,0.3,4.5-1.3c0.8-1.4,0.2-2.9-1-3.8
					c-1.4-1-3.3-0.5-4.3,0.8c-0.4,0.5,0.3,1.3,0.8,0.8c0.7-0.8,1.6-1.4,2.7-0.9c0.9,0.4,1.4,1.3,1.1,2.3c-0.8,2.7-5.5,1-3.7-1.1
					C111.8,158,111,157.3,110.6,157.8L110.6,157.8z"/>
			</g>
		</g>
		<g>
			<g>
				<path class="st5" d="M131.7,183.8c-1.2,1.4-0.8,3.1,0.8,4c1.6,0.9,3.6,0.3,4.5-1.3c0.8-1.4,0.2-2.9-1-3.8
					c-1.4-1-3.3-0.4-4.3,0.8c-0.4,0.5,0.3,1.3,0.8,0.8c0.7-0.8,1.6-1.4,2.7-0.9c0.9,0.4,1.4,1.3,1.1,2.3c-0.8,2.7-5.5,1-3.7-1.1
					C132.9,184,132.2,183.3,131.7,183.8L131.7,183.8z"/>
			</g>
		</g>
		<g>
			<g>
				<path class="st5" d="M151.2,160.6c-1.2,1.4-0.8,3.1,0.8,4c1.6,0.9,3.6,0.3,4.5-1.3c0.8-1.4,0.2-2.9-1-3.8
					c-1.4-1-3.3-0.5-4.3,0.8c-0.4,0.5,0.3,1.3,0.8,0.8c0.7-0.8,1.6-1.4,2.7-0.9c0.9,0.4,1.4,1.3,1.1,2.3c-0.8,2.7-5.5,1-3.7-1.1
					C152.4,160.9,151.6,160.1,151.2,160.6L151.2,160.6z"/>
			</g>
		</g>
		<g>
			<g>
				<path class="st5" d="M114,138.3c-1.2,1.4-0.8,3.1,0.8,4c1.7,0.9,3.6,0.3,4.5-1.3c0.8-1.4,0.2-2.9-1-3.8c-1.4-1-3.3-0.4-4.3,0.8
					c-0.4,0.5,0.3,1.3,0.8,0.8c0.7-0.8,1.6-1.4,2.7-0.9c0.9,0.4,1.4,1.3,1.1,2.3c-0.8,2.7-5.5,1-3.7-1.1
					C115.2,138.6,114.4,137.8,114,138.3L114,138.3z"/>
			</g>
		</g>
		<g>
			<g>
				<path class="st5" d="M157.2,135.5c-1.2,1.4-0.8,3.1,0.8,4c1.6,0.9,3.6,0.3,4.5-1.3c0.8-1.4,0.2-2.9-1-3.8
					c-1.4-1-3.3-0.4-4.3,0.8c-0.4,0.5,0.3,1.3,0.8,0.8c0.7-0.8,1.6-1.4,2.7-0.9c0.9,0.4,1.4,1.3,1.1,2.3c-0.8,2.7-5.5,1-3.7-1.1
					C158.4,135.7,157.6,134.9,157.2,135.5L157.2,135.5z"/>
			</g>
		</g>
		<g>
			<g>
				<path class="st5" d="M146.9,144.6c-1.2,1.4-0.8,3.1,0.8,4c1.6,0.9,3.6,0.3,4.5-1.3c0.8-1.4,0.2-2.9-1-3.8
					c-1.4-1-3.3-0.5-4.3,0.8c-0.4,0.5,0.3,1.3,0.8,0.8c0.7-0.8,1.6-1.4,2.7-0.9c0.9,0.4,1.4,1.3,1.1,2.3c-0.8,2.7-5.5,1-3.7-1.1
					C148.1,144.9,147.3,144.1,146.9,144.6L146.9,144.6z"/>
			</g>
		</g>
		<g>
			<g>
				<path class="st5" d="M127.4,162.9c-1.2,1.4-0.8,3.1,0.8,4c1.6,0.9,3.6,0.3,4.5-1.3c0.8-1.4,0.2-2.9-1-3.8
					c-1.4-1-3.3-0.4-4.3,0.8c-0.4,0.5,0.3,1.3,0.8,0.8c0.7-0.8,1.6-1.4,2.7-0.9c0.9,0.4,1.4,1.3,1.1,2.3c-0.8,2.7-5.5,1-3.7-1.1
					C128.6,163.2,127.9,162.4,127.4,162.9L127.4,162.9z"/>
			</g>
		</g>
		<g>
			<g>
				<path class="st5" d="M93.7,142.1c-1.2,1.4-0.8,3.1,0.8,4c1.7,0.9,3.6,0.3,4.5-1.3c0.8-1.4,0.2-2.9-1-3.8c-1.4-1-3.3-0.4-4.3,0.8
					c-0.4,0.5,0.3,1.3,0.8,0.8c0.7-0.8,1.6-1.4,2.7-0.9c0.9,0.4,1.4,1.3,1.1,2.3c-0.8,2.7-5.5,1-3.7-1.1
					C94.9,142.3,94.1,141.5,93.7,142.1L93.7,142.1z"/>
			</g>
		</g>
		<g>
			<g>
				<path class="st5" d="M80.5,124.9c-1.2,1.4-0.8,3.1,0.8,4c1.6,0.9,3.6,0.3,4.5-1.3c0.8-1.4,0.2-2.9-1-3.8c-1.4-1-3.3-0.4-4.3,0.8
					c-0.4,0.5,0.3,1.3,0.8,0.8c0.7-0.8,1.6-1.4,2.7-0.9c0.9,0.4,1.4,1.3,1.1,2.3c-0.8,2.7-5.5,1-3.7-1.1
					C81.7,125.1,81,124.4,80.5,124.9L80.5,124.9z"/>
			</g>
		</g>
	</g>
</g>
<g>
	<g>
		<g>
			<path class="st17" d="M380.4,326.4c47.2,16.4,60.9-7.3,84.7-24.6c3.5,53.8-27.4,75.4-60.1,85.6c-31.9,10-62.6,4.9-93.4-8
				c-22.7-9.5-42.6-24.1-51.5-47c-6.8-17.4-8-48.8,0.2-65.7c12.4-25.5,33.6-40.2,58.1-54.4c24.6-14.2,32.7-20.3,60-28.3
				c14.8-4.3,30.2-12.3,38.7-25.1c9.3-14.1,11.6-27.7,6.5-44.8c-5.1-17.1-10.2-44.9-2.9-61.2c6.7-15,23-11.2,26.8-12.6
				c-5.3,4.4-16.8,26.6-15.6,33.4c5.3,32.1,17.9,27.7,31.1,55.3c6.8,14.2,6.3,32.4,2,47.6c-3.6,12.9-12.7,21.9-22.9,30.5
				c-7.2,6-17.5,10.3-26,14.1c-9.2,4.1-16.7,4.8-24.8,10.7c-15.1,10.9-20.3,17.3-27.2,25.4c-6.9,8.1-14.2,9-12.5,19.6
				C352.7,285.3,346.8,314.7,380.4,326.4z"/>
		</g>
		<g>
			<path class="st9" d="M392.8,189.9c0.3,1.1,1.7,1.6,2.8,1.7c10,1.3,20.7-4.7,24.4-14.2c3.2-8.1,1.3-17.5-2.3-25.4
				c-3.6-8-8.7-15.2-12.4-23.1c-1.5-3.1-2.7-6.4-4.4-9.3c-1.8-3-4.1-5.7-7.2-7.2c-3.1-1.5-8.6-1.7-11.7-0.1
				c-0.3,0.2-1.1,0.8-1.5,0.7c0-0.3,3.4,15.6,3.8,18.2c0.4,3.1,0.4,6.3,0.5,9.4c0.4,13,2.4,26,4.6,38.9
				C390.1,183.2,391.9,186.2,392.8,189.9z"/>
		</g>
		<g>
			<path class="st1" d="M361.9,139.7c-3.4-1.8-6.8-3.5-10.2-5.3c-1.5-0.8-19-14.4-22-18.6c-1.2-1.7-1.9-3.8-1.7-5.9
				c0.1-1.3,0.4-2.6,0.8-3.8c1.1-4,2.2-8,3.3-12c1.9-6.8,3.8-13.6,6-20.3c0.9-2.8,2.2-5.7,4.8-7c2-1,4.8-1,5.7-3
				c0.4-0.9,0.3-1.9,0.2-2.8c-0.4-2.5-1.2-4.9-2.2-7.2c-2.5,0-4.8,1.6-6.5,3.4c-1.7,1.8-3,4-4.7,6c-1.9,2.2-4.2,4.1-6,6.3
				c-1.9,2.4-3.3,5.1-4.7,7.8c-3.7,7.4-6.4,17.7-10.1,25.1c-0.9,1.8-2.1,6.1-1.1,9.6c2.2,7.9,2.1,9.6,6.4,16.7
				c4.2,7,9.7,13.2,15.3,19.2c4.9,5.3,12.1,11.4,18.1,15.4c2.1-5.8,2.6-12.4,5.9-17.6C360.3,143.7,361.3,141.9,361.9,139.7z"/>
		</g>
		<g>
			<path class="st3" d="M361.7,100.6c1.9,6.8,2.9,8.7,2.3,13.4c-1.6,0.8-3.6-0.2-4.5-1.8c-0.9-1.5-1.1-3.4-1.4-5.1
				c-0.4-2-0.9-4-1.7-5.9c-0.1-0.4-0.3-0.7-0.6-1c-0.4-0.4-1.1-0.4-1.7-0.5c-2.6-0.5-4.7-2.6-5.9-4.9c-1.2-2.4-1.6-5-2.1-7.7
				c-0.8-5-1.6-10-2.4-15c-0.7-4.5-1.5-9-1.9-13.6c-0.3-2.9-0.8-5.4-1.2-8.7c-0.3-2.5-1.6-6.9-0.9-7.5c1.1-0.9,3-1.1,5.1-1.5
				c2.5-0.5,6.2-1.3,6.6,0.2c2.4,8.1,2.7,11.4,3.8,17.6c1.9,10.4,6.2,20.6,8.6,30.8c0.8,3.2,1.4,6.6-1.4,9.3
				C362.1,99.4,361.5,99.9,361.7,100.6z"/>
		</g>
		<g>
			<path class="st1" d="M353.7,49.9c1.1,0.4,3.4,0.1,5.1,3.8c0.3,0.7,0.3,1.9,0.3,2.7c-0.1,2.3,0.3,4.7,1.1,6.9
				c0.5,1.3,1.1,2.7,0.5,3.9c-0.3,0.6-0.8,1-1.3,1.4c-1.5,1.2-3.1,2.4-4.7,3.5c-0.7,0.4-1.6,0.9-2.2,0.3c-0.3-0.2-0.4-0.6-0.4-1
				c0-1.2,0.9-2.1,1.7-3c1-1,2-2,2.9-3c-1.7,1.6-3.2,2.4-5.5,3c-0.9,0.3-1.3,0-1.5-0.1c-0.2-0.1-0.4-0.4-0.4-0.7
				c-0.2-1,0.3-2.1,1.1-2.8c0.8-0.7,1.7-1.1,2.7-1.5c0.9-0.4,1.7-0.7,2.6-1.1c-1.6,0.7-3.2,0.8-4.9,0.8c-0.6,0-1.1-0.1-1.6-0.3
				c-0.5-0.3-0.9-0.8-0.9-1.3c0-0.8,0.8-1.3,1.5-1.6c1.6-0.8,3.4-1.3,5.1-1.6c-1.4,0.5-2.8,0.7-4.3,0.7c-1,0-2.1-0.1-2.7-0.9
				c-0.2-0.2-0.3-0.5-0.2-0.8c0.1-0.3,0.3-0.4,0.6-0.6c0.7-0.4,1.5-0.8,2.3-1.1c0.9-0.3,1.9-0.5,2.7-1c0.8-0.5,1.3-1.5,1.1-2.4
				C354.1,51.7,353.7,49.9,353.7,49.9z"/>
		</g>
		<g>
			<path class="st1" d="M366.6,116.5c-0.1,0.2,0,0.4,0.2,0.4c0.3-2.4,0-4.9-0.9-7.1c-0.3-0.8-0.9-1.8-1.8-1.6
				c-0.5,0.1-0.9,0.5-1.1,0.9c-0.8,1.3-1,2.8-0.9,4.3c0.1,1.5,0.6,2.9,1.1,4.3c-0.4-1.1-0.7-2.2-0.9-3.3c-0.1-1-0.2-1.9-0.6-2.8
				c-0.4-0.9-1.1-1.7-2.1-1.8c-0.9-0.1-1.7,0.5-2.1,1.3c-0.4,0.8-0.4,1.7-0.2,2.5c0.3,1,0.8,1.9,1.4,2.8c0.7,1,1.3,2.1,2,3.1
				c-1.7,0.6-2.6,2.5-2.9,4.3c-0.2,1.9-0.2,3.9,0.6,5.6c0.8,1.7,2.3,3.2,4.1,3.6c2.4,0.5,5.1-0.7,7.2,0.5c1,0.6,1.7,1.6,2.2,2.6
				c2,3.3,5,7.1,5.2,11c-2,0.9-5.1-1.3-6.4-3.1c-1.3-1.8-2.8-4-5-4c-1.5,3.5-3.7,6.5-5.5,9.9c-3.9,7.5-5.1,16.4-3.3,24.7
				c0.5,2.1,1.2,4.4,2.8,5.9c1.6,1.6,4,2.2,6.3,2.1c2.3-0.2,4.4-1,6.4-2.2c6.4-3.7,11-10.2,12.5-17.4c0.7-3.5,0.7-7.2,1-10.8
				c0.8-8.4,3.6-16.6,8.1-23.8c0.5-0.8,1-1.6,1.2-2.5c0.3-1.4-0.1-2.9-0.7-4.3c-2.6-5.8-8.3-10.5-14.7-10.4
				c-0.6-2.3-1.9-4.5-3.7-6.1c-0.2-0.2-0.5,0-0.5,0.2c0,1.9-0.1,3.9-0.1,5.8c-3.1,0.9-6,2.7-8.3,5c-0.2,0.2-0.5,0.4-0.7,0.2
				C366.5,116.5,366.7,116.2,366.6,116.5z"/>
		</g>
		<g>
			<path class="st1" d="M326.4,410.9c-0.2-6.7,3.7-12.7,7.2-18.4c5-8.2,9.4-16.8,12.2-25.9c2.8-9.2,0.9-17.2-1.1-26.6
				c-0.8-3.9-1.5-5.9-1.8-9.8c-0.4-3.9,2.6-11.8,5.4-14.7c-7.2-0.5-14.5,0.4-21.3,2.8c-0.9,0.3-1.8,0.6-2.4,1.3
				c-0.4,0.5-4.9-6-5.1-5.4c-1.3,3.6,1.9,14.5,1.7,18.4c-0.1,3.6-1.2,7.6,0.6,10.7c5.1,9.2-0.3,27-6.4,50.9
				c-0.8,3-5.5,13.2-7.1,15.8c0.5,1,1.9,1.1,3.1,1.1C316.4,411,321.4,410.9,326.4,410.9z"/>
		</g>
		<g>
			<path class="st10" d="M488.5,296.1c-0.9-1-2.3-1.4-3.6-1.6c-8.1-1.4-3.6,3.1-18.7,0.2c-4.6-0.9-12.8-2.8-19.5-2
				c-13.2,1.5-16.2,8.4-25.6,7.8c-4.3-4.6-10.5-5.5-14.5-15.3c-9.7,0.8-20.5,8.3-28.5,13.9c1.1,4.7,28,22.9,34.2,23.9
				c3.3,0.6,6.7-0.3,9.9-1.1c18.1-4.6,36.4-8.5,54.9-11.6c4.1-0.7,8.2-1.3,12.3-0.8c1-3.6,1-7.5,0-11.1
				C489.4,297.7,489.1,296.8,488.5,296.1z"/>
		</g>
		<g>
			<path class="st4" d="M327.1,407.5c0.8,0.4,1.3,1.3,1.5,2.1c0.3,1.4,0.1,2.9-0.5,4.2c-0.3,0.6-0.7,1.1-1.1,1.6
				c-1.7,2.5-2.5,5.5-2.4,8.5c-1.7,0.3-3,0.1-4.7,0.1c-0.1-1.4,0.3-2.7,0.4-4.1c0.1-1.4-0.4-3-1.7-3.5c-1-0.4-2.1,0-3,0.5
				c-2.6,1.5-4.7,3.8-7.5,4.8c-3,1-7.6,0.1-10.8,0.2c-3.1,0-5.1,0-9.8-0.1c-1.2,0-1.9,0.3-2.5-0.3c-0.6-0.6-0.4-1.7,0.4-1.9
				c7.8-1.5,16.9-6.1,22.7-10.8c0.3-0.2,0.7-0.3,1-0.4c0.6-0.1,1.2,0.2,1.8,0.4c2.7,1,4.5,0.8,7.4,0.3
				C321.2,408.6,324.2,407.8,327.1,407.5z"/>
		</g>
		<g>
			<path class="st4" d="M482.4,294.9c-1-1.9,1.7-5,3.8-5.8c2-0.8,4.3-0.6,6.4-0.5c2.2,0.2,4.4,0.3,6.4-0.4c0.2,1,0.4,1.9,0.6,2.9
				c-1.3,0-2.6-0.1-3.8,0.3c-1.2,0.4-2.4,1.2-2.9,2.4c-0.3,0.8-0.3,1.8-0.1,2.6c0.8,4.7,4.7,5.1,7.7,8.8c4.1,5,7,15.4,7.6,18.3
				c0.8,3.7-1.6,2.9-3.2,1.5c-1-0.8-1.4-2.1-2.1-3.1c-1.9-3.1-4.9-5.5-9.7-8.8c-1.4-0.9-5.8-3-6.1-5
				C485.9,300,484.2,298.5,482.4,294.9z"/>
		</g>
		<g>
			<path class="st11" d="M432.6,280.8c-5.7,2.7-7.6,4.7-12.5,8.5c-4.1,3.2-7.8,6.8-12.4,9.2c-6.8,3.7-19.6,11-27.1,13
				c-18.5,4.9-34.6,12.3-55.8,8c-4.9-1-38.8-4.6-43.2-2.9c-0.1-0.9,1.3-2.4,2-3c7.6-7.2,8-29.1,16.9-42.4c3.4-5,7.6-10,11.4-14.6
				c3.7-4.4,8.3-8.7,8.5-14.5c0.5-14.3,6.1-28.3,15.4-39.1c3.9-4.5,8-8.9,10.6-14.3c2.7-5.5,4-7.9,2.6-9.1c-1.7-1.5-2.8-3.7-3-5.9
				c-0.3-2.6,0.5-5.2,1.6-7.5c1.2-2.3,2.7-4.4,4-6.6c3.3-5.4,5.6-11.5,6.6-17.8c0.2-1.3,0.5-2.2,0.7-3.5c-0.2-0.2,0.2-0.4,0.4-0.4
				c2.6,0.5,5.5,0.9,7.1,2.2c-2.6,3.3-3.6,7.3-4.9,11.2c-2.4,7.2-4.3,15-1.9,22.2c0.7,2.1,1.9,4.2,3.8,5.2c1.8,1,8.1,3,13.1-4.1
				c4.9-6.9,7.1-12.5,7.7-25.1c0.1-2.4,1.4-4.2,2.7-6.2c4.5-0.4,3.6,1.6,7.4,4.1c1.2,0.8,2.4,1.6,3.1,2.8c0.6,1,0.8,2.2,1,3.4
				c1.5,10.3,1.5,20.9,0,31.2c-0.8,5-2,10.2-5.1,14.2c-2.3,3-5.6,5.1-8.8,7.2c-5.1,3.3-10.2,6.6-15.3,9.9c-1.5,1-3,1.9-4,3.3
				c-1.4,1.8-1.8,4.2-2,6.5c-0.2,1.7-0.2,3.6,0.8,5c3,4.8,9.9,5.4,15.4,6.7c6.6,1.6,13.2,3.4,19.4,6.2c6.2,2.8,12,6.8,16.1,12.2
				c2.6,3.3,4.5,7.2,7.3,10.3c1.7,1.9,3.7,3.5,5.7,5.1c2.9,2.3,5.8,4.7,8.8,7C436.7,278.7,434.6,279.9,432.6,280.8z"/>
		</g>
		<g>
			<path class="st10" d="M415.4,95.8c1.2-8.2,0.8-20.6,3.6-28.2c2.9-7.6,7.4-14.8,14.1-19.4c1.9-1.3,4.2-2.8,4.5-5.1
				c0.1-0.8-0.1-1.6,0.3-2.2c0.3-0.5,0.9-0.8,1.4-1c3.6-1.5,7.8-1.1,11.7-0.7c3.3,0.4,6.6,0.7,9.9,1.1c2.8,0.3,6.2,1.1,7,3.8
				c0.7,2.6-1.8,5.2-4.5,5.8c-2.7,0.5-5.4-0.3-8.1-0.8c-3.5-0.6-7.4-0.6-10.4,1.3c-1.7,1-3.1,2.6-4.4,4.1c-3,3.5-6.2,7.1-7.6,11.5
				c-0.8,2.5-1,5.2-1.1,7.8c-0.6,9.8-1.1,19.9,1.5,29.3c0.9,3.1-0.4,6.5-2.3,9s-4.5,4.6-6.8,6.8c-3.3,3.3-6.1,7.1-8.3,11.2
				c-2.1,4.1-3.6,8.4-5.7,12.5c-2.1,4.1-4.9,7.9-9,10.1c-4,2.1-9.4,2.2-12.9-0.9c-1.6-1.5-2.7-3.5-3.3-5.6c-2.3-8.4,2.7-17,8.6-23.4
				c5.9-6.4,11.4-11,16.4-18.1C412,102.2,414.9,98.8,415.4,95.8z"/>
		</g>
		<g>
			<path class="st5" d="M382.9,124c-0.4,0-0.8-0.3-0.9-0.7c-0.2-0.5,0.1-1.1,0.7-1.3c0.3-0.1,0.7-0.2,1-0.3c0.8-0.2,1.5-0.4,2.1-0.7
				c0.7-0.4,1.4-1.1,1.3-1.8c0-0.8-0.8-1.4-1.5-1.6c-1-0.3-2.1-0.2-3.2-0.1c-0.6,0-1.1-0.4-1.1-0.9c0-0.6,0.4-1,0.9-1.1
				c1.2-0.1,2.6-0.2,4,0.2c1.4,0.5,2.9,1.7,2.9,3.5c0.1,1.7-1.2,3-2.4,3.7c-0.8,0.4-1.7,0.7-2.5,0.9c-0.3,0.1-0.6,0.2-0.9,0.3
				C383.2,124,383,124,382.9,124z"/>
		</g>
		<g>
			<path class="st5" d="M462.9,46.6c-0.2,0-0.4-0.1-0.6-0.3c-0.8-0.8-1.3-1-2.4-1.3l-0.6-0.2c-0.5-0.2-0.8-0.8-0.6-1.3
				c0.2-0.5,0.8-0.8,1.3-0.6l0.6,0.2c1.2,0.4,2,0.7,3.1,1.8c0.4,0.4,0.4,1,0,1.4C463.5,46.6,463.2,46.7,462.9,46.6z"/>
		</g>
		<g>
			<path class="st5" d="M373.5,191.6c-2.3-0.2-4.8-1.1-7.3-2.6c-0.5-0.3-0.6-0.9-0.3-1.4c0.3-0.5,0.9-0.6,1.4-0.3
				c2.6,1.6,5.2,2.4,7.5,2.4c3-0.1,4-0.6,4.3-0.8c2.8-2,3.2-2.9,3.4-5.4c0-0.6,0.5-1,1.1-1c0,0,0,0,0,0c0.5,0,1,0.5,0.9,1.1
				c-0.2,3.3-1.1,4.7-4.2,7c-1,0.7-2.7,1.1-5.4,1.2C374.4,191.7,373.9,191.6,373.5,191.6z"/>
		</g>
		<g>
			<path class="st11" d="M379.3,129c0.6-0.6,0.8-1.6,0.8-2.4c0-0.4-0.1-0.8-0.2-1.1c-0.4-1.4-1.7-2.6-3.2-2.9
				c-1.4-0.3-2.9,0.3-3.7,1.5c-0.4,0.6-0.5,1.4-0.6,2.1c0,0.4-0.1,0.8,0,1.1c0.2,0.9,1,1.5,1.9,1.9c0.8,0.4,1.6,0.7,2.5,0.8
				C377.8,129.9,378.7,129.7,379.3,129z"/>
		</g>
		<g>
			<defs>
				<path id="SVGID_00000121988159505919022840000017699056227613733274_" d="M353.7,49.9c1.1,0.4,3.4,0.1,5.1,3.8
					c0.3,0.7,0.3,1.9,0.3,2.7c-0.1,2.3,0.3,4.7,1.1,6.9c0.5,1.3,1.1,2.7,0.5,3.9c-0.3,0.6-0.8,1-1.3,1.4c-1.5,1.2-3.1,2.4-4.7,3.5
					c-0.7,0.4-1.6,0.9-2.2,0.3c-0.3-0.2-0.4-0.6-0.4-1c0-1.2,0.9-2.1,1.7-3c1-1,2-2,2.9-3c-1.7,1.6-3.2,2.4-5.5,3
					c-0.9,0.3-1.3,0-1.5-0.1c-0.2-0.1-0.4-0.4-0.4-0.7c-0.2-1,0.3-2.1,1.1-2.8c0.8-0.7,1.7-1.1,2.7-1.5c0.9-0.4,1.7-0.7,2.6-1.1
					c-1.6,0.7-3.2,0.8-4.9,0.8c-0.6,0-1.1-0.1-1.6-0.3c-0.5-0.3-0.9-0.8-0.9-1.3c0-0.8,0.8-1.3,1.5-1.6c1.6-0.8,3.4-1.3,5.1-1.6
					c-1.4,0.5-2.8,0.7-4.3,0.7c-1,0-2.1-0.1-2.7-0.9c-0.2-0.2-0.3-0.5-0.2-0.8c0.1-0.3,0.3-0.4,0.6-0.6c0.7-0.4,1.5-0.8,2.3-1.1
					c0.9-0.3,1.9-0.5,2.7-1c0.8-0.5,1.3-1.5,1.1-2.4C354.1,51.7,353.7,49.9,353.7,49.9z"/>
			</defs>
			<clipPath id="SVGID_00000170976813547409981870000010825253630939082421_">
				<use xlink:href="#SVGID_00000121988159505919022840000017699056227613733274_"  style="overflow:visible;"/>
			</clipPath>
			<g style="clip-path:url(#SVGID_00000170976813547409981870000010825253630939082421_);">
				<path class="st5" d="M350.3,59.6c-0.1,0-0.2,0-0.4-0.1c-0.5-0.2-0.7-0.9-0.5-1.4c0.3-0.6,0.1-0.8-0.1-0.9
					c-0.7-0.5-2.1-0.4-2.4-0.1c-0.4,0.4-1,0.4-1.4,0c-0.4-0.4-0.4-1,0-1.4c1-1.1,3.6-1.2,5-0.2c1.1,0.8,1.4,2.1,0.7,3.5
					C351.1,59.5,350.7,59.7,350.3,59.6z"/>
			</g>
			<g style="clip-path:url(#SVGID_00000170976813547409981870000010825253630939082421_);">
				<path class="st5" d="M350.1,64.8c-0.3,0-0.6-0.2-0.7-0.4c-0.3-0.5-0.2-1.1,0.3-1.4c0.9-0.6,1.1-1,1.2-1.1
					c-0.2-0.2-0.8-0.3-1.1-0.3c-0.8,0.1-1.9,0.8-2.3,1.3c-0.3,0.5-1,0.6-1.4,0.2c-0.5-0.3-0.6-1-0.2-1.4c0.8-1.1,2.5-2,3.6-2.1
					c0.7-0.1,2.8,0.2,3.3,1.6c0.4,1.1-0.2,2.3-2,3.5C350.5,64.8,350.3,64.8,350.1,64.8z"/>
			</g>
			<g style="clip-path:url(#SVGID_00000170976813547409981870000010825253630939082421_);">
				<path class="st5" d="M347.7,68.5c-0.1,0-0.2,0-0.3-0.1c-0.5-0.2-0.7-0.8-0.5-1.3c0.4-1,1.3-1.8,2.5-2.2c0.6-0.2,1.2-0.3,1.7-0.3
					c0,0,0,0,0.1,0c1.5,0.1,2.9,1.4,3,2.9c0.1,0.6-0.3,1.1-0.9,1.1c-0.5,0.1-1.1-0.3-1.1-0.9c-0.1-0.6-0.6-1.1-1.2-1.2c0,0,0,0,0,0
					c-0.2,0-0.5,0-0.8,0.2c-0.6,0.2-1.1,0.7-1.3,1.1C348.5,68.3,348.1,68.6,347.7,68.5z"/>
			</g>
			<g style="clip-path:url(#SVGID_00000170976813547409981870000010825253630939082421_);">
				<path class="st5" d="M351.3,74.2c-0.5,0-1-0.5-0.9-1.1c0.1-1.8,1.8-3.3,3.5-3.8c1.9-0.6,3.1,0.5,3.9,1.3
					c0.3,0.3,0.6,0.5,0.8,0.6c0.5,0.2,0.7,0.9,0.5,1.4c-0.2,0.5-0.9,0.7-1.4,0.5c-0.5-0.2-0.9-0.6-1.3-1c-0.9-0.8-1.3-1.1-2-0.8
					c-1,0.3-2,1.3-2,2C352.4,73.8,351.9,74.2,351.3,74.2C351.4,74.2,351.3,74.2,351.3,74.2z"/>
			</g>
		</g>
		<g>
			<defs>
				<path id="SVGID_00000003089743738214992150000009853806466544356514_" d="M415.4,95.8c1.2-8.2,0.8-20.6,3.6-28.2
					c2.9-7.6,7.4-14.8,14.1-19.4c1.9-1.3,4.2-2.8,4.5-5.1c0.1-0.8-0.1-1.6,0.3-2.2c0.3-0.5,0.9-0.8,1.4-1c3.6-1.5,7.8-1.1,11.7-0.7
					c3.3,0.4,6.6,0.7,9.9,1.1c2.8,0.3,6.2,1.1,7,3.8c0.7,2.6-1.8,5.2-4.5,5.8c-2.7,0.5-5.4-0.3-8.1-0.8c-3.5-0.6-7.4-0.6-10.4,1.3
					c-1.7,1-3.1,2.6-4.4,4.1c-3,3.5-6.2,7.1-7.6,11.5c-0.8,2.5-1,5.2-1.1,7.8c-0.6,9.8-1.1,19.9,1.5,29.3c0.9,3.1-0.4,6.5-2.3,9
					s-4.5,4.6-6.8,6.8c-3.3,3.3-6.1,7.1-8.3,11.2c-2.1,4.1-3.6,8.4-5.7,12.5c-2.1,4.1-4.9,7.9-9,10.1c-4,2.1-9.4,2.2-12.9-0.9
					c-1.6-1.5-2.7-3.5-3.3-5.6c-2.3-8.4,2.7-17,8.6-23.4c5.9-6.4,11.4-11,16.4-18.1C412,102.2,414.9,98.8,415.4,95.8z"/>
			</defs>
			<clipPath id="SVGID_00000080167622141646475360000010691684300282036152_">
				<use xlink:href="#SVGID_00000003089743738214992150000009853806466544356514_"  style="overflow:visible;"/>
			</clipPath>
			<g style="clip-path:url(#SVGID_00000080167622141646475360000010691684300282036152_);">
				<path class="st5" d="M452.4,45.2c-2.4-0.2-4.7-0.5-7.1-1.1c-0.5-0.1-0.9-0.7-0.7-1.2c0.1-0.5,0.7-0.8,1.2-0.7
					c2.7,0.8,5.6,1,8.4,1.2c1.1,0.1,2.5,0.2,3.5-0.3c1.3-0.6,2.3-2.2,2.9-4.8c0.1-0.5,0.7-0.9,1.2-0.8c0.5,0.1,0.9,0.7,0.8,1.2
					c-0.8,3.3-2.1,5.3-4.1,6.1c-1.5,0.7-3.1,0.5-4.4,0.4C453.6,45.3,453,45.2,452.4,45.2z"/>
			</g>
			<g style="clip-path:url(#SVGID_00000080167622141646475360000010691684300282036152_);">
				<path class="st5" d="M457.5,45.2c-0.1,0-0.1,0-0.2,0c-0.9-0.2-3-2-2.5-4.8c0.4-2,2.7-3.3,5.9-3.2c0.6,0,1,0.5,1,1
					c0,0.6-0.5,1-1,1c-1.8-0.1-3.7,0.5-3.9,1.6c-0.3,1.5,0.8,2.3,1,2.4c0.5,0.1,0.8,0.7,0.7,1.2C458.4,44.9,458,45.2,457.5,45.2z"/>
			</g>
		</g>
		<g>
			<defs>
				<path id="SVGID_00000021841925331449327010000011431316097077356475_" d="M432.6,280.8c-5.7,2.7-7.6,4.7-12.5,8.5
					c-4.1,3.2-7.8,6.8-12.4,9.2c-6.8,3.7-19.6,11-27.1,13c-18.5,4.9-34.6,12.3-55.8,8c-4.9-1-38.8-4.6-43.2-2.9
					c-0.1-0.9,1.3-2.4,2-3c7.6-7.2,8-29.1,16.9-42.4c3.4-5,7.6-10,11.4-14.6c3.7-4.4,8.3-8.7,8.5-14.5c0.5-14.3,6.1-28.3,15.4-39.1
					c3.9-4.5,8-8.9,10.6-14.3c2.7-5.5,4-7.9,2.6-9.1c-1.7-1.5-2.8-3.7-3-5.9c-0.3-2.6,0.5-5.2,1.6-7.5c1.2-2.3,2.7-4.4,4-6.6
					c3.3-5.4,5.6-11.5,6.6-17.8c0.2-1.3,0.5-2.2,0.7-3.5c-0.2-0.2,0.2-0.4,0.4-0.4c2.6,0.5,5.5,0.9,7.1,2.2
					c-2.6,3.3-3.6,7.3-4.9,11.2c-2.4,7.2-4.3,15-1.9,22.2c0.7,2.1,1.9,4.2,3.8,5.2c1.8,1,8.1,3,13.1-4.1c4.9-6.9,7.1-12.5,7.7-25.1
					c0.1-2.4,1.4-4.2,2.7-6.2c4.5-0.4,3.6,1.6,7.4,4.1c1.2,0.8,2.4,1.6,3.1,2.8c0.6,1,0.8,2.2,1,3.4c1.5,10.3,1.5,20.9,0,31.2
					c-0.8,5-2,10.2-5.1,14.2c-2.3,3-5.6,5.1-8.8,7.2c-5.1,3.3-10.2,6.6-15.3,9.9c-1.5,1-3,1.9-4,3.3c-1.4,1.8-1.8,4.2-2,6.5
					c-0.2,1.7-0.2,3.6,0.8,5c3,4.8,9.9,5.4,15.4,6.7c6.6,1.6,13.2,3.4,19.4,6.2c6.2,2.8,12,6.8,16.1,12.2c2.6,3.3,4.5,7.2,7.3,10.3
					c1.7,1.9,3.7,3.5,5.7,5.1c2.9,2.3,5.8,4.7,8.8,7C436.7,278.7,434.6,279.9,432.6,280.8z"/>
			</defs>
			<clipPath id="SVGID_00000071559410273122813260000008438748091516172703_">
				<use xlink:href="#SVGID_00000021841925331449327010000011431316097077356475_"  style="overflow:visible;"/>
			</clipPath>
			<g style="clip-path:url(#SVGID_00000071559410273122813260000008438748091516172703_);">
				<path class="st5" d="M330.2,328.5c-0.2,0-0.5-0.1-0.7-0.3c-4.7-5-6.9-12.5-6.8-22.4c0.1-3.6,1.1-7.3,2.2-10.9
					c1.3-4.3,2.5-8.4,2-12.4c-0.1-0.6,0.3-1.1,0.9-1.1c0.6-0.1,1.1,0.3,1.1,0.9c0.5,4.4-0.8,8.9-2.1,13.2c-1,3.4-2.1,7-2.1,10.3
					c-0.1,9.3,2,16.4,6.2,21c0.4,0.4,0.4,1.1-0.1,1.4C330.8,328.4,330.5,328.5,330.2,328.5z"/>
			</g>
			<g style="clip-path:url(#SVGID_00000071559410273122813260000008438748091516172703_);">
				<path class="st5" d="M382,329.2c-0.3,0-0.6-0.2-0.7-0.4c-1.3-1.7-13.6-19.8-14.4-21.4c-2-3.9-3-7.3-4-10.8
					c-1.3-4.7-2.7-9.6-6.7-16.8c-0.3-0.5-0.1-1.1,0.4-1.4c0.5-0.3,1.1-0.1,1.4,0.4c4.1,7.4,5.6,12.7,6.9,17.3
					c1,3.5,1.9,6.7,3.8,10.5c0.7,1.4,12.6,19,14.2,21.2c0.3,0.4,0.2,1.1-0.2,1.4C382.5,329.1,382.2,329.2,382,329.2z"/>
			</g>
			<g style="clip-path:url(#SVGID_00000071559410273122813260000008438748091516172703_);">
				<path class="st5" d="M435.4,299.3c-9.2-0.8-18.8-4.4-28.1-10.5c-6.7-4.4-12.3-10.8-17.8-16.9c-2.2-2.5-4.4-5-6.7-7.3
					c-0.4-0.4-0.4-1,0-1.4c0.4-0.4,1-0.4,1.4,0c2.3,2.3,4.5,4.9,6.7,7.4c5.4,6,10.9,12.3,17.4,16.6c10.2,6.7,20.8,10.3,30.7,10.3
					c0.6,0,1,0.5,1,1c0,0.6-0.5,1-1,1C437.9,299.5,436.7,299.4,435.4,299.3z"/>
			</g>
		</g>
		<g>
			<path class="st5" d="M403.9,161.2c-0.3,0-0.6-0.2-0.8-0.5c-0.8-1.2-1.3-2.5-1.7-3.9c-0.1-0.5,0.2-1.1,0.7-1.2
				c0.5-0.1,1.1,0.2,1.2,0.7c0.3,1.2,0.8,2.3,1.4,3.3c0.3,0.5,0.2,1.1-0.3,1.4C404.3,161.2,404.1,161.2,403.9,161.2z"/>
		</g>
		<g>
			<path class="st5" d="M405,169.4c-0.4,0-0.8-0.4-0.9-0.8l-0.5-2.4c-0.1-0.5,0.2-1.1,0.8-1.2c0.6-0.1,1.1,0.2,1.2,0.8l0.5,2.4
				c0.1,0.5-0.2,1.1-0.8,1.2C405.2,169.4,405.1,169.4,405,169.4z"/>
		</g>
		<g>
			<path class="st5" d="M403.2,178.7c-0.5,0-0.9-0.4-0.9-0.9l-0.2-2.4c-0.1-0.6,0.4-1,0.9-1.1c0.6-0.1,1,0.4,1.1,0.9l0.2,2.4
				c0,0.6-0.4,1-0.9,1.1C403.3,178.7,403.2,178.7,403.2,178.7z"/>
		</g>
		<g>
			<path class="st5" d="M409.6,178.3c-0.3,0-0.7-0.2-0.8-0.6l-1.2-2.4c-0.2-0.5,0-1.1,0.5-1.4c0.5-0.2,1.1,0,1.4,0.5l1.2,2.4
				c0.2,0.5,0,1.1-0.5,1.4C409.9,178.2,409.8,178.3,409.6,178.3z"/>
		</g>
		<g>
			<path class="st5" d="M408.6,186.6c-0.4,0-0.8-0.4-0.9-0.8l-0.5-2.4c-0.1-0.5,0.2-1.1,0.8-1.2c0.6-0.1,1.1,0.2,1.2,0.8l0.5,2.4
				c0.1,0.5-0.2,1.1-0.8,1.2C408.8,186.6,408.7,186.6,408.6,186.6z"/>
		</g>
		<g>
			<path class="st5" d="M410.4,165.1c-0.5,0-0.8-0.4-0.9-0.9l-0.5-3.7c-0.1-0.6,0.3-1.1,0.9-1.1c0.6-0.1,1.1,0.3,1.1,0.9l0.5,3.7
				c0.1,0.6-0.3,1.1-0.9,1.1C410.6,165.1,410.5,165.1,410.4,165.1z"/>
		</g>
		<g>
			<path class="st5" d="M409.8,155.3c-0.4,0-0.7-0.3-0.9-0.7l-1-3.2c-0.2-0.5,0.1-1.1,0.6-1.3c0.5-0.2,1.1,0.1,1.3,0.6l1,3.2
				c0.2,0.5-0.1,1.1-0.6,1.3C410.1,155.3,410,155.3,409.8,155.3z"/>
		</g>
		<g>
			<path class="st5" d="M395,119.4c-0.3,0-0.6-0.2-0.8-0.5l-1.1-1.8c-0.3-0.5-0.1-1.1,0.3-1.4c0.5-0.3,1.1-0.1,1.4,0.3l1.1,1.8
				c0.3,0.5,0.1,1.1-0.3,1.4C395.4,119.4,395.2,119.5,395,119.4z"/>
		</g>
		<g>
			<path class="st5" d="M416.9,160.3c-0.2,0-0.4-0.1-0.5-0.2c-1.4-1-2.3-2.6-2.5-4.2c-0.1-0.6,0.3-1.1,0.9-1.1
				c0.6-0.1,1.1,0.3,1.1,0.9c0.2,1.1,0.8,2.2,1.7,2.9c0.4,0.3,0.5,1,0.2,1.4C417.6,160.1,417.2,160.3,416.9,160.3z"/>
		</g>
		<g>
			<path class="st5" d="M417.6,170.5c-0.4,0-0.8-0.4-0.9-0.8l-0.7-3.8c-0.1-0.5,0.3-1.1,0.8-1.2c0.5-0.1,1.1,0.3,1.2,0.8l0.7,3.8
				c0.1,0.6-0.3,1.1-0.8,1.2C417.8,170.5,417.7,170.5,417.6,170.5z"/>
		</g>
		<g>
			<path class="st5" d="M415.8,181.8c-0.4,0-0.8-0.3-0.9-0.8l-0.8-3.4c-0.1-0.5,0.2-1.1,0.8-1.2c0.5-0.1,1.1,0.2,1.2,0.8l0.8,3.4
				c0.1,0.5-0.2,1.1-0.8,1.2C416,181.8,415.9,181.8,415.8,181.8z"/>
		</g>
		<g>
			<path class="st5" d="M413.1,172.1c-0.4,0-0.7-0.3-0.9-0.7c-0.4-1-0.4-2.1,0-3.1c0.2-0.5,0.8-0.8,1.3-0.6c0.5,0.2,0.8,0.8,0.6,1.3
				c-0.2,0.5-0.2,1.2,0,1.7c0.2,0.5-0.1,1.1-0.6,1.3C413.4,172.1,413.2,172.2,413.1,172.1z"/>
		</g>
		<g>
			<path class="st5" d="M401.3,188.7c-0.5,0-0.9-0.5-0.9-1c0-0.3-0.1-0.6-0.3-0.8c-0.3-0.4-0.3-1.1,0.2-1.4c0.4-0.3,1.1-0.3,1.4,0.2
				c0.5,0.6,0.7,1.3,0.7,2.1C402.3,188.3,401.9,188.7,401.3,188.7C401.3,188.7,401.3,188.7,401.3,188.7z"/>
		</g>
	</g>
	<g>
		<g>
			<path class="st5" d="M370.6,227.6c0.9-0.4,1.8-0.8,2.8-1.1c0.8-0.3,0.2-1.4-0.5-1.1c-1,0.3-1.9,0.7-2.8,1.1
				C369.3,226.8,369.8,227.9,370.6,227.6L370.6,227.6z"/>
		</g>
	</g>
	<g>
		<g>
			<path class="st5" d="M387.1,210.1c0.7,1.5,2.1,2.5,3.7,2.7c0.8,0.1,0.9-1.2,0.1-1.3c-1.2-0.1-2.2-0.9-2.7-1.9
				C387.9,208.9,386.7,209.4,387.1,210.1L387.1,210.1z"/>
		</g>
	</g>
	<g>
		<g>
			<path class="st5" d="M386,219.2c0.5,1,1.2,1.7,2.2,2.2c0.7,0.3,1.2-0.9,0.4-1.2c-0.7-0.3-1.2-0.8-1.5-1.5
				C386.8,217.9,385.6,218.4,386,219.2L386,219.2z"/>
		</g>
	</g>
	<g>
		<g>
			<path class="st5" d="M379.9,215.6c-0.6,0.7-1.1,1.4-1.5,2.2c-0.4,0.7,0.6,1.4,1,0.7c0.4-0.8,1-1.5,1.5-2.2
				C381.4,215.8,380.4,215,379.9,215.6L379.9,215.6z"/>
		</g>
	</g>
	<g>
		<g>
			<path class="st5" d="M381.2,229.4c0.4,0.5,0.8,0.9,1.4,1.2c0.7,0.4,1.4-0.6,0.7-1c-0.4-0.3-0.8-0.6-1.1-1
				C381.6,227.9,380.6,228.7,381.2,229.4L381.2,229.4z"/>
		</g>
	</g>
	<g>
		<g>
			<path class="st5" d="M396.9,205.7c1.1-1.1,2.8-0.5,4.2-0.8c0.8-0.2,0.6-1.4-0.2-1.2c-1.7,0.4-3.4-0.2-4.8,1.1
				C395.5,205.3,396.3,206.2,396.9,205.7L396.9,205.7z"/>
		</g>
	</g>
	<g>
		<g>
			<path class="st5" d="M397.9,211.2c0.5,0.6,1.1,1.1,1.9,1.3c0.8,0.3,1.2-0.9,0.4-1.2c-0.6-0.2-1-0.5-1.3-1
				C398.4,209.7,397.5,210.5,397.9,211.2L397.9,211.2z"/>
		</g>
	</g>
	<g>
		<g>
			<path class="st5" d="M395.2,219.8c0.3,0.4,0.6,0.9,0.7,1.5c0.2,0.8,1.4,0.6,1.2-0.2c-0.2-0.8-0.5-1.4-1-2.1
				C395.6,218.3,394.7,219.1,395.2,219.8L395.2,219.8z"/>
		</g>
	</g>
	<g>
		<g>
			<path class="st5" d="M404.7,217.4c0,0.4-0.1,0.9-0.1,1.3c-0.1,0.8,1.2,0.9,1.3,0.1c0-0.4,0.1-0.9,0.1-1.3
				C406,216.7,404.7,216.6,404.7,217.4L404.7,217.4z"/>
		</g>
	</g>
	<g>
		<g>
			<path class="st5" d="M409.8,210.3c0.8,0,1.6-0.1,2.4-0.1c0.3,0,0.6-0.4,0.5-0.7c-0.1-0.4-0.4-0.5-0.7-0.5c-0.8,0-1.6,0.1-2.4,0.1
				c-0.3,0-0.6,0.4-0.5,0.7C409.1,210.2,409.5,210.3,409.8,210.3L409.8,210.3z"/>
		</g>
	</g>
	<g>
		<g>
			<path class="st5" d="M409.5,201.8c1,0.4,2.1,0.7,3.1,1c0.8,0.2,0.9-1.1,0.1-1.3c-1-0.2-1.9-0.5-2.8-0.9
				C409.2,200.3,408.8,201.5,409.5,201.8L409.5,201.8z"/>
		</g>
	</g>
	<g>
		<g>
			<path class="st5" d="M404.2,195.1c-1,0.6-1.8,1.5-2.2,2.6c-0.3,0.8,0.9,1.2,1.2,0.4c0.3-0.8,0.8-1.4,1.6-1.9
				C405.4,195.9,404.9,194.7,404.2,195.1L404.2,195.1z"/>
		</g>
	</g>
	<g>
		<g>
			<path class="st5" d="M417.1,194.4c0.9,0.1,1.8,0.2,2.7,0.2c0.8,0.1,0.9-1.2,0.1-1.3c-0.9-0.1-1.8-0.2-2.7-0.2
				C416.4,193.1,416.3,194.3,417.1,194.4L417.1,194.4z"/>
		</g>
	</g>
	<g>
		<g>
			<path class="st5" d="M420.3,200.5c-0.2,1,0.3,1.8,1.1,2.3c0.7,0.4,1.4-0.6,0.7-1c-0.5-0.3-0.7-0.6-0.6-1.2
				C421.7,199.8,420.5,199.7,420.3,200.5L420.3,200.5z"/>
		</g>
	</g>
	<g>
		<g>
			<path class="st5" d="M419.1,210c0.7,0.5,1.4,0.9,2.3,1c0.8,0.1,0.9-1.2,0.1-1.3c-0.6-0.1-1.2-0.3-1.7-0.7
				C419.2,208.5,418.5,209.5,419.1,210L419.1,210z"/>
		</g>
	</g>
	<g>
		<g>
			<path class="st5" d="M429.2,205.5c0.6,0.3,1,0.9,1.2,1.5c0.3,0.8,1.4,0.2,1.1-0.5c-0.3-1-1-1.7-1.9-2.1
				C428.9,204,428.4,205.2,429.2,205.5L429.2,205.5z"/>
		</g>
	</g>
	<g>
		<g>
			<path class="st5" d="M430.6,195.2c1.2,0.2,2.4,0.2,3.6-0.1c0.8-0.2,0.6-1.4-0.2-1.2c-1.1,0.3-2.1,0.3-3.2,0
				C429.9,193.8,429.8,195,430.6,195.2L430.6,195.2z"/>
		</g>
	</g>
	<g>
		<g>
			<path class="st5" d="M428.6,183.9c-0.9,1-1.5,2.2-2,3.4c-0.3,0.7,0.8,1.2,1.2,0.4c0.5-1.1,1.1-2.1,1.9-3.1
				C430.2,184,429.1,183.3,428.6,183.9L428.6,183.9z"/>
		</g>
	</g>
	<g>
		<g>
			<path class="st5" d="M419.5,185.8c0,0.7,0.2,1.3,0.7,1.9c0.5,0.6,1.5-0.2,1-0.8c-0.2-0.3-0.4-0.6-0.4-0.9
				C420.8,185.1,419.6,185,419.5,185.8L419.5,185.8z"/>
		</g>
	</g>
	<g>
		<g>
			<path class="st5" d="M427.6,176c1.6-0.2,3.2-0.5,4.7-1.4c0.7-0.4,0.2-1.6-0.5-1.1c-1.3,0.8-2.8,1.1-4.4,1.3
				C426.6,174.8,426.8,176.1,427.6,176L427.6,176z"/>
		</g>
	</g>
	<g>
		<g>
			<path class="st5" d="M436.7,180.5c0.3,0.8,0.7,1.6,1.3,2.3c0.5,0.6,1.5-0.2,1-0.8c-0.5-0.6-0.8-1.3-1.1-2
				C437.5,179.2,436.4,179.7,436.7,180.5L436.7,180.5z"/>
		</g>
	</g>
	<g>
		<g>
			<path class="st5" d="M438.8,189.8c0.7,0.1,1.3,0.1,2,0.2c0.8,0.1,0.9-1.2,0.1-1.3c-0.7-0.1-1.3-0.1-2-0.2
				C438.1,188.5,438,189.7,438.8,189.8L438.8,189.8z"/>
		</g>
	</g>
	<g>
		<g>
			<path class="st5" d="M444.1,194.8c-1,0.3-1.6,1.1-1.8,2.1c-0.2,0.8,1.1,0.9,1.3,0.1c0.1-0.6,0.6-0.9,1.1-1
				C445.5,195.7,444.9,194.6,444.1,194.8L444.1,194.8z"/>
		</g>
	</g>
	<g>
		<g>
			<path class="st5" d="M436.2,201c-0.2,0.6-0.1,1.2,0.4,1.7c0.5,0.6,1.5-0.2,1-0.8c-0.1-0.1-0.2-0.2-0.1-0.4
				C437.6,200.6,436.4,200.2,436.2,201L436.2,201z"/>
		</g>
	</g>
	<g>
		<g>
			<path class="st5" d="M424,162c0.3,1.2,1.2,2,2.5,2c0.8,0,0.9-1.2,0.1-1.3c-0.7,0-1.1-0.3-1.3-1C425,161,423.7,161.2,424,162
				L424,162z"/>
		</g>
	</g>
	<g>
		<g>
			<path class="st5" d="M430.5,153.7c1-0.7,2.2-0.9,3.4-1.3c0.8-0.3,0.2-1.4-0.5-1.1c-1.3,0.4-2.6,0.7-3.6,1.5
				C429,153.2,429.8,154.2,430.5,153.7L430.5,153.7z"/>
		</g>
	</g>
	<g>
		<g>
			<path class="st5" d="M434.3,162.2c0.7,0.9,1.8,1.2,2.9,1.1c0.8-0.1,0.6-1.3-0.2-1.2c-0.7,0.1-1.3-0.1-1.7-0.7
				C434.8,160.7,433.8,161.5,434.3,162.2L434.3,162.2z"/>
		</g>
	</g>
	<g>
		<g>
			<path class="st5" d="M442,169c0.3,1,0.3,2.2,0,3.2c-0.2,0.8,1.1,0.9,1.3,0.1c0.2-1.1,0.3-2.4-0.1-3.6
				C443,168,441.8,168.2,442,169L442,169z"/>
		</g>
	</g>
	<g>
		<g>
			<path class="st5" d="M446.1,162c1.1-0.2,2.3-0.2,3.4-0.4c0.8-0.2,0.6-1.4-0.2-1.2c-1.1,0.2-2.3,0.2-3.4,0.4
				C445,160.9,445.3,162.1,446.1,162L446.1,162z"/>
		</g>
	</g>
	<g>
		<g>
			<path class="st5" d="M442.3,155.8c1.1-0.4,2.2-1,3.3-1.3c0.8-0.2,0.6-1.4-0.2-1.2c-1.3,0.3-2.4,1-3.7,1.4
				C441,155,441.6,156.1,442.3,155.8L442.3,155.8z"/>
		</g>
	</g>
	<g>
		<g>
			<path class="st5" d="M439.4,144c0.1,1.4,0.6,2.7,1.7,3.6c0.6,0.5,1.3-0.5,0.7-1c-0.8-0.7-1.1-1.7-1.2-2.8
				C440.6,143,439.3,143.2,439.4,144L439.4,144z"/>
		</g>
	</g>
	<g>
		<g>
			<path class="st5" d="M431.2,141.2c-0.5,0.7-1,1.5-1.5,2.2c-0.4,0.5,0.2,1.2,0.8,0.9l0,0c0.7-0.4,0.2-1.5-0.5-1.1l0,0
				c0.3,0.3,0.5,0.6,0.8,0.9c0.5-0.7,1-1.5,1.5-2.2C432.7,141.2,431.7,140.5,431.2,141.2L431.2,141.2z"/>
		</g>
	</g>
	<g>
		<g>
			<path class="st5" d="M433.8,132.8c1.2,0,2.4,0.2,3.5,0.6c0.8,0.3,1.2-0.9,0.4-1.2c-1.2-0.4-2.5-0.7-3.8-0.7
				C433.1,131.6,433,132.9,433.8,132.8L433.8,132.8z"/>
		</g>
	</g>
	<g>
		<g>
			<path class="st5" d="M436.9,121.1c-1.5,0.9-2.8,2-3.9,3.3c-0.5,0.6,0.5,1.3,1,0.7c1-1.1,2.1-2.1,3.4-2.9
				C438.1,121.8,437.6,120.7,436.9,121.1L436.9,121.1z"/>
		</g>
	</g>
	<g>
		<g>
			<path class="st5" d="M440.5,115.8c1-0.2,1.9-0.2,2.9-0.1c0.8,0.1,0.9-1.1,0.1-1.3c-1.1-0.2-2.2-0.2-3.2,0.1
				C439.5,114.7,439.7,116,440.5,115.8L440.5,115.8z"/>
		</g>
	</g>
	<g>
		<g>
			<path class="st5" d="M440.3,108.3c0.5-0.3,1.1-0.4,1.8-0.4c0.8,0,0.9-1.3,0.1-1.3c-0.8,0-1.7,0.2-2.4,0.6
				C439,107.5,439.6,108.6,440.3,108.3L440.3,108.3z"/>
		</g>
	</g>
	<g>
		<g>
			<path class="st5" d="M433.1,114.9c-0.3,0.4-0.5,0.8-0.5,1.3c-0.1,0.8,1.2,0.9,1.3,0.1c0-0.3,0.1-0.5,0.3-0.7
				C434.7,115,433.7,114.3,433.1,114.9L433.1,114.9z"/>
		</g>
	</g>
	<g>
		<g>
			<path class="st5" d="M445.3,123c1,0.5,2,0.8,3.1,1c0.8,0.1,0.9-1.1,0.1-1.3c-1-0.2-1.9-0.5-2.8-0.9
				C445,121.5,444.6,122.6,445.3,123L445.3,123z"/>
		</g>
	</g>
	<g>
		<g>
			<path class="st5" d="M444.7,130.4c0.6,0.2,1.2,0.6,1.6,1.2c0.4,0.7,1.6,0.2,1.1-0.5c-0.5-0.9-1.3-1.5-2.3-1.8
				C444.4,128.9,443.9,130.1,444.7,130.4L444.7,130.4z"/>
		</g>
	</g>
	<g>
		<g>
			<path class="st5" d="M454,129.6c0.7,0.9,1.3,2,1.7,3.1c0.3,0.8,1.4,0.2,1.1-0.5c-0.4-1.2-1.1-2.3-1.8-3.3
				C454.4,128.2,453.5,129,454,129.6L454,129.6z"/>
		</g>
	</g>
	<g>
		<g>
			<path class="st5" d="M450.9,137.1c-0.6,1-0.7,2-0.7,3.1c0.1,0.8,1.3,0.6,1.2-0.2c0-0.8,0.1-1.5,0.5-2.2
				C452.3,137.1,451.3,136.4,450.9,137.1L450.9,137.1z"/>
		</g>
	</g>
	<g>
		<g>
			<path class="st5" d="M459.1,141.2c0.4,0.7,0.8,1.4,1,2.2c0.2,0.8,1.5,0.6,1.2-0.2c-0.3-1-0.7-1.9-1.3-2.8
				C459.6,139.8,458.6,140.6,459.1,141.2L459.1,141.2z"/>
		</g>
	</g>
	<g>
		<g>
			<path class="st5" d="M455,147.4c0.1,0.9,0.6,1.7,1.5,2.2c0.7,0.4,1.4-0.6,0.7-1c-0.6-0.3-0.9-0.7-0.9-1.4
				C456.2,146.3,454.9,146.6,455,147.4L455,147.4z"/>
		</g>
	</g>
	<g>
		<g>
			<path class="st5" d="M452.2,153.7c0.5,0.7,1,1.3,1.8,1.7c0.3,0.2,0.7,0.2,0.9-0.2c0.2-0.3,0.2-0.7-0.2-0.9
				c-0.6-0.3-1-0.7-1.4-1.2C452.9,152.5,451.7,153,452.2,153.7L452.2,153.7z"/>
		</g>
	</g>
	<g>
		<g>
			<path class="st5" d="M448.3,146.5c0.1,0.1,0.3,0.2,0.4,0.3c0.2,0.8,1.5,0.6,1.2-0.2c-0.1-0.5-0.4-0.9-0.9-1.1
				C448.3,145.1,447.5,146.1,448.3,146.5L448.3,146.5z"/>
		</g>
	</g>
	<g>
		<g>
			<path class="st5" d="M462.1,156.6c0.3,0.6,0.6,1.2,0.9,1.8c0.3,0.7,1.5,0.2,1.1-0.5c-0.3-0.6-0.6-1.2-0.9-1.8
				C462.8,155.3,461.7,155.9,462.1,156.6L462.1,156.6z"/>
		</g>
	</g>
	<g>
		<g>
			<path class="st5" d="M457.3,163.8c-0.2,1-0.2,1.9,0.2,2.9c0.3,0.8,1.4,0.2,1.1-0.5c-0.2-0.6-0.3-1.3-0.1-1.9
				c0.1-0.3,0-0.7-0.4-0.8C457.8,163.4,457.4,163.5,457.3,163.8L457.3,163.8z"/>
		</g>
	</g>
	<g>
		<g>
			<path class="st5" d="M452.2,168c0,0.9-0.1,1.7-0.5,2.5c-0.4,0.7,0.8,1.2,1.2,0.4c0.4-0.9,0.6-1.8,0.6-2.8
				C453.5,167.3,452.2,167.2,452.2,168L452.2,168z"/>
		</g>
	</g>
	<g>
		<g>
			<path class="st5" d="M448.9,180.7c0.4,0.6,0.7,1.3,0.7,2c0,0.8,1.3,0.9,1.3,0.1c0-1.1-0.3-2-1-2.9
				C449.4,179.2,448.5,180,448.9,180.7L448.9,180.7z"/>
		</g>
	</g>
	<g>
		<g>
			<path class="st5" d="M459.5,174.7c0.3,0.9,0.2,1.9,0,2.7c-0.2,0.8,1.1,0.9,1.3,0.1c0.2-1.1,0.2-2.3-0.1-3.4
				C460.4,173.4,459.2,173.9,459.5,174.7L459.5,174.7z"/>
		</g>
	</g>
	<g>
		<g>
			<path class="st5" d="M452.4,190c0,0.4-0.1,0.9-0.1,1.3c-0.1,0.8,1.2,0.9,1.3,0.1c0-0.4,0.1-0.9,0.1-1.3
				C453.7,189.3,452.4,189.2,452.4,190L452.4,190z"/>
		</g>
	</g>
	<g>
		<g>
			<path class="st5" d="M314.9,222.6c-0.1,1.3-0.9,2.2-1.8,3.1c-0.5,0.6,0.3,1.6,0.8,1c1.1-1.1,2.1-2.4,2.2-4
				C316.2,221.9,314.9,221.8,314.9,222.6L314.9,222.6z"/>
		</g>
	</g>
	<g>
		<g>
			<path class="st5" d="M313.8,234.7c0,1.2,0.1,2.4,0.4,3.6c0.2,0.8,1.5,0.6,1.2-0.2c-0.3-1.1-0.4-2.1-0.4-3.2
				C315.1,234,313.9,233.9,313.8,234.7L313.8,234.7z"/>
		</g>
	</g>
	<g>
		<g>
			<path class="st5" d="M303.2,232.2c-1.3,0.5-2.4,1.2-3.4,2.2c-0.6,0.6,0.2,1.5,0.8,1c0.9-0.9,1.9-1.6,3.1-2
				C304.5,233.1,303.9,232,303.2,232.2L303.2,232.2z"/>
		</g>
	</g>
	<g>
		<g>
			<path class="st5" d="M290.3,241c0.2,1.3,1,2.5,2,3.3c0.7,0.5,1.4-0.5,0.7-1c-0.8-0.6-1.4-1.4-1.5-2.5
				C291.4,240,290.2,240.2,290.3,241L290.3,241z"/>
		</g>
	</g>
	<g>
		<g>
			<path class="st5" d="M303.9,244.5c0.4,1.2,1.1,2.2,2.1,2.9c0.6,0.5,1.4-0.5,0.7-1c-0.7-0.5-1.3-1.3-1.6-2.1
				C304.9,243.5,303.6,243.7,303.9,244.5L303.9,244.5z"/>
		</g>
	</g>
	<g>
		<g>
			<path class="st5" d="M313.3,247.1c-0.8,0.6-1.3,1.4-1.4,2.4c-0.1,0.8,1.2,0.9,1.3,0.1c0.1-0.6,0.4-1.1,1-1.5
				C314.8,247.6,314,246.6,313.3,247.1L313.3,247.1z"/>
		</g>
	</g>
	<g>
		<g>
			<path class="st5" d="M299.3,255.2c-0.6,1-1,2-1.3,3.1c-0.2,0.8,1,1.2,1.2,0.4c0.3-1,0.7-1.9,1.2-2.8
				C300.8,255.2,299.7,254.5,299.3,255.2L299.3,255.2z"/>
		</g>
	</g>
	<g>
		<g>
			<path class="st5" d="M290,254.2c-1.5,1.1-2.6,2.5-3.8,3.9c-0.5,0.6,0.5,1.3,1,0.7c1.1-1.3,2.2-2.6,3.6-3.6
				C291.5,254.7,290.7,253.8,290,254.2L290,254.2z"/>
		</g>
	</g>
	<g>
		<g>
			<path class="st5" d="M276.7,252.9c-0.1,1.6-0.3,3.3-0.1,4.9c0.1,0.8,1.4,0.6,1.2-0.2c-0.3-1.5,0-3,0.1-4.6
				C278.1,252.2,276.8,252.1,276.7,252.9L276.7,252.9z"/>
		</g>
	</g>
	<g>
		<g>
			<path class="st5" d="M273.4,268.8c0.6,1.7,1.8,3.1,3.3,4.2c0.7,0.5,1.4-0.5,0.7-1c-1.3-1-2.3-2.2-2.8-3.7
				C274.3,267.5,273.2,268.1,273.4,268.8L273.4,268.8z"/>
		</g>
	</g>
	<g>
		<g>
			<path class="st5" d="M288.1,270.3c0.8,0.7,1.9,1,2.9,1c0.8,0,0.9-1.3,0.1-1.3c-0.9,0-1.6-0.2-2.3-0.8
				C288.2,268.8,287.5,269.8,288.1,270.3L288.1,270.3z"/>
		</g>
	</g>
	<g>
		<g>
			<path class="st5" d="M298.6,265.9c0.8,0.1,0.9-1.2,0.1-1.3C297.9,264.5,297.8,265.8,298.6,265.9L298.6,265.9z"/>
		</g>
	</g>
	<g>
		<g>
			<path class="st5" d="M285.3,281.3c-1.1,0.8-2,1.8-2.5,3.1c-0.3,0.8,0.9,1.2,1.2,0.4c0.4-1.1,1.2-1.9,2.1-2.6
				C286.8,281.7,286,280.8,285.3,281.3L285.3,281.3z"/>
		</g>
	</g>
	<g>
		<g>
			<path class="st5" d="M273.2,280.6c-1.2,0.9-1.9,2.2-2.5,3.5c-0.3,0.7,0.8,1.2,1.2,0.4c0.5-1.1,1.1-2.2,2.1-2.9
				C274.7,281,273.9,280.1,273.2,280.6L273.2,280.6z"/>
		</g>
	</g>
	<g>
		<g>
			<path class="st5" d="M263.1,274.1c0,1.7,0.9,3,1.8,4.3c0.5,0.7,1.4-0.2,1-0.8c-0.7-1-1.5-2.1-1.6-3.4
				C264.3,273.4,263.1,273.2,263.1,274.1L263.1,274.1z"/>
		</g>
	</g>
	<g>
		<g>
			<path class="st5" d="M264,290.9c1.2,0.7,2.7,1,3.9,1.7c0.7,0.4,1.4-0.6,0.7-1c-1.3-0.7-2.7-1-3.9-1.7
				C264,289.5,263.3,290.5,264,290.9L264,290.9z"/>
		</g>
	</g>
	<g>
		<g>
			<path class="st5" d="M276.8,295.9c0,0.6-0.1,1.1-0.1,1.7c-0.1,0.8,1.2,0.9,1.3,0.1c0-0.6,0.1-1.1,0.1-1.7
				C278.1,295.2,276.9,295.1,276.8,295.9L276.8,295.9z"/>
		</g>
	</g>
	<g>
		<g>
			<path class="st5" d="M284.5,293.3c0.2,0.9,0.7,1.7,1.3,2.4c0.5,0.6,1.5-0.2,1-0.8c-0.5-0.5-0.8-1.1-1-1.8
				C285.5,292.3,284.3,292.5,284.5,293.3L284.5,293.3z"/>
		</g>
	</g>
	<g>
		<g>
			<path class="st5" d="M274.6,306.3c0,0.8-0.1,1.8-0.5,2.5c-0.4,0.7,0.6,1.4,1,0.7c0.6-1,0.8-2.3,0.7-3.5
				C275.8,305.3,274.5,305.5,274.6,306.3L274.6,306.3z"/>
		</g>
	</g>
	<g>
		<g>
			<path class="st5" d="M264.6,303.8c0.1,1.1,0.4,2.2,0.8,3.3c0.3,0.8,1.5,0.2,1.1-0.5c-0.4-0.9-0.6-1.9-0.7-3
				C265.8,302.8,264.6,303,264.6,303.8L264.6,303.8z"/>
		</g>
	</g>
	<g>
		<g>
			<path class="st5" d="M257.7,305.6c-0.4,1.3-0.2,2.7,1,3.5c0.7,0.5,1.4-0.6,0.7-1c-0.7-0.5-0.8-1.2-0.6-2
				C259.1,305.3,258,304.8,257.7,305.6L257.7,305.6z"/>
		</g>
	</g>
	<g>
		<g>
			<path class="st5" d="M268.8,319.5c0.3,0.5,0.6,1.1,1,1.6c0.5,0.7,1.4-0.2,1-0.8c-0.3-0.4-0.6-0.8-0.8-1.3
				C269.5,318.3,268.4,318.8,268.8,319.5L268.8,319.5z"/>
		</g>
	</g>
	<g>
		<g>
			<path class="st5" d="M280.6,306.7c0,0.2,0,0.4-0.1,0.7c-0.1,0.8,1.2,0.9,1.3,0.1c0-0.2,0-0.4,0.1-0.7
				C281.9,306,280.7,305.9,280.6,306.7L280.6,306.7z"/>
		</g>
	</g>
	<g>
		<g>
			<path class="st5" d="M279.6,322.7c0.2,1.3,0.5,2.5,1.1,3.6c0.4,0.7,1.6,0.2,1.1-0.5c-0.6-1-0.8-2.2-1-3.3
				C280.7,321.6,279.5,321.9,279.6,322.7L279.6,322.7z"/>
		</g>
	</g>
	<g>
		<g>
			<path class="st5" d="M268.6,328.4c-0.1,1.2-0.2,2.5-0.3,3.7c-0.1,0.8,1.2,0.9,1.3,0.1c0.1-1.2,0.2-2.5,0.3-3.7
				C269.9,327.6,268.7,327.5,268.6,328.4L268.6,328.4z"/>
		</g>
	</g>
	<g>
		<g>
			<path class="st5" d="M260.3,321.1c-0.6,0.4-0.9,1-1,1.7c-0.1,0.8,1.2,0.9,1.3,0.1c0-0.4,0.3-0.6,0.6-0.9
				C261.7,321.6,260.9,320.6,260.3,321.1L260.3,321.1z"/>
		</g>
	</g>
	<g>
		<g>
			<path class="st5" d="M279.6,336.3c0.9-0.2,1.7-0.3,2.5-0.1c0.8,0.2,0.9-1.1,0.1-1.3c-1-0.2-1.9-0.2-2.9,0.1
				C278.6,335.3,278.8,336.6,279.6,336.3L279.6,336.3z"/>
		</g>
	</g>
	<g>
		<g>
			<path class="st5" d="M277.5,344c0.5,1.2,1.3,2.1,2.5,2.5c0.8,0.3,1.2-0.9,0.4-1.2c-0.9-0.3-1.5-1-1.8-1.9
				C278.4,342.7,277.2,343.2,277.5,344L277.5,344z"/>
		</g>
	</g>
	<g>
		<g>
			<path class="st5" d="M288.1,333.4c0.8,0,1.5,0.1,2.2,0.5c0.3,0.2,0.7-0.1,0.8-0.4c0.1-0.4-0.1-0.7-0.4-0.8
				c-0.8-0.4-1.6-0.6-2.5-0.6C287.4,332.1,287.3,333.4,288.1,333.4L288.1,333.4z"/>
		</g>
	</g>
	<g>
		<g>
			<path class="st5" d="M294.9,324.8c0.9,0,1.7,0.2,2.5,0.5c0.7,0.3,1.2-0.8,0.4-1.2c-0.9-0.4-1.8-0.6-2.8-0.6
				C294.2,323.6,294.1,324.8,294.9,324.8L294.9,324.8z"/>
		</g>
	</g>
	<g>
		<g>
			<path class="st5" d="M311.1,323c0.1,0.9,0.4,1.7,1,2.4c0.5,0.6,1.5-0.2,1-0.8c-0.4-0.5-0.6-1.1-0.7-1.8
				C312.2,322,311,322.2,311.1,323L311.1,323z"/>
		</g>
	</g>
	<g>
		<g>
			<path class="st5" d="M306.1,331.7c0.6,0.9,1.4,1.7,2.3,2.3c0.7,0.5,1.4-0.6,0.7-1c-0.8-0.6-1.5-1.3-2.1-2.1
				C306.6,330.2,305.7,331,306.1,331.7L306.1,331.7z"/>
		</g>
	</g>
	<g>
		<g>
			<path class="st5" d="M299.1,337.8c0.4,0.5,0.6,1.1,0.7,1.8c0.1,0.8,1.4,0.6,1.2-0.2c-0.1-0.9-0.5-1.7-1-2.4
				C299.6,336.4,298.7,337.2,299.1,337.8L299.1,337.8z"/>
		</g>
	</g>
	<g>
		<g>
			<path class="st5" d="M290.9,344.6c0.2,1.1,0.6,2.2,1.1,3.3c0.4,0.7,1.5,0.2,1.1-0.5c-0.5-1-0.8-1.9-1-3
				C292,343.6,290.8,343.8,290.9,344.6L290.9,344.6z"/>
		</g>
	</g>
	<g>
		<g>
			<path class="st5" d="M288.6,355.7c0.6,0.1,1.1,0.5,1.5,1c0.5,0.6,1.5-0.2,1-0.8c-0.6-0.8-1.4-1.2-2.4-1.4
				c-0.3-0.1-0.7,0.3-0.7,0.6C288,355.4,288.2,355.7,288.6,355.7L288.6,355.7z"/>
		</g>
	</g>
	<g>
		<g>
			<path class="st5" d="M292,365.1c1.7-0.2,3.5,0,5.2,0.1c0.8,0.1,0.9-1.2,0.1-1.3c-1.9-0.2-3.7-0.4-5.6-0.1
				C291,364,291.2,365.3,292,365.1L292,365.1z"/>
		</g>
	</g>
	<g>
		<g>
			<path class="st5" d="M299.8,355c1.2,0.1,2.5,0.2,3.7,0.3c0.8,0.1,0.9-1.2,0.1-1.3c-1.2-0.1-2.5-0.2-3.7-0.3
				C299.1,353.7,299,354.9,299.8,355L299.8,355z"/>
		</g>
	</g>
	<g>
		<g>
			<path class="st5" d="M307.8,344.4c0.5-0.2,0.9,0,1.2,0.3c0.6,0.6,1.5-0.2,1-0.8c-0.8-0.8-1.7-1.1-2.7-0.7
				C306.5,343.6,307.1,344.7,307.8,344.4L307.8,344.4z"/>
		</g>
	</g>
	<g>
		<g>
			<path class="st5" d="M314.8,342.3c0.1,0.5,0.2,0.9,0.2,1.4c0,0.3,0.4,0.6,0.7,0.5c0.4-0.1,0.5-0.4,0.5-0.7c0-0.5-0.1-0.9-0.2-1.4
				C315.9,341.3,314.6,341.5,314.8,342.3L314.8,342.3z"/>
		</g>
	</g>
	<g>
		<g>
			<path class="st5" d="M313.5,354.2c-0.1,1-0.2,2-0.3,3c-0.1,0.8,1.2,0.9,1.3,0.1c0.1-1,0.2-2,0.3-3
				C314.8,353.5,313.5,353.4,313.5,354.2L313.5,354.2z"/>
		</g>
	</g>
	<g>
		<g>
			<path class="st5" d="M308.3,365.2c0.6,0.2,1,0.6,1.2,1.2c0.3,0.7,1.5,0.2,1.1-0.5c-0.4-0.8-1.1-1.5-1.9-1.8
				C307.9,363.7,307.5,364.9,308.3,365.2L308.3,365.2z"/>
		</g>
	</g>
	<g>
		<g>
			<path class="st5" d="M281,354.6c0.1,0.6,0.3,1.2,0.7,1.7c0.5,0.6,1.5-0.2,1-0.8c-0.3-0.3-0.4-0.7-0.4-1.1
				C282.1,353.6,280.8,353.8,281,354.6L281,354.6z"/>
		</g>
	</g>
	<g>
		<g>
			<path class="st5" d="M350.6,330.8c0.8,0.6,1.6,0.9,2.6,1c0.8,0,0.9-1.2,0.1-1.3c-0.8,0-1.4-0.3-2-0.8
				C350.7,329.3,350,330.3,350.6,330.8L350.6,330.8z"/>
		</g>
	</g>
	<g>
		<g>
			<path class="st5" d="M357.2,321.9c0.2,1.1,0.8,2,1.8,2.6c0.7,0.4,1.4-0.6,0.7-1c-0.7-0.4-1.1-1-1.2-1.8
				C358.3,320.8,357.1,321,357.2,321.9L357.2,321.9z"/>
		</g>
	</g>
	<g>
		<g>
			<path class="st5" d="M364.9,330.6c-0.4,1.4-0.2,2.7,0.9,3.7c0.6,0.6,1.6-0.3,1-0.8c-0.7-0.7-0.9-1.5-0.6-2.5
				C366.3,330.3,365.1,329.8,364.9,330.6L364.9,330.6z"/>
		</g>
	</g>
	<g>
		<g>
			<path class="st5" d="M359.4,339.3c-0.4,1.1-0.2,2.1,0.7,2.8c0.7,0.5,1.4-0.6,0.7-1c-0.5-0.3-0.4-0.8-0.3-1.3
				C360.9,339,359.7,338.5,359.4,339.3L359.4,339.3z"/>
		</g>
	</g>
	<g>
		<g>
			<path class="st5" d="M350.4,342.3c-0.2,0.7,0,1.3,0.7,1.5c0.8,0.3,1.2-0.9,0.4-1.2c0,0.2,0.1,0.3,0.1,0.1
				C351.8,341.9,350.6,341.5,350.4,342.3L350.4,342.3z"/>
		</g>
	</g>
	<g>
		<g>
			<path class="st5" d="M355.6,351.5c0.4,0.4,0.9,0.7,1.4,0.9c0.8,0.3,1.2-0.9,0.4-1.2c-0.4-0.2-0.8-0.4-1.1-0.7
				C355.8,350,355,351,355.6,351.5L355.6,351.5z"/>
		</g>
	</g>
	<g>
		<g>
			<path class="st5" d="M366.8,351.6c1.1,0.2,2.2,0.4,3.3,0.6c0.8,0.1,0.9-1.1,0.1-1.3c-1.1-0.2-2.2-0.4-3.3-0.6
				C366.1,350.2,366,351.4,366.8,351.6L366.8,351.6z"/>
		</g>
	</g>
	<g>
		<g>
			<path class="st5" d="M371.9,342.3c0.4,0.5,0.9,0.9,1.4,1.2c0.7,0.5,1.4-0.6,0.7-1c-0.4-0.3-0.8-0.6-1.1-1
				C372.3,340.9,371.3,341.7,371.9,342.3L371.9,342.3z"/>
		</g>
	</g>
	<g>
		<g>
			<path class="st5" d="M377.3,333.1c0.4,0,0.8-0.1,1.1,0.3c0.5,0.6,1.5-0.2,1-0.8c-0.5-0.7-1.4-0.8-2.2-0.7
				C376.3,332,376.5,333.3,377.3,333.1L377.3,333.1z"/>
		</g>
	</g>
	<g>
		<g>
			<path class="st5" d="M389.3,342.2c-0.6,1.4,0,2.7,0.7,3.9c0.4,0.7,1.6,0.2,1.1-0.5c-0.5-0.9-1.1-1.9-0.7-3
				C390.8,341.9,389.6,341.4,389.3,342.2L389.3,342.2z"/>
		</g>
	</g>
	<g>
		<g>
			<path class="st5" d="M382.9,353.9c0.6,0.4,0.9,1,0.9,1.7c0,0.3,0.4,0.6,0.7,0.5c0.4-0.1,0.5-0.4,0.5-0.7c-0.1-1-0.6-1.9-1.4-2.5
				C382.9,352.3,382.2,353.4,382.9,353.9L382.9,353.9z"/>
		</g>
	</g>
	<g>
		<g>
			<path class="st5" d="M375.4,358.9c0.2,0.8,0.5,1.5,0.9,2.3c0.4,0.7,1.5,0.2,1.1-0.5c-0.3-0.6-0.6-1.3-0.8-1.9
				C376.4,357.9,375.1,358.2,375.4,358.9L375.4,358.9z"/>
		</g>
	</g>
	<g>
		<g>
			<path class="st5" d="M364.3,360.9c-0.2,1-0.2,1.9,0.1,2.9c0.2,0.8,1.5,0.6,1.2-0.2c-0.2-0.9-0.3-1.7-0.1-2.5
				C365.8,360.2,364.5,360.1,364.3,360.9L364.3,360.9z"/>
		</g>
	</g>
	<g>
		<g>
			<path class="st5" d="M354.4,362.2c-0.4,0.7-0.5,1.4-0.5,2.2c0,0.8,1.2,0.9,1.3,0.1c0-0.7,0.2-1.2,0.5-1.8
				c0.2-0.3-0.1-0.7-0.4-0.8C354.9,361.7,354.6,361.9,354.4,362.2L354.4,362.2z"/>
		</g>
	</g>
	<g>
		<g>
			<path class="st5" d="M348.9,374.8c-0.1,1.1,0.1,2.1,0.5,3.1c0.3,0.7,1.5,0.2,1.1-0.5c-0.4-0.8-0.5-1.6-0.4-2.4
				C350.3,374.1,349,374,348.9,374.8L348.9,374.8z"/>
		</g>
	</g>
	<g>
		<g>
			<path class="st5" d="M358,372c0.2,1,0.7,1.9,1.4,2.5c0.6,0.5,1.3-0.5,0.7-1c-0.5-0.5-0.8-1.1-0.9-1.7
				C359.1,371,357.9,371.2,358,372L358,372z"/>
		</g>
	</g>
	<g>
		<g>
			<path class="st5" d="M350.4,385c1,0,1.8,0.3,2.7,0.8c0.7,0.5,1.4-0.6,0.7-1c-1-0.7-2.1-1-3.3-1C349.7,383.8,349.6,385,350.4,385
				L350.4,385z"/>
		</g>
	</g>
	<g>
		<g>
			<path class="st5" d="M362.2,385c0.8,0.1,1.6,0.1,2.4,0.2c0.8,0.1,0.9-1.2,0.1-1.3c-0.8-0.1-1.6-0.1-2.4-0.2
				C361.5,383.7,361.4,385,362.2,385L362.2,385z"/>
		</g>
	</g>
	<g>
		<g>
			<path class="st5" d="M310.3,374.9c1,0.2,1.9,0.5,2.8,0.9c0.7,0.3,1.2-0.9,0.4-1.2c-1-0.5-2-0.8-3.1-1
				C309.6,373.4,309.5,374.7,310.3,374.9L310.3,374.9z"/>
		</g>
	</g>
	<g>
		<g>
			<path class="st5" d="M371,373.3c0.9,0.2,1.6,0.6,2.1,1.4c0.5,0.7,1.4-0.1,1-0.8c-0.7-1-1.8-1.6-3-1.8
				C370.3,371.9,370.2,373.1,371,373.3L371,373.3z"/>
		</g>
	</g>
	<g>
		<g>
			<path class="st5" d="M379.9,369.2c1.1,0.8,2.1,1.5,3.4,2c0.8,0.3,1.2-0.9,0.4-1.2c-1.1-0.5-2.1-1.2-3.1-1.9
				C379.9,367.7,379.2,368.7,379.9,369.2L379.9,369.2z"/>
		</g>
	</g>
	<g>
		<g>
			<path class="st5" d="M379.9,380.4c0.8,0.1,1.6,0.4,2.2,1c0.6,0.6,1.5-0.2,1-0.8c-0.8-0.9-1.9-1.4-3-1.5
				C379.2,379.1,379.1,380.4,379.9,380.4L379.9,380.4z"/>
		</g>
	</g>
	<g>
		<g>
			<path class="st5" d="M391.4,365.2c-0.1,1,0.1,1.9,0.5,2.7c0.4,0.7,1.5,0.2,1.1-0.5c-0.3-0.7-0.5-1.4-0.4-2.1
				C392.7,364.5,391.4,364.4,391.4,365.2L391.4,365.2z"/>
		</g>
	</g>
	<g>
		<g>
			<path class="st5" d="M401.5,355.7c0.5,0.6,1,1.3,1.5,1.8c0.6,0.6,1.5-0.2,1-0.8c-0.6-0.6-1.1-1.2-1.5-1.8
				C402,354.2,401.1,355,401.5,355.7L401.5,355.7z"/>
		</g>
	</g>
	<g>
		<g>
			<path class="st5" d="M397.6,347c1.3-0.6,2.7-0.5,4.1-0.2c0.8,0.2,0.9-1.1,0.1-1.3c-1.6-0.3-3.2-0.4-4.7,0.4
				C396.3,346.2,396.9,347.3,397.6,347L397.6,347z"/>
		</g>
	</g>
	<g>
		<g>
			<path class="st5" d="M382.3,343.8c0.1-0.5,0.5-0.9,1-1c0.8-0.2,0.6-1.5-0.2-1.2c-1.1,0.3-1.8,1-2,2.1
				C380.9,344.5,382.2,344.6,382.3,343.8L382.3,343.8z"/>
		</g>
	</g>
	<g>
		<g>
			<path class="st5" d="M388.6,334.5c1,0,1.9,0.2,2.7,0.8c0.7,0.5,1.4-0.5,0.7-1c-1-0.7-2.1-1.1-3.3-1
				C387.9,333.2,387.7,334.5,388.6,334.5L388.6,334.5z"/>
		</g>
	</g>
	<g>
		<g>
			<path class="st5" d="M402.5,335.7c0.9,1.4,1.9,2.7,3.3,3.6c0.7,0.4,1.4-0.6,0.7-1c-1.3-0.7-2.1-1.9-2.9-3.1
				C403.2,334.5,402,335,402.5,335.7L402.5,335.7z"/>
		</g>
	</g>
	<g>
		<g>
			<path class="st5" d="M417.6,340.2c-0.4,1.5-0.2,2.9,0.8,4.1c0.5,0.6,1.5-0.2,1-0.8c-0.7-0.8-0.9-1.8-0.6-2.8
				C419,339.9,417.8,339.4,417.6,340.2L417.6,340.2z"/>
		</g>
	</g>
	<g>
		<g>
			<path class="st5" d="M411.4,349.5c-0.6,1.4,0.2,2.7,1.3,3.5c0.7,0.5,1.4-0.6,0.7-1c-0.7-0.5-1.2-1.2-0.9-2.1
				C412.9,349.2,411.7,348.7,411.4,349.5L411.4,349.5z"/>
		</g>
	</g>
	<g>
		<g>
			<path class="st5" d="M426.9,335.3c1.1-0.3,2-0.2,3,0.3c0.7,0.3,1.2-0.8,0.4-1.2c-1.2-0.5-2.4-0.7-3.7-0.3
				C425.9,334.3,426.1,335.6,426.9,335.3L426.9,335.3z"/>
		</g>
	</g>
	<g>
		<g>
			<path class="st5" d="M406,365.8c0.5,1.2,1.1,2.4,1.3,3.7c0.2,0.8,1.4,0.6,1.2-0.2c-0.3-1.4-0.8-2.7-1.4-4
				C406.8,364.5,405.7,365,406,365.8L406,365.8z"/>
		</g>
	</g>
	<g>
		<g>
			<path class="st5" d="M392.6,356.2c0.4,1,1.2,1.8,2.2,2.2c0.8,0.3,1.2-0.9,0.4-1.2c-0.7-0.3-1.2-0.8-1.5-1.5
				C393.4,354.9,392.3,355.4,392.6,356.2L392.6,356.2z"/>
		</g>
	</g>
	<g>
		<g>
			<path class="st5" d="M395.7,374.8c0.8-0.7,1.8-0.5,2.6,0c0.7,0.4,1.4-0.7,0.7-1c-1.3-0.7-2.9-1-4.2,0.1
				C394.3,374.4,395.1,375.4,395.7,374.8L395.7,374.8z"/>
		</g>
	</g>
	<g>
		<g>
			<path class="st5" d="M392.6,382.5c1.2,0.2,2.4,0.2,3.6-0.1c0.8-0.2,0.6-1.4-0.2-1.2c-1.1,0.2-2.1,0.2-3.2,0
				C391.9,381.1,391.8,382.4,392.6,382.5L392.6,382.5z"/>
		</g>
	</g>
	<g>
		<g>
			<path class="st5" d="M405.9,377.2c0.6,0.1,1.2,0.4,1.6,0.7c0.7,0.5,1.4-0.5,0.7-1c-0.7-0.5-1.4-0.8-2.3-1
				C405.2,375.8,405.1,377.1,405.9,377.2L405.9,377.2z"/>
		</g>
	</g>
	<g>
		<g>
			<path class="st5" d="M417.3,368.4c0.5,1,1.3,1.7,2.4,1.9c0.8,0.2,0.9-1.1,0.1-1.3c-0.6-0.1-1.1-0.6-1.4-1.2
				C418.1,367.1,416.9,367.7,417.3,368.4L417.3,368.4z"/>
		</g>
	</g>
	<g>
		<g>
			<path class="st5" d="M429,353.5c-0.7,1.1-0.9,2.5,0.1,3.5c0.6,0.6,1.6-0.3,1-0.8c-0.6-0.6-0.5-1.3-0.1-1.9
				C430.5,353.6,429.5,352.9,429,353.5L429,353.5z"/>
		</g>
	</g>
	<g>
		<g>
			<path class="st5" d="M420,357.7c-0.9,0.7-1.5,1.7-1.8,2.8c-0.2,0.8,1,1.2,1.2,0.4c0.2-0.9,0.7-1.7,1.4-2.3
				C421.4,358.2,420.6,357.2,420,357.7L420,357.7z"/>
		</g>
	</g>
	<g>
		<g>
			<path class="st5" d="M432.2,346.2c0.7-0.4,1.3-0.5,2.1-0.4c0.8,0.1,0.9-1.2,0.1-1.3c-1-0.1-1.9,0.1-2.7,0.5
				C431,345.5,431.5,346.6,432.2,346.2L432.2,346.2z"/>
		</g>
	</g>
	<g>
		<g>
			<path class="st5" d="M441.5,334.9c1.7-0.4,3.2,0.4,4.9,0.4c0.8,0,0.9-1.2,0.1-1.3c-1.8,0-3.4-0.8-5.2-0.4
				C440.5,333.8,440.7,335.1,441.5,334.9L441.5,334.9z"/>
		</g>
	</g>
	<g>
		<g>
			<path class="st5" d="M447.6,325.2c1.1-0.6,2.4-0.9,3.7-1c0.8-0.1,0.6-1.3-0.2-1.2c-1.4,0.1-2.7,0.4-4,1.1
				C446.3,324.4,446.8,325.6,447.6,325.2L447.6,325.2z"/>
		</g>
	</g>
	<g>
		<g>
			<path class="st5" d="M456.2,327.6c0.3,1.5,0.8,3,1.3,4.5c0.2,0.8,1.5,0.5,1.2-0.2c-0.5-1.5-1-3-1.3-4.5
				C457.3,326.6,456.1,326.8,456.2,327.6L456.2,327.6z"/>
		</g>
	</g>
	<g>
		<g>
			<path class="st5" d="M453,341.5c-0.4,0.9-0.6,1.8-0.6,2.8c0,0.8,1.3,0.9,1.3,0.1c0-0.9,0.1-1.7,0.5-2.5
				C454.6,341.2,453.4,340.8,453,341.5L453,341.5z"/>
		</g>
	</g>
	<g>
		<g>
			<path class="st5" d="M443.9,347.2c-1,0.7-1.7,1.6-2.1,2.8c-0.2,0.8,0.9,1.2,1.2,0.4c0.3-1,0.9-1.7,1.7-2.3
				C445.4,347.7,444.6,346.8,443.9,347.2L443.9,347.2z"/>
		</g>
	</g>
	<g>
		<g>
			<path class="st5" d="M440.7,358.5c0.9,0.1,1.8,0.2,2.7,0.2c0.8,0.1,0.9-1.2,0.1-1.3c-0.9-0.1-1.8-0.2-2.7-0.2
				C440,357.2,439.9,358.5,440.7,358.5L440.7,358.5z"/>
		</g>
	</g>
	<g>
		<g>
			<path class="st5" d="M429.4,367.3c0.5,0.4,1,0.9,1.4,1.4c0.5,0.6,1.5-0.2,1-0.8c-0.5-0.6-1.1-1.1-1.7-1.6
				C429.5,365.8,428.8,366.8,429.4,367.3L429.4,367.3z"/>
		</g>
	</g>
</g>
</svg>
