<?xml version="1.0" encoding="utf-8"?>
<!-- Generator: Adobe Illustrator 25.4.1, SVG Export Plug-In . SVG Version: 6.00 Build 0)  -->
<svg version="1.1" id="Capa_1" xmlns="http://www.w3.org/2000/svg" xmlns:xlink="http://www.w3.org/1999/xlink" x="0px" y="0px"
	 viewBox="0 0 1920 1080" style="enable-background:new 0 0 1920 1080;" xml:space="preserve">
<style type="text/css">
	.st0{fill-rule:evenodd;clip-rule:evenodd;fill:#D6A8CA;}
	.st1{fill:#D6A8CA;}
	.st2{fill:#A4D0C6;}
	.st3{fill:#D7E36A;}
	.st4{fill:#211F1F;stroke:#FFFFFF;stroke-miterlimit:10;}
	.st5{enable-background:new    ;}
	.st6{fill:#211F1F;}
</style>
<path class="st0" d="M1923,0H-1.3v884.9h2v72c0,0,442-141,1464,0c0,0,336,31,456,17v-89h2.2V0H1923z"/>
<path class="st1" d="M1815.5,154.5c0,9.2-6.6,13.7-11.9,17.4c-5.2,3.6-8.1,5.8-8.1,10.1c0,4.4,2.9,6.6,8.1,10.1
	c5.3,3.6,11.9,8.2,11.9,17.4s-6.6,13.7-11.9,17.4c-5.2,3.6-8.1,5.8-8.1,10.1c0,2.4-2,4.4-4.4,4.4s-4.4-2-4.4-4.4
	c0-9.2,6.6-13.7,11.9-17.4c5.2-3.6,8.1-5.8,8.1-10.1s-2.9-6.6-8.1-10.1c-5.3-3.6-11.9-8.2-11.9-17.4s6.6-13.7,11.9-17.4
	c5.2-3.6,8.1-5.8,8.1-10.1c0-4.4-2.9-6.6-8.1-10.1c-5.3-3.6-11.9-8.2-11.9-17.4c0-2.4,2-4.4,4.4-4.4s4.4,2,4.4,4.4
	c0,4.4,2.9,6.6,8.1,10.1C1808.9,140.8,1815.5,145.3,1815.5,154.5"/>
<path class="st2" d="M-2.8,801.4c68.8,0,124.5-55.7,124.5-124.5S66,552.4-2.8,552.4C-2.8,552.4-2.8,801.4-2.8,801.4z"/>
<path class="st1" d="M870.2,248c-17.8,0-32.3-14.5-32.3-32.3s14.5-32.3,32.3-32.3s32.3,14.5,32.3,32.3S888,248,870.2,248z
	 M870.2,195.6c-11.1,0-20.1,9-20.1,20.1s9,20.1,20.1,20.1s20.1-9,20.1-20.1C890.4,204.6,881.3,195.6,870.2,195.6z"/>
<path class="st3" d="M455.6,89.8C559.2,106.7,629.4,204.4,612.5,308c-8.2,50.3-80.4,25.5-118.1,53.9c-40,30.1-46.8,111.7-100.1,103
	C290.7,448,220.5,350.3,237.4,246.7c8-49,66.3-40.7,102.5-69.1C380.3,146,401,80.8,455.6,89.8z"/>
<path class="st4" d="M1538.8,807.3c13.8,0,20.7,9.9,26.2,17.9c5.4,7.8,8.7,12.2,15.3,12.2c6.6,0,9.9-4.4,15.3-12.2
	c5.5-8,12.3-17.9,26.2-17.9c13.8,0,20.7,9.9,26.1,17.9c5.4,7.8,8.7,12.2,15.3,12.2c3.6,0,6.6,3,6.6,6.6s-3,6.6-6.6,6.6
	c-13.8,0-20.7-10-26.2-17.9c-5.4-7.8-8.7-12.2-15.3-12.2c-6.6,0-9.9,4.4-15.3,12.2c-5.5,8-12.3,17.9-26.1,17.9
	c-13.8,0-20.7-9.9-26.2-17.9c-5.4-7.8-8.7-12.2-15.3-12.2c-6.6,0-9.9,4.4-15.3,12.2c-5.5,8-12.3,17.9-26.2,17.9
	c-3.6,0-6.6-3-6.6-6.6s3-6.6,6.6-6.6c6.6,0,9.9-4.4,15.3-12.2C1518.1,817.2,1525,807.3,1538.8,807.3"/>
<g>
	<g class="st5">
		<path class="st6" d="M252.8,251.7h20.9v93.8h-20.9V251.7z"/>
		<path class="st6" d="M322.3,346.5c-8.5,0-16.2-3.6-22.9-10.9c-6.7-7.2-10.1-16.2-10.1-27c0-10.7,3.3-19.5,9.8-26.4
			c6.5-6.8,14.2-10.3,22.9-10.3c8.8,0,15.9,3.1,21.5,9.3v-35.4h20.1v99.5h-20.1v-9.5C337.9,343,330.8,346.5,322.3,346.5z
			 M309.6,309.5c0,5.8,1.7,10.6,5.2,14.3c3.5,3.7,7.6,5.6,12.2,5.6c4.6,0,8.6-1.9,11.9-5.6c3.3-3.7,4.9-8.5,4.9-14.4
			c0-5.9-1.6-10.7-4.9-14.6c-3.3-3.9-7.3-5.8-12-5.8c-4.7,0-8.8,2-12.2,5.9C311.3,298.8,309.6,303.7,309.6,309.5z"/>
		<path class="st6" d="M445.2,335c-8.1,7.7-17.7,11.5-28.6,11.5c-11,0-20-3.4-27.2-10.1c-7.2-6.8-10.7-15.8-10.7-27.2
			c0-11.4,3.6-20.4,10.9-27.1c7.3-6.7,15.9-10.1,25.8-10.1c9.9,0,18.4,3,25.3,9c6.9,6,10.4,14.2,10.4,24.7v10.7h-52.6
			c0.6,3.9,2.7,7.2,6.2,9.7c3.5,2.5,7.4,3.8,11.8,3.8c7.1,0,12.9-2.4,17.4-7.1L445.2,335z M425.9,292.2c-2.8-2.3-6.1-3.5-10.1-3.5
			c-4,0-7.6,1.2-10.9,3.6c-3.3,2.4-5.2,5.7-5.8,9.8h31.7C430.3,297.8,428.7,294.5,425.9,292.2z"/>
		<path class="st6" d="M485.7,305.2v40.2h-20.1v-72.2h20.1v8c6.1-6.2,12.9-9.3,20.5-9.3c7.6,0,14,2.7,19.1,8
			c5.1,5.4,7.7,12.5,7.7,21.5v43.9H513v-40.8c0-11.1-4.1-16.6-12.2-16.6c-4,0-7.5,1.5-10.5,4.4C487.2,295.3,485.7,299.5,485.7,305.2
			z"/>
		<path class="st6" d="M574.2,287.7v32.3c0,2.8,0.7,4.9,2.1,6.5c1.4,1.6,3.1,2.3,5.1,2.3c3.8,0,6.9-1.7,9.5-5.1l7.5,14.1
			c-6.3,5.7-12.9,8.6-19.8,8.6c-6.9,0-12.8-2.3-17.6-6.8c-4.8-4.6-7.2-10.8-7.2-18.6v-33.3h-8.4v-14.5h8.4v-21.6h20.3v21.6h17.4
			v14.5H574.2z"/>
		<path class="st6" d="M610.9,264.1c-2.3-2.3-3.4-5.1-3.4-8.4c0-3.3,1.1-6.1,3.4-8.4c2.3-2.3,5.1-3.4,8.4-3.4c3.3,0,6.1,1.1,8.4,3.4
			c2.3,2.3,3.4,5.1,3.4,8.4c0,3.3-1.1,6.1-3.4,8.4c-2.3,2.3-5.1,3.4-8.4,3.4C616,267.5,613.2,266.4,610.9,264.1z M629.4,345.4h-20.1
			v-72.2h20.1V345.4z"/>
		<path class="st6" d="M677.3,346.5c-8.5,0-16.2-3.6-22.9-10.9c-6.7-7.2-10.1-16.2-10.1-27c0-10.7,3.3-19.5,9.8-26.4
			c6.5-6.8,14.2-10.3,22.9-10.3c8.8,0,15.9,3.1,21.5,9.3v-35.4h20.1v99.5h-20.1v-9.5C692.9,343,685.9,346.5,677.3,346.5z
			 M664.6,309.5c0,5.8,1.7,10.6,5.2,14.3c3.5,3.7,7.6,5.6,12.2,5.6c4.6,0,8.6-1.9,11.9-5.6c3.3-3.7,4.9-8.5,4.9-14.4
			c0-5.9-1.6-10.7-4.9-14.6c-3.3-3.9-7.3-5.8-12-5.8c-4.7,0-8.8,2-12.2,5.9C666.3,298.8,664.6,303.7,664.6,309.5z"/>
		<path class="st6" d="M799,345.4h-18.9v-8.7c-5.2,6.5-11.6,9.8-19.2,9.8s-14.1-2.2-19.2-6.6c-5.2-4.4-7.8-10.3-7.8-17.7
			s2.7-12.9,8-16.6c5.4-3.7,12.7-5.5,22-5.5h15v-0.4c0-7.7-4.1-11.5-12.2-11.5c-3.5,0-7.2,0.7-11.1,2.1c-3.9,1.4-7.2,3.1-9.9,5.2
			l-9-13c9.5-6.9,20.3-10.3,32.5-10.3c8.8,0,15.9,2.2,21.5,6.6c5.5,4.4,8.3,11.3,8.3,20.8V345.4z M778.8,317.9v-3.5h-12.6
			c-8,0-12.1,2.5-12.1,7.5c0,2.6,1,4.6,2.9,6c1.9,1.4,4.7,2.1,8.2,2.1c3.6,0,6.7-1.1,9.5-3.3C777.4,324.5,778.8,321.6,778.8,317.9z"
			/>
		<path class="st6" d="M846.3,346.5c-8.5,0-16.2-3.6-22.9-10.9c-6.7-7.2-10.1-16.2-10.1-27c0-10.7,3.3-19.5,9.8-26.4
			c6.5-6.8,14.2-10.3,22.9-10.3c8.8,0,15.9,3.1,21.5,9.3v-35.4h20.1v99.5h-20.1v-9.5C861.9,343,854.8,346.5,846.3,346.5z
			 M833.6,309.5c0,5.8,1.7,10.6,5.2,14.3c3.5,3.7,7.6,5.6,12.2,5.6c4.6,0,8.6-1.9,11.9-5.6c3.3-3.7,4.9-8.5,4.9-14.4
			c0-5.9-1.6-10.7-4.9-14.6c-3.3-3.9-7.3-5.8-12-5.8c-4.7,0-8.8,2-12.2,5.9C835.3,298.8,833.6,303.7,833.6,309.5z"/>
	</g>
	<g class="st5">
		<path class="st6" d="M279.6,468.9c-8.5,0-16.2-3.6-22.9-10.9c-6.7-7.2-10.1-16.2-10.1-27c0-10.7,3.3-19.5,9.8-26.4
			c6.5-6.8,14.2-10.3,22.9-10.3c8.8,0,15.9,3.1,21.5,9.3v-35.4H321v99.5h-20.1v-9.5C295.3,465.4,288.2,468.9,279.6,468.9z
			 M267,431.9c0,5.8,1.7,10.6,5.2,14.3c3.5,3.7,7.6,5.6,12.2,5.6c4.6,0,8.6-1.9,11.9-5.6c3.3-3.7,4.9-8.5,4.9-14.4
			c0-5.9-1.6-10.7-4.9-14.6c-3.3-3.9-7.3-5.8-12-5.8c-4.7,0-8.8,2-12.2,5.9C268.7,421.2,267,426.1,267,431.9z"/>
		<path class="st6" d="M402.6,457.4c-8.1,7.7-17.7,11.5-28.6,11.5c-11,0-20-3.4-27.2-10.1C339.6,452,336,443,336,431.6
			c0-11.4,3.6-20.4,10.9-27.1c7.3-6.7,15.9-10.1,25.8-10.1c9.9,0,18.4,3,25.3,9c6.9,6,10.4,14.2,10.4,24.7v10.7h-52.6
			c0.6,3.9,2.7,7.2,6.2,9.7c3.5,2.5,7.4,3.8,11.8,3.8c7.1,0,12.9-2.4,17.4-7.1L402.6,457.4z M383.3,414.6c-2.8-2.3-6.1-3.5-10.1-3.5
			c-4,0-7.6,1.2-10.9,3.6c-3.3,2.4-5.2,5.7-5.8,9.8h31.7C387.6,420.2,386,416.9,383.3,414.6z"/>
		<path class="st6" d="M511.7,455.6c-6.4,7.1-14.2,10.6-23.7,10.6c-9.4,0-17.4-3.2-23.9-9.6c-6.5-6.4-9.7-14.9-9.7-25.6
			c0-10.7,3.3-19.4,10-26.3c6.7-6.8,14.3-10.3,22.9-10.3c8.6,0,15.7,3.5,21.3,10.6v-9.5h20.1v62.9c0,6.4-1.1,12.2-3.4,17.2
			c-2.2,5-5.2,8.9-9,11.8c-7.4,5.9-16.2,8.9-26.3,8.9c-5.4,0-10.8-0.9-16.4-2.6c-5.6-1.7-10.5-4.2-14.7-7.4l7.8-15.2
			c6.6,5,13.6,7.5,21,7.5c7.4,0,13.2-1.8,17.5-5.5C509.6,469.4,511.7,463.6,511.7,455.6z M508.9,430.2c0-5.8-1.6-10.3-4.8-13.6
			c-3.2-3.3-7.2-5-11.9-5c-4.7,0-8.8,1.7-12.3,5c-3.4,3.3-5.2,7.8-5.2,13.5c0,5.7,1.7,10.4,5,13.9c3.4,3.5,7.4,5.3,12.3,5.3
			c4.8,0,8.9-1.7,12.1-5.2C507.3,440.6,508.9,436,508.9,430.2z"/>
		<path class="st6" d="M610.3,457.4c-8.1,7.7-17.7,11.5-28.6,11.5c-11,0-20-3.4-27.2-10.1c-7.2-6.8-10.7-15.8-10.7-27.2
			c0-11.4,3.6-20.4,10.9-27.1c7.3-6.7,15.9-10.1,25.8-10.1c9.9,0,18.4,3,25.3,9c6.9,6,10.4,14.2,10.4,24.7v10.7h-52.6
			c0.6,3.9,2.7,7.2,6.2,9.7c3.5,2.5,7.4,3.8,11.8,3.8c7.1,0,12.9-2.4,17.4-7.1L610.3,457.4z M591,414.6c-2.8-2.3-6.1-3.5-10.1-3.5
			c-4,0-7.6,1.2-10.9,3.6c-3.3,2.4-5.2,5.7-5.8,9.8h31.7C595.4,420.2,593.8,416.9,591,414.6z M586.7,385.9h-19.2l17-23.7l20.8,8.7
			L586.7,385.9z"/>
		<path class="st6" d="M650.8,427.6v40.2h-20.1v-72.2h20.1v8c6.1-6.2,12.9-9.3,20.5-9.3c7.6,0,14,2.7,19.1,8
			c5.1,5.4,7.7,12.5,7.7,21.5v43.9h-20.1V427c0-11.1-4.1-16.6-12.2-16.6c-4,0-7.5,1.5-10.5,4.4C652.3,417.7,650.8,421.9,650.8,427.6
			z"/>
		<path class="st6" d="M778.9,457.4c-8.1,7.7-17.7,11.5-28.6,11.5c-11,0-20-3.4-27.2-10.1c-7.2-6.8-10.7-15.8-10.7-27.2
			c0-11.4,3.6-20.4,10.9-27.1c7.3-6.7,15.9-10.1,25.8-10.1c9.9,0,18.4,3,25.3,9c6.9,6,10.4,14.2,10.4,24.7v10.7h-52.6
			c0.6,3.9,2.7,7.2,6.2,9.7c3.5,2.5,7.4,3.8,11.8,3.8c7.1,0,12.9-2.4,17.4-7.1L778.9,457.4z M759.6,414.6c-2.8-2.3-6.1-3.5-10.1-3.5
			c-4,0-7.6,1.2-10.9,3.6c-3.3,2.4-5.2,5.7-5.8,9.8h31.7C764,420.2,762.4,416.9,759.6,414.6z"/>
		<path class="st6" d="M837.3,413.4c-6,0-10.5,2.1-13.4,6.4c-3,4.2-4.4,9.9-4.4,16.8v31.3h-20.1v-72.2h20.1v9.5
			c2.6-3,5.8-5.5,9.7-7.5c3.9-2.1,7.8-3.1,11.9-3.2l0.1,18.9H837.3z"/>
		<path class="st6" d="M925.5,431.7c0,10.5-3.6,19.3-10.9,26.4c-7.2,7.2-16.3,10.7-27.3,10.7c-11,0-20.1-3.6-27.3-10.7
			c-7.2-7.2-10.9-16-10.9-26.4s3.6-19.3,10.9-26.5c7.2-7.2,16.3-10.8,27.3-10.8c11,0,20.1,3.6,27.3,10.8
			C921.9,412.4,925.5,421.3,925.5,431.7z M869.4,431.7c0,5.9,1.7,10.7,5,14.4c3.4,3.7,7.6,5.6,12.9,5.6s9.5-1.9,12.9-5.6
			c3.4-3.7,5-8.5,5-14.4s-1.7-10.7-5-14.5s-7.6-5.6-12.9-5.6s-9.5,1.9-12.9,5.6S869.4,425.8,869.4,431.7z"/>
		<path class="st6" d="M988.3,496.3c-7.1,0-13.7-2.9-20-8.6l9.1-14.9c3.4,3.3,6.9,5,10.5,5c1.9,0,3.5-0.9,4.8-2.7
			c1.3-1.8,2-3.8,2-5.8c0-2.1-9.3-26.6-27.9-73.5h21.5l17.6,44.9l17.6-44.9h21.5l-33.5,85c-2,4.9-5,8.7-9.2,11.5
			C998,494.9,993.4,496.3,988.3,496.3z"/>
	</g>
	<g class="st5">
		<path class="st6" d="M279.6,591.2c-8.5,0-16.2-3.6-22.9-10.9c-6.7-7.2-10.1-16.2-10.1-27c0-10.7,3.3-19.5,9.8-26.4
			c6.5-6.8,14.2-10.3,22.9-10.3c8.8,0,15.9,3.1,21.5,9.3v-35.4H321v99.5h-20.1v-9.5C295.3,587.7,288.2,591.2,279.6,591.2z
			 M267,554.2c0,5.8,1.7,10.6,5.2,14.3c3.5,3.7,7.6,5.6,12.2,5.6c4.6,0,8.6-1.9,11.9-5.6c3.3-3.7,4.9-8.5,4.9-14.4
			c0-5.9-1.6-10.7-4.9-14.6c-3.3-3.9-7.3-5.8-12-5.8c-4.7,0-8.8,2-12.2,5.9C268.7,543.5,267,548.4,267,554.2z"/>
		<path class="st6" d="M341.7,508.8c-2.3-2.3-3.4-5.1-3.4-8.4c0-3.3,1.1-6.1,3.4-8.4c2.3-2.3,5.1-3.4,8.4-3.4c3.3,0,6.1,1.1,8.4,3.4
			c2.3,2.3,3.4,5.1,3.4,8.4c0,3.3-1.1,6.1-3.4,8.4c-2.3,2.3-5.1,3.4-8.4,3.4C346.8,512.2,344,511.1,341.7,508.8z M360.2,590.1h-20.1
			V518h20.1V590.1z"/>
		<path class="st6" d="M398.7,590.1l-28.6-72.3H391l18,45.5l18-45.5h20.9l-28.6,72.3H398.7z"/>
		<path class="st6" d="M520.3,579.7c-8.1,7.7-17.7,11.5-28.6,11.5c-11,0-20-3.4-27.2-10.1c-7.2-6.8-10.7-15.8-10.7-27.2
			c0-11.4,3.6-20.4,10.9-27.1c7.3-6.7,15.9-10.1,25.8-10.1c9.9,0,18.4,3,25.3,9c6.9,6,10.4,14.2,10.4,24.7v10.7h-52.6
			c0.6,3.9,2.7,7.2,6.2,9.7c3.5,2.5,7.4,3.8,11.8,3.8c7.1,0,12.9-2.4,17.4-7.1L520.3,579.7z M501,536.9c-2.8-2.3-6.1-3.5-10.1-3.5
			c-4,0-7.6,1.2-10.9,3.6c-3.3,2.4-5.2,5.7-5.8,9.8h31.7C505.4,542.5,503.8,539.2,501,536.9z"/>
		<path class="st6" d="M578.7,535.7c-6,0-10.5,2.1-13.4,6.4c-3,4.2-4.4,9.9-4.4,16.8v31.3h-20.1V518h20.1v9.5c2.6-3,5.8-5.5,9.7-7.5
			c3.9-2.1,7.8-3.1,11.9-3.2l0.1,18.9H578.7z"/>
		<path class="st6" d="M649.6,567.7c0,7.1-2.6,12.8-7.8,17.1c-5.2,4.3-11.9,6.4-19.9,6.4c-5.4,0-11-1-16.8-2.9
			c-5.8-1.9-11-4.8-15.7-8.5l8.9-12.6c7.5,5.8,15.5,8.7,24,8.7c2.6,0,4.6-0.5,6.2-1.5c1.5-1,2.3-2.4,2.3-4.1c0-1.7-1.1-3.3-3.2-4.7
			c-2.1-1.4-5.1-2.8-9.1-4c-4-1.3-7-2.3-9.1-3.2c-2.1-0.9-4.5-2.2-7.2-3.9c-5.5-3.4-8.2-8.4-8.2-15.1c0-6.7,2.7-12.1,8-16.3
			c5.4-4.2,12.3-6.3,20.8-6.3c8.5,0,17,2.9,25.5,8.6l-7.5,13.4c-6.3-4.3-12.5-6.4-18.7-6.4c-6.2,0-9.3,1.7-9.3,5.1
			c0,1.9,1,3.4,3,4.4c2,1.1,5.2,2.3,9.8,3.8c4.6,1.4,7.8,2.5,9.7,3.3c1.9,0.8,4.2,1.9,6.9,3.6C647.1,555.5,649.6,560.5,649.6,567.7z
			"/>
		<path class="st6" d="M666.7,508.8c-2.3-2.3-3.4-5.1-3.4-8.4c0-3.3,1.1-6.1,3.4-8.4c2.3-2.3,5.1-3.4,8.4-3.4c3.3,0,6.1,1.1,8.4,3.4
			c2.3,2.3,3.4,5.1,3.4,8.4c0,3.3-1.1,6.1-3.4,8.4c-2.3,2.3-5.1,3.4-8.4,3.4C671.8,512.2,669,511.1,666.7,508.8z M685.2,590.1H665
			V518h20.1V590.1z"/>
		<path class="st6" d="M733.1,591.2c-8.5,0-16.2-3.6-22.9-10.9c-6.7-7.2-10.1-16.2-10.1-27c0-10.7,3.3-19.5,9.8-26.4
			c6.5-6.8,14.2-10.3,22.9-10.3c8.8,0,15.9,3.1,21.5,9.3v-35.4h20.1v99.5h-20.1v-9.5C748.7,587.7,741.6,591.2,733.1,591.2z
			 M720.4,554.2c0,5.8,1.7,10.6,5.2,14.3c3.5,3.7,7.6,5.6,12.2,5.6c4.6,0,8.6-1.9,11.9-5.6c3.3-3.7,4.9-8.5,4.9-14.4
			c0-5.9-1.6-10.7-4.9-14.6c-3.3-3.9-7.3-5.8-12-5.8c-4.7,0-8.8,2-12.2,5.9C722.1,543.5,720.4,548.4,720.4,554.2z"/>
		<path class="st6" d="M854.8,590.1h-18.9v-8.7c-5.2,6.5-11.6,9.8-19.2,9.8s-14.1-2.2-19.2-6.6c-5.2-4.4-7.8-10.3-7.8-17.7
			s2.7-12.9,8-16.6c5.4-3.7,12.7-5.5,22-5.5h15v-0.4c0-7.7-4.1-11.5-12.2-11.5c-3.5,0-7.2,0.7-11.1,2.1c-3.9,1.4-7.2,3.1-9.9,5.2
			l-9-13c9.5-6.9,20.3-10.3,32.5-10.3c8.8,0,15.9,2.2,21.5,6.6c5.5,4.4,8.3,11.3,8.3,20.8V590.1z M834.6,562.6v-3.5H822
			c-8,0-12.1,2.5-12.1,7.5c0,2.6,1,4.6,2.9,6c1.9,1.4,4.7,2.1,8.2,2.1c3.6,0,6.7-1.1,9.5-3.3C833.2,569.2,834.6,566.3,834.6,562.6z"
			/>
		<path class="st6" d="M902.1,591.2c-8.5,0-16.2-3.6-22.9-10.9c-6.7-7.2-10.1-16.2-10.1-27c0-10.7,3.3-19.5,9.8-26.4
			c6.5-6.8,14.2-10.3,22.9-10.3c8.8,0,15.9,3.1,21.5,9.3v-35.4h20.1v99.5h-20.1v-9.5C917.7,587.7,910.6,591.2,902.1,591.2z
			 M889.4,554.2c0,5.8,1.7,10.6,5.2,14.3c3.5,3.7,7.6,5.6,12.2,5.6c4.6,0,8.6-1.9,11.9-5.6c3.3-3.7,4.9-8.5,4.9-14.4
			c0-5.9-1.6-10.7-4.9-14.6c-3.3-3.9-7.3-5.8-12-5.8c-4.7,0-8.8,2-12.2,5.9C891.1,543.5,889.4,548.4,889.4,554.2z"/>
	</g>
	<g class="st5">
		<path class="st6" d="M305.1,690.1c0,7.1-2.6,12.8-7.8,17.1c-5.2,4.3-11.9,6.4-19.9,6.4c-5.4,0-11-1-16.8-2.9
			c-5.8-1.9-11-4.8-15.7-8.5l8.9-12.6c7.5,5.8,15.5,8.7,24,8.7c2.6,0,4.6-0.5,6.2-1.5c1.5-1,2.3-2.4,2.3-4.1c0-1.7-1.1-3.3-3.2-4.7
			c-2.1-1.4-5.1-2.8-9.1-4c-4-1.3-7-2.3-9.1-3.2c-2.1-0.9-4.5-2.2-7.2-3.9c-5.5-3.4-8.2-8.4-8.2-15.1c0-6.7,2.7-12.1,8-16.3
			c5.4-4.2,12.3-6.3,20.8-6.3c8.5,0,17,2.9,25.5,8.6l-7.5,13.4c-6.3-4.3-12.5-6.4-18.7-6.4c-6.2,0-9.3,1.7-9.3,5.1
			c0,1.9,1,3.4,3,4.4c2,1.1,5.2,2.3,9.8,3.8c4.6,1.4,7.8,2.5,9.7,3.3c1.9,0.8,4.2,1.9,6.9,3.6C302.6,677.9,305.1,682.9,305.1,690.1z
			"/>
		<path class="st6" d="M383,702.1c-8.1,7.7-17.7,11.5-28.6,11.5c-11,0-20-3.4-27.2-10.1c-7.2-6.8-10.7-15.8-10.7-27.2
			c0-11.4,3.6-20.4,10.9-27.1c7.3-6.7,15.9-10.1,25.8-10.1c9.9,0,18.4,3,25.3,9c6.9,6,10.4,14.2,10.4,24.7v10.7h-52.6
			c0.6,3.9,2.7,7.2,6.2,9.7c3.5,2.5,7.4,3.8,11.8,3.8c7.1,0,12.9-2.4,17.4-7.1L383,702.1z M363.7,659.3c-2.8-2.3-6.1-3.5-10.1-3.5
			c-4,0-7.6,1.2-10.9,3.6c-3.3,2.4-5.2,5.7-5.8,9.8h31.7C368.1,664.9,366.4,661.6,363.7,659.3z"/>
		<path class="st6" d="M418.9,640.4l12.3,19.3l12.7-19.3h23.6l-24.8,35.3l25.8,36.9h-24l-14.1-19.9l-13.7,19.9h-23.2l25.2-36.8
			l-23.9-35.4H418.9z"/>
		<path class="st6" d="M526.4,679.3v-38.9h20.3v72.2h-20.3V703c-5,7.1-11.5,10.6-19.4,10.6c-7.9,0-14.6-2.5-19.9-7.4
			c-5.4-5-8-12.3-8-22.1v-43.7h20.3v39.3c0,11.1,4.1,16.6,12.2,16.6c4,0,7.5-1.5,10.5-4.4C524.9,689,526.4,684.8,526.4,679.3z"/>
		<path class="st6" d="M627,712.5H608v-8.7c-5.2,6.5-11.6,9.8-19.2,9.8s-14.1-2.2-19.2-6.6c-5.2-4.4-7.8-10.3-7.8-17.7
			s2.7-12.9,8-16.6c5.4-3.7,12.7-5.5,22-5.5h15v-0.4c0-7.7-4.1-11.5-12.2-11.5c-3.5,0-7.2,0.7-11.1,2.1c-3.9,1.4-7.2,3.1-9.9,5.2
			l-9-13c9.5-6.9,20.3-10.3,32.5-10.3c8.8,0,15.9,2.2,21.5,6.6c5.5,4.4,8.3,11.3,8.3,20.8V712.5z M606.7,685v-3.5h-12.6
			c-8,0-12.1,2.5-12.1,7.5c0,2.6,1,4.6,2.9,6c1.9,1.4,4.7,2.1,8.2,2.1c3.6,0,6.7-1.1,9.5-3.3C605.3,691.6,606.7,688.7,606.7,685z"/>
		<path class="st6" d="M665.4,712.5h-20.1V613h20.1V712.5z"/>
	</g>
</g>
<image style="overflow:visible;enable-background:new    ;" width="600" height="550" xlink:href="../4.png"  transform="matrix(0.978 0 0 0.978 1102.4136 219.7944)">
</image>
</svg>
