<?xml version="1.0" encoding="utf-8"?>
<!-- Generator: Adobe Illustrator 25.4.1, SVG Export Plug-In . SVG Version: 6.00 Build 0)  -->
<svg version="1.1" id="Capa_1" xmlns="http://www.w3.org/2000/svg" xmlns:xlink="http://www.w3.org/1999/xlink" x="0px" y="0px"
	 viewBox="0 0 1920 1080" style="enable-background:new 0 0 1920 1080;" xml:space="preserve">
<style type="text/css">
	.st0{fill-rule:evenodd;clip-rule:evenodd;fill:#A4D0C6;}
	.st1{fill:#D6A8CA;}
	.st2{fill:#BDAAE3;}
	.st3{fill:#D7E36A;}
	.st4{fill:#211F1F;stroke:#FFFFFF;stroke-miterlimit:10;}
	.st5{enable-background:new    ;}
	.st6{fill:#211F1F;}
	.st7{fill:#C3DE8A;}
	.st8{fill:#BEABE4;}
	.st9{fill:#FFFFFF;}
	.st10{fill:#E5ADBF;}
	.st11{fill:#D7A9CB;}
	.st12{fill:#7588AE;}
	.st13{fill:#CC93C0;}
</style>
<path class="st0" d="M1923-0.4H-3v885.7h2v72.1c0,0,442.4-141.1,1465.3,0c0,0,336.3,31,456.4,17v-89.1h2.2L1923-0.4L1923-0.4z"/>
<path class="st1" d="M1818.1,165.5c0,9.2-6.6,13.7-11.9,17.4c-5.2,3.6-8.1,5.8-8.1,10.2s2.9,6.6,8.1,10.2
	c5.3,3.7,11.9,8.2,11.9,17.4s-6.6,13.7-11.9,17.4c-5.2,3.6-8.1,5.8-8.1,10.2c0,2.4-2,4.4-4.4,4.4s-4.4-2-4.4-4.4
	c0-9.2,6.6-13.7,11.9-17.4c5.2-3.6,8.1-5.8,8.1-10.2s-2.9-6.6-8.1-10.2c-5.3-3.7-11.9-8.2-11.9-17.4s6.6-13.7,11.9-17.4
	c5.2-3.6,8.1-5.8,8.1-10.2s-2.9-6.6-8.1-10.2c-5.3-3.6-11.9-8.2-11.9-17.4c0-2.4,2-4.4,4.4-4.4s4.4,2,4.4,4.4
	c0,4.4,2.9,6.6,8.1,10.2C1811.5,151.8,1818.1,156.3,1818.1,165.5"/>
<path class="st2" d="M-1.7,813c68.8,0,124.6-55.8,124.6-124.6S67.1,563.8-1.7,563.8C-1.7,563.8-1.7,813-1.7,813z"/>
<path class="st1" d="M872.1,259.1c-17.8,0-32.3-14.5-32.3-32.3s14.5-32.3,32.3-32.3s32.3,14.5,32.3,32.3
	C904.4,244.6,889.9,259.1,872.1,259.1z M872.1,206.6c-11.1,0-20.1,9-20.1,20.1s9,20.1,20.1,20.1s20.1-9,20.1-20.1
	C892.2,215.7,883.2,206.6,872.1,206.6z"/>
<path class="st3" d="M457.1,100.7c103.7,16.9,174,114.7,157.1,218.4C606,369.5,533.8,344.6,496,373c-40,30.1-46.9,111.8-100.2,103.1
	c-103.7-16.9-174-114.7-157.1-218.4c8-49,66.4-40.7,102.6-69.1C381.7,157,402.4,91.8,457.1,100.7z"/>
<path class="st4" d="M1625.8,818.9c13.8,0,20.7,10,26.2,18c5.4,7.8,8.7,12.2,15.3,12.2c6.6,0,9.9-4.4,15.3-12.2
	c5.5-8,12.3-18,26.2-18s20.7,10,26.2,18c5.4,7.8,8.7,12.2,15.3,12.2c3.6,0,6.6,3,6.6,6.6s-3,6.6-6.6,6.6c-13.8,0-20.7-10-26.2-18
	c-5.4-7.8-8.7-12.2-15.3-12.2c-6.6,0-9.9,4.4-15.3,12.2c-5.5,8-12.3,18-26.2,18c-13.8,0-20.7-10-26.2-18
	c-5.4-7.8-8.7-12.2-15.3-12.2c-6.6,0-9.9,4.4-15.3,12.2c-5.5,8-12.3,18-26.2,18c-3.6,0-6.6-3-6.6-6.6s3-6.6,6.6-6.6
	c6.6,0,9.9-4.4,15.3-12.2C1605.1,828.8,1612,818.9,1625.8,818.9"/>
<g>
	<g class="st5">
		<path class="st6" d="M323.7,409.6c0,14.2-5.6,23.4-16.9,27.6l22.5,31.8h-24.4l-19.7-28.4h-13.7V469h-19.8v-88.9h33.7
			c13.8,0,23.7,2.3,29.6,7C320.8,391.7,323.7,399.2,323.7,409.6z M299.8,420.1c2.5-2.2,3.7-5.7,3.7-10.5c0-4.8-1.3-8.1-3.8-9.9
			c-2.5-1.8-7-2.7-13.4-2.7h-14.9v26.3h14.5C292.7,423.4,297.3,422.3,299.8,420.1z"/>
		<path class="st6" d="M401.4,459c-7.7,7.3-16.8,10.9-27.1,10.9c-10.4,0-19-3.2-25.7-9.6c-6.8-6.4-10.2-15-10.2-25.7
			c0-10.8,3.5-19.3,10.4-25.7c6.9-6.4,15.1-9.5,24.5-9.5s17.4,2.8,24,8.5c6.6,5.7,9.9,13.5,9.9,23.4v10.2h-49.8
			c0.6,3.7,2.5,6.8,5.8,9.2c3.3,2.4,7,3.6,11.2,3.6c6.7,0,12.2-2.2,16.5-6.7L401.4,459z M383.1,418.5c-2.6-2.2-5.8-3.3-9.6-3.3
			c-3.8,0-7.2,1.1-10.4,3.4c-3.1,2.3-5,5.4-5.5,9.3h30C387.2,423.8,385.7,420.7,383.1,418.5z"/>
		<path class="st6" d="M439.8,469h-19.1v-94.3h19.1V469z"/>
		<path class="st6" d="M515.9,469H498v-8.3c-4.9,6.2-11,9.3-18.2,9.3s-13.3-2.1-18.2-6.3c-4.9-4.2-7.4-9.8-7.4-16.8
			s2.5-12.2,7.6-15.7c5.1-3.5,12-5.2,20.9-5.2h14.2v-0.4c0-7.3-3.9-10.9-11.6-10.9c-3.3,0-6.8,0.7-10.5,2c-3.7,1.3-6.8,2.9-9.3,4.9
			l-8.5-12.3c9-6.5,19.2-9.8,30.8-9.8c8.3,0,15.1,2.1,20.3,6.2c5.3,4.2,7.9,10.7,7.9,19.7V469z M496.7,442.9v-3.3h-12
			c-7.6,0-11.4,2.4-11.4,7.1c0,2.5,0.9,4.3,2.7,5.7c1.8,1.3,4.4,2,7.8,2c3.4,0,6.4-1,9-3.1C495.5,449.1,496.7,446.4,496.7,442.9z"/>
		<path class="st6" d="M566.2,453.1c6.4,0,12.1-3.2,17.2-9.5l11.3,12.7c-8.8,9.2-18.4,13.7-28.6,13.7c-10.3,0-18.9-3.2-26-9.7
			c-7.1-6.5-10.6-15-10.6-25.4c0-10.5,3.6-19,10.7-25.6c7.2-6.6,15.7-9.9,25.5-9.9c4.9,0,9.9,1,14.9,3.1c5,2,9.5,5,13.3,9l-9.9,13
			c-2.2-2.6-4.9-4.7-8.1-6.1c-3.2-1.4-6.3-2.2-9.5-2.2c-5,0-9.3,1.6-12.9,4.9c-3.6,3.3-5.4,7.8-5.4,13.6c0,5.8,1.8,10.3,5.4,13.5
			C557.1,451.5,561.3,453.1,566.2,453.1z"/>
		<path class="st6" d="M609,391.8c-2.2-2.2-3.2-4.8-3.2-7.9c0-3.1,1.1-5.8,3.2-7.9c2.2-2.2,4.8-3.2,7.9-3.2c3.1,0,5.8,1.1,7.9,3.2
			c2.2,2.2,3.2,4.8,3.2,7.9c0,3.1-1.1,5.8-3.2,7.9s-4.8,3.2-7.9,3.2C613.8,395.1,611.1,394,609,391.8z M626.4,469h-19.1v-68.4h19.1
			V469z"/>
		<path class="st6" d="M712.9,434.8c0,9.9-3.4,18.3-10.3,25c-6.9,6.8-15.5,10.2-25.9,10.2c-10.4,0-19-3.4-25.9-10.2
			c-6.9-6.8-10.3-15.1-10.3-25s3.4-18.3,10.3-25.1c6.9-6.8,15.5-10.2,25.9-10.2c10.4,0,19,3.4,25.9,10.2
			C709.5,416.5,712.9,424.8,712.9,434.8z M659.7,434.8c0,5.6,1.6,10.2,4.8,13.7c3.2,3.5,7.2,5.3,12.2,5.3c5,0,9-1.8,12.2-5.3
			c3.2-3.5,4.8-8.1,4.8-13.7s-1.6-10.2-4.8-13.7c-3.2-3.6-7.2-5.3-12.2-5.3c-5,0-9,1.8-12.2,5.3
			C661.3,424.6,659.7,429.2,659.7,434.8z"/>
		<path class="st6" d="M746.1,430.8V469H727v-68.4h19.1v7.6c5.8-5.8,12.2-8.8,19.5-8.8c7.2,0,13.2,2.5,18.1,7.6
			c4.9,5.1,7.3,11.9,7.3,20.3V469h-19.1v-38.7c0-10.5-3.9-15.8-11.6-15.8c-3.8,0-7.1,1.4-10,4.1
			C747.5,421.4,746.1,425.5,746.1,430.8z"/>
		<path class="st6" d="M867.5,459c-7.7,7.3-16.8,10.9-27.1,10.9c-10.4,0-19-3.2-25.7-9.6c-6.8-6.4-10.2-15-10.2-25.7
			c0-10.8,3.5-19.3,10.4-25.7c6.9-6.4,15.1-9.5,24.5-9.5s17.4,2.8,24,8.5c6.6,5.7,9.9,13.5,9.9,23.4v10.2h-49.8
			c0.6,3.7,2.5,6.8,5.8,9.2c3.3,2.4,7,3.6,11.2,3.6c6.7,0,12.2-2.2,16.5-6.7L867.5,459z M849.2,418.5c-2.6-2.2-5.8-3.3-9.6-3.3
			c-3.8,0-7.2,1.1-10.4,3.4c-3.1,2.3-5,5.4-5.5,9.3h30C853.4,423.8,851.8,420.7,849.2,418.5z"/>
		<path class="st6" d="M938.3,447.7c0,6.7-2.5,12.1-7.4,16.2S919.6,470,912,470c-5.1,0-10.4-0.9-15.9-2.7
			c-5.5-1.8-10.5-4.5-14.9-8.1l8.4-12c7.1,5.5,14.7,8.3,22.8,8.3c2.5,0,4.4-0.5,5.8-1.5c1.4-1,2.2-2.3,2.2-3.9c0-1.6-1-3.1-3-4.5
			c-2-1.4-4.9-2.6-8.6-3.8c-3.8-1.2-6.7-2.2-8.6-3.1c-2-0.8-4.3-2.1-6.8-3.7c-5.2-3.2-7.8-8-7.8-14.3c0-6.3,2.5-11.5,7.6-15.4
			c5.1-4,11.7-6,19.7-6c8.1,0,16.1,2.7,24.2,8.1l-7.1,12.7c-5.9-4.1-11.8-6.1-17.7-6.1c-5.9,0-8.8,1.6-8.8,4.8
			c0,1.8,0.9,3.2,2.8,4.2c1.9,1,5,2.2,9.3,3.6c4.3,1.4,7.4,2.4,9.2,3.1c1.8,0.7,4,1.8,6.5,3.4C936,436.1,938.3,440.9,938.3,447.7z"
			/>
	</g>
	<g class="st5">
		<path class="st6" d="M301.2,563.7c0,6.7-2.5,12.1-7.4,16.2s-11.3,6.1-18.9,6.1c-5.1,0-10.4-0.9-15.9-2.7
			c-5.5-1.8-10.5-4.5-14.9-8.1l8.4-12c7.1,5.5,14.7,8.3,22.8,8.3c2.5,0,4.4-0.5,5.8-1.5c1.4-1,2.2-2.3,2.2-3.9c0-1.6-1-3.1-3-4.5
			c-2-1.4-4.9-2.6-8.6-3.8c-3.8-1.2-6.7-2.2-8.6-3.1c-2-0.8-4.3-2.1-6.8-3.7c-5.2-3.2-7.8-8-7.8-14.3c0-6.3,2.5-11.5,7.6-15.4
			c5.1-4,11.7-6,19.7-6c8.1,0,16.1,2.7,24.2,8.1l-7.1,12.7c-5.9-4.1-11.8-6.1-17.7-6.1c-5.9,0-8.8,1.6-8.8,4.8
			c0,1.8,0.9,3.2,2.8,4.2c1.9,1,5,2.2,9.3,3.6c4.3,1.4,7.4,2.4,9.2,3.1c1.8,0.7,4,1.8,6.5,3.4C298.8,552.1,301.2,556.9,301.2,563.7z
			"/>
		<path class="st6" d="M375.1,575c-7.7,7.3-16.8,10.9-27.1,10.9c-10.4,0-19-3.2-25.7-9.6c-6.8-6.4-10.2-15-10.2-25.7
			c0-10.8,3.5-19.3,10.4-25.7c6.9-6.4,15.1-9.5,24.5-9.5s17.4,2.8,24,8.5c6.6,5.7,9.9,13.5,9.9,23.4v10.2h-49.8
			c0.6,3.7,2.5,6.8,5.8,9.2c3.3,2.4,7,3.6,11.2,3.6c6.7,0,12.2-2.2,16.5-6.7L375.1,575z M356.8,534.5c-2.6-2.2-5.8-3.3-9.6-3.3
			c-3.8,0-7.2,1.1-10.4,3.4c-3.1,2.3-5,5.4-5.5,9.3h30C360.9,539.8,359.4,536.7,356.8,534.5z"/>
		<path class="st6" d="M409.1,516.6l11.7,18.3l12.1-18.3h22.4L431.8,550l24.4,35h-22.8l-13.4-18.8l-13,18.8h-22l23.9-34.8
			l-22.6-33.6H409.1z"/>
		<path class="st6" d="M532.1,550.8c0,9.9-3.4,18.3-10.3,25c-6.9,6.8-15.5,10.2-25.9,10.2c-10.4,0-19-3.4-25.9-10.2
			c-6.9-6.8-10.3-15.1-10.3-25s3.4-18.3,10.3-25.1c6.9-6.8,15.5-10.2,25.9-10.2c10.4,0,19,3.4,25.9,10.2
			C528.7,532.5,532.1,540.8,532.1,550.8z M478.9,550.8c0,5.6,1.6,10.2,4.8,13.7c3.2,3.5,7.2,5.3,12.2,5.3c5,0,9-1.8,12.2-5.3
			c3.2-3.5,4.8-8.1,4.8-13.7s-1.6-10.2-4.8-13.7c-3.2-3.6-7.2-5.3-12.2-5.3c-5,0-9,1.8-12.2,5.3
			C480.5,540.6,478.9,545.2,478.9,550.8z"/>
		<path class="st6" d="M545.7,555.2v-16.9H591v16.9H545.7z"/>
		<path class="st6" d="M666.6,585h-17.9v-8.3c-4.9,6.2-11,9.3-18.2,9.3s-13.3-2.1-18.2-6.3c-4.9-4.2-7.4-9.8-7.4-16.8
			s2.5-12.2,7.6-15.7c5.1-3.5,12-5.2,20.9-5.2h14.2v-0.4c0-7.3-3.9-10.9-11.6-10.9c-3.3,0-6.8,0.7-10.5,2c-3.7,1.3-6.8,2.9-9.3,4.9
			l-8.5-12.3c9-6.5,19.2-9.8,30.8-9.8c8.3,0,15.1,2.1,20.3,6.2c5.3,4.2,7.9,10.7,7.9,19.7V585z M647.4,558.9v-3.3h-12
			c-7.6,0-11.4,2.4-11.4,7.1c0,2.5,0.9,4.3,2.7,5.7c1.8,1.3,4.4,2,7.8,2c3.4,0,6.4-1,9-3.1C646.1,565.1,647.4,562.4,647.4,558.9z"/>
		<path class="st6" d="M706.3,512.6v4.6h16.5v13.7h-16.5v54h-19.2v-54h-8v-13.7h8V513c0-7.5,2.3-13.4,6.8-17.7
			c4.5-4.4,10.2-6.5,16.9-6.5s12.9,2.5,18.4,7.6l-6.9,12.8c-2.8-3.2-5.9-4.8-9.3-4.8c-2,0-3.6,0.7-4.8,2.1S706.3,509.9,706.3,512.6z
			"/>
		<path class="st6" d="M793.9,575c-7.7,7.3-16.8,10.9-27.1,10.9c-10.4,0-19-3.2-25.7-9.6c-6.8-6.4-10.2-15-10.2-25.7
			c0-10.8,3.5-19.3,10.4-25.7c6.9-6.4,15.1-9.5,24.5-9.5s17.4,2.8,24,8.5c6.6,5.7,9.9,13.5,9.9,23.4v10.2h-49.8
			c0.6,3.7,2.5,6.8,5.8,9.2c3.3,2.4,7,3.6,11.2,3.6c6.7,0,12.2-2.2,16.5-6.7L793.9,575z M775.6,534.5c-2.6-2.2-5.8-3.3-9.6-3.3
			c-3.8,0-7.2,1.1-10.4,3.4c-3.1,2.3-5,5.4-5.5,9.3h30C779.7,539.8,778.2,536.7,775.6,534.5z"/>
		<path class="st6" d="M846,569.1c6.4,0,12.1-3.2,17.2-9.5l11.3,12.7c-8.8,9.2-18.4,13.7-28.6,13.7c-10.3,0-18.9-3.2-26-9.7
			c-7.1-6.5-10.6-15-10.6-25.4c0-10.5,3.6-19,10.7-25.6c7.2-6.6,15.7-9.9,25.5-9.9c4.9,0,9.9,1,14.9,3.1c5,2,9.5,5,13.3,9l-9.9,13
			c-2.2-2.6-4.9-4.7-8.1-6.1c-3.2-1.4-6.3-2.2-9.5-2.2c-5,0-9.3,1.6-12.9,4.9c-3.6,3.3-5.4,7.8-5.4,13.6c0,5.8,1.8,10.3,5.4,13.5
			C837,567.5,841.2,569.1,846,569.1z"/>
		<path class="st6" d="M910,530.3v30.6c0,2.6,0.7,4.7,2,6.2c1.4,1.5,3,2.2,4.8,2.2c3.6,0,6.6-1.6,9-4.8l7.1,13.4
			c-5.9,5.4-12.2,8.1-18.8,8.1c-6.6,0-12.1-2.2-16.7-6.5c-4.5-4.3-6.8-10.2-6.8-17.7v-31.5h-8v-13.7h8v-20.5H910v20.5h16.5v13.7H910
			z"/>
		<path class="st6" d="M944.8,507.8c-2.2-2.2-3.2-4.8-3.2-7.9c0-3.1,1.1-5.8,3.2-7.9c2.2-2.2,4.8-3.2,7.9-3.2c3.1,0,5.8,1.1,7.9,3.2
			c2.2,2.2,3.2,4.8,3.2,7.9c0,3.1-1.1,5.8-3.2,7.9c-2.2,2.2-4.8,3.2-7.9,3.2C949.6,511.1,946.9,510,944.8,507.8z M962.2,585h-19.1
			v-68.4h19.1V585z"/>
		<path class="st6" d="M998.7,585l-27.1-68.5h19.8l17,43.1l17-43.1h19.8l-27.1,68.5H998.7z"/>
		<path class="st6" d="M1112,585h-17.9v-8.3c-4.9,6.2-11,9.3-18.2,9.3c-7.2,0-13.3-2.1-18.2-6.3c-4.9-4.2-7.4-9.8-7.4-16.8
			s2.5-12.2,7.6-15.7c5.1-3.5,12-5.2,20.9-5.2h14.2v-0.4c0-7.3-3.9-10.9-11.6-10.9c-3.3,0-6.8,0.7-10.5,2c-3.7,1.3-6.8,2.9-9.3,4.9
			l-8.5-12.3c9-6.5,19.2-9.8,30.8-9.8c8.3,0,15.1,2.1,20.3,6.2c5.3,4.2,7.9,10.7,7.9,19.7V585z M1092.8,558.9v-3.3h-12
			c-7.6,0-11.4,2.4-11.4,7.1c0,2.5,0.9,4.3,2.7,5.7c1.8,1.3,4.4,2,7.8,2c3.4,0,6.4-1,9-3.1C1091.5,565.1,1092.8,562.4,1092.8,558.9z
			"/>
		<path class="st6" d="M1180.9,563.7c0,6.7-2.5,12.1-7.4,16.2s-11.3,6.1-18.9,6.1c-5.1,0-10.4-0.9-15.9-2.7
			c-5.5-1.8-10.5-4.5-14.9-8.1l8.4-12c7.1,5.5,14.7,8.3,22.8,8.3c2.5,0,4.4-0.5,5.8-1.5c1.4-1,2.2-2.3,2.2-3.9c0-1.6-1-3.1-3-4.5
			c-2-1.4-4.9-2.6-8.6-3.8c-3.8-1.2-6.7-2.2-8.6-3.1c-2-0.8-4.3-2.1-6.8-3.7c-5.2-3.2-7.8-8-7.8-14.3c0-6.3,2.5-11.5,7.6-15.4
			c5.1-4,11.7-6,19.7-6c8.1,0,16.1,2.7,24.2,8.1l-7.1,12.7c-5.9-4.1-11.8-6.1-17.7-6.1c-5.9,0-8.8,1.6-8.8,4.8
			c0,1.8,0.9,3.2,2.8,4.2c1.9,1,5,2.2,9.3,3.6c4.3,1.4,7.4,2.4,9.2,3.1c1.8,0.7,4,1.8,6.5,3.4
			C1178.6,552.1,1180.9,556.9,1180.9,563.7z"/>
	</g>
</g>
<g>
	<path class="st6" d="M1262,492.1c3.4-3.3,6.7-6.5,10-9.6c8.2-7.6,16.8-14.9,24.7-22.8c8.5-8.6,16.5-17.9,24.7-26.9
		c15-16.5,30.1-33,45.1-49.5c8.1-8.8,16.2-17.7,24.4-26.3c3.9-4.1,8.2-7.7,12.4-11.5c7.7-7.1,16.8-11.2,27-13.5
		c18.1-4.1,36.4-5.3,54.8-5c6,0.1,11.7,1.2,17.4,3c12.6,4,24.5,9.7,35.5,17.1c9.6,6.4,17.1,15,23.6,24.5c7.3,10.8,13.5,22.4,19.5,34
		c6.3,12.2,12.6,24.4,19,36.6c6,11.5,13.6,21.8,22.7,31c8.4,8.4,17,16.6,25.5,24.9c0.8,0.7,1.6,1.4,2.5,2.2c-0.4,0.4-0.6,0.8-0.9,1
		c-10,6.9-18.3,15.6-25.8,25.2c-11.5,14.6-22,30-32.1,45.6c-7.4,11.4-15.1,22.7-24.1,33c-14.5,16.7-31.3,30.7-51.4,40.1
		c-10.5,4.9-21.7,7.7-33.1,9.6c-8.7,1.4-17.5,2-26.2,1.1c-6.3-0.7-12.6-2-18.8-3.3c-21.6-4.5-40.6-14.8-58.4-27.5
		c-19.8-14.1-36.9-31-51.8-50.3c-12-15.5-23.9-31-34.8-47.3c-5-7.5-10.1-15-16.4-21.5c-4.3-4.4-9-8.3-13.5-12.4
		C1263,493,1262.6,492.6,1262,492.1z"/>
	<path class="st7" d="M1554.6,523.5c0.8-0.8,1.7-1.6,2.6-2.4c1.4-1.3,2.6-1.4,4-0.1c2.4,2.2,4.6,4.6,6.8,7c1.1,1.2,0.9,2.6-0.6,4
		c-2.2,2.2-4.5,4.3-6.9,6.2c-1.2,0.9-1.6,1.8-1.5,3.3c1.6,21.2-9.8,42.5-28.2,52.4c-10,5.4-20.5,7.1-31.4,3.7
		c-12.4-3.9-20.6-12.4-24.8-24.6c-5.3-15.4-3.2-30.2,4.7-44.1c6.4-11.4,15.7-19.7,28.2-23.9c8.6-2.9,17.2-3.1,25.8,0
		c8.5,3,14.9,8.7,19.6,16.3c0.4,0.7,0.9,1.4,1.3,2.1C1554.2,523.4,1554.3,523.4,1554.6,523.5z M1539,546.6c-7.7,1-14.4-1.1-21.1-3.8
		c-6.9-2.7-11.9-7.7-16.6-13.3c-0.4,0.6-0.7,0.9-0.9,1.3c-5.8,9.9-8,20.6-6.1,32c0.9,5.3,2.9,10.3,6.7,14.3
		c4.2,4.4,9.2,6.1,15.2,4.7c3.1-0.8,5.9-2.2,8.4-4.3C1533.9,569.6,1537.8,559,1539,546.6z M1512.4,519.1c5.6,9.4,18,13.4,24.4,11.8
		c-1.8-4.6-4.3-8.7-8.6-11.4C1523.2,516.2,1517.9,516.5,1512.4,519.1z M1537.7,579.9c1.2,1,1.8,0.2,2.4-0.5c2.6-2.9,4.8-6.2,6.4-9.7
		c0.2-0.5,0.4-1.1,0.5-1.7c0-0.2-0.3-0.5-0.6-0.7c-0.2-0.1-0.5,0-0.7,0.1c-0.3,0.3-0.5,0.7-0.6,1c-1.6,3.7-3.9,7-6.5,10
		C1538.3,578.9,1538.1,579.4,1537.7,579.9z M1542.2,566.5c-0.2-0.2-0.3-0.6-0.6-0.7c-0.3-0.1-0.7,0-0.9,0.2
		c-0.2,0.2-0.4,0.5-0.5,0.8c-1.7,2.7-3.4,5.5-5.1,8.2c-0.4,0.7-1,1.4-1.3,2.1c-0.1,0.3,0.2,0.8,0.3,1.3c0.4-0.1,0.9-0.1,1.1-0.4
		c2.2-3.3,4.3-6.7,6.4-10C1541.9,567.6,1542,567.1,1542.2,566.5z M1489.2,525.9c-0.8,0.3-1.4,0.3-1.6,0.6c-2.3,3.5-4.4,7.1-5.5,11.1
		c-0.1,0.4,0.2,1,0.3,1.5c0.4-0.1,0.7-0.1,0.7-0.2c2-3.8,3.9-7.6,5.9-11.5C1489.1,527.1,1489.1,526.7,1489.2,525.9z M1493.7,529
		c-0.2-0.3-0.3-0.6-0.6-0.7c-0.3-0.1-0.7,0-0.9,0.2c-0.3,0.2-0.4,0.5-0.6,0.8c-1.5,3-2.9,6-4.4,9c-0.1,0.2-0.2,0.5-0.2,0.7
		c0.1,0.3,0.2,0.7,0.4,0.8c0.2,0.1,0.7,0,0.9-0.2c0.3-0.4,0.5-0.8,0.8-1.3c1.3-2.7,2.6-5.4,3.9-8.1
		C1493.3,529.9,1493.5,529.5,1493.7,529z M1525.2,538.5c0.1,1.5,1.2,1.6,2.1,1.8c3.2,0.7,6.5,1.5,10,0.6c-0.3-0.5-0.4-0.9-0.5-0.9
		c-3.6-0.6-7.2-1.2-10.7-1.7C1525.9,538.1,1525.6,538.4,1525.2,538.5z M1536.3,535.6c-0.6-0.4-0.9-0.8-1.2-0.8
		c-3.3-0.2-6.5-0.7-9.5-1.9c-0.3-0.1-0.9,0.3-1.4,0.6C1526.8,535.9,1533.8,537.2,1536.3,535.6z"/>
	<path class="st7" d="M1386.5,544.3c0,0.8-0.1,1.6-0.1,2.4c-0.2,9.1-0.4,18.2-0.6,27.3c-0.1,3.5-0.7,4.1-4.1,4.1
		c-4.8,0-9.7,0-14.5,0c-3.7,0-4.8-1.2-4.4-4.9c0.9-8.8,1.8-17.6,2.7-26.4c0.8-7.9,1.6-15.8,2.3-23.7c0.2-2.4,0.6-2.9,3-3
		c5.5-0.1,11-0.1,16.5-0.1c0.8,0,1.7,0.1,2.5-0.1c2.6-0.7,4,0.7,5.4,2.5c13,16,26.1,31.9,39.2,47.9c0.5,0.6,1.1,1.2,1.9,2.2
		c0.1-1.5,0.2-2.5,0.3-3.4c0.7-16.6,1.5-33.2,2.2-49.8c0.1-2.4,0.6-3,2.9-3.1c2.7-0.1,5.5,0,8.3,0c2.3,0,4.7,0.1,7,0.3
		c2.6,0.2,3.4,1.2,3.3,3.7c-0.3,6.4-0.7,12.8-1.1,19.3c-0.6,10.2-1.3,20.3-1.9,30.5c-0.6,9.8-1.2,19.7-1.8,29.5
		c-0.2,2.5-0.7,3-3.3,3c-5.3,0.1-10.7,0.1-16,0.3c-2.6,0.1-4.3-0.9-5.7-2.8c-5.2-6.7-10.5-13.4-15.7-20.2
		c-8.9-11.4-17.8-22.8-26.6-34.2c-0.4-0.5-0.8-1-1.3-1.5C1386.9,544.2,1386.7,544.3,1386.5,544.3z M1435.3,593.4
		c-0.2-1.6-1.6-2.6-2.4-3.9c-0.9-1.3-1.8-2.6-2.8-3.8c-1-1.1-1.5-2.8-3.5-3.4c0.1,0.8-0.1,1.4,0.2,1.7c2.3,3.1,4.6,6.1,6.9,9.2
		C1434,593.9,1434.6,594.2,1435.3,593.4z M1431.7,579.8c-1.2,1.1-0.5,1.7,0,2.4c1.8,2.4,3.6,4.7,5.5,7.1c0.2,0.3,0.4,0.6,0.7,0.7
		c0.3,0.2,0.8,0.3,1.1,0.2c0.2-0.1,0.3-0.7,0.3-1.1c0-0.3-0.3-0.6-0.5-0.8c-1.9-2.4-3.7-4.9-5.6-7.3
		C1432.7,580.5,1432.2,580.2,1431.7,579.8z M1375.4,559c-0.5,0.9-0.8,1.2-0.8,1.6c-0.1,3.4-0.2,6.8-0.2,10.2c0,0.3,0.5,0.6,1.3,1.4
		c0.6-4.2,0.7-7.9,0.6-11.6C1376.2,560.2,1375.8,559.8,1375.4,559z M1370,571.9c0.1-0.1,0.4-0.2,0.4-0.3c0.4-3.8,0.9-7.6,1.2-11.3
		c0-0.3-0.6-0.7-0.8-1c-0.3,0.3-0.8,0.6-0.9,1c-0.4,3.4-0.7,6.8-1,10.1C1368.8,571.2,1369,572,1370,571.9z M1453.6,519.6
		c-0.8,4.3-0.9,8-1,11.8c0,0.3,0.4,0.6,0.9,1.1c0.4-0.8,0.8-1.2,0.8-1.7c0.2-3.4,0.4-6.8,0.5-10.2
		C1454.8,520.5,1454.4,520.3,1453.6,519.6z M1449,531c0.5-0.7,0.9-1,0.9-1.4c0.4-2.9,0.7-5.8,0.9-8.7c0-0.4-0.5-0.8-0.8-1.4
		C1448.6,521.6,1448,528.4,1449,531z"/>
	<path class="st8" d="M1543.6,406.6c1.6-1.1,2.9-1.9,4.2-2.8c1.5-1,2.4-1.1,3.5,0.3c1.9,2.5,3.6,5.2,5.3,7.9
		c0.7,1.2,0.4,2.1-1.1,3.1c-2.9,1.9-5.9,3.8-9,5.4c-1.9,0.9-2.9,2-3.6,4c-2.9,9.1-8.7,16.1-16.6,21.3c-12,8-25.1,10.7-39.2,6.8
		c-9.1-2.5-16.2-7.8-20.4-16.5c-4-8.3-3.8-16.8-0.3-25.2c4.8-11.3,13.3-18.8,24.5-23.5c10.5-4.4,21.3-5.2,32.3-1.5
		c9.7,3.3,16.5,9.6,19.9,19.3C1543.1,405.6,1543.3,405.9,1543.6,406.6z M1526.8,424.4c-15-1.7-25.5-9.8-33.3-22.3
		c-6.8,4.4-11.5,10-12.8,18.1c-1.5,9.3,2.7,16.1,11.6,19.3c0.5,0.2,0.9,0.3,1.4,0.5c8.8,2.2,17.1,0.7,24.6-4.2
		C1522.4,433.1,1525.1,429.1,1526.8,424.4z M1526,408.7c-2.8-6.4-11.8-11.6-17.4-10.1C1513.6,403.3,1518.8,407.4,1526,408.7z
		 M1471.4,413.2c0.3-0.3,0.8-0.6,0.9-1c1.2-3.4,3.2-6.2,5.6-8.8c0.3-0.3,0.2-1,0.2-1.5c-0.5,0.1-1.2,0.1-1.5,0.4
		c-2.6,2.6-4.7,5.6-5.9,9.1C1470.5,412.1,1470.4,412.8,1471.4,413.2z M1475.5,414.9c0.3,0.1,0.6,0.1,0.8,0.2
		c0.8-1.8,1.5-3.6,2.5-5.2c1-1.8,2.3-3.4,3.4-5c-0.8-1-1.4-0.7-2-0.1c-2.2,2.5-3.9,5.2-4.8,8.3
		C1475.4,413.7,1475.5,414.3,1475.5,414.9z M1526.2,436.7c-0.2-0.3-0.3-0.7-0.5-0.7c-0.5,0-1,0.1-1.3,0.3c-2.2,1.4-4.5,2.9-6.7,4.4
		c-0.3,0.2-0.6,0.3-0.8,0.5c-0.2,0.3-0.3,0.7-0.4,1.1c0.4,0.1,1,0.5,1.2,0.3c2.6-1.6,5.2-3.3,7.8-5
		C1525.9,437.5,1526,437,1526.2,436.7z M1516.3,410c1.3,1.7,4.8,3.1,8.6,3.5c0.7,0.1,1.5,0.2,1.8-1.1c-3.1-1-6.2-1.9-9.4-2.8
		C1517,409.5,1516.6,409.9,1516.3,410z M1526.8,417.5c-0.6-0.6-0.9-1.2-1.3-1.3c-2.6-0.7-5.3-1.4-7.9-2c-0.4-0.1-0.9,0.3-1.4,0.5
		c0.4,0.4,0.6,1,1.1,1.1c2.5,0.7,5.1,1.3,7.7,1.9C1525.3,417.9,1525.8,417.7,1526.8,417.5z M1527.9,439c-0.2,0-0.4-0.1-0.5-0.1
		c-2.3,1.7-4.5,3.4-6.7,5.2c-0.3,0.2-0.2,0.8-0.4,1.3c1.8-0.1,6.2-3,7.5-4.7C1528.2,440.2,1528.6,439.6,1527.9,439z"/>
	<path class="st8" d="M1429.8,433c0.6-6.1,1.2-11.8,1.8-17.6c0.7-6.9,1.4-13.8,2.1-20.7c0.2-2.4,1-3,3.4-2.9c4.8,0.3,9.7,0.7,14.5,1
		c2.3,0.2,2.8,0.6,2.6,3c-0.6,5.9-1.2,11.8-1.9,17.7c-1,9.6-2.1,19.3-3.1,28.9c-0.4,3.5-0.7,7-1.1,10.5c-0.3,2.3-0.4,2.5-2.8,2.5
		c-4.9,0.1-9.8,0-14.8,0.2c-2.5,0.1-4.3-0.9-5.8-2.7c-8.2-9.6-16.4-19.2-24.6-28.7c-0.9-1.1-1.8-2.1-3-3.5c-0.2,0.8-0.5,1.3-0.5,1.8
		c-1.7,10.5-3.4,20.9-5.1,31.4c-0.4,2.6-0.8,2.9-3.5,2.8c-4.3-0.2-8.7-0.4-13-0.7c-0.9-0.1-1.8-0.2-2.7-0.4c-1.6-0.4-2-0.8-1.8-2.5
		c0.3-2.6,0.6-5.2,1.1-7.7c3-14.8,6.1-29.6,8.4-44.5c0.5-3.1,0.9-3.3,3.9-3.3c3.8,0,7.7,0.1,11.5-0.1c2.2-0.1,3.6,0.7,4.9,2.3
		c7.3,8.3,14.6,16.5,22,24.7c2.2,2.4,4.3,4.9,6.5,7.3C1428.9,432.1,1429.3,432.5,1429.8,433z M1380.7,448.6c0,0.8-0.2,1.3,0,1.8
		c0.1,0.3,0.5,0.6,0.8,0.7c0.1,0.1,0.5-0.3,0.7-0.5c0.1-0.1,0.1-0.3,0.1-0.5c0.6-3.8,1.2-7.5,1.8-11.3c0.1-0.3,0-0.7-0.1-1
		c-0.1-0.2-0.3-0.5-0.5-0.5c-0.3,0-0.7,0.1-0.8,0.3c-0.2,0.3-0.4,0.8-0.4,1.2C1381.7,442.2,1381.2,445.5,1380.7,448.6z M1379.9,437
		c-1.6,0.3-1.6,1.3-1.8,2.2c-0.6,3.2-1.1,6.4-1.6,9.6c-0.1,0.5-0.2,1-0.1,1.5c0,0.3,0.3,0.6,0.6,0.7c0.2,0,0.7-0.2,0.8-0.4
		c0.2-0.4,0.3-0.9,0.4-1.4c0.6-3.4,1.2-6.9,1.8-10.3C1380.1,438.3,1380,437.7,1379.9,437z M1416.6,435.2c-0.1,0.4-0.3,0.7-0.2,1
		c0.1,0.4,0.3,0.8,0.6,1.1c2.3,2.4,4.5,4.9,6.9,7.3c0.3,0.3,1,0.2,1.5,0.3c-0.1-0.4,0-1-0.2-1.3c-2.5-2.8-5.1-5.5-7.7-8.2
		C1417.3,435.2,1417.1,435.3,1416.6,435.2z M1428.5,440.4c-0.5-0.6-0.8-1-1.1-1.3c-2.1-2-4.3-4-6.4-6c-0.3-0.3-0.6-0.5-1-0.7
		c-0.2-0.1-0.6,0-0.7,0.1c-0.2,0.2-0.4,0.7-0.3,0.9c0.2,0.4,0.5,0.8,0.9,1.2c2,1.9,4,3.8,6,5.7c0.4,0.3,0.8,0.7,1.2,0.8
		C1427.5,441.1,1427.9,440.7,1428.5,440.4z M1437.9,399.1c0.1,0,0.1,0,0.2,0c0-1.2,0.2-2.3,0.1-3.5c0-0.5-0.4-1.3-0.7-1.3
		c-0.9-0.1-0.9,0.7-1,1.3c0,0.1,0,0.2,0,0.2c-0.2,1.8-0.3,3.6-0.5,5.4c0,0.6-0.1,1.2,0,1.7c0.1,0.4,0.6,0.6,1,0.9
		c0.2-0.3,0.7-0.6,0.7-0.9C1437.8,401.7,1437.8,400.4,1437.9,399.1z M1440.8,393.1c-0.4,4.1-0.7,7.7-0.4,11.6
		c1.9-0.7,1.5-2.1,1.6-3.1C1442.6,396,1442.4,394.9,1440.8,393.1z"/>
	<path class="st9" d="M1520.3,520.2c0.2,1.3,1.1,1.2,1.9,1.5c3.6,1,6.5,2.9,8.5,6.1c0.3,0.4,0.5,0.9,0.9,1.2
		c0.2,0.2,0.7,0.2,0.9,0.1c0.2-0.1,0.3-0.6,0.3-0.9c0-0.2-0.1-0.5-0.2-0.7c-2.5-4.3-6.2-6.8-11.1-7.7
		C1521.1,519.7,1520.7,520,1520.3,520.2z"/>
	<path class="st9" d="M1537.7,579.9c0.3-0.5,0.5-1,0.9-1.4c2.7-3,4.9-6.3,6.5-10c0.2-0.4,0.4-0.7,0.6-1c0.1-0.1,0.5-0.2,0.7-0.1
		c0.3,0.1,0.6,0.5,0.6,0.7c-0.1,0.6-0.3,1.1-0.5,1.7c-1.6,3.6-3.8,6.8-6.4,9.7C1539.5,580.1,1538.9,580.9,1537.7,579.9z"/>
	<path class="st9" d="M1542.2,566.5c-0.2,0.6-0.3,1.1-0.6,1.5c-2.1,3.4-4.3,6.7-6.4,10c-0.2,0.3-0.7,0.3-1.1,0.4
		c-0.1-0.4-0.5-0.9-0.3-1.3c0.3-0.8,0.9-1.4,1.3-2.1c1.7-2.7,3.4-5.5,5.1-8.2c0.2-0.3,0.3-0.6,0.5-0.8s0.6-0.3,0.9-0.2
		S1542.1,566.3,1542.2,566.5z"/>
	<path class="st9" d="M1489.2,525.9c-0.1,0.8,0,1.2-0.2,1.5c-1.9,3.8-3.9,7.7-5.9,11.5c-0.1,0.1-0.3,0.1-0.7,0.2
		c-0.1-0.5-0.5-1.1-0.3-1.5c1.1-4,3.2-7.6,5.5-11.1C1487.8,526.2,1488.4,526.2,1489.2,525.9z"/>
	<path class="st9" d="M1493.7,529c-0.2,0.5-0.4,0.8-0.6,1.2c-1.3,2.7-2.6,5.4-3.9,8.1c-0.2,0.4-0.4,0.9-0.8,1.3
		c-0.2,0.2-0.6,0.3-0.9,0.2c-0.2-0.1-0.4-0.5-0.4-0.8c0-0.2,0.1-0.5,0.2-0.7c1.4-3,2.9-6,4.4-9c0.1-0.3,0.3-0.6,0.6-0.8
		c0.2-0.2,0.6-0.2,0.9-0.2C1493.4,528.4,1493.5,528.8,1493.7,529z"/>
	<path class="st9" d="M1525.2,538.5c0.3-0.1,0.6-0.4,0.9-0.3c3.6,0.5,7.2,1.1,10.7,1.7c0.1,0,0.2,0.4,0.5,0.9
		c-3.5,0.9-6.8,0.1-10-0.6C1526.4,540.1,1525.3,540,1525.2,538.5z"/>
	<path class="st9" d="M1536.3,535.6c-2.5,1.5-9.5,0.3-12.2-2.1c0.6-0.3,1.1-0.7,1.4-0.6c3.1,1.2,6.3,1.7,9.5,1.9
		C1535.4,534.9,1535.7,535.3,1536.3,535.6z"/>
	<path class="st9" d="M1435.3,593.4c-0.7,0.8-1.3,0.5-1.8-0.1c-2.3-3-4.6-6.1-6.9-9.2c-0.3-0.3-0.1-1-0.2-1.7
		c2.1,0.6,2.6,2.2,3.5,3.4c1,1.2,2,2.5,2.8,3.8C1433.7,590.8,1435.1,591.8,1435.3,593.4z"/>
	<path class="st9" d="M1431.7,579.8c0.5,0.4,1,0.8,1.3,1.2c1.9,2.4,3.8,4.8,5.6,7.3c0.2,0.3,0.5,0.5,0.5,0.8c0,0.4,0,0.9-0.3,1.1
		c-0.2,0.2-0.8,0-1.1-0.2c-0.3-0.1-0.5-0.5-0.7-0.7c-1.8-2.4-3.7-4.7-5.5-7.1C1431.2,581.5,1430.5,580.8,1431.7,579.8z"/>
	<path class="st9" d="M1375.4,559c0.4,0.8,0.8,1.2,0.8,1.6c0.1,3.7,0,7.3-0.6,11.6c-0.7-0.8-1.3-1.1-1.3-1.4c0-3.4,0.1-6.8,0.2-10.2
		C1374.6,560.2,1374.9,559.8,1375.4,559z"/>
	<path class="st9" d="M1370,571.9c-1.1,0-1.2-0.7-1.2-1.5c0.3-3.4,0.6-6.8,1-10.1c0-0.4,0.6-0.7,0.9-1c0.3,0.3,0.9,0.7,0.8,1
		c-0.3,3.8-0.8,7.6-1.2,11.3C1370.4,571.7,1370.1,571.8,1370,571.9z"/>
	<path class="st9" d="M1453.6,519.6c0.7,0.7,1.2,0.9,1.2,1.1c-0.1,3.4-0.3,6.8-0.5,10.2c0,0.5-0.4,0.9-0.8,1.7
		c-0.4-0.5-0.9-0.8-0.9-1.1C1452.7,527.7,1452.8,523.9,1453.6,519.6z"/>
	<path class="st9" d="M1449,531c-1-2.6-0.3-9.4,1.1-11.5c0.3,0.5,0.8,1,0.8,1.4c-0.2,2.9-0.6,5.8-0.9,8.7
		C1449.9,530,1449.4,530.3,1449,531z"/>
	<path class="st9" d="M1471.4,413.2c-1-0.4-0.9-1.1-0.7-1.7c1.3-3.5,3.3-6.5,5.9-9.1c0.3-0.3,1-0.3,1.5-0.4c-0.1,0.5,0,1.2-0.2,1.5
		c-2.4,2.6-4.4,5.4-5.6,8.8C1472.2,412.6,1471.7,412.9,1471.4,413.2z"/>
	<path class="st9" d="M1475.5,414.9c0-0.6-0.2-1.2,0-1.8c0.9-3.2,2.6-5.9,4.8-8.3c0.6-0.6,1.2-0.9,2,0.1c-1.1,1.7-2.4,3.3-3.4,5
		s-1.7,3.5-2.5,5.2C1476.1,415.1,1475.8,415,1475.5,414.9z"/>
	<path class="st9" d="M1526.2,436.7c-0.2,0.3-0.4,0.8-0.7,1c-2.6,1.7-5.1,3.4-7.8,5c-0.3,0.2-0.8-0.2-1.2-0.3
		c0.1-0.4,0.2-0.8,0.4-1.1c0.2-0.3,0.5-0.4,0.8-0.5c2.2-1.5,4.4-2.9,6.7-4.4c0.4-0.2,0.9-0.3,1.3-0.3
		C1525.9,436,1526,436.4,1526.2,436.7z"/>
	<path class="st9" d="M1516.3,410c0.4-0.2,0.8-0.5,1.1-0.4c3.1,0.9,6.2,1.9,9.4,2.8c-0.3,1.3-1.1,1.2-1.8,1.1
		C1521.1,413.2,1517.5,411.8,1516.3,410z"/>
	<path class="st9" d="M1526.8,417.5c-0.9,0.1-1.4,0.3-1.9,0.2c-2.6-0.6-5.1-1.2-7.7-1.9c-0.4-0.1-0.7-0.7-1.1-1.1
		c0.5-0.2,1-0.6,1.4-0.5c2.7,0.6,5.3,1.3,7.9,2C1525.9,416.3,1526.2,416.9,1526.8,417.5z"/>
	<path class="st9" d="M1527.9,439c0.7,0.6,0.4,1.2-0.1,1.7c-1.3,1.8-5.7,4.6-7.5,4.7c0.1-0.5,0.1-1.1,0.4-1.3
		c2.2-1.8,4.5-3.5,6.7-5.2C1527.5,438.9,1527.7,439,1527.9,439z"/>
	<path class="st9" d="M1380.7,448.6c0.5-3.1,1-6.5,1.6-9.8c0.1-0.4,0.2-0.8,0.4-1.2c0.2-0.2,0.5-0.3,0.8-0.3c0.2,0,0.4,0.3,0.5,0.5
		c0.1,0.3,0.1,0.7,0.1,1c-0.6,3.8-1.2,7.5-1.8,11.3c0,0.2,0,0.4-0.1,0.5c-0.2,0.2-0.5,0.6-0.7,0.5c-0.3-0.1-0.7-0.4-0.8-0.7
		C1380.5,449.9,1380.7,449.4,1380.7,448.6z"/>
	<path class="st9" d="M1379.9,437c0.1,0.7,0.2,1.3,0.1,1.8c-0.6,3.4-1.2,6.9-1.8,10.3c-0.1,0.5-0.2,1-0.4,1.4
		c-0.1,0.2-0.6,0.4-0.8,0.4c-0.2,0-0.6-0.4-0.6-0.7c-0.1-0.5,0-1,0.1-1.5c0.5-3.2,1-6.4,1.6-9.6
		C1378.3,438.3,1378.3,437.3,1379.9,437z"/>
	<path class="st9" d="M1416.6,435.2c0.5,0.1,0.7,0,0.8,0.1c2.6,2.7,5.2,5.4,7.7,8.2c0.2,0.3,0.1,0.9,0.2,1.3c-0.5-0.1-1.2,0-1.5-0.3
		c-2.3-2.4-4.6-4.8-6.9-7.3c-0.3-0.3-0.5-0.7-0.6-1.1C1416.3,435.9,1416.5,435.6,1416.6,435.2z"/>
	<path class="st9" d="M1428.5,440.4c-0.6,0.3-1,0.7-1.3,0.6c-0.4-0.1-0.9-0.5-1.2-0.8c-2-1.9-4-3.8-6-5.7c-0.4-0.3-0.7-0.7-0.9-1.2
		c-0.1-0.2,0.1-0.6,0.3-0.9c0.1-0.1,0.5-0.2,0.7-0.1c0.4,0.2,0.7,0.4,1,0.7c2.1,2,4.3,4,6.4,6C1427.7,439.4,1428,439.8,1428.5,440.4
		z"/>
	<path class="st9" d="M1437.9,399.1c-0.1,1.3-0.1,2.7-0.2,4c0,0.3-0.5,0.6-0.7,0.9c-0.3-0.3-0.8-0.5-1-0.9c-0.2-0.5-0.1-1.1,0-1.7
		c0.1-1.8,0.3-3.6,0.5-5.4c0-0.1,0-0.2,0-0.2c0.1-0.7,0.1-1.5,1-1.3c0.3,0,0.7,0.9,0.7,1.3c0.1,1.2-0.1,2.3-0.1,3.5
		C1438,399.1,1437.9,399.1,1437.9,399.1z"/>
	<path class="st9" d="M1440.8,393.1c1.6,1.7,1.7,2.8,1.2,8.5c-0.1,1,0.3,2.4-1.6,3.1C1440.1,400.8,1440.4,397.3,1440.8,393.1z"/>
	<g>
		<path class="st10" d="M1490,597.7c-1.1,0.6-1.9-0.2-2.7-0.7c-7.2-4.4-12.6-10.4-16.2-18c-6.6-14.1-6.6-28.4-1.3-42.8
			c5.2-13.8,14.3-24.3,27.7-30.9c1.7-0.8,1.7-0.8,3.4-0.5c-0.3,0.4-0.4,0.9-0.7,1.2c-0.3,0.3-0.7,0.4-1.1,0.5
			c-16.4,7.8-26.1,21-30.1,38.4c-2.6,11.3-1.6,22.4,3.4,33c3.6,7.5,8.9,13.5,16,17.8C1489.2,596.2,1490.4,596.4,1490,597.7z"/>
		<path class="st10" d="M1388.9,551.3c0.7,0.7,1.3,1.2,1.7,1.7c12.7,16.6,25.4,33.1,38.1,49.7c0.5,0.7,1.6,1.5,0.2,2.7
			c-0.6-0.6-1.2-1.2-1.7-1.8c-12.6-16.4-25.2-32.9-37.8-49.3C1388.8,553.7,1387.8,553,1388.9,551.3z"/>
		<path class="st10" d="M1359.6,575.9c-1.6-0.6-1.3-1.6-1.2-2.4c0.5-6.2,1.1-12.5,1.6-18.7c0.6-7.2,1.2-14.5,1.9-21.7
			c0.3-3.3,0.6-6.6,0.9-10c0.1-0.7,0.1-1.5,1.5-1.7c0.1,0.8,0.3,1.6,0.2,2.3c-0.6,7-1.1,14-1.7,20.9c-0.6,7.3-1.3,14.6-1.9,21.9
			c-0.2,2.2-0.3,4.5-0.6,6.7C1360.1,574.3,1359.8,575,1359.6,575.9z"/>
		<path class="st10" d="M1514.1,579.2c0.4-0.3,0.7-0.6,1.1-0.7c3.5-1.1,6.1-3.4,8.5-6c5.3-5.8,8.8-12.5,10.7-20.1
			c0.1-0.4,0.2-0.8,0.2-1.2c0-0.2,0-0.5,0-0.8c-2.5-0.2-5-0.2-7.4-0.5c-9-1.2-16.9-4.6-23.2-11.1c-0.6-0.6-1.1-1.3-1.6-2
			c0.1-0.2,0.2-0.3,0.3-0.5c0.5,0.1,1,0.1,1.5,0.3c0.4,0.2,0.7,0.7,1.1,1c8.2,8,18.1,11.3,29.4,10.7c0.6,0,1.1,0.1,2,0.1
			c0,1,0,1.9-0.2,2.7c-2,9.5-6.3,17.7-13.3,24.4c-2,1.9-4.2,3.5-6.9,4.4C1515.5,580.2,1514.7,580.6,1514.1,579.2z"/>
		<path class="st10" d="M1520.3,520.2c0.4-0.2,0.9-0.5,1.2-0.5c4.9,0.9,8.6,3.5,11.1,7.7c0.1,0.2,0.3,0.5,0.2,0.7
			c0,0.3-0.1,0.7-0.3,0.9c-0.2,0.1-0.7,0.1-0.9-0.1c-0.4-0.3-0.6-0.8-0.9-1.2c-2-3.1-4.9-5.1-8.5-6.1
			C1521.4,521.4,1520.5,521.4,1520.3,520.2z"/>
		<path class="st10" d="M1434.1,565.2c-1.6-0.4-1.2-1.4-1.2-2.1c0.2-4.6,0.4-9.2,0.6-13.7c0.3-5.7,0.6-11.5,0.9-17.2
			c0.2-4.4,0.5-8.8,0.8-13.2c0-0.7-0.1-1.6,1-1.8c1,0.4,0.7,1.4,0.7,2.1c-0.2,4.3-0.4,8.7-0.6,13c-0.3,5.7-0.6,11.3-0.9,17
			c-0.3,4.7-0.5,9.3-0.8,14C1434.6,563.9,1434.3,564.5,1434.1,565.2z"/>
	</g>
	<path class="st11" d="M1462.1,495.1c-1.2,0.9-2.3,1.8-3.4,2.7c-1.8,1.4-3.8,2.5-6,3.1c-4.8,1.4-8.7,0.1-12-3.6
		c-0.3-0.4-0.6-0.7-1.1-1.3c0,0-2.5-3.7-2.3-6.7c0-1.6,0.2-3.2,0.6-4.8c0.8-3.1,2.2-5.9,4.3-8.4c2.6-3.1,5.9-4.7,9.9-4.8
		c3.6-0.1,7,2.2,7.9,5.8c0.9,3.6-0.7,7.4-4,8.9c-2.8,1.3-5.7,2.1-8.8,2.3c-1,0.1-2,0.1-3,0.2c-0.7,4.2,2.7,7.5,6.6,6.4
		c1.1-0.3,2.3-0.8,3.2-1.5c1.9-1.4,3.6-2.9,5.4-4.5c0.1-0.1,0.2-0.2,0.3-0.3c0.6-0.7,1.6-0.5,1.9,0.3
		C1462.5,490.9,1463.3,493.8,1462.1,495.1z M1445.8,482.1c2.6-0.1,4.8-0.7,7-1.5c0.9-0.3,1.2-1,1-1.8s-0.8-1.2-1.7-1.2
		C1449.3,477.7,1447.2,479.1,1445.8,482.1z M1450,499.3c1.4-0.2,2.7-0.4,3.6-1.4c0.2-0.3,0.4-0.8,0.3-1.1c0-0.2-0.5-0.6-0.8-0.6
		c-1.5,0.3-3,0.6-4.4,1.2c-0.8,0.4-0.6,1.4,0.3,1.7C1449.4,499.2,1449.7,499.2,1450,499.3z M1442.6,479.7c1.1,0,3.3-2.4,3.3-3.3
		c0-0.6-0.4-0.9-0.9-0.8c-1,0.1-3.1,2.3-2.9,3.3C1442.1,479.3,1442.4,479.6,1442.6,479.7z M1445.7,496.2c-0.3,0.5-0.6,0.8-0.6,1.1
		c0,0.2,0.5,0.4,0.8,0.6c0.2-0.3,0.5-0.6,0.6-0.9C1446.5,496.9,1446.1,496.6,1445.7,496.2z M1441.5,480.6c-0.3,0.6-0.6,1-0.6,1.4
		c0,0.1,0.6,0.5,0.7,0.5c0.3-0.2,0.6-0.6,0.6-0.9C1442.3,481.4,1441.9,481.1,1441.5,480.6z"/>
	<path class="st11" d="M1480.5,465.8c2.4,0,4.5,0.5,6.5,1.6c0.7,0.4,1.3,0.8,1.9,1.4c1.1,1.1,1.1,2.8,0.2,3.9s-2.3,1.5-3.7,0.9
		c-0.4-0.2-0.7-0.5-1.1-0.6c-1.2-0.4-2.4-0.9-3.6-0.9c-0.9,0-2,0.4-2.8,1c-1.9,1.4-1.6,3.2,0.6,4c1.3,0.5,2.8,0.8,4.1,1.4
		c1.8,0.8,3.7,1.5,5.3,2.6c4.4,3.1,4.8,8.4,1,12.3c-4.2,4.2-10.4,4.8-15.4,1.9c-1.4-0.8-2.5-2.1-3.1-3.6c-0.6-1.6-0.1-3.3,1.4-4
		c1.4-0.7,3.1-0.4,4,1c0.9,1.5,2.2,2,3.7,2.1c1.8,0.2,3.3-0.3,4.7-1.5c1.4-1.2,1.4-2.4-0.2-3.3c-1.5-0.8-3.1-1.4-4.8-2.1
		c-1.1-0.4-2.3-0.7-3.4-1.1c-5.7-2.3-7.2-9-3-13.5C1474.8,467,1477.5,465.7,1480.5,465.8z M1489,486.5c-0.2-0.4-0.5-1.1-0.9-1.6
		c-0.2-0.2-0.8-0.3-1.1-0.2c-0.2,0.1-0.5,0.6-0.5,0.8c0.1,1.1,0.1,2.2-0.3,3.3c-0.1,0.2,0.1,0.8,0.3,0.9c0.3,0.1,0.8,0.1,1.1-0.1
		C1488.5,489,1488.9,487.9,1489,486.5z M1474.6,472.7c0.7,0,3.4-2.4,3.6-3c0.1-0.7-0.5-1.3-1.2-1.1c-1.4,0.4-2.5,1.3-3.2,2.6
		C1473.4,471.8,1473.9,472.7,1474.6,472.7z M1486.5,491.6c-0.6-0.4-1-0.9-1.3-0.8s-0.8,0.5-0.9,0.9c-0.1,0.6,0.3,0.9,0.9,0.8
		C1485.6,492.4,1485.9,492.1,1486.5,491.6z M1473.6,475.1c0.3-0.3,0.4-0.5,0.6-0.8c-0.3-0.2-0.5-0.4-0.8-0.6
		c-0.2,0.2-0.4,0.4-0.4,0.7C1473,474.7,1473.3,474.9,1473.6,475.1z"/>
	<path class="st9" d="M1450,499.3c-0.3-0.1-0.7-0.1-1-0.2c-0.9-0.3-1.1-1.4-0.3-1.7c1.4-0.6,2.9-0.9,4.4-1.2c0.2,0,0.7,0.3,0.8,0.6
		c0.1,0.3-0.1,0.8-0.3,1.1C1452.7,498.9,1451.4,499.1,1450,499.3z"/>
	<path class="st9" d="M1442.6,479.7c-0.1-0.2-0.5-0.5-0.6-0.8c-0.1-1,1.9-3.2,2.9-3.3c0.6,0,0.9,0.2,0.9,0.8
		C1445.9,477.4,1443.6,479.7,1442.6,479.7z"/>
	<path class="st9" d="M1445.7,496.2c0.4,0.4,0.8,0.6,0.8,0.8c0,0.3-0.4,0.6-0.6,0.9c-0.3-0.2-0.8-0.4-0.8-0.6
		C1445,497.1,1445.4,496.7,1445.7,496.2z"/>
	<path class="st9" d="M1441.5,480.6c0.4,0.5,0.8,0.8,0.7,1c-0.1,0.3-0.4,0.7-0.6,0.9c-0.1,0.1-0.7-0.3-0.7-0.5
		C1440.9,481.6,1441.2,481.2,1441.5,480.6z"/>
	<path class="st9" d="M1489,486.5c-0.1,1.4-0.5,2.4-1.4,3.1c-0.3,0.2-0.8,0.2-1.1,0.1c-0.2-0.1-0.4-0.7-0.3-0.9
		c0.5-1.1,0.5-2.2,0.3-3.3c0-0.3,0.2-0.8,0.5-0.8c0.3-0.1,0.9,0,1.1,0.2C1488.5,485.4,1488.8,486.1,1489,486.5z"/>
	<path class="st9" d="M1474.6,472.7c-0.7,0-1.2-0.8-0.9-1.5c0.7-1.3,1.8-2.2,3.2-2.6c0.7-0.2,1.3,0.4,1.2,1.1
		C1478.1,470.2,1475.3,472.6,1474.6,472.7z"/>
	<path class="st9" d="M1486.5,491.6c-0.6,0.4-0.9,0.8-1.3,0.9c-0.5,0.1-1-0.3-0.9-0.8c0.1-0.4,0.5-0.9,0.9-0.9
		C1485.5,490.7,1485.9,491.2,1486.5,491.6z"/>
	<path class="st9" d="M1473.6,475.1c-0.3-0.3-0.6-0.5-0.6-0.7s0.3-0.4,0.4-0.7c0.3,0.2,0.5,0.4,0.8,0.6
		C1474,474.6,1473.8,474.8,1473.6,475.1z"/>
	<path class="st12" d="M1476.6,464.3c0.2,0.1,0.5,0.3,0.6,0.5c0,0.2-0.2,0.6-0.4,0.7c-0.4,0.2-0.9,0.3-1.3,0.5
		c-3.6,1.5-5.7,4.3-6.4,8.1c-0.2,1.3,0.3,2.7,0.4,4.1c0,0.3-0.2,0.7-0.3,1c-0.3-0.2-0.7-0.4-0.9-0.7c-0.7-1.7-0.8-3.4-0.4-5.1
		c1-4.2,3.4-7.2,7.5-8.7C1475.8,464.5,1476.1,464.4,1476.6,464.3z"/>
	<path class="st12" d="M1447.4,470c0.1,0.2,0.4,0.5,0.4,0.7c0,0.3-0.3,0.7-0.6,0.9c-0.5,0.2-1,0.3-1.5,0.4c-4,1.4-6.8,4.7-8.5,9.7
		c-0.6,1.7-0.5,3.7-0.8,5.6c-0.1,0.5-0.4,0.9-0.6,1.4c-0.2-0.4-0.6-0.7-0.6-1.2c-0.2-2.4,0.2-4.8,1.1-7c2.1-5.5,5.4-9,9.8-10.3
		C1446.5,470.1,1446.9,470,1447.4,470z"/>
	<path class="st12" d="M1449,493.6c-0.2-0.2-0.5-0.3-0.6-0.6c-0.1-0.1,0.3-0.4,0.5-0.6c0.1-0.1,0.2-0.1,0.3-0.1
		c3.2-0.5,5.6-2.4,8-4.6c0.5-0.4,0.9-1.5,1.7-0.7c0.6,0.6-0.4,1.1-0.8,1.5c-2.3,2.2-4.8,4.1-8,4.8
		C1449.7,493.5,1449.4,493.5,1449,493.6z"/>
	<path class="st12" d="M1490.5,472.2c1,0.6,0.7,1.2,0.3,1.7c-1,1.6-3.1,2.4-5.2,1.9c-0.4-0.1-0.8-0.2-1.2-0.4
		c-1.1-0.5-2.3-0.9-3.4-1.5c-0.3-0.1-0.4-0.5-0.6-0.7c0.3-0.2,0.6-0.5,0.8-0.5c0.7,0.1,1.4,0.4,2,0.7c0.7,0.3,1.4,0.7,2.1,1
		c1.9,0.7,3.3,0.3,4.5-1.4C1490,472.8,1490.2,472.6,1490.5,472.2z"/>
	<path class="st12" d="M1482.2,487.5c-1.1-0.5-2.3-1.1-3.8-1.7c0.6-0.3,0.9-0.7,1.2-0.7c1,0.3,2.1,0.6,3,1.2c1.2,0.7,1.2,2,0.1,2.8
		s-2.4,0.9-3.8,0.7c-0.2,0-0.4-0.5-0.6-0.7c0.2-0.2,0.4-0.4,0.7-0.5c0.4-0.1,0.8,0,1.2-0.1c0.7-0.1,1.3-0.4,1.9-0.6
		C1482.1,487.8,1482.1,487.6,1482.2,487.5z"/>
	<g>
		<path class="st10" d="M1459.2,419.1c1.1-12.1,8.1-22.8,20.5-30c2.4-1.4,5.2-2.3,7.8-3.4c0.5-0.2,1.1-0.4,1.7-0.4
			c0.3,0,0.7,0.3,1,0.5c-0.2,0.4-0.3,1-0.7,1.1c-0.6,0.4-1.4,0.5-2.1,0.7c-10.8,3.8-18.8,10.7-23.5,21.2c-5.1,11.5-4.3,22.8,3,33.2
			c2.8,4,6.5,6.9,10.7,9.2c0.7,0.4,2.2,0.6,1.5,1.8c-0.6,1.1-1.6,0.1-2.4-0.3C1465.5,446.9,1458.6,434.7,1459.2,419.1z"/>
		<path class="st10" d="M1376.9,404.2c-1.4,8-2.7,15.5-4,22.9c-1.4,8.1-2.9,16.3-4.3,24.4c-0.1,0.3-0.1,0.7-0.2,1
			c-0.1,0.7-0.3,1.5-1.2,1.3c-0.9-0.2-0.7-1-0.5-1.7c1.5-8.7,3-17.4,4.6-26.1c1.2-6.8,2.4-13.6,3.6-20.4c0.1-0.4,0-0.9,0.2-1.2
			c0.2-0.5,0.7-0.8,1-1.2C1376.5,403.6,1376.8,404,1376.9,404.2z"/>
		<path class="st10" d="M1424.3,456.4c-1,0-1.5,0.2-1.8,0.1c-0.5-0.3-1-0.9-1.4-1.4c-7.5-8.8-15-17.6-22.5-26.4
			c-0.4-0.5-0.9-1-1.2-1.6c-0.1-0.2-0.1-0.8,0.1-0.9c0.3-0.2,0.8-0.3,1.1-0.1c0.5,0.3,0.8,0.8,1.2,1.2c7.6,8.9,15.3,17.9,22.9,26.8
			C1423.2,454.7,1423.6,455.4,1424.3,456.4z"/>
		<path class="st10" d="M1431.2,392.2c1.1,0.5,0.7,1.4,0.7,2.2c-0.4,5-0.9,10-1.4,15c-0.5,5.2-1.1,10.3-1.6,15.4
			c-0.1,0.8,0.1,2-1.1,1.8c-1.2-0.1-0.7-1.3-0.7-2.1c0.8-8,1.6-15.9,2.4-23.9c0.2-2.2,0.5-4.5,0.7-6.7
			C1430.3,393.3,1430.2,392.5,1431.2,392.2z"/>
		<path class="st10" d="M1557.5,417.4c-0.4,0.5-0.6,1.1-1.1,1.4c-2.9,2.4-6.3,4-9.7,5.5c-0.4,0.1-0.9-0.1-1.3-0.2
			c0.2-0.5,0.3-1.1,0.7-1.4c0.7-0.5,1.5-0.7,2.2-1.1c2.3-1.3,4.6-2.7,6.9-4C1555.8,417.2,1556.4,416.4,1557.5,417.4z"/>
		<path class="st10" d="M1522.6,425.4c0.1,1-0.5,1.2-1.3,1.1c-1.4-0.2-2.8-0.3-4.2-0.7c-9.7-2.4-17.7-7.2-23.1-15.8
			c-0.7-1.1-1.3-2.3-1.9-3.5c-0.1-0.3,0.2-0.8,0.3-1.3c0.4,0.2,0.9,0.3,1.2,0.6c0.3,0.3,0.5,0.9,0.7,1.3c5.5,9.9,14.2,15.2,25,17.4
			c0.9,0.2,1.8,0.3,2.7,0.5C1522.3,425.1,1522.5,425.3,1522.6,425.4z"/>
	</g>
	<g>
		<path class="st9" d="M1466.1,326.5c16.4-0.5,31.6,1.9,46.6,5.9c0.5,0.1,1.1,0.3,1.6,0.5c5.3,1.7,5.5,1.7,5.3,7.2
			c-0.3,7.3-3.5,13.3-9.2,17.8c-5.4,4.3-11.7,5.9-18.6,5.4c-2-0.2-4.1-0.4-6.1-0.6c-4.7-0.5-9-2.2-13-4.8c-0.7-0.5-1.5-0.8-2.1-1.4
			c-3.2-3-6.7-2.7-10.3-1c-2.4,1.2-4.9,2.3-7.2,3.6c-5.2,2.9-10.9,4.5-16.8,4.7c-7.3,0.3-14-1.5-19.4-6.9c-3.5-3.6-4.9-8.1-5.7-12.8
			c-0.3-1.9,0.4-3.5,2-4.6c1.4-0.9,2.8-1.8,4.3-2.5c8.9-4.1,18.4-6.4,28-8.3C1452.6,327,1459.7,326.4,1466.1,326.5z"/>
		<path class="st13" d="M1471.6,706.3c-11.1-0.2-22.4,0.4-33.4-1.9c-9.2-1.9-18.3-4.3-27.1-7.7c-3.9-1.5-7.8-3-11.7-4.5
			c-6.6-2.5-13-5.7-19-9.4c-7.6-4.7-15.5-9-22.6-14.4c-13.3-10.1-24.6-22.2-34.9-35.2c-12.2-15.5-22.1-32.5-30.4-50.4
			c-10.1-21.9-19.2-44.3-28-66.7c-2.4-6.1-5.2-12.1-7.8-18.2c-0.6-1.5-1.2-2.9-1.7-4.4c-0.8-2.4-0.1-4.4,1.6-6.1
			c1-1.1,2-2.2,2.7-3.4c7.9-13.5,14.1-27.7,19.9-42.1c5.7-14.3,11.7-28.4,17.8-42.5c8.1-18.9,16.6-37.7,26.3-55.8
			c5.5-10.4,11.3-20.6,18.5-29.9c5.4-6.9,11.3-13.4,17.9-19.2c14.8-12.9,32-20.4,51.6-22.5c15.8-1.7,31,0.9,45.9,5.8
			c6.4,2.1,12.7,4.3,19,6.7c3.3,1.3,6.5,1.5,9.8,0.7c4.2-1.1,8.4-2.3,12.6-3.6c7.6-2.5,15-5.7,22.8-7.6c14.7-3.6,29.5-3.4,44.1,1.2
			c10.2,3.2,20,7.2,28.5,13.8c13.5,10.3,23.3,23.4,29.8,39.1c6.2,15,10.3,30.5,13.1,46.4c2.7,15.3,4.8,30.7,6.5,46.2
			c2.5,23.2,6.1,46.3,11.3,69.2c1,4.2,2.3,8.2,4.2,12.1c1.7,3.4,1.6,6.7-1.1,9.6c-8.4,9.2-14.4,19.9-20.2,30.8
			c-11.3,21-22.1,42.2-33.5,63.2c-4.9,9.1-10.7,17.7-16.3,26.4c-3.6,5.6-7.7,11-11.3,16.6c-14,22.1-32.9,38.2-56.7,48.9
			c-11.9,5.4-24.2,8.4-37.2,9C1478.8,706.3,1475.2,706.3,1471.6,706.3z M1266.4,491c0.6,0.5,1,0.9,1.4,1.2c4.4,4,9,7.8,13.2,12
			c6.1,6.3,11,13.6,15.9,20.9c10.6,15.8,22.2,30.9,33.8,45.9c14.5,18.7,31.1,35.1,50.4,48.8c17.4,12.3,35.9,22.4,57,26.8
			c6.1,1.3,12.2,2.6,18.4,3.3c8.5,0.9,17.1,0.4,25.6-0.9c11.2-1.8,22.1-4.5,32.4-9.2c19.7-9,36.2-22.5,50.4-38.6
			c8.8-9.9,16.3-20.8,23.7-31.8c10-15.1,20.3-29.9,31.6-44c7.4-9.2,15.5-17.6,25.3-24.3c0.3-0.2,0.5-0.5,0.9-0.9
			c-0.9-0.8-1.7-1.4-2.4-2.1c-8.3-8-16.7-16-24.9-24.1c-8.9-8.9-16.2-18.9-22.1-30.1c-6.2-11.8-12.2-23.6-18.4-35.5
			c-5.9-11.2-11.8-22.4-18.9-32.9c-6.3-9.2-13.6-17.5-22.9-23.8c-10.7-7.2-22.3-12.7-34.6-16.7c-5.5-1.8-11.2-2.9-17-3
			c-18-0.4-35.9,0.7-53.6,4.6c-10,2.2-18.9,6.1-26.5,13c-4.1,3.7-8.3,7.2-12.2,11.1c-8.1,8.3-16.1,16.9-24,25.4
			c-14.8,15.9-29.6,31.8-44.3,47.7c-8,8.7-15.8,17.6-24.2,25.9c-7.7,7.7-16.1,14.7-24.2,22C1272.9,484.7,1269.7,487.8,1266.4,491z"
			/>
	</g>
</g>
</svg>
