<?xml version="1.0" encoding="utf-8"?>
<!-- Generator: Adobe Illustrator 25.4.1, SVG Export Plug-In . SVG Version: 6.00 Build 0)  -->
<svg version="1.1" id="Capa_1" xmlns="http://www.w3.org/2000/svg" xmlns:xlink="http://www.w3.org/1999/xlink" x="0px" y="0px"
	 viewBox="0 0 1920 1080" style="enable-background:new 0 0 1920 1080;" xml:space="preserve">
<style type="text/css">
	.st0{fill-rule:evenodd;clip-rule:evenodd;fill:#C8B5EE;}
	.st1{fill:#E2EE6A;}
	.st2{fill:#AFDBD1;}
	.st3{enable-background:new    ;}
	.st4{clip-path:url(#SVGID_00000108283086696381203970000012958054323449686204_);}
	.st5{clip-path:url(#SVGID_00000025410944330313094750000011713918425478673076_);}
	.st6{fill:#111111;}
	.st7{fill:#E1B3D5;}
	.st8{fill-rule:evenodd;clip-rule:evenodd;fill:#3C246F;}
	.st9{fill:#FFFFFF;}
</style>
<path class="st0" d="M1923.9-1.2H-0.4v884.9h2v72c0,0,442-141,1464,0c0,0,336,31,456,17v-89h2.2V-1.2H1923.9z"/>
<path class="st1" d="M1814.4,155.7c0,6.9-4.9,10.3-8.9,13c-3.9,2.7-6.1,4.3-6.1,7.6s2.2,4.9,6.1,7.6c4,2.7,8.9,6.1,8.9,13
	s-4.9,10.3-8.9,13c-3.9,2.7-6.1,4.3-6.1,7.6c0,1.8-1.5,3.3-3.3,3.3s-3.3-1.5-3.3-3.3c0-6.9,4.9-10.3,8.9-13c3.9-2.7,6.1-4.3,6.1-7.6
	s-2.2-4.9-6.1-7.6c-4-2.7-8.9-6.1-8.9-13s4.9-10.3,8.9-13c3.9-2.7,6.1-4.3,6.1-7.6s-2.2-4.9-6.1-7.6c-4-2.7-8.9-6.1-8.9-13
	c0-1.8,1.5-3.3,3.3-3.3s3.3,1.5,3.3,3.3c0,3.3,2.2,4.9,6.1,7.6C1809.4,145.4,1814.4,148.8,1814.4,155.7"/>
<path class="st2" d="M-0.2,810.6c68.8,0,124.5-55.7,124.5-124.5S68.6,561.6-0.2,561.6C-0.2,561.6-0.2,810.6-0.2,810.6z"/>
<g class="st3">
	<path d="M247,402.5h11.6c3,0,5.7,0.6,8.1,1.9c2.4,1.3,4.2,3,5.5,5.2c1.3,2.2,2,4.7,2,7.5c0,2.8-0.7,5.3-2,7.5
		c-1.3,2.2-3.1,3.9-5.5,5.2c-2.4,1.3-5,1.9-8.1,1.9H247V402.5z M258.4,429.8c2.7,0,5.1-0.5,7.1-1.6c2.1-1.1,3.6-2.6,4.8-4.5
		s1.7-4.1,1.7-6.6c0-2.5-0.6-4.7-1.7-6.6c-1.1-1.9-2.7-3.4-4.8-4.5c-2.1-1.1-4.4-1.6-7.1-1.6h-9.3v25.4H258.4z"/>
	<path d="M299.2,423.5h-17l-3.7,8.2h-2.3l13.4-29.2h2.1l13.4,29.2h-2.3L299.2,423.5z M298.4,421.7l-7.7-16.9l-7.6,16.9H298.4z"/>
	<path d="M314.7,404.4h-10.5v-1.9h23.2v1.9h-10.5v27.3h-2.1V404.4z"/>
	<path d="M338.6,404.4h-10.5v-1.9h23.2v1.9h-10.5v27.3h-2.1V404.4z"/>
	<path d="M360.7,430c-2.3-1.3-4.1-3.1-5.5-5.3c-1.3-2.3-2-4.8-2-7.6c0-2.8,0.7-5.3,2-7.6c1.3-2.3,3.1-4,5.5-5.3
		c2.3-1.3,4.9-1.9,7.8-1.9c2.9,0,5.5,0.6,7.8,1.9c2.3,1.3,4.1,3,5.5,5.3c1.3,2.3,2,4.8,2,7.6c0,2.8-0.7,5.3-2,7.6
		c-1.3,2.3-3.1,4-5.5,5.3c-2.3,1.3-4.9,1.9-7.8,1.9C365.6,431.9,363.1,431.3,360.7,430z M375.2,428.3c2-1.1,3.5-2.7,4.7-4.6
		c1.1-2,1.7-4.2,1.7-6.6s-0.6-4.6-1.7-6.6c-1.1-2-2.7-3.5-4.7-4.6c-2-1.1-4.2-1.7-6.6-1.7c-2.5,0-4.7,0.6-6.7,1.7
		c-2,1.1-3.6,2.7-4.7,4.6c-1.1,2-1.7,4.2-1.7,6.6s0.6,4.6,1.7,6.6c1.1,2,2.7,3.5,4.7,4.6c2,1.1,4.2,1.7,6.7,1.7
		C371,430,373.2,429.4,375.2,428.3z"/>
	<path d="M390.6,428.9c0.3,0.3,0.5,0.8,0.5,1.2c0,0.3,0,0.6-0.1,0.9c-0.1,0.3-0.2,0.7-0.3,1l-1.6,5.7h-1.5l1.4-5.9
		c-0.4-0.1-0.8-0.3-1-0.6c-0.3-0.3-0.4-0.7-0.4-1.1c0-0.5,0.2-0.9,0.5-1.3s0.8-0.5,1.3-0.5C389.9,428.3,390.3,428.5,390.6,428.9z"/>
	<path d="M427.1,421.3h-18.8c0.1,1.7,0.5,3.2,1.3,4.5c0.8,1.3,1.9,2.3,3.3,3.1c1.4,0.7,2.9,1.1,4.7,1.1c1.4,0,2.7-0.3,3.9-0.8
		c1.2-0.5,2.2-1.3,3-2.3l1.2,1.4c-0.9,1.1-2.1,2-3.6,2.6c-1.4,0.6-3,0.9-4.7,0.9c-2.2,0-4.1-0.5-5.8-1.4c-1.7-0.9-3-2.3-4-3.9
		c-1-1.7-1.4-3.6-1.4-5.7c0-2.1,0.5-4,1.4-5.7c0.9-1.7,2.2-3,3.7-3.9c1.6-0.9,3.4-1.4,5.3-1.4c2,0,3.8,0.5,5.3,1.4
		c1.6,0.9,2.8,2.2,3.7,3.9c0.9,1.7,1.4,3.6,1.4,5.7L427.1,421.3z M412.6,412.6c-1.2,0.7-2.2,1.6-2.9,2.9c-0.7,1.2-1.2,2.6-1.3,4.2
		h16.7c-0.1-1.6-0.5-3-1.3-4.2s-1.7-2.2-3-2.9c-1.2-0.7-2.6-1-4.1-1C415.2,411.6,413.8,411.9,412.6,412.6z"/>
	<path d="M434.1,431.1c-1.6-0.5-2.8-1.2-3.7-2l1-1.7c0.9,0.8,2,1.4,3.4,1.9c1.4,0.5,2.9,0.8,4.4,0.8c2.2,0,3.8-0.4,4.9-1.1
		c1-0.7,1.6-1.7,1.6-3c0-0.9-0.3-1.6-0.9-2.2c-0.6-0.5-1.3-0.9-2.1-1.2s-2-0.5-3.5-0.8c-1.7-0.3-3.1-0.6-4.2-1
		c-1.1-0.4-2-0.9-2.7-1.8c-0.8-0.8-1.1-1.9-1.1-3.3c0-1.7,0.7-3.2,2.2-4.3s3.5-1.7,6.1-1.7c1.4,0,2.8,0.2,4.1,0.6
		c1.4,0.4,2.5,0.9,3.3,1.5l-1,1.7c-0.9-0.6-1.9-1.1-3-1.5c-1.1-0.3-2.3-0.5-3.5-0.5c-2,0-3.6,0.4-4.6,1.1c-1,0.8-1.5,1.7-1.5,3
		c0,1,0.3,1.7,0.9,2.3c0.6,0.5,1.3,0.9,2.2,1.2c0.8,0.3,2,0.6,3.6,0.9c1.7,0.3,3.1,0.6,4.1,1c1,0.3,1.9,0.9,2.7,1.7
		c0.7,0.8,1.1,1.9,1.1,3.2c0,1.8-0.8,3.3-2.3,4.3c-1.5,1.1-3.6,1.6-6.3,1.6C437.4,431.9,435.7,431.6,434.1,431.1z"/>
	<path d="M483.4,409.9v21.8h-2V427c-0.7,1.5-1.8,2.7-3.2,3.6c-1.4,0.8-3.1,1.3-5,1.3c-2.8,0-5.1-0.8-6.7-2.4
		c-1.6-1.6-2.4-3.9-2.4-6.8v-12.7h2.1v12.6c0,2.5,0.6,4.3,1.9,5.6c1.3,1.3,3,1.9,5.3,1.9c2.5,0,4.4-0.8,5.8-2.3
		c1.4-1.5,2.2-3.6,2.2-6.2v-11.6H483.4z"/>
	<path d="M509.4,412.1c1.6,1.6,2.4,3.9,2.4,6.9v12.7h-2.1v-12.6c0-2.5-0.6-4.3-1.9-5.6c-1.2-1.3-3-1.9-5.2-1.9
		c-2.6,0-4.6,0.8-6.1,2.3c-1.5,1.5-2.2,3.6-2.2,6.2v11.6h-2.1v-21.8h2v4.7c0.8-1.5,1.9-2.7,3.4-3.6c1.5-0.9,3.3-1.3,5.3-1.3
		C505.7,409.7,507.8,410.5,509.4,412.1z"/>
	<path d="M531.6,431.1c-1.6-0.5-2.8-1.2-3.7-2l1-1.7c0.9,0.8,2,1.4,3.4,1.9c1.4,0.5,2.9,0.8,4.4,0.8c2.2,0,3.8-0.4,4.9-1.1
		c1-0.7,1.6-1.7,1.6-3c0-0.9-0.3-1.6-0.9-2.2c-0.6-0.5-1.3-0.9-2.1-1.2s-2-0.5-3.5-0.8c-1.7-0.3-3.1-0.6-4.2-1
		c-1.1-0.4-2-0.9-2.7-1.8c-0.8-0.8-1.1-1.9-1.1-3.3c0-1.7,0.7-3.2,2.2-4.3s3.5-1.7,6.1-1.7c1.4,0,2.8,0.2,4.1,0.6
		c1.4,0.4,2.5,0.9,3.3,1.5l-1,1.7c-0.9-0.6-1.9-1.1-3-1.5c-1.1-0.3-2.3-0.5-3.5-0.5c-2,0-3.6,0.4-4.6,1.1c-1,0.8-1.5,1.7-1.5,3
		c0,1,0.3,1.7,0.9,2.3c0.6,0.5,1.3,0.9,2.2,1.2c0.8,0.3,2,0.6,3.6,0.9c1.7,0.3,3.1,0.6,4.1,1c1,0.3,1.9,0.9,2.7,1.7
		c0.7,0.8,1.1,1.9,1.1,3.2c0,1.8-0.8,3.3-2.3,4.3c-1.5,1.1-3.6,1.6-6.3,1.6C534.9,431.9,533.2,431.6,531.6,431.1z"/>
	<path d="M550.9,404.1c-0.3-0.3-0.5-0.7-0.5-1.2s0.2-0.9,0.5-1.2c0.3-0.3,0.7-0.5,1.2-0.5c0.5,0,0.9,0.2,1.2,0.5
		c0.3,0.3,0.5,0.7,0.5,1.2c0,0.5-0.2,0.9-0.5,1.2c-0.3,0.3-0.7,0.5-1.2,0.5C551.7,404.6,551.3,404.4,550.9,404.1z M551.1,409.9h2.1
		v21.8h-2.1V409.9z"/>
	<path d="M572.8,430.3c-0.5,0.5-1.2,0.9-2,1.1c-0.8,0.3-1.6,0.4-2.5,0.4c-1.9,0-3.4-0.5-4.4-1.6c-1-1-1.5-2.5-1.5-4.4v-14.2h-4v-1.8
		h4v-4.8h2.1v4.8h6.9v1.8h-6.9v14c0,1.4,0.3,2.5,1,3.2c0.7,0.7,1.7,1.1,3,1.1c1.4,0,2.5-0.4,3.4-1.2L572.8,430.3z"/>
	<path d="M578.4,404.1c-0.3-0.3-0.5-0.7-0.5-1.2s0.2-0.9,0.5-1.2c0.3-0.3,0.7-0.5,1.2-0.5c0.5,0,0.9,0.2,1.2,0.5
		c0.3,0.3,0.5,0.7,0.5,1.2c0,0.5-0.2,0.9-0.5,1.2c-0.3,0.3-0.7,0.5-1.2,0.5C579.2,404.6,578.8,404.4,578.4,404.1z M578.6,409.9h2.1
		v21.8h-2.1V409.9z"/>
	<path d="M592.5,430.5c-1.7-0.9-3-2.3-3.9-3.9c-0.9-1.7-1.4-3.6-1.4-5.7s0.5-4,1.4-5.7c0.9-1.7,2.2-3,3.9-3.9
		c1.7-0.9,3.5-1.4,5.6-1.4c2.1,0,3.9,0.5,5.6,1.4c1.7,0.9,3,2.3,3.9,3.9c0.9,1.7,1.4,3.6,1.4,5.7s-0.5,4-1.4,5.7
		c-0.9,1.7-2.2,3-3.9,3.9c-1.7,0.9-3.5,1.4-5.6,1.4C596,431.9,594.1,431.4,592.5,430.5z M602.5,428.8c1.3-0.8,2.4-1.9,3.1-3.3
		c0.8-1.4,1.1-3,1.1-4.8s-0.4-3.4-1.1-4.8c-0.8-1.4-1.8-2.5-3.1-3.3c-1.3-0.8-2.8-1.2-4.5-1.2s-3.2,0.4-4.5,1.2
		c-1.3,0.8-2.4,1.9-3.1,3.3c-0.8,1.4-1.1,3-1.1,4.8s0.4,3.4,1.1,4.8c0.8,1.4,1.8,2.5,3.1,3.3c1.3,0.8,2.8,1.2,4.5,1.2
		S601.2,429.6,602.5,428.8z"/>
	<path d="M657.3,409.9l-8.3,21.8h-2l-7.4-18.9l-7.4,18.9h-1.9l-8.3-21.8h2l7.3,19.5l7.4-19.5h1.8l7.4,19.4l7.4-19.4H657.3z"/>
	<path d="M679.9,421.3h-18.8c0.1,1.7,0.5,3.2,1.3,4.5c0.8,1.3,1.9,2.3,3.3,3.1c1.4,0.7,2.9,1.1,4.7,1.1c1.4,0,2.7-0.3,3.9-0.8
		c1.2-0.5,2.2-1.3,3-2.3l1.2,1.4c-0.9,1.1-2.1,2-3.6,2.6c-1.4,0.6-3,0.9-4.7,0.9c-2.2,0-4.1-0.5-5.8-1.4c-1.7-0.9-3-2.3-4-3.9
		c-1-1.7-1.4-3.6-1.4-5.7c0-2.1,0.5-4,1.4-5.7c0.9-1.7,2.2-3,3.7-3.9c1.6-0.9,3.4-1.4,5.3-1.4c2,0,3.8,0.5,5.3,1.4
		c1.6,0.9,2.8,2.2,3.7,3.9c0.9,1.7,1.4,3.6,1.4,5.7L679.9,421.3z M665.4,412.6c-1.2,0.7-2.2,1.6-2.9,2.9c-0.7,1.2-1.2,2.6-1.3,4.2
		h16.7c-0.1-1.6-0.5-3-1.3-4.2s-1.7-2.2-3-2.9c-1.2-0.7-2.6-1-4.1-1C668,411.6,666.7,411.9,665.4,412.6z"/>
	<path d="M702.9,411.1c1.6,0.9,2.9,2.2,3.9,3.9c0.9,1.7,1.4,3.6,1.4,5.7s-0.5,4.1-1.4,5.7c-0.9,1.7-2.2,3-3.9,3.9
		c-1.6,0.9-3.5,1.4-5.5,1.4c-1.9,0-3.7-0.5-5.3-1.4c-1.6-0.9-2.8-2.2-3.7-3.9v5.1h-2v-31h2.1v14.2c0.9-1.6,2.1-2.9,3.6-3.8
		c1.6-0.9,3.3-1.4,5.2-1.4C699.4,409.7,701.3,410.2,702.9,411.1z M701.8,428.8c1.3-0.8,2.4-1.9,3.2-3.3c0.8-1.4,1.1-3,1.1-4.8
		s-0.4-3.4-1.1-4.8c-0.8-1.4-1.8-2.5-3.2-3.3c-1.3-0.8-2.8-1.2-4.5-1.2c-1.7,0-3.2,0.4-4.5,1.2c-1.3,0.8-2.4,1.9-3.1,3.3
		c-0.8,1.4-1.1,3-1.1,4.8s0.4,3.4,1.1,4.8c0.8,1.4,1.8,2.5,3.1,3.3c1.3,0.8,2.8,1.2,4.5,1.2C698.9,430,700.4,429.6,701.8,428.8z"/>
	<path d="M714.9,428.9c0.3,0.3,0.5,0.8,0.5,1.2c0,0.3,0,0.6-0.1,0.9c-0.1,0.3-0.2,0.7-0.3,1l-1.6,5.7h-1.5l1.4-5.9
		c-0.4-0.1-0.8-0.3-1-0.6c-0.3-0.3-0.4-0.7-0.4-1.1c0-0.5,0.2-0.9,0.5-1.3s0.8-0.5,1.3-0.5C714.2,428.3,714.6,428.5,714.9,428.9z"/>
	<path d="M749.5,411.2c1.6,0.9,2.9,2.3,3.9,3.9c0.9,1.7,1.4,3.6,1.4,5.7s-0.5,4.1-1.4,5.7c-0.9,1.7-2.2,3-3.9,3.9
		c-1.6,0.9-3.5,1.4-5.5,1.4c-1.9,0-3.7-0.5-5.2-1.4c-1.6-0.9-2.8-2.2-3.6-3.8v13.1H733v-29.9h2v5.1c0.9-1.7,2.1-3,3.7-3.9
		c1.6-0.9,3.3-1.4,5.3-1.4C746,409.7,747.8,410.2,749.5,411.2z M748.4,428.8c1.3-0.8,2.4-1.9,3.2-3.3c0.8-1.4,1.1-3,1.1-4.8
		s-0.4-3.4-1.1-4.8c-0.8-1.4-1.8-2.5-3.2-3.3c-1.3-0.8-2.8-1.2-4.5-1.2c-1.7,0-3.2,0.4-4.5,1.2c-1.3,0.8-2.4,1.9-3.1,3.3
		c-0.8,1.4-1.1,3-1.1,4.8s0.4,3.4,1.1,4.8c0.8,1.4,1.8,2.5,3.1,3.3c1.3,0.8,2.8,1.2,4.5,1.2C745.5,430,747,429.6,748.4,428.8z"/>
	<path d="M779.6,421.3h-18.8c0.1,1.7,0.5,3.2,1.3,4.5c0.8,1.3,1.9,2.3,3.3,3.1c1.4,0.7,2.9,1.1,4.7,1.1c1.4,0,2.7-0.3,3.9-0.8
		c1.2-0.5,2.2-1.3,3-2.3l1.2,1.4c-0.9,1.1-2.1,2-3.6,2.6c-1.4,0.6-3,0.9-4.7,0.9c-2.2,0-4.1-0.5-5.8-1.4c-1.7-0.9-3-2.3-4-3.9
		c-1-1.7-1.4-3.6-1.4-5.7c0-2.1,0.5-4,1.4-5.7c0.9-1.7,2.2-3,3.7-3.9c1.6-0.9,3.4-1.4,5.3-1.4c2,0,3.8,0.5,5.3,1.4
		c1.6,0.9,2.8,2.2,3.7,3.9c0.9,1.7,1.4,3.6,1.4,5.7L779.6,421.3z M765.1,412.6c-1.2,0.7-2.2,1.6-2.9,2.9c-0.7,1.2-1.2,2.6-1.3,4.2
		h16.7c-0.1-1.6-0.5-3-1.3-4.2s-1.7-2.2-3-2.9c-1.2-0.7-2.6-1-4.1-1C767.7,411.6,766.4,411.9,765.1,412.6z"/>
	<path d="M803.3,412.1c1.6,1.6,2.4,3.9,2.4,6.9v12.7h-2.1v-12.6c0-2.5-0.6-4.3-1.9-5.6c-1.2-1.3-3-1.9-5.2-1.9
		c-2.6,0-4.6,0.8-6.1,2.3c-1.5,1.5-2.2,3.6-2.2,6.2v11.6h-2.1v-21.8h2v4.7c0.8-1.5,1.9-2.7,3.4-3.6c1.5-0.9,3.3-1.3,5.3-1.3
		C799.5,409.7,801.7,410.5,803.3,412.1z"/>
	<path d="M814.8,431.1c-1.6-0.5-2.8-1.2-3.7-2l1-1.7c0.9,0.8,2,1.4,3.4,1.9c1.4,0.5,2.9,0.8,4.4,0.8c2.2,0,3.8-0.4,4.9-1.1
		c1-0.7,1.6-1.7,1.6-3c0-0.9-0.3-1.6-0.9-2.2c-0.6-0.5-1.3-0.9-2.1-1.2s-2-0.5-3.5-0.8c-1.7-0.3-3.1-0.6-4.2-1
		c-1.1-0.4-2-0.9-2.7-1.8c-0.8-0.8-1.1-1.9-1.1-3.3c0-1.7,0.7-3.2,2.2-4.3s3.5-1.7,6.1-1.7c1.4,0,2.8,0.2,4.1,0.6
		c1.4,0.4,2.5,0.9,3.3,1.5l-1,1.7c-0.9-0.6-1.9-1.1-3-1.5c-1.1-0.3-2.3-0.5-3.5-0.5c-2,0-3.6,0.4-4.6,1.1c-1,0.8-1.5,1.7-1.5,3
		c0,1,0.3,1.7,0.9,2.3c0.6,0.5,1.3,0.9,2.2,1.2c0.8,0.3,2,0.6,3.6,0.9c1.7,0.3,3.1,0.6,4.1,1c1,0.3,1.9,0.9,2.7,1.7
		c0.7,0.8,1.1,1.9,1.1,3.2c0,1.8-0.8,3.3-2.3,4.3c-1.5,1.1-3.6,1.6-6.3,1.6C818,431.9,816.4,431.6,814.8,431.1z"/>
	<path d="M847.8,411.8c1.4,1.4,2.2,3.4,2.2,6.1v13.8h-2v-3.9c-0.7,1.3-1.7,2.3-3,3c-1.3,0.7-2.9,1.1-4.8,1.1c-2.4,0-4.3-0.6-5.7-1.7
		c-1.4-1.1-2.1-2.6-2.1-4.5c0-1.8,0.6-3.3,1.9-4.4c1.3-1.1,3.4-1.7,6.2-1.7h7.5v-1.8c0-2-0.6-3.6-1.6-4.6c-1.1-1.1-2.7-1.6-4.8-1.6
		c-1.4,0-2.8,0.3-4.2,0.8c-1.3,0.5-2.4,1.2-3.4,2l-1-1.5c1.1-1,2.4-1.7,3.9-2.3c1.5-0.5,3.1-0.8,4.8-0.8
		C844.3,409.7,846.4,410.4,847.8,411.8z M845,428.9c1.3-0.8,2.2-2,2.9-3.6v-4.1h-7.4c-2.1,0-3.7,0.4-4.7,1.2c-1,0.8-1.4,1.9-1.4,3.2
		c0,1.4,0.5,2.5,1.6,3.4c1.1,0.8,2.5,1.2,4.5,1.2C842.2,430.2,843.8,429.8,845,428.9z"/>
	<path d="M878,400.7v31h-2v-5.1c-0.9,1.7-2.1,3-3.6,3.9c-1.6,0.9-3.3,1.4-5.3,1.4c-2,0-3.9-0.5-5.5-1.4c-1.6-0.9-2.9-2.3-3.9-3.9
		c-0.9-1.7-1.4-3.6-1.4-5.7s0.5-4.1,1.4-5.7c0.9-1.7,2.2-3,3.9-3.9c1.6-0.9,3.5-1.4,5.5-1.4c1.9,0,3.7,0.5,5.2,1.4s2.8,2.2,3.7,3.8
		v-14.2H878z M871.6,428.8c1.3-0.8,2.4-1.9,3.1-3.3c0.8-1.4,1.1-3,1.1-4.8s-0.4-3.4-1.1-4.8c-0.8-1.4-1.8-2.5-3.1-3.3
		c-1.3-0.8-2.8-1.2-4.5-1.2s-3.2,0.4-4.5,1.2c-1.3,0.8-2.4,1.9-3.1,3.3c-0.8,1.4-1.1,3-1.1,4.8s0.4,3.4,1.1,4.8
		c0.8,1.4,1.8,2.5,3.1,3.3c1.3,0.8,2.8,1.2,4.5,1.2S870.3,429.6,871.6,428.8z"/>
	<path d="M889.8,430.5c-1.7-0.9-3-2.3-3.9-3.9c-0.9-1.7-1.4-3.6-1.4-5.7s0.5-4,1.4-5.7c0.9-1.7,2.2-3,3.9-3.9
		c1.7-0.9,3.5-1.4,5.6-1.4c2.1,0,3.9,0.5,5.6,1.4c1.7,0.9,3,2.3,3.9,3.9c0.9,1.7,1.4,3.6,1.4,5.7s-0.5,4-1.4,5.7
		c-0.9,1.7-2.2,3-3.9,3.9c-1.7,0.9-3.5,1.4-5.6,1.4C893.3,431.9,891.4,431.4,889.8,430.5z M899.8,428.8c1.3-0.8,2.4-1.9,3.1-3.3
		c0.8-1.4,1.1-3,1.1-4.8s-0.4-3.4-1.1-4.8c-0.8-1.4-1.8-2.5-3.1-3.3c-1.3-0.8-2.8-1.2-4.5-1.2s-3.2,0.4-4.5,1.2
		c-1.3,0.8-2.4,1.9-3.1,3.3c-0.8,1.4-1.1,3-1.1,4.8s0.4,3.4,1.1,4.8c0.8,1.4,1.8,2.5,3.1,3.3c1.3,0.8,2.8,1.2,4.5,1.2
		S898.5,429.6,899.8,428.8z"/>
</g>
<g class="st3">
	<path d="M262.8,461.3c1.6,0.9,2.9,2.3,3.9,3.9c0.9,1.7,1.4,3.6,1.4,5.7s-0.5,4.1-1.4,5.7c-0.9,1.7-2.2,3-3.9,3.9
		c-1.6,0.9-3.5,1.4-5.5,1.4c-1.9,0-3.7-0.5-5.2-1.4c-1.6-0.9-2.8-2.2-3.6-3.8v13.1h-2.1V460h2v5.1c0.9-1.7,2.1-3,3.7-3.9
		c1.6-0.9,3.3-1.4,5.3-1.4C259.3,459.8,261.2,460.3,262.8,461.3z M261.7,478.9c1.3-0.8,2.4-1.9,3.2-3.3c0.8-1.4,1.1-3,1.1-4.8
		s-0.4-3.4-1.1-4.8c-0.8-1.4-1.8-2.5-3.2-3.3c-1.3-0.8-2.8-1.2-4.5-1.2c-1.7,0-3.2,0.4-4.5,1.2c-1.3,0.8-2.4,1.9-3.1,3.3
		c-0.8,1.4-1.1,3-1.1,4.8s0.4,3.4,1.1,4.8c0.8,1.4,1.8,2.5,3.1,3.3c1.3,0.8,2.8,1.2,4.5,1.2C258.8,480.1,260.3,479.7,261.7,478.9z"
		/>
	<path d="M288,461.9c1.4,1.4,2.2,3.4,2.2,6.1v13.8h-2v-3.9c-0.7,1.3-1.7,2.3-3,3c-1.3,0.7-2.9,1.1-4.8,1.1c-2.4,0-4.3-0.6-5.7-1.7
		c-1.4-1.1-2.1-2.6-2.1-4.5c0-1.8,0.6-3.3,1.9-4.4c1.3-1.1,3.4-1.7,6.2-1.7h7.5v-1.8c0-2-0.6-3.6-1.6-4.6c-1.1-1.1-2.7-1.6-4.8-1.6
		c-1.4,0-2.8,0.3-4.2,0.8c-1.3,0.5-2.4,1.2-3.4,2l-1-1.5c1.1-1,2.4-1.7,3.9-2.3c1.5-0.5,3.1-0.8,4.8-0.8
		C284.5,459.8,286.6,460.5,288,461.9z M285.3,479c1.3-0.8,2.2-2,2.9-3.6v-4.1h-7.4c-2.1,0-3.7,0.4-4.7,1.2c-1,0.8-1.4,1.9-1.4,3.2
		c0,1.4,0.5,2.5,1.6,3.4c1.1,0.8,2.5,1.2,4.5,1.2C282.4,480.3,284,479.9,285.3,479z"/>
	<path d="M303.9,461.1c1.4-0.8,3.1-1.3,5.2-1.3v2l-0.5,0c-2.4,0-4.3,0.8-5.7,2.3c-1.4,1.5-2,3.6-2,6.3v11.4h-2.1V460h2v4.8
		C301.5,463.2,302.5,462,303.9,461.1z"/>
	<path d="M328.5,461.9c1.4,1.4,2.2,3.4,2.2,6.1v13.8h-2v-3.9c-0.7,1.3-1.7,2.3-3,3c-1.3,0.7-2.9,1.1-4.8,1.1c-2.4,0-4.3-0.6-5.7-1.7
		c-1.4-1.1-2.1-2.6-2.1-4.5c0-1.8,0.6-3.3,1.9-4.4c1.3-1.1,3.4-1.7,6.2-1.7h7.5v-1.8c0-2-0.6-3.6-1.6-4.6c-1.1-1.1-2.7-1.6-4.8-1.6
		c-1.4,0-2.8,0.3-4.2,0.8c-1.3,0.5-2.4,1.2-3.4,2l-1-1.5c1.1-1,2.4-1.7,3.9-2.3c1.5-0.5,3.1-0.8,4.8-0.8
		C324.9,459.8,327,460.5,328.5,461.9z M325.7,479c1.3-0.8,2.2-2,2.9-3.6v-4.1h-7.4c-2.1,0-3.7,0.4-4.7,1.2c-1,0.8-1.4,1.9-1.4,3.2
		c0,1.4,0.5,2.5,1.6,3.4c1.1,0.8,2.5,1.2,4.5,1.2C322.9,480.3,324.4,479.9,325.7,479z"/>
	<path d="M369.4,460v29.9h-2.1v-13.2c-0.9,1.6-2.1,2.9-3.7,3.8s-3.3,1.4-5.2,1.4c-2,0-3.9-0.5-5.5-1.4c-1.6-0.9-2.9-2.2-3.9-3.9
		c-0.9-1.7-1.4-3.6-1.4-5.7s0.5-4.1,1.4-5.7c0.9-1.7,2.2-3,3.9-3.9c1.6-0.9,3.5-1.4,5.5-1.4c2,0,3.7,0.5,5.3,1.4
		c1.6,0.9,2.8,2.2,3.6,3.9V460H369.4z M363,478.9c1.3-0.8,2.4-1.9,3.1-3.3c0.8-1.4,1.1-3,1.1-4.8s-0.4-3.4-1.1-4.8
		c-0.8-1.4-1.8-2.5-3.1-3.3c-1.3-0.8-2.8-1.2-4.5-1.2s-3.2,0.4-4.5,1.2c-1.3,0.8-2.4,1.9-3.1,3.3c-0.8,1.4-1.1,3-1.1,4.8
		s0.4,3.4,1.1,4.8c0.8,1.4,1.8,2.5,3.1,3.3c1.3,0.8,2.8,1.2,4.5,1.2S361.7,479.7,363,478.9z"/>
	<path d="M397.3,460v21.8h-2v-4.7c-0.7,1.5-1.8,2.7-3.2,3.6c-1.4,0.8-3.1,1.3-5,1.3c-2.8,0-5.1-0.8-6.7-2.4
		c-1.6-1.6-2.4-3.9-2.4-6.8V460h2.1v12.6c0,2.5,0.6,4.3,1.9,5.6c1.3,1.3,3,1.9,5.3,1.9c2.5,0,4.4-0.8,5.8-2.3
		c1.4-1.5,2.2-3.6,2.2-6.2V460H397.3z"/>
	<path d="M424.5,471.4h-18.8c0.1,1.7,0.5,3.2,1.3,4.5c0.8,1.3,1.9,2.3,3.3,3.1c1.4,0.7,2.9,1.1,4.7,1.1c1.4,0,2.7-0.3,3.9-0.8
		c1.2-0.5,2.2-1.3,3-2.3l1.2,1.4c-0.9,1.1-2.1,2-3.6,2.6c-1.4,0.6-3,0.9-4.7,0.9c-2.2,0-4.1-0.5-5.8-1.4c-1.7-0.9-3-2.3-4-3.9
		c-1-1.7-1.4-3.6-1.4-5.7c0-2.1,0.5-4,1.4-5.7c0.9-1.7,2.2-3,3.7-3.9c1.6-0.9,3.4-1.4,5.3-1.4c2,0,3.8,0.5,5.3,1.4
		c1.6,0.9,2.8,2.2,3.7,3.9c0.9,1.7,1.4,3.6,1.4,5.7L424.5,471.4z M410,462.7c-1.2,0.7-2.2,1.6-2.9,2.9c-0.7,1.2-1.2,2.6-1.3,4.2
		h16.7c-0.1-1.6-0.5-3-1.3-4.2s-1.7-2.2-3-2.9c-1.2-0.7-2.6-1-4.1-1C412.6,461.7,411.3,462,410,462.7z"/>
	<path d="M441.8,450.8h2.1v31h-2.1V450.8z"/>
	<path d="M466.5,481.8l-7.5-9.7l-7.5,9.7h-2.4l8.6-11.2l-8.2-10.6h2.4l7,9.1l7-9.1h2.3l-8.2,10.6l8.8,11.2H466.5z"/>
	<path d="M474.4,481.2c-1.6-0.5-2.8-1.2-3.7-2l1-1.7c0.9,0.8,2,1.4,3.4,1.9c1.4,0.5,2.9,0.8,4.4,0.8c2.2,0,3.8-0.4,4.9-1.1
		c1-0.7,1.6-1.7,1.6-3c0-0.9-0.3-1.6-0.9-2.2c-0.6-0.5-1.3-0.9-2.1-1.2s-2-0.5-3.5-0.8c-1.7-0.3-3.1-0.6-4.2-1
		c-1.1-0.4-2-0.9-2.7-1.8c-0.8-0.8-1.1-1.9-1.1-3.3c0-1.7,0.7-3.2,2.2-4.3s3.5-1.7,6.1-1.7c1.4,0,2.8,0.2,4.1,0.6
		c1.4,0.4,2.5,0.9,3.3,1.5l-1,1.7c-0.9-0.6-1.9-1.1-3-1.5c-1.1-0.3-2.3-0.5-3.5-0.5c-2,0-3.6,0.4-4.6,1.1c-1,0.8-1.5,1.7-1.5,3
		c0,1,0.3,1.7,0.9,2.3c0.6,0.5,1.3,0.9,2.2,1.2c0.8,0.3,2,0.6,3.6,0.9c1.7,0.3,3.1,0.6,4.1,1c1,0.3,1.9,0.9,2.7,1.7
		c0.7,0.8,1.1,1.9,1.1,3.2c0,1.8-0.8,3.3-2.3,4.3c-1.5,1.1-3.6,1.6-6.3,1.6C477.7,482,476,481.7,474.4,481.2z"/>
	<path d="M518.2,461.9c1.4,1.4,2.2,3.4,2.2,6.1v13.8h-2v-3.9c-0.7,1.3-1.7,2.3-3,3c-1.3,0.7-2.9,1.1-4.8,1.1c-2.4,0-4.3-0.6-5.7-1.7
		c-1.4-1.1-2.1-2.6-2.1-4.5c0-1.8,0.6-3.3,1.9-4.4c1.3-1.1,3.4-1.7,6.2-1.7h7.5v-1.8c0-2-0.6-3.6-1.6-4.6c-1.1-1.1-2.7-1.6-4.8-1.6
		c-1.4,0-2.8,0.3-4.2,0.8c-1.3,0.5-2.4,1.2-3.4,2l-1-1.5c1.1-1,2.4-1.7,3.9-2.3c1.5-0.5,3.1-0.8,4.8-0.8
		C514.7,459.8,516.8,460.5,518.2,461.9z M515.4,479c1.3-0.8,2.2-2,2.9-3.6v-4.1h-7.4c-2.1,0-3.7,0.4-4.7,1.2c-1,0.8-1.4,1.9-1.4,3.2
		c0,1.4,0.5,2.5,1.6,3.4c1.1,0.8,2.5,1.2,4.5,1.2C512.6,480.3,514.2,479.9,515.4,479z"/>
	<path d="M548.4,450.8v31h-2v-5.1c-0.9,1.7-2.1,3-3.6,3.9c-1.6,0.9-3.3,1.4-5.3,1.4c-2,0-3.9-0.5-5.5-1.4c-1.6-0.9-2.9-2.3-3.9-3.9
		c-0.9-1.7-1.4-3.6-1.4-5.7s0.5-4.1,1.4-5.7c0.9-1.7,2.2-3,3.9-3.9c1.6-0.9,3.5-1.4,5.5-1.4c1.9,0,3.7,0.5,5.2,1.4s2.8,2.2,3.7,3.8
		v-14.2H548.4z M542,478.9c1.3-0.8,2.4-1.9,3.1-3.3c0.8-1.4,1.1-3,1.1-4.8s-0.4-3.4-1.1-4.8c-0.8-1.4-1.8-2.5-3.1-3.3
		c-1.3-0.8-2.8-1.2-4.5-1.2s-3.2,0.4-4.5,1.2c-1.3,0.8-2.4,1.9-3.1,3.3c-0.8,1.4-1.1,3-1.1,4.8s0.4,3.4,1.1,4.8
		c0.8,1.4,1.8,2.5,3.1,3.3c1.3,0.8,2.8,1.2,4.5,1.2S540.7,479.7,542,478.9z"/>
	<path d="M560.2,480.6c-1.7-0.9-3-2.3-3.9-3.9c-0.9-1.7-1.4-3.6-1.4-5.7s0.5-4,1.4-5.7c0.9-1.7,2.2-3,3.9-3.9
		c1.7-0.9,3.5-1.4,5.6-1.4c2.1,0,3.9,0.5,5.6,1.4c1.7,0.9,3,2.3,3.9,3.9c0.9,1.7,1.4,3.6,1.4,5.7s-0.5,4-1.4,5.7
		c-0.9,1.7-2.2,3-3.9,3.9c-1.7,0.9-3.5,1.4-5.6,1.4C563.7,482,561.8,481.5,560.2,480.6z M570.2,478.9c1.3-0.8,2.4-1.9,3.1-3.3
		c0.8-1.4,1.1-3,1.1-4.8s-0.4-3.4-1.1-4.8c-0.8-1.4-1.8-2.5-3.1-3.3c-1.3-0.8-2.8-1.2-4.5-1.2s-3.2,0.4-4.5,1.2
		c-1.3,0.8-2.4,1.9-3.1,3.3c-0.8,1.4-1.1,3-1.1,4.8s0.4,3.4,1.1,4.8c0.8,1.4,1.8,2.5,3.1,3.3c1.3,0.8,2.8,1.2,4.5,1.2
		S568.9,479.7,570.2,478.9z"/>
	<path d="M583.1,450.8h2.1v31h-2.1V450.8z"/>
	<path d="M612.4,471.4h-18.8c0.1,1.7,0.5,3.2,1.3,4.5c0.8,1.3,1.9,2.3,3.3,3.1c1.4,0.7,2.9,1.1,4.7,1.1c1.4,0,2.7-0.3,3.9-0.8
		c1.2-0.5,2.2-1.3,3-2.3l1.2,1.4c-0.9,1.1-2.1,2-3.6,2.6c-1.4,0.6-3,0.9-4.7,0.9c-2.2,0-4.1-0.5-5.8-1.4c-1.7-0.9-3-2.3-4-3.9
		c-1-1.7-1.4-3.6-1.4-5.7c0-2.1,0.5-4,1.4-5.7c0.9-1.7,2.2-3,3.7-3.9c1.6-0.9,3.4-1.4,5.3-1.4c2,0,3.8,0.5,5.3,1.4
		c1.6,0.9,2.8,2.2,3.7,3.9c0.9,1.7,1.4,3.6,1.4,5.7L612.4,471.4z M597.9,462.7c-1.2,0.7-2.2,1.6-2.9,2.9c-0.7,1.2-1.2,2.6-1.3,4.2
		h16.7c-0.1-1.6-0.5-3-1.3-4.2s-1.7-2.2-3-2.9c-1.2-0.7-2.6-1-4.1-1C600.5,461.7,599.2,462,597.9,462.7z"/>
	<path d="M619.5,481.2c-1.6-0.5-2.8-1.2-3.7-2l1-1.7c0.9,0.8,2,1.4,3.4,1.9c1.4,0.5,2.9,0.8,4.4,0.8c2.2,0,3.8-0.4,4.9-1.1
		c1-0.7,1.6-1.7,1.6-3c0-0.9-0.3-1.6-0.9-2.2c-0.6-0.5-1.3-0.9-2.1-1.2s-2-0.5-3.5-0.8c-1.7-0.3-3.1-0.6-4.2-1
		c-1.1-0.4-2-0.9-2.7-1.8c-0.8-0.8-1.1-1.9-1.1-3.3c0-1.7,0.7-3.2,2.2-4.3s3.5-1.7,6.1-1.7c1.4,0,2.8,0.2,4.1,0.6
		c1.4,0.4,2.5,0.9,3.3,1.5l-1,1.7c-0.9-0.6-1.9-1.1-3-1.5c-1.1-0.3-2.3-0.5-3.5-0.5c-2,0-3.6,0.4-4.6,1.1c-1,0.8-1.5,1.7-1.5,3
		c0,1,0.3,1.7,0.9,2.3c0.6,0.5,1.3,0.9,2.2,1.2c0.8,0.3,2,0.6,3.6,0.9c1.7,0.3,3.1,0.6,4.1,1c1,0.3,1.9,0.9,2.7,1.7
		c0.7,0.8,1.1,1.9,1.1,3.2c0,1.8-0.8,3.3-2.3,4.3c-1.5,1.1-3.6,1.6-6.3,1.6C622.7,482,621,481.7,619.5,481.2z"/>
	<path d="M641.9,480.6c-1.7-0.9-3-2.3-3.9-3.9c-0.9-1.7-1.4-3.6-1.4-5.7c0-2.1,0.5-4.1,1.4-5.7c0.9-1.7,2.3-3,3.9-3.9
		c1.7-0.9,3.6-1.4,5.7-1.4c1.8,0,3.3,0.3,4.8,1c1.4,0.7,2.6,1.7,3.5,3l-1.5,1.1c-0.8-1.1-1.7-1.9-2.9-2.4c-1.2-0.5-2.4-0.8-3.8-0.8
		c-1.7,0-3.2,0.4-4.6,1.1c-1.4,0.8-2.4,1.8-3.2,3.2c-0.8,1.4-1.1,3-1.1,4.8c0,1.8,0.4,3.4,1.1,4.8c0.8,1.4,1.8,2.5,3.2,3.2
		c1.4,0.8,2.9,1.1,4.6,1.1c1.4,0,2.7-0.3,3.8-0.8c1.2-0.5,2.1-1.4,2.9-2.4l1.5,1.1c-0.9,1.3-2.1,2.3-3.5,3c-1.4,0.7-3,1-4.8,1
		C645.4,482,643.6,481.5,641.9,480.6z"/>
	<path d="M680.1,471.4h-18.8c0.1,1.7,0.5,3.2,1.3,4.5c0.8,1.3,1.9,2.3,3.3,3.1c1.4,0.7,2.9,1.1,4.7,1.1c1.4,0,2.7-0.3,3.9-0.8
		c1.2-0.5,2.2-1.3,3-2.3l1.2,1.4c-0.9,1.1-2.1,2-3.6,2.6c-1.4,0.6-3,0.9-4.7,0.9c-2.2,0-4.1-0.5-5.8-1.4c-1.7-0.9-3-2.3-4-3.9
		c-1-1.7-1.4-3.6-1.4-5.7c0-2.1,0.5-4,1.4-5.7c0.9-1.7,2.2-3,3.7-3.9c1.6-0.9,3.4-1.4,5.3-1.4c2,0,3.8,0.5,5.3,1.4
		c1.6,0.9,2.8,2.2,3.7,3.9c0.9,1.7,1.4,3.6,1.4,5.7L680.1,471.4z M665.7,462.7c-1.2,0.7-2.2,1.6-2.9,2.9c-0.7,1.2-1.2,2.6-1.3,4.2
		h16.7c-0.1-1.6-0.5-3-1.3-4.2s-1.7-2.2-3-2.9c-1.2-0.7-2.6-1-4.1-1C668.3,461.7,666.9,462,665.7,462.7z"/>
	<path d="M703.8,462.2c1.6,1.6,2.4,3.9,2.4,6.9v12.7h-2.1v-12.6c0-2.5-0.6-4.3-1.9-5.6c-1.2-1.3-3-1.9-5.2-1.9
		c-2.6,0-4.6,0.8-6.1,2.3c-1.5,1.5-2.2,3.6-2.2,6.2v11.6h-2.1V460h2v4.7c0.8-1.5,1.9-2.7,3.4-3.6c1.5-0.9,3.3-1.3,5.3-1.3
		C700,459.8,702.2,460.6,703.8,462.2z"/>
	<path d="M725.6,480.4c-0.5,0.5-1.2,0.9-2,1.1c-0.8,0.3-1.6,0.4-2.5,0.4c-1.9,0-3.4-0.5-4.4-1.6c-1-1-1.5-2.5-1.5-4.4v-14.2h-4V460
		h4v-4.8h2.1v4.8h6.9v1.8h-6.9v14c0,1.4,0.3,2.5,1,3.2c0.7,0.7,1.7,1.1,3,1.1c1.4,0,2.5-0.4,3.4-1.2L725.6,480.4z"/>
	<path d="M749,471.4h-18.8c0.1,1.7,0.5,3.2,1.3,4.5c0.8,1.3,1.9,2.3,3.3,3.1c1.4,0.7,2.9,1.1,4.7,1.1c1.4,0,2.7-0.3,3.9-0.8
		c1.2-0.5,2.2-1.3,3-2.3l1.2,1.4c-0.9,1.1-2.1,2-3.6,2.6c-1.4,0.6-3,0.9-4.7,0.9c-2.2,0-4.1-0.5-5.8-1.4c-1.7-0.9-3-2.3-4-3.9
		c-1-1.7-1.4-3.6-1.4-5.7c0-2.1,0.5-4,1.4-5.7c0.9-1.7,2.2-3,3.7-3.9c1.6-0.9,3.4-1.4,5.3-1.4c2,0,3.8,0.5,5.3,1.4
		c1.6,0.9,2.8,2.2,3.7,3.9c0.9,1.7,1.4,3.6,1.4,5.7L749,471.4z M734.5,462.7c-1.2,0.7-2.2,1.6-2.9,2.9c-0.7,1.2-1.2,2.6-1.3,4.2H747
		c-0.1-1.6-0.5-3-1.3-4.2s-1.7-2.2-3-2.9c-1.2-0.7-2.6-1-4.1-1C737.1,461.7,735.8,462,734.5,462.7z"/>
	<path d="M756,481.2c-1.6-0.5-2.8-1.2-3.7-2l1-1.7c0.9,0.8,2,1.4,3.4,1.9c1.4,0.5,2.9,0.8,4.4,0.8c2.2,0,3.8-0.4,4.9-1.1
		c1-0.7,1.6-1.7,1.6-3c0-0.9-0.3-1.6-0.9-2.2c-0.6-0.5-1.3-0.9-2.1-1.2s-2-0.5-3.5-0.8c-1.7-0.3-3.1-0.6-4.2-1
		c-1.1-0.4-2-0.9-2.7-1.8c-0.8-0.8-1.1-1.9-1.1-3.3c0-1.7,0.7-3.2,2.2-4.3s3.5-1.7,6.1-1.7c1.4,0,2.8,0.2,4.1,0.6
		c1.4,0.4,2.5,0.9,3.3,1.5l-1,1.7c-0.9-0.6-1.9-1.1-3-1.5c-1.1-0.3-2.3-0.5-3.5-0.5c-2,0-3.6,0.4-4.6,1.1c-1,0.8-1.5,1.7-1.5,3
		c0,1,0.3,1.7,0.9,2.3c0.6,0.5,1.3,0.9,2.2,1.2c0.8,0.3,2,0.6,3.6,0.9c1.7,0.3,3.1,0.6,4.1,1c1,0.3,1.9,0.9,2.7,1.7
		c0.7,0.8,1.1,1.9,1.1,3.2c0,1.8-0.8,3.3-2.3,4.3c-1.5,1.1-3.6,1.6-6.3,1.6C759.3,482,757.6,481.7,756,481.2z"/>
	<path d="M799.8,461.9c1.4,1.4,2.2,3.4,2.2,6.1v13.8h-2v-3.9c-0.7,1.3-1.7,2.3-3,3c-1.3,0.7-2.9,1.1-4.8,1.1c-2.4,0-4.3-0.6-5.7-1.7
		c-1.4-1.1-2.1-2.6-2.1-4.5c0-1.8,0.6-3.3,1.9-4.4c1.3-1.1,3.4-1.7,6.2-1.7h7.5v-1.8c0-2-0.6-3.6-1.6-4.6c-1.1-1.1-2.7-1.6-4.8-1.6
		c-1.4,0-2.8,0.3-4.2,0.8c-1.3,0.5-2.4,1.2-3.4,2l-1-1.5c1.1-1,2.4-1.7,3.9-2.3c1.5-0.5,3.1-0.8,4.8-0.8
		C796.3,459.8,798.4,460.5,799.8,461.9z M797,479c1.3-0.8,2.2-2,2.9-3.6v-4.1h-7.4c-2.1,0-3.7,0.4-4.7,1.2c-1,0.8-1.4,1.9-1.4,3.2
		c0,1.4,0.5,2.5,1.6,3.4c1.1,0.8,2.5,1.2,4.5,1.2C794.2,480.3,795.8,479.9,797,479z"/>
	<path d="M813.6,480.6c-1.7-0.9-3-2.3-3.9-3.9c-0.9-1.7-1.4-3.6-1.4-5.7c0-2.1,0.5-4.1,1.4-5.7c0.9-1.7,2.3-3,3.9-3.9
		c1.7-0.9,3.6-1.4,5.7-1.4c1.8,0,3.3,0.3,4.8,1c1.4,0.7,2.6,1.7,3.5,3L826,465c-0.8-1.1-1.7-1.9-2.9-2.4c-1.2-0.5-2.4-0.8-3.8-0.8
		c-1.7,0-3.2,0.4-4.6,1.1c-1.4,0.8-2.4,1.8-3.2,3.2c-0.8,1.4-1.1,3-1.1,4.8c0,1.8,0.4,3.4,1.1,4.8c0.8,1.4,1.8,2.5,3.2,3.2
		c1.4,0.8,2.9,1.1,4.6,1.1c1.4,0,2.7-0.3,3.8-0.8c1.2-0.5,2.1-1.4,2.9-2.4l1.5,1.1c-0.9,1.3-2.1,2.3-3.5,3c-1.4,0.7-3,1-4.8,1
		C817.2,482,815.3,481.5,813.6,480.6z"/>
	<path d="M836.4,480.6c-1.7-0.9-3-2.3-3.9-3.9c-0.9-1.7-1.4-3.6-1.4-5.7c0-2.1,0.5-4.1,1.4-5.7c0.9-1.7,2.3-3,3.9-3.9
		c1.7-0.9,3.6-1.4,5.7-1.4c1.8,0,3.3,0.3,4.8,1c1.4,0.7,2.6,1.7,3.5,3l-1.5,1.1c-0.8-1.1-1.7-1.9-2.9-2.4c-1.2-0.5-2.4-0.8-3.8-0.8
		c-1.7,0-3.2,0.4-4.6,1.1c-1.4,0.8-2.4,1.8-3.2,3.2c-0.8,1.4-1.1,3-1.1,4.8c0,1.8,0.4,3.4,1.1,4.8c0.8,1.4,1.8,2.5,3.2,3.2
		c1.4,0.8,2.9,1.1,4.6,1.1c1.4,0,2.7-0.3,3.8-0.8c1.2-0.5,2.1-1.4,2.9-2.4l1.5,1.1c-0.9,1.3-2.1,2.3-3.5,3c-1.4,0.7-3,1-4.8,1
		C840,482,838.1,481.5,836.4,480.6z"/>
	<path d="M874.7,471.4h-18.8c0.1,1.7,0.5,3.2,1.3,4.5c0.8,1.3,1.9,2.3,3.3,3.1c1.4,0.7,2.9,1.1,4.7,1.1c1.4,0,2.7-0.3,3.9-0.8
		c1.2-0.5,2.2-1.3,3-2.3l1.2,1.4c-0.9,1.1-2.1,2-3.6,2.6c-1.4,0.6-3,0.9-4.7,0.9c-2.2,0-4.1-0.5-5.8-1.4c-1.7-0.9-3-2.3-4-3.9
		c-1-1.7-1.4-3.6-1.4-5.7c0-2.1,0.5-4,1.4-5.7c0.9-1.7,2.2-3,3.7-3.9c1.6-0.9,3.4-1.4,5.3-1.4c2,0,3.8,0.5,5.3,1.4
		c1.6,0.9,2.8,2.2,3.7,3.9c0.9,1.7,1.4,3.6,1.4,5.7L874.7,471.4z M860.2,462.7c-1.2,0.7-2.2,1.6-2.9,2.9c-0.7,1.2-1.2,2.6-1.3,4.2
		h16.7c-0.1-1.6-0.5-3-1.3-4.2s-1.7-2.2-3-2.9c-1.2-0.7-2.6-1-4.1-1C862.8,461.7,861.4,462,860.2,462.7z"/>
	<path d="M900.6,450.8v31h-2v-5.1c-0.9,1.7-2.1,3-3.6,3.9c-1.6,0.9-3.3,1.4-5.3,1.4c-2,0-3.9-0.5-5.5-1.4c-1.6-0.9-2.9-2.3-3.9-3.9
		c-0.9-1.7-1.4-3.6-1.4-5.7s0.5-4.1,1.4-5.7c0.9-1.7,2.2-3,3.9-3.9c1.6-0.9,3.5-1.4,5.5-1.4c1.9,0,3.7,0.5,5.2,1.4s2.8,2.2,3.7,3.8
		v-14.2H900.6z M894.2,478.9c1.3-0.8,2.4-1.9,3.1-3.3c0.8-1.4,1.1-3,1.1-4.8s-0.4-3.4-1.1-4.8c-0.8-1.4-1.8-2.5-3.1-3.3
		c-1.3-0.8-2.8-1.2-4.5-1.2s-3.2,0.4-4.5,1.2c-1.3,0.8-2.4,1.9-3.1,3.3c-0.8,1.4-1.1,3-1.1,4.8s0.4,3.4,1.1,4.8
		c0.8,1.4,1.8,2.5,3.1,3.3c1.3,0.8,2.8,1.2,4.5,1.2S892.9,479.7,894.2,478.9z"/>
	<path d="M922.9,461.9c1.4,1.4,2.2,3.4,2.2,6.1v13.8h-2v-3.9c-0.7,1.3-1.7,2.3-3,3c-1.3,0.7-2.9,1.1-4.8,1.1c-2.4,0-4.3-0.6-5.7-1.7
		c-1.4-1.1-2.1-2.6-2.1-4.5c0-1.8,0.6-3.3,1.9-4.4c1.3-1.1,3.4-1.7,6.2-1.7h7.5v-1.8c0-2-0.6-3.6-1.6-4.6c-1.1-1.1-2.7-1.6-4.8-1.6
		c-1.4,0-2.8,0.3-4.2,0.8c-1.3,0.5-2.4,1.2-3.4,2l-1-1.5c1.1-1,2.4-1.7,3.9-2.3c1.5-0.5,3.1-0.8,4.8-0.8
		C919.4,459.8,921.5,460.5,922.9,461.9z M920.2,479c1.3-0.8,2.2-2,2.9-3.6v-4.1h-7.4c-2.1,0-3.7,0.4-4.7,1.2c-1,0.8-1.4,1.9-1.4,3.2
		c0,1.4,0.5,2.5,1.6,3.4c1.1,0.8,2.5,1.2,4.5,1.2C917.4,480.3,918.9,479.9,920.2,479z"/>
	<path d="M950.8,462.2c1.6,1.6,2.4,3.9,2.4,6.9v12.7h-2.1v-12.6c0-2.5-0.6-4.3-1.9-5.6c-1.2-1.3-3-1.9-5.2-1.9
		c-2.6,0-4.6,0.8-6.1,2.3c-1.5,1.5-2.2,3.6-2.2,6.2v11.6h-2.1V460h2v4.7c0.8-1.5,1.9-2.7,3.4-3.6c1.5-0.9,3.3-1.3,5.3-1.3
		C947.1,459.8,949.3,460.6,950.8,462.2z"/>
</g>
<g class="st3">
	<path d="M259.9,512c1.4,1.4,2.2,3.4,2.2,6.1v13.8h-2V528c-0.7,1.3-1.7,2.3-3,3c-1.3,0.7-2.9,1.1-4.8,1.1c-2.4,0-4.3-0.6-5.7-1.7
		c-1.4-1.1-2.1-2.6-2.1-4.5c0-1.8,0.6-3.3,1.9-4.4c1.3-1.1,3.4-1.7,6.2-1.7h7.5V518c0-2-0.6-3.6-1.6-4.6c-1.1-1.1-2.7-1.6-4.8-1.6
		c-1.4,0-2.8,0.3-4.2,0.8c-1.3,0.5-2.4,1.2-3.4,2l-1-1.5c1.1-1,2.4-1.7,3.9-2.3c1.5-0.5,3.1-0.8,4.8-0.8
		C256.4,509.9,258.5,510.6,259.9,512z M257.1,529.1c1.3-0.8,2.2-2,2.9-3.6v-4.1h-7.4c-2.1,0-3.7,0.4-4.7,1.2c-1,0.8-1.4,1.9-1.4,3.2
		c0,1.4,0.5,2.5,1.6,3.4c1.1,0.8,2.5,1.2,4.5,1.2C254.3,530.4,255.9,530,257.1,529.1z"/>
	<path d="M281.3,504.3c-0.3-0.3-0.5-0.7-0.5-1.2s0.2-0.9,0.5-1.2c0.3-0.3,0.7-0.5,1.2-0.5c0.5,0,0.9,0.2,1.2,0.5
		c0.3,0.3,0.5,0.7,0.5,1.2c0,0.5-0.2,0.9-0.5,1.2c-0.3,0.3-0.7,0.5-1.2,0.5C282,504.8,281.6,504.6,281.3,504.3z M281.4,510.1h2.1
		v21.8h-2.1V510.1z"/>
	<path d="M309.5,512.3c1.6,1.6,2.4,3.9,2.4,6.9v12.7h-2.1v-12.6c0-2.5-0.6-4.3-1.9-5.6c-1.2-1.3-3-1.9-5.2-1.9
		c-2.6,0-4.6,0.8-6.1,2.3c-1.5,1.5-2.2,3.6-2.2,6.2v11.6h-2.1v-21.8h2v4.7c0.8-1.5,1.9-2.7,3.4-3.6c1.5-0.9,3.3-1.3,5.3-1.3
		C305.7,509.9,307.9,510.7,309.5,512.3z"/>
	<path d="M322.9,506.9v3.2h7v1.8h-6.9v20h-2.1v-20h-4v-1.8h4v-3.3c0-1.8,0.5-3.3,1.6-4.4c1.1-1.1,2.5-1.6,4.5-1.6
		c0.8,0,1.6,0.1,2.4,0.4c0.8,0.2,1.4,0.6,1.9,1.1l-0.8,1.6c-0.9-0.8-2-1.2-3.4-1.2C324.3,502.5,322.9,504,322.9,506.9z"/>
	<path d="M336.7,530.7c-1.7-0.9-3-2.3-3.9-3.9c-0.9-1.7-1.4-3.6-1.4-5.7s0.5-4,1.4-5.7c0.9-1.7,2.2-3,3.9-3.9
		c1.7-0.9,3.5-1.4,5.6-1.4c2.1,0,3.9,0.5,5.6,1.4c1.7,0.9,3,2.3,3.9,3.9c0.9,1.7,1.4,3.6,1.4,5.7s-0.5,4-1.4,5.7
		c-0.9,1.7-2.2,3-3.9,3.9c-1.7,0.9-3.5,1.4-5.6,1.4C340.2,532.1,338.4,531.6,336.7,530.7z M346.8,529c1.3-0.8,2.4-1.9,3.1-3.3
		c0.8-1.4,1.1-3,1.1-4.8s-0.4-3.4-1.1-4.8c-0.8-1.4-1.8-2.5-3.1-3.3c-1.3-0.8-2.8-1.2-4.5-1.2s-3.2,0.4-4.5,1.2
		c-1.3,0.8-2.4,1.9-3.1,3.3c-0.8,1.4-1.1,3-1.1,4.8s0.4,3.4,1.1,4.8c0.8,1.4,1.8,2.5,3.1,3.3c1.3,0.8,2.8,1.2,4.5,1.2
		S345.5,529.8,346.8,529z"/>
	<path d="M364.8,511.2c1.4-0.8,3.1-1.3,5.2-1.3v2l-0.5,0c-2.4,0-4.3,0.8-5.7,2.3c-1.4,1.5-2,3.6-2,6.3v11.4h-2.1v-21.8h2v4.8
		C362.3,513.3,363.4,512.1,364.8,511.2z"/>
	<path d="M409.3,512.3c1.5,1.6,2.3,3.9,2.3,6.9v12.7h-2.1v-12.6c0-2.5-0.6-4.3-1.8-5.6c-1.2-1.3-2.9-1.9-5-1.9
		c-2.5,0-4.4,0.8-5.8,2.3c-1.4,1.5-2.2,3.6-2.2,6.2v11.6h-2.1v-12.6c0-2.5-0.6-4.3-1.8-5.6c-1.2-1.3-2.9-1.9-5-1.9
		c-2.5,0-4.4,0.8-5.8,2.3c-1.4,1.5-2.2,3.6-2.2,6.2v11.6h-2.1v-21.8h2v4.7c0.7-1.5,1.8-2.7,3.2-3.6c1.4-0.8,3.1-1.3,5.1-1.3
		c2,0,3.7,0.4,5,1.3c1.4,0.9,2.4,2.2,2.9,3.9c0.7-1.6,1.9-2.9,3.4-3.8s3.3-1.4,5.4-1.4C405.6,509.9,407.7,510.7,409.3,512.3z"/>
	<path d="M433.8,512c1.4,1.4,2.2,3.4,2.2,6.1v13.8h-2V528c-0.7,1.3-1.7,2.3-3,3c-1.3,0.7-2.9,1.1-4.8,1.1c-2.4,0-4.3-0.6-5.7-1.7
		c-1.4-1.1-2.1-2.6-2.1-4.5c0-1.8,0.6-3.3,1.9-4.4c1.3-1.1,3.4-1.7,6.2-1.7h7.5V518c0-2-0.6-3.6-1.6-4.6c-1.1-1.1-2.7-1.6-4.8-1.6
		c-1.4,0-2.8,0.3-4.2,0.8c-1.3,0.5-2.4,1.2-3.4,2l-1-1.5c1.1-1,2.4-1.7,3.9-2.3c1.5-0.5,3.1-0.8,4.8-0.8
		C430.2,509.9,432.3,510.6,433.8,512z M431,529.1c1.3-0.8,2.2-2,2.9-3.6v-4.1h-7.4c-2.1,0-3.7,0.4-4.7,1.2c-1,0.8-1.4,1.9-1.4,3.2
		c0,1.4,0.5,2.5,1.6,3.4c1.1,0.8,2.5,1.2,4.5,1.2C428.2,530.4,429.7,530,431,529.1z"/>
	<path d="M447.5,530.7c-1.7-0.9-3-2.3-3.9-3.9c-0.9-1.7-1.4-3.6-1.4-5.7c0-2.1,0.5-4.1,1.4-5.7c0.9-1.7,2.3-3,3.9-3.9
		c1.7-0.9,3.6-1.4,5.7-1.4c1.8,0,3.3,0.3,4.8,1c1.4,0.7,2.6,1.7,3.5,3l-1.5,1.1c-0.8-1.1-1.7-1.9-2.9-2.4c-1.2-0.5-2.4-0.8-3.8-0.8
		c-1.7,0-3.2,0.4-4.6,1.1c-1.4,0.8-2.4,1.8-3.2,3.2c-0.8,1.4-1.1,3-1.1,4.8c0,1.8,0.4,3.4,1.1,4.8c0.8,1.4,1.8,2.5,3.2,3.2
		c1.4,0.8,2.9,1.1,4.6,1.1c1.4,0,2.7-0.3,3.8-0.8c1.2-0.5,2.1-1.4,2.9-2.4l1.5,1.1c-0.9,1.3-2.1,2.3-3.5,3c-1.4,0.7-3,1-4.8,1
		C451.1,532.1,449.2,531.6,447.5,530.7z"/>
	<path d="M467.6,504.3c-0.3-0.3-0.5-0.7-0.5-1.2s0.2-0.9,0.5-1.2c0.3-0.3,0.7-0.5,1.2-0.5c0.5,0,0.9,0.2,1.2,0.5
		c0.3,0.3,0.5,0.7,0.5,1.2c0,0.5-0.2,0.9-0.5,1.2c-0.3,0.3-0.7,0.5-1.2,0.5C468.3,504.8,467.9,504.6,467.6,504.3z M467.8,510.1h2.1
		v21.8h-2.1V510.1z"/>
	<path d="M481.6,530.7c-1.7-0.9-3-2.3-3.9-3.9c-0.9-1.7-1.4-3.6-1.4-5.7s0.5-4,1.4-5.7c0.9-1.7,2.2-3,3.9-3.9
		c1.7-0.9,3.5-1.4,5.6-1.4c2.1,0,3.9,0.5,5.6,1.4c1.7,0.9,3,2.3,3.9,3.9c0.9,1.7,1.4,3.6,1.4,5.7s-0.5,4-1.4,5.7
		c-0.9,1.7-2.2,3-3.9,3.9c-1.7,0.9-3.5,1.4-5.6,1.4C485.1,532.1,483.3,531.6,481.6,530.7z M491.7,529c1.3-0.8,2.4-1.9,3.1-3.3
		c0.8-1.4,1.1-3,1.1-4.8s-0.4-3.4-1.1-4.8c-0.8-1.4-1.8-2.5-3.1-3.3c-1.3-0.8-2.8-1.2-4.5-1.2s-3.2,0.4-4.5,1.2
		c-1.3,0.8-2.4,1.9-3.1,3.3c-0.8,1.4-1.1,3-1.1,4.8s0.4,3.4,1.1,4.8c0.8,1.4,1.8,2.5,3.1,3.3c1.3,0.8,2.8,1.2,4.5,1.2
		S490.3,529.8,491.7,529z M490.6,501.6h3l-6.6,4.9h-2.3L490.6,501.6z"/>
	<path d="M521.7,512.3c1.6,1.6,2.4,3.9,2.4,6.9v12.7H522v-12.6c0-2.5-0.6-4.3-1.9-5.6c-1.2-1.3-3-1.9-5.2-1.9
		c-2.6,0-4.6,0.8-6.1,2.3c-1.5,1.5-2.2,3.6-2.2,6.2v11.6h-2.1v-21.8h2v4.7c0.8-1.5,1.9-2.7,3.4-3.6c1.5-0.9,3.3-1.3,5.3-1.3
		C517.9,509.9,520.1,510.7,521.7,512.3z"/>
	<path d="M562.8,500.9v31h-2v-5.1c-0.9,1.7-2.1,3-3.6,3.9c-1.6,0.9-3.3,1.4-5.3,1.4c-2,0-3.9-0.5-5.5-1.4c-1.6-0.9-2.9-2.3-3.9-3.9
		c-0.9-1.7-1.4-3.6-1.4-5.7s0.5-4.1,1.4-5.7c0.9-1.7,2.2-3,3.9-3.9c1.6-0.9,3.5-1.4,5.5-1.4c1.9,0,3.7,0.5,5.2,1.4s2.8,2.2,3.7,3.8
		v-14.2H562.8z M556.4,529c1.3-0.8,2.4-1.9,3.1-3.3c0.8-1.4,1.1-3,1.1-4.8s-0.4-3.4-1.1-4.8c-0.8-1.4-1.8-2.5-3.1-3.3
		c-1.3-0.8-2.8-1.2-4.5-1.2s-3.2,0.4-4.5,1.2c-1.3,0.8-2.4,1.9-3.1,3.3c-0.8,1.4-1.1,3-1.1,4.8s0.4,3.4,1.1,4.8
		c0.8,1.4,1.8,2.5,3.1,3.3c1.3,0.8,2.8,1.2,4.5,1.2S555.1,529.8,556.4,529z"/>
	<path d="M590,521.5h-18.8c0.1,1.7,0.5,3.2,1.3,4.5c0.8,1.3,1.9,2.3,3.3,3.1c1.4,0.7,2.9,1.1,4.7,1.1c1.4,0,2.7-0.3,3.9-0.8
		c1.2-0.5,2.2-1.3,3-2.3l1.2,1.4c-0.9,1.1-2.1,2-3.6,2.6c-1.4,0.6-3,0.9-4.7,0.9c-2.2,0-4.1-0.5-5.8-1.4c-1.7-0.9-3-2.3-4-3.9
		c-1-1.7-1.4-3.6-1.4-5.7c0-2.1,0.5-4,1.4-5.7c0.9-1.7,2.2-3,3.7-3.9c1.6-0.9,3.4-1.4,5.3-1.4c2,0,3.8,0.5,5.3,1.4
		c1.6,0.9,2.8,2.2,3.7,3.9c0.9,1.7,1.4,3.6,1.4,5.7L590,521.5z M575.5,512.8c-1.2,0.7-2.2,1.6-2.9,2.9c-0.7,1.2-1.2,2.6-1.3,4.2H588
		c-0.1-1.6-0.5-3-1.3-4.2s-1.7-2.2-3-2.9c-1.2-0.7-2.6-1-4.1-1C578.1,511.8,576.7,512.1,575.5,512.8z"/>
	<path d="M607.1,504.3c-0.3-0.3-0.5-0.7-0.5-1.2s0.2-0.9,0.5-1.2c0.3-0.3,0.7-0.5,1.2-0.5c0.5,0,0.9,0.2,1.2,0.5
		c0.3,0.3,0.5,0.7,0.5,1.2c0,0.5-0.2,0.9-0.5,1.2c-0.3,0.3-0.7,0.5-1.2,0.5C607.8,504.8,607.4,504.6,607.1,504.3z M607.3,510.1h2.1
		v21.8h-2.1V510.1z"/>
	<path d="M635.3,512.3c1.6,1.6,2.4,3.9,2.4,6.9v12.7h-2.1v-12.6c0-2.5-0.6-4.3-1.9-5.6c-1.2-1.3-3-1.9-5.2-1.9
		c-2.6,0-4.6,0.8-6.1,2.3c-1.5,1.5-2.2,3.6-2.2,6.2v11.6h-2.1v-21.8h2v4.7c0.8-1.5,1.9-2.7,3.4-3.6c1.5-0.9,3.3-1.3,5.3-1.3
		C631.5,509.9,633.7,510.7,635.3,512.3z"/>
	<path d="M657.1,530.5c-0.5,0.5-1.2,0.9-2,1.1c-0.8,0.3-1.6,0.4-2.5,0.4c-1.9,0-3.4-0.5-4.4-1.6c-1-1-1.5-2.5-1.5-4.4v-14.2h-4v-1.8
		h4v-4.8h2.1v4.8h6.9v1.8h-6.9v14c0,1.4,0.3,2.5,1,3.2c0.7,0.7,1.7,1.1,3,1.1c1.4,0,2.5-0.4,3.4-1.2L657.1,530.5z"/>
	<path d="M680.5,521.5h-18.8c0.1,1.7,0.5,3.2,1.3,4.5c0.8,1.3,1.9,2.3,3.3,3.1c1.4,0.7,2.9,1.1,4.7,1.1c1.4,0,2.7-0.3,3.9-0.8
		c1.2-0.5,2.2-1.3,3-2.3l1.2,1.4c-0.9,1.1-2.1,2-3.6,2.6c-1.4,0.6-3,0.9-4.7,0.9c-2.2,0-4.1-0.5-5.8-1.4c-1.7-0.9-3-2.3-4-3.9
		c-1-1.7-1.4-3.6-1.4-5.7c0-2.1,0.5-4,1.4-5.7c0.9-1.7,2.2-3,3.7-3.9c1.6-0.9,3.4-1.4,5.3-1.4c2,0,3.8,0.5,5.3,1.4
		c1.6,0.9,2.8,2.2,3.7,3.9c0.9,1.7,1.4,3.6,1.4,5.7L680.5,521.5z M666,512.8c-1.2,0.7-2.2,1.6-2.9,2.9c-0.7,1.2-1.2,2.6-1.3,4.2
		h16.7c-0.1-1.6-0.5-3-1.3-4.2s-1.7-2.2-3-2.9c-1.2-0.7-2.6-1-4.1-1C668.6,511.8,667.3,512.1,666,512.8z"/>
	<path d="M692.2,511.2c1.4-0.8,3.1-1.3,5.2-1.3v2l-0.5,0c-2.4,0-4.3,0.8-5.7,2.3c-1.4,1.5-2,3.6-2,6.3v11.4H687v-21.8h2v4.8
		C689.7,513.3,690.8,512.1,692.2,511.2z"/>
	<path d="M721.3,521.5h-18.8c0.1,1.7,0.5,3.2,1.3,4.5c0.8,1.3,1.9,2.3,3.3,3.1c1.4,0.7,2.9,1.1,4.7,1.1c1.4,0,2.7-0.3,3.9-0.8
		c1.2-0.5,2.2-1.3,3-2.3l1.2,1.4c-0.9,1.1-2.1,2-3.6,2.6c-1.4,0.6-3,0.9-4.7,0.9c-2.2,0-4.1-0.5-5.8-1.4c-1.7-0.9-3-2.3-4-3.9
		c-1-1.7-1.4-3.6-1.4-5.7c0-2.1,0.5-4,1.4-5.7c0.9-1.7,2.2-3,3.7-3.9c1.6-0.9,3.4-1.4,5.3-1.4c2,0,3.8,0.5,5.3,1.4
		c1.6,0.9,2.8,2.2,3.7,3.9c0.9,1.7,1.4,3.6,1.4,5.7L721.3,521.5z M706.8,512.8c-1.2,0.7-2.2,1.6-2.9,2.9c-0.7,1.2-1.2,2.6-1.3,4.2
		h16.7c-0.1-1.6-0.5-3-1.3-4.2s-1.7-2.2-3-2.9c-1.2-0.7-2.6-1-4.1-1C709.4,511.8,708.1,512.1,706.8,512.8z M714.4,501.6h3l-6.6,4.9
		h-2.3L714.4,501.6z"/>
	<path d="M728.3,531.3c-1.6-0.5-2.8-1.2-3.7-2l1-1.7c0.9,0.8,2,1.4,3.4,1.9c1.4,0.5,2.9,0.8,4.4,0.8c2.2,0,3.8-0.4,4.9-1.1
		c1-0.7,1.6-1.7,1.6-3c0-0.9-0.3-1.6-0.9-2.2c-0.6-0.5-1.3-0.9-2.1-1.2s-2-0.5-3.5-0.8c-1.7-0.3-3.1-0.6-4.2-1
		c-1.1-0.4-2-0.9-2.7-1.8c-0.8-0.8-1.1-1.9-1.1-3.3c0-1.7,0.7-3.2,2.2-4.3s3.5-1.7,6.1-1.7c1.4,0,2.8,0.2,4.1,0.6
		c1.4,0.4,2.5,0.9,3.3,1.5l-1,1.7c-0.9-0.6-1.9-1.1-3-1.5c-1.1-0.3-2.3-0.5-3.5-0.5c-2,0-3.6,0.4-4.6,1.1c-1,0.8-1.5,1.7-1.5,3
		c0,1,0.3,1.7,0.9,2.3c0.6,0.5,1.3,0.9,2.2,1.2c0.8,0.3,2,0.6,3.6,0.9c1.7,0.3,3.1,0.6,4.1,1c1,0.3,1.9,0.9,2.7,1.7
		c0.7,0.8,1.1,1.9,1.1,3.2c0,1.8-0.8,3.3-2.3,4.3c-1.5,1.1-3.6,1.6-6.3,1.6C731.6,532.1,729.9,531.8,728.3,531.3z"/>
	<path d="M748.8,529.1c0.3,0.3,0.5,0.8,0.5,1.2c0,0.3,0,0.6-0.1,0.9c-0.1,0.3-0.2,0.7-0.3,1l-1.6,5.7h-1.5l1.4-5.9
		c-0.4-0.1-0.8-0.3-1-0.6c-0.3-0.3-0.4-0.7-0.4-1.1c0-0.5,0.2-0.9,0.5-1.3s0.8-0.5,1.3-0.5C748.1,528.5,748.5,528.7,748.8,529.1z"/>
	<path d="M786.3,500.9v31h-2v-5.1c-0.9,1.7-2.1,3-3.6,3.9c-1.6,0.9-3.3,1.4-5.3,1.4c-2,0-3.9-0.5-5.5-1.4c-1.6-0.9-2.9-2.3-3.9-3.9
		c-0.9-1.7-1.4-3.6-1.4-5.7s0.5-4.1,1.4-5.7c0.9-1.7,2.2-3,3.9-3.9c1.6-0.9,3.5-1.4,5.5-1.4c1.9,0,3.7,0.5,5.2,1.4s2.8,2.2,3.7,3.8
		v-14.2H786.3z M779.9,529c1.3-0.8,2.4-1.9,3.1-3.3c0.8-1.4,1.1-3,1.1-4.8s-0.4-3.4-1.1-4.8c-0.8-1.4-1.8-2.5-3.1-3.3
		c-1.3-0.8-2.8-1.2-4.5-1.2s-3.2,0.4-4.5,1.2c-1.3,0.8-2.4,1.9-3.1,3.3c-0.8,1.4-1.1,3-1.1,4.8s0.4,3.4,1.1,4.8
		c0.8,1.4,1.8,2.5,3.1,3.3c1.3,0.8,2.8,1.2,4.5,1.2S778.6,529.8,779.9,529z"/>
	<path d="M813.5,521.5h-18.8c0.1,1.7,0.5,3.2,1.3,4.5c0.8,1.3,1.9,2.3,3.3,3.1c1.4,0.7,2.9,1.1,4.7,1.1c1.4,0,2.7-0.3,3.9-0.8
		c1.2-0.5,2.2-1.3,3-2.3l1.2,1.4c-0.9,1.1-2.1,2-3.6,2.6c-1.4,0.6-3,0.9-4.7,0.9c-2.2,0-4.1-0.5-5.8-1.4c-1.7-0.9-3-2.3-4-3.9
		c-1-1.7-1.4-3.6-1.4-5.7c0-2.1,0.5-4,1.4-5.7c0.9-1.7,2.2-3,3.7-3.9c1.6-0.9,3.4-1.4,5.3-1.4c2,0,3.8,0.5,5.3,1.4
		c1.6,0.9,2.8,2.2,3.7,3.9c0.9,1.7,1.4,3.6,1.4,5.7L813.5,521.5z M799,512.8c-1.2,0.7-2.2,1.6-2.9,2.9c-0.7,1.2-1.2,2.6-1.3,4.2
		h16.7c-0.1-1.6-0.5-3-1.3-4.2s-1.7-2.2-3-2.9c-1.2-0.7-2.6-1-4.1-1C801.6,511.8,800.2,512.1,799,512.8z"/>
	<path d="M864.3,512.3c1.5,1.6,2.3,3.9,2.3,6.9v12.7h-2.1v-12.6c0-2.5-0.6-4.3-1.8-5.6c-1.2-1.3-2.9-1.9-5-1.9
		c-2.5,0-4.4,0.8-5.8,2.3c-1.4,1.5-2.2,3.6-2.2,6.2v11.6h-2.1v-12.6c0-2.5-0.6-4.3-1.8-5.6c-1.2-1.3-2.9-1.9-5-1.9
		c-2.5,0-4.4,0.8-5.8,2.3c-1.4,1.5-2.2,3.6-2.2,6.2v11.6h-2.1v-21.8h2v4.7c0.7-1.5,1.8-2.7,3.2-3.6c1.4-0.8,3.1-1.3,5.1-1.3
		c2,0,3.7,0.4,5,1.3c1.4,0.9,2.4,2.2,2.9,3.9c0.7-1.6,1.9-2.9,3.4-3.8s3.3-1.4,5.4-1.4C860.6,509.9,862.7,510.7,864.3,512.3z"/>
	<path d="M888.8,512c1.4,1.4,2.2,3.4,2.2,6.1v13.8h-2V528c-0.7,1.3-1.7,2.3-3,3c-1.3,0.7-2.9,1.1-4.8,1.1c-2.4,0-4.3-0.6-5.7-1.7
		c-1.4-1.1-2.1-2.6-2.1-4.5c0-1.8,0.6-3.3,1.9-4.4c1.3-1.1,3.4-1.7,6.2-1.7h7.5V518c0-2-0.6-3.6-1.6-4.6c-1.1-1.1-2.7-1.6-4.8-1.6
		c-1.4,0-2.8,0.3-4.2,0.8c-1.3,0.5-2.4,1.2-3.4,2l-1-1.5c1.1-1,2.4-1.7,3.9-2.3c1.5-0.5,3.1-0.8,4.8-0.8
		C885.3,509.9,887.3,510.6,888.8,512z M886,529.1c1.3-0.8,2.2-2,2.9-3.6v-4.1h-7.4c-2.1,0-3.7,0.4-4.7,1.2c-1,0.8-1.4,1.9-1.4,3.2
		c0,1.4,0.5,2.5,1.6,3.4c1.1,0.8,2.5,1.2,4.5,1.2C883.2,530.4,884.7,530,886,529.1z"/>
	<path d="M916.7,512.3c1.6,1.6,2.4,3.9,2.4,6.9v12.7H917v-12.6c0-2.5-0.6-4.3-1.9-5.6c-1.2-1.3-3-1.9-5.2-1.9
		c-2.6,0-4.6,0.8-6.1,2.3c-1.5,1.5-2.2,3.6-2.2,6.2v11.6h-2.1v-21.8h2v4.7c0.8-1.5,1.9-2.7,3.4-3.6c1.5-0.9,3.3-1.3,5.3-1.3
		C912.9,509.9,915.1,510.7,916.7,512.3z"/>
	<path d="M946.1,521.5h-18.8c0.1,1.7,0.5,3.2,1.3,4.5c0.8,1.3,1.9,2.3,3.3,3.1c1.4,0.7,2.9,1.1,4.7,1.1c1.4,0,2.7-0.3,3.9-0.8
		c1.2-0.5,2.2-1.3,3-2.3l1.2,1.4c-0.9,1.1-2.1,2-3.6,2.6c-1.4,0.6-3,0.9-4.7,0.9c-2.2,0-4.1-0.5-5.8-1.4c-1.7-0.9-3-2.3-4-3.9
		c-1-1.7-1.4-3.6-1.4-5.7c0-2.1,0.5-4,1.4-5.7c0.9-1.7,2.2-3,3.7-3.9c1.6-0.9,3.4-1.4,5.3-1.4c2,0,3.8,0.5,5.3,1.4
		c1.6,0.9,2.8,2.2,3.7,3.9c0.9,1.7,1.4,3.6,1.4,5.7L946.1,521.5z M931.6,512.8c-1.2,0.7-2.2,1.6-2.9,2.9c-0.7,1.2-1.2,2.6-1.3,4.2
		h16.7c-0.1-1.6-0.5-3-1.3-4.2s-1.7-2.2-3-2.9c-1.2-0.7-2.6-1-4.1-1C934.2,511.8,932.9,512.1,931.6,512.8z"/>
	<path d="M957.8,511.2c1.4-0.8,3.1-1.3,5.2-1.3v2l-0.5,0c-2.4,0-4.3,0.8-5.7,2.3c-1.4,1.5-2,3.6-2,6.3v11.4h-2.1v-21.8h2v4.8
		C955.3,513.3,956.4,512.1,957.8,511.2z"/>
	<path d="M982.3,512c1.4,1.4,2.2,3.4,2.2,6.1v13.8h-2V528c-0.7,1.3-1.7,2.3-3,3c-1.3,0.7-2.9,1.1-4.8,1.1c-2.4,0-4.3-0.6-5.7-1.7
		c-1.4-1.1-2.1-2.6-2.1-4.5c0-1.8,0.6-3.3,1.9-4.4s3.4-1.7,6.2-1.7h7.5V518c0-2-0.6-3.6-1.7-4.6c-1.1-1.1-2.7-1.6-4.8-1.6
		c-1.4,0-2.8,0.3-4.2,0.8c-1.3,0.5-2.4,1.2-3.4,2l-1-1.5c1.1-1,2.4-1.7,3.9-2.3c1.5-0.5,3.1-0.8,4.8-0.8
		C978.8,509.9,980.8,510.6,982.3,512z M979.5,529.1c1.3-0.8,2.2-2,2.9-3.6v-4.1h-7.4c-2.1,0-3.7,0.4-4.7,1.2c-1,0.8-1.4,1.9-1.4,3.2
		c0,1.4,0.5,2.5,1.6,3.4c1.1,0.8,2.5,1.2,4.5,1.2C976.7,530.4,978.2,530,979.5,529.1z"/>
</g>
<g class="st3">
	<path d="M249.3,580.9c-1.7-0.9-3-2.3-3.9-3.9c-0.9-1.7-1.4-3.6-1.4-5.7c0-2.1,0.5-4.1,1.4-5.7c0.9-1.7,2.3-3,3.9-3.9
		c1.7-0.9,3.6-1.4,5.7-1.4c1.8,0,3.3,0.3,4.8,1c1.4,0.7,2.6,1.7,3.5,3l-1.5,1.1c-0.8-1.1-1.7-1.9-2.9-2.4c-1.2-0.5-2.4-0.8-3.8-0.8
		c-1.7,0-3.2,0.4-4.6,1.1c-1.4,0.8-2.4,1.8-3.2,3.2c-0.8,1.4-1.1,3-1.1,4.8c0,1.8,0.4,3.4,1.1,4.8c0.8,1.4,1.8,2.5,3.2,3.2
		c1.4,0.8,2.9,1.1,4.6,1.1c1.4,0,2.7-0.3,3.8-0.8c1.2-0.5,2.1-1.4,2.9-2.4l1.5,1.1c-0.9,1.3-2.1,2.3-3.5,3c-1.4,0.7-3,1-4.8,1
		C252.9,582.3,251,581.8,249.3,580.9z"/>
	<path d="M272.1,580.9c-1.7-0.9-3-2.3-3.9-3.9c-0.9-1.7-1.4-3.6-1.4-5.7s0.5-4,1.4-5.7c0.9-1.7,2.2-3,3.9-3.9
		c1.7-0.9,3.5-1.4,5.6-1.4c2.1,0,3.9,0.5,5.6,1.4c1.7,0.9,3,2.3,3.9,3.9c0.9,1.7,1.4,3.6,1.4,5.7s-0.5,4-1.4,5.7
		c-0.9,1.7-2.2,3-3.9,3.9c-1.7,0.9-3.5,1.4-5.6,1.4C275.6,582.3,273.8,581.8,272.1,580.9z M282.2,579.2c1.3-0.8,2.4-1.9,3.1-3.3
		c0.8-1.4,1.1-3,1.1-4.8s-0.4-3.4-1.1-4.8c-0.8-1.4-1.8-2.5-3.1-3.3c-1.3-0.8-2.8-1.2-4.5-1.2s-3.2,0.4-4.5,1.2
		c-1.3,0.8-2.4,1.9-3.1,3.3c-0.8,1.4-1.1,3-1.1,4.8s0.4,3.4,1.1,4.8c0.8,1.4,1.8,2.5,3.1,3.3c1.3,0.8,2.8,1.2,4.5,1.2
		S280.8,580,282.2,579.2z"/>
	<path d="M312.2,562.5c1.6,1.6,2.4,3.9,2.4,6.9v12.7h-2.1v-12.6c0-2.5-0.6-4.3-1.9-5.6c-1.2-1.3-3-1.9-5.2-1.9
		c-2.6,0-4.6,0.8-6.1,2.3c-1.5,1.5-2.2,3.6-2.2,6.2v11.6H295v-21.8h2v4.7c0.8-1.5,1.9-2.7,3.4-3.6c1.5-0.9,3.3-1.3,5.3-1.3
		C308.4,560.1,310.6,560.9,312.2,562.5z"/>
	<path d="M325.6,557.1v3.2h7v1.8h-6.9v20h-2.1v-20h-4v-1.8h4V557c0-1.8,0.5-3.3,1.6-4.4c1.1-1.1,2.5-1.6,4.5-1.6
		c0.8,0,1.6,0.1,2.4,0.4c0.8,0.2,1.4,0.6,1.9,1.1l-0.8,1.6c-0.9-0.8-2-1.2-3.4-1.2C327,552.8,325.6,554.2,325.6,557.1z M340,554.5
		c-0.3-0.3-0.5-0.7-0.5-1.2s0.2-0.9,0.5-1.2c0.3-0.3,0.7-0.5,1.2-0.5c0.5,0,0.9,0.2,1.2,0.5c0.3,0.3,0.5,0.7,0.5,1.2
		c0,0.5-0.2,0.9-0.5,1.2c-0.3,0.3-0.7,0.5-1.2,0.5C340.8,555,340.4,554.8,340,554.5z M340.2,560.3h2.1v21.8h-2.1V560.3z"/>
	<path d="M364.7,562.2c1.4,1.4,2.2,3.4,2.2,6.1v13.8h-2v-3.9c-0.7,1.3-1.7,2.3-3,3c-1.3,0.7-2.9,1.1-4.8,1.1c-2.4,0-4.3-0.6-5.7-1.7
		c-1.4-1.1-2.1-2.6-2.1-4.5c0-1.8,0.6-3.3,1.9-4.4c1.3-1.1,3.4-1.7,6.2-1.7h7.5v-1.8c0-2-0.6-3.6-1.6-4.6c-1.1-1.1-2.7-1.6-4.8-1.6
		c-1.4,0-2.8,0.3-4.2,0.8c-1.3,0.5-2.4,1.2-3.4,2l-1-1.5c1.1-1,2.4-1.7,3.9-2.3c1.5-0.5,3.1-0.8,4.8-0.8
		C361.2,560.1,363.2,560.8,364.7,562.2z M361.9,579.3c1.3-0.8,2.2-2,2.9-3.6v-4.1h-7.4c-2.1,0-3.7,0.4-4.7,1.2
		c-1,0.8-1.4,1.9-1.4,3.2c0,1.4,0.5,2.5,1.6,3.4c1.1,0.8,2.5,1.2,4.5,1.2C359.1,580.6,360.6,580.2,361.9,579.3z"/>
	<path d="M391.9,561.5c1.6,0.9,2.9,2.2,3.9,3.9c0.9,1.7,1.4,3.6,1.4,5.7s-0.5,4.1-1.4,5.7c-0.9,1.7-2.2,3-3.9,3.9
		c-1.6,0.9-3.5,1.4-5.5,1.4c-1.9,0-3.7-0.5-5.3-1.4c-1.6-0.9-2.8-2.2-3.7-3.9v5.1h-2v-31h2.1v14.2c0.9-1.6,2.1-2.9,3.6-3.8
		c1.6-0.9,3.3-1.4,5.2-1.4C388.4,560.1,390.3,560.6,391.9,561.5z M390.8,579.2c1.3-0.8,2.4-1.9,3.2-3.3c0.8-1.4,1.1-3,1.1-4.8
		s-0.4-3.4-1.1-4.8c-0.8-1.4-1.8-2.5-3.2-3.3c-1.3-0.8-2.8-1.2-4.5-1.2c-1.7,0-3.2,0.4-4.5,1.2c-1.3,0.8-2.4,1.9-3.1,3.3
		c-0.8,1.4-1.1,3-1.1,4.8s0.4,3.4,1.1,4.8c0.8,1.4,1.8,2.5,3.1,3.3c1.3,0.8,2.8,1.2,4.5,1.2C387.9,580.4,389.4,580,390.8,579.2z"/>
	<path d="M403.6,551.1h2.1v31h-2.1V551.1z"/>
	<path d="M433,571.7h-18.8c0.1,1.7,0.5,3.2,1.3,4.5c0.8,1.3,1.9,2.3,3.3,3.1c1.4,0.7,2.9,1.1,4.7,1.1c1.4,0,2.7-0.3,3.9-0.8
		c1.2-0.5,2.2-1.3,3-2.3l1.2,1.4c-0.9,1.1-2.1,2-3.6,2.6c-1.4,0.6-3,0.9-4.7,0.9c-2.2,0-4.1-0.5-5.8-1.4c-1.7-0.9-3-2.3-4-3.9
		c-1-1.7-1.4-3.6-1.4-5.7c0-2.1,0.5-4,1.4-5.7c0.9-1.7,2.2-3,3.7-3.9c1.6-0.9,3.4-1.4,5.3-1.4c2,0,3.8,0.5,5.3,1.4
		c1.6,0.9,2.8,2.2,3.7,3.9c0.9,1.7,1.4,3.6,1.4,5.7L433,571.7z M418.5,563c-1.2,0.7-2.2,1.6-2.9,2.9c-0.7,1.2-1.2,2.6-1.3,4.2H431
		c-0.1-1.6-0.5-3-1.3-4.2s-1.7-2.2-3-2.9c-1.2-0.7-2.6-1-4.1-1C421.1,562,419.7,562.3,418.5,563z"/>
	<path d="M440.5,579.3c0.3,0.3,0.5,0.8,0.5,1.2c0,0.3,0,0.6-0.1,0.9c-0.1,0.3-0.2,0.7-0.3,1l-1.6,5.7h-1.5l1.4-5.9
		c-0.4-0.1-0.8-0.3-1-0.6c-0.3-0.3-0.4-0.7-0.4-1.1c0-0.5,0.2-0.9,0.5-1.3s0.8-0.5,1.3-0.5C439.7,578.7,440.1,578.9,440.5,579.3z"/>
	<path d="M459.1,581.5c-1.6-0.5-2.8-1.2-3.7-2l1-1.7c0.9,0.8,2,1.4,3.4,1.9c1.4,0.5,2.9,0.8,4.4,0.8c2.2,0,3.8-0.4,4.9-1.1
		c1-0.7,1.6-1.7,1.6-3c0-0.9-0.3-1.6-0.9-2.2c-0.6-0.5-1.3-0.9-2.1-1.2s-2-0.5-3.5-0.8c-1.7-0.3-3.1-0.6-4.2-1
		c-1.1-0.4-2-0.9-2.7-1.8c-0.8-0.8-1.1-1.9-1.1-3.3c0-1.7,0.7-3.2,2.2-4.3s3.5-1.7,6.1-1.7c1.4,0,2.8,0.2,4.1,0.6
		c1.4,0.4,2.5,0.9,3.3,1.5l-1,1.7c-0.9-0.6-1.9-1.1-3-1.5c-1.1-0.3-2.3-0.5-3.5-0.5c-2,0-3.6,0.4-4.6,1.1c-1,0.8-1.5,1.7-1.5,3
		c0,1,0.3,1.7,0.9,2.3c0.6,0.5,1.3,0.9,2.2,1.2c0.8,0.3,2,0.6,3.6,0.9c1.7,0.3,3.1,0.6,4.1,1c1,0.3,1.9,0.9,2.7,1.7
		c0.7,0.8,1.1,1.9,1.1,3.2c0,1.8-0.8,3.3-2.3,4.3c-1.5,1.1-3.6,1.6-6.3,1.6C462.3,582.3,460.7,582,459.1,581.5z"/>
	<path d="M497,571.7h-18.8c0.1,1.7,0.5,3.2,1.3,4.5c0.8,1.3,1.9,2.3,3.3,3.1c1.4,0.7,2.9,1.1,4.7,1.1c1.4,0,2.7-0.3,3.9-0.8
		c1.2-0.5,2.2-1.3,3-2.3l1.2,1.4c-0.9,1.1-2.1,2-3.6,2.6c-1.4,0.6-3,0.9-4.7,0.9c-2.2,0-4.1-0.5-5.8-1.4c-1.7-0.9-3-2.3-4-3.9
		c-1-1.7-1.4-3.6-1.4-5.7c0-2.1,0.5-4,1.4-5.7c0.9-1.7,2.2-3,3.7-3.9c1.6-0.9,3.4-1.4,5.3-1.4c2,0,3.8,0.5,5.3,1.4
		c1.6,0.9,2.8,2.2,3.7,3.9c0.9,1.7,1.4,3.6,1.4,5.7L497,571.7z M482.5,563c-1.2,0.7-2.2,1.6-2.9,2.9c-0.7,1.2-1.2,2.6-1.3,4.2h16.7
		c-0.1-1.6-0.5-3-1.3-4.2s-1.7-2.2-3-2.9c-1.2-0.7-2.6-1-4.1-1C485.1,562,483.7,562.3,482.5,563z"/>
	<path d="M523.1,560.3v19.5c0,3.6-0.9,6.3-2.6,8c-1.8,1.7-4.4,2.6-7.9,2.6c-2,0-3.9-0.3-5.7-0.9c-1.8-0.6-3.2-1.5-4.3-2.5l1.1-1.6
		c1.1,1,2.4,1.8,3.9,2.3c1.5,0.6,3.2,0.8,4.9,0.8c2.9,0,5-0.7,6.4-2.1c1.4-1.4,2.1-3.5,2.1-6.4v-3.7c-0.9,1.6-2.1,2.8-3.7,3.7
		c-1.6,0.9-3.4,1.3-5.3,1.3c-2,0-3.9-0.5-5.5-1.4c-1.7-0.9-3-2.2-3.9-3.8c-0.9-1.6-1.4-3.4-1.4-5.5c0-2,0.5-3.9,1.4-5.5
		c0.9-1.6,2.2-2.9,3.9-3.8c1.7-0.9,3.5-1.3,5.5-1.3c2,0,3.8,0.4,5.4,1.3c1.6,0.9,2.9,2.1,3.7,3.8v-4.9H523.1z M516.7,578.3
		c1.4-0.7,2.4-1.8,3.2-3.1c0.8-1.3,1.1-2.8,1.1-4.5s-0.4-3.2-1.1-4.5c-0.8-1.3-1.8-2.3-3.2-3.1c-1.4-0.7-2.9-1.1-4.6-1.1
		c-1.7,0-3.2,0.4-4.6,1.1c-1.4,0.7-2.4,1.8-3.2,3.1c-0.8,1.3-1.1,2.8-1.1,4.5s0.4,3.2,1.1,4.5c0.8,1.3,1.8,2.4,3.2,3.1
		c1.4,0.7,2.9,1.1,4.6,1.1C513.8,579.4,515.3,579.1,516.7,578.3z"/>
	<path d="M551,560.3v21.8h-2v-4.7c-0.7,1.5-1.8,2.7-3.2,3.6c-1.4,0.8-3.1,1.3-5,1.3c-2.8,0-5.1-0.8-6.7-2.4
		c-1.6-1.6-2.4-3.9-2.4-6.8v-12.7h2.1v12.6c0,2.5,0.6,4.3,1.9,5.6c1.3,1.3,3,1.9,5.3,1.9c2.5,0,4.4-0.8,5.8-2.3
		c1.4-1.5,2.2-3.6,2.2-6.2v-11.6H551z"/>
	<path d="M565,561.4c1.4-0.8,3.1-1.3,5.2-1.3v2l-0.5,0c-2.4,0-4.3,0.8-5.7,2.3c-1.4,1.5-2,3.6-2,6.3v11.4h-2.1v-21.8h2v4.8
		C562.6,563.5,563.6,562.3,565,561.4z"/>
	<path d="M589.6,562.2c1.4,1.4,2.2,3.4,2.2,6.1v13.8h-2v-3.9c-0.7,1.3-1.7,2.3-3,3c-1.3,0.7-2.9,1.1-4.8,1.1c-2.4,0-4.3-0.6-5.7-1.7
		c-1.4-1.1-2.1-2.6-2.1-4.5c0-1.8,0.6-3.3,1.9-4.4c1.3-1.1,3.4-1.7,6.2-1.7h7.5v-1.8c0-2-0.6-3.6-1.6-4.6c-1.1-1.1-2.7-1.6-4.8-1.6
		c-1.4,0-2.8,0.3-4.2,0.8c-1.3,0.5-2.4,1.2-3.4,2l-1-1.5c1.1-1,2.4-1.7,3.9-2.3c1.5-0.5,3.1-0.8,4.8-0.8
		C586,560.1,588.1,560.8,589.6,562.2z M586.8,579.3c1.3-0.8,2.2-2,2.9-3.6v-4.1h-7.4c-2.1,0-3.7,0.4-4.7,1.2c-1,0.8-1.4,1.9-1.4,3.2
		c0,1.4,0.5,2.5,1.6,3.4c1.1,0.8,2.5,1.2,4.5,1.2C584,580.6,585.5,580.2,586.8,579.3z"/>
	<path d="M628.6,560.3l-11.2,24.8c-0.8,1.9-1.8,3.3-2.9,4.1c-1.1,0.8-2.4,1.2-3.9,1.2c-1,0-1.9-0.2-2.8-0.5
		c-0.9-0.3-1.6-0.8-2.2-1.5l1-1.6c1.1,1.1,2.5,1.7,4.1,1.7c1.1,0,2-0.3,2.7-0.9c0.8-0.6,1.4-1.6,2.1-3l1.2-2.6l-9.8-21.7h2.2
		l8.7,19.5l8.7-19.5H628.6z"/>
	<path d="M646.8,580.9c-1.7-0.9-3-2.3-3.9-3.9c-0.9-1.7-1.4-3.6-1.4-5.7s0.5-4,1.4-5.7c0.9-1.7,2.2-3,3.9-3.9
		c1.7-0.9,3.5-1.4,5.6-1.4c2.1,0,3.9,0.5,5.6,1.4c1.7,0.9,3,2.3,3.9,3.9c0.9,1.7,1.4,3.6,1.4,5.7s-0.5,4-1.4,5.7
		c-0.9,1.7-2.2,3-3.9,3.9c-1.7,0.9-3.5,1.4-5.6,1.4C650.3,582.3,648.5,581.8,646.8,580.9z M656.9,579.2c1.3-0.8,2.4-1.9,3.1-3.3
		c0.8-1.4,1.1-3,1.1-4.8s-0.4-3.4-1.1-4.8c-0.8-1.4-1.8-2.5-3.1-3.3c-1.3-0.8-2.8-1.2-4.5-1.2s-3.2,0.4-4.5,1.2
		c-1.3,0.8-2.4,1.9-3.1,3.3c-0.8,1.4-1.1,3-1.1,4.8s0.4,3.4,1.1,4.8c0.8,1.4,1.8,2.5,3.1,3.3c1.3,0.8,2.8,1.2,4.5,1.2
		S655.5,580,656.9,579.2z"/>
	<path d="M686.2,561.6c1.6,0.9,2.9,2.3,3.9,3.9c0.9,1.7,1.4,3.6,1.4,5.7s-0.5,4.1-1.4,5.7c-0.9,1.7-2.2,3-3.9,3.9
		c-1.6,0.9-3.5,1.4-5.5,1.4c-1.9,0-3.7-0.5-5.2-1.4c-1.6-0.9-2.8-2.2-3.6-3.8v13.1h-2.1v-29.9h2v5.1c0.9-1.7,2.1-3,3.7-3.9
		c1.6-0.9,3.3-1.4,5.3-1.4C682.7,560.1,684.6,560.6,686.2,561.6z M685.1,579.2c1.3-0.8,2.4-1.9,3.2-3.3c0.8-1.4,1.1-3,1.1-4.8
		s-0.4-3.4-1.1-4.8c-0.8-1.4-1.8-2.5-3.2-3.3c-1.3-0.8-2.8-1.2-4.5-1.2c-1.7,0-3.2,0.4-4.5,1.2c-1.3,0.8-2.4,1.9-3.1,3.3
		c-0.8,1.4-1.1,3-1.1,4.8s0.4,3.4,1.1,4.8c0.8,1.4,1.8,2.5,3.1,3.3c1.3,0.8,2.8,1.2,4.5,1.2C682.2,580.4,683.7,580,685.1,579.2z"/>
	<path d="M700.9,580.9c-1.7-0.9-3-2.3-3.9-3.9c-0.9-1.7-1.4-3.6-1.4-5.7s0.5-4,1.4-5.7c0.9-1.7,2.2-3,3.9-3.9
		c1.7-0.9,3.5-1.4,5.6-1.4c2.1,0,3.9,0.5,5.6,1.4c1.7,0.9,3,2.3,3.9,3.9c0.9,1.7,1.4,3.6,1.4,5.7s-0.5,4-1.4,5.7
		c-0.9,1.7-2.2,3-3.9,3.9c-1.7,0.9-3.5,1.4-5.6,1.4C704.4,582.3,702.5,581.8,700.9,580.9z M711,579.2c1.3-0.8,2.4-1.9,3.1-3.3
		c0.8-1.4,1.1-3,1.1-4.8s-0.4-3.4-1.1-4.8c-0.8-1.4-1.8-2.5-3.1-3.3c-1.3-0.8-2.8-1.2-4.5-1.2s-3.2,0.4-4.5,1.2
		c-1.3,0.8-2.4,1.9-3.1,3.3c-0.8,1.4-1.1,3-1.1,4.8s0.4,3.4,1.1,4.8c0.8,1.4,1.8,2.5,3.1,3.3c1.3,0.8,2.8,1.2,4.5,1.2
		S709.6,580,711,579.2z"/>
	<path d="M729,561.4c1.4-0.8,3.1-1.3,5.2-1.3v2l-0.5,0c-2.4,0-4.3,0.8-5.7,2.3c-1.4,1.5-2,3.6-2,6.3v11.4h-2.1v-21.8h2v4.8
		C726.5,563.5,727.6,562.3,729,561.4z"/>
	<path d="M751.7,580.7c-0.5,0.5-1.2,0.9-2,1.1c-0.8,0.3-1.6,0.4-2.5,0.4c-1.9,0-3.4-0.5-4.4-1.6c-1-1-1.5-2.5-1.5-4.4v-14.2h-4v-1.8
		h4v-4.8h2.1v4.8h6.9v1.8h-6.9v14c0,1.4,0.3,2.5,1,3.2c0.7,0.7,1.7,1.1,3,1.1c1.4,0,2.5-0.4,3.4-1.2L751.7,580.7z"/>
	<path d="M776.6,560.3v21.8h-2v-4.7c-0.7,1.5-1.8,2.7-3.2,3.6c-1.4,0.8-3.1,1.3-5,1.3c-2.8,0-5.1-0.8-6.7-2.4
		c-1.6-1.6-2.4-3.9-2.4-6.8v-12.7h2.1v12.6c0,2.5,0.6,4.3,1.9,5.6c1.3,1.3,3,1.9,5.3,1.9c2.5,0,4.4-0.8,5.8-2.3
		c1.4-1.5,2.2-3.6,2.2-6.2v-11.6H776.6z"/>
	<path d="M802.6,562.5c1.6,1.6,2.4,3.9,2.4,6.9v12.7h-2.1v-12.6c0-2.5-0.6-4.3-1.9-5.6c-1.2-1.3-3-1.9-5.2-1.9
		c-2.6,0-4.6,0.8-6.1,2.3c-1.5,1.5-2.2,3.6-2.2,6.2v11.6h-2.1v-21.8h2v4.7c0.8-1.5,1.9-2.7,3.4-3.6c1.5-0.9,3.3-1.3,5.3-1.3
		C798.9,560.1,801,560.9,802.6,562.5z"/>
	<path d="M827.2,562.2c1.4,1.4,2.2,3.4,2.2,6.1v13.8h-2v-3.9c-0.7,1.3-1.7,2.3-3,3c-1.3,0.7-2.9,1.1-4.8,1.1c-2.4,0-4.3-0.6-5.7-1.7
		c-1.4-1.1-2.1-2.6-2.1-4.5c0-1.8,0.6-3.3,1.9-4.4c1.3-1.1,3.4-1.7,6.2-1.7h7.5v-1.8c0-2-0.6-3.6-1.6-4.6c-1.1-1.1-2.7-1.6-4.8-1.6
		c-1.4,0-2.8,0.3-4.2,0.8c-1.3,0.5-2.4,1.2-3.4,2l-1-1.5c1.1-1,2.4-1.7,3.9-2.3c1.5-0.5,3.1-0.8,4.8-0.8
		C823.6,560.1,825.7,560.8,827.2,562.2z M824.4,579.3c1.3-0.8,2.2-2,2.9-3.6v-4.1h-7.4c-2.1,0-3.7,0.4-4.7,1.2
		c-1,0.8-1.4,1.9-1.4,3.2c0,1.4,0.5,2.5,1.6,3.4c1.1,0.8,2.5,1.2,4.5,1.2C821.6,580.6,823.1,580.2,824.4,579.3z"/>
	<path d="M836.5,581.8c-0.3-0.3-0.5-0.8-0.5-1.3s0.2-0.9,0.5-1.3c0.3-0.3,0.8-0.5,1.2-0.5c0.5,0,0.9,0.2,1.2,0.5
		c0.3,0.3,0.5,0.8,0.5,1.3s-0.2,0.9-0.5,1.3c-0.3,0.3-0.8,0.5-1.2,0.5C837.2,582.3,836.8,582.1,836.5,581.8z"/>
</g>
<g class="st3">
	<path d="M288.2,264.1c19,0,29.8,7.2,29.8,18.1s-6.7,15.8-17.5,18.4c10.6,1,25.1,11.6,25.1,30.5c0,17.9-11.4,30.8-27.4,35.1
		c-9.4,2.5-20.8,3.7-30.6,1.5c-36.8-8.3-27.8-53.9,2.6-51.1c4.3,0.4,8.4,2.4,11.7,5.2c6.8,6.1,8,15.6,3.2,20.4
		c-3.3,3.2-7.5,3.2-11.8,2.3c-6.8-1.9-8.1-8.4-12.9-7.1c-3.7,1-6.9,4-5.5,11.9c1.4,8.3,8.4,16.4,21,16.5
		c17.3-0.2,31.6-12.4,31.6-34.7c0-19.7-15.2-28.8-23-28.8h-5v15.4c-2.8-1.7-5.9-2.7-9.2-3.1c-0.8-0.1-1.6-0.1-2.4-0.1
		c-0.3,0-0.5,0-0.8,0c-2,0-3.9,0.3-5.7,0.7v-37.5c0-7.6-1.3-10.9-6.7-11.6h0c-4.9,0-7.9,3.6-5.3,10.5c1.3,3.5,3.6,5.7,3.7,9.8
		c0,5.8-4.7,10.5-10.5,10.5c-3.3,0-7.5-2.1-9.4-6h0c0,0,0,0,0,0c-0.3-0.7-0.6-1.4-0.8-2.1c-3.6-11.8,5.8-24.7,22.4-24.7h0
		L288.2,264.1z M279.5,266.1v34.2h5.1c6.6,0,15.3-5.6,15.3-17.7s-8.2-16.5-15.3-16.5H279.5z"/>
	<path d="M359.4,264.1c0.6,0,1,0.5,1,1c0,0.6-0.5,0.9-1,1c-5,0.7-6.8,4-6.8,11.6v50.6c0,7.6,1.8,10.8,6.8,11.6c0.5,0.1,1,0.4,1,1
		c0,0.4-0.4,1-1,1h-31.5c-0.7,0-1.1-0.3-1.1-1c0-0.6,0.3-0.9,1.1-1c5.4-0.7,6.7-3.9,6.7-11.6v-50.6c0-7.6-1.3-10.9-6.7-11.6
		c-0.7-0.1-1.1-0.4-1.1-1c0-0.7,0.4-1,1.1-1H359.4z"/>
	<path d="M422.3,264.1l2.2,21.5c0.1,0.5-0.3,1-0.9,1.1c-0.5,0.1-1-0.3-1.1-0.9l-0.8-7.4c-1.1-8.1-5.2-12.4-13.1-12.4H390v39.2h9.3
		c4.9,0,8.9-3.7,8.9-7.7v-1.7c0-0.5,0.4-1,1-1c0.5,0,1,0.4,1,1v20.6c0,0.5-0.4,1-1,1c-0.5,0-1-0.4-1-1v-1.7c0-3.9-3.9-7.6-9-7.6H390
		v32.7h15.2c7.1-0.1,15.8-4.8,17-16.5l0.4-3.2c0.1-0.5,0.5-0.9,1.1-0.9s0.9,0.5,0.9,1.1l-2.2,21.4h-57c-0.7,0-1.1-0.3-1.1-1
		c0-0.6,0.3-0.9,1.1-1c5.4-0.7,6.7-3.9,6.7-11.6v-50.6c0-7.6-1.3-10.9-6.7-11.6c-0.7-0.1-1.1-0.4-1.1-1c0-0.7,0.4-1,1.1-1H422.3z"/>
	<path d="M453,264.1l31.7,45.8v-32.2c0-7.6-1.3-10.9-6.7-11.6c-0.7-0.1-1.1-0.4-1.1-1c0-0.7,0.4-1,1.1-1h15.4c0.6,0,1,0.5,1,1
		c0,0.6-0.5,0.9-1,1c-4.7,0-6.8,2.9-6.8,11.6l-0.2,64.2h-1.6l-46.7-67.5l-0.1,53.9c0,4.3-0.3,10.6,6.8,11.6c0.5,0.1,1,0.4,1,1
		c0,0.4-0.4,1-1,1h-15.4c-0.7,0-1.1-0.3-1.1-1c0-0.6,0.3-0.9,1.1-1c5.4-0.7,6.7-3.9,6.7-11.6v-50.6c0-7.6-1.3-10.9-6.7-11.6
		c-0.7-0.1-1.1-0.4-1.1-1c0-0.7,0.4-1,1.1-1H453z"/>
	<path d="M528,264.1c0.7,0,1.5,0.1,1.5,1c0,0.7-0.5,0.9-1.2,1c-4.6,1.4-3.3,7.1-1.6,11.5l17.4,41.9l16.2-42.9
		c1.4-3.8,3.5-10.5-2-10.5c-0.5-0.1-1-0.4-1-1c0-0.4,0.4-1,1-1h16.1c0.7,0,1.1,0.3,1.1,1c0,0.6-0.3,0.9-1.1,1
		c-5.7,0.1-9.1,2.9-12.4,11.7l-24.1,64.1h-1.7h-0.1h-1.2l-26.7-64.2c-2.7-6.6-5.1-10.3-8.6-11.6c-0.5-0.1-1.1-0.2-1.1-1
		c0-0.6,0.5-1,1.1-1H528z"/>
	<path d="M637.2,264.1l2.2,21.5c0.1,0.5-0.3,1-0.9,1.1c-0.5,0.1-1-0.3-1.1-0.9l-0.8-7.4c-1.1-8.1-5.2-12.4-13.1-12.4h-18.6v39.2h9.3
		c4.9,0,8.9-3.7,8.9-7.7v-1.7c0-0.5,0.4-1,1-1c0.5,0,1,0.4,1,1v20.6c0,0.5-0.4,1-1,1c-0.5,0-1-0.4-1-1v-1.7c0-3.9-3.9-7.6-9-7.6
		h-9.3v32.7h15.2c7.1-0.1,15.8-4.8,17-16.5l0.4-3.2c0.1-0.5,0.5-0.9,1.1-0.9s0.9,0.5,0.9,1.1l-2.2,21.4h-57c-0.7,0-1.1-0.3-1.1-1
		c0-0.6,0.3-0.9,1.1-1c5.4-0.7,6.7-3.9,6.7-11.6v-50.6c0-7.6-1.3-10.9-6.7-11.6c-0.7-0.1-1.1-0.4-1.1-1c0-0.7,0.4-1,1.1-1H637.2z"/>
	<path d="M667.9,264.1l31.7,45.8v-32.2c0-7.6-1.3-10.9-6.7-11.6c-0.7-0.1-1.1-0.4-1.1-1c0-0.7,0.4-1,1.1-1h15.4c0.6,0,1,0.5,1,1
		c0,0.6-0.5,0.9-1,1c-4.7,0-6.8,2.9-6.8,11.6l-0.2,64.2h-1.6L653,274.3l-0.1,53.9c0,4.3-0.3,10.6,6.8,11.6c0.5,0.1,1,0.4,1,1
		c0,0.4-0.4,1-1,1h-15.4c-0.7,0-1.1-0.3-1.1-1c0-0.6,0.3-0.9,1.1-1c5.4-0.7,6.7-3.9,6.7-11.6v-50.6c0-7.6-1.3-10.9-6.7-11.6
		c-0.7-0.1-1.1-0.4-1.1-1c0-0.7,0.4-1,1.1-1H667.9z"/>
	<path d="M745.7,264.1c0.6,0,1,0.5,1,1c0,0.6-0.5,0.9-1,1c-5,0.7-6.8,4-6.8,11.6v50.6c0,7.6,1.8,10.8,6.8,11.6c0.5,0.1,1,0.4,1,1
		c0,0.4-0.4,1-1,1h-31.5c-0.7,0-1.1-0.3-1.1-1c0-0.6,0.3-0.9,1.1-1c5.4-0.7,6.7-3.9,6.7-11.6v-50.6c0-7.6-1.3-10.9-6.7-11.6
		c-0.7-0.1-1.1-0.4-1.1-1c0-0.7,0.4-1,1.1-1H745.7z"/>
	<path d="M788.3,264.1c16,0,36.4,12.2,36.4,36.4c0,24.2-17.6,41.3-36.4,41.3h-36.6c-0.7,0-1.1-0.3-1.1-1c0-0.6,0.3-0.9,1.1-1
		c5.4-0.7,6.7-3.9,6.7-11.6v-50.6c0-7.6-1.3-10.9-6.7-11.6c-0.7-0.1-1.1-0.4-1.1-1c0-0.7,0.4-1,1.1-1
		C765.1,264.1,774.8,264.1,788.3,264.1z M776.4,339.9h3.2c13.9,0,26.9-13.7,26.9-39.4s-16.2-34.5-26.1-34.5h-4V339.9z"/>
</g>
<g class="st3">
	<path d="M929.7,257.6c9.2,4.8,16.4,11.5,21.5,20.1c5.1,8.6,7.7,18.3,7.7,29.2c0,11.2-2.2,19.9-6.6,26.3c-4.4,6.3-10.4,9.5-18.2,9.5
		c-4.1,0-7.6-1-10.4-2.9c-2.8-1.9-4.8-4.7-5.9-8.3c-5.2,7.5-12.9,11.2-23.2,11.2c-5.8,0-11.1-1.4-15.9-4.2
		c-4.7-2.8-8.4-6.7-11.1-11.7c-2.7-5-4-10.7-4-17c0-6.3,1.3-11.9,4-16.8c2.7-4.9,6.4-8.8,11.1-11.6c4.7-2.8,10-4.2,15.9-4.2
		c4.6,0,8.7,0.8,12.3,2.3c3.7,1.5,6.7,3.8,9.2,6.8v-8.4h14.3v43.9c0,3.1,0.6,5.3,1.9,6.7c1.2,1.4,2.9,2.1,4.8,2.1c3.5,0,6.2-2,8.1-6
		c1.8-4,2.8-9.8,2.8-17.4c0-9.1-2.1-17.2-6.3-24.1c-4.2-7-10-12.4-17.5-16.3c-7.5-3.9-16.1-5.8-25.8-5.8c-9.8,0-18.5,2-26.1,6.1
		c-7.6,4.1-13.4,9.8-17.5,17.1c-4.1,7.3-6.2,15.6-6.2,24.9c0,9.5,2,17.8,6.1,25.2c4.1,7.3,9.9,13,17.4,17.1
		c7.5,4.1,16.1,6.1,25.8,6.1c4.2,0,8.5-0.5,12.8-1.4c4.3-0.9,8.4-2.4,12.2-4.3l3.5,10.3c-3.8,2-8.2,3.5-13.4,4.5
		c-5.1,1-10.2,1.5-15.2,1.5c-12,0-22.7-2.5-31.9-7.6c-9.2-5.1-16.4-12.1-21.5-21c-5.1-8.9-7.7-19.1-7.7-30.4
		c0-11.2,2.6-21.2,7.7-30.1c5.2-8.9,12.4-15.9,21.7-21c9.3-5.1,20.1-7.6,32.2-7.6C910.1,250.4,920.5,252.8,929.7,257.6z
		 M910.9,324.6c3.6-3.7,5.4-8.6,5.4-14.9c0-6.2-1.8-11.1-5.4-14.7c-3.6-3.6-8.1-5.4-13.7-5.4c-5.7,0-10.3,1.8-13.8,5.5
		c-3.5,3.7-5.3,8.5-5.3,14.6c0,6.2,1.8,11.1,5.3,14.8c3.5,3.7,8.1,5.5,13.8,5.5C902.8,330.1,907.4,328.3,910.9,324.6z"/>
</g>
<g class="st3">
	<path d="M1019.4,264.8c0.5-1,1.9-0.8,1.9,0.3v16.8c0,0.5-0.4,0.9-0.9,1c-0.4,0-0.9-0.3-1-0.8c-3.7-13.6-11.7-16.3-18.8-16.6
		c-8,0-12.8,5.9-12.8,13.4c0,18.5,41.3,13.8,41.3,41c0,12.3-11.9,23-33.1,23c-19.1,0-31.5-7.4-31.5-21.8c0-7.1,3.7-13.9,11.8-13.9
		c6.9,0,11,4.2,11,9.4c0,7.1-7,7-6.8,14.2c0.1,4.3,4.2,10.1,15.3,10.1c11.2,0,17.8-8.3,17.8-14.1c0-18.1-40.6-14.1-40.6-41.9
		c0-9.6,6.2-21.3,27.6-21.3C1011.6,263.5,1017.5,268.3,1019.4,264.8z"/>
</g>
<g>
	<g>
		<g>
			<defs>
				<rect id="SVGID_1_" x="1138.7" y="125.8" width="470.3" height="568.3"/>
			</defs>
			<clipPath id="SVGID_00000008848144654069049780000015907657524951215777_">
				<use xlink:href="#SVGID_1_"  style="overflow:visible;"/>
			</clipPath>
			<g style="clip-path:url(#SVGID_00000008848144654069049780000015907657524951215777_);">
				<g>
					<defs>
						<rect id="SVGID_00000013163653446480140340000009143105249294216628_" x="1138.7" y="125.8" width="470.3" height="568.3"/>
					</defs>
					<clipPath id="SVGID_00000053535384058116670940000010433496054170925238_">
						<use xlink:href="#SVGID_00000013163653446480140340000009143105249294216628_"  style="overflow:visible;"/>
					</clipPath>
					
						<g transform="matrix(1 0 0 1 0 7.629395e-06)" style="clip-path:url(#SVGID_00000053535384058116670940000010433496054170925238_);">
						
							<image style="overflow:visible;enable-background:new    ;" width="379" height="459" xlink:href="F66480.jpg"  transform="matrix(1.2392 0 0 1.2392 1139.0182 125.5174)">
						</image>
					</g>
				</g>
			</g>
		</g>
	</g>
	<rect x="1528.2" y="409.9" class="st6" width="1.9" height="344.8"/>
	<rect x="1571.8" y="409.9" class="st6" width="1.9" height="344.8"/>
	<rect x="1615.4" y="409.9" class="st6" width="1.9" height="344.8"/>
	<rect x="1659" y="409.9" class="st6" width="1.9" height="344.8"/>
	<rect x="1702.6" y="409.9" class="st6" width="1.9" height="344.8"/>
	<rect x="1746.2" y="409.9" class="st6" width="1.9" height="344.8"/>
	<rect x="1789.8" y="409.9" class="st6" width="1.9" height="344.8"/>
	<rect x="1513.5" y="714.3" class="st6" width="320.2" height="1.9"/>
	<rect x="1513.5" y="670.7" class="st6" width="320.2" height="1.9"/>
	<rect x="1513.5" y="627.1" class="st6" width="320.2" height="1.9"/>
	<rect x="1513.5" y="583.6" class="st6" width="320.2" height="1.9"/>
	<rect x="1513.5" y="540" class="st6" width="320.2" height="1.9"/>
	<rect x="1513.5" y="496.4" class="st6" width="320.2" height="1.9"/>
	<rect x="1513.5" y="452.8" class="st6" width="320.2" height="1.9"/>
	<rect x="1573.4" y="585.4" class="st1" width="41.5" height="41.5"/>
	<rect x="1617.8" y="628.3" class="st1" width="41.5" height="41.5"/>
	<rect x="1660.8" y="672.8" class="st1" width="41.5" height="41.5"/>
</g>
<path class="st7" d="M265.7,108.5c11.3,0,16.9,8.1,21.3,14.6c4.4,6.4,7.1,10,12.5,10s8.1-3.6,12.5-10c4.5-6.5,10.1-14.6,21.3-14.6
	c11.3,0,16.9,8.1,21.3,14.6c4.4,6.4,7.1,10,12.5,10c3,0,5.4,2.4,5.4,5.4s-2.4,5.4-5.4,5.4c-11.3,0-16.9-8.1-21.3-14.6
	c-4.4-6.4-7.1-10-12.5-10s-8.1,3.6-12.5,10c-4.5,6.5-10.1,14.6-21.3,14.6c-11.3,0-16.9-8.1-21.3-14.6c-4.4-6.4-7.1-10-12.5-10
	s-8.1,3.6-12.5,10c-4.5,6.5-10.1,14.6-21.3,14.6c-3,0-5.4-2.4-5.4-5.4s2.4-5.4,5.4-5.4c5.4,0,8.1-3.6,12.5-10
	C248.8,116.6,254.4,108.5,265.7,108.5"/>
<path class="st2" d="M701.8,191.2c-17.8,0-32.3-14.5-32.3-32.3s14.5-32.3,32.3-32.3s32.3,14.5,32.3,32.3S719.6,191.2,701.8,191.2z
	 M701.8,138.8c-11.1,0-20.1,9-20.1,20.1s9,20.1,20.1,20.1s20.1-9,20.1-20.1C721.9,147.8,712.9,138.8,701.8,138.8z"/>
<path class="st1" d="M922,810.6c-26.8,0-48.5-21.8-48.5-48.5c0-26.8,21.8-48.5,48.5-48.5s48.5,21.8,48.5,48.5
	C970.5,788.9,948.7,810.6,922,810.6 M922,731.9c-16.7,0-30.3,13.6-30.3,30.3s13.6,30.3,30.3,30.3s30.3-13.6,30.3-30.3
	C952.2,745.4,938.6,731.9,922,731.9"/>
<path class="st8" d="M512.5,676.6h-239c-15.2,0-27.5-12.3-27.5-27.5l0,0c0-15.2,12.3-27.5,27.5-27.5h239c15.2,0,27.5,12.3,27.5,27.5
	l0,0C540,664.3,527.6,676.6,512.5,676.6z"/>
<g class="st3">
	<path class="st9" d="M269.5,641.9c-0.4,0.4-0.6,0.8-0.6,1.4c0,0.6,0.3,1,0.8,1.4c0.5,0.3,1.7,0.7,3.6,1.2c1.9,0.5,3.4,1.2,4.4,2.1
		c1,0.9,1.6,2.3,1.6,4.1c0,1.8-0.7,3.2-2,4.4c-1.3,1.1-3.1,1.7-5.3,1.7c-3.2,0-6-1.2-8.6-3.5l2.7-3.3c2.2,1.9,4.2,2.8,6,2.8
		c0.8,0,1.5-0.2,1.9-0.5c0.5-0.4,0.7-0.8,0.7-1.4c0-0.6-0.2-1.1-0.7-1.4c-0.5-0.4-1.5-0.7-2.9-1.1c-2.3-0.6-4-1.3-5.1-2.2
		c-1.1-0.9-1.6-2.3-1.6-4.2c0-1.9,0.7-3.4,2-4.4c1.4-1,3.1-1.5,5.1-1.5c1.3,0,2.7,0.2,4,0.7c1.3,0.5,2.5,1.1,3.5,1.9l-2.3,3.3
		c-1.7-1.3-3.5-2-5.4-2C270.5,641.3,269.9,641.5,269.5,641.9z"/>
	<path class="st9" d="M292.4,650.8v-8.3h4.3v15.4h-4.3v-2c-1.1,1.5-2.4,2.3-4.1,2.3c-1.7,0-3.1-0.5-4.2-1.6
		c-1.1-1.1-1.7-2.6-1.7-4.7v-9.3h4.3v8.4c0,2.4,0.9,3.5,2.6,3.5c0.9,0,1.6-0.3,2.2-0.9C292.1,652.9,292.4,652,292.4,650.8z"/>
	<path class="st9" d="M314.9,649.6v8.3h-4.3v-8.4c0-1.2-0.2-2.1-0.6-2.7c-0.4-0.6-1-0.9-1.8-0.9s-1.6,0.3-2.2,0.9
		c-0.6,0.6-1,1.5-1,2.7v8.3h-4.3v-15.4h4.3v1.7c1.2-1.3,2.5-2,4.1-2c1,0,1.9,0.3,2.6,0.9c0.8,0.6,1.4,1.3,1.8,2.1
		c0.6-0.9,1.4-1.7,2.4-2.2c1-0.5,2-0.8,3-0.8c1.8,0,3.3,0.5,4.4,1.6c1.1,1.1,1.7,2.6,1.7,4.7v9.4h-4.3v-8.4c0-2.4-0.9-3.5-2.6-3.5
		c-0.9,0-1.6,0.3-2.2,0.9C315.2,647.5,314.9,648.4,314.9,649.6z"/>
	<path class="st9" d="M342,657.9h-4V656c-1.1,1.4-2.5,2.1-4.1,2.1s-3-0.5-4.1-1.4c-1.1-0.9-1.7-2.2-1.7-3.8s0.6-2.8,1.7-3.5
		c1.1-0.8,2.7-1.2,4.7-1.2h3.2v-0.1c0-1.6-0.9-2.5-2.6-2.5c-0.7,0-1.5,0.1-2.4,0.4s-1.5,0.7-2.1,1.1l-1.9-2.8c2-1.5,4.3-2.2,6.9-2.2
		c1.9,0,3.4,0.5,4.6,1.4c1.2,0.9,1.8,2.4,1.8,4.4V657.9z M337.7,652v-0.7H335c-1.7,0-2.6,0.5-2.6,1.6c0,0.6,0.2,1,0.6,1.3
		c0.4,0.3,1,0.4,1.8,0.4c0.8,0,1.4-0.2,2-0.7S337.7,652.8,337.7,652z"/>
	<path class="st9" d="M350.2,649.3v8.6h-4.3v-15.4h4.3v1.7c1.3-1.3,2.8-2,4.4-2c1.6,0,3,0.6,4.1,1.7s1.6,2.7,1.6,4.6v9.4H356v-8.7
		c0-2.4-0.9-3.5-2.6-3.5c-0.9,0-1.6,0.3-2.2,0.9C350.5,647.2,350.2,648.1,350.2,649.3z"/>
	<path class="st9" d="M369.1,645.6v6.9c0,0.6,0.2,1.1,0.5,1.4c0.3,0.3,0.7,0.5,1.1,0.5c0.8,0,1.5-0.4,2-1.1l1.6,3
		c-1.3,1.2-2.7,1.8-4.2,1.8c-1.5,0-2.7-0.5-3.7-1.5c-1-1-1.5-2.3-1.5-4v-7.1H363v-3.1h1.8v-4.6h4.3v4.6h3.7v3.1H369.1z"/>
	<path class="st9" d="M389.9,655.6c-1.7,1.6-3.8,2.5-6.1,2.5s-4.3-0.7-5.8-2.2c-1.5-1.4-2.3-3.4-2.3-5.8s0.8-4.4,2.3-5.8
		c1.6-1.4,3.4-2.1,5.5-2.1s3.9,0.6,5.4,1.9c1.5,1.3,2.2,3,2.2,5.3v2.3H380c0.1,0.8,0.6,1.5,1.3,2.1s1.6,0.8,2.5,0.8
		c1.5,0,2.7-0.5,3.7-1.5L389.9,655.6z M385.8,646.5c-0.6-0.5-1.3-0.7-2.2-0.7c-0.8,0-1.6,0.3-2.3,0.8c-0.7,0.5-1.1,1.2-1.2,2.1h6.8
		C386.7,647.7,386.4,647,385.8,646.5z"/>
	<path class="st9" d="M414.9,657.9h-4V656c-1.1,1.4-2.5,2.1-4.1,2.1s-3-0.5-4.1-1.4c-1.1-0.9-1.7-2.2-1.7-3.8s0.6-2.8,1.7-3.5
		c1.1-0.8,2.7-1.2,4.7-1.2h3.2v-0.1c0-1.6-0.9-2.5-2.6-2.5c-0.7,0-1.5,0.1-2.4,0.4s-1.5,0.7-2.1,1.1l-1.9-2.8c2-1.5,4.3-2.2,6.9-2.2
		c1.9,0,3.4,0.5,4.6,1.4c1.2,0.9,1.8,2.4,1.8,4.4V657.9z M410.6,652v-0.7h-2.7c-1.7,0-2.6,0.5-2.6,1.6c0,0.6,0.2,1,0.6,1.3
		c0.4,0.3,1,0.4,1.8,0.4c0.8,0,1.4-0.2,2-0.7S410.6,652.8,410.6,652z"/>
	<path class="st9" d="M442.1,640.5c1.9,1.7,2.9,4.2,2.9,7.3c0,3.1-0.9,5.6-2.8,7.4s-4.7,2.7-8.5,2.7h-6.8v-20h7.1
		C437.4,637.9,440.2,638.7,442.1,640.5z M438.8,652.4c1.1-1,1.6-2.5,1.6-4.5c0-2-0.5-3.5-1.6-4.5c-1.1-1.1-2.8-1.6-5.1-1.6h-2.5
		v12.2h2.8C436.1,653.9,437.7,653.4,438.8,652.4z"/>
	<path class="st9" d="M462.5,657.9l-1.9-4.3h-8.4l-1.9,4.3h-4.8l8.6-20h4.3l8.6,20H462.5z M456.5,643.8l-2.5,5.8h5L456.5,643.8z"/>
	<path class="st9" d="M476.6,641.7v16.1h-4.5v-16.1h-5.7v-3.9h15.8v3.9H476.6z"/>
	<path class="st9" d="M494,641.7v16.1h-4.5v-16.1h-5.7v-3.9h15.8v3.9H494z"/>
	<path class="st9" d="M519.2,655.1c-2,2-4.5,3-7.5,3s-5.4-1-7.5-3c-2-2-3-4.4-3-7.4s1-5.4,3-7.4c2-2,4.5-3,7.5-3s5.4,1,7.5,3
		s3,4.4,3,7.4S521.2,653.1,519.2,655.1z M517.7,647.8c0-1.8-0.6-3.3-1.7-4.6c-1.1-1.3-2.6-1.9-4.2-1.9c-1.7,0-3.1,0.6-4.2,1.9
		c-1.1,1.3-1.7,2.8-1.7,4.6s0.6,3.3,1.7,4.6c1.1,1.2,2.6,1.9,4.2,1.9c1.7,0,3.1-0.6,4.2-1.9C517.1,651.1,517.7,649.5,517.7,647.8z"
		/>
</g>
</svg>
