<?xml version="1.0" encoding="utf-8"?>
<!-- Generator: Adobe Illustrator 25.4.1, SVG Export Plug-In . SVG Version: 6.00 Build 0)  -->
<svg version="1.1" id="Capa_1" xmlns="http://www.w3.org/2000/svg" xmlns:xlink="http://www.w3.org/1999/xlink" x="0px" y="0px"
	 viewBox="0 0 1920 1080" style="enable-background:new 0 0 1920 1080;" xml:space="preserve">
<style type="text/css">
	.st0{fill-rule:evenodd;clip-rule:evenodd;fill:#BDAAE3;stroke:#BDAAE3;stroke-miterlimit:10;}
	.st1{fill:#D7E36A;}
	.st2{fill:#A4D0C6;}
	.st3{fill:#3C246F;}
	.st4{fill:#37C9C9;}
	.st5{fill:#16130B;}
	.st6{fill:#684CC2;}
	.st7{fill:#BCBCED;}
	.st8{fill:#8282DB;}
	.st9{fill:#FFFFFF;}
	.st10{fill:#CDC6E5;}
	.st11{fill:none;}
	.st12{fill:#EFB132;}
	.st13{fill:#8970E8;}
	.st14{fill:#FF9FA5;}
	.st15{fill:#DB737E;}
	.st16{fill:#198986;}
	.st17{fill:#FFD595;}
</style>
<path class="st0" d="M1924.7,0.3H-2.5v886.2h2v72.1c0,0,442.7-141.2,1466.2,0c0,0,336.5,31,456.7,17v-89.1h2.3V0.3z"/>
<path class="st1" d="M1817,174.5c0,9.2-6.6,13.7-11.9,17.4c-5.2,3.6-8.1,5.8-8.1,10.2c0,4.4,2.9,6.6,8.1,10.2
	c5.3,3.7,11.9,8.2,11.9,17.4c0,9.2-6.6,13.7-11.9,17.4c-5.2,3.6-8.1,5.8-8.1,10.2c0,2.4-2,4.4-4.4,4.4c-2.4,0-4.4-2-4.4-4.4
	c0-9.2,6.6-13.7,11.9-17.4c5.2-3.6,8.1-5.8,8.1-10.2c0-4.4-2.9-6.6-8.1-10.2c-5.3-3.7-11.9-8.2-11.9-17.4c0-9.2,6.6-13.7,11.9-17.4
	c5.2-3.6,8.1-5.8,8.1-10.2c0-4.4-2.9-6.6-8.1-10.2c-5.3-3.7-11.9-8.2-11.9-17.4c0-2.4,2-4.4,4.4-4.4c2.4,0,4.4,2,4.4,4.4
	c0,4.4,2.9,6.6,8.1,10.2C1810.4,160.7,1817,165.3,1817,174.5"/>
<path class="st1" d="M-4,822.4c68.9,0,124.7-55.8,124.7-124.7S64.9,573-4,573V822.4z"/>
<path class="st1" d="M870.3,268.1c-17.8,0-32.3-14.5-32.3-32.3c0-17.8,14.5-32.3,32.3-32.3c17.8,0,32.3,14.5,32.3,32.3
	C902.6,253.6,888.1,268.1,870.3,268.1z M870.3,215.6c-11.1,0-20.2,9-20.2,20.2c0,11.1,9,20.2,20.2,20.2c11.1,0,20.2-9,20.2-20.2
	C890.5,224.6,881.4,215.6,870.3,215.6z"/>
<path class="st2" d="M455.1,109.6c103.7,16.9,174.1,114.8,157.2,218.5c-8.2,50.4-80.5,25.5-118.3,54
	c-40,30.1-46.9,111.9-100.2,103.2c-103.7-16.9-174.1-114.8-157.2-218.5c8-49.1,66.4-40.7,102.7-69.2
	C379.6,165.9,400.4,100.7,455.1,109.6z"/>
<path class="st2" d="M1624.5,828.2c13.9,0,20.7,10,26.2,18c5.4,7.8,8.7,12.2,15.3,12.2c6.6,0,9.9-4.4,15.3-12.2
	c5.5-8,12.3-18,26.2-18s20.7,10,26.2,18c5.4,7.8,8.7,12.2,15.3,12.2c3.6,0,6.6,3,6.6,6.6c0,3.6-3,6.6-6.6,6.6
	c-13.9,0-20.7-10-26.2-18c-5.4-7.8-8.7-12.2-15.3-12.2c-6.6,0-9.9,4.4-15.3,12.2c-5.5,8-12.3,18-26.2,18c-13.9,0-20.7-10-26.2-18
	c-5.4-7.8-8.7-12.2-15.3-12.2c-6.6,0-9.9,4.4-15.3,12.2c-5.5,8-12.3,18-26.2,18c-3.6,0-6.6-3-6.6-6.6c0-3.7,3-6.6,6.6-6.6
	c6.6,0,9.9-4.4,15.3-12.2C1603.8,838.2,1610.7,828.2,1624.5,828.2"/>
<g>
	<g>
		<path class="st3" d="M316.8,393.6h22.8v35.9c-10,11.2-24,16.8-41.7,16.8c-14.9,0-27.4-4.9-37.5-14.8
			c-10.1-9.9-15.1-22.3-15.1-37.3c0-15,5.1-27.6,15.4-37.6c10.3-10,22.7-15.1,37.2-15.1c14.5,0,27.2,4.8,37.9,14.3l-11.7,17
			c-4.5-4-8.7-6.7-12.5-8.2c-3.8-1.5-7.9-2.2-12.4-2.2c-8.6,0-15.8,2.9-21.7,8.8c-5.9,5.8-8.8,13.5-8.8,23.1s2.8,17.2,8.5,23
			c5.7,5.7,12.4,8.6,20.2,8.6s14.3-1.5,19.6-4.5V393.6z"/>
		<path class="st3" d="M425,433.8c-8.8,8.3-19.1,12.5-30.9,12.5c-11.8,0-21.6-3.6-29.3-10.9c-7.7-7.3-11.6-17.1-11.6-29.3
			c0-12.3,3.9-22,11.8-29.3c7.9-7.2,17.2-10.9,27.9-10.9s19.8,3.2,27.3,9.7c7.5,6.5,11.2,15.4,11.2,26.7v11.6h-56.8
			c0.7,4.3,2.9,7.7,6.7,10.4c3.8,2.7,8,4.1,12.8,4.1c7.6,0,13.9-2.6,18.8-7.7L425,433.8z M404.2,387.6c-3-2.5-6.6-3.8-10.9-3.8
			c-4.3,0-8.2,1.3-11.8,3.9c-3.6,2.6-5.7,6.1-6.2,10.6h34.2C408.9,393.7,407.2,390.1,404.2,387.6z"/>
		<path class="st3" d="M505.8,420.9c0,7.7-2.8,13.8-8.5,18.5s-12.8,7-21.5,7c-5.8,0-11.8-1-18.1-3.1c-6.3-2.1-11.9-5.1-17-9.2
			l9.6-13.6c8.1,6.3,16.8,9.4,25.9,9.4c2.8,0,5-0.6,6.7-1.7c1.6-1.1,2.5-2.6,2.5-4.4c0-1.8-1.1-3.5-3.4-5.1c-2.3-1.5-5.6-3-9.9-4.3
			c-4.3-1.4-7.6-2.5-9.9-3.5c-2.3-1-4.9-2.4-7.8-4.2c-5.9-3.7-8.8-9.1-8.8-16.3c0-7.2,2.9-13.1,8.7-17.6c5.8-4.5,13.3-6.8,22.5-6.8
			c9.2,0,18.4,3.1,27.5,9.3l-8.1,14.5c-6.8-4.6-13.5-7-20.2-7c-6.7,0-10.1,1.8-10.1,5.5c0,2,1.1,3.6,3.2,4.8
			c2.1,1.2,5.7,2.5,10.6,4.1c4.9,1.5,8.4,2.7,10.5,3.6c2.1,0.8,4.6,2.1,7.5,3.8C503.1,407.7,505.8,413.2,505.8,420.9z"/>
		<path class="st3" d="M547.8,382.8v34.9c0,3,0.8,5.3,2.3,7c1.5,1.7,3.4,2.5,5.5,2.5c4.1,0,7.5-1.8,10.3-5.5L574,437
			c-6.8,6.2-13.9,9.3-21.4,9.3c-7.5,0-13.8-2.5-19-7.4c-5.2-4.9-7.8-11.6-7.8-20.1v-35.9h-9.1v-15.7h9.1v-23.3h21.9v23.3h18.8v15.7
			H547.8z"/>
		<path class="st3" d="M587.4,357.3c-2.5-2.5-3.7-5.5-3.7-9.1c0-3.6,1.2-6.6,3.7-9.1c2.5-2.5,5.5-3.7,9.1-3.7c3.6,0,6.6,1.2,9.1,3.7
			c2.5,2.5,3.7,5.5,3.7,9.1c0,3.6-1.2,6.6-3.7,9.1c-2.5,2.5-5.5,3.7-9.1,3.7C592.9,361,589.9,359.7,587.4,357.3z M607.3,445.1h-21.7
			v-78h21.7V445.1z"/>
		<path class="st3" d="M705.9,406.2c0,11.3-3.9,20.8-11.7,28.5c-7.8,7.7-17.7,11.6-29.5,11.6c-11.8,0-21.7-3.9-29.5-11.6
			c-7.8-7.7-11.7-17.2-11.7-28.5s3.9-20.8,11.7-28.6c7.8-7.8,17.7-11.7,29.5-11.7c11.8,0,21.7,3.9,29.5,11.7
			C702,385.3,705.9,394.9,705.9,406.2z M645.3,406.2c0,6.4,1.8,11.6,5.4,15.6c3.6,4,8.3,6,13.9,6c5.7,0,10.3-2,13.9-6
			c3.6-4,5.4-9.2,5.4-15.6c0-6.4-1.8-11.6-5.4-15.7c-3.6-4.1-8.3-6.1-13.9-6.1c-5.7,0-10.3,2-13.9,6.1S645.3,399.8,645.3,406.2z
			 M672.8,356.6h-20.7l18.4-25.6l22.5,9.4L672.8,356.6z"/>
		<path class="st3" d="M743.6,401.7v43.5h-21.7v-78h21.7v8.7c6.6-6.7,14-10,22.2-10c8.2,0,15.1,2.9,20.7,8.7
			c5.6,5.8,8.3,13.5,8.3,23.2v47.4H773v-44.1c0-12-4.4-18-13.2-18c-4.3,0-8.1,1.6-11.4,4.7C745.2,391,743.6,395.6,743.6,401.7z"/>
		<path class="st3" d="M883.9,446.3c-9.2,0-17.5-3.9-24.7-11.7s-10.9-17.5-10.9-29.1c0-11.6,3.5-21.1,10.6-28.5
			c7.1-7.4,15.3-11.1,24.8-11.1c9.5,0,17.2,3.3,23.2,10v-38.3h21.7v107.5h-21.7v-10.3C900.8,442.5,893.1,446.3,883.9,446.3z
			 M870.2,406.3c0,6.3,1.9,11.4,5.7,15.4c3.8,4,8.2,6,13.2,6c5,0,9.3-2,12.8-6c3.5-4,5.3-9.2,5.3-15.5c0-6.3-1.8-11.6-5.3-15.8
			c-3.5-4.2-7.9-6.3-13-6.3c-5.1,0-9.5,2.1-13.2,6.4C872,394.8,870.2,400,870.2,406.3z"/>
		<path class="st3" d="M1016.7,433.8c-8.8,8.3-19.1,12.5-30.9,12.5c-11.8,0-21.6-3.6-29.3-10.9c-7.7-7.3-11.6-17.1-11.6-29.3
			c0-12.3,3.9-22,11.8-29.3c7.9-7.2,17.2-10.9,27.9-10.9s19.8,3.2,27.3,9.7c7.5,6.5,11.2,15.4,11.2,26.7v11.6h-56.8
			c0.7,4.3,2.9,7.7,6.7,10.4c3.8,2.7,8,4.1,12.8,4.1c7.6,0,13.9-2.6,18.8-7.7L1016.7,433.8z M995.8,387.6c-3-2.5-6.6-3.8-10.9-3.8
			c-4.3,0-8.2,1.3-11.8,3.9c-3.6,2.6-5.7,6.1-6.2,10.6h34.2C1000.6,393.7,998.8,390.1,995.8,387.6z"/>
		<path class="st3" d="M316.4,565.3c-8.8,8.3-19.1,12.5-30.9,12.5c-11.8,0-21.6-3.6-29.3-10.9c-7.7-7.3-11.6-17.1-11.6-29.3
			c0-12.3,3.9-22,11.8-29.3c7.9-7.2,17.2-10.9,27.9-10.9s19.8,3.2,27.3,9.7c7.5,6.5,11.2,15.4,11.2,26.7v11.6h-56.8
			c0.7,4.3,2.9,7.7,6.7,10.4c3.8,2.7,8,4.1,12.8,4.1c7.6,0,13.9-2.6,18.8-7.7L316.4,565.3z M295.5,519c-3-2.5-6.6-3.8-10.9-3.8
			c-4.3,0-8.2,1.3-11.8,3.9c-3.6,2.6-5.7,6.1-6.2,10.6h34.2C300.2,525.1,298.5,521.6,295.5,519z"/>
		<path class="st3" d="M410,534.5v42h-21.9V534c0-6.2-0.9-10.7-2.8-13.6s-4.9-4.3-9.1-4.3c-4.2,0-7.9,1.6-11.2,4.7
			c-3.2,3.1-4.9,7.8-4.9,13.8v42h-21.7v-78h21.7v8.8c6-6.8,12.8-10.1,20.6-10.1c4.9,0,9.4,1.4,13.4,4.3c4,2.9,7,6.4,9.1,10.6
			c3-4.7,7-8.4,12.1-11s10.2-3.9,15.3-3.9c9.2,0,16.6,2.7,22.2,8.2c5.6,5.5,8.4,13.4,8.4,23.7v47.4h-21.9V534c0-12-4.4-18-13.2-18
			c-4.3,0-8.1,1.6-11.3,4.7C411.6,523.9,410,528.5,410,534.5z"/>
		<path class="st3" d="M558.8,537.6c0,11.3-3.9,20.8-11.7,28.5c-7.8,7.7-17.7,11.6-29.5,11.6c-11.8,0-21.7-3.9-29.5-11.6
			c-7.8-7.7-11.7-17.2-11.7-28.5s3.9-20.8,11.7-28.6c7.8-7.8,17.7-11.7,29.5-11.7c11.8,0,21.7,3.9,29.5,11.7
			C554.9,516.8,558.8,526.3,558.8,537.6z M498.2,537.6c0,6.4,1.8,11.6,5.4,15.6c3.6,4,8.3,6,13.9,6c5.7,0,10.3-2,13.9-6
			c3.6-4,5.4-9.2,5.4-15.6c0-6.4-1.8-11.6-5.4-15.7c-3.6-4.1-8.3-6.1-13.9-6.1c-5.7,0-10.3,2-13.9,6.1S498.2,531.2,498.2,537.6z"/>
		<path class="st3" d="M612.3,558.5c7.2,0,13.8-3.6,19.6-10.9l12.9,14.5c-10,10.4-20.9,15.7-32.6,15.7c-11.7,0-21.6-3.7-29.6-11.1
			c-8.1-7.4-12.1-17-12.1-29c0-11.9,4.1-21.6,12.2-29.1c8.2-7.5,17.8-11.2,29.1-11.2c5.6,0,11.3,1.2,17,3.5
			c5.7,2.3,10.8,5.7,15.1,10.3l-11.3,14.8c-2.5-3-5.6-5.3-9.2-7c-3.6-1.6-7.2-2.5-10.8-2.5c-5.7,0-10.6,1.9-14.7,5.6
			c-4.1,3.7-6.2,8.9-6.2,15.5c0,6.6,2.1,11.8,6.2,15.4C602,556.6,606.8,558.5,612.3,558.5z"/>
		<path class="st3" d="M661,488.7c-2.5-2.5-3.7-5.5-3.7-9.1c0-3.6,1.2-6.6,3.7-9.1c2.5-2.5,5.5-3.7,9.1-3.7c3.6,0,6.6,1.2,9.1,3.7
			c2.5,2.5,3.7,5.5,3.7,9.1c0,3.6-1.2,6.6-3.7,9.1c-2.5,2.5-5.5,3.7-9.1,3.7C666.5,492.4,663.5,491.1,661,488.7z M681,576.6h-21.7
			v-78H681V576.6z"/>
		<path class="st3" d="M779.5,537.6c0,11.3-3.9,20.8-11.7,28.5c-7.8,7.7-17.7,11.6-29.5,11.6c-11.8,0-21.7-3.9-29.5-11.6
			c-7.8-7.7-11.7-17.2-11.7-28.5s3.9-20.8,11.7-28.6c7.8-7.8,17.7-11.7,29.5-11.7c11.8,0,21.7,3.9,29.5,11.7
			C775.6,516.8,779.5,526.3,779.5,537.6z M718.9,537.6c0,6.4,1.8,11.6,5.4,15.6c3.6,4,8.3,6,13.9,6c5.7,0,10.3-2,13.9-6
			c3.6-4,5.4-9.2,5.4-15.6c0-6.4-1.8-11.6-5.4-15.7c-3.6-4.1-8.3-6.1-13.9-6.1c-5.7,0-10.3,2-13.9,6.1S718.9,531.2,718.9,537.6z"/>
		<path class="st3" d="M817.3,533.1v43.5h-21.7v-78h21.7v8.7c6.6-6.7,14-10,22.2-10c8.2,0,15.1,2.9,20.7,8.7
			c5.6,5.8,8.3,13.5,8.3,23.2v47.4h-21.7v-44.1c0-12-4.4-18-13.2-18c-4.3,0-8.1,1.6-11.4,4.7C818.9,522.4,817.3,527,817.3,533.1z"/>
		<path class="st3" d="M955.7,565.3c-8.8,8.3-19.1,12.5-30.9,12.5c-11.8,0-21.6-3.6-29.3-10.9c-7.7-7.3-11.6-17.1-11.6-29.3
			c0-12.3,3.9-22,11.8-29.3c7.9-7.2,17.2-10.9,27.9-10.9s19.8,3.2,27.3,9.7c7.5,6.5,11.2,15.4,11.2,26.7v11.6h-56.8
			c0.7,4.3,2.9,7.7,6.7,10.4c3.8,2.7,8,4.1,12.8,4.1c7.6,0,13.9-2.6,18.8-7.7L955.7,565.3z M934.8,519c-3-2.5-6.6-3.8-10.9-3.8
			c-4.3,0-8.2,1.3-11.8,3.9c-3.6,2.6-5.7,6.1-6.2,10.6h34.2C939.6,525.1,937.8,521.6,934.8,519z"/>
		<path class="st3" d="M1036.4,552.3c0,7.7-2.8,13.8-8.5,18.5c-5.7,4.6-12.8,7-21.5,7c-5.8,0-11.8-1-18.1-3.1
			c-6.3-2.1-11.9-5.1-17-9.2l9.6-13.6c8.1,6.3,16.8,9.4,25.9,9.4c2.8,0,5-0.6,6.7-1.7c1.6-1.1,2.5-2.6,2.5-4.4
			c0-1.8-1.1-3.5-3.4-5.1c-2.3-1.5-5.6-3-9.9-4.3c-4.3-1.4-7.6-2.5-9.9-3.5c-2.3-1-4.9-2.4-7.8-4.2c-5.9-3.7-8.8-9.1-8.8-16.3
			c0-7.2,2.9-13.1,8.7-17.6c5.8-4.5,13.3-6.8,22.5-6.8c9.2,0,18.4,3.1,27.5,9.3l-8.1,14.5c-6.8-4.6-13.5-7-20.2-7
			c-6.7,0-10.1,1.8-10.1,5.5c0,2,1.1,3.6,3.2,4.8c2.1,1.2,5.7,2.5,10.6,4.1c4.9,1.5,8.4,2.7,10.5,3.6c2.1,0.8,4.6,2.1,7.5,3.8
			C1033.7,539.1,1036.4,544.6,1036.4,552.3z"/>
	</g>
</g>
<g>
	<g>
		<g>
			<g>
				<path class="st4" d="M1515.3,594.1c-1.9,1.8-2.8,4.7-2.7,7.3c0.1,3.1,1.4,6.1,2.8,8.8c1.6,3.1,3.4,6,5.1,9
					c3.7,6.4,7.4,12.8,11,19.2c2.7,4.7,5.4,9.5,8.2,14.2c1.2-4.4,4.3-8.1,8-10.7c5-3.5,11-5,16.9-5.7c6.2-0.8,12.5-0.8,18.7-1.9
					c3.1-0.5,6.2-1.3,9-2.6c2.5-1.1,5.9-2.7,6.9-5.5c1.3-3.5-2.8-5.1-5.5-5.6c-3.1-0.7-6.3-0.8-9.4-1.2c-2.8-0.4-5.9-0.9-8.4-2.4
					c-2.2-1.4-2.7-3.8-1.2-5.9c1.5-2.1,3.9-3.3,6.2-4.3c2.4-1.1,4.9-2,7.5-2.8c5.2-1.6,10.4-2.9,15.4-5.1c2.4-1,4.7-2.3,6.8-3.8
					c2-1.5,4.2-3.4,4.9-5.8c0.4-1.4,0-2.9-1.5-3.4c-1.5-0.5-3.3-0.3-4.8-0.2c-3,0.2-5.9,0.7-8.9,1c-2.9,0.4-5.8,0.6-8.6,0.2
					c-2.4-0.3-5.2-1.1-6.5-3.3c-1.3-2.3-0.2-4.8,1.4-6.6c1.9-2.1,4.5-3.6,7.1-4.9c5.6-2.8,11.7-4.2,17.5-6.5c5.9-2.3,12-5.7,15-11.5
					c0.7-1.4,1.2-3,0.4-4.5c-0.6-1.1-1.8-1.9-3-2.3c-2.9-0.9-5.9,0.5-8.4,1.7c-2.4,1.2-5,2.4-7.8,2.3c-2.5-0.1-4.6-1.5-5.8-3.7
					c-3.2-5.6,0.2-11.6,4.2-15.8c4.9-5.1,10.4-9.5,15.9-13.9c5.2-4.1,10.6-8.6,13.1-14.9c2.1-5.4,1.6-11.8-3.1-15.7
					c-2.1-1.8-4.9-2.7-7.6-2.1c-3.1,0.6-5.9,2.7-8.3,4.8c-4.8,4.3-8,10-10.8,15.7c-2.8,5.8-5.3,11.8-8.5,17.4
					c-0.8,1.4-1.6,2.7-2.6,4c-0.8,1.1-1.6,2.4-2.7,3.2c-2.5,1.7-4.5-0.8-5.4-2.9c-1.4-3.4-2.6-6.9-3.8-10.4c-1-2.8-2.1-6.5-5.5-7
					c-2.8-0.3-5.5,1.5-6.7,3.9c-1.5,2.9-1.4,6.3-1,9.5c0.7,5.7,2.3,11.2,2.3,16.9c0,2.7-0.3,5.5-1.3,8.1c-0.4,1.1-0.9,2.4-1.9,3.1
					c-1,0.6-2,0.2-2.7-0.5c-1.2-1.2-2.1-2.8-3.1-4.2c-1.1-1.5-2.2-3.1-3.3-4.6c-1.6-2.3-3.3-5.1-5.9-6.4c-6.4-3.2-7.5,9.2-7.3,12.9
					c0.3,5.8,2.3,11.4,5.1,16.5c2.7,4.9,6.1,9.9,6.5,15.7c0.1,1.3,0.1,2.8-0.9,3.7c-0.8,0.8-1.8,0.8-2.8,0.5
					c-1.4-0.4-2.6-1.5-3.7-2.4c-1.2-1-2.4-2.2-3.5-3.3c-2.3-2.3-4.7-4.9-7.8-6.1c-2.8-1.1-6.1-0.4-6.4,3.1c-0.2,2.9,1.2,5.9,2.2,8.6
					c1,2.6,2.1,5.2,2.9,7.9c0.8,2.5,1.3,5.1,1.1,7.8c-0.1,1.9-0.6,4.8-2.8,5.4c-1.2,0.4-2.3-0.3-3.1-1.1c-1.2-1.1-2.1-2.5-3-3.9
					c-1.7-2.6-3.4-5.4-6.1-7.1C1520.6,592.2,1517.5,592,1515.3,594.1z"/>
				<path class="st5" d="M1567.3,582.7c-3.3-7.8-6.1-15.8-8.5-23.9c-0.7-2.3-1.3-4.7-1.9-7c-0.2-0.6,0.8-0.7,1-0.1
					c2.1,8.3,4.8,16.4,7.8,24.4c0.7,1.9,1.5,3.7,2.3,5.6c3.5-6.5,7.1-12.9,10.9-19.3c-0.3-9.9-1-19.8-2-29.7c-0.3-2.9-0.7-5.8-1-8.7
					c-0.1-0.6,0.9-0.7,1-0.1c1.3,10.2,2.2,20.5,2.8,30.8c0.1,2.1,0.2,4.1,0.2,6.2c0.7-1.1,1.3-2.2,2-3.4
					c5.8-9.5,11.9-18.8,18.4-27.8c6.5-9,13.5-17.7,20.9-25.9c0.9-1,1.9-2.1,2.8-3.1c0.4-0.4,1.2,0.1,0.8,0.6
					c-7.5,8.1-14.5,16.6-21.1,25.4c-6.6,8.9-12.8,18-18.7,27.4c-1.7,2.7-3.4,5.5-5,8.3c8.1-1.1,16.2-2.2,24.3-3.3
					c2.4-0.3,4.8-0.6,7.1-1c0.6-0.1,0.7,0.9,0.1,1c-8.3,1.1-16.6,2.2-25,3.4c-2.2,0.3-4.4,0.6-6.7,0.9c0,0,0,0.1,0,0.1
					c0,0.5-0.5,0.6-0.8,0.5c-3.7,6.2-7.2,12.5-10.6,18.9c0,0,0,0,0,0c0.1,0.3-0.1,0.6-0.3,0.6c-3.2,6-6.3,12.1-9.4,18.2
					c9-1.6,18-3.4,27-5.4c2.6-0.6,5.3-1.2,7.9-1.9c0.6-0.1,0.7,0.8,0.1,1c-9.2,2.2-18.5,4.2-27.9,6c-2.6,0.5-5.1,0.9-7.7,1.4
					c-1.6,3.3-3.3,6.6-4.9,10c-2.3,4.9-4.7,9.8-6.9,14.7c-0.9,1.9-1.7,3.8-2.4,5.7c9.3-1.9,18.7-3.9,28-5.8c2.7-0.6,5.5-1.1,8.2-1.7
					c0.6-0.1,0.7,0.8,0.1,1c-9.6,2-19.2,4-28.8,6c-2.7,0.6-5.3,1.1-8,1.7c0,0,0,0.1,0,0.1c0.1,0.3,0,0.5-0.2,0.6
					c-0.8,2.3-1.5,4.7-2,7.1c-0.2,1.3-0.4,2.6-0.5,3.8c-0.1,0.6-1,0.5-1-0.1c0.3-3.9,1.3-7.6,2.6-11.3c-5.4-6.9-10.4-14.1-14.8-21.6
					c-1.3-2.1-2.5-4.3-3.6-6.5c-0.3-0.5,0.6-0.9,0.9-0.4c4.2,7.8,8.9,15.2,14.1,22.3c1.3,1.7,2.6,3.4,3.9,5.1
					c0.3-0.8,0.6-1.6,0.9-2.3c2-5,4.4-9.8,6.7-14.7c2.3-4.8,4.6-9.5,6.9-14.3c0,0,0-0.1,0.1-0.1c-1.7-1.5-3.2-3.1-4.8-4.8
					c-1.5-1.6-3-3.3-4.5-5c-2.9-3.4-5.6-6.9-7.7-10.9c-0.3-0.5,0.6-0.9,0.9-0.4c2,3.9,4.7,7.3,7.5,10.6c1.4,1.6,2.9,3.2,4.4,4.8
					c1.5,1.6,2.9,3.2,4.6,4.7c2.5-4.9,4.9-9.8,7.5-14.7C1566,585.2,1566.7,584,1567.3,582.7z"/>
			</g>
			<g>
				<path class="st6" d="M1586.9,661.3c-1.1,3.4-4.8,5.1-8.1,5.3c-4,0.2-8-1.3-11.8-2.4c-8-2.5-16-5.2-23.6-8.8
					c-2.8-1.3-5.5-2.7-8.2-4.2c0.4,0,0.8,0,1.2,0c-0.1,0.3,0.3,0.7,0.7,0.6c1.1-0.4,2-0.9,2.9-1.6c0.8-0.5,1.6-1,2.3-1.7
					c0.2-0.2,0.2-0.5,0-0.7c3-4.3,3.6-10.6,3.7-15.5c0.1-4-0.2-8-0.2-12c0-3.9,0-8,1.2-11.7c0.5-1.8,1.4-3.5,2.6-4.9
					c0.6-0.7,1.3-1.3,2.2-1.7c1.1-0.4,2.1,0.1,2.8,0.9c2.5,3,2.9,7.3,4,10.8c0.8,2.6,2.7,7.6,6.4,6c3-1.3,3.9-5.3,4.5-8.2
					c1.6-7.6,1.6-17.3,8.5-22.3c1.3-1,3.4-1.7,4.4,0.1c0.5,0.9,0.7,1.9,0.8,2.9c0.2,1.1,0.4,2.1,0.6,3.2c0.6,3.6,1.6,7.9,5,10
					c1.4,0.9,3.1,0.9,4.4-0.3c1.2-1.1,1.9-2.9,2.3-4.5c1.2-4.1,2.6-8.2,4.4-12.1c1.6-3.5,3.8-7.8,7.7-9.2c0.9-0.3,2-0.6,2.9-0.2
					c1,0.4,1.3,1.6,1.5,2.6c0.3,2,0.1,4,0.3,6c0.3,3.1,2.2,6.9,5.8,6.9c1.8,0,3.4-1,4.8-2c1.8-1.2,3.4-2.7,4.9-4.2
					c5.7-5.6,11.7-13.7,20.7-13.1c3.4,0.2,6.4,1.9,8,5c0.7,1.4,1,3,0.8,4.5c-0.3,2-1.6,3.5-3,4.8c-3.4,3-7.5,5.1-11.3,7.5
					c-3.7,2.3-7.5,4.7-10.7,7.7c-1.3,1.2-2.6,2.6-2.7,4.5c-0.1,1.5,0.6,2.9,1.6,4c1.1,1.3,2.5,2.2,4,3c1.7,0.9,3.5,1.8,4.8,3.3
					c1.3,1.5,1.7,3.4,0.7,5.2c-0.9,1.6-2.5,2.7-4.2,3.2c-3.7,1.1-7.8,0.3-11.5-0.2c-3.5-0.4-7.1-0.9-10.6-0.4
					c-1.6,0.2-3.4,0.6-4.7,1.5c-1.3,1-1.4,2.5-0.3,3.7c2.5,2.6,6.8,5.2,6.1,9.4c-0.7,4.3-6.4,4.2-9.7,4c-6.8-0.4-13.9-2.3-20.6-0.1
					c-1.4,0.5-3.1,1.1-3.9,2.5c-0.9,1.7,0.5,2.8,1.7,3.8C1585.4,654.3,1588,657.7,1586.9,661.3z"/>
				<path class="st5" d="M1632.2,622.5c0.6,0.1,0.7-0.9,0.1-1c-9.1-1.4-18.2-2.7-27.2-4.1c6-4.3,11.8-8.8,17.5-13.5
					c6.1-5.1,12-10.3,17.8-15.8c0.7-0.7,1.5-1.4,2.2-2.1c0.4-0.4-0.2-1.2-0.6-0.7c-5.7,5.5-11.5,10.8-17.5,15.9
					c-6.1,5.1-12.3,10-18.7,14.7c-0.4,0.3-0.7,0.5-1.1,0.8c0.7-8.7,1.4-17.5,2.1-26.2c0-0.6-0.9-0.7-1-0.1
					c-0.7,8.8-1.4,17.5-2.1,26.3c0,0.2,0.1,0.4,0.3,0.5c-5.9,4.2-11.9,8.2-18,12.1c-1.6,1-3.1,1.9-4.7,2.9
					c-1.7-8.2-2.7-16.5-2.8-24.9c0-2.4,0-4.8,0.1-7.2c0-0.6-0.9-0.7-1-0.1c-0.4,8.5,0.1,17.1,1.4,25.6c0.4,2.4,0.8,4.8,1.3,7.2
					c-4.9,2.9-9.9,5.7-14.9,8.4c-3.8,2-7.7,4-11.6,5.8c-1.7-8.3-2.7-16.8-2.8-25.3c0-2.5,0-4.9,0.1-7.4c0-0.6-0.9-0.7-1-0.1
					c-0.3,8.8,0.2,17.6,1.5,26.2c0.4,2.3,0.8,4.5,1.2,6.7c-0.1,0.1-0.1,0.2-0.1,0.3c-2.9,1.4-5.8,2.7-8.8,4
					c-0.9,0.4-1.8,0.8-2.7,1.2c-0.6,0.2-0.2,1.1,0.4,0.9c4-1.7,8-3.5,11.9-5.4c0,0,0,0,0,0c8.1,3.7,16.1,7.3,24.2,11
					c0.6,0.3,0.9-0.7,0.3-0.9c-7.8-3.5-15.6-7.1-23.4-10.6c2.8-1.4,5.7-2.8,8.5-4.2c6-3.1,12-6.4,17.8-9.9c0.1,0.1,0.2,0.1,0.3,0.1
					c8.1,0.9,16.1,2.5,23.9,4.9c0.6,0.2,0.9-0.7,0.3-0.9c-7.6-2.3-15.4-4-23.3-4.8c0.6-0.3,1.2-0.7,1.7-1
					c6.7-4.1,13.3-8.5,19.7-13.1c0.1-0.1,0.2-0.2,0.3-0.2c0.1,0,0.1,0.1,0.2,0.1C1613.5,619.7,1622.9,621.1,1632.2,622.5z"/>
			</g>
		</g>
		<g>
			<path class="st4" d="M1283.8,576.4c1.9,1.8,2.8,4.7,2.7,7.3c-0.1,3.1-1.4,6.1-2.8,8.8c-1.6,3.1-3.4,6-5.1,9
				c-3.7,6.4-7.4,12.8-11,19.2c-2.7,4.7-5.4,9.5-8.2,14.2c-1.2-4.4-4.3-8.1-8-10.7c-5-3.5-11-5-16.9-5.7c-6.2-0.8-12.5-0.8-18.7-1.9
				c-3.1-0.5-6.2-1.3-9-2.6c-2.5-1.1-5.9-2.7-6.9-5.5c-1.3-3.5,2.8-5.1,5.5-5.6c3.1-0.7,6.3-0.8,9.4-1.2c2.8-0.4,5.9-0.9,8.4-2.4
				c2.2-1.4,2.7-3.8,1.2-5.9c-1.5-2.1-3.9-3.3-6.2-4.3c-2.4-1.1-4.9-2-7.5-2.8c-5.2-1.6-10.4-2.9-15.4-5.1c-2.4-1-4.7-2.3-6.8-3.8
				c-2-1.5-4.2-3.4-4.9-5.8c-0.4-1.4,0-2.9,1.5-3.4c1.5-0.5,3.3-0.3,4.8-0.2c3,0.2,5.9,0.7,8.9,1c2.9,0.4,5.8,0.6,8.6,0.2
				c2.4-0.3,5.2-1.1,6.5-3.3c1.3-2.3,0.2-4.8-1.4-6.6c-1.9-2.1-4.5-3.6-7.1-4.9c-5.6-2.8-11.7-4.2-17.5-6.5c-5.9-2.3-12-5.7-15-11.5
				c-0.7-1.4-1.2-3-0.4-4.5c0.6-1.1,1.8-1.9,3-2.3c2.9-0.9,5.9,0.5,8.4,1.7c2.4,1.2,5,2.4,7.8,2.3c2.5-0.1,4.6-1.5,5.8-3.7
				c3.2-5.6-0.2-11.6-4.2-15.8c-4.9-5.1-10.4-9.5-15.9-13.9c-5.2-4.1-10.6-8.6-13.1-14.9c-2.1-5.4-1.6-11.8,3.1-15.7
				c2.1-1.8,4.9-2.7,7.6-2.1c3.1,0.6,5.9,2.7,8.3,4.8c4.8,4.3,8,10,10.8,15.7c2.8,5.8,5.3,11.8,8.5,17.4c0.8,1.4,1.6,2.7,2.6,4
				c0.8,1.1,1.6,2.4,2.7,3.2c2.5,1.7,4.5-0.8,5.4-2.9c1.4-3.4,2.6-6.9,3.8-10.4c1-2.8,2.1-6.5,5.5-7c2.8-0.3,5.5,1.5,6.7,3.9
				c1.5,2.9,1.4,6.3,1,9.5c-0.7,5.7-2.3,11.2-2.3,16.9c0,2.7,0.3,5.5,1.3,8.1c0.4,1.1,0.9,2.4,1.9,3.1c1,0.6,2,0.2,2.7-0.5
				c1.2-1.2,2.1-2.8,3.1-4.2c1.1-1.5,2.2-3.1,3.3-4.6c1.6-2.3,3.3-5.1,5.9-6.4c6.4-3.2,7.5,9.2,7.3,12.9c-0.3,5.8-2.3,11.4-5.1,16.5
				c-2.7,4.9-6.1,9.9-6.5,15.7c-0.1,1.3-0.1,2.8,0.9,3.7c0.8,0.8,1.8,0.8,2.8,0.5c1.4-0.4,2.6-1.5,3.7-2.4c1.2-1,2.4-2.2,3.5-3.3
				c2.3-2.3,4.7-4.9,7.8-6.1c2.8-1.1,6.1-0.4,6.4,3.1c0.2,2.9-1.2,5.9-2.2,8.6c-1,2.6-2.1,5.2-2.9,7.9c-0.8,2.5-1.3,5.1-1.1,7.8
				c0.1,1.9,0.6,4.8,2.8,5.4c1.2,0.4,2.3-0.3,3.1-1.1c1.2-1.1,2.1-2.5,3-3.9c1.7-2.6,3.4-5.4,6.1-7.1
				C1278.4,574.5,1281.5,574.4,1283.8,576.4z"/>
			<path class="st5" d="M1231.7,565.1c3.3-7.8,6.1-15.8,8.5-23.9c0.7-2.3,1.3-4.7,1.9-7c0.2-0.6-0.8-0.7-1-0.1
				c-2.1,8.3-4.8,16.4-7.8,24.4c-0.7,1.9-1.5,3.7-2.3,5.6c-3.5-6.5-7.1-12.9-10.9-19.3c0.3-9.9,1-19.8,2-29.7c0.3-2.9,0.7-5.8,1-8.7
				c0.1-0.6-0.9-0.7-1-0.1c-1.3,10.2-2.2,20.5-2.8,30.8c-0.1,2.1-0.2,4.1-0.2,6.2c-0.7-1.1-1.3-2.2-2-3.4
				c-5.8-9.5-11.9-18.8-18.4-27.8c-6.5-9-13.5-17.7-20.9-25.9c-0.9-1-1.9-2.1-2.8-3.1c-0.4-0.4-1.2,0.1-0.8,0.6
				c7.5,8.1,14.5,16.6,21.1,25.4c6.6,8.9,12.8,18,18.7,27.4c1.7,2.7,3.4,5.5,5,8.3c-8.1-1.1-16.2-2.2-24.3-3.3
				c-2.4-0.3-4.8-0.6-7.1-1c-0.6-0.1-0.7,0.9-0.1,1c8.3,1.1,16.6,2.2,25,3.4c2.2,0.3,4.4,0.6,6.7,0.9c0,0,0,0.1,0,0.1
				c0,0.5,0.5,0.6,0.8,0.5c3.7,6.2,7.2,12.5,10.6,18.9c0,0,0,0,0,0c-0.1,0.3,0.1,0.6,0.3,0.6c3.2,6,6.3,12.1,9.4,18.2
				c-9-1.6-18-3.4-27-5.4c-2.6-0.6-5.3-1.2-7.9-1.9c-0.6-0.1-0.7,0.8-0.1,1c9.2,2.2,18.5,4.2,27.9,6c2.6,0.5,5.1,0.9,7.7,1.4
				c1.6,3.3,3.3,6.6,4.9,10c2.3,4.9,4.7,9.8,6.9,14.7c0.9,1.9,1.7,3.8,2.4,5.7c-9.3-1.9-18.7-3.9-28-5.8c-2.7-0.6-5.5-1.1-8.2-1.7
				c-0.6-0.1-0.7,0.8-0.1,1c9.6,2,19.2,4,28.8,6c2.7,0.6,5.3,1.1,8,1.7c0,0,0,0.1,0,0.1c-0.1,0.3,0,0.5,0.2,0.6
				c0.8,2.3,1.5,4.7,2,7.1c0.2,1.3,0.4,2.6,0.5,3.8c0.1,0.6,1,0.5,1-0.1c-0.3-3.9-1.3-7.6-2.6-11.3c5.4-6.9,10.4-14.1,14.8-21.6
				c1.3-2.1,2.5-4.3,3.6-6.5c0.3-0.5-0.6-0.9-0.9-0.4c-4.2,7.8-8.9,15.2-14.1,22.3c-1.3,1.7-2.6,3.4-3.9,5.1
				c-0.3-0.8-0.6-1.6-0.9-2.3c-2-5-4.4-9.8-6.7-14.7c-2.3-4.8-4.6-9.5-6.9-14.3c0,0,0-0.1-0.1-0.1c1.7-1.5,3.2-3.1,4.8-4.8
				c1.5-1.6,3-3.3,4.5-5c2.9-3.4,5.6-6.9,7.7-10.9c0.3-0.5-0.6-0.9-0.9-0.4c-2,3.9-4.7,7.3-7.5,10.6c-1.4,1.6-2.9,3.2-4.4,4.8
				c-1.5,1.6-2.9,3.2-4.6,4.7c-2.5-4.9-4.9-9.8-7.5-14.7C1233,567.5,1232.4,566.3,1231.7,565.1z"/>
		</g>
		<g>
			<path class="st6" d="M1212.2,643.6c1.1,3.4,4.8,5.1,8.1,5.3c4,0.2,8-1.3,11.8-2.4c8-2.5,16-5.2,23.6-8.8c2.8-1.3,5.5-2.7,8.2-4.2
				c-0.4,0-0.8,0-1.2,0c0.1,0.3-0.3,0.7-0.7,0.6c-1.1-0.4-2-0.9-2.9-1.6c-0.8-0.5-1.6-1-2.3-1.7c-0.2-0.2-0.2-0.5,0-0.7
				c-3-4.3-3.6-10.6-3.7-15.5c-0.1-4,0.2-8,0.2-12c0-3.9,0-8-1.2-11.7c-0.5-1.8-1.4-3.5-2.6-4.9c-0.6-0.7-1.3-1.3-2.2-1.7
				c-1.1-0.4-2.1,0.1-2.8,0.9c-2.5,3-2.9,7.3-4,10.8c-0.8,2.6-2.7,7.6-6.4,6c-3-1.3-3.9-5.3-4.5-8.2c-1.6-7.6-1.6-17.3-8.5-22.3
				c-1.3-1-3.4-1.7-4.4,0.1c-0.5,0.9-0.7,1.9-0.8,2.9c-0.2,1.1-0.4,2.1-0.6,3.2c-0.6,3.6-1.6,7.9-5,10c-1.4,0.9-3.1,0.9-4.4-0.3
				c-1.2-1.1-1.9-2.9-2.3-4.5c-1.2-4.1-2.6-8.2-4.4-12.1c-1.6-3.5-3.8-7.8-7.7-9.2c-0.9-0.3-2-0.6-2.9-0.2c-1,0.4-1.3,1.6-1.5,2.6
				c-0.3,2-0.1,4-0.3,6c-0.3,3.1-2.2,6.9-5.8,6.9c-1.8,0-3.4-1-4.8-2c-1.8-1.2-3.4-2.7-4.9-4.2c-5.7-5.6-11.7-13.7-20.7-13.1
				c-3.4,0.2-6.4,1.9-8,5c-0.7,1.4-1,3-0.8,4.5c0.3,2,1.6,3.5,3,4.8c3.4,3,7.5,5.1,11.3,7.5c3.7,2.3,7.5,4.7,10.7,7.7
				c1.3,1.2,2.6,2.6,2.7,4.5c0.1,1.5-0.6,2.9-1.6,4c-1.1,1.3-2.5,2.2-4,3c-1.7,0.9-3.5,1.8-4.8,3.3c-1.3,1.5-1.7,3.4-0.7,5.2
				c0.9,1.6,2.5,2.7,4.2,3.2c3.7,1.1,7.8,0.3,11.5-0.2c3.5-0.4,7.1-0.9,10.6-0.4c1.6,0.2,3.4,0.6,4.7,1.5c1.3,1,1.4,2.5,0.3,3.7
				c-2.5,2.6-6.8,5.2-6.1,9.4c0.7,4.3,6.4,4.2,9.7,4c6.8-0.4,13.9-2.3,20.6-0.1c1.4,0.5,3.1,1.1,3.9,2.5c0.9,1.7-0.5,2.8-1.7,3.8
				C1213.6,636.6,1211,640,1212.2,643.6z"/>
			<path class="st5" d="M1166.8,604.8c-0.6,0.1-0.7-0.9-0.1-1c9.1-1.4,18.2-2.7,27.2-4.1c-6-4.3-11.8-8.8-17.5-13.5
				c-6.1-5.1-12-10.3-17.8-15.8c-0.7-0.7-1.5-1.4-2.2-2.1c-0.4-0.4,0.2-1.2,0.6-0.7c5.7,5.5,11.5,10.8,17.5,15.9
				c6.1,5.1,12.3,10,18.7,14.7c0.4,0.3,0.7,0.5,1.1,0.8c-0.7-8.7-1.4-17.5-2.1-26.2c0-0.6,0.9-0.7,1-0.1c0.7,8.8,1.4,17.5,2.1,26.3
				c0,0.2-0.1,0.4-0.3,0.5c5.9,4.2,11.9,8.2,18,12.1c1.6,1,3.1,1.9,4.7,2.9c1.7-8.2,2.7-16.5,2.8-24.9c0-2.4,0-4.8-0.1-7.2
				c0-0.6,0.9-0.7,1-0.1c0.4,8.5-0.1,17.1-1.4,25.6c-0.4,2.4-0.8,4.8-1.3,7.2c4.9,2.9,9.9,5.7,14.9,8.4c3.8,2,7.7,4,11.6,5.8
				c1.7-8.3,2.7-16.8,2.8-25.3c0-2.5,0-4.9-0.1-7.4c0-0.6,0.9-0.7,1-0.1c0.3,8.8-0.2,17.6-1.5,26.2c-0.4,2.3-0.8,4.5-1.2,6.7
				c0.1,0.1,0.1,0.2,0.1,0.3c2.9,1.4,5.8,2.7,8.8,4c0.9,0.4,1.8,0.8,2.7,1.2c0.6,0.2,0.2,1.1-0.4,0.9c-4-1.7-8-3.5-11.9-5.4
				c0,0,0,0,0,0c-8.1,3.7-16.1,7.3-24.2,11c-0.6,0.3-0.9-0.7-0.3-0.9c7.8-3.5,15.6-7.1,23.4-10.6c-2.8-1.4-5.7-2.8-8.5-4.2
				c-6-3.1-12-6.4-17.8-9.9c-0.1,0.1-0.2,0.1-0.3,0.1c-8.1,0.9-16.1,2.5-23.9,4.9c-0.6,0.2-0.9-0.7-0.3-0.9c7.6-2.3,15.4-4,23.3-4.8
				c-0.6-0.3-1.2-0.7-1.7-1c-6.7-4.1-13.3-8.5-19.7-13.1c-0.1-0.1-0.2-0.2-0.3-0.2c-0.1,0-0.1,0.1-0.2,0.1
				C1185.5,602,1176.2,603.4,1166.8,604.8z"/>
		</g>
	</g>
	<g>
		<g>
			<path class="st7" d="M1429.4,363.6c-9.1-1.6-17.5-6-26.6-7.6c-4.5-0.8-9.2-0.9-13.6,0.5c-4,1.3-7.3,3.8-10.2,6.7
				c-5.3,5.2-10.1,11.1-17.9,12.6c-8.5,1.6-17.1-1.9-24.5-5.6c-8.1-4-16.5-9-25.8-8.7c-6.1,0.2-11.8,2.7-16.8,6.1
				c-10.3,6.9-18.4,17-29.5,22.8c-5.2,2.7-11,4.1-16.9,3.4c-6.5-0.8-12.4-4.1-17.7-7.8c-5.8-4-11.3-8.7-17.4-12.2
				c-3-1.8-6.2-3.3-9.6-4.2c-4.6-1.2-9.3-1.2-13.9-0.5c-9.9,1.5-18.9,5.9-28.6,8.4c-8.1,2.1-17,2.9-24.7-1.1
				c-5.9-3.1-11.1-8.8-11.4-15.8c-0.3-6.9,4.1-12.5,9.5-16.2c6.1-4.2,13.2-6.2,20-9c6.8-2.8,13.9-6.9,16.5-14.3
				c2.4-7.1,0.2-14.9-0.7-22.1c-0.8-6.5-0.8-13.6,4.1-18.6c4.8-4.9,12.1-5.7,18.6-5.3c8.7,0.6,17.3,4.2,26.1,3
				c15.9-2,19.9-19.8,26.3-31.6c7.1-13.3,20.6-22.6,35.7-24.1c12.5-1.3,25.2,3.2,34.5,11.5c4.7,1.1,9.3,2.2,14,3.4
				c8.2,2,16.7,3.7,24,8.1c5.8,3.5,10,8.7,13,14.7c6,12.1,7,26.1,13.1,38.2c3.3,6.7,8.3,12,15.1,15.3c7.7,3.7,16.4,4.7,24.8,5.8
				c8.3,1.1,17,2.5,24.4,6.8c6.1,3.5,10.8,9.3,12.4,16.2c1.5,6.5-0.4,13.2-5.8,17.3C1444,364.1,1436.2,364.8,1429.4,363.6z"/>
			<path class="st7" d="M1434.3,261.7c3.2-8.6,11.8-13.9,20.1-16.6c10.4-3.4,21.6-3.4,32.2-6.1c4.6-1.2,9.2-2.8,13.3-5.4
				c0.3-0.2,0.6-0.4,1-0.6c1.7-2.4,3.5-4.8,5.3-7.2c2.7-3.7,5.6-7.3,8.9-10.5c3.2-3.1,6.7-5.8,10.8-7.5c4-1.7,8.5-2.4,12.9-1.8
				c8.9,1.3,16.3,7.3,22,13.9c6.1,7.1,10.2,15.4,15.1,23.3c4.7,7.5,10.1,15,18,19.4c7,3.9,15.8,4.7,22.1,9.8c2.9,2.4,5,5.8,5.3,9.6
				c0.3,3.9-1.3,7.7-3.7,10.7c-2.5,3.2-6.1,5.7-9.9,7c-4.8,1.6-10.1,1.2-14.9,0c-10.7-2.6-19.8-9.2-30.2-12.9
				c-5.2-1.9-10.8-3-16.4-2.1c-4.4,0.7-8.6,2.7-12.4,4.9c-7.1,4-14.2,9.6-22.6,10c-8.9,0.5-15.5-5.7-22.3-10.4
				c-3.5-2.5-7.3-4.6-11.6-5.2c-4.4-0.7-8.9,0-13.2,0.7c-8,1.3-17.4,3.7-24.6-1.5C1432.8,278.2,1431.6,268.9,1434.3,261.7z"/>
			<path class="st7" d="M1669,424.1c-4.3,3.3-10,5-15.4,5.1c-7.8,0.2-15.6-1.8-23.3-0.9c-7.3,0.8-12.8,5-18.8,8.8
				c-4.9,3.1-10.2,5.6-16.2,4.9c-5.1-0.5-9.7-3.1-13.9-5.9c-4.6-3.1-8.9-6.7-13.8-9.6c-4.7-2.8-9.9-4.6-15.4-4.1
				c-5.5,0.5-10.5,3.1-15.1,5.9c-9,5.4-18.2,13.3-29.4,13c-11.5-0.2-20.4-8.6-30.2-13.5c-4.9-2.4-10.3-4.1-15.8-2.9
				c-6.5,1.4-11.5,6.1-17.2,9.1c-5.2,2.8-10.8,3.8-16.5,2c-5.3-1.6-10.1-5.3-12.7-10.2c-5.4-10-0.3-23.3,9.8-28.1
				c5.7-2.7,12.3-2.1,18.4-2c6.2,0.1,13-0.1,17.6-4.9c4.1-4.4,5.4-10.6,8.8-15.6c3.4-5,8.8-7.4,14.7-7.6c6.2-0.2,12.4,1.7,18.1,4
				c7.1,2.9,14.5,6.6,22.4,6.5c6.3-0.1,11.8-3,15.9-7.7c3.7-4.2,6.3-9.3,9.2-14.1c2.9-4.9,5.9-9.7,10.2-13.5
				c4.9-4.3,11.1-7,17.6-7.9c5.1-0.7,10.1,0,14.8,1.7c7.5,1.5,14.7,5,20.2,10.4c8.7,8.3,12.2,20.2,18.2,30.3c3,5,6.6,9.7,11.7,12.8
				c6.3,3.8,13.7,4.8,20.3,8c5.1,2.5,10.2,6.7,11.5,12.5C1675.6,416,1673.1,420.9,1669,424.1z"/>
		</g>
		<ellipse class="st8" cx="1388.4" cy="683.3" rx="196.5" ry="56.7"/>
	</g>
	<g>
		<polygon class="st9" points="1557.3,510.8 1539.9,720 1354.3,720.7 1363.6,509.7 1365.1,510.8 		"/>
		<path class="st9" d="M1363.6,509.7l-9.3,211l-105.5-62.2l-9.4-246.7l12.5,9.9c1,1.7,2.2,3.3,3.7,4.6c1.9,1.6,4.1,2.7,6.5,3.5
			l47.7,37.6l40.8,32.2L1363.6,509.7z"/>
		<polygon points="1247.5,408.8 1239.3,411.7 1365.1,510.8 1557.3,510.8 1369.1,387.8 		"/>
		<polygon class="st10" points="1365.1,510.8 1339,712.7 1354.3,720.7 		"/>
		<g>
			<path class="st4" d="M1263.5,539.5l29.8,18.7c0,0,10.5-77.7-14.3-77.7C1259.6,480.4,1263.5,539.5,1263.5,539.5z"/>
			<g>
				<path class="st11" d="M1280.8,481.9c-0.6-0.1-1.2-0.2-1.9-0.2h0c-2.2,0-4.2,0.9-5.9,2.8c-10.2,10.9-8.6,48.8-8.3,54.3l10.9,6.8
					C1277.4,524.3,1279.1,503.1,1280.8,481.9z"/>
				<path class="st11" d="M1283.4,482.8c-1.8,21.4-3.5,42.9-5.3,64.3l14.1,8.9c1.2-10.3,5.9-57.2-6-70.7
					C1285.4,484.2,1284.4,483.4,1283.4,482.8z"/>
				<g>
					<path class="st11" d="M1264.9,514.7c-0.7,11.1-0.3,21.3-0.2,24l10.9,6.8c0.7-8.2,1.3-16.3,2-24.5
						C1273.4,518.9,1269.1,516.8,1264.9,514.7z"/>
					<path class="st11" d="M1277.9,518.2c1-12.1,2-24.2,3-36.3c-0.6-0.1-1.2-0.2-1.9-0.2h0c-2.2,0-4.2,0.9-5.9,2.8
						c-4.9,5.2-7,16.5-8,27.4C1269.4,514,1273.6,516.1,1277.9,518.2z"/>
					<path class="st11" d="M1294.2,526.3c0.2-16-1.3-33.6-7.9-41.1c-0.9-1-1.9-1.8-2.9-2.4c-1,12.2-2,24.4-3,36.6
						C1285,521.7,1289.6,524,1294.2,526.3z"/>
					<path class="st11" d="M1280.1,522.3l-2,24.8l14.1,8.9c0.5-4.3,1.6-14.9,1.9-26.7C1289.5,526.9,1284.8,524.6,1280.1,522.3z"/>
					<path d="M1288.3,483.5c-2.6-2.9-5.7-4.4-9.3-4.4c0,0,0,0,0,0c-3,0-5.6,1.2-7.8,3.6c-11.7,12.5-9.1,55.1-9,56.9l0,0.7l32.1,20.1
						l0.3-2C1294.9,555.9,1302.3,499.6,1288.3,483.5z M1286.3,485.2c6.5,7.5,8,25.1,7.9,41.1c-4.6-2.3-9.2-4.6-13.8-6.8
						c1-12.2,2-24.4,3-36.6C1284.4,483.4,1285.4,484.2,1286.3,485.2z M1273.1,484.5c1.7-1.9,3.7-2.8,5.9-2.8h0
						c0.6,0,1.3,0.1,1.9,0.2c-1,12.1-2,24.2-3,36.3c-4.2-2.1-8.5-4.2-12.7-6.3C1266,500.9,1268.2,489.6,1273.1,484.5z M1264.7,538.7
						c-0.1-2.7-0.6-12.9,0.2-24c4.2,2.1,8.5,4.2,12.7,6.3c-0.7,8.2-1.3,16.3-2,24.5L1264.7,538.7z M1278.1,547.1l2-24.8
						c4.7,2.3,9.3,4.6,14,6.9c-0.3,11.9-1.4,22.5-1.9,26.7L1278.1,547.1z"/>
				</g>
			</g>
		</g>
		<g>
			<path class="st4" d="M1309.3,565.9l29.8,18.7c0,0,10.5-77.7-14.3-77.7C1305.4,506.9,1309.3,565.9,1309.3,565.9z"/>
			<g>
				<path class="st11" d="M1326.6,508.4c-0.6-0.1-1.2-0.2-1.9-0.2h0c-2.2,0-4.2,0.9-5.9,2.8c-10.2,10.9-8.6,48.8-8.3,54.3l10.9,6.8
					C1323.1,550.8,1324.9,529.6,1326.6,508.4z"/>
				<path class="st11" d="M1329.1,509.3c-1.8,21.4-3.5,42.9-5.3,64.3l14.1,8.9c1.2-10.3,5.9-57.2-6-70.7
					C1331.2,510.6,1330.2,509.9,1329.1,509.3z"/>
				<g>
					<path class="st11" d="M1310.7,541.2c-0.7,11.1-0.3,21.3-0.2,24l10.9,6.8c0.7-8.2,1.3-16.3,2-24.5
						C1319.2,545.4,1314.9,543.3,1310.7,541.2z"/>
					<path class="st11" d="M1323.6,544.7c1-12.1,2-24.2,3-36.3c-0.6-0.1-1.2-0.2-1.9-0.2h0c-2.2,0-4.2,0.9-5.9,2.8
						c-4.9,5.2-7,16.5-8,27.4C1315.1,540.5,1319.4,542.6,1323.6,544.7z"/>
					<path class="st11" d="M1339.9,552.8c0.2-16-1.3-33.6-7.9-41.1c-0.9-1-1.9-1.8-2.9-2.4c-1,12.2-2,24.4-3,36.6
						C1330.7,548.2,1335.3,550.5,1339.9,552.8z"/>
					<path class="st11" d="M1325.9,548.7l-2,24.8l14.1,8.9c0.5-4.3,1.6-14.9,1.9-26.7C1335.2,553.3,1330.6,551,1325.9,548.7z"/>
					<path d="M1334,509.9c-2.6-2.9-5.7-4.4-9.3-4.4c0,0,0,0,0,0c-3,0-5.6,1.2-7.8,3.6c-11.7,12.5-9.1,55.1-9,56.9l0,0.7l32.1,20.1
						l0.3-2C1340.7,582.4,1348.1,526,1334,509.9z M1332.1,511.7c6.5,7.5,8,25.1,7.9,41.1c-4.6-2.3-9.2-4.6-13.8-6.8
						c1-12.2,2-24.4,3-36.6C1330.2,509.9,1331.2,510.6,1332.1,511.7z M1318.8,510.9c1.7-1.9,3.7-2.8,5.9-2.8h0
						c0.6,0,1.3,0.1,1.9,0.2c-1,12.1-2,24.2-3,36.3c-4.2-2.1-8.5-4.2-12.7-6.3C1311.8,527.4,1314,516.1,1318.8,510.9z M1310.5,565.2
						c-0.1-2.7-0.6-12.9,0.2-24c4.2,2.1,8.5,4.2,12.7,6.3c-0.7,8.2-1.3,16.3-2,24.5L1310.5,565.2z M1323.9,573.6l2-24.8
						c4.7,2.3,9.3,4.6,14,6.9c-0.3,11.9-1.4,22.5-1.9,26.7L1323.9,573.6z"/>
				</g>
			</g>
		</g>
		<g>
			<path class="st4" d="M1254.1,632.4l29.8,18.7c0,0,10.5-77.7-14.3-77.7C1250.2,573.3,1254.1,632.4,1254.1,632.4z"/>
			<g>
				<path class="st11" d="M1271.4,574.8c-0.6-0.1-1.2-0.2-1.9-0.2h0c-2.2,0-4.2,0.9-5.9,2.8c-10.2,10.9-8.6,48.8-8.3,54.3l10.9,6.8
					C1268,617.2,1269.7,596,1271.4,574.8z"/>
				<path class="st11" d="M1274,575.7c-1.8,21.4-3.5,42.9-5.3,64.3l14.1,8.9c1.2-10.3,5.9-57.2-6-70.7
					C1276,577.1,1275,576.3,1274,575.7z"/>
				<g>
					<path class="st11" d="M1255.5,607.6c-0.7,11.1-0.3,21.3-0.2,24l10.9,6.8c0.7-8.2,1.3-16.3,2-24.5
						C1264,611.8,1259.8,609.7,1255.5,607.6z"/>
					<path class="st11" d="M1268.5,611.1c1-12.1,2-24.2,3-36.3c-0.6-0.1-1.2-0.2-1.9-0.2h0c-2.2,0-4.2,0.9-5.9,2.8
						c-4.9,5.2-7,16.5-8,27.4C1260,606.9,1264.2,609,1268.5,611.1z"/>
					<path class="st11" d="M1284.8,619.2c0.2-16-1.3-33.6-7.9-41.1c-0.9-1-1.9-1.8-2.9-2.4c-1,12.2-2,24.4-3,36.6
						C1275.6,614.7,1280.2,616.9,1284.8,619.2z"/>
					<path class="st11" d="M1270.8,615.2l-2,24.8l14.1,8.9c0.5-4.3,1.6-14.9,1.9-26.7C1280.1,619.8,1275.4,617.5,1270.8,615.2z"/>
					<path d="M1278.9,576.4c-2.6-2.9-5.7-4.4-9.3-4.4c0,0,0,0,0,0c-3,0-5.6,1.2-7.8,3.6c-11.7,12.5-9.1,55.1-9,56.9l0,0.7l32.1,20.1
						l0.3-2C1285.5,648.8,1292.9,592.5,1278.9,576.4z M1276.9,578.1c6.5,7.5,8,25.1,7.9,41.1c-4.6-2.3-9.2-4.6-13.8-6.8
						c1-12.2,2-24.4,3-36.6C1275,576.3,1276,577.1,1276.9,578.1z M1263.7,577.4c1.7-1.9,3.7-2.8,5.9-2.8h0c0.6,0,1.3,0.1,1.9,0.2
						c-1,12.1-2,24.2-3,36.3c-4.2-2.1-8.5-4.2-12.7-6.3C1256.7,593.8,1258.8,582.5,1263.7,577.4z M1255.4,631.6
						c-0.1-2.7-0.6-12.9,0.2-24c4.2,2.1,8.5,4.2,12.7,6.3c-0.7,8.2-1.3,16.3-2,24.5L1255.4,631.6z M1268.7,640l2-24.8
						c4.7,2.3,9.3,4.6,14,6.9c-0.3,11.9-1.4,22.5-1.9,26.7L1268.7,640z"/>
				</g>
			</g>
		</g>
		<g>
			<path class="st4" d="M1299.9,658.8l29.8,18.7c0,0,10.5-77.7-14.3-77.7C1296,599.8,1299.9,658.8,1299.9,658.8z"/>
			<g>
				<path class="st11" d="M1317.2,601.3c-0.6-0.1-1.2-0.2-1.9-0.2h0c-2.2,0-4.2,0.9-5.9,2.8c-10.2,10.9-8.6,48.8-8.3,54.3l10.9,6.8
					C1313.8,643.7,1315.5,622.5,1317.2,601.3z"/>
				<path class="st11" d="M1319.8,602.2c-1.8,21.4-3.5,42.9-5.3,64.3l14.1,8.9c1.2-10.3,5.9-57.2-6-70.7
					C1321.8,603.5,1320.8,602.8,1319.8,602.2z"/>
				<g>
					<path class="st11" d="M1301.3,634.1c-0.7,11.1-0.3,21.3-0.2,24l10.9,6.8c0.7-8.2,1.3-16.3,2-24.5
						C1309.8,638.3,1305.5,636.2,1301.3,634.1z"/>
					<path class="st11" d="M1314.2,637.6c1-12.1,2-24.2,3-36.3c-0.6-0.1-1.2-0.2-1.9-0.2h0c-2.2,0-4.2,0.9-5.9,2.8
						c-4.9,5.2-7,16.5-8,27.4C1305.8,633.4,1310,635.5,1314.2,637.6z"/>
					<path class="st11" d="M1330.6,645.7c0.2-16-1.3-33.6-7.9-41.1c-0.9-1-1.9-1.8-2.9-2.4c-1,12.2-2,24.4-3,36.6
						C1321.4,641.1,1326,643.4,1330.6,645.7z"/>
					<path class="st11" d="M1316.5,641.6l-2,24.8l14.1,8.9c0.5-4.3,1.6-14.9,1.9-26.7C1325.8,646.3,1321.2,643.9,1316.5,641.6z"/>
					<path d="M1324.6,602.9c-2.6-2.9-5.7-4.4-9.3-4.4c0,0,0,0,0,0c-3,0-5.6,1.2-7.8,3.6c-11.7,12.5-9.1,55.1-9,56.9l0,0.7l32.1,20.1
						l0.3-2C1331.3,675.3,1338.7,618.9,1324.6,602.9z M1322.7,604.6c6.5,7.5,8,25.1,7.9,41.1c-4.6-2.3-9.2-4.6-13.8-6.8
						c1-12.2,2-24.4,3-36.6C1320.8,602.8,1321.8,603.5,1322.7,604.6z M1309.5,603.8c1.7-1.9,3.7-2.8,5.9-2.8h0
						c0.6,0,1.3,0.1,1.9,0.2c-1,12.1-2,24.2-3,36.3c-4.2-2.1-8.5-4.2-12.7-6.3C1302.4,620.3,1304.6,609,1309.5,603.8z M1301.1,658.1
						c-0.1-2.7-0.6-12.9,0.2-24c4.2,2.1,8.5,4.2,12.7,6.3c-0.7,8.2-1.3,16.3-2,24.5L1301.1,658.1z M1314.5,666.5l2-24.8
						c4.7,2.3,9.3,4.6,14,6.9c-0.3,11.9-1.4,22.5-1.9,26.7L1314.5,666.5z"/>
				</g>
			</g>
		</g>
		<polyline class="st12" points="1257.8,533.2 1257.9,534.5 1258.5,544.7 1294.2,565.9 1296.8,551.1 		"/>
		<polyline class="st12" points="1304.4,556.6 1304.4,557.8 1305.1,568 1340.8,589.3 1343.4,574.4 		"/>
		<polyline class="st12" points="1250.1,626.6 1250.1,627.9 1250.8,638.1 1286.5,659.3 1289.1,644.5 		"/>
		<polyline class="st12" points="1296.7,650 1296.7,651.2 1297.4,661.5 1333,682.7 1335.7,667.8 		"/>
		<polygon points="1393,720.5 1386.3,602.2 1454.9,602.2 1442.8,720.7 		"/>
		<polygon class="st12" points="1393,720.5 1386.3,602.2 1454.9,602.2 1442.8,720.7 1449.3,720.3 1461.2,592.9 1382,592.9 
			1386.3,720.7 		"/>
		<path class="st5" d="M1247,436.5c-0.1-0.8-1.4-0.7-1.3,0.1l1.7,26.6c0.1,0.8,1.4,0.7,1.3-0.1L1247,436.5z"/>
		<path class="st5" d="M1248.7,471.8c0-0.8-1.3-0.7-1.3,0.1c0.1,5.8,0.2,11.6,0.2,17.5c0,0.8,1.3,0.7,1.3-0.1
			C1248.8,483.5,1248.7,477.6,1248.7,471.8z"/>
		<path class="st5" d="M1252.2,462.7c0-0.8-1.3-0.7-1.3,0.1c0.1,3.9,0.2,7.8,0.2,11.6c0,0.8,1.3,0.7,1.3-0.1
			C1252.4,470.5,1252.3,466.6,1252.2,462.7z"/>
		<path class="st5" d="M1368.8,516.9c-0.3,6.3-0.7,12.6-1,18.9c0,0.8,1.2,1.1,1.3,0.2c0.3-6.3,0.7-12.6,1-18.9
			C1370.2,516.3,1368.9,516,1368.8,516.9z"/>
		<path class="st5" d="M1373.9,519.2c-0.1,4.5-0.1,9-0.2,13.5c0,0.8,1.3,0.7,1.3-0.1c0.1-4.5,0.1-9,0.2-13.5
			C1375.2,518.3,1373.9,518.4,1373.9,519.2z"/>
		<path class="st5" d="M1549.2,519.1c-0.4,6.1-0.8,12.1-1.2,18.2c-0.1,0.8,1.2,1.1,1.3,0.2c0.4-6.1,0.8-12.1,1.2-18.2
			C1550.6,518.5,1549.3,518.2,1549.2,519.1z"/>
		<path class="st5" d="M1547.3,542c-0.8,9.1-1.5,18.2-2.3,27.3c-0.1,0.8,1.2,1.1,1.3,0.2c0.8-9.1,1.5-18.2,2.3-27.3
			C1548.6,541.4,1547.3,541.1,1547.3,542z"/>
		<path class="st5" d="M1543,531.8c0-0.8-1.3-0.7-1.3,0.1c0.1,4,0.2,8,0.3,12c0,0.8,1.3,0.7,1.3-0.1
			C1543.2,539.8,1543.1,535.8,1543,531.8z"/>
		<path class="st5" d="M1378.8,693.4c0-0.8-1.3-0.7-1.3,0.1c0.2,7,0.4,14.1,0.6,21.1c0,0.8,1.3,0.7,1.3-0.1
			C1379.2,707.4,1379,700.4,1378.8,693.4z"/>
		<path class="st5" d="M1371.5,704.4v9.8c0,0.8,1.3,0.7,1.3-0.1v-9.8C1372.8,703.4,1371.5,703.6,1371.5,704.4z"/>
		<path class="st5" d="M1370.4,690.1c-0.1-0.8-1.4-0.7-1.3,0.1c0.3,2.8,0.7,5.6,1,8.4c0.1,0.8,1.4,0.7,1.3-0.1
			C1371,695.7,1370.7,692.9,1370.4,690.1z"/>
		<path class="st5" d="M1248.5,561.4v18.2c0,0.8,1.3,0.7,1.3-0.1v-18.2C1249.8,560.5,1248.5,560.6,1248.5,561.4z"/>
		<path class="st5" d="M1254.3,565.7c0-0.8-1.3-0.7-1.3,0.1c0.1,3.2,0.2,6.3,0.3,9.5c0,0.8,1.3,0.7,1.3-0.1
			C1254.5,572,1254.4,568.8,1254.3,565.7z"/>
	</g>
	<g>
		<g>
			<polygon class="st13" points="1502.3,373.5 1470.7,445.2 1478,449.1 1508.3,376.5 			"/>
			<g>
				<path class="st12" d="M1461.5,359c0,0,32.7,47.3,94.6,41.8l8-86.2c0,0-21.5-22.1-51.3-20.5L1461.5,359z"/>
				<path class="st5" d="M1512.8,294.1c0,0,21.3,25.6,51.3,20.5C1564.1,314.6,1546.5,294,1512.8,294.1z"/>
				<path class="st13" d="M1518.5,303.3c-12,17.2-24.1,34.4-36.1,51.6c-3.4,4.8-6.7,9.6-10.1,14.4c-0.5,0.7,0.5,1.5,1,0.8
					c12-17.2,24.1-34.4,36.1-51.6l10.1-14.4C1520,303.5,1519,302.7,1518.5,303.3z"/>
				<path class="st13" d="M1529.8,310.8l-30.2,57.9c-2.8,5.4-5.6,10.8-8.4,16.2c-0.4,0.7,0.8,1.3,1.2,0.6
					c10.1-19.3,20.1-38.6,30.2-57.9c2.8-5.4,5.6-10.8,8.4-16.2C1531.4,310.7,1530.2,310.1,1529.8,310.8z"/>
				<path class="st13" d="M1543.2,317.9c-7.4,19.6-14.7,39.3-22.1,58.9c-2.1,5.6-4.2,11.2-6.3,16.8c-0.3,0.8,0.9,1.3,1.2,0.6
					c7.4-19.6,14.7-39.3,22.1-58.9c2.1-5.6,4.2-11.2,6.3-16.8C1544.6,317.6,1543.5,317.1,1543.2,317.9z"/>
				<path class="st13" d="M1554.8,318.3c-4.1,20.9-8.2,41.9-12.3,62.8c-1.1,5.9-2.3,11.8-3.4,17.6c-0.2,0.8,1.1,1.1,1.3,0.2
					c4.1-20.9,8.2-41.9,12.3-62.8c1.1-5.9,2.3-11.8,3.4-17.6C1556.2,317.7,1554.9,317.4,1554.8,318.3z"/>
			</g>
			<polygon class="st5" points="1495.6,388.2 1499.6,397.4 1502.1,391.5 			"/>
			<path class="st5" d="M1482.9,337.6c-5,6.2-10.1,12.5-15.1,18.7c-0.5,0.7,0.5,1.5,1,0.8l15.1-18.7
				C1484.4,337.8,1483.4,337,1482.9,337.6z"/>
			<path class="st5" d="M1500.1,315.3c-4.9,6.2-9.7,12.5-14.6,18.7c-0.5,0.7,0.5,1.5,1,0.8c4.9-6.2,9.7-12.5,14.6-18.7
				C1501.6,315.5,1500.6,314.6,1500.1,315.3z"/>
			<path class="st5" d="M1489.6,334.1c-2.4,2.6-4.7,5.2-7.1,7.9c-0.6,0.6,0.4,1.5,1,0.8c2.4-2.6,4.7-5.2,7.1-7.9
				C1491.2,334.3,1490.2,333.4,1489.6,334.1z"/>
			<path class="st5" d="M1539.5,319.2c-5.8,14.5-11.5,29-17.3,43.5c-1.6,4.1-3.3,8.2-4.9,12.3c-0.3,0.8,0.9,1.3,1.2,0.6
				c5.8-14.5,11.5-29,17.3-43.5c1.6-4.1,3.3-8.2,4.9-12.3C1541,319,1539.8,318.4,1539.5,319.2z"/>
			<path class="st5" d="M1515.7,379.2l-3.5,9.7c-0.3,0.8,0.9,1.4,1.2,0.6c1.2-3.2,2.3-6.5,3.5-9.7
				C1517.2,378.9,1516,378.4,1515.7,379.2z"/>
			<path class="st5" d="M1516.8,369.5c-1.5,3.2-3,6.3-4.5,9.5c-0.4,0.8,0.8,1.3,1.2,0.6c1.5-3.2,3-6.3,4.5-9.5
				C1518.3,369.3,1517.2,368.7,1516.8,369.5z"/>
			<path class="st5" d="M1560.6,320.2c-2.3,13.6-4.6,27.3-6.9,40.9c-0.7,3.9-1.3,7.7-2,11.6c-0.1,0.8,1.1,1.1,1.3,0.2
				c2.3-13.6,4.6-27.3,6.9-40.9c0.7-3.9,1.3-7.7,2-11.6C1562,319.6,1560.7,319.4,1560.6,320.2z"/>
			<path class="st5" d="M1551.2,379.4c-0.7,4.2-1.4,8.5-2.1,12.7c-0.1,0.8,1.2,1.1,1.3,0.2c0.7-4.2,1.4-8.5,2.1-12.7
				C1552.6,378.8,1551.3,378.5,1551.2,379.4z"/>
			<path class="st5" d="M1549.1,369.9c-0.3-0.1-0.7,0.2-0.8,0.5c-0.2,2.9-0.5,5.8-0.7,8.7c0,0.4,0.2,0.7,0.5,0.8
				c0.3,0.1,0.7-0.2,0.8-0.5c0.2-2.9,0.5-5.8,0.7-8.7C1549.6,370.3,1549.4,370,1549.1,369.9z"/>
		</g>
		<g>
			<path class="st14" d="M1397.8,208.8c-2.6-5.5-5.2-11.2-9.5-15.6c-0.1-0.1-0.1-0.1-0.2-0.2c-1.1-1.2-2.6-2.3-4.2-2.2
				c-1.6,0.1-3,2.1-2,3.4l-0.2,0.2c-0.3-0.4-0.6-0.8-0.9-1.1c-0.6-0.7-1.1-1.4-1.9-1.8c-0.8-0.4-1.8-0.5-2.5,0c-0.9,0.6-1,1.9-1,2.9
				c0,1.2,0.1,2.3,0.3,3.4c-2-1.1-4.2-1.9-6.4-1.6c-4.1,0.5-7,4.1-10.9,5.6c-8,3-17.1-4.3-25.2-1.5c-3.3,1.2-5.8,3.9-8,6.7
				c-2.2,2.8-4.2,5.8-7.1,7.8c-2.4,1.7-5.7,2.5-8.4,1.6c-1.4-1.8-3.2-3.4-5.4-4.2c-2.1-0.9-4.6-1-6.8-0.1c-0.3,0.1-0.7,0.3-1,0.5
				c-2.7,1.6-4.1,4.6-4.6,7.7c-0.9,5.1,0.4,10.5,3.4,14.6c2.8,3.7,6.9,6.4,11.5,7.3c-1.9,14.5-3.8,28.9-5.8,43.4
				c0,0,0.2,0.2,0.5,0.5c3.8,4.2,29.5,32.4,48.4,32.5c20.5,0.1,14-24.7,14-24.7c-30.9,1.1-45.9-31-46.4-32c4.5,6,10.5,11,17.2,14.4
				c5.5,2.7,11.6,4.4,17.7,4.3c2.6-0.1,5.2-0.5,7.7-1.2c3.4-1,6.5-2.7,9.1-5.1c5.2-4.6,7.9-11.4,9.9-18c0.3-1.2,0.7-2.3,1-3.5
				c2.8,10.4,10.8,19.3,20.8,23.3c0.8,3.8,1.6,7.5,2.5,11.2c8.5-3.8,16.9-7.6,25.4-11.4C1418.5,253.4,1408.2,231.1,1397.8,208.8z
				 M1382.9,240.3L1382.9,240.3c0.8-4.6,1.3-9.2,1.6-13.9c0.9,1.4,1.8,2.7,2.8,4c-0.4,5.4,0.2,10.9,1.6,16.2
				C1386.9,244.5,1384.9,242.4,1382.9,240.3z"/>
			<path class="st9" d="M1340.2,253.1c-0.6,1.6-0.3,3.5,1,4.6c1.5,1.2,3.7,0.8,5.4,0.1c1.8-0.7,3.6-1.6,5.5-1.3
				c1.3,0.2,2.5,1,3.8,1.4c1.3,0.5,2.9,0.6,3.8-0.4c1.1-1.1,0.8-2.9,0.2-4.2c0,0,0,0,0,0c-1-2.1-2.8-3.8-5-4.6
				c-0.9-0.3-1.8-0.6-2.8-0.7c-2.9-0.4-5.9,0.2-8.4,1.6C1342.1,250.3,1340.8,251.5,1340.2,253.1z"/>
			<path class="st15" d="M1306.2,225.3c0.2,1.6,0.1,3.3-0.3,4.9c-0.3,1.5-0.9,3.1-2.2,4.1c-1.2,0.8-2.7,0.8-3.8-0.2
				c-1.1-1-1.3-2.6-1.3-4c0.1-1.2,0.5-2.7,1.8-3.1c1-0.4,2.2,0,2.6,1.1c0,0.1,0,0.1,0,0.2c0,0.7-1,1-1.3,0.2
				c-0.2-0.5-0.8-0.5-1.2-0.2c-0.5,0.3-0.6,1-0.6,1.6c-0.1,1.2,0,2.9,1.2,3.6c1.5,0.9,2.7-1.1,3.1-2.3c0.3-0.9,0.5-1.8,0.6-2.7
				c0.1-0.4,0.1-0.9,0.1-1.3c0-2.5-0.6-5.6-2.3-7.6c-0.9-1-2.1-1.4-3.4-0.9c-1.3,0.5-1.9,2-1.6,3.3c0.2,0.8-1,1.3-1.2,0.4
				c-0.4-1.5,0-3.2,1.2-4.3c1.2-1,2.9-1.3,4.4-0.6C1304.8,218.7,1305.9,222.6,1306.2,225.3z"/>
			<path class="st5" d="M1418.8,159.4c1.3,3.3-0.7,6.9-2.6,9.9c-2.5,3.8-4.9,7.6-7.4,11.4c-1.8,2.8-3.7,5.7-6.4,7.8
				c-3.9,3-9,3.8-13.9,4.5l-0.3,0.2c-0.1-0.1-0.1-0.1-0.2-0.2c-1.1-1.2-2.6-2.3-4.2-2.2c-1.6,0.1-3,2.1-2,3.4l-0.2,0.2
				c-0.3-0.4-0.6-0.8-0.9-1.1c-0.6-0.7-1.1-1.4-1.9-1.8c-0.8-0.4-1.8-0.5-2.5,0c-0.9,0.6-1,1.9-1,2.9c0,1.2,0.1,2.3,0.3,3.4
				c-2-1.1-4.2-1.9-6.4-1.6c-4.1,0.5-7,4.1-10.9,5.6c-8,3-17.1-4.3-25.2-1.5c-3.3,1.2-5.8,3.9-8,6.7c-2.2,2.8-4.2,5.8-7.1,7.8
				c-2.4,1.7-5.7,2.5-8.4,1.6c-1.4-1.8-3.2-3.4-5.4-4.2c-2.1-0.9-4.6-1-6.8-0.1l-0.2-0.4c-4.7-2.1-8-6.9-8.5-12
				c-0.5-5.1,1.9-10.4,6-13.4c5-3.6,12.1-4,16.3-8.5c4.7-4.9,4.4-13.3,9.6-17.7c3.9-3.3,9.5-3.3,14.6-2.6s10.3,1.9,15.1,0.3
				c5.5-1.8,9.5-6.8,15-8.5c5.7-1.7,11.8,0.4,17.2,2.9c5.4,2.4,11,5.3,17,4.9c3.5-0.2,6.8-1.6,10.3-1.8
				C1413.5,154.9,1417.5,156.2,1418.8,159.4z"/>
			<path class="st15" d="M1378.9,241.9c0.4,1.5-0.3,3.2-1.5,4.2c-1.2,1-2.8,1.5-4.4,1.6c-4.9,0.4-9.7-2.4-12.8-6.3
				c-2.9-3.8-4.4-8.5-5-13.2c5.3,4.3,11.4,7.5,17.9,9.5c1.2,0.4,2.4,0.7,3.5,1.3C1377.6,239.8,1378.6,240.7,1378.9,241.9z"/>
			<path class="st5" d="M1361,282.4l3,11.4c-31.4,1.1-46.4-32-46.4-32c4.5,6,10.5,11,17.2,14.4c5.5,2.7,11.6,4.4,17.7,4.3
				c2.6-0.1,5.2-0.5,7.7-1.2L1361,282.4z"/>
			<circle class="st15" cx="1324.5" cy="241.6" r="8.4"/>
			<path class="st5" d="M1348.6,223.1c-0.2-1.7-2.8-1.5-2.6,0.2c0.2,1.7,0.4,3.6-0.3,5.2c-0.5,1.2-1.6,2-2.9,1.8
				c-3.4-0.4-4.3-4.5-4.9-7.3c-0.1-0.7-0.7-1.3-1.4-1.2c-0.6,0.1-1.3,0.7-1.2,1.4c0.7,3.3,1.6,6.9,4.7,8.8c1.5,0.9,3.3,1.2,5,0.6
				c1.5-0.5,2.7-1.9,3.3-3.3C1349,227.3,1348.8,225.2,1348.6,223.1z"/>
			<path class="st5" d="M1375.9,219.5c0-0.7-0.7-1.3-1.4-1.2c-0.7,0.1-1.2,0.7-1.2,1.4c0.1,1.6,0.3,3.5-0.3,5
				c-0.3,0.7-0.5,1.1-1.1,1.6c0.1-0.1,0.1,0-0.1,0.1c-0.1,0.1-0.1,0.1-0.2,0.2c-0.1,0.1-0.2,0.1-0.2,0.2c-0.1,0.1-0.2,0.1-0.1,0.1
				c0.1,0,0,0-0.1,0c-0.1,0-0.2,0.1-0.3,0.1c-0.1,0-0.5,0.1-0.3,0.1c-0.7,0.1-1.1,0-1.7-0.3c-0.5-0.3-1-0.8-1.4-1.3
				c-0.9-1.3-1.2-2.9-1.5-4.4c-0.1-0.7-0.7-1.3-1.4-1.2c-0.6,0.1-1.3,0.7-1.2,1.4c0.6,3.1,1.5,6.6,4.7,8c1.5,0.6,3.2,0.5,4.6-0.3
				c1.2-0.7,2.2-2,2.7-3.4C1376.1,223.6,1376,221.6,1375.9,219.5z"/>
			<path class="st5" d="M1347.1,211.2c-0.2-1.4-1.4-2.6-2.8-2.4c-4.6,0.6-9.1,2.2-12.9,4.8c-1.1,0.8-1.5,2.6-0.6,3.6
				c0.9,1.1,2.4,1.4,3.6,0.6c0.4-0.3,0.9-0.6,1.4-0.9c0.2-0.1,0.4-0.2,0.6-0.4c0.1,0,0.1-0.1,0.2-0.1c0.9-0.5,1.8-0.9,2.8-1.2
				c0.9-0.4,1.9-0.7,2.9-0.9c0.1,0,0.2,0,0.2-0.1c0.2-0.1,0.4-0.1,0.7-0.1c0.5-0.1,1.1-0.2,1.6-0.2
				C1346.1,213.9,1347.3,212.7,1347.1,211.2z"/>
			<path class="st5" d="M1375.7,208.5c-4.4-1.5-9.1-2.2-13.8-1.6c-1.4,0.2-2.6,1.4-2.4,2.8c0.2,1.4,1.4,2.5,2.8,2.4
				c1-0.1,2-0.2,3-0.2c0.3,0,0.6,0,0.9,0c0.1,0,0.1,0,0.1,0c0,0,0.1,0,0.1,0c0.5,0,1,0.1,1.5,0.1c1,0.1,2,0.3,2.9,0.5
				c0.5,0.1,1,0.2,1.4,0.4c0.2,0.1,0.4,0.1,0.7,0.2c0,0,0,0,0.1,0c0.1,0,0.3,0.1,0.4,0.1c1.3,0.4,2.9,0.1,3.5-1.2
				C1377.4,210.8,1377.1,209,1375.7,208.5z"/>
			<path class="st15" d="M1382.2,240.7c-0.8,4-1.5,8.1-2.3,12.1c-0.2,0.8,1.1,1.1,1.3,0.2c0.8-4,1.5-8.1,2.3-12.1
				C1383.6,240.1,1382.3,239.9,1382.2,240.7z"/>
			<path class="st15" d="M1393.6,222.6c-2-3.8-4.1-7.5-6.4-11.2c-2.2-3.6-4.5-7.3-7.1-10.7c-0.9-1.2-2.3-2.5-3.9-2.2
				c-1.6,0.3-2.4,1.8-2.5,3.3c-0.1,2,0.9,4.2,1.5,6.1c0.7,2,1.4,4,2.2,6c1.8,4.4,3.8,8.7,6.1,12.9c0.4,0.7,1.5,0,1.1-0.8
				c-3.7-6.6-6.6-13.5-8.8-20.7c-0.4-1.5-1.5-4.1,0-5.2c1.4-1.1,3,1.1,3.7,2.1c2.2,3.1,4.3,6.3,6.3,9.5c2.3,3.7,4.5,7.5,6.5,11.4
				C1392.7,223.8,1393.9,223.3,1393.6,222.6z"/>
			<path class="st15" d="M1398.9,220.8c-4.4-9.3-9.6-18.2-15.7-26.5c-0.5-0.7-1.6,0.1-1.1,0.8c6,8.2,11.2,17,15.5,26.2
				C1398,222,1399.2,221.5,1398.9,220.8z"/>
			<path class="st9" d="M1308.3,187.9c-4.9,0.1-10.2,1.7-13,6c-2.4,3.6-2.2,8.8,1.5,11.6c0.7,0.5,1.5-0.5,0.8-1
				c-3.3-2.5-3.2-7.2-0.9-10.4c2.7-3.6,7.3-4.8,11.7-5C1309.3,189.2,1309.1,187.9,1308.3,187.9z"/>
			<path class="st9" d="M1316.7,179.8c-0.3-0.1-0.8,0-0.9,0.3c-0.8,2.3-2.6,4.3-4.8,5.3c-0.3,0.1-0.5,0.5-0.4,0.8
				c0.1,0.3,0.5,0.5,0.8,0.4c2.5-1.1,4.6-3.3,5.5-5.9C1317.1,180.4,1317,180,1316.7,179.8z"/>
			<path class="st9" d="M1313.8,189.2c-0.2-0.3-0.6-0.4-0.9-0.2c-1.2,0.8-2.3,1.7-3.5,2.5c-0.3,0.2-0.4,0.6-0.2,0.9
				c0.2,0.3,0.6,0.4,0.9,0.2c1.2-0.8,2.3-1.7,3.5-2.5C1313.9,189.9,1314,189.5,1313.8,189.2z"/>
			<path class="st9" d="M1372.2,189.6c-1.2,2.1-4.3,0.8-6,0.1c-2.2-0.9-4.3-1.1-6.4,0.1c-2,1.1-3.4,2.8-5.3,4
				c-1.9,1.3-4.1,1.9-6.4,1.9c-2.6,0-5.1-0.8-7.2-2.3c-0.7-0.5-1.5,0.5-0.8,1c3.8,2.9,9.2,3.4,13.6,1.4c2.2-1,3.8-2.8,5.8-4.3
				c1-0.7,2.1-1.3,3.3-1.3c1.5,0,3,0.7,4.4,1.2c2.1,0.8,4.9,0.9,6.2-1.3C1373.8,189.4,1372.6,188.9,1372.2,189.6z"/>
			<path class="st9" d="M1371.4,184.7l-4.4,1c-0.3,0.1-0.6,0.3-0.6,0.7c0,0.3,0.4,0.7,0.7,0.6c1.5-0.3,2.9-0.6,4.4-1
				c0.3-0.1,0.6-0.3,0.6-0.7C1372.1,185,1371.7,184.6,1371.4,184.7z"/>
			<path class="st9" d="M1411.7,163.3c-2.5,7.2-6.9,13.6-12.8,18.5c-0.6,0.5,0.1,1.6,0.8,1.1c6-5,10.6-11.6,13.2-19
				C1413.1,163.1,1412,162.5,1411.7,163.3z"/>
			<path class="st9" d="M1397.1,184.8c-0.1-0.3-0.5-0.5-0.8-0.4c-1.9,1-3.9,1.9-5.8,2.9c-0.3,0.2-0.5,0.5-0.4,0.8
				c0.1,0.3,0.5,0.5,0.8,0.4c1.9-1,3.9-1.9,5.8-2.9C1397.1,185.5,1397.3,185.1,1397.1,184.8z"/>
			<path class="st9" d="M1396.6,178.1c-2.3,1.5-4.6,3-6.9,4.6c-0.7,0.5,0.1,1.5,0.8,1.1c2.3-1.5,4.6-3,6.9-4.6
				C1398,178.7,1397.3,177.6,1396.6,178.1z"/>
			<path class="st5" d="M1459.7,177.7c0,2.3-2.9,3.2-4.8,3.2c-2.5,0.1-5.2-0.5-7.6,0.8c-1.8,1.1-2.6,3.1-3.3,5
				c-0.7,2-1.5,4.2-3.7,4.9c-2.2,0.7-4.7-0.2-7-0.1c-2.2,0.1-4.1,1-5.2,2.9c-1.1,1.8-1.4,4-2.2,5.9c-0.4,1-0.9,1.9-1.7,2.6
				c-1,0.9-2.4,1.3-3.7,1.5c-3.1,0.4-6.4-0.3-9.3,1.2c-2.2,1.1-3.9,3.8-2.9,6.3c0.3,0.8,1.6,0.3,1.2-0.5c-0.5-1.2-0.1-2.4,0.7-3.4
				c0.9-1.1,2.2-1.7,3.6-1.9c2.7-0.5,5.5,0,8.2-0.7c2.3-0.6,3.9-2,4.8-4.2c0.8-1.9,1.1-4,2.1-5.8c2.5-4.8,8.4-1,12.4-2.8
				c1.9-0.9,2.8-2.8,3.5-4.7c0.7-1.9,1.3-4.3,3.4-5.3c2.6-1.2,5.6,0,8.3-0.7c2.2-0.5,4.4-2,4.3-4.4
				C1461,176.8,1459.7,176.9,1459.7,177.7z"/>
			<path class="st5" d="M1435.7,170.2c-3.4,0.2-7.5,0.6-9.9,3.4c-1.2,1.5-1.5,3.3-1.8,5.1c-0.1,0.9-0.3,1.8-0.8,2.6
				c-0.6,0.9-1.5,1.3-2.5,1.6c-1.8,0.4-3.8,0.4-5.2,1.7c-1.3,1.1-1.6,2.8-1.7,4.4c-0.1,1.8,0.1,3.9-1.1,5.5
				c-1.3,1.8-3.6,2.3-5.6,2.9c-2,0.7-4.2,1.6-5.1,3.7c-0.7,1.6-0.5,3.7,1.1,4.8c0.7,0.5,1.5-0.5,0.8-1c-1.4-0.9-1.2-3-0.2-4.2
				c1.3-1.5,3.5-2,5.4-2.6c1.8-0.6,3.6-1.4,4.6-3c0.9-1.4,1.1-3.1,1.1-4.7c0.1-1.6,0-3.5,1.2-4.7c1.3-1.2,3.4-1.1,5-1.5
				c1.7-0.4,3-1.4,3.6-3c0.6-1.7,0.5-3.5,1.2-5.2c1.5-3.8,6.4-4.2,9.8-4.4C1436.6,171.5,1436.5,170.2,1435.7,170.2z"/>
			<path class="st5" d="M1452.8,215.9c-1-1.2-2.5-1.4-4-1.1c-1.7,0.4-3,1.6-4.5,2.4c-1.6,0.9-3.1,0.7-4.6-0.2
				c-1.3-0.7-2.4-1.7-3.7-2.4c-1.3-0.6-2.6-0.9-4-0.5c-1.4,0.4-2.5,1.2-3.6,2.1c-1.1,0.9-2.2,1.9-3.6,2.4c-2,0.7-3.9-0.2-5.7-1.1
				c-1.9-0.9-4-1.8-6.1-1.1c-1.6,0.5-2.9,2-2.8,3.8c0,0.8,1.4,0.7,1.3-0.1c-0.1-1.8,2-2.7,3.5-2.5c1.9,0.2,3.5,1.3,5.2,1.9
				c1.5,0.6,3.2,0.9,4.8,0.4c1.2-0.4,2.3-1.2,3.3-2c2.1-1.6,4.2-3.5,6.9-2.2c2.3,1.1,4.2,3.4,7,3.5c1.8,0,3.3-1.1,4.8-2
				c1.2-0.8,3.5-1.8,4.7-0.4C1452.3,217.3,1453.4,216.6,1452.8,215.9z"/>
		</g>
		<g>
			<path class="st9" d="M1262.1,429.6c-2.4-0.8-4.6-1.8-6.5-3.5c-1.5-1.3-2.7-2.9-3.7-4.6L1262.1,429.6z"/>
			<path class="st13" d="M1468.6,380.9c-4.2,7.3-13.5,10.7-21.8,9.3c-8.3-1.4-15.5-6.9-20.4-13.7c-2.9-4-5.1-8.3-7-12.9l-2.8,33.8
				l-1.3,16.1c-33.3-1.4-51.2,22.8-51.2,22.8c-6.2,0.3-12.1,1.6-17.4,3.6c-20.8,7.7-34.9,25-36.8,27.4l-47.7-37.6l-10.2-8
				c-1.4-2.5-2.3-5.3-3.1-8.1c-0.2-0.6-0.3-1.2-0.5-1.8c-3-11.4-4.3-23.2-5.5-35c-1.1-10.4-2.2-20.8-1.8-31.3
				c0.3-7.5,1.5-15.2,5.6-21.4c6.6-10,19-14.1,28.2-21.6c-0.4-0.2-0.7-0.3-1-0.5c-0.9-0.5-1.7-1.4-1.7-2.4c-0.1-1.8,2.1-2.7,3.9-3.1
				c4.5-1,9.1-1.7,13.7-2.2c-1.7-1.9-3.4-3.8-4.2-6.3c-0.2-0.6-0.3-1.2-0.1-1.7c0.4-1,1.6-1.2,2.7-1.2c4.5-0.2,9.1,0.2,13.5,1.1
				c3.8,4.2,29.5,32.4,48.4,32.5c20.5,0.1,14-24.7,14-24.7l-3-11.4c5.3-2,10.8-3.8,16.3-3.2c0.7,0.1,1.5,0.3,1.7,0.9
				c0.2,0.4,0,0.9-0.2,1.3c-0.9,2.2-2.6,4.1-4.7,5.3c5.9-1.9,12.4-3.9,18.3-1.7c0.4,0.1,0.8,0.3,1,0.7c0.4,0.6,0,1.5-0.5,2.1
				c-0.6,0.9-1.3,1.7-2.1,2.5c3.3,0.6,6.6,1.5,9.8,2.6l0.7-0.1c-0.3-1.5-0.5-2.9-0.8-4.4c0.9-0.4,1.8-0.8,2.8-1.2
				c8.5-3.8,16.9-7.6,25.4-11.4c0.6-0.3,1.3-0.6,1.9-0.9c14.8,24.7,27.1,51,36.6,78.2c1.6,4.5,3.1,9.1,3.6,13.9
				C1471.6,371.8,1471,376.8,1468.6,380.9z"/>
			<path class="st5" d="M1248.7,413.5c0.8,2.8,1.7,5.6,3.1,8.1l-12.5-9.9h8.9C1248.4,412.3,1248.6,412.9,1248.7,413.5z"/>
			<path class="st5" d="M1415.8,353.7c1.1,3.3,2.2,6.6,3.5,9.9c-0.6-0.4-23.3-16-18.7-70.2l0.1-0.4c0.3,0.1,0.5,0.2,0.8,0.3
				C1405.4,313.6,1409.4,334,1415.8,353.7z"/>
			<polygon class="st5" points="1393.7,415.6 1304.1,390.5 1299.2,332.9 1311.4,384.1 			"/>
			<path class="st5" d="M1327,447.6c-17.9-4.1-35.5-9.5-52.6-16.2c-4.8-1.9-9.6-3.8-14.3-5.9c-0.8-0.3-1.3,0.8-0.6,1.2
				c16.9,7.4,34.4,13.5,52.2,18.4c5,1.4,10,2.6,15,3.8C1327.6,449.1,1327.9,447.8,1327,447.6z"/>
			<path class="st6" d="M1303,308.3c-0.3-0.8-0.9-1.4-1.7-1.8c-2.3-1.2-4.5-2.5-6.8-3.7c-0.7-0.4-1.8-0.4-2.5-0.1
				c-0.7,0.3-1.5,0.9-1.8,1.7c-0.3,0.8-0.5,1.7-0.1,2.5c0.3,0.8,0.9,1.4,1.7,1.8c2.3,1.2,4.5,2.5,6.8,3.7c0.7,0.4,1.8,0.4,2.5,0.1
				c0.7-0.3,1.5-0.9,1.8-1.7C1303.2,310,1303.4,309.1,1303,308.3z"/>
			<path class="st6" d="M1316.5,311.7c-1.8-0.3-3.4,0.8-3.8,2.6c-0.6,2.4-1.1,4.9-1.7,7.3c-0.4,1.7,0.9,3.6,2.6,3.8
				c1.8,0.3,3.4-0.8,3.8-2.6c0.6-2.4,1.1-4.9,1.7-7.3C1319.5,313.9,1318.2,311.9,1316.5,311.7z"/>
			<path class="st6" d="M1315.3,339.6c-1-1.9-1.9-3.7-2.9-5.6c-0.1-0.4-0.4-0.8-0.7-1.1c-0.3-0.3-0.6-0.6-1-0.8
				c-0.7-0.3-1.8-0.4-2.5-0.1c-0.8,0.3-1.5,0.9-1.8,1.7l-0.3,0.8c-0.1,0.6-0.1,1.2,0.2,1.7c1,1.9,1.9,3.7,2.9,5.6
				c0.1,0.4,0.4,0.8,0.7,1.1c0.3,0.3,0.6,0.6,1,0.8c0.7,0.3,1.8,0.4,2.5,0.1c0.8-0.3,1.5-0.9,1.8-1.7l0.3-0.8
				C1315.6,340.7,1315.5,340.1,1315.3,339.6z"/>
			<path class="st6" d="M1288.4,319.2c-0.6-0.5-1.6-0.9-2.4-0.8c-0.8,0.1-1.7,0.5-2.2,1.2l-0.5,0.7c-0.3,0.5-0.4,1.1-0.3,1.7
				c-0.1,2-0.1,4-0.2,6.1c0,0.8,0.6,1.7,1.2,2.2c0.6,0.5,1.6,0.9,2.4,0.8c0.8-0.1,1.7-0.5,2.2-1.2c0.2-0.2,0.3-0.5,0.5-0.7
				c0.3-0.5,0.4-1.1,0.3-1.7c0.1-2,0.1-4,0.2-6.1C1289.6,320.7,1289,319.7,1288.4,319.2z"/>
			<path class="st6" d="M1268.5,331.9c-0.1-0.9-0.5-1.7-1.2-2.2c-1.7-1.4-3.4-2.8-5-4.1c-0.7-0.5-1.5-0.8-2.4-0.8
				c-0.8,0.1-1.7,0.5-2.2,1.2c-0.5,0.7-0.9,1.5-0.8,2.4c0.1,0.9,0.5,1.7,1.2,2.2c1.7,1.4,3.4,2.8,5,4.1c0.7,0.5,1.5,0.8,2.4,0.8
				c0.8-0.1,1.7-0.5,2.2-1.2C1268.3,333.6,1268.7,332.8,1268.5,331.9z"/>
			<path class="st6" d="M1291.5,342.4c-0.5-0.6-1.2-1.2-2.1-1.3c-2.9-0.3-5.8-0.6-8.7-0.9c-0.9-0.1-1.7,0-2.5,0.5
				c-0.6,0.5-1.2,1.3-1.3,2.1c-0.1,0.9,0,1.8,0.5,2.5c0.5,0.6,1.2,1.2,2.1,1.3c2.9,0.3,5.8,0.6,8.7,0.9c0.9,0.1,1.7,0,2.5-0.5
				c0.6-0.5,1.2-1.3,1.3-2.1C1292.2,344.1,1292,343.1,1291.5,342.4z"/>
			<path class="st6" d="M1277.4,359.5c0-0.8-0.6-1.7-1.2-2.2c-0.6-0.5-1.6-0.9-2.4-0.8c-0.8,0.1-1.7,0.5-2.2,1.2
				c-0.5,0.7-0.8,1.5-0.8,2.4l0.2,7.3c0,0.8,0.6,1.7,1.2,2.2c0.6,0.5,1.6,0.9,2.4,0.8c0.8-0.1,1.7-0.5,2.2-1.2
				c0.5-0.7,0.8-1.5,0.8-2.4L1277.4,359.5z"/>
			<path class="st6" d="M1256.7,347.6c-0.3-0.7-0.9-1.5-1.7-1.8c-1.5-0.6-3.7-0.2-4.4,1.6l-4,10.7c-0.3,0.8-0.4,1.7-0.1,2.5
				c0.3,0.7,0.9,1.5,1.7,1.8c1.5,0.6,3.7,0.2,4.4-1.6l4-10.7C1256.9,349.3,1257,348.5,1256.7,347.6z"/>
			<path class="st6" d="M1262.4,383.4c-1.8-2.9-3.6-5.8-5.4-8.7c-0.9-1.5-3.2-1.8-4.6-0.8c-1.5,1.1-1.7,3-0.8,4.6
				c1.8,2.9,3.6,5.8,5.4,8.7c0.9,1.5,3.2,1.8,4.6,0.8C1263.1,386.8,1263.4,384.9,1262.4,383.4z"/>
			<path class="st6" d="M1286.3,383.8c-0.7-1.7-2.5-2.5-4.2-1.9c-3,0.9-6,1.8-9,2.7c-1.6,0.5-2.6,2.6-1.9,4.2
				c0.7,1.7,2.5,2.5,4.2,1.9c3-0.9,6-1.8,9-2.7C1286,387.5,1286.9,385.4,1286.3,383.8z"/>
			<path class="st6" d="M1298.8,373.6c-1.4-1.7-2.7-3.4-4.1-5.1c-0.5-0.7-1.2-1.2-2.1-1.3c-0.8-0.1-1.8,0-2.5,0.5
				c-0.7,0.5-1.2,1.2-1.3,2.1c-0.1,0.8,0,1.8,0.5,2.5c1.4,1.7,2.7,3.4,4.1,5.1c0.5,0.7,1.2,1.2,2.1,1.3c0.8,0.1,1.8,0,2.5-0.5
				c0.7-0.5,1.2-1.2,1.3-2.1C1299.5,375.3,1299.4,374.3,1298.8,373.6z"/>
			<path class="st6" d="M1297.7,393.3c-0.5-0.6-1.3-1.2-2.1-1.3c-0.9-0.1-1.8,0-2.5,0.5c-0.2,0.2-0.4,0.4-0.6,0.6
				c-0.4,0.4-0.6,0.9-0.7,1.5c-0.8,2.8-1.6,5.5-2.4,8.3c-0.2,0.8,0.1,1.9,0.5,2.5c0.5,0.6,1.3,1.2,2.1,1.3c0.9,0.1,1.8,0,2.5-0.5
				c0.2-0.2,0.4-0.4,0.6-0.6c0.4-0.4,0.6-0.9,0.7-1.5c0.8-2.8,1.6-5.5,2.4-8.3C1298.5,395,1298.2,393.9,1297.7,393.3z"/>
			<path class="st6" d="M1279.5,412.6c-0.4-2.6-0.8-5.2-1.2-7.8c-0.1-0.9-0.5-1.6-1.2-2.2c-0.6-0.5-1.6-0.9-2.4-0.8
				c-0.8,0.1-1.7,0.5-2.2,1.2c-0.5,0.7-0.9,1.5-0.8,2.4c0.4,2.6,0.8,5.2,1.2,7.8c0.1,0.9,0.5,1.6,1.2,2.2c0.6,0.5,1.6,0.9,2.4,0.8
				c0.8-0.1,1.7-0.5,2.2-1.2C1279.2,414.4,1279.6,413.5,1279.5,412.6z"/>
			<path class="st6" d="M1263.5,415.6c-0.6-2.5-1.1-5-1.7-7.5c0-0.5-0.2-0.9-0.4-1.2c-0.2-0.4-0.4-0.7-0.8-1
				c-0.6-0.5-1.6-0.9-2.4-0.8c-0.8,0.1-1.7,0.5-2.2,1.2c-0.5,0.6-0.9,1.6-0.8,2.4c0.6,2.5,1.1,5,1.7,7.5c0,0.5,0.2,0.9,0.4,1.2
				c0.2,0.4,0.4,0.7,0.8,1c0.6,0.5,1.6,0.9,2.4,0.8c0.8-0.1,1.7-0.5,2.2-1.2C1263.2,417.4,1263.7,416.4,1263.5,415.6z"/>
			<path class="st6" d="M1299.4,423.9c-0.2-1.7-1.7-3.2-3.5-3l-9.2,1.2c-1.7,0.2-3.2,1.7-3,3.5c0.2,1.7,1.7,3.2,3.5,3l9.2-1.2
				C1298.1,427.2,1299.6,425.7,1299.4,423.9z"/>
			<path class="st6" d="M1313.5,413.4c-0.5-2.8-1.1-5.5-1.6-8.3c-0.2-0.9-0.4-1.6-1.2-2.2c-0.6-0.5-1.6-0.9-2.4-0.8
				c-0.8,0.1-1.7,0.5-2.2,1.2c-0.5,0.6-0.9,1.6-0.8,2.4c0.5,2.8,1.1,5.5,1.6,8.3c0.2,0.9,0.4,1.6,1.2,2.2c0.6,0.5,1.6,0.9,2.4,0.8
				c0.8-0.1,1.7-0.5,2.2-1.2C1313.3,415.1,1313.7,414.2,1313.5,413.4z"/>
			<path class="st6" d="M1336,405.1c-3.6-0.7-7.1-1.3-10.7-2c-1.7-0.3-3.6,0.9-3.8,2.6c-0.2,1.8,0.8,3.5,2.6,3.8
				c3.6,0.7,7.1,1.3,10.7,2c1.7,0.3,3.6-0.9,3.8-2.6C1338.9,407.1,1337.8,405.4,1336,405.1z"/>
			<path class="st6" d="M1326.3,418.6c-0.3-0.7-0.9-1.5-1.7-1.8c-1.6-0.7-3.7-0.1-4.4,1.6c-1.2,3.1-2.5,6.1-3.7,9.2
				c-0.3,0.8-0.4,1.7-0.1,2.5c0.3,0.7,0.9,1.5,1.7,1.8c1.6,0.7,3.7,0.1,4.4-1.6c1.2-3.1,2.5-6.1,3.7-9.2
				C1326.5,420.4,1326.6,419.5,1326.3,418.6z"/>
			<path class="st6" d="M1337.2,438.6c-0.2-1.7-1.7-3.2-3.5-3c-3.5,0.4-6.9,0.8-10.4,1.1c-1.7,0.2-3.2,1.8-3,3.5
				c0.2,1.7,1.7,3.2,3.5,3l10.4-1.1C1335.9,442,1337.4,440.4,1337.2,438.6z"/>
			<path class="st6" d="M1354.2,425.8c-0.1-0.8-0.5-1.7-1.2-2.2c-0.7-0.5-1.5-0.9-2.4-0.8c-2.3,0.3-4.7,0.7-7,1
				c-0.9,0.1-1.7,0.5-2.2,1.2c-0.5,0.6-0.9,1.6-0.8,2.4c0.1,0.8,0.5,1.7,1.2,2.2c0.7,0.5,1.5,0.9,2.4,0.8c2.3-0.3,4.7-0.7,7-1
				c0.9-0.1,1.7-0.5,2.2-1.2C1353.9,427.5,1354.3,426.6,1354.2,425.8z"/>
			<path class="st6" d="M1363.7,412.8c-2.7-1.4-5.3-2.8-8-4.2c-1.5-0.8-3.7,0-4.4,1.6c-0.7,1.7-0.1,3.5,1.6,4.4
				c2.7,1.4,5.3,2.8,8,4.2c1.5,0.8,3.7,0,4.4-1.6C1366,415.5,1365.4,413.7,1363.7,412.8z"/>
			<path class="st6" d="M1301.9,449.6c-1.5-2.3-3.1-4.7-4.6-7c-0.4-0.7-1.3-1.2-2.1-1.3c-0.8-0.1-1.8,0-2.5,0.5
				c-1.4,1.1-1.8,3-0.8,4.6c1.5,2.3,3.1,4.7,4.6,7c0.4,0.7,1.3,1.2,2.1,1.3c0.8,0.1,1.8,0,2.5-0.5
				C1302.5,453.1,1302.9,451.2,1301.9,449.6z"/>
			<path class="st6" d="M1315.2,452.2c-0.5-0.7-1.2-1.2-2.1-1.3c-0.9-0.1-1.8,0-2.5,0.5c-1.9,1.5-3.7,2.9-5.6,4.4
				c-0.7,0.5-1.2,1.2-1.3,2.1c-0.1,0.8,0,1.8,0.5,2.5c0.5,0.7,1.2,1.2,2.1,1.3c0.9,0.1,1.8,0,2.5-0.5c1.9-1.5,3.7-2.9,5.6-4.4
				c0.7-0.5,1.2-1.2,1.3-2.1C1315.9,453.9,1315.7,452.9,1315.2,452.2z"/>
			<path class="st6" d="M1369.9,383.2c-1.1-1.5-3-1.8-4.6-0.8l-9.6,6.2c-1.4,0.9-1.8,3.2-0.8,4.6c1.1,1.5,3,1.8,4.6,0.8
				c3.2-2.1,6.4-4.1,9.6-6.2C1370.5,386.8,1370.9,384.5,1369.9,383.2z"/>
			<path class="st6" d="M1384.8,379.1c-0.6-0.5-1.6-0.9-2.4-0.8c-0.8,0.1-1.7,0.5-2.2,1.2c-0.6,0.7-0.8,1.5-0.8,2.4v10.2
				c0,0.8,0.6,1.7,1.2,2.2c0.6,0.5,1.6,0.9,2.4,0.8c0.8-0.1,1.7-0.5,2.2-1.2c0.6-0.7,0.8-1.5,0.8-2.4v-10.2
				C1385.9,380.6,1385.4,379.6,1384.8,379.1z"/>
			<path class="st6" d="M1390.3,399.8c-3.1-0.4-6.1-0.9-9.2-1.3c-0.9-0.1-1.8,0-2.5,0.5c-0.6,0.5-1.2,1.3-1.3,2.1
				c-0.2,1.7,0.8,3.6,2.6,3.8c3.1,0.4,6.1,0.9,9.2,1.3c0.9,0.1,1.8,0,2.5-0.5c0.6-0.5,1.2-1.3,1.3-2.1
				C1393.2,401.9,1392.1,400,1390.3,399.8z"/>
			<path class="st6" d="M1410.7,394.2c-0.7-0.5-1.5-0.9-2.4-0.8c-0.8,0.1-1.7,0.5-2.2,1.2c-1.9,2.7-3.8,5.4-5.7,8.1
				c-0.5,0.7-0.8,1.5-0.8,2.4c0.1,0.8,0.5,1.7,1.2,2.2c0.7,0.5,1.5,0.9,2.4,0.8c0.8-0.1,1.7-0.5,2.2-1.2c1.9-2.7,3.8-5.4,5.7-8.1
				c0.5-0.7,0.8-1.5,0.8-2.4C1411.8,395.6,1411.4,394.7,1410.7,394.2z"/>
			<path class="st6" d="M1407,387.4c-0.1-0.8-0.5-1.7-1.2-2.2c-0.7-0.5-1.5-0.9-2.4-0.8c-2.4,0.3-4.9,0.6-7.3,1
				c-0.9,0.1-1.7,0.5-2.2,1.2c-0.5,0.6-0.9,1.6-0.8,2.4c0.1,0.8,0.5,1.7,1.2,2.2c0.7,0.5,1.5,0.9,2.4,0.8c2.4-0.3,4.9-0.6,7.3-1
				c0.9-0.1,1.7-0.5,2.2-1.2C1406.8,389.2,1407.2,388.2,1407,387.4z"/>
			<path class="st6" d="M1413.9,367.9c-0.3-0.7-0.9-1.5-1.7-1.8c-0.8-0.3-1.7-0.5-2.5-0.1c-0.8,0.3-1.5,0.9-1.8,1.7
				c-0.7,1.7-1.5,3.4-2.2,5.1c-0.3,0.8-0.4,1.7-0.1,2.5c0.3,0.7,0.9,1.5,1.7,1.8c0.8,0.3,1.7,0.5,2.5,0.1c0.8-0.3,1.5-0.9,1.8-1.7
				c0.7-1.7,1.5-3.4,2.2-5.1C1414.1,369.6,1414.2,368.7,1413.9,367.9z"/>
			<path class="st6" d="M1397.5,370.5c-0.6-3.3-1.1-6.6-1.7-9.9c-0.1-0.9-0.5-1.6-1.2-2.2c-0.6-0.5-1.6-0.9-2.4-0.8
				c-1.6,0.2-3.3,1.7-3,3.5c0.6,3.3,1.1,6.6,1.7,9.9c0.1,0.9,0.5,1.6,1.2,2.2c0.6,0.5,1.6,0.9,2.4,0.8
				C1396.1,373.8,1397.8,372.3,1397.5,370.5z"/>
			<path class="st6" d="M1379.9,366.5c-0.2-1.7-1.7-3.2-3.5-3c-4,0.5-7.9,1.1-11.9,1.6c-1.7,0.2-3.2,1.7-3,3.5
				c0.2,1.7,1.7,3.2,3.5,3c4-0.5,7.9-1.1,11.9-1.6C1378.6,369.8,1380.1,368.3,1379.9,366.5z"/>
			<path class="st6" d="M1350.9,364.7c-0.5-0.6-1.3-1.2-2.1-1.3c-1.7-0.2-3.6,0.8-3.8,2.6c-0.4,3.1-0.8,6.1-1.2,9.2
				c-0.1,0.9,0,1.8,0.5,2.5c0.5,0.6,1.3,1.2,2.1,1.3c1.7,0.2,3.6-0.8,3.8-2.6c0.4-3.1,0.8-6.1,1.2-9.2
				C1351.5,366.4,1351.4,365.5,1350.9,364.7z"/>
			<path class="st6" d="M1335.7,383.9c-1-2.6-2-5.2-3.1-7.8c-0.3-0.8-0.9-1.5-1.7-1.8c-0.7-0.3-1.8-0.4-2.5-0.1
				c-1.6,0.7-2.6,2.5-1.9,4.2c1,2.6,2,5.2,3.1,7.8c0.3,0.8,0.9,1.5,1.7,1.8c0.7,0.3,1.8,0.4,2.5,0.1
				C1335.4,387.5,1336.4,385.6,1335.7,383.9z"/>
			<path class="st6" d="M1333.5,362.3c-0.1-0.8-0.5-1.7-1.2-2.2c-0.6-0.5-1.6-0.9-2.4-0.8c-3.7,0.8-7.4,1.6-11.2,2.4
				c-0.9,0.2-1.6,0.4-2.2,1.2c-0.5,0.6-0.9,1.6-0.8,2.4c0.1,0.8,0.5,1.7,1.2,2.2c0.6,0.5,1.6,0.9,2.4,0.8c3.7-0.8,7.4-1.6,11.2-2.4
				c0.9-0.2,1.6-0.4,2.2-1.2C1333.3,364.1,1333.6,363.1,1333.5,362.3z"/>
			<path class="st6" d="M1332.6,337.3c-0.5-0.6-1.3-1.2-2.1-1.3c-0.9-0.1-1.8,0-2.5,0.5c-0.7,0.5-1.1,1.2-1.3,2.1
				c-0.7,2.8-1.5,5.7-2.2,8.5c-0.2,0.8,0.1,1.8,0.5,2.5c0.5,0.6,1.3,1.2,2.1,1.3c0.9,0.1,1.8,0,2.5-0.5c0.7-0.5,1.1-1.2,1.3-2.1
				c0.7-2.8,1.5-5.7,2.2-8.5C1333.3,339,1333,337.9,1332.6,337.3z"/>
			<path class="st6" d="M1348.1,323.6c-2.9-0.7-5.8-1.5-8.7-2.2c-0.8-0.2-1.8,0.1-2.5,0.5c-0.6,0.5-1.2,1.3-1.3,2.1
				c-0.3,1.9,0.8,3.4,2.6,3.8c2.9,0.7,5.8,1.5,8.7,2.2c0.8,0.2,1.8-0.1,2.5-0.5c0.6-0.5,1.2-1.3,1.3-2.1
				C1351,325.6,1349.9,324.1,1348.1,323.6z"/>
			<path class="st6" d="M1349.6,340.7c-0.3-0.7-0.9-1.5-1.7-1.8c-0.8-0.3-1.7-0.5-2.5-0.1c-0.7,0.3-1.6,0.9-1.8,1.7l-2.4,7.3
				c-0.2,0.4-0.3,0.8-0.3,1.2c-0.1,0.4,0,0.9,0.2,1.3c0.3,0.7,0.9,1.5,1.7,1.8c0.8,0.3,1.7,0.5,2.5,0.1c0.7-0.3,1.6-0.9,1.8-1.7
				l2.4-7.3c0.2-0.4,0.3-0.8,0.3-1.2C1349.8,341.6,1349.8,341.1,1349.6,340.7z"/>
			<path class="st6" d="M1367.7,348.4c-0.5-0.6-1.3-1.3-2.1-1.3l-8-0.5c-0.4-0.1-0.9-0.1-1.3,0.1c-0.4,0.1-0.8,0.2-1.2,0.5
				c-0.6,0.5-1.2,1.3-1.3,2.1c-0.1,0.9,0,1.8,0.5,2.5c0.5,0.6,1.3,1.3,2.1,1.3l8,0.5c0.4,0.1,0.9,0.1,1.3-0.1
				c0.4-0.1,0.8-0.2,1.2-0.5c0.6-0.5,1.2-1.3,1.3-2.1C1368.3,350,1368.2,349.1,1367.7,348.4z"/>
			<path class="st6" d="M1371.7,327.5c-1.1-1.4-3.1-1.9-4.6-0.8c-2.7,2-5.5,4.1-8.2,6.1c-0.7,0.5-1.2,1.3-1.3,2.1
				c-0.1,0.8,0,1.8,0.5,2.5c1.1,1.4,3.1,1.9,4.6,0.8c2.7-2,5.5-4.1,8.2-6.1c0.7-0.5,1.2-1.3,1.3-2.1
				C1372.4,329.2,1372.2,328.2,1371.7,327.5z"/>
			<path class="st6" d="M1374.4,302.1c-1.8-0.2-3.4,0.8-3.8,2.6c-0.7,3.1-1.4,6.1-2,9.2c-0.4,1.7,0.9,3.6,2.6,3.8
				c1.8,0.2,3.4-0.8,3.8-2.6c0.7-3.1,1.4-6.1,2-9.2C1377.4,304.2,1376.2,302.3,1374.4,302.1z"/>
			<path class="st6" d="M1386.2,293.7c-0.1-0.8-0.5-1.7-1.2-2.2c-0.2-0.2-0.5-0.3-0.7-0.5c-0.5-0.2-1.1-0.3-1.7-0.3
				c-1.9-0.1-3.8-0.5-5.7-1c-0.6-0.2-1.1-0.4-1.7-0.6c-1.6-0.7-3.7-0.1-4.4,1.6c-0.7,1.6-0.1,3.6,1.6,4.4c3.4,1.5,7,2.2,10.7,2.3
				c0.8,0,1.7-0.6,2.2-1.2C1385.9,295.5,1386.3,294.6,1386.2,293.7z"/>
			<path class="st6" d="M1396.9,301.2c-0.3-0.7-0.9-1.5-1.7-1.8c-0.8-0.3-1.7-0.5-2.5-0.1c-0.7,0.3-1.6,0.9-1.8,1.7l-2.2,6.5
				c-0.2,0.4-0.3,0.8-0.3,1.2c-0.1,0.4,0,0.9,0.2,1.3c0.3,0.7,0.9,1.5,1.7,1.8c0.8,0.3,1.7,0.5,2.5,0.1c0.7-0.3,1.6-0.9,1.8-1.7
				l2.2-6.5c0.2-0.4,0.3-0.8,0.3-1.2C1397.1,302,1397,301.6,1396.9,301.2z"/>
			<path class="st6" d="M1391.9,322.6c-1.9-2.4-3.9-4.9-5.8-7.3c-0.5-0.7-1.2-1.2-2.1-1.3c-0.8-0.1-1.8,0-2.5,0.5
				c-0.7,0.5-1.2,1.2-1.3,2.1c-0.1,0.8,0,1.8,0.5,2.5c1.9,2.4,3.9,4.9,5.8,7.3c0.5,0.7,1.2,1.2,2.1,1.3c0.8,0.1,1.8,0,2.5-0.5
				c0.7-0.5,1.2-1.2,1.3-2.1C1392.5,324.2,1392.4,323.2,1391.9,322.6z"/>
			<path class="st6" d="M1383.6,333.6c-0.5-0.6-1.3-1.2-2.1-1.3c-0.9-0.1-1.8,0-2.5,0.5c-0.7,0.5-1.1,1.2-1.3,2.1
				c-0.7,2.7-1.4,5.3-2.2,8c-0.2,0.8,0.1,1.8,0.5,2.5c0.5,0.6,1.3,1.2,2.1,1.3c0.9,0.1,1.8,0,2.5-0.5c0.7-0.5,1.1-1.2,1.3-2.1
				c0.7-2.7,1.4-5.3,2.2-8C1384.3,335.3,1384,334.3,1383.6,333.6z"/>
			<path class="st6" d="M1400.5,338.3c-1.1-2-2.1-4-3.2-6.1c-0.1-0.4-0.4-0.8-0.7-1.1c-0.3-0.3-0.6-0.6-1-0.8
				c-0.7-0.3-1.8-0.4-2.5-0.1c-0.8,0.3-1.5,0.9-1.8,1.7c-0.3,0.8-0.5,1.8-0.1,2.5c1.1,2,2.1,4,3.2,6.1c0.1,0.4,0.4,0.8,0.7,1.1
				c0.3,0.3,0.6,0.6,1,0.8c0.7,0.3,1.8,0.4,2.5,0.1c0.8-0.3,1.5-0.9,1.8-1.7C1400.8,340.1,1400.9,339.1,1400.5,338.3z"/>
			<path class="st6" d="M1399.5,350.3c-0.2-1.7-1.7-3.2-3.5-3c-3.1,0.4-6.2,0.8-9.2,1.1c-1.7,0.2-3.2,1.7-3,3.5
				c0.2,1.7,1.7,3.2,3.5,3c3.1-0.4,6.2-0.8,9.2-1.1C1398.2,353.6,1399.8,352,1399.5,350.3z"/>
			<path class="st6" d="M1431.4,346.6c-1.8-0.2-3.4,0.8-3.8,2.6c-0.6,2.9-1.3,5.8-1.9,8.7c-0.4,1.7,0.9,3.6,2.6,3.8
				c1.8,0.2,3.4-0.8,3.8-2.6c0.6-2.9,1.3-5.8,1.9-8.7C1434.4,348.8,1433.1,346.9,1431.4,346.6z"/>
			<path class="st6" d="M1441.7,374.2c-0.5-2.4-1.1-4.7-1.6-7.1c-0.2-0.7-1-1.5-1.7-1.8c-0.7-0.3-1.8-0.4-2.5-0.1
				c-0.8,0.3-1.5,0.9-1.8,1.7l-0.3,0.8c-0.1,0.6-0.1,1.2,0.2,1.7c0.5,2.4,1.1,4.7,1.6,7.1c0.2,0.7,1,1.5,1.7,1.8
				c0.7,0.3,1.8,0.4,2.5,0.1c0.8-0.3,1.5-0.9,1.8-1.7l0.3-0.8C1442,375.3,1441.9,374.8,1441.7,374.2z"/>
			<path class="st6" d="M1457.9,372.2c-1.1-2.1-2.2-4.2-3.3-6.3c-0.1-0.4-0.4-0.8-0.7-1.1c-0.3-0.3-0.6-0.6-1-0.8
				c-0.7-0.3-1.8-0.4-2.5-0.1c-0.8,0.3-1.5,0.9-1.8,1.7c-0.3,0.8-0.5,1.8-0.1,2.5c1.1,2.1,2.2,4.2,3.3,6.3c0.1,0.4,0.4,0.8,0.7,1.1
				c0.3,0.3,0.6,0.6,1,0.8c0.7,0.3,1.8,0.4,2.5,0.1c0.8-0.3,1.5-0.9,1.8-1.7C1458.1,374,1458.3,372.9,1457.9,372.2z"/>
			<path class="st6" d="M1458,351.1c-0.1-0.8-0.5-1.7-1.2-2.2c-0.7-0.5-1.5-0.8-2.4-0.8l-5.6,0.3c-0.8,0-1.7,0.5-2.2,1.2
				c-0.5,0.6-0.9,1.6-0.8,2.4c0.1,0.8,0.5,1.7,1.2,2.2c0.7,0.5,1.5,0.8,2.4,0.8c1.9-0.1,3.7-0.2,5.6-0.3c0.8,0,1.7-0.5,2.2-1.2
				C1457.7,352.8,1458.1,351.9,1458,351.1z"/>
			<path class="st6" d="M1455.9,330.1c-0.3-0.7-0.9-1.5-1.7-1.8c-0.8-0.3-1.7-0.5-2.5-0.1c-0.8,0.3-1.5,0.9-1.8,1.7
				c-0.9,2-1.8,4-2.7,6.1c-0.3,0.8-0.4,1.7-0.1,2.5c0.3,0.7,0.9,1.5,1.7,1.8c0.8,0.3,1.7,0.5,2.5,0.1c0.8-0.3,1.5-0.9,1.8-1.7
				c0.9-2,1.8-4,2.7-6.1C1456.1,331.8,1456.2,330.9,1455.9,330.1z"/>
			<path class="st6" d="M1444.7,310c-0.1-1.7-1.9-3.2-3.5-3c-1.8,0.2-3,1.7-3,3.5c0.1,2.7,0.2,5.3,0.3,8c0.1,1.7,1.9,3.2,3.5,3
				c1.8-0.2,3-1.7,3-3.5C1444.9,315.4,1444.8,312.7,1444.7,310z"/>
			<path class="st6" d="M1430.9,299.2c-0.9-2.9-1.8-5.8-2.7-8.7c-0.5-1.6-2.6-2.6-4.2-1.9c-1.7,0.7-2.5,2.5-1.9,4.2
				c0.9,2.9,1.8,5.8,2.7,8.7c0.5,1.6,2.6,2.6,4.2,1.9C1430.7,302.7,1431.5,301,1430.9,299.2z"/>
			<path class="st6" d="M1417.4,302.7c-0.5-0.7-1.2-1.2-2.1-1.3c-1.9-0.3-3.9-0.7-5.8-1c-0.8-0.1-1.8,0.1-2.5,0.5
				c-0.6,0.5-1.2,1.3-1.3,2.1c-0.1,0.9,0,1.8,0.5,2.5c0.5,0.7,1.2,1.2,2.1,1.3c1.9,0.3,3.9,0.7,5.8,1c0.8,0.1,1.8-0.1,2.5-0.5
				c0.6-0.5,1.2-1.3,1.3-2.1C1418,304.3,1417.9,303.4,1417.4,302.7z"/>
			<path class="st6" d="M1430.5,314.5c-0.7-0.5-1.5-0.9-2.4-0.8c-0.8,0.1-1.7,0.4-2.2,1.2c-1.5,2.2-3,4.5-4.5,6.7
				c-0.3,0.3-0.5,0.7-0.6,1.1c-0.2,0.4-0.2,0.8-0.2,1.3c0.1,0.8,0.5,1.7,1.2,2.2c0.7,0.5,1.5,0.9,2.4,0.8c0.8-0.1,1.7-0.4,2.2-1.2
				c1.5-2.2,3-4.5,4.5-6.7c0.3-0.3,0.5-0.7,0.6-1.1c0.2-0.4,0.2-0.8,0.2-1.3C1431.6,315.9,1431.1,314.9,1430.5,314.5z"/>
			<path class="st6" d="M1427.6,336.6c-0.5-0.6-1.2-1.2-2.1-1.3c-2.6-0.3-5.2-0.6-7.8-0.9c-0.9-0.1-1.7,0-2.5,0.5
				c-0.6,0.5-1.2,1.3-1.3,2.1c-0.1,0.9,0,1.8,0.5,2.5c0.5,0.6,1.2,1.2,2.1,1.3c2.6,0.3,5.2,0.6,7.8,0.9c0.9,0.1,1.7,0,2.5-0.5
				c0.6-0.5,1.2-1.3,1.3-2.1C1428.2,338.2,1428.1,337.3,1427.6,336.6z"/>
			<path class="st6" d="M1442.7,338.2c-0.5-3-1-6-1.5-9c-0.1-0.9-0.5-1.6-1.2-2.2c-0.6-0.5-1.6-0.9-2.4-0.8
				c-0.8,0.1-1.7,0.5-2.2,1.2c-0.5,0.7-0.9,1.5-0.8,2.4c0.5,3,1,6,1.5,9c0.1,0.9,0.5,1.6,1.2,2.2c0.6,0.5,1.6,0.9,2.4,0.8
				c0.8-0.1,1.7-0.5,2.2-1.2C1442.5,339.9,1442.9,339,1442.7,338.2z"/>
			<path class="st5" d="M1466.3,362.3c-0.2-0.8-1.5-0.4-1.2,0.5c1.7,5.7,0.6,12.1-2.8,16.9c-0.5,0.7,0.5,1.5,1,0.8
				C1466.9,375.3,1468,368.5,1466.3,362.3z"/>
			<path class="st5" d="M1459,382.2c-2.5,2.5-6.3,3.6-9.8,3c-0.8-0.2-1.1,1.1-0.2,1.3c4,0.7,8.2-0.6,11-3.4
				C1460.6,382.4,1459.6,381.6,1459,382.2z"/>
			<path class="st5" d="M1461.7,378.4c-0.1-0.3-0.5-0.5-0.8-0.4c-1.9,0.9-3.9,1.8-5.8,2.7c-0.3,0.2-0.5,0.5-0.4,0.8
				c0.1,0.3,0.5,0.5,0.8,0.4c1.9-0.9,3.9-1.8,5.8-2.7C1461.6,379.1,1461.8,378.7,1461.7,378.4z"/>
			<path class="st5" d="M1370.1,280.8c-2,1.4-4.1,2.9-6.1,4.3c-0.7,0.5,0.1,1.6,0.8,1.1c2-1.4,4.1-2.9,6.1-4.3
				C1371.5,281.4,1370.8,280.3,1370.1,280.8z"/>
			<path class="st5" d="M1371.7,285.2c-0.1-0.3-0.5-0.6-0.8-0.4c-1.7,0.9-3.4,1.8-5.1,2.7c-0.3,0.2-0.5,0.5-0.4,0.8
				c0.1,0.3,0.5,0.6,0.8,0.4c1.7-0.9,3.4-1.8,5.1-2.7C1371.6,285.9,1371.8,285.6,1371.7,285.2z"/>
			<path class="st5" d="M1342.9,319.4c-12-4.4-23-11-32.5-19.6c-2.7-2.5-5.3-5.1-7.7-7.8c-0.6-0.6-1.6,0.1-1.1,0.8
				c8.6,9.7,19,17.7,30.6,23.4c3.3,1.6,6.7,3.1,10.1,4.3C1343.1,320.9,1343.7,319.7,1342.9,319.4z"/>
			<path class="st5" d="M1356.4,319.9c-2.3,0.1-4.7,0.2-7,0.3c-0.8,0-0.7,1.3,0.1,1.3c2.3-0.1,4.7-0.2,7-0.3
				C1357.4,321.2,1357.3,319.9,1356.4,319.9z"/>
			<path class="st5" d="M1370.8,424.9c-0.2-0.3-0.6-0.4-0.9-0.2c-2.6,2.3-5.2,4.5-7.8,6.8c-0.3,0.2-0.4,0.6-0.2,0.9
				c0.2,0.3,0.6,0.4,0.9,0.2c2.6-2.3,5.2-4.5,7.8-6.8C1370.9,425.6,1371,425.2,1370.8,424.9z"/>
			<path class="st5" d="M1380.9,416.8c-1.7,1.1-3.4,2.2-5.1,3.3c-0.7,0.5,0.1,1.5,0.8,1.1c1.7-1.1,3.4-2.2,5.1-3.3
				C1382.4,417.4,1381.6,416.4,1380.9,416.8z"/>
			<path class="st5" d="M1374,417.5c-2.3,1.5-4.7,3.1-7,4.6c-0.7,0.5,0.1,1.5,0.8,1.1c2.3-1.5,4.7-3.1,7-4.6
				C1375.5,418.1,1374.8,417,1374,417.5z"/>
		</g>
		<g>
			<path class="st16" d="M1488.2,623.6l35.3,1.1h8.7l-2.9,17.5l-1.1-0.1l-51.3-5.3c0.2-3.2,0.3-7.8,0.5-13.5L1488.2,623.6z"/>
			<path class="st12" d="M1501.5,720.7c4.5,11.6,3,26.2,3,26.2l-46.6-1.5l-23.5-24.8l-15.6-16.5l-1.2-37.2v0l52.3,2.1l0,3.1l3.7,7.4
				l13.5,27.3C1494.6,708.6,1499,714.2,1501.5,720.7z"/>
			<path class="st12" d="M1562.6,720.7l-22.7-0.7l-23.9-0.7l-39-41.2l-0.3-8.6l0.9,0l-1-27.3c0,0,0.1-1.9,0.3-5.5l51.3,5.3l-0.1,0.9
				l0,3.1l15.4,31l1.8,3.7C1566.1,685.3,1562.6,720.7,1562.6,720.7z"/>
			<path class="st5" d="M1484.1,510.8c3.7,38.9,4.1,91.3,4.1,112.8l-10.9-0.3c0.7-24.8,0.6-70.1-6-112.4H1484.1z"/>
			<path class="st5" d="M1484.1,510.8h-12.8c-5.8-37.5-16.9-72.6-37.2-88.7c0,0,36.6,16,45.8,59.3
				C1481.7,489.3,1483.1,499.5,1484.1,510.8z"/>
			<polygon class="st16" points="1476.7,642.3 1477.6,669.4 1470,669.1 1417.6,667 1410.4,666.7 1404.4,651.4 1417.1,649.8 			"/>
			<path class="st2" d="M1523.5,624.7l-35.3-1.1c0-21.5-0.4-73.8-4.1-112.8c-1.1-11.3-2.4-21.5-4.1-29.5
				c-9.1-42.6-44.7-58.7-45.8-59.2c20.3,16.1,31.3,51.2,37.1,88.7c6.6,42.3,6.6,87.6,6,112.4c-0.1,5.6-0.3,10.2-0.5,13.5
				c-0.2,3.5-0.3,5.5-0.3,5.5l-0.8,0.1l-58.7,7.5l-19.3-139v0l-20.9-23.6l-26.3,12.2l-40.8-32.2c1.9-2.4,16-19.7,36.8-27.4
				c5.4-2,11.2-3.4,17.4-3.6c0,0,17.9-24.2,51.2-22.8c7.1,1.2,13.4,4.2,19,8.7c0,0,6.1-2.1,15.1-3.3c10.2-1.4,24.1-1.7,36.7,3.3
				c8.9,3.5,17.7,22.8,24.8,49.1c3.2,12,6.1,25.5,8.4,39.6C1525.6,549.2,1528.1,592.5,1523.5,624.7z"/>
			<path class="st5" d="M1502.2,699.2c-1.9-5.4-9-4.8-13.5-4.4c-2.9,0.3-5.7,0.7-8.6,1.4c1.2-0.9,2.3-1.8,3.4-2.8
				c2.9-2.7,7.6-6.9,5.6-11.4c-1.8-4-6.9-3.1-10.1-2c-2.5,0.8-4.8,1.9-7.1,3.1c1.2-1.9,2.2-3.8,3-5.9c1.3-3.1,1.5-7.5-2.7-8.2
				c-3.5-0.7-7.3,1.9-9.9,4.1c-3.1,2.6-5.6,5.8-7.3,9.5c-0.7,1.5,1.7,2.7,2.4,1.1c1.3-2.8,3-5.3,5.2-7.4c2-2,4.9-4.3,7.8-4.7
				c4.6-0.7,2,4.7,1,6.8c-1.6,3.2-3.6,6.2-5.8,8.9c-0.9,1.1,0.6,2.9,1.8,1.9c3.1-2.5,6.5-4.5,10.1-6c2.1-0.8,8.3-3.5,9.3,0
				c0.6,2-1,3.8-2.2,5.2c-1.3,1.4-2.7,2.8-4.1,4c-3,2.6-6.3,4.8-9.8,6.6c-1.5,0.7-0.7,3.1,0.9,2.5c4.6-1.8,9.4-3.1,14.3-3.8
				c2.4-0.3,4.8-0.6,7.2-0.6c2.2,0,5.2,0.2,6.4,2.4c2.6,4.7-6.8,7.7-9.7,8.7c-4.6,1.5-9.4,2.2-14.3,2.1c-1.7,0-1.4,2.6,0.2,2.6
				c6.1,0.1,12.2-1,17.8-3.3C1497.6,708,1504.1,704.7,1502.2,699.2z"/>
			<path class="st5" d="M1556.7,670.3c-2.1-4.2-8.6-3.3-12.4-2.9c-1.8,0.2-3.6,0.6-5.4,1c1.2-1.1,2.3-2.3,3.3-3.5
				c2.2-2.7,5.2-7.7,1.3-10.4c-3.4-2.3-8.6,0.3-11.8,1.8c-0.6,0.3-1.2,0.6-1.7,0.9c0.2-0.2,0.3-0.4,0.5-0.7
				c2.3-3.5,4.7-7.7,5.4-11.8c0.3-1.5,0.2-3.2-1.1-4.2c-1.6-1.3-3.5-0.5-5,0.4c-3.5,2.2-6.6,5.2-9.1,8.6c-2.8,3.9-4.8,8.3-5.8,13.1
				c-0.3,1.7,2.2,2.1,2.6,0.5c0.9-4.3,2.6-8.3,5.2-11.9c1.2-1.7,2.6-3.3,4.1-4.7c0.8-0.8,1.7-1.5,2.6-2.2c0.8-0.6,1.9-1.6,2.9-1.8
				c2.4-0.5,0.2,4.2-0.1,5.1c-0.8,2-1.8,4-2.9,5.9c-2.4,4-5.5,7.7-9.2,10.7l0,0c-0.1,0.1-0.2,0.1-0.3,0.2c-1.1,1,0.6,2.9,1.8,1.9
				c0.3-0.3,0.6-0.5,0.9-0.8c2.6-2.3,5.4-4.4,8.4-6c1.7-0.9,3.4-1.7,5.2-2.3c1.5-0.6,3.4-1.3,5.1-0.9c4.4,1-1.3,7.3-2.6,8.7
				c-2.6,2.8-5.7,5.1-9,7.1c-1.5,0.8,0.1,2.9,1.5,2.1c3.5-1.9,7.4-3.3,11.4-4c1.9-0.3,3.8-0.5,5.8-0.6c1.8,0,4.5-0.2,5.8,1.3
				c2.7,3.1-5.3,5.8-7.1,6.5c-3.9,1.4-7.9,2.1-12,2.2c-1.7,0.1-1.5,2.7,0.2,2.6c5.2-0.2,10.3-1.3,15.1-3.3
				C1553.6,677.6,1559,674.7,1556.7,670.3z"/>
			<path class="st9" d="M1422.6,677.1c-1.4-0.9-3.1,1.1-1.7,2c9.1,6.2,12.6,18,8.2,28.2c-0.7,1.5,1.7,2.7,2.4,1.1
				C1436.3,697.3,1432.7,684.1,1422.6,677.1z"/>
			<path class="st9" d="M1503.2,743.9c-4.1-6.3-11.5-9.6-18.8-9.9c-8.7-0.3-16.9,3.5-23.9,8.2c-1.4,0.9,0.1,3.1,1.5,2.1
				c6.4-4.3,13.8-7.8,21.7-7.8c6.8,0,13.6,3,17.4,8.8C1502,746.9,1504.1,745.4,1503.2,743.9z"/>
			<path class="st9" d="M1557.5,716.6c-5.2-5.9-12.5-9.5-20.4-9.8c-8.1-0.3-15.9,3.2-21.4,9.1c-1.2,1.2,0.9,2.9,2,1.7
				c4.9-5.2,11.9-8.3,19.1-8.2c7,0.1,13.9,3.4,18.5,8.7C1556.5,719.4,1558.7,717.9,1557.5,716.6z"/>
			<path class="st9" d="M1479.2,654.6c-1.4-1-3,1-1.7,2c6.7,5,10.9,12.9,11,21.2c0,1.7,2.6,1.4,2.6-0.2
				C1490.9,668.7,1486.4,660,1479.2,654.6z"/>
			<path class="st5" d="M1363.8,436.8c-4.8,8.8-7.1,18.7-6.6,28.7c0.1,1.7,2.7,1.5,2.6-0.2c-0.4-9.5,1.8-19,6.4-27.3
				C1367,436.4,1364.6,435.3,1363.8,436.8z"/>
			<path class="st16" d="M1418.1,568.5c-0.9-13-2-25.9-3.4-38.9c-1.2-11.1-1.9-23-7.6-32.8c-5.2-8.9-16.4-15.6-26.8-11.7
				c-1.6,0.6-0.7,3,0.9,2.5c9.2-3.4,18.9,2.8,23.6,10.5c5.7,9.5,6.2,21.3,7.3,32.1c2.6,24.8,4.2,49.7,5.6,74.5
				c0.7,14,1.4,27.9,2,41.9c0.1,1.7,2.7,1.5,2.6-0.2C1421.2,620.4,1420,594.5,1418.1,568.5z"/>
			<path class="st5" d="M1465.6,509.6c-0.1-0.8-1.4-0.7-1.3,0.1c1.1,11.6,2.2,23.1,3.3,34.7c0.1,0.8,1.4,0.7,1.3-0.1
				C1467.8,532.7,1466.7,521.2,1465.6,509.6z"/>
			<path class="st5" d="M1469,553.3c0-0.8-1.3-0.7-1.3,0.1c0.1,9.7,0.3,19.4,0.4,29.1c0,0.8,1.3,0.7,1.3-0.1
				C1469.3,572.7,1469.1,563,1469,553.3z"/>
			<path class="st5" d="M1461.7,543.1c-0.1-0.8-1.4-0.7-1.3,0.1c0.5,4,0.9,7.9,1.4,11.9c0.1,0.8,1.4,0.7,1.3-0.1L1461.7,543.1z"/>
			<path class="st5" d="M1517.8,539c0-0.8-1.3-0.7-1.3,0.1c0.1,5.3,0.1,10.7,0.2,16c0,0.8,1.3,0.7,1.3-0.1
				C1517.9,549.7,1517.9,544.3,1517.8,539z"/>
			<path class="st5" d="M1516.9,564.8c-0.2,8.3-0.3,16.7-0.5,25c0,0.8,1.3,0.7,1.3-0.1c0.2-8.3,0.3-16.7,0.5-25
				C1518.2,563.9,1516.9,564,1516.9,564.8z"/>
			<path class="st5" d="M1512.7,554.3c0-0.8-1.3-0.7-1.3,0.1c0.1,4.4,0.3,8.9,0.4,13.3c0,0.8,1.3,0.7,1.3-0.1
				C1513,563.2,1512.9,558.7,1512.7,554.3z"/>
			<path class="st5" d="M1352.4,464.6c-1.7-5.3-2.5-10.8-2.3-16.3c0-0.8-1.3-0.7-1.3,0.1c-0.2,5.7,0.6,11.3,2.4,16.7
				C1351.5,465.9,1352.7,465.4,1352.4,464.6z"/>
			<path class="st5" d="M1349.4,465.1c-2.4-2.3-4.1-5.3-5.1-8.5c-0.3-0.8-1.5-0.3-1.2,0.5c1.1,3.4,3,6.5,5.5,9
				C1349.2,466.7,1350,465.6,1349.4,465.1z"/>
			<path class="st5" d="M1483.9,430.9c-4-1.8-7.9-3.7-11.9-5.5c-0.8-0.4-1.3,0.8-0.6,1.2c4,1.8,7.9,3.7,11.9,5.5
				C1484.1,432.4,1484.7,431.2,1483.9,430.9z"/>
			<path class="st5" d="M1492,439.1c-1.5-1.5-3.1-3.1-4.6-4.6c-0.2-0.3-0.7-0.2-0.9,0.1c-0.2,0.3-0.2,0.7,0.1,0.9
				c1.5,1.5,3.1,3.1,4.6,4.6c0.2,0.3,0.7,0.2,0.9-0.1C1492.4,439.7,1492.3,439.3,1492,439.1z"/>
			<path class="st5" d="M1485.7,439.6c-2.1-1.6-4.2-3.3-6.3-4.9c-0.7-0.5-1.5,0.5-0.8,1c2.1,1.6,4.2,3.3,6.3,4.9
				C1485.5,441.1,1486.4,440.1,1485.7,439.6z"/>
			<path class="st5" d="M1457,738.7c-9.3-10.1-18.6-20.1-27.9-30.2l-8-8.6c-0.6-0.6-1.4,0.4-0.8,1c9.3,10.1,18.6,20.1,27.9,30.2
				l8,8.6C1456.7,740.3,1457.6,739.3,1457,738.7z"/>
			<path class="st5" d="M1457.6,734.3c-2.8-2.9-5.6-5.7-8.4-8.6c-0.2-0.3-0.7-0.2-0.9,0.1c-0.2,0.3-0.2,0.7,0.1,0.9
				c2.8,2.9,5.6,5.7,8.4,8.6c0.2,0.3,0.7,0.2,0.9-0.1C1457.9,734.9,1457.8,734.5,1457.6,734.3z"/>
			<path class="st5" d="M1513.4,708.8c-7.7-8.3-15.5-16.6-23.2-24.8c-0.6-0.6-1.4,0.4-0.8,1c7.7,8.3,15.5,16.6,23.2,24.8
				C1513.1,710.4,1513.9,709.4,1513.4,708.8z"/>
			<path class="st5" d="M1517.1,707.8c-2-2.3-3.9-4.5-5.9-6.8c-0.2-0.3-0.6-0.4-0.9-0.2c-0.3,0.2-0.4,0.6-0.2,0.9
				c2,2.3,3.9,4.5,5.9,6.8c0.2,0.3,0.6,0.4,0.9,0.2C1517.2,708.5,1517.3,708,1517.1,707.8z"/>
			<path class="st5" d="M1481.2,639.6c-0.1-0.8-1.4-0.7-1.3,0.1c0.4,3.4,0.7,6.8,1.1,10.2c0.1,0.8,1.4,0.7,1.3-0.1
				C1481.9,646.4,1481.6,643,1481.2,639.6z"/>
			<path class="st5" d="M1486.1,639.9c-0.1-0.8-1.4-0.7-1.3,0.1c0.4,2.8,0.9,5.7,1.3,8.5c0.1,0.8,1.4,0.7,1.3-0.1
				C1487,645.5,1486.5,642.7,1486.1,639.9z"/>
			<path class="st5" d="M1421.7,667.8c-0.1-0.8-1.4-0.7-1.3,0.1c0.2,1.9,0.3,3.9,0.5,5.8c0.1,0.8,1.4,0.7,1.3-0.1
				C1422,671.7,1421.8,669.7,1421.7,667.8z"/>
			<path class="st5" d="M1426.5,669c-0.1-0.3-0.3-0.6-0.7-0.6c-0.3,0-0.6,0.4-0.6,0.7c0.3,2,0.6,4,1,6.1c0.1,0.3,0.3,0.6,0.7,0.6
				c0.3,0,0.6-0.4,0.6-0.7C1427.1,673,1426.8,671,1426.5,669z"/>
		</g>
		<g>
			<path class="st12" d="M1301.7,280.8c0,0-22.1-8.2-30.7-3c-8.6,5.2-10.8,17.3-24.7,19.4s-18.3,22.6-17.2,46.6s-4.7,65.2-4.7,65.2
				s48.8-0.5,79.7-18.5c0,0-2.8-53.1-8.6-74.7c-5.8-21.6,6.1-29.7,6.1-29.7L1301.7,280.8z"/>
			<path class="st4" d="M1227.7,405.7c-0.6,3.6-1.3,7.3-1.9,10.9c-0.3,1.7,2.3,2.1,2.6,0.5c0.6-3.6,1.3-7.3,1.9-10.9
				C1230.6,404.5,1228,404,1227.7,405.7z"/>
			<path class="st4" d="M1237.5,404.9c-0.2-0.7-1.1-1-1.7-0.8c-0.7,0.3-0.9,1-0.8,1.7c0.8,3.3,0.6,6.8-0.6,9.9
				c-0.2,0.7-0.1,1.4,0.6,1.7c0.6,0.3,1.5,0,1.7-0.6C1238.3,413,1238.5,408.9,1237.5,404.9z"/>
			<path class="st4" d="M1247.5,403c-0.2-0.7-1.1-1-1.7-0.8c-0.7,0.3-1,1-0.8,1.7c0.9,3.2,0.9,6.7-0.2,9.9c-0.2,0.7-0.1,1.4,0.6,1.7
				c0.6,0.3,1.5,0.1,1.7-0.6C1248.5,411,1248.6,406.9,1247.5,403z"/>
			<path class="st4" d="M1256.2,402.2c-0.6-1.6-3.1-0.7-2.5,0.9c1.3,3.3,1.5,6.8,0.5,10.3c-0.2,0.7,0.4,1.4,1.1,1.5
				c0.8,0.1,1.3-0.4,1.5-1.1C1257.9,410.1,1257.7,405.9,1256.2,402.2z"/>
			<path class="st4" d="M1265.5,400.7c-0.3-0.6-1-1-1.7-0.8c-0.6,0.2-1.1,1.1-0.8,1.7c1.6,3,2.2,6.5,1.6,9.8
				c-0.3,1.7,2.3,2.1,2.6,0.5C1267.9,408.1,1267.3,404.2,1265.5,400.7z"/>
			<path class="st4" d="M1274.4,399c-0.2-0.7-1.1-1-1.7-0.8c-0.7,0.3-1,1-0.8,1.7c0.9,3.3,1.1,6.9,0.6,10.3
				c-0.3,1.7,2.3,2.1,2.6,0.5C1275.7,406.8,1275.5,402.8,1274.4,399z"/>
			<path class="st4" d="M1282.2,395.4c-0.5-0.5-1.4-0.3-1.8,0.2c-0.5,0.6-0.3,1.3,0.2,1.8c2.1,2.2,2.8,5.7,1.8,8.7
				c-0.2,0.7,0.4,1.4,1.1,1.5c0.8,0.1,1.3-0.4,1.5-1.1C1286.1,402.7,1284.9,398.3,1282.2,395.4z"/>
			<path class="st4" d="M1292.5,404.3c-0.7-3.4-1.4-6.8-2.1-10.3c-0.1-0.7-0.7-1.3-1.4-1.2c-0.6,0.1-1.3,0.7-1.2,1.4
				c0.7,3.4,1.4,6.8,2.1,10.3c0.1,0.7,0.7,1.3,1.4,1.2C1291.9,405.7,1292.6,405,1292.5,404.3z"/>
			<path class="st4" d="M1299.9,390.9c-0.1-0.7-0.7-1.3-1.4-1.2c-0.7,0.1-1.3,0.7-1.2,1.4c0.5,3.2,0.9,6.5,1.4,9.7
				c0.1,0.7,0.7,1.3,1.4,1.2c0.7-0.1,1.3-0.7,1.2-1.4C1300.8,397.4,1300.4,394.2,1299.9,390.9z"/>
			<path class="st17" d="M1301.8,376.8c-24.9,5.9-49.9,11.9-74.8,17.8c-2.4,0.6-1.1,4.3,1.4,3.7c24.9-5.9,49.9-11.9,74.8-17.8
				C1305.6,379.9,1304.2,376.3,1301.8,376.8z"/>
			<path class="st17" d="M1301.8,365.6c-24.6,2.7-49.2,5.3-73.8,8c-2.5,0.3-2.2,4.2,0.3,3.9c24.6-2.7,49.2-5.3,73.8-8
				C1304.6,369.2,1304.3,365.3,1301.8,365.6z"/>
			<path class="st17" d="M1300.1,346.5c-23.4,3.4-46.8,6.7-70.1,10.1c-2.5,0.4-2.2,4.3,0.3,3.9c23.4-3.4,46.8-6.7,70.1-10.1
				C1303,350.1,1302.6,346.2,1300.1,346.5z"/>
			<path class="st17" d="M1295.9,330c-21.8,2.1-43.6,4.3-65.4,6.4c-2.5,0.2-2.2,4.2,0.3,3.9c21.8-2.1,43.6-4.3,65.4-6.4
				C1298.8,333.6,1298.4,329.7,1295.9,330z"/>
			<path class="st17" d="M1293.3,307.9l-61.4,10.8c-2.5,0.4-2.1,4.4,0.3,3.9c20.5-3.6,40.9-7.2,61.4-10.8
				C1296.1,311.3,1295.7,307.4,1293.3,307.9z"/>
			<path class="st17" d="M1287.9,298.2c-16.2,0.4-32.3,0.7-48.5,1.1c-2.5,0.1-2.2,4,0.3,3.9c16.2-0.4,32.3-0.7,48.5-1.1
				C1290.8,302,1290.4,298.1,1287.9,298.2z"/>
			<path class="st17" d="M1297.5,288l-26.2-9c-1-0.3-2.1-0.1-2.6,0.9c-0.4,0.9-0.1,2.3,0.9,2.6l26.2,9c1,0.3,2.1,0.1,2.6-0.9
				C1298.9,289.7,1298.5,288.3,1297.5,288z"/>
			<path d="M1237.7,304.9c-1.3,3.4-2.6,6.8-4,10.2c-0.3,0.8,0.9,1.3,1.2,0.6c1.3-3.4,2.6-6.8,4-10.2
				C1239.2,304.7,1238,304.1,1237.7,304.9z"/>
			<path d="M1239.5,310c-0.3-0.1-0.8,0-0.9,0.3c-0.5,1.6-1.1,3.2-1.6,4.9c-0.1,0.3,0,0.7,0.3,0.9c0.3,0.1,0.8,0,0.9-0.3
				c0.5-1.6,1.1-3.2,1.6-4.9C1239.9,310.5,1239.9,310.1,1239.5,310z"/>
			<path d="M1294.4,325.4c-0.6-2.4-1.3-4.9-1.9-7.3c-0.1-0.3-0.5-0.5-0.8-0.4c-0.4,0.1-0.5,0.5-0.4,0.8c0.6,2.4,1.3,4.9,1.9,7.3
				c0.1,0.3,0.5,0.5,0.8,0.4C1294.3,326.1,1294.5,325.7,1294.4,325.4z"/>
			<path d="M1290,322.9c-0.1-0.3-0.3-0.6-0.7-0.6c-0.3,0-0.7,0.4-0.6,0.7c0.3,1.6,0.6,3.2,1,4.9c0.1,0.3,0.3,0.6,0.7,0.6
				c0.3,0,0.7-0.4,0.6-0.7C1290.6,326.1,1290.3,324.5,1290,322.9z"/>
			<path d="M1233.3,344.2c0-0.8-1.3-0.7-1.3,0.1c0.1,3.3,0.1,6.6,0.2,9.9c0,0.8,1.3,0.7,1.3-0.1
				C1233.4,350.9,1233.4,347.6,1233.3,344.2z"/>
			<path d="M1236.1,347.1c0-0.4-0.4-0.6-0.7-0.6c-0.4,0-0.6,0.4-0.6,0.7c0.1,1.9,0.2,3.9,0.2,5.8c0,0.4,0.4,0.6,0.7,0.6
				c0.4,0,0.6-0.4,0.6-0.7C1236.3,351,1236.2,349.1,1236.1,347.1z"/>
			<path d="M1295.1,372.6c0-0.3-0.4-0.6-0.7-0.6c-0.4,0-0.6,0.3-0.6,0.7c0.1,1.1,0.2,2.1,0.2,3.2c0,0.3,0.4,0.6,0.7,0.6
				c0.4,0,0.6-0.3,0.6-0.7C1295.3,374.7,1295.2,373.7,1295.1,372.6z"/>
			<path d="M1298.9,374.9l-0.7-2.7c-0.1-0.3-0.5-0.5-0.8-0.4c-0.4,0.1-0.5,0.5-0.4,0.8l0.7,2.7c0.1,0.3,0.5,0.5,0.8,0.4
				C1298.9,375.5,1299,375.2,1298.9,374.9z"/>
			<path d="M1292.5,386.7c0-0.4-0.3-0.6-0.7-0.6c-0.3,0-0.6,0.4-0.6,0.7c0.2,1.8,0.5,3.6,0.7,5.3c0,0.4,0.3,0.6,0.7,0.6
				c0.3,0,0.6-0.4,0.6-0.7C1292.9,390.2,1292.7,388.4,1292.5,386.7z"/>
			<path d="M1296.3,385.2c-0.1-0.3-0.3-0.6-0.7-0.6c-0.3,0-0.7,0.4-0.6,0.7c0.3,1.5,0.6,2.9,1,4.4c0.1,0.3,0.3,0.6,0.7,0.6
				c0.3,0,0.7-0.4,0.6-0.7L1296.3,385.2z"/>
			<path d="M1300.6,384.5c0-0.3-0.4-0.6-0.7-0.6c-0.3,0-0.6,0.3-0.6,0.7c0.1,0.8,0.2,1.6,0.2,2.4c0,0.3,0.4,0.6,0.7,0.6
				c0.3,0,0.6-0.3,0.6-0.7C1300.7,386.1,1300.7,385.3,1300.6,384.5z"/>
			<path d="M1276.1,294.1c-2.8-3.2-5.6-6.4-8.4-9.5c-0.6-0.6-1.6,0.1-1.1,0.8c2.6,2.9,5.2,5.8,7.7,8.7c-3.9,0.8-8,0.6-11.9-0.3
				c-0.8-0.2-1.1,1.1-0.2,1.3c4.5,1.1,9.1,1,13.6,0C1276.2,295,1276.4,294.4,1276.1,294.1z"/>
		</g>
	</g>
</g>
</svg>
