<?xml version="1.0" encoding="utf-8"?>
<!-- Generator: Adobe Illustrator 25.4.1, SVG Export Plug-In . SVG Version: 6.00 Build 0)  -->
<svg version="1.1" id="Capa_1" xmlns="http://www.w3.org/2000/svg" xmlns:xlink="http://www.w3.org/1999/xlink" x="0px" y="0px"
	 viewBox="0 0 1920 1080" style="enable-background:new 0 0 1920 1080;" xml:space="preserve">
<style type="text/css">
	.st0{fill-rule:evenodd;clip-rule:evenodd;fill:#DEB0D2;}
	.st1{fill:#DFEB6A;}
	.st2{fill:#ACD8CE;}
	.st3{fill:#3C246F;}
	.st4{fill:#FBFBFB;}
	.st5{opacity:0.28;fill:#D04467;}
	.st6{fill:#F2A2A5;}
	.st7{opacity:0.28;fill:#F2A2A5;}
	.st8{fill:#FBC1C9;}
	.st9{fill:#EEEFF0;}
	.st10{fill:#DA7C80;}
	.st11{opacity:0.58;fill:#F2A2A5;}
	.st12{opacity:0.37;}
	.st13{opacity:0.17;fill:#F2A2A5;}
	.st14{opacity:0.11;fill:#F2A2A5;}
	.st15{opacity:0.39;fill:#F2A2A5;}
	.st16{fill:#86CFC7;}
	.st17{fill:#ABE2DD;}
	.st18{opacity:0.43;fill:#ABE2DD;}
	.st19{opacity:0.24;fill:#ABE2DD;}
	.st20{opacity:0.22;}
	.st21{opacity:0.32;}
	.st22{opacity:0.8;fill:#ABE2DD;}
	.st23{fill:#99D9CF;}
	.st24{opacity:0.21;fill:#ABE2DD;}
	.st25{opacity:0.45;}
	.st26{opacity:0.31;fill:#FBC1C9;}
	.st27{opacity:0.28;}
	.st28{fill:#FFEEED;}
	.st29{opacity:0.31;}
	.st30{fill:#FFE1E6;}
	.st31{opacity:0.28;fill:#FBC1C9;}
	.st32{opacity:0.24;fill:#FBC1C9;}
	.st33{fill:#D22855;}
	.st34{opacity:0.17;fill:#D22855;}
	.st35{opacity:0.19;}
</style>
<path class="st0" d="M1921.9,1.8H-2.4v884.9h2v72c0,0,442-141,1464,0c0,0,336,31,456,17v-89h2.2V1.8z"/>
<path class="st1" d="M1816.4,175.7c0,9.2-6.6,13.7-11.9,17.4c-5.2,3.6-8.1,5.8-8.1,10.1c0,4.4,2.9,6.6,8.1,10.1
	c5.3,3.6,11.9,8.2,11.9,17.4c0,9.2-6.6,13.7-11.9,17.4c-5.2,3.6-8.1,5.8-8.1,10.1c0,2.4-2,4.4-4.4,4.4c-2.4,0-4.4-2-4.4-4.4
	c0-9.2,6.6-13.7,11.9-17.4c5.2-3.6,8.1-5.8,8.1-10.1c0-4.4-2.9-6.6-8.1-10.1c-5.3-3.6-11.9-8.2-11.9-17.4c0-9.2,6.6-13.7,11.9-17.4
	c5.2-3.6,8.1-5.8,8.1-10.1c0-4.4-2.9-6.6-8.1-10.1c-5.3-3.6-11.9-8.2-11.9-17.4c0-2.4,2-4.4,4.4-4.4c2.4,0,4.4,2,4.4,4.4
	c0,4.4,2.9,6.6,8.1,10.1C1809.8,162,1816.4,166.5,1816.4,175.7"/>
<path class="st1" d="M-1.8,822.6c68.8,0,124.5-55.7,124.5-124.5c0-68.8-55.7-124.5-124.5-124.5V822.6z"/>
<path class="st1" d="M871.2,269.2c-17.8,0-32.3-14.5-32.3-32.3c0-17.8,14.5-32.3,32.3-32.3s32.3,14.5,32.3,32.3
	C903.5,254.7,889,269.2,871.2,269.2z M871.2,216.8c-11.1,0-20.1,9-20.1,20.1c0,11.1,9,20.1,20.1,20.1c11.1,0,20.1-9,20.1-20.1
	C891.3,225.8,882.3,216.8,871.2,216.8z"/>
<path class="st2" d="M456.6,111c103.6,16.9,173.8,114.6,156.9,218.2c-8.2,50.3-80.4,25.5-118.1,53.9c-40,30.1-46.8,111.7-100.1,103
	c-103.6-16.9-173.8-114.6-156.9-218.2c8-49,66.3-40.7,102.5-69.1C381.3,167.2,402,102.1,456.6,111z"/>
<g>
	<path class="st3" d="M275.1,358.7c-2.2,1.8-3.4,4.3-3.4,7.3c0,3,1.4,5.5,4.1,7.3c2.7,1.8,9.1,3.9,19,6.4c9.9,2.4,17.6,6.1,23.1,11
		c5.5,4.9,8.2,12,8.2,21.4c0,9.4-3.5,17-10.6,22.8c-7,5.8-16.3,8.8-27.8,8.8c-16.6,0-31.5-6.1-44.7-18.4l13.9-17.1
		c11.3,9.9,21.7,14.8,31.3,14.8c4.3,0,7.7-0.9,10.1-2.8c2.4-1.8,3.7-4.3,3.7-7.5c0-3.1-1.3-5.6-3.9-7.5c-2.6-1.8-7.7-3.7-15.4-5.6
		c-12.2-2.9-21.1-6.7-26.7-11.3c-5.6-4.6-8.5-11.9-8.5-21.8c0-9.9,3.6-17.6,10.7-23c7.1-5.4,16-8.1,26.7-8.1c7,0,14,1.2,21,3.6
		c7,2.4,13.1,5.8,18.3,10.2l-11.8,17.1c-9.1-6.9-18.5-10.3-28.1-10.3C280.4,355.9,277.3,356.8,275.1,358.7z"/>
	<path class="st3" d="M412.2,442.4h-21.1v-9.7c-5.8,7.3-12.9,10.9-21.5,10.9c-8.5,0-15.7-2.5-21.5-7.4c-5.8-4.9-8.7-11.5-8.7-19.8
		s3-14.4,9-18.5c6-4.1,14.2-6.1,24.5-6.1h16.8v-0.4c0-8.6-4.5-12.9-13.6-12.9c-3.9,0-8,0.8-12.3,2.3c-4.3,1.5-8,3.5-11,5.8l-10-14.5
		c10.6-7.7,22.6-11.5,36.2-11.5c9.8,0,17.8,2.4,23.9,7.3c6.2,4.9,9.3,12.6,9.3,23.2V442.4z M389.6,411.7v-3.9h-14.1
		c-9,0-13.5,2.8-13.5,8.4c0,2.9,1.1,5.1,3.2,6.7c2.1,1.5,5.2,2.3,9.2,2.3c4,0,7.5-1.2,10.6-3.7C388.1,419.1,389.6,415.8,389.6,411.7
		z"/>
	<path class="st3" d="M455.2,442.4h-22.4v-111h22.4V442.4z"/>
	<path class="st3" d="M528.4,405.3v-43.4H551v80.5h-22.6v-10.6c-5.6,7.9-12.8,11.8-21.6,11.8c-8.8,0-16.2-2.8-22.2-8.3
		c-6-5.5-9-13.7-9-24.6v-48.8h22.6v43.8c0,12.4,4.5,18.6,13.6,18.6c4.5,0,8.4-1.6,11.7-4.9C526.7,416.2,528.4,411.5,528.4,405.3z"/>
	<path class="st3" d="M604.5,443.6c-9.5,0-18-4-25.5-12.1s-11.2-18.1-11.2-30.1c0-12,3.6-21.8,10.9-29.4
		c7.3-7.6,15.8-11.4,25.6-11.4c9.8,0,17.8,3.4,23.9,10.3v-39.5h22.4v111h-22.4v-10.6C621.9,439.6,614,443.6,604.5,443.6z
		 M590.3,402.3c0,6.5,1.9,11.8,5.8,15.9c3.9,4.1,8.4,6.2,13.6,6.2c5.2,0,9.6-2.1,13.2-6.2c3.6-4.1,5.5-9.5,5.5-16
		c0-6.5-1.8-12-5.5-16.3c-3.6-4.3-8.1-6.5-13.4-6.5c-5.3,0-9.8,2.2-13.6,6.6C592.2,390.4,590.3,395.8,590.3,402.3z"/>
	<path class="st3" d="M275.1,494.4c-2.2,1.8-3.4,4.3-3.4,7.3c0,3,1.4,5.5,4.1,7.3c2.7,1.8,9.1,3.9,19,6.4c9.9,2.4,17.6,6.1,23.1,11
		c5.5,4.9,8.2,12,8.2,21.4c0,9.4-3.5,17-10.6,22.8c-7,5.8-16.3,8.8-27.8,8.8c-16.6,0-31.5-6.1-44.7-18.4l13.9-17.1
		c11.3,9.9,21.7,14.8,31.3,14.8c4.3,0,7.7-0.9,10.1-2.8c2.4-1.8,3.7-4.3,3.7-7.5c0-3.1-1.3-5.6-3.9-7.5c-2.6-1.8-7.7-3.7-15.4-5.6
		c-12.2-2.9-21.1-6.7-26.7-11.3c-5.6-4.6-8.5-11.9-8.5-21.8c0-9.9,3.6-17.6,10.7-23c7.1-5.4,16-8.1,26.7-8.1c7,0,14,1.2,21,3.6
		c7,2.4,13.1,5.8,18.3,10.2l-11.8,17.1c-9.1-6.9-18.5-10.3-28.1-10.3C280.4,491.6,277.3,492.5,275.1,494.4z"/>
	<path class="st3" d="M413.6,566.4c-9.1,8.6-19.7,12.9-32,12.9c-12.2,0-22.3-3.8-30.3-11.3c-8-7.5-12-17.6-12-30.3
		c0-12.7,4.1-22.7,12.2-30.2c8.1-7.5,17.7-11.2,28.8-11.2s20.5,3.3,28.2,10c7.7,6.7,11.6,15.9,11.6,27.5v12h-58.7
		c0.7,4.4,3,8,6.9,10.8c3.9,2.8,8.3,4.2,13.2,4.2c7.9,0,14.4-2.6,19.5-7.9L413.6,566.4z M392,518.7c-3.1-2.6-6.9-3.9-11.3-3.9
		c-4.4,0-8.5,1.3-12.2,4c-3.7,2.7-5.8,6.3-6.4,10.9h35.3C396.9,525,395.1,521.3,392,518.7z"/>
	<path class="st3" d="M453.7,497.6l13.8,21.5l14.2-21.5H508L480.3,537l28.7,41.2h-26.8L466.6,556l-15.3,22.1h-25.9l28.1-41
		l-26.6-39.5H453.7z"/>
	<path class="st3" d="M573.6,541v-43.4h22.6v80.5h-22.6v-10.6c-5.6,7.9-12.8,11.8-21.6,11.8c-8.8,0-16.2-2.8-22.2-8.3
		c-6-5.5-9-13.7-9-24.6v-48.8h22.6v43.8c0,12.4,4.5,18.6,13.6,18.6c4.5,0,8.4-1.6,11.7-4.9C571.9,551.9,573.6,547.2,573.6,541z"/>
	<path class="st3" d="M685.8,578.1h-21.1v-9.7c-5.8,7.3-12.9,10.9-21.5,10.9c-8.5,0-15.7-2.5-21.5-7.4c-5.8-4.9-8.7-11.5-8.7-19.8
		s3-14.4,9-18.5c6-4.1,14.2-6.1,24.5-6.1h16.8v-0.4c0-8.6-4.5-12.9-13.6-12.9c-3.9,0-8,0.8-12.3,2.3c-4.3,1.5-8,3.5-11,5.8l-10-14.5
		c10.6-7.7,22.6-11.5,36.2-11.5c9.8,0,17.8,2.4,23.9,7.3c6.2,4.9,9.3,12.6,9.3,23.2V578.1z M663.2,547.4v-3.9h-14.1
		c-9,0-13.5,2.8-13.5,8.4c0,2.9,1.1,5.1,3.2,6.7c2.1,1.5,5.2,2.3,9.2,2.3c4,0,7.5-1.2,10.6-3.7C661.7,554.8,663.2,551.5,663.2,547.4
		z"/>
	<path class="st3" d="M728.8,578.1h-22.4v-111h22.4V578.1z"/>
</g>
<g>
	<path class="st4" d="M1583.8,256.1c16.6-11.7,20.6-34.7,9-51.3c-11.7-16.6-34.7-20.6-51.3-9c-15.2,10.7-19.8,30.7-11.6,46.8
		l-8.9,6.3l-5.8-8.2c-1.6-2.3-4.9-2.9-7.2-1.3c-2.3,1.6-2.9,4.9-1.3,7.2l5.8,8.2l-8,5.6c-2.3,1.6-2.9,4.9-1.3,7.2
		c1.6,2.3,4.9,2.9,7.2,1.3l8-5.6l5.8,8.2c1.6,2.3,4.9,2.9,7.2,1.3c2.3-1.6,2.9-4.9,1.3-7.2l-5.8-8.2l8.9-6.3
		C1548.1,264.3,1568.6,266.7,1583.8,256.1z M1547.4,204.3c11.9-8.4,28.4-5.5,36.8,6.4c8.4,11.9,5.5,28.4-6.4,36.8
		s-28.4,5.5-36.8-6.4C1532.6,229.2,1535.5,212.7,1547.4,204.3z"/>
	<path class="st4" d="M1356.4,134.3c-0.3-4.3-1.2-4.9-30.4-12.7c-1.3-0.4-2.7-0.2-3.9,0.5c-1.2,0.7-2.1,1.8-2.4,3.2
		c-0.4,1.3-0.2,2.7,0.5,3.9c0.7,1.2,1.8,2.1,3.2,2.4c4.7,1.3,9.4,2.5,13.4,3.7l-23.5,8.9c-3.9-5.5-9.2-10-15.8-12.8
		c-18.7-7.8-40.4,1-48.2,19.7c-7.8,18.7,1,40.4,19.7,48.2c18.7,7.8,40.4-1,48.2-19.7c3.6-8.6,3.6-17.9,0.8-26.1l22.3-8.4
		c-1.7,3.3-3.7,7.1-5.7,10.8c-1.4,2.5-0.4,5.7,2.1,7c0.2,0.1,0.3,0.2,0.5,0.2c2.5,1,5.3,0,6.6-2.3
		C1356.6,136.7,1356.5,136,1356.4,134.3z M1272.9,189.7c-13.4-5.6-19.8-21.2-14.2-34.6c5.6-13.4,21.2-19.8,34.6-14.2
		c13.4,5.6,19.8,21.2,14.2,34.6C1301.9,189,1286.4,195.3,1272.9,189.7z"/>
</g>
<g>
	<g>
		<path class="st5" d="M1674,732.9c0,10.5-9.7,24.3-176.9,24.3c-21.5,0-40.4-0.1-57-0.4c-25.8,2.6-68.6,4.1-139.7,4.1
			c-18,0-34.2-0.1-48.7-0.3c-16.8,5.4-61,3.6-169,3.6c-163.5,0-178.3-8.5-178.3-19c0-10.5,79.8-19.1,178.3-19.1
			c21.4,0,41.9,0.4,60.8,1.1c30.5-5.8,88.7-9.8,155.5-9.8c26,0,50.7,0.6,72.9,1.7c32.1-3.3,75.7-5.4,123.8-5.4
			C1594.2,713.8,1674,722.4,1674,732.9z"/>
		<g>
			<g>
				<g>
					<path class="st6" d="M1172.5,284.6v451.3c0,4.2-3.4,7.6-7.6,7.6H942c-4.2,0-7.6-3.4-7.6-7.6V284.6c0-4.2,3.4-7.6,7.6-7.6h222.9
						C1169.1,277.1,1172.5,280.5,1172.5,284.6z"/>
					<g>
						<g>
							<path class="st7" d="M1046,679.9L1046,679.9c-3.2,0-5.9-2.6-5.9-5.9V344c0-3.2,2.6-5.9,5.9-5.9l0,0c3.2,0,5.9,2.6,5.9,5.9
								v330.1C1051.9,677.3,1049.3,679.9,1046,679.9z"/>
							<path class="st8" d="M1049.2,679.9L1049.2,679.9c-3.2,0-5.9-2.6-5.9-5.9V344c0-3.2,2.6-5.9,5.9-5.9l0,0
								c3.2,0,5.9,2.6,5.9,5.9v330.1C1055.1,677.3,1052.4,679.9,1049.2,679.9z"/>
							<g>
								<g>
									<g>
										<circle class="st7" cx="1047.6" cy="705.5" r="16.9"/>
										<path class="st9" d="M1067.6,703.6c0,6.2-3.3,11.6-8.3,14.5c-2.5,1.5-5.4,2.4-8.6,2.4c-9.3,0-16.9-7.6-16.9-16.9
											c0-7.8,5.2-14.3,12.3-16.3c1.4-0.4,3-0.6,4.5-0.6C1060.1,686.7,1067.6,694.2,1067.6,703.6z"/>
									</g>
									<g>
										<path class="st10" d="M1091.6,703.4c0,1.8-0.9,3.5-2.3,4.5c-0.9,0.7-2,1.1-3.3,1.1c-3,0-5.5-2.5-5.5-5.5
											c0-1.9,1-3.6,2.5-4.6c0.9-0.6,1.9-0.9,3.1-0.9C1089.1,697.9,1091.6,700.4,1091.6,703.4z"/>
										<path class="st11" d="M1089.3,707.9c-0.9,0.7-2,1.1-3.3,1.1c-3,0-5.5-2.5-5.5-5.5c0-1.9,1-3.6,2.5-4.6
											C1082.5,702.4,1083.1,707.4,1089.3,707.9z"/>
									</g>
								</g>
								<g>
									<g>
										<path class="st10" d="M1018.8,703.4c0,1.8-0.9,3.5-2.3,4.5c-0.9,0.7-2,1.1-3.3,1.1c-3,0-5.5-2.5-5.5-5.5
											c0-1.9,1-3.6,2.5-4.6c0.9-0.6,1.9-0.9,3.1-0.9C1016.3,697.9,1018.8,700.4,1018.8,703.4z"/>
										<path class="st11" d="M1016.5,707.9c-0.9,0.7-2,1.1-3.3,1.1c-3,0-5.5-2.5-5.5-5.5c0-1.9,1-3.6,2.5-4.6
											C1009.7,702.4,1010.2,707.4,1016.5,707.9z"/>
									</g>
									<g>
										<circle class="st7" cx="977.3" cy="705.6" r="16.9"/>
										<path class="st9" d="M997.3,703.7c0,5.9-3.1,11.1-7.7,14.1c-2.6,1.7-5.8,2.7-9.2,2.7c-9.3,0-16.9-7.6-16.9-16.9
											c0-6.8,4-12.7,9.8-15.3c2.1-1,4.5-1.6,7-1.6C989.7,686.8,997.3,694.4,997.3,703.7z"/>
									</g>
								</g>
								<g>
									<g>
										<circle class="st7" cx="977.3" cy="379" r="16.9"/>
										<path class="st9" d="M997.3,377.1c0,5.5-2.6,10.4-6.7,13.4c-2.8,2.1-6.3,3.4-10.2,3.4c-9.3,0-16.9-7.6-16.9-16.9
											c0-7.2,4.5-13.4,10.9-15.8c1.8-0.7,3.9-1.1,6-1.1C989.7,360.2,997.3,367.8,997.3,377.1z"/>
									</g>
									<g>
										<path class="st10" d="M984.4,345.4c0,1.8-0.9,3.5-2.3,4.5c-0.9,0.7-2,1.1-3.3,1.1c-3,0-5.5-2.5-5.5-5.5
											c0-1.9,1-3.6,2.5-4.6c0.9-0.6,1.9-0.9,3.1-0.9C981.9,339.8,984.4,342.3,984.4,345.4z"/>
										<path class="st11" d="M982.1,349.8c-0.9,0.7-2,1.1-3.3,1.1c-3,0-5.5-2.5-5.5-5.5c0-1.9,1-3.6,2.5-4.6
											C975.3,344.3,975.9,349.3,982.1,349.8z"/>
									</g>
									<g>
										<circle class="st7" cx="977.3" cy="444.3" r="16.9"/>
										<path class="st9" d="M997.3,442.4c0,5.7-2.8,10.7-7.1,13.8c-2.7,2-6.1,3.1-9.7,3.1c-9.3,0-16.9-7.6-16.9-16.9
											c0-7,4.3-13.1,10.4-15.6c2-0.8,4.2-1.3,6.4-1.3C989.7,425.5,997.3,433.1,997.3,442.4z"/>
									</g>
									<g>
										<path class="st10" d="M984.4,410.7c0,1.8-0.9,3.5-2.3,4.5c-0.9,0.7-2,1.1-3.3,1.1c-3,0-5.5-2.5-5.5-5.5
											c0-1.9,1-3.6,2.5-4.6c0.9-0.6,1.9-0.9,3.1-0.9C981.9,405.2,984.4,407.6,984.4,410.7z"/>
										<path class="st11" d="M982.1,415.2c-0.9,0.7-2,1.1-3.3,1.1c-3,0-5.5-2.5-5.5-5.5c0-1.9,1-3.6,2.5-4.6
											C975.3,409.6,975.9,414.6,982.1,415.2z"/>
									</g>
									<g>
										<circle class="st7" cx="977.3" cy="509.6" r="16.9"/>
										<path class="st9" d="M997.3,507.7c0,5.5-2.6,10.3-6.7,13.4c-2.8,2.2-6.4,3.5-10.2,3.5c-9.3,0-16.9-7.6-16.9-16.9
											c0-7.2,4.5-13.4,11-15.8c1.8-0.7,3.8-1.1,5.9-1.1C989.7,490.9,997.3,498.4,997.3,507.7z"/>
									</g>
									<g>
										<path class="st10" d="M984.4,476c0,1.8-0.9,3.5-2.3,4.5c-0.9,0.7-2,1.1-3.3,1.1c-3,0-5.5-2.5-5.5-5.5c0-1.9,1-3.6,2.5-4.6
											c0.9-0.6,1.9-0.9,3.1-0.9C981.9,470.5,984.4,473,984.4,476z"/>
										<path class="st11" d="M982.1,480.5c-0.9,0.7-2,1.1-3.3,1.1c-3,0-5.5-2.5-5.5-5.5c0-1.9,1-3.6,2.5-4.6
											C975.3,475,975.9,479.9,982.1,480.5z"/>
									</g>
									<g>
										<path class="st7" d="M994.2,574.9c0,9.3-7.6,16.9-16.9,16.9c-9.3,0-16.9-7.6-16.9-16.9c0-9.3,7.6-16.9,16.9-16.9
											C986.6,558.1,994.2,565.6,994.2,574.9z"/>
										<path class="st9" d="M997.3,573c0,5.7-2.8,10.7-7.1,13.7c-2.7,2-6.1,3.1-9.8,3.1c-9.3,0-16.9-7.6-16.9-16.9
											c0-7.1,4.3-13.1,10.4-15.6c2-0.8,4.2-1.3,6.4-1.3C989.7,556.2,997.3,563.7,997.3,573z"/>
									</g>
									<g>
										<path class="st10" d="M984.4,541.3c0,1.8-0.9,3.5-2.3,4.5c-0.9,0.7-2,1.1-3.3,1.1c-3,0-5.5-2.5-5.5-5.5
											c0-1.9,1-3.6,2.5-4.6c0.9-0.6,1.9-0.9,3.1-0.9C981.9,535.8,984.4,538.3,984.4,541.3z"/>
										<path class="st11" d="M982.1,545.8c-0.9,0.7-2,1.1-3.3,1.1c-3,0-5.5-2.5-5.5-5.5c0-1.9,1-3.6,2.5-4.6
											C975.3,540.3,975.9,545.3,982.1,545.8z"/>
									</g>
									<g>
										
											<ellipse transform="matrix(8.247935e-02 -0.9966 0.9966 8.247935e-02 258.604 1561.4077)" class="st7" cx="977.3" cy="640.3" rx="16.9" ry="16.9"/>
										<path class="st9" d="M997.3,638.4c0,5.5-2.6,10.3-6.6,13.4c-2.8,2.2-6.4,3.5-10.2,3.5c-9.3,0-16.9-7.6-16.9-16.9
											c0-7.2,4.6-13.4,11-15.8c1.8-0.7,3.8-1.1,5.9-1.1C989.7,621.5,997.3,629,997.3,638.4z"/>
									</g>
									<g>
										<path class="st10" d="M984.4,606.6c0,1.8-0.9,3.5-2.3,4.5c-0.9,0.7-2,1.1-3.3,1.1c-3,0-5.5-2.5-5.5-5.5
											c0-1.9,1-3.6,2.5-4.6c0.9-0.6,1.9-0.9,3.1-0.9C981.9,601.1,984.4,603.6,984.4,606.6z"/>
										<path class="st11" d="M982.1,611.1c-0.9,0.7-2,1.1-3.3,1.1c-3,0-5.5-2.5-5.5-5.5c0-1.9,1-3.6,2.5-4.6
											C975.3,605.6,975.9,610.6,982.1,611.1z"/>
									</g>
									<g>
										<path class="st10" d="M984.4,672c0,1.8-0.9,3.5-2.3,4.5c-0.9,0.7-2,1.1-3.3,1.1c-3,0-5.5-2.5-5.5-5.5c0-1.9,1-3.6,2.5-4.6
											c0.9-0.6,1.9-0.9,3.1-0.9C981.9,666.4,984.4,668.9,984.4,672z"/>
										<path class="st11" d="M982.1,676.4c-0.9,0.7-2,1.1-3.3,1.1c-3,0-5.5-2.5-5.5-5.5c0-1.9,1-3.6,2.5-4.6
											C975.3,670.9,975.9,675.9,982.1,676.4z"/>
									</g>
								</g>
								<g>
									<g>
										<g>
											<circle class="st7" cx="977.3" cy="313.7" r="16.9"/>
											<path class="st9" d="M997.3,311.8c0,5.7-2.8,10.7-7.1,13.8c-2.7,1.9-6.1,3.1-9.7,3.1c-9.3,0-16.9-7.6-16.9-16.9
												c0-7,4.3-13.1,10.4-15.6c2-0.9,4.2-1.3,6.5-1.3C989.7,294.9,997.3,302.4,997.3,311.8z"/>
										</g>
										<g>
											<circle class="st7" cx="1047.6" cy="313.7" r="16.9"/>
											<path class="st9" d="M1067.6,311.8c0,5.7-2.8,10.7-7.1,13.7c-2.7,2-6.1,3.2-9.8,3.2c-9.3,0-16.9-7.6-16.9-16.9
												c0-8.3,6-15.2,13.9-16.6c1-0.2,2-0.3,3-0.3C1060.1,294.9,1067.6,302.4,1067.6,311.8z"/>
										</g>
										<g>
											<path class="st10" d="M1018.8,311.6c0,1.8-0.9,3.5-2.3,4.5c-0.9,0.7-2,1.1-3.3,1.1c-3,0-5.5-2.5-5.5-5.5
												c0-1.9,1-3.6,2.5-4.6c0.9-0.6,1.9-0.9,3.1-0.9C1016.3,306.1,1018.8,308.6,1018.8,311.6z"/>
											<path class="st11" d="M1016.5,316.1c-0.9,0.7-2,1.1-3.3,1.1c-3,0-5.5-2.5-5.5-5.5c0-1.9,1-3.6,2.5-4.6
												C1009.7,310.6,1010.2,315.5,1016.5,316.1z"/>
										</g>
										<g>
											<path class="st10" d="M1091.6,311.6c0,1.8-0.9,3.5-2.3,4.5c-0.9,0.7-2,1.1-3.3,1.1c-3,0-5.5-2.5-5.5-5.5
												c0-1.9,1-3.6,2.5-4.6c0.9-0.6,1.9-0.9,3.1-0.9C1089.1,306.1,1091.6,308.6,1091.6,311.6z"/>
											<path class="st11" d="M1089.3,316.1c-0.9,0.7-2,1.1-3.3,1.1c-3,0-5.5-2.5-5.5-5.5c0-1.9,1-3.6,2.5-4.6
												C1082.5,310.6,1083.1,315.5,1089.3,316.1z"/>
										</g>
									</g>
									<g>
										<g>
											<circle class="st7" cx="1117.8" cy="705.5" r="16.9"/>
											<path class="st9" d="M1137.8,703.6c0,6.4-3.5,11.9-8.7,14.8c-2.4,1.3-5.2,2.1-8.1,2.1c-9.3,0-16.9-7.6-16.9-16.9
												c0-7.6,5-14,11.9-16.2c1.6-0.5,3.3-0.7,5-0.7C1130.3,686.7,1137.8,694.2,1137.8,703.6z"/>
										</g>
										<g>
											<g>
												<circle class="st7" cx="1117.8" cy="313.7" r="16.9"/>
												<path class="st9" d="M1137.8,311.8c0,6.2-3.3,11.6-8.3,14.5c-2.5,1.5-5.4,2.4-8.6,2.4c-9.3,0-16.9-7.6-16.9-16.9
													c0-7.8,5.3-14.4,12.5-16.3c1.4-0.4,2.9-0.6,4.4-0.6C1130.3,294.9,1137.8,302.4,1137.8,311.8z"/>
											</g>
											<g>
												<g>
													<circle class="st7" cx="1118.7" cy="379" r="16.9"/>
													<path class="st9" d="M1138.7,377.1c0,6.3-3.5,11.8-8.6,14.7c-2.5,1.4-5.3,2.2-8.3,2.2c-9.3,0-16.9-7.6-16.9-16.9
														c0-7.7,5.2-14.2,12.2-16.2c1.5-0.4,3-0.7,4.7-0.7C1131.1,360.2,1138.7,367.8,1138.7,377.1z"/>
												</g>
												<g>
													<path class="st10" d="M1125.8,345.4c0,1.8-0.9,3.5-2.3,4.5c-0.9,0.7-2,1.1-3.3,1.1c-3,0-5.5-2.5-5.5-5.5
														c0-1.9,1-3.6,2.5-4.6c0.9-0.6,1.9-0.9,3.1-0.9C1123.3,339.8,1125.8,342.3,1125.8,345.4z"/>
													<path class="st11" d="M1123.5,349.8c-0.9,0.7-2,1.1-3.3,1.1c-3,0-5.5-2.5-5.5-5.5c0-1.9,1-3.6,2.5-4.6
														C1116.7,344.3,1117.2,349.3,1123.5,349.8z"/>
												</g>
												<g>
													<circle class="st7" cx="1118.7" cy="444.3" r="16.9"/>
													<path class="st9" d="M1138.7,442.4c0,6.4-3.6,12-8.9,14.9c-2.4,1.3-5.1,2-7.9,2c-9.3,0-16.9-7.6-16.9-16.9
														c0-7.6,4.9-13.9,11.8-16.1c1.6-0.5,3.3-0.8,5.1-0.8C1131.1,425.5,1138.7,433.1,1138.7,442.4z"/>
												</g>
												<g>
													<path class="st10" d="M1125.8,410.7c0,1.8-0.9,3.5-2.3,4.5c-0.9,0.7-2,1.1-3.3,1.1c-3,0-5.5-2.5-5.5-5.5
														c0-1.9,1-3.6,2.5-4.6c0.9-0.6,1.9-0.9,3.1-0.9C1123.3,405.2,1125.8,407.6,1125.8,410.7z"/>
													<path class="st11" d="M1123.5,415.2c-0.9,0.7-2,1.1-3.3,1.1c-3,0-5.5-2.5-5.5-5.5c0-1.9,1-3.6,2.5-4.6
														C1116.7,409.6,1117.2,414.6,1123.5,415.2z"/>
												</g>
												<g>
													<circle class="st7" cx="1118.7" cy="509.6" r="16.9"/>
													<path class="st9" d="M1138.7,507.7c0,6.3-3.5,11.8-8.6,14.7c-2.5,1.4-5.3,2.2-8.3,2.2c-9.3,0-16.9-7.6-16.9-16.9
														c0-7.7,5.2-14.2,12.2-16.2c1.5-0.4,3-0.7,4.6-0.7C1131.1,490.9,1138.7,498.4,1138.7,507.7z"/>
												</g>
												<g>
													<path class="st10" d="M1125.8,476c0,1.8-0.9,3.5-2.3,4.5c-0.9,0.7-2,1.1-3.3,1.1c-3,0-5.5-2.5-5.5-5.5
														c0-1.9,1-3.6,2.5-4.6c0.9-0.6,1.9-0.9,3.1-0.9C1123.3,470.5,1125.8,473,1125.8,476z"/>
													<path class="st11" d="M1123.5,480.5c-0.9,0.7-2,1.1-3.3,1.1c-3,0-5.5-2.5-5.5-5.5c0-1.9,1-3.6,2.5-4.6
														C1116.7,475,1117.2,479.9,1123.5,480.5z"/>
												</g>
												<g>
													<path class="st7" d="M1135.5,574.9c0,9.3-7.6,16.9-16.9,16.9s-16.9-7.6-16.9-16.9c0-9.3,7.6-16.9,16.9-16.9
														S1135.5,565.6,1135.5,574.9z"/>
													<path class="st9" d="M1138.7,573c0,6.4-3.6,12-8.9,14.9c-2.4,1.3-5.1,2-7.9,2c-9.3,0-16.9-7.6-16.9-16.9
														c0-7.6,5-13.9,11.8-16.1c1.6-0.5,3.3-0.8,5.1-0.8C1131.1,556.2,1138.7,563.7,1138.7,573z"/>
												</g>
												<g>
													<path class="st10" d="M1125.8,541.3c0,1.8-0.9,3.5-2.3,4.5c-0.9,0.7-2,1.1-3.3,1.1c-3,0-5.5-2.5-5.5-5.5
														c0-1.9,1-3.6,2.5-4.6c0.9-0.6,1.9-0.9,3.1-0.9C1123.3,535.8,1125.8,538.3,1125.8,541.3z"/>
													<path class="st11" d="M1123.5,545.8c-0.9,0.7-2,1.1-3.3,1.1c-3,0-5.5-2.5-5.5-5.5c0-1.9,1-3.6,2.5-4.6
														C1116.7,540.3,1117.2,545.3,1123.5,545.8z"/>
												</g>
												<g>
													
														<ellipse transform="matrix(0.1602 -0.9871 0.9871 0.1602 307.4814 1641.918)" class="st7" cx="1118.7" cy="640.3" rx="16.9" ry="16.9"/>
													<path class="st9" d="M1138.7,638.4c0,6.3-3.4,11.8-8.5,14.7c-2.5,1.4-5.3,2.2-8.3,2.2c-9.3,0-16.9-7.6-16.9-16.9
														c0-7.7,5.2-14.2,12.3-16.2c1.5-0.4,3-0.7,4.6-0.7C1131.1,621.5,1138.7,629,1138.7,638.4z"/>
												</g>
												<g>
													<path class="st10" d="M1125.8,606.6c0,1.8-0.9,3.5-2.3,4.5c-0.9,0.7-2,1.1-3.3,1.1c-3,0-5.5-2.5-5.5-5.5
														c0-1.9,1-3.6,2.5-4.6c0.9-0.6,1.9-0.9,3.1-0.9C1123.3,601.1,1125.8,603.6,1125.8,606.6z"/>
													<path class="st11" d="M1123.5,611.1c-0.9,0.7-2,1.1-3.3,1.1c-3,0-5.5-2.5-5.5-5.5c0-1.9,1-3.6,2.5-4.6
														C1116.7,605.6,1117.2,610.6,1123.5,611.1z"/>
												</g>
												<g>
													<path class="st10" d="M1125.8,672c0,1.8-0.9,3.5-2.3,4.5c-0.9,0.7-2,1.1-3.3,1.1c-3,0-5.5-2.5-5.5-5.5
														c0-1.9,1-3.6,2.5-4.6c0.9-0.6,1.9-0.9,3.1-0.9C1123.3,666.4,1125.8,668.9,1125.8,672z"/>
													<path class="st11" d="M1123.5,676.4c-0.9,0.7-2,1.1-3.3,1.1c-3,0-5.5-2.5-5.5-5.5c0-1.9,1-3.6,2.5-4.6
														C1116.7,670.9,1117.2,675.9,1123.5,676.4z"/>
												</g>
											</g>
										</g>
									</g>
								</g>
							</g>
						</g>
						<g class="st12">
							<path class="st8" d="M990.1,325.5c-2.7,1.9-6.1,3.1-9.7,3.1c-9.3,0-16.9-7.6-16.9-16.9c0-7,4.3-13.1,10.4-15.6L990.1,325.5z"
								/>
							<path class="st8" d="M1060.6,325.5c-2.7,2-6.1,3.2-9.8,3.2c-9.3,0-16.9-7.6-16.9-16.9c0-8.3,6-15.2,13.9-16.6
								C1051.7,303.9,1056.6,315.8,1060.6,325.5z"/>
							<path class="st8" d="M1059.4,718.1c-2.5,1.5-5.4,2.4-8.6,2.4c-9.3,0-16.9-7.6-16.9-16.9c0-7.8,5.2-14.3,12.3-16.3
								C1050,695.3,1055.1,707.6,1059.4,718.1z"/>
							<path class="st8" d="M1129.5,326.3c-2.5,1.5-5.4,2.4-8.6,2.4c-9.3,0-16.9-7.6-16.9-16.9c0-7.8,5.3-14.4,12.5-16.3
								C1120.6,304.4,1125.6,316.5,1129.5,326.3z"/>
							<path class="st8" d="M990.6,390.5c-2.8,2.1-6.3,3.4-10.2,3.4c-9.3,0-16.9-7.6-16.9-16.9c0-7.2,4.5-13.4,10.9-15.8
								L990.6,390.5z"/>
							<path class="st8" d="M1130.1,391.8c-2.5,1.4-5.3,2.2-8.3,2.2c-9.3,0-16.9-7.6-16.9-16.9c0-7.7,5.2-14.2,12.2-16.2
								C1121.2,370.1,1126.2,382.2,1130.1,391.8z"/>
							<path class="st8" d="M990.2,456.2c-2.7,2-6.1,3.1-9.7,3.1c-9.3,0-16.9-7.6-16.9-16.9c0-7,4.3-13.1,10.4-15.6L990.2,456.2z"/>
							<path class="st8" d="M1129.7,457.3c-2.4,1.3-5.1,2-7.9,2c-9.3,0-16.9-7.6-16.9-16.9c0-7.6,4.9-13.9,11.8-16.1
								C1120.8,435.3,1125.8,447.6,1129.7,457.3z"/>
							<path class="st8" d="M990.6,521.1c-2.8,2.2-6.4,3.5-10.2,3.5c-9.3,0-16.9-7.6-16.9-16.9c0-7.2,4.5-13.4,11-15.8L990.6,521.1z
								"/>
							<path class="st8" d="M1130.1,522.4c-2.5,1.4-5.3,2.2-8.3,2.2c-9.3,0-16.9-7.6-16.9-16.9c0-7.7,5.2-14.2,12.2-16.2
								C1121.3,500.7,1126.3,512.9,1130.1,522.4z"/>
							<path class="st8" d="M990.2,586.8c-2.7,2-6.1,3.1-9.8,3.1c-9.3,0-16.9-7.6-16.9-16.9c0-7.1,4.3-13.1,10.4-15.6L990.2,586.8z"
								/>
							<path class="st8" d="M1129.7,587.9c-2.4,1.3-5.1,2-7.9,2c-9.3,0-16.9-7.6-16.9-16.9c0-7.6,5-13.9,11.8-16.1
								C1120.8,566,1125.8,578.2,1129.7,587.9z"/>
							<path class="st8" d="M990.6,651.7c-2.8,2.2-6.4,3.5-10.2,3.5c-9.3,0-16.9-7.6-16.9-16.9c0-7.2,4.6-13.4,11-15.8L990.6,651.7z
								"/>
							<path class="st8" d="M1130.1,653c-2.5,1.4-5.3,2.2-8.3,2.2c-9.3,0-16.9-7.6-16.9-16.9c0-7.7,5.2-14.2,12.3-16.2
								C1121.3,631.4,1126.3,643.5,1130.1,653z"/>
							<path class="st8" d="M989.6,717.8c-2.6,1.7-5.8,2.7-9.2,2.7c-9.3,0-16.9-7.6-16.9-16.9c0-6.8,4-12.7,9.8-15.3L989.6,717.8z"
								/>
							<path class="st8" d="M1129.1,718.4c-2.4,1.3-5.2,2.1-8.1,2.1c-9.3,0-16.9-7.6-16.9-16.9c0-7.6,5-14,11.9-16.2
								C1120,696.1,1125,708.3,1129.1,718.4z"/>
						</g>
					</g>
					<g>
						<path class="st13" d="M1172.5,673v62.9c0,4.2-3.4,7.6-7.6,7.6H942c-4.2,0-7.6-3.4-7.6-7.6V284.6c0-4.2,3.4-7.6,7.6-7.6h36.8
							c-0.1,5.6-0.2,11.6-0.3,18v1.8c0,2.5,0,5.1,0,7.7c0,7.6,0.1,15.6,0.4,24c0,0.6,0,1.3,0,1.9c0.1,3.1,0.2,6.2,0.3,9.4
							c0.1,3.1,0.2,6.2,0.4,9.4c0,0.5,0,1,0,1.6c0.2,3.1,0.3,6.2,0.5,9.4c0,0.7,0.1,1.5,0.1,2.2c0.2,3.6,0.5,7.3,0.8,11
							c0.5,6.7,1.1,13.5,1.7,20.4c0,0.4,0.1,0.7,0.1,1.1c1,10.5,2.3,21.2,3.9,32c0.2,1.3,0.4,2.6,0.6,4c1.1,7.7,2.4,15.4,3.8,23
							c0.1,0.4,0.1,0.9,0.2,1.3c7.8,42.3,20.1,84.6,39.1,120.4c3,5.7,6.2,11.3,9.6,16.7c1,1.7,2.1,3.3,3.2,4.9
							c2.7,4.1,5.6,8.1,8.6,12c1,1.4,2.1,2.7,3.2,4c12.8,15.8,27.6,29.2,44.9,39.3c6.3,3.7,13,7,19.9,9.7
							C1135.7,668.5,1153.1,672.2,1172.5,673z"/>
						<g>
							<path class="st14" d="M1172.5,284.6V608c-18.2-1.6-35.5-7.3-51.4-16.4c-0.2-0.1-0.3-0.2-0.5-0.3c-1.2-0.7-2.3-1.4-3.4-2
								c-3-1.8-5.9-3.8-8.7-5.9c-2.1-1.5-4.2-3.1-6.3-4.8c-18.8-15.2-34.9-35.6-47.1-59.7c-1.1-2.1-2.1-4.3-3.2-6.5
								c-3.2-6.8-6-13.9-8.6-21.1c-1.1-3.2-2.2-6.4-3.2-9.7c-6.8-22.6-10.5-47.2-10.5-72.9c0-28.1,4.4-54.8,12.5-79.1
								c0.3-0.9,0.6-1.9,0.9-2.8c2.6-7.6,5.6-14.9,8.9-22c1-2.1,2-4.2,3.1-6.3c0.4-0.9,0.9-1.7,1.4-2.6c3.5-6.6,7.2-12.9,11.2-18.8
								h97.3C1169.1,277.1,1172.5,280.5,1172.5,284.6z"/>
							
								<ellipse transform="matrix(0.3827 -0.9239 0.9239 0.3827 76.4133 1359.6818)" class="st14" cx="1055.7" cy="622.7" rx="53.4" ry="53.4"/>
						</g>
					</g>
				</g>
				<path class="st15" d="M1172.5,384.1v351.8c0,4.2-3.4,7.6-7.6,7.6h-41.4c-0.5-6.6-1-13.9-1.4-21.7c0-0.4,0-0.9-0.1-1.3
					c-0.4-6.8-0.8-14-1.1-21.5c-0.1-3.3-0.3-6.6-0.4-10.1c0-0.7,0-1.4-0.1-2.1c-0.1-3-0.2-6.1-0.3-9.2c0-0.7,0-1.3,0-1.9
					c-0.1-3-0.2-6-0.2-9.1c0-1.4,0-2.8-0.1-4.3c0-1.7,0-3.4-0.1-5.2c0-0.7,0-1.3,0-2c-0.1-8.8-0.1-17.9,0-27.1c0-1.5,0-3,0-4.5
					c0-0.6,0-1.2,0-1.8c0-3.1,0.1-6.3,0.1-9.4c0-0.7,0-1.4,0-2.1c0.1-3,0.2-6,0.3-9c0.1-3.1,0.2-6.3,0.3-9.4c0-0.1,0-0.2,0-0.4
					c0-0.5,0-1,0-1.5c0.3-7,0.7-14.1,1.1-21.2c0.2-3.4,0.4-6.8,0.7-10.1c0-0.8,0.1-1.5,0.2-2.3c0.3-3.5,0.5-7,0.9-10.4
					c0.2-2.8,0.5-5.5,0.8-8.2c0.4-4.3,0.9-8.6,1.5-12.7c0-0.3,0.1-0.5,0.1-0.8c0.4-3,0.8-6,1.3-9c0.9-6.1,2-12.1,3.1-17.7
					c0.2-1.3,0.5-2.5,0.8-3.8C1142.6,436.6,1162.1,401,1172.5,384.1z"/>
			</g>
			<g>
				<g>
					<path class="st16" d="M1408.5,736.2c0,3.2-4.1,6.2-23.5,8.3c-4.5,0.5-9.9,1-16.3,1.4c-21.8,1.4-55.3,2.2-106.2,2.2
						c-135.9,0-146-5.3-146-11.9c0-3.3,4.9-6.4,26.2-8.5c20.8-2.1,57.1-3.4,119.7-3.4c49.7,0,83.2,0.9,105.4,2.5
						c5.3,0.3,10,0.8,14,1.2C1402.4,730.1,1408.5,733,1408.5,736.2z"/>
					<g>
						<g>
							<path class="st17" d="M1290.1,357.9c0,0-37.8-1.6-55.1,4.3c0,0-0.5-35.6,28-37.3c0,0,0.1,0,0.1,0c16.5-0.9,23,9.4,25.5,18.7
								C1290.6,351.1,1290.1,357.9,1290.1,357.9z"/>
							<path class="st18" d="M1290.1,357.9c0,0-37.8-1.6-55.1,4.3c0,0-0.5-35.6,28-37.3c-3.5,5.6-11,16.6-7.5,16.2
								c7-0.9,15-1,33.2,2.5C1290.6,351.1,1290.1,357.9,1290.1,357.9z"/>
						</g>
						<g>
							<path class="st17" d="M1387.1,646.4c-0.2,41-2.7,70.3-2.9,73c-0.2,3.5-0.9,6.3-2.3,8.5c-2.3,3.9-6.5,5.7-13.4,5.7h-0.5
								c-14.6,0.1-170.6,2.8-211.3,2.8c-4.7,0-11.1-0.8-14-8.8c-1-2.8-1.7-6.4-1.7-11.1c0-17.4-30.3-330.7,95.1-365.7
								c6.6-1.9,13.7-2.9,21.2-3.2c1.3,0,2.5,0,3.8,0c10.4,0.1,20,1.8,28.8,5c1,0.3,1.9,0.7,2.9,1.1c31.9,12.8,53.2,44.6,67.4,84.4
								c16,44.8,22.9,99.8,25.5,149.2C1386.9,608.4,1387.2,628.5,1387.1,646.4z"/>
							<path class="st19" d="M1387.1,646.4c-0.2,41-2.7,70.3-2.9,73c-0.2,3.5-0.9,6.3-2.3,8.5c-2.3,3.9-6.5,5.7-13.4,5.7h-0.5
								c-14.6,0.1-170.6,2.8-211.3,2.8c-4.7,0-11.1-0.8-14-8.8c-1-2.8-1.7-6.4-1.7-11.1c0-17.4-30.3-330.7,95.1-365.7
								c6.6-1.9,13.7-2.9,21.2-3.2c-2.3,3.3-4.7,7.1-7.1,11.4c-15,26.3-32.6,72.6-40.3,150.9c-0.7,7.3-0.9,14.1-0.4,20.7
								c2.5,44.9,29.6,72.5,63.2,89.4c30.4,15.3,66.1,22,93.9,24.8C1374.2,645.6,1381.1,646.1,1387.1,646.4z"/>
							<g class="st20">
								<path class="st17" d="M1385.8,587.3c-2.3,0.1-4.6,0.2-7,0.2c-4.4,0-8.7-0.2-13-0.7c-62.8-7.1-111.8-64.7-111.8-134.8
									c0-0.7,0-1.4,0-2.1c0-4.3,0.3-8.7,0.7-12.9c3.1-30.6,15.6-58.2,34.3-79.2c0.3-0.4,0.7-0.8,1-1.1c0.9-1,1.8-2,2.8-3
									c31.9,12.8,53.2,44.6,67.4,84.4C1376.3,482.9,1383.3,537.9,1385.8,587.3z"/>
								<circle class="st17" cx="1225.7" cy="586.3" r="58"/>
							</g>
						</g>
					</g>
				</g>
				<g class="st21">
					<g>
						<path class="st17" d="M1315.2,464.8c1.4,7.1,2.7,14.3,3.8,21.5c-0.2-1.4-0.5-2.8-0.7-4.2c6.6,41.7,8.9,84,6.8,126.2
							c-0.4,8.3,8.2,16,16.3,15.5c9.1-0.6,15-7.4,15.5-16.3c2-38.7,0.2-77.6-5.2-115.9c-1.7-12-3.7-24-6.1-35.9
							c-0.7-3.7-4.4-7.6-7.5-9.3c-3.5-1.9-8.5-2.6-12.3-1.3c-3.8,1.3-7.5,3.8-9.3,7.5C1314.5,456.6,1314.3,460.4,1315.2,464.8
							L1315.2,464.8z"/>
					</g>
					<g>
						<path class="st17" d="M1316.8,437.4c8.3-0.2,16.1-7.7,15.5-16.3c-0.6-8.6-7.4-15.7-16.3-15.5c-8.3,0.2-16.1,7.7-15.5,16.3
							C1301.1,430.6,1307.9,437.7,1316.8,437.4L1316.8,437.4z"/>
					</g>
				</g>
				<path class="st22" d="M1408.5,736.2c0,3.2-4.1,6.2-23.5,8.3c-4.5,0.5-9.9,1-16.3,1.4l-0.7-12.3l-0.1-6.9l-1.2-81.9l-0.9-58
					l-2-135.6l-109.7-1.3l-22.6-0.3c0,0,1.9-12.7,8.8-12.7c1.2,0,6.6,0,14.5,0.1c25.1,0.2,76.1,0.8,105.5,1.1
					c16,44.8,22.9,99.8,25.5,149.2c1.1,21.1,1.4,41.2,1.3,59c-0.2,41-2.7,70.3-2.9,73c-0.2,3.5-0.9,6.3-2.3,8.5
					C1402.4,730.1,1408.5,733,1408.5,736.2z"/>
			</g>
			<g>
				<g>
					
						<ellipse transform="matrix(0.7071 -0.7071 0.7071 0.7071 26.3122 1273.5443)" class="st23" cx="1550.5" cy="605" rx="130.9" ry="130.9"/>
					<g>
						<g>
							<g>
								<path class="st19" d="M1647.1,611.9c0,23-7.5,44.2-20.3,61.3c0,0.1-0.1,0.1-0.1,0.1c-7.8,10.4-17.5,19.3-28.7,26.1
									c-15.5,9.5-33.7,15-53.3,15c-56.5,0-102.4-45.8-102.4-102.4c0-26.2,9.8-50.1,26-68.2c0,0,0,0,0-0.1
									c17.1-19.1,41.3-31.8,68.4-33.9h0c2.6-0.2,5.2-0.3,7.9-0.3C1601.3,509.6,1647.1,555.4,1647.1,611.9z"/>
								<path class="st17" d="M1652.8,605c0,26.2-9.8,50.1-26,68.2c0,0.1-0.1,0.1-0.1,0.1c-9.2,10.3-20.4,18.7-33.1,24.6
									c-13.1,6.1-27.7,9.5-43.2,9.5c-56.5,0-102.4-45.8-102.4-102.4c0-23,7.5-44.2,20.3-61.3c0,0,0,0,0-0.1
									c17.2-22.9,43.7-38.4,73.9-40.7c2.7-0.2,5.4-0.3,8.1-0.3C1607,502.6,1652.8,548.5,1652.8,605z"/>
							</g>
							<path class="st24" d="M1652.8,605c0,26.2-9.8,50.1-26,68.2c0,0.1-0.1,0.1-0.1,0.1c-7.8,10.4-17.5,19.3-28.7,26.1
								c-1.5-0.5-3-1-4.4-1.5c-47-17.2-80.6-62.3-80.6-115.3c0-27.3,8.9-52.4,23.8-72.7h0c1.7-2.4,3.6-4.7,5.5-6.9
								c2.7-0.2,5.4-0.3,8.1-0.3C1607,502.6,1652.8,548.5,1652.8,605z"/>
						</g>
						<g class="st25">
							<g>
								<path class="st23" d="M1554.8,525.4c20.7,2.9,39.8,12.9,53.5,28.8c14.2,16.4,20.9,38.4,19.7,59.9c-0.5,9.2,13.7,9.1,14.2,0
									c1.5-25-7-50-23.1-69.2c-15.1-17.9-37.3-30.1-60.5-33.3c-3.8-0.5-7.6,0.9-8.8,5C1548.9,520,1551,524.9,1554.8,525.4
									L1554.8,525.4z"/>
							</g>
							<g>
								<path class="st23" d="M1627.2,641.6c9.2,0,9.2-14.2,0-14.2C1618,627.3,1618,641.6,1627.2,641.6L1627.2,641.6z"/>
							</g>
							<g>
								<path class="st23" d="M1588.4,674.8c-9.4,5.5-20.2,6.9-30.9,7.6c-11.7,0.9-24,0.8-35.2-2.8c-16.9-5.4-31.3-19.1-36.9-36.1
									c-1.2-3.6-4.3-6.4-8.4-5.6c-3.4,0.7-6.8,4.7-5.6,8.4c7.2,21.4,23.6,39,45.2,46.4c13.2,4.5,27.3,4.8,41.1,3.9
									c12.8-0.8,25.9-2.4,37.1-9c3.3-1.9,5-5.9,3.2-9.5C1596.3,674.8,1591.7,672.9,1588.4,674.8L1588.4,674.8z"/>
							</g>
							<g>
								<path class="st23" d="M1472.5,618.5c-0.7-2.2-1.3-4.3-1.7-6.6c-0.1-0.3-0.1-0.6-0.1-1c0,0.3,0.1,0.6,0.1,0.9
									c-0.2-0.1-0.2-1.7-0.2-1.9c-0.1-1-0.1-2.1-0.1-3.2c0-1.1,0-2.1,0.1-3.2c0-0.2,0-1.8,0.2-1.9c0,0.3-0.1,0.6-0.1,0.9
									c0-0.3,0.1-0.6,0.1-1c0.4-2.2,0.9-4.4,1.6-6.6c1.2-3.5-1.4-7.9-5-8.8c-3.9-0.9-7.5,1.2-8.8,5c-3.3,9.9-3.3,21.1,0,31
									c1.2,3.5,5,6.2,8.8,5C1471,626.1,1473.7,622.3,1472.5,618.5L1472.5,618.5z"/>
							</g>
						</g>
					</g>
				</g>
				<g>
					<g>
						<g>
							<g>
								<g>
									<path class="st8" d="M1548.1,656.9v15.8c0,3.4-2.2,6.2-5.2,7.3c-0.8,0.3-1.7,0.4-2.5,0.4h-67.5c-0.9,0-1.7-0.1-2.5-0.4
										c-3-1-5.2-3.9-5.2-7.3v-15.8c0-4.3,3.5-7.7,7.7-7.7h67.5C1544.7,649.1,1548.1,652.6,1548.1,656.9z"/>
									<path class="st26" d="M1548.1,670.5v2.2c0,3.4-2.2,6.2-5.2,7.3c-0.8,0.3-1.7,0.4-2.5,0.4h-67.5c-0.9,0-1.7-0.1-2.5-0.4
										c-3-1-5.2-3.9-5.2-7.3v-15.8c0-4.3,3.5-7.7,7.7-7.7h14.2c-0.1,5.8,1.1,19.1,13.6,20.3
										C1510.1,670.4,1532.2,670.6,1548.1,670.5z"/>
								</g>
								<g class="st27">
									<g>
										<path class="st28" d="M1500.8,659.2c10.4-0.4,20.8-0.5,31.3-0.3c3.9,0.1,4.2-6,0.3-6.1c-10.4-0.3-20.9-0.2-31.3,0.3
											c-1.6,0.1-3.1,1.1-3.2,2.9C1497.8,657.6,1499.1,659.3,1500.8,659.2L1500.8,659.2z"/>
									</g>
									<g>
										<path class="st28" d="M1539.8,659.2c3.9,0,3.9-6.1,0-6.1C1535.9,653.1,1535.8,659.2,1539.8,659.2L1539.8,659.2z"/>
									</g>
								</g>
							</g>
							<g>
								<g>
									<path class="st8" d="M1548.1,687.3v15.8c0,3-1.7,5.5-4.1,6.8c-1.1,0.6-2.3,0.9-3.6,0.9h-67.5c-1.3,0-2.5-0.3-3.6-0.9
										c-2.5-1.3-4.1-3.9-4.1-6.8v-15.8c0-3.4,2.2-6.3,5.2-7.3c0.8-0.3,1.7-0.4,2.5-0.4h67.5c0.9,0,1.7,0.1,2.5,0.4
										C1546,681,1548.1,683.9,1548.1,687.3z"/>
									<path class="st26" d="M1548.1,700.9v2.2c0,3-1.7,5.5-4.1,6.8c-1.1,0.6-2.3,0.9-3.6,0.9h-67.5c-1.3,0-2.5-0.3-3.6-0.9
										c-2.5-1.3-4.1-3.9-4.1-6.8v-15.8c0-3.4,2.2-6.3,5.2-7.3c0.8-0.3,1.7-0.4,2.5-0.4h14.2v0.9c0,4.8,1,13.2,7.1,17.3
										c1.7,1.1,3.8,1.9,6.5,2.2C1510.1,700.8,1532.2,701,1548.1,700.9z"/>
								</g>
								<g class="st27">
									<g>
										<path class="st28" d="M1500.8,691.7c10.4-0.4,20.8-0.5,31.3-0.3c3.9,0.1,4.2-6,0.3-6.1c-10.4-0.3-20.9-0.2-31.3,0.3
											c-1.6,0.1-3.1,1.1-3.2,2.9C1497.8,690.1,1499.1,691.8,1500.8,691.7L1500.8,691.7z"/>
									</g>
									<g>
										<path class="st28" d="M1539.8,691.7c3.9,0,3.9-6.1,0-6.1C1535.9,685.6,1535.8,691.7,1539.8,691.7L1539.8,691.7z"/>
									</g>
								</g>
							</g>
							<g>
								<g>
									<path class="st8" d="M1548.1,716.8v15.8c0,4.3-3.5,7.7-7.7,7.7h-67.5c-2.3,0-4.4-1-5.8-2.7c-1.2-1.3-1.9-3.1-1.9-5v-15.8
										c0-3,1.7-5.6,4.1-6.8c1.1-0.6,2.3-0.9,3.6-0.9h67.5c1.3,0,2.5,0.3,3.6,0.9C1546.5,711.2,1548.1,713.8,1548.1,716.8z"/>
									<path class="st26" d="M1548.1,730.4v2.2c0,4.3-3.5,7.7-7.7,7.7h-67.5c-2.3,0-4.4-1-5.8-2.7c-1.2-1.3-1.9-3.1-1.9-5v-15.8
										c0-3,1.7-5.6,4.1-6.8c1.1-0.6,2.3-0.9,3.6-0.9h14.2c0,0.5,0,1.1,0,1.8c0,2,0.3,4.4,0.9,6.8c0,0,0,0,0,0
										c1.4,5.4,4.8,10.9,12.6,11.7C1510.1,730.3,1532.2,730.5,1548.1,730.4z"/>
								</g>
								<g class="st27">
									<g>
										<path class="st28" d="M1500.8,721.2c10.4-0.4,20.8-0.5,31.3-0.2c3.9,0.1,4.2-6,0.3-6.1c-10.4-0.3-20.9-0.2-31.3,0.3
											c-1.6,0.1-3.1,1.1-3.2,2.9C1497.8,719.5,1499.1,721.2,1500.8,721.2L1500.8,721.2z"/>
									</g>
									<g>
										<path class="st28" d="M1539.8,721.1c3.9,0,3.9-6.1,0-6.1C1535.9,715,1535.8,721.1,1539.8,721.1L1539.8,721.1z"/>
									</g>
								</g>
							</g>
						</g>
						<path class="st26" d="M1494.2,697.7c-0.4,3.8-1.1,7.7-2.4,11.4c-0.2,0.6-0.4,1.2-0.6,1.8c-0.9,2.3-1.9,4.6-3.2,6.8
							c0,0,0,0,0,0c-4.3,7.6-11,14.4-21,20c-1.2-1.3-1.9-3.1-1.9-5v-15.8c0-3,1.7-5.6,4.1-6.8c-2.5-1.3-4.1-3.9-4.1-6.8v-15.8
							c0-3.4,2.2-6.3,5.2-7.3c-3-1-5.2-3.9-5.2-7.3v-15.8c0-4.3,3.5-7.7,7.7-7.7h11.4c3.5,7.7,7.6,18.6,9.3,30.4
							c0.1,0.3,0.1,0.6,0.1,0.9C1494.6,686.1,1494.8,691.9,1494.2,697.7z"/>
					</g>
					<g>
						<g>
							<path class="st8" d="M1487.4,690.4c0,8.7-2.2,17-6.2,24.2c-0.2,0.4-0.4,0.8-0.7,1.2c-8.7,14.9-24.9,24.9-43.4,24.9
								c-8.1,0-15.9-1.9-22.7-5.4c-16.4-8.3-27.6-25.3-27.6-44.9c0-16.2,7.7-30.7,19.6-39.9c8.5-6.6,19.1-10.4,30.7-10.4
								c1.9,0,3.8,0.1,5.7,0.3c4.4,0.5,8.6,1.5,12.6,3.1C1474.1,650.9,1487.4,669.1,1487.4,690.4z"/>
							<g>
								<g class="st29">
									<path class="st8" d="M1435.5,733.3c-6.8,0-13.5-1.6-19.4-4.6c-14.6-7.4-23.7-22.1-23.7-38.5c0-23.8,19.4-43.1,43.1-43.1
										c5.4,0,10.7,1,15.7,2.9c16.7,6.5,27.5,22.3,27.5,40.2C1478.6,714,1459.3,733.3,1435.5,733.3z M1435.5,649.1
										c-22.7,0-41.1,18.4-41.1,41.1c0,15.6,8.7,29.7,22.6,36.7c5.7,2.9,12.1,4.4,18.5,4.4c22.7,0,41.1-18.4,41.1-41.1
										c0-17.1-10.3-32.1-26.2-38.3C1445.6,650,1440.6,649.1,1435.5,649.1z"/>
								</g>
								<g>
									<path class="st30" d="M1437.1,733.6c-6.8,0-13.5-1.6-19.4-4.6c-14.6-7.4-23.7-22.1-23.7-38.5c0-23.8,19.4-43.1,43.1-43.1
										c5.4,0,10.7,1,15.7,2.9c16.7,6.5,27.5,22.3,27.5,40.2C1480.3,714.2,1460.9,733.6,1437.1,733.6z M1437.1,649.3
										c-22.7,0-41.1,18.4-41.1,41.1c0,15.6,8.7,29.7,22.6,36.7c5.7,2.9,12.1,4.4,18.5,4.4c22.7,0,41.1-18.4,41.1-41.1
										c0-17.1-10.3-32.1-26.2-38.3C1447.3,650.3,1442.3,649.3,1437.1,649.3z"/>
								</g>
							</g>
						</g>
						<g>
							<g>
								<path class="st31" d="M1480.5,715.9c-8.7,14.9-24.9,24.9-43.4,24.9c-8.1,0-15.9-1.9-22.7-5.4c-16.4-8.3-27.6-25.3-27.6-44.9
									c0-16.2,7.7-30.7,19.6-39.9C1405.4,675.8,1409.9,725,1480.5,715.9z"/>
								<path class="st32" d="M1487.4,690.4c0,8.7-2.2,17-6.2,24.2c-0.4,0-0.9,0-1.3,0c-25.6,0-46.4-20.8-46.4-46.4
									c0-10.4,3.4-20,9.3-27.8c4.4,0.5,8.6,1.5,12.6,3.1C1474.1,650.9,1487.4,669.1,1487.4,690.4z"/>
							</g>
							<g>
								<g class="st29">
									<path class="st28" d="M1415.5,662.4c-8,4.8-14.5,11.2-16.2,20.7c-1.7,9.7,1.5,20.7,8.3,27.9c2,2.1,5.8,1.5,7.5-0.6
										c2-2.4,1.4-5.4-0.6-7.5c0.6,0.6-0.2-0.2-0.3-0.3c-0.3-0.3-0.5-0.7-0.8-1.1c-0.5-0.7-1-1.5-1.4-2.3c0.4,0.7-0.4-0.8-0.3-0.8
										c-0.2-0.4-0.4-0.9-0.5-1.3c-0.3-0.9-0.6-1.8-0.9-2.8c-0.1-0.5-0.3-0.9-0.4-1.4c0.1,0.7-0.1-0.4-0.1-0.6
										c-0.1-0.9-0.3-1.9-0.3-2.8c0-0.5,0-0.9-0.1-1.4c0,0,0-1.8,0-0.8c0.1-0.9,0.2-1.7,0.4-2.6c0.2-0.8,0.4-1.7,0.7-2.5
										c-0.2,0.7,0,0,0.1-0.3c0.2-0.4,0.3-0.7,0.5-1.1c0.3-0.7,0.7-1.4,1.1-2c-0.6,0.9,0,0,0.2-0.2c0.2-0.3,0.5-0.6,0.7-0.9
										c0.5-0.6,1.1-1.2,1.7-1.7c1.1-1.1-0.8,0.5,0.5-0.4c0.4-0.3,0.7-0.6,1-0.8c1.7-1.3,3.4-2.4,5.2-3.4c2.5-1.5,2.9-5.1,1.4-7.4
										C1421.2,661.3,1418,660.9,1415.5,662.4L1415.5,662.4z"/>
								</g>
								<g class="st29">
									<path class="st28" d="M1421.1,722.6c6.9,0,6.9-10.7,0-10.7C1414.2,711.9,1414.2,722.6,1421.1,722.6L1421.1,722.6z"/>
								</g>
							</g>
						</g>
						<path class="st26" d="M1487.4,690.4c0,27.8-22.5,50.3-50.3,50.3c-8.1,0-15.9-1.9-22.7-5.4l40.9-91.8
							C1474.1,650.9,1487.4,669.1,1487.4,690.4z"/>
					</g>
				</g>
			</g>
			<g>
				<g>
					<g>
						<g>
							<path class="st33" d="M1388,719.4c-0.8-0.1-1.6-0.1-2.4-0.1c-0.8,0-1.6,0-2.4,0.1c-4.5,0.5-8.3,3.1-8.3,12.6
								c0,7,4.8,12.8,10.7,12.8c5.9,0,10.7-5.7,10.7-12.8C1396.4,722.5,1392.6,720,1388,719.4z M1385.6,740c-3.2,0-5.9-3.5-5.9-7.9
								c0-7.9,2.5-7.9,5.9-7.9c3.4,0,5.9,0,5.9,7.9C1391.5,736.4,1388.9,740,1385.6,740z"/>
						</g>
						<g>
							<rect x="1383.2" y="707.9" class="st33" width="4.9" height="13.9"/>
						</g>
					</g>
					<path class="st33" d="M1388,707.9v4.8c-1.7,0.2-3.4,0.2-4.9,0.1v-5H1388z"/>
				</g>
				<g>
					<g>
						<g>
							<g>
								<g>
									<g>
										<path class="st33" d="M1540.9,438.3v15.3c0,2-1.6,3.6-3.6,3.6c-2,0-3.6-1.6-3.6-3.6V442h-143.9v24.7c0,2-1.6,3.6-3.6,3.6
											c-2,0-3.6-1.6-3.6-3.6v-28.4c0-2,1.6-3.6,3.6-3.6h151.1C1539.3,434.7,1540.9,436.4,1540.9,438.3z"/>
									</g>
									<path class="st33" d="M1389.8,457.1v9.6c0,2-1.6,3.6-3.6,3.6c-2,0-3.6-1.6-3.6-3.6v-8.8
										C1384.6,457.5,1387.2,457.1,1389.8,457.1z"/>
								</g>
								<path class="st33" d="M1540.9,449.6v4.1c0,2-1.6,3.6-3.6,3.6c-2,0-3.6-1.6-3.6-3.6v-4
									C1535.1,449.4,1538.2,449.1,1540.9,449.6z"/>
							</g>
							<g>
								<path class="st33" d="M1537,476.9c-5.4,0-9.9-5.4-9.9-12.1c0-6.7,4.4-12.1,9.9-12.1c5.4,0,9.9,5.4,9.9,12.1
									C1546.8,471.5,1542.4,476.9,1537,476.9z M1537,457.5c-2.7,0-5,3.3-5,7.2s2.3,7.2,5,7.2c2.7,0,5-3.3,5-7.2
									S1539.7,457.5,1537,457.5z"/>
							</g>
						</g>
						<g>
							<g>
								<g>
									<g>
										<path class="st33" d="M1231.5,438.3v15.3c0,2,1.6,3.6,3.6,3.6c2,0,3.6-1.6,3.6-3.6V442h143.9v24.7c0,2,1.6,3.6,3.6,3.6
											c2,0,3.6-1.6,3.6-3.6v-28.4c0-2-1.6-3.6-3.6-3.6h-151.1C1233.1,434.7,1231.5,436.4,1231.5,438.3z"/>
									</g>
									<path class="st33" d="M1382.6,457.1v9.6c0,2,1.6,3.6,3.6,3.6c2,0,3.6-1.6,3.6-3.6v-8.8
										C1387.8,457.5,1385.2,457.1,1382.6,457.1z"/>
								</g>
								<path class="st33" d="M1231.5,449.6v4.1c0,2,1.6,3.6,3.6,3.6c2,0,3.6-1.6,3.6-3.6v-4
									C1237.3,449.4,1234.2,449.1,1231.5,449.6z"/>
							</g>
							<g>
								<path class="st33" d="M1225.6,464.8c0-6.7,4.4-12.1,9.9-12.1c5.4,0,9.9,5.4,9.9,12.1c0,6.7-4.4,12.1-9.9,12.1
									C1230,476.9,1225.6,471.5,1225.6,464.8z M1230.5,464.8c0,3.9,2.3,7.2,5,7.2c2.7,0,5-3.3,5-7.2s-2.3-7.2-5-7.2
									C1232.7,457.5,1230.5,460.9,1230.5,464.8z"/>
							</g>
						</g>
					</g>
					<g>
						<path class="st6" d="M1397.7,473v225.2c0,5.3-4.3,9.6-9.6,9.6h-4.8c-5.3,0-9.6-4.3-9.6-9.6V473c0-0.3,0-0.7,0-1
							c0.1-0.9,0.3-1.7,0.6-2.4c1.4-3.6,4.9-6.2,9-6.2h4.8C1393.3,463.4,1397.7,467.7,1397.7,473z"/>
						<path class="st34" d="M1397.7,690.4v7.8c0,5.3-4.3,9.6-9.6,9.6h-4.8c-5.3,0-9.6-4.3-9.6-9.6V473c0-5.3,4.3-9.6,9.6-9.6h3.3
							c-1.7,5.9-3.5,18-3.5,43.1c0,49.6-1.2,132.3,1.6,152.6C1386.7,675.6,1390.2,691.8,1397.7,690.4z"/>
						<g class="st35">
							<g>
								<g>
									<g>
										<path class="st33" d="M1397.7,489.6v2.5c-2.9,0.4-5.4,0.5-7.2,0.5c-1.8,0-2.9-0.1-3.1-0.1c-0.7-0.1-1.2-0.7-1.1-1.3
											c0.1-0.7,0.7-1.2,1.4-1.1C1387.7,490.1,1391.8,490.5,1397.7,489.6z"/>
									</g>
									<g>
										<path class="st33" d="M1385.7,501.3c0.1,0.7-0.4,1.3-1,1.4c-2.4,0.4-4.7,0.5-6.9,0.5c-1.5,0-2.9-0.1-4.2-0.2v-2.5
											c3.2,0.3,6.9,0.3,10.7-0.3C1385,500.2,1385.6,500.6,1385.7,501.3z"/>
									</g>
								</g>
								<g>
									<g>
										<path class="st33" d="M1397.7,495.8v2.5c-2.2,0.3-4.1,0.3-5.5,0.3c-1.8,0-3-0.1-3.1-0.1c-0.7-0.1-1.1-0.7-1.1-1.3
											c0.1-0.7,0.7-1.1,1.3-1.1C1389.4,496.1,1392.7,496.4,1397.7,495.8z"/>
									</g>
									<g>
										<path class="st33" d="M1387.3,507.3c0.1,0.7-0.4,1.3-1,1.4c-2.4,0.4-4.7,0.5-6.9,0.5c-2.1,0-4-0.1-5.8-0.3v-2.5
											c3.5,0.4,7.8,0.6,12.4-0.1C1386.6,506.2,1387.2,506.6,1387.3,507.3z"/>
									</g>
								</g>
							</g>
							<g>
								<g>
									<g>
										<path class="st33" d="M1397.7,524.2v2.5c-2.9,0.4-5.4,0.5-7.2,0.5c-1.8,0-2.9-0.1-3.1-0.1c-0.7-0.1-1.2-0.7-1.1-1.3
											c0.1-0.7,0.7-1.1,1.4-1.1C1387.7,524.7,1391.8,525.1,1397.7,524.2z"/>
									</g>
									<g>
										<path class="st33" d="M1385.7,535.9c0.1,0.7-0.4,1.3-1,1.4c-2.4,0.3-4.7,0.5-6.9,0.5c-1.5,0-2.9-0.1-4.2-0.2v-2.5
											c3.2,0.3,6.8,0.3,10.7-0.3C1385,534.8,1385.6,535.2,1385.7,535.9z"/>
									</g>
								</g>
								<g>
									<g>
										<path class="st33" d="M1397.7,530.4v2.5c-2.2,0.3-4.1,0.3-5.5,0.3c-1.8,0-3-0.1-3.1-0.1c-0.7-0.1-1.1-0.7-1.1-1.3
											c0.1-0.7,0.7-1.2,1.3-1.1C1389.4,530.7,1392.7,531,1397.7,530.4z"/>
									</g>
									<g>
										<path class="st33" d="M1387.3,541.9c0.1,0.7-0.4,1.3-1,1.4c-2.4,0.3-4.7,0.5-6.9,0.5c-2.1,0-4-0.1-5.8-0.3V541
											c3.6,0.4,7.8,0.6,12.4-0.1C1386.6,540.8,1387.2,541.3,1387.3,541.9z"/>
									</g>
								</g>
							</g>
							<g>
								<g>
									<g>
										<path class="st33" d="M1397.7,617.5v2.5c-2.9,0.4-5.4,0.5-7.2,0.5c-1.8,0-2.9-0.1-3.1-0.1c-0.7-0.1-1.2-0.7-1.1-1.3
											c0.1-0.7,0.7-1.2,1.4-1.1C1387.7,618,1391.8,618.4,1397.7,617.5z"/>
									</g>
									<g>
										<path class="st33" d="M1385.7,629.2c0.1,0.7-0.4,1.3-1,1.4c-2.4,0.4-4.7,0.5-6.9,0.5c-1.5,0-2.9-0.1-4.2-0.2v-2.5
											c3.2,0.3,6.9,0.3,10.7-0.3C1385,628.1,1385.6,628.6,1385.7,629.2z"/>
									</g>
								</g>
								<g>
									<g>
										<path class="st33" d="M1397.7,623.7v2.5c-2.2,0.3-4.1,0.3-5.5,0.3c-1.8,0-3-0.1-3.1-0.1c-0.7-0.1-1.1-0.7-1.1-1.3
											c0.1-0.7,0.7-1.1,1.3-1.1C1389.4,624,1392.7,624.4,1397.7,623.7z"/>
									</g>
									<g>
										<path class="st33" d="M1387.3,635.2c0.1,0.7-0.4,1.3-1,1.4c-2.4,0.4-4.7,0.5-6.9,0.5c-2.1,0-4-0.1-5.8-0.3v-2.5
											c3.5,0.4,7.8,0.6,12.4-0.1C1386.6,634.1,1387.2,634.6,1387.3,635.2z"/>
									</g>
								</g>
							</g>
							<g>
								<g>
									<g>
										<path class="st33" d="M1397.7,556.9v2.5c-2.9,0.4-5.4,0.5-7.2,0.5c-1.8,0-2.9-0.1-3.1-0.1c-0.7-0.1-1.2-0.7-1.1-1.3
											c0.1-0.7,0.7-1.2,1.4-1.1C1387.7,557.4,1391.8,557.8,1397.7,556.9z"/>
									</g>
									<g>
										<path class="st33" d="M1385.7,568.6c0.1,0.7-0.4,1.3-1,1.4c-2.4,0.4-4.7,0.5-6.9,0.5c-1.5,0-2.9-0.1-4.2-0.2v-2.5
											c3.2,0.3,6.9,0.3,10.7-0.3C1385,567.5,1385.6,568,1385.7,568.6z"/>
									</g>
								</g>
								<g>
									<g>
										<path class="st33" d="M1397.7,584.3v2.5c-2.2,0.3-4.1,0.3-5.5,0.3c-1.8,0-3-0.1-3.1-0.1c-0.7-0.1-1.1-0.7-1.1-1.3
											c0.1-0.7,0.7-1.1,1.3-1.1C1389.4,584.6,1392.7,584.9,1397.7,584.3z"/>
									</g>
									<g>
										<path class="st33" d="M1387.3,595.8c0.1,0.7-0.4,1.3-1,1.4c-2.4,0.3-4.7,0.5-6.9,0.5c-2.1,0-4-0.1-5.8-0.3v-2.5
											c3.6,0.5,7.8,0.6,12.4-0.1C1386.6,594.7,1387.2,595.2,1387.3,595.8z"/>
									</g>
								</g>
							</g>
							<g>
								<g>
									<g>
										<path class="st33" d="M1397.7,644.3v2.5c-2.9,0.4-5.4,0.5-7.2,0.5c-1.8,0-2.9-0.1-3.1-0.1c-0.7-0.1-1.2-0.7-1.1-1.3
											c0.1-0.7,0.7-1.1,1.4-1.1C1387.7,644.8,1391.8,645.2,1397.7,644.3z"/>
									</g>
									<g>
										<path class="st33" d="M1385.7,656c0.1,0.7-0.4,1.3-1,1.4c-2.4,0.3-4.7,0.5-6.9,0.5c-1.5,0-2.9-0.1-4.2-0.2v-2.5
											c3.2,0.3,6.8,0.3,10.7-0.3C1385,654.9,1385.6,655.3,1385.7,656z"/>
									</g>
								</g>
								<g>
									<g>
										<path class="st33" d="M1397.7,682.2v2.5c-2.2,0.3-4.1,0.3-5.5,0.3c-1.8,0-3-0.1-3.1-0.1c-0.7-0.1-1.1-0.7-1.1-1.3
											c0.1-0.7,0.7-1.2,1.3-1.1C1389.4,682.5,1392.7,682.8,1397.7,682.2z"/>
									</g>
									<g>
										<path class="st33" d="M1387.3,693.7c0.1,0.7-0.4,1.3-1,1.4c-2.4,0.4-4.7,0.5-6.9,0.5c-2.1,0-4-0.1-5.8-0.3v-2.5
											c3.5,0.4,7.8,0.6,12.4-0.1C1386.6,692.6,1387.2,693,1387.3,693.7z"/>
									</g>
								</g>
							</g>
							<g>
								<g>
									<g>
										<path class="st33" d="M1387.3,470.5c0.1,0.7-0.4,1.3-1,1.4c-2.4,0.4-4.7,0.5-6.9,0.5c-2.1,0-4-0.1-5.8-0.3
											c0.1-0.9,0.3-1.7,0.6-2.4c3.4,0.4,7.4,0.5,11.7-0.2C1386.6,469.4,1387.2,469.9,1387.3,470.5z"/>
									</g>
								</g>
							</g>
						</g>
					</g>
				</g>
			</g>
		</g>
	</g>
</g>
<path class="st2" d="M1624.2,828.5c13.8,0,20.7,9.9,26.2,17.9c5.4,7.8,8.7,12.2,15.3,12.2c6.6,0,9.9-4.4,15.3-12.2
	c5.5-8,12.3-17.9,26.2-17.9c13.8,0,20.7,9.9,26.1,17.9c5.4,7.8,8.7,12.2,15.3,12.2c3.6,0,6.6,3,6.6,6.6c0,3.6-3,6.6-6.6,6.6
	c-13.8,0-20.7-10-26.2-17.9c-5.4-7.8-8.7-12.2-15.3-12.2c-6.6,0-9.9,4.4-15.3,12.2c-5.5,8-12.3,17.9-26.1,17.9
	c-13.8,0-20.7-9.9-26.2-17.9c-5.4-7.8-8.7-12.2-15.3-12.2c-6.6,0-9.9,4.4-15.3,12.2c-5.5,8-12.3,17.9-26.2,17.9
	c-3.6,0-6.6-3-6.6-6.6c0-3.6,3-6.6,6.6-6.6c6.6,0,9.9-4.4,15.3-12.2C1603.6,838.4,1610.4,828.5,1624.2,828.5"/>
</svg>
