<?xml version="1.0" encoding="utf-8"?>
<!-- Generator: Adobe Illustrator 25.4.1, SVG Export Plug-In . SVG Version: 6.00 Build 0)  -->
<svg version="1.1" id="Capa_1" xmlns="http://www.w3.org/2000/svg" xmlns:xlink="http://www.w3.org/1999/xlink" x="0px" y="0px"
	 viewBox="0 0 1920 1080" style="enable-background:new 0 0 1920 1080;" xml:space="preserve">
<style type="text/css">
	.st0{fill-rule:evenodd;clip-rule:evenodd;fill:#C2DD89;}
	.st1{fill:#D6A8CA;}
	.st2{fill:#A4D0C6;}
	.st3{fill:#211F1F;stroke:#FFFFFF;stroke-miterlimit:10;}
	.st4{enable-background:new    ;}
	.st5{fill:#211F1F;}
</style>
<path class="st0" d="M1924,0.2H-2.6v886h2v72.1c0,0,442.5-141.2,1465.8,0c0,0,336.4,31,456.6,17v-89.1h2.2V0.2z"/>
<path class="st1" d="M1858.1,108.4c0,9.2-6.6,13.7-11.9,17.4c-5.2,3.6-8.1,5.8-8.1,10.2s2.9,6.6,8.1,10.2
	c5.3,3.7,11.9,8.2,11.9,17.4s-6.6,13.7-11.9,17.4c-5.2,3.6-8.1,5.8-8.1,10.2c0,2.4-2,4.4-4.4,4.4s-4.4-2-4.4-4.4
	c0-9.2,6.6-13.7,11.9-17.4c5.2-3.6,8.1-5.8,8.1-10.2s-2.9-6.6-8.1-10.2c-5.3-3.7-11.9-8.2-11.9-17.4s6.6-13.7,11.9-17.4
	c5.2-3.6,8.1-5.8,8.1-10.2c0-4.4-2.9-6.6-8.1-10.2c-5.3-3.7-11.9-8.2-11.9-17.4c0-2.4,2-4.4,4.4-4.4s4.4,2,4.4,4.4
	c0,4.4,2.9,6.6,8.1,10.2C1851.5,94.7,1858.1,99.2,1858.1,108.4"/>
<path class="st2" d="M-2.4,813.2c68.8,0,124.7-55.8,124.7-124.7c0-68.8-55.8-124.7-124.7-124.7C-2.4,563.8-2.4,813.2-2.4,813.2z"/>
<path class="st1" d="M871.7,259.1c-17.8,0-32.3-14.5-32.3-32.3s14.5-32.3,32.3-32.3S904,209,904,226.8S889.5,259.1,871.7,259.1z
	 M871.7,206.6c-11.1,0-20.1,9-20.1,20.1s9,20.1,20.1,20.1s20.1-9,20.1-20.1C891.8,215.7,882.8,206.6,871.7,206.6z"/>
<path class="st1" d="M456.5,100.7c103.7,16.9,174.1,114.8,157.1,218.5c-8.2,50.4-80.5,25.5-118.3,54
	c-40,30.1-46.9,111.9-100.2,103.2C291.4,459.5,221,361.6,238,257.9c8-49.1,66.4-40.7,102.7-69.2C381.1,157,401.9,91.8,456.5,100.7z"
	/>
<path class="st3" d="M1625.6,819.1c13.8,0,20.7,10,26.2,18c5.4,7.8,8.7,12.2,15.3,12.2c6.6,0,9.9-4.4,15.3-12.2
	c5.5-8,12.3-18,26.2-18s20.7,10,26.2,18c5.4,7.8,8.7,12.2,15.3,12.2c3.6,0,6.6,3,6.6,6.6s-3,6.6-6.6,6.6c-13.8,0-20.7-10-26.2-18
	c-5.4-7.8-8.7-12.2-15.3-12.2c-6.6,0-9.9,4.4-15.3,12.2c-5.5,8-12.3,18-26.2,18c-13.8,0-20.7-10-26.2-18
	c-5.4-7.8-8.7-12.2-15.3-12.2c-6.6,0-9.9,4.4-15.3,12.2c-5.5,8-12.3,18-26.2,18c-3.6,0-6.6-3-6.6-6.6s3-6.6,6.6-6.6
	c6.6,0,9.9-4.4,15.3-12.2C1605,829,1611.8,819.1,1625.6,819.1"/>
<g>
	<g class="st4">
		<path class="st5" d="M299.4,418.7l-7.5-17.5H258l-7.5,17.5h-19.2l34.9-80.9h17.5l34.9,80.9H299.4z M275,361.9l-10.2,23.5h20.2
			L275,361.9z"/>
		<path class="st5" d="M343.6,418.7h-17.4v-85.8h17.4V418.7z"/>
		<path class="st5" d="M361.5,348.5c-2-2-2.9-4.4-2.9-7.2c0-2.9,1-5.3,2.9-7.2c2-2,4.4-3,7.2-3c2.9,0,5.3,1,7.2,3
			c2,2,2.9,4.4,2.9,7.2c0,2.9-1,5.3-2.9,7.2c-2,2-4.4,2.9-7.2,2.9C365.9,351.5,363.4,350.5,361.5,348.5z M377.4,418.7H360v-62.2
			h17.4V418.7z"/>
		<path class="st5" d="M451,385.1v33.5h-17.5v-34c0-4.9-0.8-8.6-2.3-10.9c-1.5-2.3-3.9-3.5-7.3-3.5s-6.3,1.3-8.9,3.8
			c-2.6,2.5-3.9,6.2-3.9,11v33.5h-17.4v-62.2h17.4v7.1c4.8-5.4,10.3-8.1,16.4-8.1c3.9,0,7.5,1.2,10.7,3.5c3.2,2.3,5.6,5.1,7.2,8.4
			c2.4-3.8,5.6-6.7,9.7-8.8s8.1-3.1,12.2-3.1c7.3,0,13.2,2.2,17.7,6.5c4.5,4.4,6.7,10.7,6.7,18.9v37.8h-17.5v-34
			c0-9.6-3.5-14.3-10.5-14.3c-3.5,0-6.5,1.3-9,3.8C452.2,376.6,451,380.3,451,385.1z"/>
		<path class="st5" d="M561.4,409.7c-7,6.6-15.2,9.9-24.7,9.9c-9.4,0-17.3-2.9-23.4-8.7c-6.2-5.8-9.3-13.6-9.3-23.4
			c0-9.8,3.1-17.6,9.4-23.4c6.3-5.8,13.7-8.7,22.3-8.7c8.6,0,15.8,2.6,21.8,7.7c6,5.2,9,12.3,9,21.3v9.3h-45.3
			c0.5,3.4,2.3,6.2,5.3,8.3c3,2.2,6.4,3.2,10.2,3.2c6.1,0,11.1-2,15-6.1L561.4,409.7z M544.8,372.8c-2.4-2-5.3-3-8.7-3
			c-3.4,0-6.6,1-9.4,3.1c-2.9,2.1-4.5,4.9-5,8.4h27.3C548.5,377.6,547.1,374.8,544.8,372.8z"/>
		<path class="st5" d="M596.3,384v34.7H579v-62.2h17.4v6.9c5.2-5.3,11.1-8,17.7-8c6.6,0,12,2.3,16.5,6.9c4.4,4.6,6.7,10.8,6.7,18.5
			v37.8h-17.4v-35.2c0-9.6-3.5-14.3-10.5-14.3c-3.5,0-6.5,1.3-9.1,3.8C597.6,375.4,596.3,379.1,596.3,384z"/>
		<path class="st5" d="M672.7,368.9v27.9c0,2.4,0.6,4.3,1.9,5.6c1.2,1.3,2.7,2,4.4,2c3.2,0,6-1.5,8.2-4.4l6.5,12.1
			c-5.4,4.9-11.1,7.4-17.1,7.4c-6,0-11-2-15.2-5.9c-4.1-3.9-6.2-9.3-6.2-16.1v-28.7h-7.3v-12.5h7.3v-18.6h17.5v18.6h15v12.5H672.7z"
			/>
		<path class="st5" d="M755.7,418.7h-16.3v-7.5c-4.5,5.6-10,8.4-16.6,8.4c-6.6,0-12.1-1.9-16.6-5.7c-4.5-3.8-6.7-8.9-6.7-15.3
			s2.3-11.1,6.9-14.3c4.6-3.2,10.9-4.7,19-4.7h13v-0.3c0-6.6-3.5-9.9-10.5-9.9c-3,0-6.2,0.6-9.5,1.8c-3.4,1.2-6.2,2.7-8.5,4.5
			l-7.7-11.2c8.2-5.9,17.5-8.9,28-8.9c7.6,0,13.7,1.9,18.5,5.7c4.8,3.8,7.2,9.8,7.2,17.9V418.7z M738.3,395v-3h-10.9
			c-6.9,0-10.4,2.2-10.4,6.5c0,2.2,0.8,4,2.5,5.1c1.7,1.2,4,1.8,7.1,1.8c3.1,0,5.8-0.9,8.2-2.8C737.1,400.7,738.3,398.1,738.3,395z"
			/>
		<path class="st5" d="M801.4,404.2c5.8,0,11-2.9,15.6-8.7l10.3,11.6c-8,8.3-16.7,12.5-26,12.5c-9.3,0-17.2-3-23.7-8.8
			c-6.4-5.9-9.7-13.6-9.7-23.1c0-9.5,3.3-17.3,9.8-23.2c6.5-6,14.2-9,23.2-9c4.5,0,9,0.9,13.6,2.8c4.6,1.9,8.6,4.6,12.1,8.2l-9,11.8
			c-2-2.4-4.5-4.2-7.3-5.6c-2.9-1.3-5.8-2-8.6-2c-4.6,0-8.5,1.5-11.7,4.5c-3.3,3-4.9,7.1-4.9,12.4c0,5.3,1.6,9.4,4.9,12.3
			C793.2,402.8,797,404.2,801.4,404.2z"/>
		<path class="st5" d="M840.3,348.5c-2-2-2.9-4.4-2.9-7.2c0-2.9,1-5.3,2.9-7.2c2-2,4.4-3,7.2-3c2.9,0,5.3,1,7.2,3
			c2,2,2.9,4.4,2.9,7.2c0,2.9-1,5.3-2.9,7.2c-2,2-4.4,2.9-7.2,2.9C844.7,351.5,842.3,350.5,840.3,348.5z M856.2,418.7h-17.4v-62.2
			h17.4V418.7z"/>
		<path class="st5" d="M934.9,387.6c0,9-3.1,16.6-9.4,22.8c-6.2,6.2-14.1,9.3-23.5,9.3c-9.4,0-17.3-3.1-23.5-9.3
			c-6.2-6.2-9.4-13.8-9.4-22.8c0-9,3.1-16.6,9.4-22.8c6.2-6.2,14.1-9.3,23.5-9.3c9.4,0,17.3,3.1,23.5,9.3
			C931.8,370.9,934.9,378.5,934.9,387.6z M886.5,387.6c0,5.1,1.4,9.2,4.3,12.4c2.9,3.2,6.6,4.8,11.1,4.8c4.5,0,8.2-1.6,11.1-4.8
			c2.9-3.2,4.3-7.3,4.3-12.4c0-5.1-1.4-9.3-4.3-12.5c-2.9-3.2-6.6-4.9-11.1-4.9c-4.5,0-8.2,1.6-11.1,4.9
			C888,378.3,886.5,382.5,886.5,387.6z M908.5,348H892l14.7-20.5l17.9,7.5L908.5,348z"/>
		<path class="st5" d="M965,384v34.7h-17.4v-62.2H965v6.9c5.2-5.3,11.1-8,17.7-8c6.6,0,12,2.3,16.5,6.9c4.4,4.6,6.7,10.8,6.7,18.5
			v37.8h-17.3v-35.2c0-9.6-3.5-14.3-10.5-14.3c-3.5,0-6.5,1.3-9.1,3.8C966.3,375.4,965,379.1,965,384z"/>
		<path class="st5" d="M1023.8,417.3c-2.7-1.9-4-4.4-4-7.5c0-3.1,1-5.6,3.1-7.6c2.1-2,4.6-2.9,7.5-2.9c2.9,0,5.5,1,7.6,2.9
			c2.1,1.9,3.2,4.2,3.2,6.8c0,2.6-1.1,5.7-3.4,9.3l-6.9,11.9h-11.5L1023.8,417.3z"/>
	</g>
	<g class="st4">
		<path class="st5" d="M241.5,454c-2-2-2.9-4.4-2.9-7.2c0-2.9,1-5.3,2.9-7.2c2-2,4.4-3,7.2-3c2.9,0,5.3,1,7.2,3c2,2,2.9,4.4,2.9,7.2
			c0,2.9-1,5.3-2.9,7.2c-2,2-4.4,2.9-7.2,2.9C245.9,457,243.5,456,241.5,454z M257.4,524.2h-17.4V462h17.4V524.2z"/>
		<path class="st5" d="M331,490.6v33.5h-17.5v-34c0-4.9-0.8-8.6-2.3-10.9c-1.5-2.3-3.9-3.5-7.3-3.5s-6.3,1.3-8.9,3.8
			c-2.6,2.5-3.9,6.2-3.9,11v33.5h-17.4V462h17.4v7.1c4.8-5.4,10.3-8.1,16.4-8.1c3.9,0,7.5,1.2,10.7,3.5c3.2,2.3,5.6,5.1,7.2,8.4
			c2.4-3.8,5.6-6.7,9.7-8.8s8.1-3.1,12.2-3.1c7.3,0,13.2,2.2,17.7,6.5c4.5,4.4,6.7,10.7,6.7,18.9v37.8h-17.5v-34
			c0-9.6-3.5-14.3-10.5-14.3c-3.5,0-6.5,1.3-9,3.8C332.3,482.1,331,485.8,331,490.6z"/>
		<path class="st5" d="M440.4,524.2h-16.3v-7.5c-4.5,5.6-10,8.4-16.6,8.4c-6.6,0-12.1-1.9-16.6-5.7c-4.5-3.8-6.7-8.9-6.7-15.3
			s2.3-11.1,6.9-14.3c4.6-3.2,10.9-4.7,19-4.7h13v-0.3c0-6.6-3.5-9.9-10.5-9.9c-3,0-6.2,0.6-9.5,1.8c-3.4,1.2-6.2,2.7-8.5,4.5
			l-7.7-11.2c8.2-5.9,17.5-8.9,28-8.9c7.6,0,13.7,1.9,18.5,5.7c4.8,3.8,7.2,9.8,7.2,17.9V524.2z M423,500.5v-3h-10.9
			c-6.9,0-10.4,2.2-10.4,6.5c0,2.2,0.8,4,2.5,5.1c1.7,1.2,4,1.8,7.1,1.8c3.1,0,5.8-0.9,8.2-2.8C421.8,506.2,423,503.6,423,500.5z
			 M419.6,453.5h-16.5l14.7-20.5l17.9,7.5L419.6,453.5z"/>
		<path class="st5" d="M502.3,513.7c-5.5,6.1-12.3,9.1-20.4,9.1c-8.1,0-15-2.8-20.6-8.3c-5.6-5.5-8.4-12.9-8.4-22.1
			c0-9.2,2.9-16.8,8.6-22.7c5.7-5.9,12.3-8.8,19.7-8.8c7.4,0,13.5,3,18.4,9.1v-8.2H517v54.2c0,5.6-1,10.5-2.9,14.8
			c-1.9,4.3-4.5,7.7-7.7,10.2c-6.4,5.1-14,7.6-22.7,7.6c-4.6,0-9.4-0.8-14.2-2.3c-4.8-1.5-9-3.6-12.7-6.4l6.7-13.1
			c5.7,4.3,11.7,6.5,18.1,6.5c6.4,0,11.4-1.6,15.1-4.7C500.5,525.5,502.3,520.5,502.3,513.7z M499.9,491.7c0-5-1.4-8.9-4.2-11.7
			c-2.8-2.9-6.2-4.3-10.3-4.3c-4.1,0-7.6,1.4-10.6,4.3c-3,2.9-4.5,6.7-4.5,11.7c0,4.9,1.4,8.9,4.3,12c2.9,3,6.4,4.6,10.6,4.6
			c4.2,0,7.6-1.5,10.4-4.5C498.5,500.7,499.9,496.7,499.9,491.7z"/>
		<path class="st5" d="M587.3,515.2c-7,6.6-15.2,9.9-24.7,9.9c-9.4,0-17.3-2.9-23.4-8.7c-6.2-5.8-9.3-13.6-9.3-23.4
			c0-9.8,3.1-17.6,9.4-23.4c6.3-5.8,13.7-8.7,22.3-8.7c8.6,0,15.8,2.6,21.8,7.7c6,5.2,9,12.3,9,21.3v9.3h-45.3
			c0.5,3.4,2.3,6.2,5.3,8.3c3,2.2,6.4,3.2,10.2,3.2c6.1,0,11.1-2,15-6.1L587.3,515.2z M570.7,478.3c-2.4-2-5.3-3-8.7-3
			c-3.4,0-6.6,1-9.4,3.1c-2.9,2.1-4.5,4.9-5,8.4h27.3C574.4,483.1,573.1,480.3,570.7,478.3z"/>
		<path class="st5" d="M622.3,489.5v34.7h-17.4V462h17.4v6.9c5.2-5.3,11.1-8,17.7-8c6.6,0,12,2.3,16.5,6.9
			c4.4,4.6,6.7,10.8,6.7,18.5v37.8h-17.4V489c0-9.6-3.5-14.3-10.5-14.3c-3.5,0-6.5,1.3-9.1,3.8C623.5,480.9,622.3,484.6,622.3,489.5
			z"/>
		<path class="st5" d="M732.7,515.2c-7,6.6-15.2,9.9-24.7,9.9c-9.4,0-17.3-2.9-23.4-8.7c-6.2-5.8-9.3-13.6-9.3-23.4
			c0-9.8,3.1-17.6,9.4-23.4c6.3-5.8,13.7-8.7,22.3-8.7c8.6,0,15.8,2.6,21.8,7.7c6,5.2,9,12.3,9,21.3v9.3h-45.3
			c0.5,3.4,2.3,6.2,5.3,8.3c3,2.2,6.4,3.2,10.2,3.2c6.1,0,11.1-2,15-6.1L732.7,515.2z M716.1,478.3c-2.4-2-5.3-3-8.7-3
			c-3.4,0-6.6,1-9.4,3.1c-2.9,2.1-4.5,4.9-5,8.4h27.3C719.8,483.1,718.4,480.3,716.1,478.3z"/>
		<path class="st5" d="M797.1,504.8c0,6.1-2.3,11-6.8,14.7c-4.5,3.7-10.2,5.6-17.2,5.6c-4.6,0-9.4-0.8-14.5-2.5
			c-5-1.7-9.5-4.1-13.5-7.3l7.6-10.9c6.5,5,13.4,7.5,20.7,7.5c2.2,0,4-0.4,5.3-1.3c1.3-0.9,2-2.1,2-3.5c0-1.5-0.9-2.8-2.7-4
			c-1.8-1.2-4.4-2.4-7.9-3.5c-3.4-1.1-6.1-2-7.9-2.8c-1.8-0.8-3.9-1.9-6.2-3.4c-4.7-2.9-7.1-7.3-7.1-13c0-5.7,2.3-10.4,6.9-14.1
			c4.6-3.6,10.6-5.4,17.9-5.4c7.3,0,14.6,2.5,22,7.4l-6.5,11.6c-5.4-3.7-10.8-5.6-16.1-5.6c-5.4,0-8,1.5-8,4.4
			c0,1.6,0.8,2.9,2.5,3.8c1.7,0.9,4.5,2,8.4,3.2c3.9,1.2,6.7,2.2,8.4,2.8c1.7,0.7,3.6,1.7,6,3.1C795,494.3,797.1,498.7,797.1,504.8z
			"/>
		<path class="st5" d="M851.7,548.7c-6.1,0-11.8-2.5-17.2-7.4l7.9-12.8c2.9,2.9,5.9,4.3,9,4.3c1.6,0,3-0.8,4.2-2.4
			c1.2-1.6,1.7-3.3,1.7-5c0-1.8-8-22.9-24.1-63.4h18.5l15.2,38.7L882,462h18.5l-28.9,73.3c-1.7,4.2-4.3,7.5-7.9,9.9
			C860.1,547.5,856.1,548.7,851.7,548.7z"/>
	</g>
	<g class="st4">
		<path class="st5" d="M294,620.7c-7,6.6-15.2,9.9-24.7,9.9c-9.4,0-17.3-2.9-23.4-8.7c-6.2-5.8-9.3-13.6-9.3-23.4
			c0-9.8,3.1-17.6,9.4-23.4c6.3-5.8,13.7-8.7,22.3-8.7c8.6,0,15.8,2.6,21.8,7.7c6,5.2,9,12.3,9,21.3v9.3h-45.3
			c0.5,3.4,2.3,6.2,5.3,8.3c3,2.2,6.4,3.2,10.2,3.2c6.1,0,11.1-2,15-6.1L294,620.7z M277.3,583.8c-2.4-2-5.3-3-8.7-3
			c-3.4,0-6.6,1-9.4,3.1c-2.9,2.1-4.5,4.9-5,8.4h27.3C281.1,588.6,279.7,585.8,277.3,583.8z"/>
		<path class="st5" d="M358.4,610.3c0,6.1-2.3,11-6.8,14.7c-4.5,3.7-10.2,5.6-17.2,5.6c-4.6,0-9.4-0.8-14.5-2.5
			c-5-1.7-9.5-4.1-13.5-7.3l7.6-10.9c6.5,5,13.4,7.5,20.7,7.5c2.2,0,4-0.4,5.3-1.3c1.3-0.9,2-2.1,2-3.5c0-1.5-0.9-2.8-2.7-4
			c-1.8-1.2-4.4-2.4-7.9-3.5c-3.4-1.1-6.1-2-7.9-2.8c-1.8-0.8-3.9-1.9-6.2-3.4c-4.7-2.9-7.1-7.3-7.1-13c0-5.7,2.3-10.4,6.9-14.1
			c4.6-3.6,10.6-5.4,17.9-5.4c7.3,0,14.6,2.5,22,7.4l-6.5,11.6c-5.4-3.7-10.8-5.6-16.1-5.6c-5.4,0-8,1.5-8,4.4
			c0,1.6,0.8,2.9,2.5,3.8c1.7,0.9,4.5,2,8.4,3.2c3.9,1.2,6.7,2.2,8.4,2.8c1.7,0.7,3.6,1.7,6,3.1
			C356.3,599.8,358.4,604.2,358.4,610.3z"/>
		<path class="st5" d="M392,579.9v27.9c0,2.4,0.6,4.3,1.9,5.6c1.2,1.3,2.7,2,4.4,2c3.2,0,6-1.5,8.2-4.4l6.5,12.1
			c-5.4,4.9-11.1,7.4-17.1,7.4c-6,0-11-2-15.2-5.9c-4.1-3.9-6.2-9.3-6.2-16.1v-28.7h-7.3v-12.5h7.3v-18.6H392v18.6h15v12.5H392z"/>
		<path class="st5" d="M476,620.7c-7,6.6-15.2,9.9-24.7,9.9c-9.4,0-17.3-2.9-23.4-8.7c-6.2-5.8-9.3-13.6-9.3-23.4
			c0-9.8,3.1-17.6,9.4-23.4c6.3-5.8,13.7-8.7,22.3-8.7c8.6,0,15.8,2.6,21.8,7.7c6,5.2,9,12.3,9,21.3v9.3h-45.3
			c0.5,3.4,2.3,6.2,5.3,8.3c3,2.2,6.4,3.2,10.2,3.2c6.1,0,11.1-2,15-6.1L476,620.7z M459.4,583.8c-2.4-2-5.3-3-8.7-3
			c-3.4,0-6.6,1-9.4,3.1c-2.9,2.1-4.5,4.9-5,8.4h27.3C463.2,588.6,461.8,585.8,459.4,583.8z"/>
		<path class="st5" d="M526.4,582.7c-5.2,0-9,1.8-11.6,5.5c-2.5,3.7-3.8,8.5-3.8,14.5v27h-17.4v-62.2H511v8.2c2.2-2.5,5-4.7,8.4-6.5
			c3.4-1.8,6.8-2.7,10.2-2.8l0.1,16.3H526.4z"/>
		<path class="st5" d="M595.1,620.7c-7,6.6-15.2,9.9-24.7,9.9c-9.4,0-17.3-2.9-23.4-8.7c-6.2-5.8-9.3-13.6-9.3-23.4
			c0-9.8,3.1-17.6,9.4-23.4c6.3-5.8,13.7-8.7,22.3-8.7c8.6,0,15.8,2.6,21.8,7.7c6,5.2,9,12.3,9,21.3v9.3h-45.3
			c0.5,3.4,2.3,6.2,5.3,8.3c3,2.2,6.4,3.2,10.2,3.2c6.1,0,11.1-2,15-6.1L595.1,620.7z M578.4,583.8c-2.4-2-5.3-3-8.7-3
			c-3.4,0-6.6,1-9.4,3.1c-2.9,2.1-4.5,4.9-5,8.4h27.3C582.2,588.6,580.8,585.8,578.4,583.8z"/>
		<path class="st5" d="M674.9,598.6c0,9-3.1,16.6-9.4,22.8c-6.2,6.2-14.1,9.3-23.5,9.3c-9.4,0-17.3-3.1-23.5-9.3
			c-6.2-6.2-9.4-13.8-9.4-22.8c0-9,3.1-16.6,9.4-22.8c6.2-6.2,14.1-9.3,23.5-9.3c9.4,0,17.3,3.1,23.5,9.3
			C671.8,581.9,674.9,589.5,674.9,598.6z M626.5,598.6c0,5.1,1.4,9.2,4.3,12.4c2.9,3.2,6.6,4.8,11.1,4.8c4.5,0,8.2-1.6,11.1-4.8
			c2.9-3.2,4.3-7.3,4.3-12.4c0-5.1-1.4-9.3-4.3-12.5c-2.9-3.2-6.6-4.9-11.1-4.9c-4.5,0-8.2,1.6-11.1,4.9
			C628,589.3,626.5,593.5,626.5,598.6z"/>
		<path class="st5" d="M707.3,579.9v27.9c0,2.4,0.6,4.3,1.9,5.6c1.2,1.3,2.7,2,4.4,2c3.2,0,6-1.5,8.2-4.4l6.5,12.1
			c-5.4,4.9-11.1,7.4-17.1,7.4c-6,0-11-2-15.2-5.9c-4.1-3.9-6.2-9.3-6.2-16.1v-28.7h-7.3v-12.5h7.3v-18.6h17.5v18.6h15v12.5H707.3z"
			/>
		<path class="st5" d="M738.9,559.5c-2-2-2.9-4.4-2.9-7.2c0-2.9,1-5.3,2.9-7.2c2-2,4.4-3,7.2-3c2.9,0,5.3,1,7.2,3
			c2,2,2.9,4.4,2.9,7.2c0,2.9-1,5.3-2.9,7.2c-2,2-4.4,2.9-7.2,2.9C743.3,562.5,740.9,561.5,738.9,559.5z M754.8,629.7h-17.4v-62.2
			h17.4V629.7z"/>
		<path class="st5" d="M807.4,566.4c7.2,0,13.7,3,19.4,9.1c5.7,6.1,8.5,13.7,8.5,22.8c0,9.2-2.8,16.8-8.5,23
			c-5.7,6.2-12.3,9.3-19.9,9.3c-7.6,0-13.7-3-18.3-9.1v30.7h-17.4v-84.7h17.4v6.9C793.9,569.1,800.2,566.4,807.4,566.4z
			 M788.3,598.6c0,5.1,1.4,9.2,4.2,12.4c2.8,3.2,6.2,4.8,10.2,4.8c4,0,7.5-1.6,10.5-4.8c3-3.2,4.5-7.3,4.5-12.3
			c0-5-1.5-9.2-4.4-12.6c-2.9-3.4-6.4-5.1-10.5-5.1c-4.1,0-7.5,1.7-10.4,5C789.8,589.4,788.3,593.6,788.3,598.6z"/>
		<path class="st5" d="M910.5,598.6c0,9-3.1,16.6-9.4,22.8c-6.2,6.2-14.1,9.3-23.5,9.3c-9.4,0-17.3-3.1-23.5-9.3
			c-6.2-6.2-9.4-13.8-9.4-22.8c0-9,3.1-16.6,9.4-22.8c6.2-6.2,14.1-9.3,23.5-9.3c9.4,0,17.3,3.1,23.5,9.3
			C907.4,581.9,910.5,589.5,910.5,598.6z M862.1,598.6c0,5.1,1.4,9.2,4.3,12.4c2.9,3.2,6.6,4.8,11.1,4.8c4.5,0,8.2-1.6,11.1-4.8
			c2.9-3.2,4.3-7.3,4.3-12.4c0-5.1-1.4-9.3-4.3-12.5c-2.9-3.2-6.6-4.9-11.1-4.9c-4.5,0-8.2,1.6-11.1,4.9
			C863.6,589.3,862.1,593.5,862.1,598.6z"/>
		<path class="st5" d="M969.6,610.3c0,6.1-2.3,11-6.8,14.7c-4.5,3.7-10.2,5.6-17.2,5.6c-4.6,0-9.4-0.8-14.5-2.5
			c-5-1.7-9.5-4.1-13.5-7.3l7.6-10.9c6.5,5,13.4,7.5,20.7,7.5c2.2,0,4-0.4,5.3-1.3c1.3-0.9,2-2.1,2-3.5c0-1.5-0.9-2.8-2.7-4
			c-1.8-1.2-4.4-2.4-7.9-3.5c-3.4-1.1-6.1-2-7.9-2.8c-1.8-0.8-3.9-1.9-6.2-3.4c-4.7-2.9-7.1-7.3-7.1-13c0-5.7,2.3-10.4,6.9-14.1
			c4.6-3.6,10.6-5.4,17.9-5.4c7.3,0,14.6,2.5,22,7.4l-6.5,11.6c-5.4-3.7-10.8-5.6-16.1-5.6c-5.4,0-8,1.5-8,4.4
			c0,1.6,0.8,2.9,2.5,3.8c1.7,0.9,4.5,2,8.4,3.2c3.9,1.2,6.7,2.2,8.4,2.8c1.7,0.7,3.6,1.7,6,3.1
			C967.4,599.8,969.6,604.2,969.6,610.3z"/>
	</g>
</g>
<image style="overflow:visible;enable-background:new    ;" width="1518" height="1390" xlink:href="../../../Creative Cloud Files/2021/SALUD 2021/DATTO WEB/datto web final/16.png"  transform="matrix(0.4315 0 0 0.4315 1063.0851 189.6023)">
</image>
</svg>
