<?xml version="1.0" encoding="utf-8"?>
<!-- Generator: Adobe Illustrator 25.2.3, SVG Export Plug-In . SVG Version: 6.00 Build 0)  -->
<svg version="1.1" id="Capa_1" xmlns="http://www.w3.org/2000/svg" xmlns:xlink="http://www.w3.org/1999/xlink" x="0px" y="0px"
	 viewBox="0 0 1920 1911" style="enable-background:new 0 0 1920 1911;" xml:space="preserve">
<style type="text/css">
	.st0{fill:#211F1F;}
	.st1{fill:none;}
	.st2{opacity:0.1;}
	.st3{clip-path:url(#SVGID_2_);}
	.st4{fill:none;stroke:#FFFFFF;stroke-width:2.0635;stroke-miterlimit:10;}
	.st5{opacity:0.1;fill:#65A4C5;enable-background:new    ;}
	.st6{fill:#C8B5EE;}
	.st7{opacity:0.3;}
	.st8{fill:#0C1A3C;}
	.st9{opacity:0.5;fill:#0C1A3C;enable-background:new    ;}
	.st10{opacity:0.6;fill:#0C1A3C;enable-background:new    ;}
	.st11{fill:#FFFFFF;stroke:#231F20;stroke-width:2;stroke-linecap:round;stroke-linejoin:round;stroke-miterlimit:10;}
	.st12{fill:#E2EE6A;}
	.st13{fill:#231F20;stroke:#231F20;stroke-width:2;stroke-linecap:round;stroke-linejoin:round;stroke-miterlimit:10;}
	.st14{fill:none;stroke:#231F20;stroke-width:2;stroke-linecap:round;stroke-linejoin:round;stroke-miterlimit:10;}
	.st15{fill:none;stroke:#CDE894;stroke-width:2;stroke-linecap:round;stroke-linejoin:round;stroke-miterlimit:10;}
	.st16{fill:#83B6CC;}
	.st17{fill:#231F20;}
	.st18{fill:#CDE894;stroke:#231F20;stroke-width:2;stroke-miterlimit:10;}
	.st19{clip-path:url(#SVGID_4_);}
	.st20{opacity:0.4;fill:#0C1A3C;enable-background:new    ;}
	.st21{opacity:0.7;fill:#0C1A3C;enable-background:new    ;}
	.st22{enable-background:new    ;}
	.st23{fill:#FFFFFF;}
	.st24{fill:none;stroke:#FFFFFF;stroke-width:4;stroke-linecap:round;stroke-linejoin:round;stroke-miterlimit:10;}
</style>
<polygon class="st0" points="1921.4,1394 1921.4,1911 -2.8,1911 -2.8,1390.6 0,1326.4 987.5,1326.4 1923.4,1326.4 "/>
<path class="st0" d="M1921.4,1324V187.5h-0.4l-0.5-174c-120-27.6-457.3,32.2-457.3,32.2c-1022,277.8-1464,0-1464,0v141.9h-2v1139.8"
	/>
<rect x="6183.5" y="-1452" class="st1" width="1920.5" height="544"/>
<g>
	<g>
		<g class="st2">
			<g>
				<defs>
					<polygon id="SVGID_1_" points="1923.4,941.3 0,941.3 0,44.1 1923.4,0 					"/>
				</defs>
				<clipPath id="SVGID_2_">
					<use xlink:href="#SVGID_1_"  style="overflow:visible;"/>
				</clipPath>
				<g class="st3">
					<g>
						<rect x="-37" y="25.1" class="st4" width="142.7" height="73.3"/>
						<rect x="105.7" y="25.1" class="st4" width="142.7" height="73.3"/>
						<rect x="248.4" y="25.1" class="st4" width="142.7" height="73.3"/>
						<rect x="391" y="25.1" class="st4" width="142.7" height="73.3"/>
						<rect x="533.7" y="25.1" class="st4" width="142.7" height="73.3"/>
						<rect x="676.4" y="25.1" class="st4" width="142.7" height="73.3"/>
						<rect x="819" y="25.1" class="st4" width="142.7" height="73.3"/>
						<rect x="961.7" y="25.1" class="st4" width="142.7" height="73.3"/>
						<rect x="1104.4" y="25.1" class="st4" width="142.7" height="73.3"/>
						<rect x="1247" y="25.1" class="st4" width="142.7" height="73.3"/>
						<rect x="1389.7" y="25.1" class="st4" width="142.7" height="73.3"/>
						<rect x="1532.4" y="25.1" class="st4" width="142.7" height="73.3"/>
						<rect x="1675" y="25.1" class="st4" width="142.7" height="73.3"/>
						<rect x="1817.7" y="25.1" class="st4" width="142.7" height="73.3"/>
					</g>
					<g>
						<rect x="-108.3" y="98.3" class="st4" width="142.7" height="73.3"/>
						<rect x="34.4" y="98.3" class="st4" width="142.7" height="73.3"/>
						<rect x="177" y="98.3" class="st4" width="142.7" height="73.3"/>
						<rect x="319.7" y="98.3" class="st4" width="142.7" height="73.3"/>
						<rect x="462.4" y="98.3" class="st4" width="142.7" height="73.3"/>
						<rect x="605" y="98.3" class="st4" width="142.7" height="73.3"/>
						<rect x="747.7" y="98.3" class="st4" width="142.7" height="73.3"/>
						<rect x="890.4" y="98.3" class="st4" width="142.7" height="73.3"/>
						<rect x="1033" y="98.3" class="st4" width="142.7" height="73.3"/>
						<rect x="1175.7" y="98.3" class="st4" width="142.7" height="73.3"/>
						<rect x="1318.4" y="98.3" class="st4" width="142.7" height="73.3"/>
						<rect x="1461" y="98.3" class="st4" width="142.7" height="73.3"/>
						<rect x="1603.7" y="98.3" class="st4" width="142.7" height="73.3"/>
						<rect x="1746.4" y="98.3" class="st4" width="142.7" height="73.3"/>
						<rect x="1889" y="98.3" class="st4" width="142.7" height="73.3"/>
					</g>
					<g>
						<rect x="-37" y="171.6" class="st4" width="142.7" height="73.3"/>
						<rect x="105.7" y="171.6" class="st4" width="142.7" height="73.3"/>
						<rect x="248.4" y="171.6" class="st4" width="142.7" height="73.3"/>
						<rect x="391" y="171.6" class="st4" width="142.7" height="73.3"/>
						<rect x="533.7" y="171.6" class="st4" width="142.7" height="73.3"/>
						<rect x="676.4" y="171.6" class="st4" width="142.7" height="73.3"/>
						<rect x="819" y="171.6" class="st4" width="142.7" height="73.3"/>
						<rect x="961.7" y="171.6" class="st4" width="142.7" height="73.3"/>
						<rect x="1104.4" y="171.6" class="st4" width="142.7" height="73.3"/>
						<rect x="1247" y="171.6" class="st4" width="142.7" height="73.3"/>
						<rect x="1389.7" y="171.6" class="st4" width="142.7" height="73.3"/>
						<rect x="1532.4" y="171.6" class="st4" width="142.7" height="73.3"/>
						<rect x="1675" y="171.6" class="st4" width="142.7" height="73.3"/>
						<rect x="1817.7" y="171.6" class="st4" width="142.7" height="73.3"/>
					</g>
					<g>
						<rect x="-108.3" y="244.9" class="st4" width="142.7" height="73.3"/>
						<rect x="34.4" y="244.9" class="st4" width="142.7" height="73.3"/>
						<rect x="177" y="244.9" class="st4" width="142.7" height="73.3"/>
						<rect x="319.7" y="244.9" class="st4" width="142.7" height="73.3"/>
						<rect x="462.4" y="244.9" class="st4" width="142.7" height="73.3"/>
						<rect x="605" y="244.9" class="st4" width="142.7" height="73.3"/>
						<rect x="747.7" y="244.9" class="st4" width="142.7" height="73.3"/>
						<rect x="890.4" y="244.9" class="st4" width="142.7" height="73.3"/>
						<rect x="1033" y="244.9" class="st4" width="142.7" height="73.3"/>
						<rect x="1175.7" y="244.9" class="st4" width="142.7" height="73.3"/>
						<rect x="1318.4" y="244.9" class="st4" width="142.7" height="73.3"/>
						<rect x="1461" y="244.9" class="st4" width="142.7" height="73.3"/>
						<rect x="1603.7" y="244.9" class="st4" width="142.7" height="73.3"/>
						<rect x="1746.4" y="244.9" class="st4" width="142.7" height="73.3"/>
						<rect x="1889" y="244.9" class="st4" width="142.7" height="73.3"/>
					</g>
					<g>
						<rect x="-37" y="318.1" class="st4" width="142.7" height="73.3"/>
						<rect x="105.7" y="318.1" class="st4" width="142.7" height="73.3"/>
						<rect x="248.4" y="318.1" class="st4" width="142.7" height="73.3"/>
						<rect x="391" y="318.1" class="st4" width="142.7" height="73.3"/>
						<rect x="533.7" y="318.1" class="st4" width="142.7" height="73.3"/>
						<rect x="676.4" y="318.1" class="st4" width="142.7" height="73.3"/>
						<rect x="819" y="318.1" class="st4" width="142.7" height="73.3"/>
						<rect x="961.7" y="318.1" class="st4" width="142.7" height="73.3"/>
						<rect x="1104.4" y="318.1" class="st4" width="142.7" height="73.3"/>
						<rect x="1247" y="318.1" class="st4" width="142.7" height="73.3"/>
						<rect x="1389.7" y="318.1" class="st4" width="142.7" height="73.3"/>
						<rect x="1532.4" y="318.1" class="st4" width="142.7" height="73.3"/>
						<rect x="1675" y="318.1" class="st4" width="142.7" height="73.3"/>
						<rect x="1817.7" y="318.1" class="st4" width="142.7" height="73.3"/>
					</g>
					<g>
						<rect x="-108.3" y="391.4" class="st4" width="142.7" height="73.3"/>
						<rect x="34.4" y="391.4" class="st4" width="142.7" height="73.3"/>
						<rect x="177" y="391.4" class="st4" width="142.7" height="73.3"/>
						<rect x="319.7" y="391.4" class="st4" width="142.7" height="73.3"/>
						<rect x="462.4" y="391.4" class="st4" width="142.7" height="73.3"/>
						<rect x="605" y="391.4" class="st4" width="142.7" height="73.3"/>
						<rect x="747.7" y="391.4" class="st4" width="142.7" height="73.3"/>
						<rect x="890.4" y="391.4" class="st4" width="142.7" height="73.3"/>
						<rect x="1033" y="391.4" class="st4" width="142.7" height="73.3"/>
						<rect x="1175.7" y="391.4" class="st4" width="142.7" height="73.3"/>
						<rect x="1318.4" y="391.4" class="st4" width="142.7" height="73.3"/>
						<rect x="1461" y="391.4" class="st4" width="142.7" height="73.3"/>
						<rect x="1603.7" y="391.4" class="st4" width="142.7" height="73.3"/>
						<rect x="1746.4" y="391.4" class="st4" width="142.7" height="73.3"/>
						<rect x="1889" y="391.4" class="st4" width="142.7" height="73.3"/>
					</g>
					<g>
						<rect x="-37" y="464.6" class="st4" width="142.7" height="73.3"/>
						<rect x="105.7" y="464.6" class="st4" width="142.7" height="73.3"/>
						<rect x="248.4" y="464.6" class="st4" width="142.7" height="73.3"/>
						<rect x="391" y="464.6" class="st4" width="142.7" height="73.3"/>
						<rect x="533.7" y="464.6" class="st4" width="142.7" height="73.3"/>
						<rect x="676.4" y="464.6" class="st4" width="142.7" height="73.3"/>
						<rect x="819" y="464.6" class="st4" width="142.7" height="73.3"/>
						<rect x="961.7" y="464.6" class="st4" width="142.7" height="73.3"/>
						<rect x="1104.4" y="464.6" class="st4" width="142.7" height="73.3"/>
						<rect x="1247" y="464.6" class="st4" width="142.7" height="73.3"/>
						<rect x="1389.7" y="464.6" class="st4" width="142.7" height="73.3"/>
						<rect x="1532.4" y="464.6" class="st4" width="142.7" height="73.3"/>
						<rect x="1675" y="464.6" class="st4" width="142.7" height="73.3"/>
						<rect x="1817.7" y="464.6" class="st4" width="142.7" height="73.3"/>
					</g>
					<g>
						<rect x="-108.3" y="537.9" class="st4" width="142.7" height="73.3"/>
						<rect x="34.4" y="537.9" class="st4" width="142.7" height="73.3"/>
						<rect x="177" y="537.9" class="st4" width="142.7" height="73.3"/>
						<rect x="319.7" y="537.9" class="st4" width="142.7" height="73.3"/>
						<rect x="462.4" y="537.9" class="st4" width="142.7" height="73.3"/>
						<rect x="605" y="537.9" class="st4" width="142.7" height="73.3"/>
						<rect x="747.7" y="537.9" class="st4" width="142.7" height="73.3"/>
						<rect x="890.4" y="537.9" class="st4" width="142.7" height="73.3"/>
						<rect x="1033" y="537.9" class="st4" width="142.7" height="73.3"/>
						<rect x="1175.7" y="537.9" class="st4" width="142.7" height="73.3"/>
						<rect x="1318.4" y="537.9" class="st4" width="142.7" height="73.3"/>
						<rect x="1461" y="537.9" class="st4" width="142.7" height="73.3"/>
						<rect x="1603.7" y="537.9" class="st4" width="142.7" height="73.3"/>
						<rect x="1746.4" y="537.9" class="st4" width="142.7" height="73.3"/>
						<rect x="1889" y="537.9" class="st4" width="142.7" height="73.3"/>
					</g>
					<g>
						<rect x="-37" y="611.2" class="st4" width="142.7" height="73.3"/>
						<rect x="105.7" y="611.2" class="st4" width="142.7" height="73.3"/>
						<rect x="248.4" y="611.2" class="st4" width="142.7" height="73.3"/>
						<rect x="391" y="611.2" class="st4" width="142.7" height="73.3"/>
						<rect x="533.7" y="611.2" class="st4" width="142.7" height="73.3"/>
						<rect x="676.4" y="611.2" class="st4" width="142.7" height="73.3"/>
						<rect x="819" y="611.2" class="st4" width="142.7" height="73.3"/>
						<rect x="961.7" y="611.2" class="st4" width="142.7" height="73.3"/>
						<rect x="1104.4" y="611.2" class="st4" width="142.7" height="73.3"/>
						<rect x="1247" y="611.2" class="st4" width="142.7" height="73.3"/>
						<rect x="1389.7" y="611.2" class="st4" width="142.7" height="73.3"/>
						<rect x="1532.4" y="611.2" class="st4" width="142.7" height="73.3"/>
						<rect x="1675" y="611.2" class="st4" width="142.7" height="73.3"/>
						<rect x="1817.7" y="611.2" class="st4" width="142.7" height="73.3"/>
					</g>
					<g>
						<rect x="-108.3" y="684.4" class="st4" width="142.7" height="73.3"/>
						<rect x="34.4" y="684.4" class="st4" width="142.7" height="73.3"/>
						<rect x="177" y="684.4" class="st4" width="142.7" height="73.3"/>
						<rect x="319.7" y="684.4" class="st4" width="142.7" height="73.3"/>
						<rect x="462.4" y="684.4" class="st4" width="142.7" height="73.3"/>
						<rect x="605" y="684.4" class="st4" width="142.7" height="73.3"/>
						<rect x="747.7" y="684.4" class="st4" width="142.7" height="73.3"/>
						<rect x="890.4" y="684.4" class="st4" width="142.7" height="73.3"/>
						<rect x="1033" y="684.4" class="st4" width="142.7" height="73.3"/>
						<rect x="1175.7" y="684.4" class="st4" width="142.7" height="73.3"/>
						<rect x="1318.4" y="684.4" class="st4" width="142.7" height="73.3"/>
						<rect x="1461" y="684.4" class="st4" width="142.7" height="73.3"/>
						<rect x="1603.7" y="684.4" class="st4" width="142.7" height="73.3"/>
						<rect x="1746.4" y="684.4" class="st4" width="142.7" height="73.3"/>
						<rect x="1889" y="684.4" class="st4" width="142.7" height="73.3"/>
					</g>
					<g>
						<rect x="-37" y="757.7" class="st4" width="142.7" height="73.3"/>
						<rect x="105.7" y="757.7" class="st4" width="142.7" height="73.3"/>
						<rect x="248.4" y="757.7" class="st4" width="142.7" height="73.3"/>
						<rect x="391" y="757.7" class="st4" width="142.7" height="73.3"/>
						<rect x="533.7" y="757.7" class="st4" width="142.7" height="73.3"/>
						<rect x="676.4" y="757.7" class="st4" width="142.7" height="73.3"/>
						<rect x="819" y="757.7" class="st4" width="142.7" height="73.3"/>
						<rect x="961.7" y="757.7" class="st4" width="142.7" height="73.3"/>
						<rect x="1104.4" y="757.7" class="st4" width="142.7" height="73.3"/>
						<rect x="1247" y="757.7" class="st4" width="142.7" height="73.3"/>
						<rect x="1389.7" y="757.7" class="st4" width="142.7" height="73.3"/>
						<rect x="1532.4" y="757.7" class="st4" width="142.7" height="73.3"/>
						<rect x="1675" y="757.7" class="st4" width="142.7" height="73.3"/>
						<rect x="1817.7" y="757.7" class="st4" width="142.7" height="73.3"/>
					</g>
					<g>
						<rect x="-108.3" y="831" class="st4" width="142.7" height="73.3"/>
						<rect x="34.4" y="831" class="st4" width="142.7" height="73.3"/>
						<rect x="177" y="831" class="st4" width="142.7" height="73.3"/>
						<rect x="319.7" y="831" class="st4" width="142.7" height="73.3"/>
						<rect x="462.4" y="831" class="st4" width="142.7" height="73.3"/>
						<rect x="605" y="831" class="st4" width="142.7" height="73.3"/>
						<rect x="747.7" y="831" class="st4" width="142.7" height="73.3"/>
						<rect x="890.4" y="831" class="st4" width="142.7" height="73.3"/>
						<rect x="1033" y="831" class="st4" width="142.7" height="73.3"/>
						<rect x="1175.7" y="831" class="st4" width="142.7" height="73.3"/>
						<rect x="1318.4" y="831" class="st4" width="142.7" height="73.3"/>
						<rect x="1461" y="831" class="st4" width="142.7" height="73.3"/>
						<rect x="1603.7" y="831" class="st4" width="142.7" height="73.3"/>
						<rect x="1746.4" y="831" class="st4" width="142.7" height="73.3"/>
						<rect x="1889" y="831" class="st4" width="142.7" height="73.3"/>
					</g>
				</g>
			</g>
		</g>
		<circle class="st5" cx="946" cy="714.3" r="511.6"/>
	</g>
	<g>
		<rect y="896.6" class="st6" width="1923.4" height="429.8"/>
		<g class="st7">
			<ellipse class="st8" cx="211.6" cy="1064.8" rx="26.9" ry="11.3"/>
			<ellipse class="st8" cx="456.5" cy="1117.2" rx="21.8" ry="6.4"/>
			<ellipse class="st8" cx="1641.3" cy="1117.2" rx="21.8" ry="6.4"/>
			<ellipse class="st8" cx="1215.2" cy="1259.8" rx="21.8" ry="6.4"/>
			<ellipse class="st8" cx="308.5" cy="1283.7" rx="21.8" ry="6.4"/>
			<path class="st8" d="M1382.1,922.6c0,2.8-6,5.1-13.4,5.1s-13.4-2.3-13.4-5.1s6-5.1,13.4-5.1S1382.1,919.8,1382.1,922.6z"/>
			<path class="st8" d="M1537.9,979.2c0,6.6-11.7,12-26.1,12c-14.4,0-26.1-5.4-26.1-12c0-6.6,11.7-12,26.1-12
				C1526.2,967.2,1537.9,972.6,1537.9,979.2z"/>
			<path class="st8" d="M1826.4,1207.2c0,6.6-11.7,12-26.1,12c-14.4,0-26.1-5.4-26.1-12s11.7-12,26.1-12
				C1814.7,1195.2,1826.4,1200.6,1826.4,1207.2z"/>
			<path class="st8" d="M729.3,1241.4c0,7.6-15.4,13.7-34.3,13.7s-34.3-6.1-34.3-13.7c0-7.6,15.4-13.7,34.3-13.7
				C713.9,1227.7,729.3,1233.8,729.3,1241.4z"/>
			<path class="st8" d="M1716.5,935.2c0,3.3-5.4,6-12,6s-12-2.7-12-6s5.4-6,12-6S1716.5,931.9,1716.5,935.2z"/>
			<path class="st8" d="M1850.3,1039.3c0,3.3-5.4,6-12,6s-12-2.7-12-6c0-3.3,5.4-6,12-6C1845,1033.3,1850.3,1036,1850.3,1039.3z"/>
			<ellipse class="st8" cx="101.3" cy="954.6" rx="25.7" ry="10.8"/>
		</g>
	</g>
	<path class="st9" d="M1424.2,896.6c-73.4,192.6-259.9,329.3-478.2,329.3s-404.7-136.8-478.2-329.3L1424.2,896.6L1424.2,896.6z"/>
	<g>
		<path class="st10" d="M531.9,980.7c-67.1-9.1-86.5,53.6,4.5,62.2c91.1,8.7,136.6,0.4,158.1-13.2c8.7-5.5,10-11.7,8.4-17
			c-2.2-7.6,2.9-15.5,10.7-17.1c11.5-2.3,24.8-6.3,31.8-12.9C759.2,969.6,577.8,987,531.9,980.7z"/>
		<path class="st10" d="M910.5,992.2c-1.5,1.5-86.3,12.6-131.5,15.6c-45.2,3-59.7,7-59.2,13.5c0.5,6.5,45.7,10.8,45.7,10.8
			s-23.1,11.3-19.1,16.6c4,5.3,87.3-14.4,100.8-16.6c13.5-2.2,47.4,11.3,73.4,26.4c26,15.1,0.4,25.1-10.7,39.6s20,22.1,56.9,19.3
			c36.9-2.8,104.5-63.6,126.1-78.1c21.7-14.5,42.8-22.1,73.3-19c30.5,3.1,44.9,29.8,63.2,44.7c18.3,14.9,21.5-123.1-44.9-140.1
			C1118.2,907.8,910.5,992.2,910.5,992.2z"/>
		<g>
			<g>
				<g>
					<g>
						<path class="st11" d="M904,866.7c-3.5,8-7.8,17.1-12.5,26.7c-23,46.8-56.2,104.8-56.2,104.8c-0.3,22.8-24.9,26-40.8,31.4
							c-15.8,5.4-37.2,18.4-45,11.3c-7.8-7.1,18.1-19.6,18.1-19.6c-16.8,1.4-49.1,0.5-50.8-6.3c-1.8-6.8,2.5-8.5,27.2-12.1
							c24.6-3.6,46.8-14.8,46.8-14.8L834,850l1.3-4.2C846.5,810.2,924.5,819.5,904,866.7z"/>
					</g>
					<g>
						<path class="st12" d="M936.5,811.2l-21.3,42.6v0l-9.3,18.5c-55.5,1.4-75.3-22.1-75.3-22.1s2.7-8.5,7.1-21.7
							c12.5-36.9,38.8-109.9,58.1-130.4l26.9,74.8L936.5,811.2z"/>
						<polygon class="st13" points="936.5,811.2 915.5,856.6 904.7,746 922.8,773 						"/>
						<path class="st13" d="M915.2,853.8c-1.9,7-5.1,13.8-9.5,20.2c-55.5,1.4-77-22.7-77-22.7s-1.7-13.6,5.5-24.6
							C843.4,833.8,870.2,849.3,915.2,853.8z"/>
					</g>
				</g>
				<path class="st12" d="M1174.7,869.5c-80.5,1.9-200,69.7-200,69.7s-33-73.9-55.5-133.7c-22.6-59.8-23.3-107.3-23.3-107.3
					s28.7-33.9,78.8-51.1l86.6-36c3.8,14.2,14.8,41.6,28.5,73.4c7.3,16.8,15.3,34.8,23.4,52.8
					C1143.2,803.8,1174.7,869.5,1174.7,869.5z"/>
				<path class="st13" d="M1114.5,732.4l-84.1-10.7l59.4-37.3C1100.2,698.2,1109.1,714.3,1114.5,732.4z"/>
				<path class="st14" d="M896.2,705.2c1.1,15.3,1.6,58,19,104.1"/>
				<g>
					<path class="st11" d="M1006.2,666.8c0,0-0.1,4.7-4,10c-2.8,3.8-7.7,7.8-16,10.5c-19.8,6.4-29.7-3.5-29.7-3.5
						s-13.2-50.1-13.4-50.8l25.8,4.9l27.9,5.3L1006.2,666.8z"/>
					<path class="st13" d="M1006.2,666.8c0,0-0.1,4.7-4,10c-9.8-2.7-18.8-8.5-26.8-17.7l-6.5-21.3l27.9,5.3L1006.2,666.8z"/>
					<path class="st11" d="M972.1,658.2c7.7,2.5,16,3.3,24.7,1.7c39.2-7.2,10.4-113-36.1-110.5c-44.9,2.4-42.4,48-34.5,66.2
						c3.7,8.5,11.8,20.2,22.9,29.5"/>
					<path class="st13" d="M995.2,569.1c0,0,28.1-18.2,10.7-40.9c-17.4-22.8-33-0.9-42.7,3.5s-38.8,1.7-46.6,14.9
						s0.8,30.6-16.5,43.3s-16.3,31.7,1.1,43.1c17.4,11.4,7.7,27.5,21.3,34.9c13.7,7.4,28.5-4.8,28.5-4.8l-5.6-21.1l-7.7-10.8
						c0,0,3-10.2-6.8-16.3c0,0,8.5-5.5,3.6-17.6c-4.9-12.1,3.5-18.4,23.2-14.3c19.8,4.1,30.7-10.1,31.9-20.2L995.2,569.1z"/>
					<path class="st15" d="M1005.3,563.7c6.8-7.2,11.7-21,0.6-35.5c-17.4-22.8-33-0.9-42.7,3.5s-38.8,1.7-46.6,14.9
						s0.8,30.6-16.5,43.3s-16.3,31.7,1.1,43.1c17.4,11.4,4.5,24.4,20.4,36.1c5.3,3.9,11,5.5,19.4,4.7"/>
					<path class="st11" d="M941.2,629.1c0,0-19-2.3-16.5,12.4s21,13.7,30.4,3.5"/>
					<g>
						<line class="st14" x1="938.2" y1="628" x2="957" y2="609.8"/>
						<path class="st11" d="M982,604.3c0,7.2-5.9,13.1-13.1,13.1c-7.2,0-13.1-5.9-13.1-13.1c0-7.2,5.9-13.1,13.1-13.1
							C976.1,591.1,982,597,982,604.3z"/>
						<path class="st11" d="M1016.5,589.3c0,7.2-5.9,13.1-13.1,13.1s-13.1-5.9-13.1-13.1c0-7.2,5.9-13.1,13.1-13.1
							S1016.5,582.1,1016.5,589.3z"/>
						<path class="st14" d="M979.8,597c0,0,3.2-7.7,10.7-4.8"/>
					</g>
				</g>
				<g>
					<path class="st11" d="M1132.3,672.8c-2.3,1.3-4.6,2.7-7,3.9c-3.3,1.8-6.8,3.6-10.3,5.3c-7.1,3.4-14.5,6.5-22.3,9.4
						c0,0-38.8-29.6-31.5-80.3c0,0,18.4-6.7,40.8-12.2c5.7-1.4,11.6-2.8,17.6-3.9c3.6-0.7,7.1-1.3,10.7-1.8
						c22.2-3.3,42.7-2.6,48.4,8.9C1189.4,623.5,1168.7,651.2,1132.3,672.8z"/>
					<g>
						<path class="st12" d="M1125.3,676.7c-3.3,1.8-6.8,3.6-10.3,5.3c-7.1,3.4-14.5,6.5-22.3,9.4c0,0-41.2-28.6-33.9-79.3
							c0,0,19.3-11,43.2-13.2c5.8-0.5,11.6-2.8,17.6-3.9C1109,620.5,1118.8,657.4,1125.3,676.7z"/>
						<path class="st14" d="M1092.8,691.3c0,0-34.8-26.2-34.5-69.9"/>
						<path class="st13" d="M1132.3,672.8c-5.4,3.2-11.2,6.3-17.3,9.2c-25.4-37.6-18.9-68.3-13-83.1c9.4-4.7,18-7.4,28.3-5.7
							C1111.3,625.7,1125.2,659.4,1132.3,672.8z"/>
					</g>
				</g>
				<g>
					<path class="st11" d="M1174.7,597.2c18,13.8,28.9,35.7-13.9,76c-41.2,38.8-127.3,56-127.3,56s-15.9,19.5-35.2,35
						c-4.5,3.6-9.2,7-13.8,9.9c-5.8,3.6-10.9,6.4-15.4,8.8c-8.2,4.2-14.1,6.4-17.7,7.5c-2.4,0.8-5-0.4-6-2.7c-0.3-0.7-0.4-1.3-0.4-2
						c0-1.6,0.7-3.1,2-4l23.7-17.1c-1.8,1.1-17,10-30.4,16.1c-3.3,1.5-7.2-0.1-8.5-3.5c-0.3-0.7-0.4-1.5-0.4-2.2
						c0-2.1,1.1-4.2,3-5.4l27-16.3l-23.6,10.1c-3.3,1.4-7.1-0.4-8.1-3.9c-0.2-0.5-0.2-1-0.2-1.6c0-2.1,1.1-4,2.9-5.1
						c6.5-3.8,19.6-11.4,27.1-14.9c-1.3,0.5-11.8,4.6-20.1,8.3c-3.4,1.5-7.3-0.7-7.8-4.4c0-0.2,0-0.5,0-0.7c0-1.8,0.8-3.5,2.3-4.6
						c5.7-3.9,19.1-12.7,31.6-16.6c0,0,18.4-20.7,42.6-30.6c0,0,69.4-64.2,121.4-87.4"/>
					<path class="st14" d="M1166.4,593.3c0,0,9.6,2.7,17.2,12.5"/>
					<path class="st13" d="M998.3,764.3c-4.5,3.6-9.2,7-13.8,9.9c-5.8,3.6-10.9,6.4-15.4,8.8c11.7-13.7,9.5-41.4,25.1-51.5
						L998.3,764.3z"/>
					<path class="st14" d="M966.9,728.5c0,0,3.2,23.1,16,38.5"/>
					<path class="st11" d="M996.6,727.5c0,0-12.5,15.8-3.3,34.2c0,0-9.5,21.5-3.4,32s8.3,2,14.1-11c5.8-13,27.6-35.1,29.5-54.9"/>
					<path class="st14" d="M981.6,729.3c0,0,6.3,1,15-1.8"/>
				</g>
				<g>
					<path class="st16" d="M974.6,925.5c0,0,41.4,76.1,60.7,88.3c19.3,12.2,64.4,0.9,83.9-14.1c0,0,48.7-10.7,65.5-27.5
						s-7.6-90.3-15.9-111.6C1160.5,839.5,1013.6,872.7,974.6,925.5z"/>
					<g>
						<path class="st16" d="M1060.8,882.2c0,0,27.9,40.2,52,100.7"/>
						<path class="st16" d="M1079.1,874.1c0,0,19.4,26.7,28.4,51.3c3,8.3,1.9,17.5-3.2,24.8l-3.4,4.9"/>
					</g>
				</g>
				<path class="st16" d="M1292.8,837.5c-13.9,42.4-31.2,96.8-72.7,130.6c-15.3,12.5-33.8,22.1-56.7,27.3c-13.2,3-27.9,4.5-44.2,4.3
					l-0.9-91.9c0,0,51.5-163.2,114.8-173.9C1296.5,723.3,1314.7,770.4,1292.8,837.5z"/>
				<path class="st17" d="M1122.8,856.4c-2.9,14.5-3.9,30.8-4.3,41c-0.1,2,2.7,2.5,3.3,0.7c3.7-9.8,9.9-25.9,17.3-43.6
					C1134.1,854.9,1128.7,855.5,1122.8,856.4z"/>
				<path class="st16" d="M1119.2,999.8c-10.6,9.1-24.3,16.9-40.1,22.5c-16.2,5.8-34.6,9.3-54.1,9.7c-27.3,0.5-56.8-5.1-85.6-19.4
					c-69.2-34.5-126.2-110.2-55.8-128.5c70.4-18.4,173.5,45.6,173.5,45.6L1119.2,999.8z"/>
				<path class="st14" d="M1093,970.3L1093,970.3c-32.9-37-75.1-65-122.5-79.4c-4.4-1.3-8.9-2.6-13.4-3.7"/>
				<g>
					<g>
						<path class="st16" d="M1035.3,1015.7c-31.3,57.8-88.7,57.8-88.7,57.8s-6.3-5.9-15.8-15.4v0c-29.2-29.2-88.8-91.9-90.2-118.9
							c-1.9-35.8,30.1-63.4,66.9-45.8c27.5,13.1,85.3,75,112.8,105.4C1029.5,1009,1035.3,1015.7,1035.3,1015.7z"/>
						<path class="st14" d="M907.4,893.4c27.5,13.1,85.3,75,112.8,105.4c9.3,10.3,15.1,17,15.1,17"/>
						<path class="st14" d="M940,1042.9c24.2-33.7,58.3-42.4,80.2-44.2"/>
					</g>
					<g>
						<path class="st13" d="M1059.7,1057.8c0.6,14.6-33.7,41.1-68,52.9h0c-2.9,1-5.8,1.9-8.6,2.6c-21.7,5.8-34.7,8-42.2,5.8
							c-5.2-1.5-7.8-5.2-8.8-11.2c-0.2-1.1-0.2-2.3-0.1-3.6c1-12.8,14-34.7,19.3-43.1c1.4-2.2,2.2-3.4,2.2-3.4
							c32.2-46.8,77.9-43.1,77.9-43.1s17.3,17.2,24.8,32.2c1.7,3.3,2.8,6.5,3.2,9.3C1059.6,1056.8,1059.6,1057.3,1059.7,1057.8z"/>
						<path class="st11" d="M991.7,1110.7L991.7,1110.7c-2.9,1-5.8,1.9-8.6,2.6c-21.7,5.8-34.7,8-42.2,5.8
							c-5.2-1.5-7.8-5.2-8.8-11.2c-0.2-1.1-0.2-2.3-0.1-3.6c1-12.8,14-34.7,19.3-43.1c8.9-1.2,22.9-0.3,36.9,12.3
							C1000.4,1084.5,999.1,1099.3,991.7,1110.7z"/>
						<path class="st11" d="M1059.7,1057.8c0.7,15.8-39.8,45.7-76.6,55.6c-21.7,5.8-34.7,8-42.2,5.8c-5.2-1.5-7.8-5.2-8.8-11.2
							c-0.2-1.1-0.2-2.3-0.1-3.6c2.4-8.4,10.4-19.7,31.8-32.5c38.5-23,74.4-35.8,92.6-24.9c1.7,3.3,2.8,6.5,3.2,9.3
							C1059.6,1056.8,1059.6,1057.3,1059.7,1057.8z"/>
						<path class="st11" d="M1059.7,1057.8c0.7,15.8-39.8,45.7-76.6,55.6c-21.7,5.8-34.7,8-42.2,5.8c-15.2-12.6,27-44.7,63.4-59.3
							c29.4-11.8,48.5-10.8,55.3-3.6C1059.6,1056.8,1059.6,1057.3,1059.7,1057.8z"/>
						<g>
							<line class="st14" x1="956.5" y1="1116.9" x2="962.4" y2="1087.9"/>
							<line class="st14" x1="984.1" y1="1076.3" x2="977.1" y2="1110.4"/>
							<line class="st14" x1="1005.6" y1="1065" x2="997.7" y2="1103.9"/>
							<line class="st14" x1="1025.8" y1="1058.4" x2="1018.7" y2="1093.2"/>
							<line class="st14" x1="1045.4" y1="1055" x2="1039.7" y2="1083"/>
						</g>
					</g>
				</g>
				<g>
					<g>
						<path class="st13" d="M1339.4,1084.2c-0.1,2-0.5,3.7-1.1,5.1c-5.7,13.2-37.2,17.7-73.8,0c-4-1.9-8-4.1-12.1-6.6
							c-41.7-25.2-49.8-49.9-49.8-49.9c0.1-3.2,0.2-6.2,0.4-9.1c1.1-14.7,4-24.3,4-24.3c10.4-46.4,85.8-20.9,101.6,5.4
							c7.8,13.1,16.8,30.4,23,46.3C1336.7,1064.2,1340,1076.2,1339.4,1084.2z"/>
						<path class="st11" d="M1262.7,1008.2c0,0,21.2,25.8,29.5,52.4s38.5,15,35.3-5.7c-3.2-20.7-28.5-54.6-28.5-54.6L1262.7,1008.2z
							"/>
						<path class="st11" d="M1339.4,1084.2c-0.1,2-0.5,3.7-1.1,5.1c-5.7,13.2-37.2,17.7-73.8,0c1.4-4.1,2.5-7,2.5-7
							s17.4-44.7,64.6-31.1C1336.7,1064.2,1340,1076.2,1339.4,1084.2z"/>
						<path class="st11" d="M1339.4,1084.2c-0.1,2-0.5,3.7-1.1,5.1c-6.4,14.6-44.2,18.6-85.9-6.6c-41.7-25.2-49.8-49.9-49.8-49.9
							c0.1-3.2,0.2-6.2,0.4-9.1c6.4,12.6,23.8,37.3,65.8,55.6C1299.8,1092.8,1323.8,1090,1339.4,1084.2z"/>
					</g>
					<g>
						<path class="st16" d="M1320.9,973.6c-0.7,17.1-1.2,28.2-1.2,28.2c-69.7,31.5-118.2,0-118.2,0s0.5-10.9,1.6-28.4
							c4.5-68.9,19.3-239.5,55.3-240.9c20.9-0.8,58.4,14.7,63.6,61.3C1325.9,828.2,1322.8,925.2,1320.9,973.6z"/>
						<path class="st14" d="M1239.9,750.3c-22.8,45.8-33.1,167.5-36.7,223c-1.1,17.5-1.6,28.4-1.6,28.4s42.9,27.9,106.1,4.9l10-4"/>
						<path class="st14" d="M1203.2,973.3c16.3,4.7,62.2,16,104.1,4.8"/>
					</g>
				</g>
			</g>
			<g>
				<path class="st18" d="M626.8,821.8c0,0-46.8,38.3-78.5,54.9s-50.8,48-27.9,79.7l13.8-10.7c0,0-15-31.8,6.2-47.3
					c21.2-15.5,58.4-31.5,73.2-43.1C628.4,843.9,626.8,821.8,626.8,821.8z"/>
				<path class="st18" d="M676.2,793.1c0-0.5,9.6-19.9,14.3-22.3c4.7-2.3,43,5.2,47.7,9.3c4.7,4.1-13.3,29.9-13.3,29.9l-8.5-3.9
					c0,0,8.2-16.3,9.1-19.9s-25.6-7.5-28.7-7.2c-3.1,0.3-10.2,16.2-10.2,16.2L676.2,793.1z"/>
				<path class="st18" d="M736,828.5c0,0,13,36.7,31.1,63.3c18.1,26.6-19.3,99.6-83.3,103.3L691,967c0,0,45.9-8.7,58.4-49
					c7.1-22.9-18-34.1-21.7-57.4C724,837.3,736,828.5,736,828.5z"/>
				<path class="st18" d="M706.5,962.4c-8.2,32.6-26.2,56.6-54.1,68.5c-17.7,7.6-39.3,10.2-64.9,7.2c-65.9-7.8-101.4-31.1-81.6-70
					c19.8-38.9,44.9-49.3,69-82.2s58.6-106.4,123.3-95.2c16.6,2.9,27.1,9.8,33.4,19.3C755.3,846,717.2,920.2,706.5,962.4z"/>
				<path class="st11" d="M706.5,962.4c-8.2,32.6-26.2,56.6-54.1,68.5c-19.1,4.4-35.3,3.1-39.8-11.8c-12.7-42,31.1-83.7,56.3-117.4
					c23.4-31.4,31.2-75.8,62.8-91.7C755.3,846,717.2,920.2,706.5,962.4z"/>
				<path class="st18" d="M692.5,787.1c-54-4.1-117.1,73.1-122.6,92.5c-5.5,19.4,17.7,29.9,63.5,29.7c45.9-0.2,70.6-32.4,86.2-58.8
					C735,824.1,745.2,791.1,692.5,787.1z"/>
				<path class="st11" d="M636.2,864.3c-10.5-1.5-9.2,10.4-1.7,10.6C642.1,875.2,641.1,865,636.2,864.3z"/>
			</g>
		</g>
	</g>
	<g>
		<g>
			<defs>
				<rect id="SVGID_3_" y="44.1" width="1923.4" height="1282.3"/>
			</defs>
			<clipPath id="SVGID_4_">
				<use xlink:href="#SVGID_3_"  style="overflow:visible;"/>
			</clipPath>
			<g class="st19">
				<path class="st9" d="M-185.8,1384.8l382.9-438.2l42.6-90.9c0,0,121.4-103.5,127-115.5c5.5-12,15.5-165.6,13.5-171.6
					s-39.9-44.9-41.2-52.5c-1.3-7.6,66.7-123.1,18.5-122.7s-82.5,113.5-104.2,130.3c-21.7,16.8-85.7,59.8-98.1,74.2
					C142.9,612.4,42.6,720.3,38.8,733.9s-9.4,117.4-9.4,117.4l-58.3,95.1L-506,1384.8h141.7l277.5-232.3l-225.6,232.3L-185.8,1384.8
					L-185.8,1384.8z"/>
				<path class="st9" d="M1607.7,475.5c-42.8,8.7-19.8,55.1,6.4,103.2c26.2,48.1-4.8,106.9-15.2,141.2
					c-10.5,34.2,51,193.6,62.8,219.2s78.6,48.1,78.6,48.1l18.2,39.2l304.1,439.7h155.1l-240.5-342.2l277.9,342.2h156.1l-396.7-439.7
					l-41.1-68.8c0,0,37.9-61.3,27.8-96.1S1880.9,669,1849.9,643.9c-31-25.1-112.8-33.7-134.2-57.8
					C1694.3,562.1,1665.4,463.7,1607.7,475.5z"/>
				<path class="st20" d="M1726,134.3c-39.8,9.6-16.7,52.2,9.4,96.4c26.1,44.2-1,100.2-9.7,132.6s54.1,179.5,65.9,203.1
					c11.8,23.6,75.1,42.5,75.1,42.5L1885,645l302.2,408.4l145.1-5l-239.5-319.3l274.5,318.1l146.1-5.1l-388.8-405.5l-40.7-63
					c0,0,33.5-58.6,22.9-90.8c-10.6-32.2-118.8-176.2-148.7-198.8s-106.7-27.9-127.5-49.7S1779.7,121.4,1726,134.3z"/>
				<path class="st20" d="M176.7,154.6c40.1,8.2,18.5,51.6-6,96.6c-24.5,45.1,4.4,100.1,14.2,132.2c9.8,32-47.8,181.2-58.8,205.3
					c-11,24-73.6,45.1-73.6,45.1l-17,36.7l-287.9,418.7h-145.2l228.3-327.4l-263.3,327.4h-146.2l374.5-418.7l38.5-64.4
					c0,0-35.5-57.4-26-90c9.5-32.5,112.7-180.2,141.7-203.8c29-23.5,105.7-31.5,125.7-54.1C95.6,235.7,122.6,143.6,176.7,154.6z"/>
				<path class="st21" d="M192.5,1384.8L560.6,859l64.6-199.4c0,0,101.5-103.5,104.7-115.5c3.2-12-16.4-165.6-19.7-171.6
					c-3.2-6-48.5-44.9-51.3-52.5s42.9-123.1-5.2-122.7c-48.1,0.4-60.5,113.5-79,130.3c-18.5,16.8-74.2,59.8-83.8,74.2
					s-89,122.3-90.2,135.9c-1.2,13.6,13.2,117.4,13.2,117.4l-79.4,203.6l-482.7,526.2H-6.6l362.4-428.5L51,1384.8L192.5,1384.8
					L192.5,1384.8z"/>
				<path class="st21" d="M1856.7,1336.3l-308.9-439.7l-30.4-111.3c22.8-39.1,77.2-134.6,79.1-163.2
					c2.4-36.2-158.8-153.2-181.3-159.7c-22.5-6.4-107.5-12.8-113.9-21.6s-29.7-109.9-89.8-102.7c-36.5,4.4-12.3,50.2,0,84.5
					c12.3,34.2,12.3,56.7-15.5,63.6c-27.8,7-59.9-3.2-67.9-10.1c-8-7-53.5-105.3-85.5-135.3c-32.1-30-61.5-44.4-68.4-37.4
					c-7,7,16.6,31,16.6,31s-19.8,18.7-14.4,39c5.4,20.3,24.6,18.2,30.5,32.1c5.9,13.9,53.3,116.7,80.5,133.9
					c27.2,17.2,99,28.1,115.1,44.5c16,16.4,119.9,312.6,119.9,312.6l235.2,439.7h121.9l-166.7-307l211.7,307L1856.7,1336.3
					L1856.7,1336.3z M1507.4,637.4c6.2,5.7-6.1,29.7-17.2,48.4l-20.5-74.9C1469.7,611,1496.9,627.9,1507.4,637.4z"/>
			</g>
		</g>
	</g>
</g>
<g class="st22">
	<path class="st23" d="M393.7,1389.6c2.6-1.3,5.6-2,8.9-2c3.3,0,6.3,0.7,8.9,2c2.3,0.7,4.6,3,7,7c0.3,0.7,0.7,1.5,1.1,2.4
		c0.4,0.9,0.8,1.6,1.1,2.2c0.3,0.6,0.4,1,0.4,1.3c0.3,0.3,0.8,1.2,1.4,2.6c0.7,1.5,1.3,2.6,1.8,3.5c1,3.9,1.9,5.9,2.6,5.9
		c0,1.2,2,6.3,6.1,15.4c0.6,1.2,0.8,2.3,0.7,3.5l2.6,5c0.3,0.9,1,2.4,2.2,4.7c1.2,2.2,1.9,3.8,2.2,4.7c0.1,0.6,0.5,1.4,1,2.5
		c0.5,1.1,0.8,1.7,0.9,2c0.1,0.2,0,0.5-0.1,0.8l12,25.5c1.7,3.5,2.8,5.2,3,5.2c0.3,0,0.7-1.4,1.1-4.4c0.4-3.6,0.8-16.2,1.2-37.7
		c0.4-21.5,0.5-35.4,0.5-41.4c-0.4-2.6-0.6-4.4-0.4-5.2c0.1-0.9,0.9-1.7,2.2-2.6c1-1,3.3-2.1,6.7-3.3c3.2-0.6,6-0.6,8.5,0
		c3.3,0.9,5.6,1.7,6.7,2.4c1.2,0.7,2.4,2.2,3.7,4.4c0.3,0.6,0.5,1.1,0.7,1.5c0.6,1.6,0.9,9.4,0.9,23.3c0,3.9-0.1,10.4-0.4,19.4
		c-0.3,9-0.4,15-0.4,18.1c-0.4,7.4-1,15.9-1.7,25.5c-0.7,9.6-1.3,17.2-1.7,23c-0.4,5.7-0.7,8.7-0.7,8.8l-1.7,8.5
		c-0.9,5.7-1.8,9.6-2.9,11.7s-2.9,3.7-5.5,4.6c-1.7,0.9-3,1.3-3.9,1.3c-0.9,0-2.2-0.4-3.9-1.3c-2.5-0.4-4.5-1.7-6-3.8
		c-1.5-2.1-5.2-8.5-11-19.3c-7.5-13.6-17.2-33.6-28.9-59.8c-0.1-0.4-0.3-0.7-0.4-0.9c-0.6-1.6-1-2.4-1.2-2.3c-0.2,0.1-0.5,1.4-1,4
		c0,0.7-0.1,2.7-0.4,5.9c-0.3,3.2-0.4,5.8-0.4,7.8c-0.3,4.5-0.7,10.6-1.3,18.2c-0.6,7.6-1.1,14.1-1.5,19.6s-0.7,8.2-0.7,8.4
		l-1.7,7.6c-0.9,4.4-1.8,7.5-2.8,9.5c-1,2-2.6,3.4-4.8,4.2c-2.9,1.3-5.7,1.5-8.5,0.5c-2.8-0.9-4.8-2.9-6.1-5.8
		c-0.9-2.2-1.5-8.4-1.7-18.8c-0.3-10.4-0.2-20.8,0.2-31.4c1-10.9,1.5-28.8,1.5-53.7c0-3.8,0-7.6,0.1-11.6c0.1-4,0.1-7.5,0.2-10.6
		c0.1-3,0.1-5.8,0.2-8.2c0.1-2.4,0.1-4.3,0.2-5.8c0.1-1.4,0.1-2.2,0.1-2.4L393.7,1389.6z"/>
	<path class="st23" d="M540.7,1434.8c1.7-1,4.1-1.3,7.2-0.9s5.7,1.4,7.8,2.8c1.7,0.6,5.3,3,10.7,7.4c10.3,11,14.6,23.5,13.1,37.5
		c-1.6,14-8.6,24-21.1,30.1c-8,3.8-16.5,4.9-25.5,3.4c-9-1.5-16.1-5.5-21.3-11.9c-5.5-5.7-7.8-13-7-22c0.9-14.6,5-25.8,12.4-33.5
		c5.9-4.9,11.3-7.8,16.1-8.5c2.5,0,3.7-0.9,3.7-2.6C536.8,1435.5,538.1,1434.8,540.7,1434.8z M556.1,1470.6
		c-1.1-6.5-3.6-11.9-7.5-16.4c-2.2-2.9-4.1-4.3-5.9-4.1c-1.7,0.1-4.2,1.8-7.4,5c-3.6,3.8-6.4,10.7-8.3,20.7
		c-0.7,9,0.4,15.4,3.3,19.4c1.4,1.9,3.3,3.4,5.5,4.6c2.2,1.2,4.1,1.5,5.5,1.1c2.2-0.4,4.6-2,7.3-4.7c2.7-2.7,4.7-5.5,6.2-8.4
		C556.8,1482.8,557.2,1477.1,556.1,1470.6z"/>
	<path class="st23" d="M649.1,1444c2.3-0.7,4.8-0.8,7.5-0.1c2.7,0.7,4.5,1.8,5.5,3.6c1.2,1.2,1.7,2.6,1.7,4.4c0.4,1.3,0.7,2,0.9,2
		c0.1,0,0.9-0.7,2.2-2c7.3-5.1,13.9-6.5,19.8-4.4c4.4,2,7,6.4,8,13.1c0,0.1,0.1,0.2,0.2,0.2c0.4,1.2,1.2,0.9,2.4-0.7
		c0.3-0.4,0.5-0.7,0.7-0.9c8.3-8.6,16.8-11.5,25.7-8.7c4.9,1.3,8,3.7,9.4,7.2c3,6.7,5.3,18.7,6.7,36.1c1.2,16.7,2.2,25,3,25
		c1,0.4,2,1.4,2.8,2.8c0.9,1.5,1.3,2.8,1.3,3.9c0,3.8-2.8,6.3-8.5,7.7c-5.7,1.4-10.6,0.8-14.8-1.6c-4.1-2.2-6.8-6.1-8.3-11.7
		c-1.5-5.7-2.5-17.4-3-35.2l-0.7-6.5c-0.1-0.9-0.3-1.2-0.4-1.1c-0.1,0-0.8,1-2,3c-1.9,3.8-3.3,6.3-4.1,7.6c-1.6,3-3.4,5.2-5.5,6.3
		c-2.1,1.2-5,1.7-8.8,1.7c-7.5,0.9-11.7-2.3-12.6-9.6c-0.3-0.9-0.7-2.5-1.1-5c-0.4-2.5-0.8-4.1-1.1-5c-1.2-6.8-1.9-10.8-2.2-12
		c-0.3-1.2-0.7-1.5-1.1-1.1c-0.7,0-2.3,1.2-4.6,3.5c-1.9,1.3-3,2.3-3.3,2.8c-0.3,0.6-0.2,1.9,0.2,3.9c3,27.3,2.8,44.1-0.9,50.5
		c-1.9,2.8-4.8,4.6-8.6,5.7c-3.8,1-7.6,0.9-11.2-0.4c-2.5-0.7-4.2-1.5-5.2-2.4c-1-0.9-1.5-2.1-1.5-3.7c-0.4-1.2,0.1-3.2,1.5-6.1
		c0.7-1.3,1.1-3.3,1.2-6.1c0.1-2.8,0.1-12,0.1-27.6c0-21,0.4-32.4,1.3-34.2C643.2,1446.4,645.6,1444.7,649.1,1444z"/>
	<path class="st23" d="M776.5,1452.8c4.6-1.2,8.2-2.1,10.8-2.5c8.4-1.6,15.7-0.7,22,2.6c1.9,1.2,4,2.9,6.2,5.2
		c2.2,2.3,3.7,4.4,4.5,6.1c1.3,2.5,2.3,6.9,3,13.3c0.3,1.7-0.6,18.8-2.6,51.1c-0.3,4.6-0.4,7.4-0.2,8.3c0.1,0.9,0.7,1.7,1.7,2.6
		c1,1.3,1.5,2.3,1.5,3c0,1.7-0.7,3.3-2,4.8c-3.9,4.1-9.3,5.2-16.1,3.5c-6.5-1.7-10.6-4.7-12.2-8.9c-0.3-1-0.6-1.6-0.9-1.7
		c-0.3-0.1-2-0.4-5-0.7c-7.8,0-14.7-1.4-20.7-4.4c-5.9-2.9-9.9-6.7-12-11.5c-2.2-4.6-2.3-9.9-0.4-15.9c1.3-3.2,3.8-6.2,7.4-9
		c3.6-2.8,7.5-4.7,11.5-5.5c2-0.7,5.1-1.1,9.2-1.1s7.4,0.4,9.7,1.1h3.5c0.3-0.3,0.7-3.3,1.2-9c0.5-5.7,0.6-9.3,0.3-10.8
		c-1.2-5.7-2.3-8.9-3.3-9.8c-0.7-0.7-3-1.2-6.7-1.5c-3.8-0.3-7.2-0.1-10.2,0.4c-6.5,0.7-10.5,0.1-12-1.7c-0.7-1.4,0.3-3.1,3-5
		C769,1455,771.9,1454,776.5,1452.8z M803.8,1405.7c2.5-0.9,5.7-0.7,9.6,0.7c2.5,1.3,4.1,2.4,5,3.4c0.9,0.9,1.3,2.1,1.3,3.6
		c0,1.9-0.7,3.4-2,4.6c-1.3,1.2-4.5,3-9.6,5.4c-14.9,7.5-28.1,12.4-39.6,14.6c-4.5,1.6-7.8,0.9-10-2c-2.3-1.7-1.3-4.2,3-7.4l2.6-1.3
		l3-2.6c1.9-0.6,4.2-1.8,7-3.7c3.3-1.6,5-2.7,5-3.3c0.3-0.1,0.9-0.5,1.8-1c0.9-0.5,2.2-1.2,3.7-2.1c1.5-0.9,3.1-1.7,4.7-2.6
		c0.6-0.1,1.1-0.3,1.6-0.5c0.5-0.2,0.9-0.4,1.3-0.5c0.4-0.1,0.6-0.2,0.8-0.2c0.7-1.6,3.3-2.8,7.6-3.7
		C802.5,1406.1,803.5,1405.7,803.8,1405.7z M795.1,1502.3c0-0.3-1.7-0.4-5-0.4c-4.4,0-7.1,0.4-8.3,1.1c-3,1.5-5,3.9-6,7.3
		c-0.9,3.4-0.6,6.9,1,10.3c1.3,2.6,2.8,4.4,4.4,5.4c1.6,1,4.2,1.7,7.8,2c2.2,0.3,3.4,0.1,3.6-0.5c0.2-0.7,0.7-5.3,1.4-14
		C794.7,1507.6,795.1,1503.9,795.1,1502.3z"/>
	<path class="st23" d="M858.8,1435c2.9-0.9,6.4-1.2,10.4-1c4.1,0.2,7.5,0.8,10.4,1.6c2.2,1,4.4,2.5,6.6,4.6c2.2,2,3.8,4,4.7,5.9
		c0.9,1.6,1.3,4.1,1.3,7.4c0,3.3-0.4,5.7-1.3,7c-1.6,2.5-4.2,4.1-7.8,5c-3.6,0.9-6.7,0.5-9.1-1.1c-1.2-1.2-1.7-3.3-1.7-6.5
		c0.4-2.9,0.1-5.3-0.9-7.3c-1-2-2.3-2.9-3.9-2.9c-1.3,0-3.3,1-6,3c-2.7,2-4.8,3.9-6.2,5.7c-2.5,3-2.2,6.7,0.9,10.9
		c1.4,1.6,2.9,2.7,4.2,3.3c1.4,0.6,4.7,1.7,10.1,3.5c10,2.6,17.1,5.5,21.2,8.8c4.1,3.3,6,7.7,5.5,13.2c0,8.4-4.6,15.2-13.7,20.5
		c-3,1.6-7.8,2.4-14.1,2.4c-0.9,0-1.5,0-2,0c-9.6,0.7-17.9-0.6-25-3.9c-4.5-2.3-6.4-4.9-5.7-7.8c0-2.6,2.1-4.6,6.3-6.1
		c2.2-0.6,5.2-0.2,9.1,1.1c4.1,1.2,7.5,1.7,10.4,1.7c3.2,0.4,5.5,0.3,7-0.5c1.4-0.8,2.6-2.3,3.5-4.5c1.4-2,1.4-3.8,0-5.2
		c-1.7-2.6-6.1-4.6-13.1-6.1c-19.3-4.9-28.9-13.6-28.9-26.1c-0.7-4.9,1.7-10,7.4-15.2C844.7,1440.5,851.4,1436.8,858.8,1435z"/>
	<path class="st23" d="M958.4,1396.4c0.4-1.8,1.6-3.4,3.8-4.9c2.3-2.3,4.9-3.5,7.6-3.5c2.8,0,5.3,1.2,7.6,3.5
		c1.4,1.5,2.6,2.2,3.6,2.2c0.9,0,3.3-0.7,7.1-2.2c10-3.3,21.6-3.3,34.8,0c11.2,3,18.7,10.4,22.6,22c3.9,11.6,2.4,22-4.6,31.1
		c-2.3,3-3.6,4.9-3.8,5.5c-0.2,0.7,0,1.3,0.8,2.1c3,0.7,6.5,2.7,10.4,6c3.9,3.3,7,6.8,9.4,10.6c3.8,6.1,5.7,13.9,5.7,23.5
		s-1.9,17.4-5.7,23.5c-8.8,8.8-17.4,14.4-25.7,16.8c-7.7,3-16.8,4.6-27.4,4.6c-13.1,0-20.6,0.5-22.6,1.5c-6.4,3.2-12,3.2-16.8,0
		c-1.7-0.6-2.8-1.7-3.3-3.3c-0.9-2.9-1.7-21-2.6-54.4c-1-20.2-1.5-43.4-1.5-69.6C957.8,1403.2,958,1398.2,958.4,1396.4z
		 M1016.6,1415c-1.5-6.4-4.4-10.7-8.9-12.8c-0.9,0-2.4-0.1-4.7-0.3c-2.2-0.2-4.6-0.3-7.1-0.3c-2.5,0-5.1,0.2-7.8,0.7
		c-3,0.7-4.8,1.3-5.1,1.8c-0.4,0.5-0.2,1.9,0.5,4.2c0,0.7,0.3,3.1,0.8,7.1c0.5,4,0.8,7.1,0.8,9.5c0.7,10.7,1.5,16.9,2.3,18.6
		c0.8,1.7,3.2,2.1,7.1,1.4c0.6-0.1,1-0.2,1.3-0.2c4.9,0,8.8-1,11.5-2.9c2.8-2,5.4-5,8-9.2C1017.6,1427.2,1018,1421.4,1016.6,1415z
		 M1016.8,1462.9c-4.1-2-10.1-3-18.1-3c-5.4,0-8.5,0.4-9.4,1.3s-1.3,3.9-1.3,9.1c0,1.5,0.3,5.9,0.8,13.5c0.5,7.5,0.8,13.6,0.8,18.3
		c0.7,10.6,1.6,16.7,2.7,18.4c1.1,1.7,4.7,2.1,10.8,1.4c6.7,0,12.3-1.5,16.8-4.6c5.4-3.8,9.1-8.9,11.2-15.3c2.1-6.5,2.4-13.5,1-21
		C1029,1470.4,1023.9,1464.3,1016.8,1462.9z"/>
	<path class="st23" d="M1130.8,1445c1.2-0.9,3.9-1.3,8.3-1.3c5.1,0,8.8,1.2,11.1,3.5c2,2,2,4.8,0,8.3c-1,3.8-1.6,7.5-1.7,11.3
		c0,8,0.2,16.4,0.7,25.2c0.4,18.9-0.1,29.9-1.7,33.1c-1.6,3.9-5.4,5.7-11.3,5.2c-5.2,0-8.5-1.2-9.8-3.5c-0.9-2.6-1.3-4.8-1.3-6.5
		c-0.3-1.6-0.5-3-0.7-4.1l-5.2,2.4c-6.8,3-11.2,5-13.1,5.9c-1.7,0.9-4.2,1.4-7.4,1.5c-3.2,0.1-5.8-0.1-7.8-0.9
		c-7.4-2.5-12.3-8.2-14.8-17.2c-1.6-5.5-2.8-13.1-3.7-22.7c-0.9-9.6-1-17.7-0.4-24.3c0.3-4.6,1.1-7.6,2.4-8.9
		c1.6-2.8,4.9-4.1,10-4.1c5.5-0.4,9.6,0.7,12.4,3.5c0.9,0.9,1.3,1.7,1.4,2.5c0.1,0.8,0,2.9-0.3,6.4c-1.5,30.2-1,48,1.3,53.5
		c0.7,1,1.2,1.6,1.4,1.7c0.2,0.1,0.9,0.2,2.1,0.2c3,0,7.4-1.8,13.1-5.4c0.6-0.1,1.5-0.5,2.8-1.2c1.3-0.7,2.1-1,2.4-1.2
		c1.6-0.7,2.5-1.2,2.7-1.5c0.2-0.3,0.3-1.3,0.3-3c0-0.4-0.1-1.2-0.2-2.4c-0.1-1.2-0.3-2.5-0.5-4.1c-0.2-1.6-0.4-3-0.5-4.1
		c-0.7-8.7-1.1-16.2-1.1-22.4c0-10.2,0.4-15.9,1.1-17.2C1123.8,1449,1126.6,1446.4,1130.8,1445z"/>
	<path class="st23" d="M1161.5,1391.1c0.4-0.6,1.1-1.1,1.8-1.6c0.8-0.5,1.4-0.8,1.8-0.8c1-1,4.5-1.5,10.4-1.5c1.9,0,3.5,0.2,4.8,0.7
		c1.3,0.4,2.2,0.9,2.8,1.3c0.6,0.4,1.5,1.3,2.8,2.6c2.3,2.3,3.6,5.3,3.8,8.9c0.2,3.6,0,15.2-0.8,34.6c-1.6,63.5-5.1,98-10.4,103.3
		c-2.2,1.6-5.2,2.3-9,2.1c-3.8-0.2-6.9-1.4-9-3.6c-1.6-1.6-2.4-5.3-2.5-11.2c-0.1-5.9,0.3-26.1,1-60.6c0-7.3,0-14.7,0.1-22.3
		c0.1-7.6,0.2-14.3,0.3-20.1c0.1-5.8,0.3-11,0.5-15.7c0.2-4.6,0.4-8.3,0.4-11.1c0.1-2.8,0.1-4.2,0.1-4.4L1161.5,1391.1z"/>
	<path class="st23" d="M1200.4,1391.1c0.4-0.6,1.1-1.1,1.8-1.6c0.8-0.5,1.4-0.8,1.8-0.8c1-1,4.5-1.5,10.4-1.5c1.9,0,3.5,0.2,4.8,0.7
		c1.3,0.4,2.2,0.9,2.8,1.3c0.6,0.4,1.5,1.3,2.8,2.6c2.3,2.3,3.6,5.3,3.8,8.9c0.2,3.6,0,15.2-0.8,34.6c-1.6,63.5-5.1,98-10.4,103.3
		c-2.2,1.6-5.2,2.3-9,2.1c-3.8-0.2-6.9-1.4-9-3.6c-1.6-1.6-2.4-5.3-2.5-11.2c-0.1-5.9,0.3-26.1,1-60.6c0-7.3,0-14.7,0.1-22.3
		c0.1-7.6,0.2-14.3,0.3-20.1c0.1-5.8,0.3-11,0.5-15.7c0.2-4.6,0.4-8.3,0.4-11.1c0.1-2.8,0.1-4.2,0.1-4.4L1200.4,1391.1z"/>
	<path class="st23" d="M1291.2,1441.6c0.7-0.3,1.1-0.4,1.4-0.4c2-0.7,4.8-0.6,8.3,0.3c3.5,0.9,5.6,2.2,6.3,3.8
		c0.4,0.4,0.7,6.9,0.7,19.4c0,15.5,0.8,34.7,2.4,57.4c0.9,22,1.2,36.3,1,42.8c-0.2,6.5-1.3,11.1-3.4,13.8
		c-2.8,5.7-8.1,9.4-16.1,11.2c-8,1.8-15,1.1-21.1-2.3c-4.5-2.5-7.6-5.6-9.4-9.5c-1.7-3.8-1.6-7.4,0.4-10.8c2-2.9,5.6-4.8,10.7-5.7
		c2.8,0,4.7,0.6,5.9,1.7c1.2,1.2,2.2,3.3,3,6.3c0.7,2.9,1.4,4.3,2.2,4.1c1.7-0.3,2.3-5.7,1.7-16.1c0-2-0.1-5.1-0.4-9.1
		c-0.3-4.1-0.4-6.7-0.4-8c-1-4.8-1.5-10.4-1.5-17c-0.4-4.5-0.9-7-1.4-7.5c-0.5-0.5-2.4-0.4-5.8,0.3c-7.4,1.5-13.6,1.5-18.7,0
		c-5.8-1.3-10.4-4.3-13.7-8.9c-2-2-3.2-4.3-3.6-6.9c-0.4-2.5-0.5-8.9-0.5-19c0-13.1-0.2-19.8-0.7-20.2c-1.2,0-1.7-1.1-1.7-3.3
		c0-3.2,3.8-4.8,11.3-4.8c4.9,0,7.9,0.3,8.9,0.9c3.3,1.6,6,4,8.1,7.2c0,0.4,0.1,1.5,0.2,3.2c0.1,1.7,0.4,4.2,0.7,7.5
		c0.3,3.3,0.6,6.2,0.9,8.7c0,2.6,0.1,5.3,0.2,8.2c0.1,2.8,0.3,5.1,0.3,6.9c0.1,1.7,0.1,2.7,0.1,2.8c0.7,1.3,4,1.3,9.8,0
		c1.9-0.3,3-0.5,3.4-0.7c0.4-0.1,0.7-0.5,1.1-1.2c0.4-0.7,0.3-1.6-0.3-2.9c-0.4-3.6-0.7-11.4-0.7-23.4s0.2-18.7,0.7-20.3
		c1.6-4.4,4.3-7,8-8.1C1290,1442,1290.6,1441.9,1291.2,1441.6z"/>
	<path class="st23" d="M1332,1464.2c1-1,2.8-1.5,5.4-1.5c2.2,0,4.2,0.7,6.1,2.2c2,2.5,3.8,8.5,5.2,18.1c1.6,19,1.6,33,0,42
		c-1.7,7-4.9,11.7-9.4,14.1c-2.2,1.3-5.1,2-8.7,2c-6.5,0.6-10.5-0.9-12-4.6c-0.7-1.3-1.1-2.3-1-2.9c0.1-0.7,0.6-1.9,1.6-3.8
		c2.6-4.8,3.9-12.4,3.9-22.8l1.3-13.3c0.9-8.8,1.6-14.9,2.2-18.1C1327.5,1469.4,1329.3,1465.6,1332,1464.2z M1330.1,1436.6
		c1.9-1,4.4-1.2,7.5-0.5c3.1,0.7,5.3,1.8,6.6,3.4c0.6,0.6,1.2,2.3,2,5.2c0,3.2-0.2,5.2-0.7,6.1c-1,1.9-3.4,3.2-7.1,3.8
		c-3.7,0.7-6.7,0.5-9-0.5c-2.3-1.3-3.8-2.4-4.4-3.4c-0.6-0.9-0.7-2.4-0.4-4.5C1324.6,1441.2,1326.4,1438,1330.1,1436.6z"/>
	<path class="st23" d="M1364.9,1441.7c1-0.9,2.2-1.5,3.5-1.6c4.9-0.7,9-0.3,12.2,1.3c2.9,1.3,4.4,4.7,4.4,10.2
		c0.3,2.3,0.5,3.6,0.8,3.9c0.2,0.3,1,0,2.3-0.9c2.2-1.3,7.3-3.7,15.4-7.2c3.9-1.3,8.1-1.3,12.5-0.1c4.4,1.2,8,3.5,10.8,6.9
		c2.2,2.9,4,6.5,5.3,10.7c1.4,4.2,2.8,10.9,4.2,20c0.9,13.5,1.3,20.5,1.3,21.1c0,8.3-0.4,13-1.3,14.1c-2.2,2.8-5.7,4.3-10.6,4.6
		c-4.9,0.3-8.7-0.8-11.4-3.3c-1.3-0.9-2-2.1-2.2-3.6c-0.1-1.5-0.2-7.1-0.2-16.6c0-22.8-1.5-37.3-4.4-43.5c-0.3-0.7-1.1-1.1-2.4-1.1
		c-3.5,0.9-8.8,3.6-15.9,8c-1.7,0.9-2.8,1.5-3,2c-0.3,0.4-0.3,1.4,0,2.8c0.3,1.9,1.1,10.2,2.4,25c0.4,10-0.2,18-2,23.9
		c-0.1,1.5-1.1,3.1-2.9,4.9c-1.8,1.8-3.7,3.1-5.5,3.8c-5.7,1.6-10.7,1.3-15.2-0.9c-5.7-2.6-7-6.2-3.9-10.9c0.7-1.3,1.1-3.4,1.2-6.3
		c0.1-2.9,0.1-12.3,0.1-28.1c0-16.1,0.1-25.7,0.3-28.7s1-5.7,2.3-7.8C1363.2,1443.5,1363.9,1442.6,1364.9,1441.7z"/>
	<path class="st23" d="M1493.8,1431.2c0.8-0.4,1.4-0.7,2-0.9c0.5-0.2,0.9-0.3,1.2-0.3c2.3-0.4,5.1-0.1,8.5,1.1
		c3.3,1.2,5.4,2.5,6.1,4.1c0.6,0.6,0.9,5.7,0.9,15.4c-0.7,7.3-0.2,23.3,1.5,48.1c1.2,25.4,1.8,41.6,1.8,48.7
		c0.1,7.1-0.3,12-1.2,14.8c-1.2,4.4-2.7,7.7-4.6,10c-5.7,5.7-12.7,8.5-21,8.6c-8.3,0.1-15.1-2.6-20.3-7.9c-3.2-3.2-4.4-7.3-3.7-12.2
		c0-1.9,0.4-3.4,1.3-4.5s2.7-2.4,5.4-4c6.4-2.5,10.7,0.1,13.1,7.6c0.9,2.6,1.6,4.1,2.2,4.4c1.7,0.9,2.3-4.9,1.7-17.2
		c-1.7-35.2-2.8-52.9-3-52.9c0-0.3-0.1-0.4-0.4-0.4c-0.3,0-0.8,0.1-1.5,0.2c-0.7,0.1-1.4,0.2-2,0.2c-1.7,1-5.6,1.5-11.5,1.5
		c-9.7,0-17.3-2.3-22.8-7c-4.2-2.8-7-6.8-8.5-12.2c-1-5.4-0.2-10.2,2.4-14.6c5.1-5.1,7.8-7.6,8.3-7.6l4.6-1.5c4.6-2,11.5-3,20.7-3
		c4.9,0,7.6-0.2,8.2-0.5c0.5-0.4,1.1-2.7,1.8-7.1c0.9-5.2,3.2-8.6,7-10C1492.3,1431.9,1493,1431.6,1493.8,1431.2z M1484.3,1467.7
		c-0.3-3-0.4-4.6-0.4-4.8c-0.4-1.2-0.9-1.8-1.3-2.1c-0.4-0.2-1.7-0.3-3.9-0.3c-7.3,0-12.3,2.6-15.2,7.8c-1.9,4.2-1.8,8.2,0.2,12
		c2,3.8,5.2,5.9,9.6,6.3c0.7,0.3,1.5,0.4,2.4,0.4c0.9,0,1.8-0.1,2.8-0.2c1-0.1,1.8-0.2,2.4-0.2c2-0.4,3.2-1.1,3.5-2
		c0.3-0.9,0.4-3.8,0.4-8.7C1484.8,1473.5,1484.6,1470.7,1484.3,1467.7z"/>
</g>
<path class="st24" d="M6757,9758"/>
</svg>
