<?xml version="1.0" encoding="utf-8"?>
<!-- Generator: Adobe Illustrator 25.2.3, SVG Export Plug-In . SVG Version: 6.00 Build 0)  -->
<svg version="1.1" id="Capa_1" xmlns="http://www.w3.org/2000/svg" xmlns:xlink="http://www.w3.org/1999/xlink" x="0px" y="0px"
	 viewBox="0 0 1920 1911" style="enable-background:new 0 0 1920 1911;" xml:space="preserve">
<style type="text/css">
	.st0{fill:#211F1F;}
	.st1{fill:none;}
	.st2{enable-background:new    ;}
	.st3{fill:#FFFFFF;}
	.st4{opacity:0.1;}
	.st5{clip-path:url(#SVGID_2_);}
	.st6{fill:none;stroke:#FFFFFF;stroke-width:2.0635;stroke-miterlimit:10;}
	.st7{opacity:0.1;fill:#65A4C5;enable-background:new    ;}
	.st8{fill:#C8B5EE;}
	.st9{opacity:0.3;}
	.st10{fill:#0C1A3C;}
	.st11{opacity:0.5;fill:#0C1A3C;enable-background:new    ;}
	.st12{opacity:0.6;fill:#0C1A3C;enable-background:new    ;}
	.st13{fill:#FFFFFF;stroke:#231F20;stroke-width:2;stroke-linecap:round;stroke-linejoin:round;stroke-miterlimit:10;}
	.st14{fill:#E2EE6A;}
	.st15{fill:#231F20;stroke:#231F20;stroke-width:2;stroke-linecap:round;stroke-linejoin:round;stroke-miterlimit:10;}
	.st16{fill:none;stroke:#231F20;stroke-width:2;stroke-linecap:round;stroke-linejoin:round;stroke-miterlimit:10;}
	.st17{fill:none;stroke:#CDE894;stroke-width:2;stroke-linecap:round;stroke-linejoin:round;stroke-miterlimit:10;}
	.st18{fill:#83B6CC;}
	.st19{fill:#231F20;}
	.st20{fill:#CDE894;stroke:#231F20;stroke-width:2;stroke-miterlimit:10;}
	.st21{clip-path:url(#SVGID_4_);}
	.st22{opacity:0.4;fill:#0C1A3C;enable-background:new    ;}
	.st23{opacity:0.7;fill:#0C1A3C;enable-background:new    ;}
	.st24{fill:none;stroke:#FFFFFF;stroke-width:4;stroke-linecap:round;stroke-linejoin:round;stroke-miterlimit:10;}
</style>
<polygon class="st0" points="1921.4,1394 1921.4,1911 -2.8,1911 -2.8,1390.6 0,1326.4 987.5,1326.4 1923.4,1326.4 "/>
<path class="st0" d="M1921.4,1324V187.5h-0.4l-0.5-174c-120-27.6-457.3,32.2-457.3,32.2c-1022,277.8-1464,0-1464,0v141.9h-2v1139.8"
	/>
<rect x="6183.5" y="-1452" class="st1" width="1920.5" height="544"/>
<g>
	<rect x="448.7" y="1626.1" class="st1" width="1021.4" height="90.8"/>
	<g class="st2">
		<path class="st3" d="M474.1,1629.3h-6v-2.2h14.5v2.2h-6v15.3h-2.5V1629.3z"/>
		<path class="st3" d="M482.3,1638c0-3.9,2.9-6.8,6.9-6.8c4,0,6.9,2.8,6.9,6.8c0,3.9-2.9,6.8-6.9,6.8
			C485.2,1644.8,482.3,1642,482.3,1638z M493.7,1638c0-2.8-1.9-4.7-4.4-4.7c-2.5,0-4.5,1.8-4.5,4.7s1.9,4.7,4.5,4.7
			C491.8,1642.7,493.7,1640.9,493.7,1638z"/>
		<path class="st3" d="M511.9,1626.1v18.5h-2.3v-2.1c-1.1,1.5-2.8,2.2-4.7,2.2c-3.9,0-6.7-2.7-6.7-6.8c0-4.1,2.8-6.8,6.7-6.8
			c1.9,0,3.5,0.7,4.6,2.1v-7.3H511.9z M509.5,1638c0-2.8-1.9-4.7-4.4-4.7c-2.5,0-4.5,1.8-4.5,4.7s1.9,4.7,4.5,4.7
			C507.6,1642.7,509.5,1640.9,509.5,1638z"/>
		<path class="st3" d="M527,1636.7v8h-2.3v-1.8c-0.8,1.2-2.3,1.9-4.3,1.9c-3,0-4.9-1.6-4.9-3.9c0-2.1,1.4-3.9,5.3-3.9h3.8v-0.5
			c0-2-1.2-3.2-3.5-3.2c-1.6,0-3.2,0.5-4.2,1.4l-1-1.8c1.4-1.1,3.3-1.7,5.5-1.7C524.9,1631.3,527,1633,527,1636.7z M524.6,1640.6
			v-1.8h-3.7c-2.4,0-3,0.9-3,2c0,1.3,1.1,2.2,2.9,2.2C522.5,1643,524,1642.1,524.6,1640.6z"/>
		<path class="st3" d="M529.7,1643.3l1-1.9c1.1,0.8,2.9,1.4,4.6,1.4c2.2,0,3.1-0.7,3.1-1.8c0-3-8.4-0.4-8.4-5.7c0-2.4,2.1-4,5.5-4
			c1.7,0,3.7,0.5,4.8,1.2l-1,1.9c-1.2-0.8-2.5-1-3.8-1c-2.1,0-3.1,0.8-3.1,1.8c0,3.1,8.4,0.6,8.4,5.7c0,2.4-2.2,3.9-5.7,3.9
			C533,1644.8,530.8,1644.1,529.7,1643.3z"/>
		<path class="st3" d="M550.7,1626.1h2.4v18.5h-2.4V1626.1z"/>
		<path class="st3" d="M568.1,1636.7v8h-2.3v-1.8c-0.8,1.2-2.3,1.9-4.3,1.9c-3,0-4.9-1.6-4.9-3.9c0-2.1,1.4-3.9,5.3-3.9h3.8v-0.5
			c0-2-1.2-3.2-3.5-3.2c-1.6,0-3.2,0.5-4.2,1.4l-1-1.8c1.4-1.1,3.3-1.7,5.5-1.7C566.1,1631.3,568.1,1633,568.1,1636.7z
			 M565.7,1640.6v-1.8H562c-2.4,0-3,0.9-3,2c0,1.3,1.1,2.2,2.9,2.2C563.7,1643,565.1,1642.1,565.7,1640.6z"/>
		<path class="st3" d="M570.9,1643.3l1-1.9c1.1,0.8,2.9,1.4,4.6,1.4c2.2,0,3.1-0.7,3.1-1.8c0-3-8.4-0.4-8.4-5.7c0-2.4,2.1-4,5.5-4
			c1.7,0,3.7,0.5,4.8,1.2l-1,1.9c-1.2-0.8-2.5-1-3.8-1c-2.1,0-3.1,0.8-3.1,1.8c0,3.1,8.4,0.6,8.4,5.7c0,2.4-2.2,3.9-5.7,3.9
			C574.2,1644.8,572,1644.1,570.9,1643.3z"/>
		<path class="st3" d="M591.4,1627.3c0-0.9,0.7-1.6,1.6-1.6s1.6,0.7,1.6,1.5c0,0.9-0.7,1.6-1.6,1.6
			C592.1,1628.9,591.4,1628.2,591.4,1627.3z M591.8,1631.4h2.4v13.2h-2.4V1631.4z"/>
		<path class="st3" d="M611.3,1626.1v18.5H609v-2.1c-1.1,1.5-2.8,2.2-4.7,2.2c-3.9,0-6.7-2.7-6.7-6.8c0-4.1,2.8-6.8,6.7-6.8
			c1.9,0,3.5,0.7,4.6,2.1v-7.3H611.3z M608.9,1638c0-2.8-1.9-4.7-4.4-4.7c-2.5,0-4.5,1.8-4.5,4.7s1.9,4.7,4.5,4.7
			C607,1642.7,608.9,1640.9,608.9,1638z"/>
		<path class="st3" d="M627.8,1638.8H617c0.3,2.3,2.2,3.9,4.8,3.9c1.5,0,2.8-0.5,3.8-1.6l1.3,1.5c-1.2,1.4-3,2.2-5.2,2.2
			c-4.3,0-7.1-2.8-7.1-6.8c0-3.9,2.8-6.8,6.6-6.8c3.8,0,6.5,2.8,6.5,6.8C627.8,1638.3,627.8,1638.6,627.8,1638.8z M617,1637.1h8.5
			c-0.2-2.2-1.9-3.8-4.2-3.8C619,1633.3,617.3,1634.9,617,1637.1z"/>
		<path class="st3" d="M643.7,1637v7.6h-2.4v-7.3c0-2.6-1.3-3.9-3.6-3.9c-2.5,0-4.2,1.5-4.2,4.4v6.8h-2.4v-13.2h2.3v2
			c1-1.3,2.7-2.1,4.8-2.1C641.4,1631.3,643.7,1633.1,643.7,1637z"/>
		<path class="st3" d="M655.6,1643.9c-0.7,0.6-1.8,0.9-2.9,0.9c-2.7,0-4.2-1.5-4.2-4.2v-7.3h-2.2v-2h2.2v-2.9h2.4v2.9h3.8v2h-3.8
			v7.2c0,1.4,0.7,2.2,2.1,2.2c0.7,0,1.4-0.2,1.9-0.6L655.6,1643.9z"/>
		<path class="st3" d="M658.1,1627.3c0-0.9,0.7-1.6,1.6-1.6s1.6,0.7,1.6,1.5c0,0.9-0.7,1.6-1.6,1.6
			C658.8,1628.9,658.1,1628.2,658.1,1627.3z M658.5,1631.4h2.4v13.2h-2.4V1631.4z"/>
		<path class="st3" d="M678,1626.1v18.5h-2.3v-2.1c-1.1,1.5-2.8,2.2-4.7,2.2c-3.9,0-6.7-2.7-6.7-6.8c0-4.1,2.8-6.8,6.7-6.8
			c1.9,0,3.5,0.7,4.6,2.1v-7.3H678z M675.6,1638c0-2.8-1.9-4.7-4.4-4.7c-2.5,0-4.5,1.8-4.5,4.7s1.9,4.7,4.5,4.7
			C673.7,1642.7,675.6,1640.9,675.6,1638z"/>
		<path class="st3" d="M693,1636.7v8h-2.3v-1.8c-0.8,1.2-2.3,1.9-4.3,1.9c-3,0-4.9-1.6-4.9-3.9c0-2.1,1.4-3.9,5.3-3.9h3.8v-0.5
			c0-2-1.2-3.2-3.5-3.2c-1.6,0-3.2,0.5-4.2,1.4l-1-1.8c1.4-1.1,3.3-1.7,5.5-1.7C691,1631.3,693,1633,693,1636.7z M690.6,1640.6v-1.8
			H687c-2.4,0-3,0.9-3,2c0,1.3,1.1,2.2,2.9,2.2C688.6,1643,690,1642.1,690.6,1640.6z"/>
		<path class="st3" d="M710.1,1626.1v18.5h-2.3v-2.1c-1.1,1.5-2.8,2.2-4.7,2.2c-3.9,0-6.7-2.7-6.7-6.8c0-4.1,2.8-6.8,6.7-6.8
			c1.9,0,3.5,0.7,4.6,2.1v-7.3H710.1z M707.7,1638c0-2.8-1.9-4.7-4.4-4.7c-2.5,0-4.5,1.8-4.5,4.7s1.9,4.7,4.5,4.7
			C705.8,1642.7,707.7,1640.9,707.7,1638z"/>
		<path class="st3" d="M726.5,1638.8h-10.7c0.3,2.3,2.2,3.9,4.8,3.9c1.5,0,2.8-0.5,3.8-1.6l1.3,1.5c-1.2,1.4-3,2.2-5.2,2.2
			c-4.3,0-7.1-2.8-7.1-6.8c0-3.9,2.8-6.8,6.6-6.8c3.8,0,6.5,2.8,6.5,6.8C726.6,1638.3,726.6,1638.6,726.5,1638.8z M715.8,1637.1h8.5
			c-0.2-2.2-1.9-3.8-4.2-3.8C717.7,1633.3,716.1,1634.9,715.8,1637.1z"/>
		<path class="st3" d="M728.3,1643.3l1-1.9c1.1,0.8,2.9,1.4,4.6,1.4c2.2,0,3.1-0.7,3.1-1.8c0-3-8.4-0.4-8.4-5.7c0-2.4,2.1-4,5.5-4
			c1.7,0,3.7,0.5,4.8,1.2l-1,1.9c-1.2-0.8-2.5-1-3.8-1c-2.1,0-3.1,0.8-3.1,1.8c0,3.1,8.4,0.6,8.4,5.7c0,2.4-2.2,3.9-5.7,3.9
			C731.5,1644.8,729.4,1644.1,728.3,1643.3z"/>
		<path class="st3" d="M760.9,1631.4l-6.4,14.6c-1.2,2.8-2.7,3.7-4.7,3.7c-1.3,0-2.6-0.4-3.4-1.2l1-1.8c0.6,0.6,1.5,1,2.4,1
			c1.1,0,1.9-0.5,2.5-2.1l0.4-0.9l-5.8-13.2h2.5l4.6,10.6l4.6-10.6H760.9z"/>
		<path class="st3" d="M783.6,1638c0,4.1-2.8,6.8-6.7,6.8c-1.9,0-3.5-0.7-4.6-2.2v6.8h-2.4v-18.1h2.3v2.1c1.1-1.5,2.8-2.2,4.7-2.2
			C780.8,1631.3,783.6,1634,783.6,1638z M781.2,1638c0-2.8-1.9-4.7-4.5-4.7c-2.5,0-4.4,1.8-4.4,4.7c0,2.8,1.9,4.7,4.4,4.7
			C779.2,1642.7,781.2,1640.9,781.2,1638z"/>
		<path class="st3" d="M794,1631.3v2.3c-0.2,0-0.4,0-0.6,0c-2.6,0-4.2,1.6-4.2,4.5v6.6h-2.4v-13.2h2.3v2.2
			C790.1,1632.1,791.7,1631.3,794,1631.3z"/>
		<path class="st3" d="M795.6,1638c0-3.9,2.9-6.8,6.9-6.8c4,0,6.9,2.8,6.9,6.8c0,3.9-2.9,6.8-6.9,6.8
			C798.6,1644.8,795.6,1642,795.6,1638z M807,1638c0-2.8-1.9-4.7-4.4-4.7c-2.5,0-4.5,1.8-4.5,4.7s1.9,4.7,4.5,4.7
			C805.1,1642.7,807,1640.9,807,1638z"/>
		<path class="st3" d="M825.3,1637v7.6h-2.4v-7.3c0-2.6-1.3-3.9-3.6-3.9c-2.5,0-4.2,1.5-4.2,4.4v6.8h-2.4v-13.2h2.3v2
			c1-1.3,2.7-2.1,4.8-2.1C823,1631.3,825.3,1633.1,825.3,1637z"/>
		<path class="st3" d="M828.6,1638c0-3.9,2.9-6.8,6.9-6.8c4,0,6.9,2.8,6.9,6.8c0,3.9-2.9,6.8-6.9,6.8
			C831.5,1644.8,828.6,1642,828.6,1638z M840,1638c0-2.8-1.9-4.7-4.4-4.7c-2.5,0-4.5,1.8-4.5,4.7s1.9,4.7,4.5,4.7
			C838.1,1642.7,840,1640.9,840,1638z"/>
		<path class="st3" d="M867.7,1637v7.6h-2.4v-7.3c0-2.6-1.2-3.9-3.4-3.9c-2.4,0-4,1.5-4,4.4v6.8h-2.4v-7.3c0-2.6-1.2-3.9-3.4-3.9
			c-2.4,0-4,1.5-4,4.4v6.8h-2.4v-13.2h2.3v2c0.9-1.3,2.6-2.1,4.6-2.1c2,0,3.7,0.8,4.6,2.5c1-1.5,2.8-2.5,5.1-2.5
			C865.5,1631.3,867.7,1633.1,867.7,1637z"/>
		<path class="st3" d="M885.9,1638c0,4-2.8,6.8-6.7,6.8c-1.9,0-3.6-0.8-4.7-2.2v2.1h-2.3v-18.5h2.4v7.3c1.1-1.4,2.7-2.1,4.6-2.1
			C883,1631.3,885.9,1634,885.9,1638z M883.4,1638c0-2.8-1.9-4.7-4.5-4.7c-2.5,0-4.4,1.8-4.4,4.7s1.9,4.7,4.4,4.7
			C881.5,1642.7,883.4,1640.9,883.4,1638z"/>
		<path class="st3" d="M896.3,1631.3v2.3c-0.2,0-0.4,0-0.5,0c-2.6,0-4.2,1.6-4.2,4.5v6.6h-2.4v-13.2h2.3v2.2
			C892.3,1632.1,894,1631.3,896.3,1631.3z"/>
		<path class="st3" d="M911.1,1638.8h-10.7c0.3,2.3,2.2,3.9,4.8,3.9c1.5,0,2.8-0.5,3.8-1.6l1.3,1.5c-1.2,1.4-3,2.2-5.2,2.2
			c-4.3,0-7.1-2.8-7.1-6.8c0-3.9,2.8-6.8,6.6-6.8c3.8,0,6.5,2.8,6.5,6.8C911.1,1638.3,911.1,1638.6,911.1,1638.8z M900.3,1637.1h8.5
			c-0.2-2.2-1.9-3.8-4.2-3.8C902.3,1633.3,900.6,1634.9,900.3,1637.1z"/>
		<path class="st3" d="M912.8,1643.3l1-1.9c1.1,0.8,2.9,1.4,4.6,1.4c2.2,0,3.1-0.7,3.1-1.8c0-3-8.4-0.4-8.4-5.7c0-2.4,2.1-4,5.5-4
			c1.7,0,3.7,0.5,4.8,1.2l-1,1.9c-1.2-0.8-2.5-1-3.8-1c-2.1,0-3.1,0.8-3.1,1.8c0,3.1,8.4,0.6,8.4,5.7c0,2.4-2.2,3.9-5.7,3.9
			C916,1644.8,913.9,1644.1,912.8,1643.3z"/>
		<path class="st3" d="M946.2,1626.1v18.5h-2.3v-2.1c-1.1,1.5-2.8,2.2-4.7,2.2c-3.9,0-6.7-2.7-6.7-6.8c0-4.1,2.8-6.8,6.7-6.8
			c1.9,0,3.5,0.7,4.6,2.1v-7.3H946.2z M943.8,1638c0-2.8-1.9-4.7-4.4-4.7c-2.5,0-4.5,1.8-4.5,4.7s1.9,4.7,4.5,4.7
			C941.9,1642.7,943.8,1640.9,943.8,1638z"/>
		<path class="st3" d="M962.7,1638.8h-10.7c0.3,2.3,2.2,3.9,4.8,3.9c1.5,0,2.8-0.5,3.8-1.6l1.3,1.5c-1.2,1.4-3,2.2-5.2,2.2
			c-4.3,0-7.1-2.8-7.1-6.8c0-3.9,2.8-6.8,6.6-6.8c3.8,0,6.5,2.8,6.5,6.8C962.7,1638.3,962.7,1638.6,962.7,1638.8z M951.9,1637.1h8.5
			c-0.2-2.2-1.9-3.8-4.2-3.8C953.9,1633.3,952.2,1634.9,951.9,1637.1z"/>
		<path class="st3" d="M985.4,1631.4v11.4c0,4.7-2.4,6.8-6.9,6.8c-2.4,0-4.9-0.7-6.3-2l1.2-1.8c1.2,1.1,3.1,1.7,5.1,1.7
			c3.1,0,4.5-1.4,4.5-4.4v-1c-1.1,1.4-2.9,2-4.8,2c-3.8,0-6.7-2.6-6.7-6.4c0-3.8,2.9-6.4,6.7-6.4c2,0,3.8,0.7,4.9,2.2v-2.1H985.4z
			 M983.1,1637.7c0-2.6-1.9-4.3-4.5-4.3c-2.7,0-4.6,1.7-4.6,4.3c0,2.6,1.9,4.3,4.6,4.3C981.2,1642,983.1,1640.2,983.1,1637.7z"/>
		<path class="st3" d="M1001.9,1638.8h-10.7c0.3,2.3,2.2,3.9,4.8,3.9c1.6,0,2.8-0.5,3.8-1.6l1.3,1.5c-1.2,1.4-3,2.2-5.2,2.2
			c-4.3,0-7.1-2.8-7.1-6.8c0-3.9,2.8-6.8,6.6-6.8c3.8,0,6.5,2.8,6.5,6.8C1002,1638.3,1002,1638.6,1001.9,1638.8z M991.2,1637.1h8.5
			c-0.2-2.2-1.9-3.8-4.2-3.8C993.1,1633.3,991.4,1634.9,991.2,1637.1z M995.8,1629.5h-2.2l3.4-3.2h3L995.8,1629.5z"/>
		<path class="st3" d="M1017.9,1637v7.6h-2.4v-7.3c0-2.6-1.3-3.9-3.6-3.9c-2.6,0-4.2,1.5-4.2,4.4v6.8h-2.4v-13.2h2.3v2
			c1-1.3,2.7-2.1,4.8-2.1C1015.6,1631.3,1017.9,1633.1,1017.9,1637z"/>
		<path class="st3" d="M1034.3,1638.8h-10.7c0.3,2.3,2.2,3.9,4.8,3.9c1.5,0,2.8-0.5,3.8-1.6l1.3,1.5c-1.2,1.4-3,2.2-5.2,2.2
			c-4.3,0-7.1-2.8-7.1-6.8c0-3.9,2.8-6.8,6.6-6.8s6.5,2.8,6.5,6.8C1034.4,1638.3,1034.4,1638.6,1034.3,1638.8z M1023.6,1637.1h8.5
			c-0.2-2.2-1.9-3.8-4.2-3.8C1025.5,1633.3,1023.8,1634.9,1023.6,1637.1z"/>
		<path class="st3" d="M1044.8,1631.3v2.3c-0.2,0-0.4,0-0.6,0c-2.6,0-4.2,1.6-4.2,4.5v6.6h-2.4v-13.2h2.3v2.2
			C1040.9,1632.1,1042.5,1631.3,1044.8,1631.3z"/>
		<path class="st3" d="M1046.4,1638c0-3.9,2.9-6.8,6.9-6.8s6.9,2.8,6.9,6.8c0,3.9-2.9,6.8-6.9,6.8S1046.4,1642,1046.4,1638z
			 M1057.8,1638c0-2.8-1.9-4.7-4.4-4.7s-4.5,1.8-4.5,4.7s1.9,4.7,4.5,4.7S1057.8,1640.9,1057.8,1638z"/>
		<path class="st3" d="M1068.6,1643.3l1-1.9c1.1,0.8,2.9,1.4,4.6,1.4c2.2,0,3.1-0.7,3.1-1.8c0-3-8.4-0.4-8.4-5.7c0-2.4,2.1-4,5.5-4
			c1.7,0,3.7,0.5,4.8,1.2l-1,1.9c-1.2-0.8-2.5-1-3.8-1c-2.1,0-3.1,0.8-3.1,1.8c0,3.1,8.4,0.6,8.4,5.7c0,2.4-2.2,3.9-5.7,3.9
			C1071.9,1644.8,1069.7,1644.1,1068.6,1643.3z"/>
		<path class="st3" d="M1094.7,1638.8H1084c0.3,2.3,2.2,3.9,4.8,3.9c1.5,0,2.8-0.5,3.8-1.6l1.3,1.5c-1.2,1.4-3,2.2-5.2,2.2
			c-4.3,0-7.1-2.8-7.1-6.8c0-3.9,2.8-6.8,6.6-6.8s6.5,2.8,6.5,6.8C1094.8,1638.3,1094.7,1638.6,1094.7,1638.8z M1084,1637.1h8.5
			c-0.2-2.2-1.9-3.8-4.2-3.8C1085.9,1633.3,1084.2,1634.9,1084,1637.1z"/>
		<path class="st3" d="M1105.2,1631.3v2.3c-0.2,0-0.4,0-0.6,0c-2.6,0-4.2,1.6-4.2,4.5v6.6h-2.4v-13.2h2.3v2.2
			C1101.2,1632.1,1102.9,1631.3,1105.2,1631.3z"/>
		<path class="st3" d="M1118.6,1636.7v8h-2.3v-1.8c-0.8,1.2-2.3,1.9-4.3,1.9c-3,0-4.9-1.6-4.9-3.9c0-2.1,1.4-3.9,5.3-3.9h3.8v-0.5
			c0-2-1.2-3.2-3.5-3.2c-1.6,0-3.2,0.5-4.2,1.4l-1-1.8c1.4-1.1,3.3-1.7,5.5-1.7C1116.6,1631.3,1118.6,1633,1118.6,1636.7z
			 M1116.2,1640.6v-1.8h-3.7c-2.4,0-3.1,0.9-3.1,2c0,1.3,1.1,2.2,2.9,2.2C1114.2,1643,1115.6,1642.1,1116.2,1640.6z M1113.5,1629.5
			h-2.2l3.4-3.2h3L1113.5,1629.5z"/>
		<path class="st3" d="M1135.7,1637v7.6h-2.4v-7.3c0-2.6-1.3-3.9-3.6-3.9c-2.6,0-4.2,1.5-4.2,4.4v6.8h-2.4v-13.2h2.3v2
			c1-1.3,2.7-2.1,4.8-2.1C1133.4,1631.3,1135.7,1633.1,1135.7,1637z"/>
		<path class="st3" d="M1154,1631.3v2.3c-0.2,0-0.4,0-0.5,0c-2.6,0-4.2,1.6-4.2,4.5v6.6h-2.4v-13.2h2.3v2.2
			C1150,1632.1,1151.6,1631.3,1154,1631.3z"/>
		<path class="st3" d="M1168.7,1638.8H1158c0.3,2.3,2.2,3.9,4.8,3.9c1.6,0,2.8-0.5,3.8-1.6l1.3,1.5c-1.2,1.4-3,2.2-5.2,2.2
			c-4.3,0-7.1-2.8-7.1-6.8c0-3.9,2.8-6.8,6.6-6.8s6.5,2.8,6.5,6.8C1168.8,1638.3,1168.7,1638.6,1168.7,1638.8z M1158,1637.1h8.5
			c-0.2-2.2-1.9-3.8-4.2-3.8C1159.9,1633.3,1158.2,1634.9,1158,1637.1z"/>
		<path class="st3" d="M1170.4,1643.3l1-1.9c1.1,0.8,2.9,1.4,4.6,1.4c2.2,0,3.1-0.7,3.1-1.8c0-3-8.4-0.4-8.4-5.7c0-2.4,2.1-4,5.5-4
			c1.7,0,3.7,0.5,4.8,1.2l-1,1.9c-1.2-0.8-2.5-1-3.8-1c-2.1,0-3.1,0.8-3.1,1.8c0,3.1,8.4,0.6,8.4,5.7c0,2.4-2.2,3.9-5.7,3.9
			C1173.7,1644.8,1171.5,1644.1,1170.4,1643.3z"/>
		<path class="st3" d="M1198.3,1638c0,4.1-2.8,6.8-6.7,6.8c-1.9,0-3.5-0.7-4.6-2.2v6.8h-2.4v-18.1h2.3v2.1c1.1-1.5,2.8-2.2,4.7-2.2
			C1195.5,1631.3,1198.3,1634,1198.3,1638z M1195.9,1638c0-2.8-1.9-4.7-4.5-4.7c-2.5,0-4.4,1.8-4.4,4.7c0,2.8,1.9,4.7,4.4,4.7
			C1194,1642.7,1195.9,1640.9,1195.9,1638z"/>
		<path class="st3" d="M1213.6,1638.8h-10.7c0.3,2.3,2.2,3.9,4.8,3.9c1.5,0,2.8-0.5,3.8-1.6l1.3,1.5c-1.2,1.4-3,2.2-5.2,2.2
			c-4.3,0-7.1-2.8-7.1-6.8c0-3.9,2.8-6.8,6.6-6.8s6.5,2.8,6.5,6.8C1213.6,1638.3,1213.6,1638.6,1213.6,1638.8z M1202.8,1637.1h8.5
			c-0.2-2.2-1.9-3.8-4.2-3.8C1204.8,1633.3,1203.1,1634.9,1202.8,1637.1z"/>
		<path class="st3" d="M1224.4,1643.9c-0.7,0.6-1.8,0.9-2.9,0.9c-2.7,0-4.2-1.5-4.2-4.2v-7.3h-2.2v-2h2.2v-2.9h2.4v2.9h3.8v2h-3.8
			v7.2c0,1.4,0.8,2.2,2.1,2.2c0.7,0,1.4-0.2,1.9-0.6L1224.4,1643.9z"/>
		<path class="st3" d="M1237.8,1636.7v8h-2.3v-1.8c-0.8,1.2-2.3,1.9-4.3,1.9c-3,0-4.9-1.6-4.9-3.9c0-2.1,1.4-3.9,5.3-3.9h3.8v-0.5
			c0-2-1.2-3.2-3.5-3.2c-1.6,0-3.2,0.5-4.2,1.4l-1-1.8c1.4-1.1,3.3-1.7,5.5-1.7C1235.8,1631.3,1237.8,1633,1237.8,1636.7z
			 M1235.4,1640.6v-1.8h-3.7c-2.4,0-3.1,0.9-3.1,2c0,1.3,1.1,2.2,2.9,2.2C1233.4,1643,1234.8,1642.1,1235.4,1640.6z"/>
		<path class="st3" d="M1254.8,1626.1v18.5h-2.3v-2.1c-1.1,1.5-2.8,2.2-4.7,2.2c-3.9,0-6.7-2.7-6.7-6.8c0-4.1,2.8-6.8,6.7-6.8
			c1.9,0,3.5,0.7,4.6,2.1v-7.3H1254.8z M1252.5,1638c0-2.8-1.9-4.7-4.4-4.7c-2.6,0-4.5,1.8-4.5,4.7s1.9,4.7,4.5,4.7
			C1250.5,1642.7,1252.5,1640.9,1252.5,1638z"/>
		<path class="st3" d="M1258.2,1638c0-3.9,2.9-6.8,6.9-6.8s6.9,2.8,6.9,6.8c0,3.9-2.9,6.8-6.9,6.8S1258.2,1642,1258.2,1638z
			 M1269.5,1638c0-2.8-1.9-4.7-4.4-4.7s-4.5,1.8-4.5,4.7s1.9,4.7,4.5,4.7S1269.5,1640.9,1269.5,1638z"/>
		<path class="st3" d="M1273.6,1643.3l1-1.9c1.1,0.8,2.9,1.4,4.6,1.4c2.2,0,3.1-0.7,3.1-1.8c0-3-8.4-0.4-8.4-5.7c0-2.4,2.1-4,5.5-4
			c1.7,0,3.7,0.5,4.8,1.2l-1,1.9c-1.2-0.8-2.5-1-3.8-1c-2.1,0-3.1,0.8-3.1,1.8c0,3.1,8.4,0.6,8.4,5.7c0,2.4-2.2,3.9-5.7,3.9
			C1276.9,1644.8,1274.7,1644.1,1273.6,1643.3z"/>
		<path class="st3" d="M1290,1643.1c0,0.5-0.1,0.9-0.4,1.8l-1.2,3.5h-1.6l0.9-3.7c-0.6-0.2-1-0.8-1-1.5c0-1,0.7-1.7,1.7-1.7
			S1290,1642.1,1290,1643.1z"/>
		<path class="st3" d="M1310.7,1636.7v8h-2.3v-1.8c-0.8,1.2-2.3,1.9-4.3,1.9c-3,0-4.9-1.6-4.9-3.9c0-2.1,1.4-3.9,5.3-3.9h3.8v-0.5
			c0-2-1.2-3.2-3.5-3.2c-1.6,0-3.2,0.5-4.2,1.4l-1-1.8c1.4-1.1,3.3-1.7,5.5-1.7C1308.6,1631.3,1310.7,1633,1310.7,1636.7z
			 M1308.3,1640.6v-1.8h-3.7c-2.4,0-3.1,0.9-3.1,2c0,1.3,1.1,2.2,2.9,2.2C1306.3,1643,1307.7,1642.1,1308.3,1640.6z"/>
		<path class="st3" d="M1319.9,1626c1,0,2,0.2,2.7,0.8l-0.7,1.8c-0.5-0.4-1.1-0.6-1.8-0.6c-1.4,0-2.1,0.8-2.1,2.3v1.1h3.8v2h-3.8
			v11.3h-2.4v-11.3h-2.2v-2h2.2v-1.2C1315.5,1627.7,1317,1626,1319.9,1626z M1325.5,1627.3c0-0.9,0.7-1.6,1.6-1.6
			c0.9,0,1.6,0.7,1.6,1.5c0,0.9-0.7,1.6-1.6,1.6C1326.2,1628.9,1325.5,1628.2,1325.5,1627.3z M1326,1631.4h2.4v13.2h-2.4V1631.4z"/>
		<path class="st3" d="M1340.1,1631.3v2.3c-0.2,0-0.4,0-0.5,0c-2.6,0-4.2,1.6-4.2,4.5v6.6h-2.4v-13.2h2.3v2.2
			C1336.1,1632.1,1337.7,1631.3,1340.1,1631.3z"/>
		<path class="st3" d="M1365,1637v7.6h-2.4v-7.3c0-2.6-1.2-3.9-3.4-3.9c-2.4,0-4,1.5-4,4.4v6.8h-2.4v-7.3c0-2.6-1.2-3.9-3.4-3.9
			c-2.4,0-4,1.5-4,4.4v6.8h-2.4v-13.2h2.3v2c0.9-1.3,2.6-2.1,4.6-2.1c2,0,3.7,0.8,4.6,2.5c1-1.5,2.8-2.5,5.1-2.5
			C1362.8,1631.3,1365,1633.1,1365,1637z"/>
		<path class="st3" d="M1379.9,1636.7v8h-2.3v-1.8c-0.8,1.2-2.3,1.9-4.3,1.9c-3,0-4.9-1.6-4.9-3.9c0-2.1,1.4-3.9,5.3-3.9h3.8v-0.5
			c0-2-1.2-3.2-3.5-3.2c-1.6,0-3.2,0.5-4.2,1.4l-1-1.8c1.4-1.1,3.3-1.7,5.5-1.7C1377.9,1631.3,1379.9,1633,1379.9,1636.7z
			 M1377.5,1640.6v-1.8h-3.7c-2.4,0-3.1,0.9-3.1,2c0,1.3,1.1,2.2,2.9,2.2C1375.5,1643,1376.9,1642.1,1377.5,1640.6z"/>
		<path class="st3" d="M1397,1626.1v18.5h-2.3v-2.1c-1.1,1.5-2.8,2.2-4.7,2.2c-3.9,0-6.7-2.7-6.7-6.8c0-4.1,2.8-6.8,6.7-6.8
			c1.9,0,3.5,0.7,4.6,2.1v-7.3H1397z M1394.6,1638c0-2.8-1.9-4.7-4.4-4.7c-2.6,0-4.5,1.8-4.5,4.7s1.9,4.7,4.5,4.7
			C1392.7,1642.7,1394.6,1640.9,1394.6,1638z"/>
		<path class="st3" d="M1400.3,1638c0-3.9,2.9-6.8,6.9-6.8s6.9,2.8,6.9,6.8c0,3.9-2.9,6.8-6.9,6.8S1400.3,1642,1400.3,1638z
			 M1411.6,1638c0-2.8-1.9-4.7-4.4-4.7s-4.5,1.8-4.5,4.7s1.9,4.7,4.5,4.7S1411.6,1640.9,1411.6,1638z"/>
		<path class="st3" d="M1415.7,1643.3l1-1.9c1.1,0.8,2.9,1.4,4.6,1.4c2.2,0,3.1-0.7,3.1-1.8c0-3-8.4-0.4-8.4-5.7c0-2.4,2.1-4,5.5-4
			c1.7,0,3.7,0.5,4.8,1.2l-1,1.9c-1.2-0.8-2.5-1-3.8-1c-2.1,0-3.1,0.8-3.1,1.8c0,3.1,8.4,0.6,8.4,5.7c0,2.4-2.2,3.9-5.7,3.9
			C1419,1644.8,1416.8,1644.1,1415.7,1643.3z"/>
		<path class="st3" d="M1448.4,1631.4l-6.4,14.6c-1.2,2.8-2.7,3.7-4.7,3.7c-1.3,0-2.6-0.4-3.4-1.2l1-1.8c0.7,0.6,1.5,1,2.4,1
			c1.2,0,1.9-0.5,2.5-2.1l0.4-0.9l-5.8-13.2h2.5l4.6,10.6l4.6-10.6H1448.4z"/>
	</g>
	<g class="st2">
		<path class="st3" d="M460.3,1668c0-3.9,2.9-6.8,7-6.8c2.4,0,4.3,1,5.4,2.8l-1.8,1.2c-0.8-1.3-2.1-1.9-3.6-1.9
			c-2.6,0-4.5,1.8-4.5,4.7c0,2.9,1.9,4.7,4.5,4.7c1.4,0,2.7-0.6,3.6-1.9l1.8,1.2c-1,1.8-3,2.8-5.4,2.8
			C463.2,1674.8,460.3,1672,460.3,1668z"/>
		<path class="st3" d="M487.5,1668.8h-10.7c0.3,2.3,2.2,3.9,4.8,3.9c1.5,0,2.8-0.5,3.8-1.6l1.3,1.5c-1.2,1.4-3,2.2-5.2,2.2
			c-4.3,0-7.1-2.8-7.1-6.8c0-3.9,2.8-6.8,6.6-6.8c3.8,0,6.5,2.8,6.5,6.8C487.6,1668.3,487.6,1668.6,487.5,1668.8z M476.8,1667.1h8.5
			c-0.2-2.2-1.9-3.8-4.2-3.8C478.7,1663.3,477,1664.9,476.8,1667.1z"/>
		<path class="st3" d="M490.9,1656.1h2.4v18.5h-2.4V1656.1z"/>
		<path class="st3" d="M509.8,1668.8h-10.7c0.3,2.3,2.2,3.9,4.8,3.9c1.5,0,2.8-0.5,3.8-1.6l1.3,1.5c-1.2,1.4-3,2.2-5.2,2.2
			c-4.3,0-7.1-2.8-7.1-6.8c0-3.9,2.8-6.8,6.6-6.8c3.8,0,6.5,2.8,6.5,6.8C509.9,1668.3,509.8,1668.6,509.8,1668.8z M499.1,1667.1h8.5
			c-0.2-2.2-1.9-3.8-4.2-3.8C501,1663.3,499.3,1664.9,499.1,1667.1z"/>
		<path class="st3" d="M526.9,1668c0,4-2.8,6.8-6.7,6.8c-1.9,0-3.6-0.8-4.7-2.2v2.1h-2.3v-18.5h2.4v7.3c1.1-1.4,2.7-2.1,4.6-2.1
			C524.1,1661.3,526.9,1664,526.9,1668z M524.5,1668c0-2.8-1.9-4.7-4.5-4.7c-2.5,0-4.4,1.8-4.4,4.7s1.9,4.7,4.4,4.7
			C522.6,1672.7,524.5,1670.9,524.5,1668z"/>
		<path class="st3" d="M537.4,1661.3v2.3c-0.2,0-0.4,0-0.6,0c-2.6,0-4.2,1.6-4.2,4.5v6.6h-2.4v-13.2h2.3v2.2
			C533.4,1662.1,535,1661.3,537.4,1661.3z"/>
		<path class="st3" d="M550.8,1666.7v8h-2.3v-1.8c-0.8,1.2-2.3,1.9-4.3,1.9c-3,0-4.9-1.6-4.9-3.9c0-2.1,1.4-3.9,5.3-3.9h3.8v-0.5
			c0-2-1.2-3.2-3.5-3.2c-1.6,0-3.2,0.5-4.2,1.4l-1-1.8c1.4-1.1,3.3-1.7,5.5-1.7C548.7,1661.3,550.8,1663,550.8,1666.7z
			 M548.4,1670.6v-1.8h-3.7c-2.4,0-3,0.9-3,2c0,1.3,1.1,2.2,2.9,2.2C546.4,1673,547.8,1672.1,548.4,1670.6z"/>
		<path class="st3" d="M567.8,1656.1v18.5h-2.3v-2.1c-1.1,1.5-2.8,2.2-4.7,2.2c-3.9,0-6.7-2.7-6.7-6.8c0-4.1,2.8-6.8,6.7-6.8
			c1.9,0,3.5,0.7,4.6,2.1v-7.3H567.8z M565.4,1668c0-2.8-1.9-4.7-4.4-4.7c-2.5,0-4.5,1.8-4.5,4.7s1.9,4.7,4.5,4.7
			C563.5,1672.7,565.4,1670.9,565.4,1668z"/>
		<path class="st3" d="M571.1,1668c0-3.9,2.9-6.8,6.9-6.8c4,0,6.9,2.8,6.9,6.8c0,3.9-2.9,6.8-6.9,6.8
			C574.1,1674.8,571.1,1672,571.1,1668z M582.5,1668c0-2.8-1.9-4.7-4.4-4.7s-4.5,1.8-4.5,4.7s1.9,4.7,4.5,4.7
			S582.5,1670.9,582.5,1668z"/>
		<path class="st3" d="M586.6,1673.3l1-1.9c1.1,0.8,2.9,1.4,4.6,1.4c2.2,0,3.1-0.7,3.1-1.8c0-3-8.4-0.4-8.4-5.7c0-2.4,2.1-4,5.5-4
			c1.7,0,3.7,0.5,4.8,1.2l-1,1.9c-1.2-0.8-2.5-1-3.8-1c-2.1,0-3.1,0.8-3.1,1.8c0,3.1,8.4,0.6,8.4,5.7c0,2.4-2.2,3.9-5.7,3.9
			C589.8,1674.8,587.7,1674.1,586.6,1673.3z"/>
		<path class="st3" d="M619.4,1668.8h-10.7c0.3,2.3,2.2,3.9,4.8,3.9c1.5,0,2.8-0.5,3.8-1.6l1.3,1.5c-1.2,1.4-3,2.2-5.2,2.2
			c-4.3,0-7.1-2.8-7.1-6.8c0-3.9,2.8-6.8,6.6-6.8c3.8,0,6.5,2.8,6.5,6.8C619.5,1668.3,619.4,1668.6,619.4,1668.8z M608.7,1667.1h8.5
			c-0.2-2.2-1.9-3.8-4.2-3.8C610.6,1663.3,608.9,1664.9,608.7,1667.1z"/>
		<path class="st3" d="M635.4,1667v7.6H633v-7.3c0-2.6-1.3-3.9-3.6-3.9c-2.5,0-4.2,1.5-4.2,4.4v6.8h-2.4v-13.2h2.3v2
			c1-1.3,2.7-2.1,4.8-2.1C633.1,1661.3,635.4,1663.1,635.4,1667z"/>
		<path class="st3" d="M646.9,1657.2h7.4c5.6,0,9.4,3.5,9.4,8.7s-3.8,8.7-9.4,8.7h-7.4V1657.2z M654.1,1672.5c4.3,0,7.1-2.6,7.1-6.6
			s-2.8-6.6-7.1-6.6h-4.7v13.1H654.1z"/>
		<path class="st3" d="M678.4,1670.3h-9.3l-1.9,4.4h-2.6l7.9-17.5h2.5l7.9,17.5h-2.6L678.4,1670.3z M677.6,1668.3l-3.8-8.6l-3.8,8.6
			H677.6z"/>
		<path class="st3" d="M688.2,1659.3h-6v-2.2h14.5v2.2h-6v15.3h-2.5V1659.3z"/>
		<path class="st3" d="M703.1,1659.3h-6v-2.2h14.5v2.2h-6v15.3h-2.5V1659.3z"/>
		<path class="st3" d="M712.6,1665.9c0-5.1,3.9-8.9,9.3-8.9c5.3,0,9.3,3.8,9.3,8.9s-3.9,8.9-9.3,8.9
			C716.6,1674.9,712.6,1671,712.6,1665.9z M728.7,1665.9c0-3.9-2.9-6.7-6.8-6.7c-3.9,0-6.8,2.8-6.8,6.7c0,3.9,2.9,6.7,6.8,6.7
			C725.8,1672.6,728.7,1669.8,728.7,1665.9z"/>
		<path class="st3" d="M733.1,1673.1c0-1,0.8-1.7,1.7-1.7c0.9,0,1.6,0.7,1.6,1.7c0,1-0.8,1.7-1.6,1.7
			C733.9,1674.8,733.1,1674.1,733.1,1673.1z"/>
		<path class="st3" d="M745.4,1672.7l0.9-1.9c1.3,1.2,3.5,2,5.8,2c3,0,4.3-1.2,4.3-2.7c0-4.3-10.6-1.6-10.6-8.1c0-2.7,2.1-5,6.7-5
			c2,0,4.2,0.5,5.6,1.5l-0.8,2c-1.5-1-3.2-1.4-4.8-1.4c-3,0-4.2,1.2-4.2,2.8c0,4.3,10.6,1.6,10.6,8c0,2.7-2.1,5-6.8,5
			C749.4,1674.9,746.8,1674,745.4,1672.7z"/>
		<path class="st3" d="M761.7,1657.3c0-0.9,0.7-1.6,1.6-1.6s1.6,0.7,1.6,1.5c0,0.9-0.7,1.6-1.6,1.6
			C762.4,1658.9,761.7,1658.2,761.7,1657.3z M762.1,1661.4h2.4v13.2h-2.4V1661.4z"/>
		<path class="st3" d="M789.6,1668c0,4-2.8,6.8-6.7,6.8c-1.9,0-3.6-0.8-4.7-2.2v2.1h-2.3v-18.5h2.4v7.3c1.1-1.4,2.7-2.1,4.6-2.1
			C786.7,1661.3,789.6,1664,789.6,1668z M787.1,1668c0-2.8-1.9-4.7-4.5-4.7c-2.5,0-4.4,1.8-4.4,4.7s1.9,4.7,4.4,4.7
			C785.2,1672.7,787.1,1670.9,787.1,1668z"/>
		<path class="st3" d="M805.2,1661.4v13.2H803v-2c-1,1.4-2.6,2.2-4.5,2.2c-3.4,0-5.7-1.9-5.7-5.8v-7.6h2.4v7.3
			c0,2.6,1.3,3.9,3.6,3.9c2.5,0,4.1-1.5,4.1-4.4v-6.8H805.2z"/>
		<path class="st3" d="M808.1,1673.3l1-1.9c1.1,0.8,2.9,1.4,4.6,1.4c2.2,0,3.1-0.7,3.1-1.8c0-3-8.4-0.4-8.4-5.7c0-2.4,2.1-4,5.5-4
			c1.7,0,3.7,0.5,4.8,1.2l-1,1.9c-1.2-0.8-2.5-1-3.8-1c-2.1,0-3.1,0.8-3.1,1.8c0,3.1,8.4,0.6,8.4,5.7c0,2.4-2.2,3.9-5.7,3.9
			C811.4,1674.8,809.2,1674.1,808.1,1673.3z"/>
		<path class="st3" d="M821.1,1668c0-3.9,2.9-6.8,7-6.8c2.4,0,4.3,1,5.4,2.8l-1.8,1.2c-0.8-1.3-2.1-1.9-3.6-1.9
			c-2.6,0-4.5,1.8-4.5,4.7c0,2.9,1.9,4.7,4.5,4.7c1.4,0,2.7-0.6,3.6-1.9l1.8,1.2c-1,1.8-3,2.8-5.4,2.8
			C824,1674.8,821.1,1672,821.1,1668z"/>
		<path class="st3" d="M847.1,1666.7v8h-2.3v-1.8c-0.8,1.2-2.3,1.9-4.3,1.9c-3,0-4.9-1.6-4.9-3.9c0-2.1,1.4-3.9,5.3-3.9h3.8v-0.5
			c0-2-1.2-3.2-3.5-3.2c-1.6,0-3.2,0.5-4.2,1.4l-1-1.8c1.4-1.1,3.3-1.7,5.5-1.7C845.1,1661.3,847.1,1663,847.1,1666.7z
			 M844.7,1670.6v-1.8H841c-2.4,0-3,0.9-3,2c0,1.3,1.1,2.2,2.9,2.2C842.7,1673,844.1,1672.1,844.7,1670.6z"/>
		<path class="st3" d="M849.9,1673.3l1-1.9c1.1,0.8,2.9,1.4,4.6,1.4c2.2,0,3.1-0.7,3.1-1.8c0-3-8.4-0.4-8.4-5.7c0-2.4,2.1-4,5.5-4
			c1.7,0,3.7,0.5,4.8,1.2l-1,1.9c-1.2-0.8-2.5-1-3.8-1c-2.1,0-3.1,0.8-3.1,1.8c0,3.1,8.4,0.6,8.4,5.7c0,2.4-2.2,3.9-5.7,3.9
			C853.2,1674.8,851,1674.1,849.9,1673.3z"/>
		<path class="st3" d="M881.3,1666.7v8H879v-1.8c-0.8,1.2-2.3,1.9-4.3,1.9c-3,0-4.9-1.6-4.9-3.9c0-2.1,1.4-3.9,5.3-3.9h3.8v-0.5
			c0-2-1.2-3.2-3.5-3.2c-1.6,0-3.2,0.5-4.2,1.4l-1-1.8c1.4-1.1,3.3-1.7,5.5-1.7C879.3,1661.3,881.3,1663,881.3,1666.7z
			 M878.9,1670.6v-1.8h-3.7c-2.4,0-3,0.9-3,2c0,1.3,1.1,2.2,2.9,2.2C876.9,1673,878.3,1672.1,878.9,1670.6z"/>
		<path class="st3" d="M893.2,1673.9c-0.7,0.6-1.8,0.9-2.9,0.9c-2.7,0-4.2-1.5-4.2-4.2v-7.3h-2.2v-2h2.2v-2.9h2.4v2.9h3.8v2h-3.8
			v7.2c0,1.4,0.7,2.2,2.1,2.2c0.7,0,1.4-0.2,1.9-0.6L893.2,1673.9z"/>
		<path class="st3" d="M907.6,1668.8h-10.7c0.3,2.3,2.2,3.9,4.8,3.9c1.5,0,2.8-0.5,3.8-1.6l1.3,1.5c-1.2,1.4-3,2.2-5.2,2.2
			c-4.3,0-7.1-2.8-7.1-6.8c0-3.9,2.8-6.8,6.6-6.8c3.8,0,6.5,2.8,6.5,6.8C907.6,1668.3,907.6,1668.6,907.6,1668.8z M896.8,1667.1h8.5
			c-0.2-2.2-1.9-3.8-4.2-3.8C898.8,1663.3,897.1,1664.9,896.8,1667.1z"/>
		<path class="st3" d="M923.5,1667v7.6h-2.4v-7.3c0-2.6-1.3-3.9-3.6-3.9c-2.5,0-4.2,1.5-4.2,4.4v6.8H911v-13.2h2.3v2
			c1-1.3,2.7-2.1,4.8-2.1C921.3,1661.3,923.5,1663.1,923.5,1667z"/>
		<path class="st3" d="M926.8,1668c0-3.9,2.9-6.8,7-6.8c2.4,0,4.3,1,5.4,2.8l-1.8,1.2c-0.8-1.3-2.1-1.9-3.6-1.9
			c-2.6,0-4.5,1.8-4.5,4.7c0,2.9,1.9,4.7,4.5,4.7c1.4,0,2.7-0.6,3.6-1.9l1.8,1.2c-1,1.8-3,2.8-5.4,2.8
			C929.8,1674.8,926.8,1672,926.8,1668z"/>
		<path class="st3" d="M941.9,1657.3c0-0.9,0.7-1.6,1.6-1.6s1.6,0.7,1.6,1.5c0,0.9-0.7,1.6-1.6,1.6
			C942.6,1658.9,941.9,1658.2,941.9,1657.3z M942.3,1661.4h2.4v13.2h-2.4V1661.4z"/>
		<path class="st3" d="M948.1,1668c0-3.9,2.9-6.8,6.9-6.8c4,0,6.9,2.8,6.9,6.8c0,3.9-2.9,6.8-6.9,6.8
			C951,1674.8,948.1,1672,948.1,1668z M959.4,1668c0-2.8-1.9-4.7-4.4-4.7s-4.5,1.8-4.5,4.7s1.9,4.7,4.5,4.7S959.4,1670.9,959.4,1668
			z M956.5,1656.2h3l-4.2,3.2h-2.2L956.5,1656.2z"/>
		<path class="st3" d="M977.8,1667v7.6h-2.4v-7.3c0-2.6-1.3-3.9-3.6-3.9c-2.5,0-4.2,1.5-4.2,4.4v6.8h-2.4v-13.2h2.3v2
			c1-1.3,2.7-2.1,4.8-2.1C975.5,1661.3,977.8,1663.1,977.8,1667z"/>
		<path class="st3" d="M1000.9,1668.8h-10.7c0.3,2.3,2.2,3.9,4.8,3.9c1.5,0,2.8-0.5,3.8-1.6l1.3,1.5c-1.2,1.4-3,2.2-5.2,2.2
			c-4.3,0-7.1-2.8-7.1-6.8c0-3.9,2.8-6.8,6.6-6.8c3.8,0,6.5,2.8,6.5,6.8C1000.9,1668.3,1000.9,1668.6,1000.9,1668.8z M990.1,1667.1
			h8.5c-0.2-2.2-1.9-3.8-4.2-3.8C992.1,1663.3,990.4,1664.9,990.1,1667.1z"/>
		<path class="st3" d="M1002.6,1673.3l1-1.9c1.1,0.8,2.9,1.4,4.6,1.4c2.2,0,3.1-0.7,3.1-1.8c0-3-8.4-0.4-8.4-5.7c0-2.4,2.1-4,5.5-4
			c1.7,0,3.7,0.5,4.8,1.2l-1,1.9c-1.2-0.8-2.5-1-3.8-1c-2.1,0-3.1,0.8-3.1,1.8c0,3.1,8.4,0.6,8.4,5.7c0,2.4-2.2,3.9-5.7,3.9
			C1005.8,1674.8,1003.7,1674.1,1002.6,1673.3z"/>
		<path class="st3" d="M1030.5,1668c0,4.1-2.8,6.8-6.7,6.8c-1.9,0-3.5-0.7-4.6-2.2v6.8h-2.4v-18.1h2.3v2.1c1.1-1.5,2.8-2.2,4.7-2.2
			C1027.7,1661.3,1030.5,1664,1030.5,1668z M1028.1,1668c0-2.8-1.9-4.7-4.5-4.7c-2.5,0-4.4,1.8-4.4,4.7c0,2.8,1.9,4.7,4.4,4.7
			C1026.1,1672.7,1028.1,1670.9,1028.1,1668z"/>
		<path class="st3" d="M1045.7,1668.8H1035c0.3,2.3,2.2,3.9,4.8,3.9c1.5,0,2.8-0.5,3.8-1.6l1.3,1.5c-1.2,1.4-3,2.2-5.2,2.2
			c-4.3,0-7.1-2.8-7.1-6.8c0-3.9,2.8-6.8,6.6-6.8s6.5,2.8,6.5,6.8C1045.8,1668.3,1045.8,1668.6,1045.7,1668.8z M1035,1667.1h8.5
			c-0.2-2.2-1.9-3.8-4.2-3.8C1036.9,1663.3,1035.2,1664.9,1035,1667.1z"/>
		<path class="st3" d="M1047.9,1668c0-3.9,2.9-6.8,7-6.8c2.4,0,4.3,1,5.4,2.8l-1.8,1.2c-0.8-1.3-2.1-1.9-3.6-1.9
			c-2.6,0-4.5,1.8-4.5,4.7c0,2.9,1.9,4.7,4.5,4.7c1.4,0,2.7-0.6,3.6-1.9l1.8,1.2c-1,1.8-3,2.8-5.4,2.8
			C1050.8,1674.8,1047.9,1672,1047.9,1668z"/>
		<path class="st3" d="M1066.1,1656.2h3l-4.2,3.2h-2.2L1066.1,1656.2z M1063.4,1661.4h2.4v13.2h-2.4V1661.4z"/>
		<path class="st3" d="M1075.1,1656c1,0,2,0.2,2.7,0.8l-0.7,1.8c-0.5-0.4-1.1-0.6-1.8-0.6c-1.4,0-2.1,0.8-2.1,2.3v1.1h3.8v2h-3.8
			v11.3h-2.4v-11.3h-2.2v-2h2.2v-1.2C1070.7,1657.7,1072.3,1656,1075.1,1656z M1080.8,1657.3c0-0.9,0.7-1.6,1.6-1.6s1.6,0.7,1.6,1.5
			c0,0.9-0.7,1.6-1.6,1.6C1081.5,1658.9,1080.8,1658.2,1080.8,1657.3z M1081.2,1661.4h2.4v13.2h-2.4V1661.4z"/>
		<path class="st3" d="M1086.9,1668c0-3.9,2.9-6.8,7-6.8c2.4,0,4.3,1,5.4,2.8l-1.8,1.2c-0.8-1.3-2.1-1.9-3.6-1.9
			c-2.6,0-4.5,1.8-4.5,4.7c0,2.9,1.9,4.7,4.5,4.7c1.4,0,2.7-0.6,3.6-1.9l1.8,1.2c-1,1.8-3,2.8-5.4,2.8
			C1089.9,1674.8,1086.9,1672,1086.9,1668z"/>
		<path class="st3" d="M1112.9,1666.7v8h-2.3v-1.8c-0.8,1.2-2.3,1.9-4.3,1.9c-3,0-4.9-1.6-4.9-3.9c0-2.1,1.4-3.9,5.3-3.9h3.8v-0.5
			c0-2-1.2-3.2-3.5-3.2c-1.6,0-3.2,0.5-4.2,1.4l-1-1.8c1.4-1.1,3.3-1.7,5.5-1.7C1110.9,1661.3,1112.9,1663,1112.9,1666.7z
			 M1110.5,1670.6v-1.8h-3.7c-2.4,0-3,0.9-3,2c0,1.3,1.1,2.2,2.9,2.2C1108.5,1673,1109.9,1672.1,1110.5,1670.6z"/>
		<path class="st3" d="M1119.6,1673.1c0,0.5-0.1,0.9-0.4,1.8l-1.2,3.5h-1.6l0.9-3.7c-0.6-0.2-1-0.8-1-1.5c0-1,0.7-1.7,1.7-1.7
			C1118.9,1671.4,1119.6,1672.1,1119.6,1673.1z"/>
		<path class="st3" d="M1142.4,1667v7.6h-2.4v-7.3c0-2.6-1.3-3.9-3.6-3.9c-2.5,0-4.2,1.5-4.2,4.4v6.8h-2.4v-13.2h2.3v2
			c1-1.3,2.7-2.1,4.8-2.1C1140.1,1661.3,1142.4,1663.1,1142.4,1667z"/>
		<path class="st3" d="M1145.7,1668c0-3.9,2.9-6.8,6.9-6.8c4,0,6.9,2.8,6.9,6.8c0,3.9-2.9,6.8-6.9,6.8
			C1148.6,1674.8,1145.7,1672,1145.7,1668z M1157,1668c0-2.8-1.9-4.7-4.4-4.7c-2.5,0-4.5,1.8-4.5,4.7s1.9,4.7,4.5,4.7
			C1155.1,1672.7,1157,1670.9,1157,1668z"/>
		<path class="st3" d="M1161.1,1673.3l1-1.9c1.1,0.8,2.9,1.4,4.6,1.4c2.2,0,3.1-0.7,3.1-1.8c0-3-8.4-0.4-8.4-5.7c0-2.4,2.1-4,5.5-4
			c1.7,0,3.7,0.5,4.8,1.2l-1,1.9c-1.2-0.8-2.5-1-3.8-1c-2.1,0-3.1,0.8-3.1,1.8c0,3.1,8.4,0.6,8.4,5.7c0,2.4-2.2,3.9-5.7,3.9
			C1164.4,1674.8,1162.2,1674.1,1161.1,1673.3z"/>
		<path class="st3" d="M1192.5,1666.7v8h-2.3v-1.8c-0.8,1.2-2.3,1.9-4.3,1.9c-3,0-4.9-1.6-4.9-3.9c0-2.1,1.4-3.9,5.3-3.9h3.8v-0.5
			c0-2-1.2-3.2-3.5-3.2c-1.6,0-3.2,0.5-4.2,1.4l-1-1.8c1.4-1.1,3.3-1.7,5.5-1.7C1190.5,1661.3,1192.5,1663,1192.5,1666.7z
			 M1190.1,1670.6v-1.8h-3.7c-2.4,0-3,0.9-3,2c0,1.3,1.1,2.2,2.9,2.2C1188.1,1673,1189.5,1672.1,1190.1,1670.6z"/>
		<path class="st3" d="M1195.3,1673.3l1-1.9c1.1,0.8,2.9,1.4,4.6,1.4c2.2,0,3.1-0.7,3.1-1.8c0-3-8.4-0.4-8.4-5.7c0-2.4,2.1-4,5.5-4
			c1.7,0,3.7,0.5,4.8,1.2l-1,1.9c-1.2-0.8-2.5-1-3.8-1c-2.1,0-3.1,0.8-3.1,1.8c0,3.1,8.4,0.6,8.4,5.7c0,2.4-2.2,3.9-5.7,3.9
			C1198.6,1674.8,1196.4,1674.1,1195.3,1673.3z"/>
		<path class="st3" d="M1221.4,1668.8h-10.7c0.3,2.3,2.2,3.9,4.8,3.9c1.5,0,2.8-0.5,3.8-1.6l1.3,1.5c-1.2,1.4-3,2.2-5.2,2.2
			c-4.3,0-7.1-2.8-7.1-6.8c0-3.9,2.8-6.8,6.6-6.8s6.5,2.8,6.5,6.8C1221.5,1668.3,1221.4,1668.6,1221.4,1668.8z M1210.7,1667.1h8.5
			c-0.2-2.2-1.9-3.8-4.2-3.8C1212.6,1663.3,1210.9,1664.9,1210.7,1667.1z"/>
		<path class="st3" d="M1237.5,1661.4v11.4c0,4.7-2.4,6.8-6.9,6.8c-2.4,0-4.9-0.7-6.3-2l1.1-1.8c1.2,1.1,3.1,1.7,5.1,1.7
			c3.1,0,4.5-1.4,4.5-4.4v-1c-1.1,1.4-2.9,2-4.8,2c-3.8,0-6.7-2.6-6.7-6.4c0-3.8,2.9-6.4,6.7-6.4c2,0,3.8,0.7,4.9,2.2v-2.1H1237.5z
			 M1235.1,1667.7c0-2.6-1.9-4.3-4.5-4.3c-2.7,0-4.6,1.7-4.6,4.3c0,2.6,1.9,4.3,4.6,4.3C1233.2,1672,1235.1,1670.2,1235.1,1667.7z"
			/>
		<path class="st3" d="M1254.4,1661.4v13.2h-2.3v-2c-1,1.4-2.6,2.2-4.5,2.2c-3.4,0-5.7-1.9-5.7-5.8v-7.6h2.4v7.3
			c0,2.6,1.3,3.9,3.6,3.9c2.5,0,4.1-1.5,4.1-4.4v-6.8H1254.4z"/>
		<path class="st3" d="M1266.1,1661.3v2.3c-0.2,0-0.4,0-0.5,0c-2.6,0-4.2,1.6-4.2,4.5v6.6h-2.4v-13.2h2.3v2.2
			C1262.1,1662.1,1263.8,1661.3,1266.1,1661.3z"/>
		<path class="st3" d="M1279.5,1666.7v8h-2.3v-1.8c-0.8,1.2-2.3,1.9-4.3,1.9c-3,0-4.9-1.6-4.9-3.9c0-2.1,1.4-3.9,5.3-3.9h3.8v-0.5
			c0-2-1.2-3.2-3.5-3.2c-1.6,0-3.2,0.5-4.2,1.4l-1-1.8c1.4-1.1,3.3-1.7,5.5-1.7C1277.5,1661.3,1279.5,1663,1279.5,1666.7z
			 M1277.1,1670.6v-1.8h-3.7c-2.4,0-3,0.9-3,2c0,1.3,1.1,2.2,2.9,2.2C1275.1,1673,1276.5,1672.1,1277.1,1670.6z"/>
		<path class="st3" d="M1291.1,1661.3v2.3c-0.2,0-0.4,0-0.5,0c-2.6,0-4.2,1.6-4.2,4.5v6.6h-2.4v-13.2h2.3v2.2
			C1287.1,1662.1,1288.8,1661.3,1291.1,1661.3z"/>
		<path class="st3" d="M1305.8,1668.8h-10.7c0.3,2.3,2.2,3.9,4.8,3.9c1.5,0,2.8-0.5,3.8-1.6l1.3,1.5c-1.2,1.4-3,2.2-5.2,2.2
			c-4.3,0-7.1-2.8-7.1-6.8c0-3.9,2.8-6.8,6.6-6.8s6.5,2.8,6.5,6.8C1305.9,1668.3,1305.9,1668.6,1305.8,1668.8z M1295.1,1667.1h8.5
			c-0.2-2.2-1.9-3.8-4.2-3.8C1297,1663.3,1295.3,1664.9,1295.1,1667.1z"/>
		<path class="st3" d="M1331.2,1667v7.6h-2.4v-7.3c0-2.6-1.2-3.9-3.4-3.9c-2.4,0-4,1.5-4,4.4v6.8h-2.4v-7.3c0-2.6-1.2-3.9-3.4-3.9
			c-2.4,0-4,1.5-4,4.4v6.8h-2.4v-13.2h2.3v2c0.9-1.3,2.6-2.1,4.6-2.1c2,0,3.7,0.8,4.6,2.5c1-1.5,2.8-2.5,5.1-2.5
			C1329,1661.3,1331.2,1663.1,1331.2,1667z"/>
		<path class="st3" d="M1334.5,1668c0-3.9,2.9-6.8,6.9-6.8c4,0,6.9,2.8,6.9,6.8c0,3.9-2.9,6.8-6.9,6.8
			C1337.4,1674.8,1334.5,1672,1334.5,1668z M1345.8,1668c0-2.8-1.9-4.7-4.4-4.7c-2.5,0-4.5,1.8-4.5,4.7s1.9,4.7,4.5,4.7
			C1343.9,1672.7,1345.8,1670.9,1345.8,1668z"/>
		<path class="st3" d="M1349.9,1673.3l1-1.9c1.1,0.8,2.9,1.4,4.6,1.4c2.2,0,3.1-0.7,3.1-1.8c0-3-8.4-0.4-8.4-5.7c0-2.4,2.1-4,5.5-4
			c1.7,0,3.7,0.5,4.8,1.2l-1,1.9c-1.2-0.8-2.5-1-3.8-1c-2.1,0-3.1,0.8-3.1,1.8c0,3.1,8.4,0.6,8.4,5.7c0,2.4-2.2,3.9-5.7,3.9
			C1353.2,1674.8,1351,1674.1,1349.9,1673.3z"/>
		<path class="st3" d="M1383.3,1656.1v18.5h-2.3v-2.1c-1.1,1.5-2.8,2.2-4.7,2.2c-3.9,0-6.7-2.7-6.7-6.8c0-4.1,2.8-6.8,6.7-6.8
			c1.9,0,3.5,0.7,4.6,2.1v-7.3H1383.3z M1381,1668c0-2.8-1.9-4.7-4.4-4.7c-2.5,0-4.5,1.8-4.5,4.7s1.9,4.7,4.5,4.7
			C1379,1672.7,1381,1670.9,1381,1668z"/>
		<path class="st3" d="M1399.8,1668.8h-10.7c0.3,2.3,2.2,3.9,4.8,3.9c1.5,0,2.8-0.5,3.8-1.6l1.3,1.5c-1.2,1.4-3,2.2-5.2,2.2
			c-4.3,0-7.1-2.8-7.1-6.8c0-3.9,2.8-6.8,6.6-6.8s6.5,2.8,6.5,6.8C1399.9,1668.3,1399.8,1668.6,1399.8,1668.8z M1389.1,1667.1h8.5
			c-0.2-2.2-1.9-3.8-4.2-3.8C1391,1663.3,1389.3,1664.9,1389.1,1667.1z"/>
		<path class="st3" d="M1422.4,1661.4v18.1h-2.4v-6.8c-1.1,1.4-2.7,2.2-4.6,2.2c-3.9,0-6.7-2.7-6.7-6.8c0-4.1,2.8-6.8,6.7-6.8
			c1.9,0,3.6,0.8,4.7,2.2v-2.1H1422.4z M1420,1668c0-2.8-1.9-4.7-4.4-4.7c-2.5,0-4.5,1.8-4.5,4.7c0,2.8,1.9,4.7,4.5,4.7
			C1418.1,1672.7,1420,1670.9,1420,1668z"/>
		<path class="st3" d="M1439.3,1661.4v13.2h-2.3v-2c-1,1.4-2.6,2.2-4.5,2.2c-3.4,0-5.7-1.9-5.7-5.8v-7.6h2.4v7.3
			c0,2.6,1.3,3.9,3.6,3.9c2.5,0,4.1-1.5,4.1-4.4v-6.8H1439.3z"/>
		<path class="st3" d="M1455.8,1668.8h-10.7c0.3,2.3,2.2,3.9,4.8,3.9c1.5,0,2.8-0.5,3.8-1.6l1.3,1.5c-1.2,1.4-3,2.2-5.2,2.2
			c-4.3,0-7.1-2.8-7.1-6.8c0-3.9,2.8-6.8,6.6-6.8s6.5,2.8,6.5,6.8C1455.9,1668.3,1455.8,1668.6,1455.8,1668.8z M1445.1,1667.1h8.5
			c-0.2-2.2-1.9-3.8-4.2-3.8C1447,1663.3,1445.3,1664.9,1445.1,1667.1z"/>
	</g>
	<g class="st2">
		<path class="st3" d="M755.6,1691.3v2.3c-0.2,0-0.4,0-0.5,0c-2.6,0-4.2,1.6-4.2,4.5v6.6h-2.4v-13.2h2.3v2.2
			C751.6,1692.1,753.3,1691.3,755.6,1691.3z"/>
		<path class="st3" d="M770.4,1698.8h-10.7c0.3,2.3,2.2,3.9,4.8,3.9c1.5,0,2.8-0.5,3.8-1.6l1.3,1.5c-1.2,1.4-3,2.2-5.2,2.2
			c-4.3,0-7.1-2.8-7.1-6.8c0-3.9,2.8-6.8,6.6-6.8s6.5,2.8,6.5,6.8C770.4,1698.3,770.4,1698.6,770.4,1698.8z M759.6,1697.1h8.5
			c-0.2-2.2-1.9-3.8-4.2-3.8C761.6,1693.3,759.9,1694.9,759.6,1697.1z"/>
		<path class="st3" d="M772.5,1698c0-3.9,2.9-6.8,7-6.8c2.4,0,4.3,1,5.4,2.8l-1.8,1.2c-0.8-1.3-2.1-1.9-3.6-1.9
			c-2.6,0-4.5,1.8-4.5,4.7c0,2.9,2,4.7,4.5,4.7c1.5,0,2.8-0.6,3.6-1.9l1.8,1.2c-1,1.8-3,2.8-5.4,2.8
			C775.4,1704.8,772.5,1702,772.5,1698z"/>
		<path class="st3" d="M787.6,1687.3c0-0.9,0.7-1.6,1.6-1.6s1.6,0.7,1.6,1.5c0,0.9-0.7,1.6-1.6,1.6
			C788.3,1688.9,787.6,1688.2,787.6,1687.3z M788,1691.4h2.4v13.2H788V1691.4z"/>
		<path class="st3" d="M808.7,1698c0,4-2.8,6.8-6.7,6.8c-1.9,0-3.6-0.8-4.7-2.2v2.1H795v-18.5h2.4v7.3c1.1-1.4,2.8-2.1,4.6-2.1
			C805.9,1691.3,808.7,1694,808.7,1698z M806.3,1698c0-2.8-1.9-4.7-4.5-4.7c-2.5,0-4.4,1.8-4.4,4.7s1.9,4.7,4.4,4.7
			C804.4,1702.7,806.3,1700.9,806.3,1698z"/>
		<path class="st3" d="M822.4,1696.7v8h-2.3v-1.8c-0.8,1.2-2.3,1.9-4.3,1.9c-3,0-4.9-1.6-4.9-3.9c0-2.1,1.4-3.9,5.3-3.9h3.8v-0.5
			c0-2-1.2-3.2-3.5-3.2c-1.6,0-3.2,0.5-4.2,1.4l-1-1.8c1.4-1.1,3.3-1.7,5.5-1.7C820.4,1691.3,822.4,1693,822.4,1696.7z M820,1700.6
			v-1.8h-3.7c-2.4,0-3,0.9-3,2c0,1.3,1.1,2.2,2.9,2.2C818,1703,819.4,1702.1,820,1700.6z"/>
		<path class="st3" d="M825.2,1703.3l1-1.9c1.1,0.8,2.9,1.4,4.6,1.4c2.2,0,3.1-0.7,3.1-1.8c0-3-8.4-0.4-8.4-5.7c0-2.4,2.1-4,5.5-4
			c1.7,0,3.7,0.5,4.8,1.2l-1,1.9c-1.2-0.8-2.5-1-3.8-1c-2.1,0-3.1,0.8-3.1,1.8c0,3.1,8.4,0.6,8.4,5.7c0,2.4-2.2,3.9-5.7,3.9
			C828.5,1704.8,826.3,1704.1,825.2,1703.3z"/>
		<path class="st3" d="M846.1,1686.1h2.4v18.5h-2.4V1686.1z"/>
		<path class="st3" d="M863.6,1696.7v8h-2.3v-1.8c-0.8,1.2-2.3,1.9-4.3,1.9c-3,0-4.9-1.6-4.9-3.9c0-2.1,1.4-3.9,5.3-3.9h3.8v-0.5
			c0-2-1.2-3.2-3.5-3.2c-1.6,0-3.2,0.5-4.2,1.4l-1-1.8c1.4-1.1,3.3-1.7,5.5-1.7C861.5,1691.3,863.6,1693,863.6,1696.7z
			 M861.2,1700.6v-1.8h-3.7c-2.4,0-3,0.9-3,2c0,1.3,1.1,2.2,2.9,2.2C859.2,1703,860.6,1702.1,861.2,1700.6z"/>
		<path class="st3" d="M885.3,1696.7v8H883v-1.8c-0.8,1.2-2.3,1.9-4.3,1.9c-3,0-4.9-1.6-4.9-3.9c0-2.1,1.4-3.9,5.3-3.9h3.8v-0.5
			c0-2-1.2-3.2-3.5-3.2c-1.6,0-3.2,0.5-4.2,1.4l-1-1.8c1.4-1.1,3.3-1.7,5.5-1.7C883.2,1691.3,885.3,1693,885.3,1696.7z
			 M882.9,1700.6v-1.8h-3.7c-2.4,0-3,0.9-3,2c0,1.3,1.1,2.2,2.9,2.2C880.8,1703,882.3,1702.1,882.9,1700.6z"/>
		<path class="st3" d="M897.2,1703.9c-0.7,0.6-1.8,0.9-2.9,0.9c-2.7,0-4.2-1.5-4.2-4.2v-7.3h-2.2v-2h2.2v-2.9h2.4v2.9h3.8v2h-3.8
			v7.2c0,1.4,0.8,2.2,2.1,2.2c0.7,0,1.4-0.2,1.9-0.6L897.2,1703.9z"/>
		<path class="st3" d="M911.5,1698.8h-10.7c0.3,2.3,2.2,3.9,4.8,3.9c1.5,0,2.8-0.5,3.8-1.6l1.3,1.5c-1.2,1.4-3,2.2-5.2,2.2
			c-4.3,0-7.1-2.8-7.1-6.8c0-3.9,2.8-6.8,6.6-6.8s6.5,2.8,6.5,6.8C911.6,1698.3,911.6,1698.6,911.5,1698.8z M900.8,1697.1h8.5
			c-0.2-2.2-1.9-3.8-4.2-3.8C902.7,1693.3,901,1694.9,900.8,1697.1z"/>
		<path class="st3" d="M927.5,1697v7.6h-2.4v-7.3c0-2.6-1.3-3.9-3.6-3.9c-2.5,0-4.2,1.5-4.2,4.4v6.8h-2.4v-13.2h2.3v2
			c1-1.3,2.7-2.1,4.8-2.1C925.2,1691.3,927.5,1693.1,927.5,1697z"/>
		<path class="st3" d="M930.8,1698c0-3.9,2.9-6.8,7-6.8c2.4,0,4.3,1,5.4,2.8l-1.8,1.2c-0.8-1.3-2.1-1.9-3.6-1.9
			c-2.6,0-4.5,1.8-4.5,4.7c0,2.9,1.9,4.7,4.5,4.7c1.4,0,2.7-0.6,3.6-1.9l1.8,1.2c-1,1.8-3,2.8-5.4,2.8
			C933.7,1704.8,930.8,1702,930.8,1698z"/>
		<path class="st3" d="M945.9,1687.3c0-0.9,0.7-1.6,1.6-1.6s1.6,0.7,1.6,1.5c0,0.9-0.7,1.6-1.6,1.6
			C946.6,1688.9,945.9,1688.2,945.9,1687.3z M946.3,1691.4h2.4v13.2h-2.4V1691.4z"/>
		<path class="st3" d="M952,1698c0-3.9,2.9-6.8,6.9-6.8s6.9,2.8,6.9,6.8c0,3.9-2.9,6.8-6.9,6.8S952,1702,952,1698z M963.4,1698
			c0-2.8-1.9-4.7-4.4-4.7c-2.5,0-4.5,1.8-4.5,4.7s1.9,4.7,4.5,4.7C961.5,1702.7,963.4,1700.9,963.4,1698z M960.4,1686.2h3l-4.2,3.2
			H957L960.4,1686.2z"/>
		<path class="st3" d="M981.7,1697v7.6h-2.4v-7.3c0-2.6-1.3-3.9-3.6-3.9c-2.5,0-4.2,1.5-4.2,4.4v6.8h-2.4v-13.2h2.3v2
			c1-1.3,2.7-2.1,4.8-2.1C979.4,1691.3,981.7,1693.1,981.7,1697z"/>
		<path class="st3" d="M1005.4,1691.4v18.1h-2.4v-6.8c-1.1,1.4-2.7,2.2-4.6,2.2c-3.9,0-6.7-2.7-6.7-6.8c0-4.1,2.8-6.8,6.7-6.8
			c2,0,3.6,0.8,4.7,2.2v-2.1H1005.4z M1003,1698c0-2.8-1.9-4.7-4.4-4.7c-2.5,0-4.5,1.8-4.5,4.7c0,2.8,1.9,4.7,4.5,4.7
			C1001.1,1702.7,1003,1700.9,1003,1698z"/>
		<path class="st3" d="M1022.3,1691.4v13.2h-2.3v-2c-1,1.4-2.6,2.2-4.5,2.2c-3.4,0-5.7-1.9-5.7-5.8v-7.6h2.4v7.3
			c0,2.6,1.3,3.9,3.6,3.9c2.5,0,4.1-1.5,4.1-4.4v-6.8H1022.3z"/>
		<path class="st3" d="M1038.8,1698.8H1028c0.3,2.3,2.2,3.9,4.8,3.9c1.5,0,2.8-0.5,3.8-1.6l1.3,1.5c-1.2,1.4-3,2.2-5.2,2.2
			c-4.3,0-7.1-2.8-7.1-6.8c0-3.9,2.8-6.8,6.6-6.8c3.8,0,6.5,2.8,6.5,6.8C1038.8,1698.3,1038.8,1698.6,1038.8,1698.8z M1028,1697.1
			h8.5c-0.2-2.2-1.9-3.8-4.2-3.8C1030,1693.3,1028.3,1694.9,1028,1697.1z"/>
		<path class="st3" d="M1061.5,1697v7.6h-2.4v-7.3c0-2.6-1.3-3.9-3.6-3.9c-2.5,0-4.2,1.5-4.2,4.4v6.8h-2.4v-13.2h2.3v2
			c1-1.3,2.7-2.1,4.8-2.1C1059.2,1691.3,1061.5,1693.1,1061.5,1697z"/>
		<path class="st3" d="M1077.9,1698.8h-10.7c0.3,2.3,2.2,3.9,4.8,3.9c1.5,0,2.8-0.5,3.8-1.6l1.3,1.5c-1.2,1.4-3,2.2-5.2,2.2
			c-4.3,0-7.1-2.8-7.1-6.8c0-3.9,2.8-6.8,6.6-6.8c3.8,0,6.5,2.8,6.5,6.8C1078,1698.3,1077.9,1698.6,1077.9,1698.8z M1067.2,1697.1
			h8.5c-0.2-2.2-1.9-3.8-4.2-3.8C1069.1,1693.3,1067.4,1694.9,1067.2,1697.1z"/>
		<path class="st3" d="M1080.1,1698c0-3.9,2.9-6.8,7-6.8c2.4,0,4.3,1,5.4,2.8l-1.8,1.2c-0.8-1.3-2.1-1.9-3.6-1.9
			c-2.6,0-4.5,1.8-4.5,4.7c0,2.9,2,4.7,4.5,4.7c1.5,0,2.8-0.6,3.6-1.9l1.8,1.2c-1,1.8-3,2.8-5.4,2.8
			C1083,1704.8,1080.1,1702,1080.1,1698z"/>
		<path class="st3" d="M1107.3,1698.8h-10.7c0.3,2.3,2.2,3.9,4.8,3.9c1.5,0,2.8-0.5,3.8-1.6l1.3,1.5c-1.2,1.4-3,2.2-5.2,2.2
			c-4.3,0-7.1-2.8-7.1-6.8c0-3.9,2.8-6.8,6.6-6.8c3.8,0,6.5,2.8,6.5,6.8C1107.3,1698.3,1107.3,1698.6,1107.3,1698.8z M1096.5,1697.1
			h8.5c-0.2-2.2-1.9-3.8-4.2-3.8C1098.5,1693.3,1096.8,1694.9,1096.5,1697.1z"/>
		<path class="st3" d="M1109,1703.3l1-1.9c1.1,0.8,2.9,1.4,4.6,1.4c2.2,0,3.1-0.7,3.1-1.8c0-3-8.4-0.4-8.4-5.7c0-2.4,2.1-4,5.5-4
			c1.7,0,3.7,0.5,4.8,1.2l-1,1.9c-1.2-0.8-2.5-1-3.8-1c-2.1,0-3.1,0.8-3.1,1.8c0,3.1,8.4,0.6,8.4,5.7c0,2.4-2.2,3.9-5.7,3.9
			C1112.3,1704.8,1110.1,1704.1,1109,1703.3z"/>
		<path class="st3" d="M1122.8,1687.3c0-0.9,0.7-1.6,1.6-1.6s1.6,0.7,1.6,1.5c0,0.9-0.7,1.6-1.6,1.6
			C1123.5,1688.9,1122.8,1688.2,1122.8,1687.3z M1123.2,1691.4h2.4v13.2h-2.4V1691.4z"/>
		<path class="st3" d="M1137.6,1703.9c-0.7,0.6-1.8,0.9-2.9,0.9c-2.7,0-4.2-1.5-4.2-4.2v-7.3h-2.2v-2h2.2v-2.9h2.4v2.9h3.8v2h-3.8
			v7.2c0,1.4,0.7,2.2,2.1,2.2c0.7,0,1.4-0.2,1.9-0.6L1137.6,1703.9z"/>
		<path class="st3" d="M1152,1698.8h-10.7c0.3,2.3,2.2,3.9,4.8,3.9c1.5,0,2.8-0.5,3.8-1.6l1.3,1.5c-1.2,1.4-3,2.2-5.2,2.2
			c-4.3,0-7.1-2.8-7.1-6.8c0-3.9,2.8-6.8,6.6-6.8c3.8,0,6.5,2.8,6.5,6.8C1152,1698.3,1152,1698.6,1152,1698.8z M1141.2,1697.1h8.5
			c-0.2-2.2-1.9-3.8-4.2-3.8C1143.2,1693.3,1141.5,1694.9,1141.2,1697.1z"/>
		<path class="st3" d="M1153.7,1703.3l1-1.9c1.1,0.8,2.9,1.4,4.6,1.4c2.2,0,3.1-0.7,3.1-1.8c0-3-8.4-0.4-8.4-5.7c0-2.4,2.1-4,5.5-4
			c1.7,0,3.7,0.5,4.8,1.2l-1,1.9c-1.2-0.8-2.5-1-3.8-1c-2.1,0-3.1,0.8-3.1,1.8c0,3.1,8.4,0.6,8.4,5.7c0,2.4-2.2,3.9-5.7,3.9
			C1157,1704.8,1154.8,1704.1,1153.7,1703.3z"/>
		<path class="st3" d="M1166.8,1703.1c0-1,0.8-1.7,1.7-1.7c0.9,0,1.6,0.7,1.6,1.7c0,1-0.8,1.7-1.6,1.7
			C1167.5,1704.8,1166.8,1704.1,1166.8,1703.1z"/>
	</g>
</g>
<g>
	<g>
		<g class="st4">
			<g>
				<defs>
					<polygon id="SVGID_1_" points="1923.4,941.3 0,941.3 0,44.1 1923.4,0 					"/>
				</defs>
				<clipPath id="SVGID_2_">
					<use xlink:href="#SVGID_1_"  style="overflow:visible;"/>
				</clipPath>
				<g class="st5">
					<g>
						<rect x="-37" y="25.1" class="st6" width="142.7" height="73.3"/>
						<rect x="105.7" y="25.1" class="st6" width="142.7" height="73.3"/>
						<rect x="248.4" y="25.1" class="st6" width="142.7" height="73.3"/>
						<rect x="391" y="25.1" class="st6" width="142.7" height="73.3"/>
						<rect x="533.7" y="25.1" class="st6" width="142.7" height="73.3"/>
						<rect x="676.4" y="25.1" class="st6" width="142.7" height="73.3"/>
						<rect x="819" y="25.1" class="st6" width="142.7" height="73.3"/>
						<rect x="961.7" y="25.1" class="st6" width="142.7" height="73.3"/>
						<rect x="1104.4" y="25.1" class="st6" width="142.7" height="73.3"/>
						<rect x="1247" y="25.1" class="st6" width="142.7" height="73.3"/>
						<rect x="1389.7" y="25.1" class="st6" width="142.7" height="73.3"/>
						<rect x="1532.4" y="25.1" class="st6" width="142.7" height="73.3"/>
						<rect x="1675" y="25.1" class="st6" width="142.7" height="73.3"/>
						<rect x="1817.7" y="25.1" class="st6" width="142.7" height="73.3"/>
					</g>
					<g>
						<rect x="-108.3" y="98.3" class="st6" width="142.7" height="73.3"/>
						<rect x="34.4" y="98.3" class="st6" width="142.7" height="73.3"/>
						<rect x="177" y="98.3" class="st6" width="142.7" height="73.3"/>
						<rect x="319.7" y="98.3" class="st6" width="142.7" height="73.3"/>
						<rect x="462.4" y="98.3" class="st6" width="142.7" height="73.3"/>
						<rect x="605" y="98.3" class="st6" width="142.7" height="73.3"/>
						<rect x="747.7" y="98.3" class="st6" width="142.7" height="73.3"/>
						<rect x="890.4" y="98.3" class="st6" width="142.7" height="73.3"/>
						<rect x="1033" y="98.3" class="st6" width="142.7" height="73.3"/>
						<rect x="1175.7" y="98.3" class="st6" width="142.7" height="73.3"/>
						<rect x="1318.4" y="98.3" class="st6" width="142.7" height="73.3"/>
						<rect x="1461" y="98.3" class="st6" width="142.7" height="73.3"/>
						<rect x="1603.7" y="98.3" class="st6" width="142.7" height="73.3"/>
						<rect x="1746.4" y="98.3" class="st6" width="142.7" height="73.3"/>
						<rect x="1889" y="98.3" class="st6" width="142.7" height="73.3"/>
					</g>
					<g>
						<rect x="-37" y="171.6" class="st6" width="142.7" height="73.3"/>
						<rect x="105.7" y="171.6" class="st6" width="142.7" height="73.3"/>
						<rect x="248.4" y="171.6" class="st6" width="142.7" height="73.3"/>
						<rect x="391" y="171.6" class="st6" width="142.7" height="73.3"/>
						<rect x="533.7" y="171.6" class="st6" width="142.7" height="73.3"/>
						<rect x="676.4" y="171.6" class="st6" width="142.7" height="73.3"/>
						<rect x="819" y="171.6" class="st6" width="142.7" height="73.3"/>
						<rect x="961.7" y="171.6" class="st6" width="142.7" height="73.3"/>
						<rect x="1104.4" y="171.6" class="st6" width="142.7" height="73.3"/>
						<rect x="1247" y="171.6" class="st6" width="142.7" height="73.3"/>
						<rect x="1389.7" y="171.6" class="st6" width="142.7" height="73.3"/>
						<rect x="1532.4" y="171.6" class="st6" width="142.7" height="73.3"/>
						<rect x="1675" y="171.6" class="st6" width="142.7" height="73.3"/>
						<rect x="1817.7" y="171.6" class="st6" width="142.7" height="73.3"/>
					</g>
					<g>
						<rect x="-108.3" y="244.9" class="st6" width="142.7" height="73.3"/>
						<rect x="34.4" y="244.9" class="st6" width="142.7" height="73.3"/>
						<rect x="177" y="244.9" class="st6" width="142.7" height="73.3"/>
						<rect x="319.7" y="244.9" class="st6" width="142.7" height="73.3"/>
						<rect x="462.4" y="244.9" class="st6" width="142.7" height="73.3"/>
						<rect x="605" y="244.9" class="st6" width="142.7" height="73.3"/>
						<rect x="747.7" y="244.9" class="st6" width="142.7" height="73.3"/>
						<rect x="890.4" y="244.9" class="st6" width="142.7" height="73.3"/>
						<rect x="1033" y="244.9" class="st6" width="142.7" height="73.3"/>
						<rect x="1175.7" y="244.9" class="st6" width="142.7" height="73.3"/>
						<rect x="1318.4" y="244.9" class="st6" width="142.7" height="73.3"/>
						<rect x="1461" y="244.9" class="st6" width="142.7" height="73.3"/>
						<rect x="1603.7" y="244.9" class="st6" width="142.7" height="73.3"/>
						<rect x="1746.4" y="244.9" class="st6" width="142.7" height="73.3"/>
						<rect x="1889" y="244.9" class="st6" width="142.7" height="73.3"/>
					</g>
					<g>
						<rect x="-37" y="318.1" class="st6" width="142.7" height="73.3"/>
						<rect x="105.7" y="318.1" class="st6" width="142.7" height="73.3"/>
						<rect x="248.4" y="318.1" class="st6" width="142.7" height="73.3"/>
						<rect x="391" y="318.1" class="st6" width="142.7" height="73.3"/>
						<rect x="533.7" y="318.1" class="st6" width="142.7" height="73.3"/>
						<rect x="676.4" y="318.1" class="st6" width="142.7" height="73.3"/>
						<rect x="819" y="318.1" class="st6" width="142.7" height="73.3"/>
						<rect x="961.7" y="318.1" class="st6" width="142.7" height="73.3"/>
						<rect x="1104.4" y="318.1" class="st6" width="142.7" height="73.3"/>
						<rect x="1247" y="318.1" class="st6" width="142.7" height="73.3"/>
						<rect x="1389.7" y="318.1" class="st6" width="142.7" height="73.3"/>
						<rect x="1532.4" y="318.1" class="st6" width="142.7" height="73.3"/>
						<rect x="1675" y="318.1" class="st6" width="142.7" height="73.3"/>
						<rect x="1817.7" y="318.1" class="st6" width="142.7" height="73.3"/>
					</g>
					<g>
						<rect x="-108.3" y="391.4" class="st6" width="142.7" height="73.3"/>
						<rect x="34.4" y="391.4" class="st6" width="142.7" height="73.3"/>
						<rect x="177" y="391.4" class="st6" width="142.7" height="73.3"/>
						<rect x="319.7" y="391.4" class="st6" width="142.7" height="73.3"/>
						<rect x="462.4" y="391.4" class="st6" width="142.7" height="73.3"/>
						<rect x="605" y="391.4" class="st6" width="142.7" height="73.3"/>
						<rect x="747.7" y="391.4" class="st6" width="142.7" height="73.3"/>
						<rect x="890.4" y="391.4" class="st6" width="142.7" height="73.3"/>
						<rect x="1033" y="391.4" class="st6" width="142.7" height="73.3"/>
						<rect x="1175.7" y="391.4" class="st6" width="142.7" height="73.3"/>
						<rect x="1318.4" y="391.4" class="st6" width="142.7" height="73.3"/>
						<rect x="1461" y="391.4" class="st6" width="142.7" height="73.3"/>
						<rect x="1603.7" y="391.4" class="st6" width="142.7" height="73.3"/>
						<rect x="1746.4" y="391.4" class="st6" width="142.7" height="73.3"/>
						<rect x="1889" y="391.4" class="st6" width="142.7" height="73.3"/>
					</g>
					<g>
						<rect x="-37" y="464.6" class="st6" width="142.7" height="73.3"/>
						<rect x="105.7" y="464.6" class="st6" width="142.7" height="73.3"/>
						<rect x="248.4" y="464.6" class="st6" width="142.7" height="73.3"/>
						<rect x="391" y="464.6" class="st6" width="142.7" height="73.3"/>
						<rect x="533.7" y="464.6" class="st6" width="142.7" height="73.3"/>
						<rect x="676.4" y="464.6" class="st6" width="142.7" height="73.3"/>
						<rect x="819" y="464.6" class="st6" width="142.7" height="73.3"/>
						<rect x="961.7" y="464.6" class="st6" width="142.7" height="73.3"/>
						<rect x="1104.4" y="464.6" class="st6" width="142.7" height="73.3"/>
						<rect x="1247" y="464.6" class="st6" width="142.7" height="73.3"/>
						<rect x="1389.7" y="464.6" class="st6" width="142.7" height="73.3"/>
						<rect x="1532.4" y="464.6" class="st6" width="142.7" height="73.3"/>
						<rect x="1675" y="464.6" class="st6" width="142.7" height="73.3"/>
						<rect x="1817.7" y="464.6" class="st6" width="142.7" height="73.3"/>
					</g>
					<g>
						<rect x="-108.3" y="537.9" class="st6" width="142.7" height="73.3"/>
						<rect x="34.4" y="537.9" class="st6" width="142.7" height="73.3"/>
						<rect x="177" y="537.9" class="st6" width="142.7" height="73.3"/>
						<rect x="319.7" y="537.9" class="st6" width="142.7" height="73.3"/>
						<rect x="462.4" y="537.9" class="st6" width="142.7" height="73.3"/>
						<rect x="605" y="537.9" class="st6" width="142.7" height="73.3"/>
						<rect x="747.7" y="537.9" class="st6" width="142.7" height="73.3"/>
						<rect x="890.4" y="537.9" class="st6" width="142.7" height="73.3"/>
						<rect x="1033" y="537.9" class="st6" width="142.7" height="73.3"/>
						<rect x="1175.7" y="537.9" class="st6" width="142.7" height="73.3"/>
						<rect x="1318.4" y="537.9" class="st6" width="142.7" height="73.3"/>
						<rect x="1461" y="537.9" class="st6" width="142.7" height="73.3"/>
						<rect x="1603.7" y="537.9" class="st6" width="142.7" height="73.3"/>
						<rect x="1746.4" y="537.9" class="st6" width="142.7" height="73.3"/>
						<rect x="1889" y="537.9" class="st6" width="142.7" height="73.3"/>
					</g>
					<g>
						<rect x="-37" y="611.2" class="st6" width="142.7" height="73.3"/>
						<rect x="105.7" y="611.2" class="st6" width="142.7" height="73.3"/>
						<rect x="248.4" y="611.2" class="st6" width="142.7" height="73.3"/>
						<rect x="391" y="611.2" class="st6" width="142.7" height="73.3"/>
						<rect x="533.7" y="611.2" class="st6" width="142.7" height="73.3"/>
						<rect x="676.4" y="611.2" class="st6" width="142.7" height="73.3"/>
						<rect x="819" y="611.2" class="st6" width="142.7" height="73.3"/>
						<rect x="961.7" y="611.2" class="st6" width="142.7" height="73.3"/>
						<rect x="1104.4" y="611.2" class="st6" width="142.7" height="73.3"/>
						<rect x="1247" y="611.2" class="st6" width="142.7" height="73.3"/>
						<rect x="1389.7" y="611.2" class="st6" width="142.7" height="73.3"/>
						<rect x="1532.4" y="611.2" class="st6" width="142.7" height="73.3"/>
						<rect x="1675" y="611.2" class="st6" width="142.7" height="73.3"/>
						<rect x="1817.7" y="611.2" class="st6" width="142.7" height="73.3"/>
					</g>
					<g>
						<rect x="-108.3" y="684.4" class="st6" width="142.7" height="73.3"/>
						<rect x="34.4" y="684.4" class="st6" width="142.7" height="73.3"/>
						<rect x="177" y="684.4" class="st6" width="142.7" height="73.3"/>
						<rect x="319.7" y="684.4" class="st6" width="142.7" height="73.3"/>
						<rect x="462.4" y="684.4" class="st6" width="142.7" height="73.3"/>
						<rect x="605" y="684.4" class="st6" width="142.7" height="73.3"/>
						<rect x="747.7" y="684.4" class="st6" width="142.7" height="73.3"/>
						<rect x="890.4" y="684.4" class="st6" width="142.7" height="73.3"/>
						<rect x="1033" y="684.4" class="st6" width="142.7" height="73.3"/>
						<rect x="1175.7" y="684.4" class="st6" width="142.7" height="73.3"/>
						<rect x="1318.4" y="684.4" class="st6" width="142.7" height="73.3"/>
						<rect x="1461" y="684.4" class="st6" width="142.7" height="73.3"/>
						<rect x="1603.7" y="684.4" class="st6" width="142.7" height="73.3"/>
						<rect x="1746.4" y="684.4" class="st6" width="142.7" height="73.3"/>
						<rect x="1889" y="684.4" class="st6" width="142.7" height="73.3"/>
					</g>
					<g>
						<rect x="-37" y="757.7" class="st6" width="142.7" height="73.3"/>
						<rect x="105.7" y="757.7" class="st6" width="142.7" height="73.3"/>
						<rect x="248.4" y="757.7" class="st6" width="142.7" height="73.3"/>
						<rect x="391" y="757.7" class="st6" width="142.7" height="73.3"/>
						<rect x="533.7" y="757.7" class="st6" width="142.7" height="73.3"/>
						<rect x="676.4" y="757.7" class="st6" width="142.7" height="73.3"/>
						<rect x="819" y="757.7" class="st6" width="142.7" height="73.3"/>
						<rect x="961.7" y="757.7" class="st6" width="142.7" height="73.3"/>
						<rect x="1104.4" y="757.7" class="st6" width="142.7" height="73.3"/>
						<rect x="1247" y="757.7" class="st6" width="142.7" height="73.3"/>
						<rect x="1389.7" y="757.7" class="st6" width="142.7" height="73.3"/>
						<rect x="1532.4" y="757.7" class="st6" width="142.7" height="73.3"/>
						<rect x="1675" y="757.7" class="st6" width="142.7" height="73.3"/>
						<rect x="1817.7" y="757.7" class="st6" width="142.7" height="73.3"/>
					</g>
					<g>
						<rect x="-108.3" y="831" class="st6" width="142.7" height="73.3"/>
						<rect x="34.4" y="831" class="st6" width="142.7" height="73.3"/>
						<rect x="177" y="831" class="st6" width="142.7" height="73.3"/>
						<rect x="319.7" y="831" class="st6" width="142.7" height="73.3"/>
						<rect x="462.4" y="831" class="st6" width="142.7" height="73.3"/>
						<rect x="605" y="831" class="st6" width="142.7" height="73.3"/>
						<rect x="747.7" y="831" class="st6" width="142.7" height="73.3"/>
						<rect x="890.4" y="831" class="st6" width="142.7" height="73.3"/>
						<rect x="1033" y="831" class="st6" width="142.7" height="73.3"/>
						<rect x="1175.7" y="831" class="st6" width="142.7" height="73.3"/>
						<rect x="1318.4" y="831" class="st6" width="142.7" height="73.3"/>
						<rect x="1461" y="831" class="st6" width="142.7" height="73.3"/>
						<rect x="1603.7" y="831" class="st6" width="142.7" height="73.3"/>
						<rect x="1746.4" y="831" class="st6" width="142.7" height="73.3"/>
						<rect x="1889" y="831" class="st6" width="142.7" height="73.3"/>
					</g>
				</g>
			</g>
		</g>
		<circle class="st7" cx="946" cy="714.3" r="511.6"/>
	</g>
	<g>
		<rect y="896.6" class="st8" width="1923.4" height="429.8"/>
		<g class="st9">
			<ellipse class="st10" cx="211.6" cy="1064.8" rx="26.9" ry="11.3"/>
			<ellipse class="st10" cx="456.5" cy="1117.2" rx="21.8" ry="6.4"/>
			<ellipse class="st10" cx="1641.3" cy="1117.2" rx="21.8" ry="6.4"/>
			<ellipse class="st10" cx="1215.2" cy="1259.8" rx="21.8" ry="6.4"/>
			<ellipse class="st10" cx="308.5" cy="1283.7" rx="21.8" ry="6.4"/>
			<path class="st10" d="M1382.1,922.6c0,2.8-6,5.1-13.4,5.1s-13.4-2.3-13.4-5.1s6-5.1,13.4-5.1S1382.1,919.8,1382.1,922.6z"/>
			<path class="st10" d="M1537.9,979.2c0,6.6-11.7,12-26.1,12c-14.4,0-26.1-5.4-26.1-12c0-6.6,11.7-12,26.1-12
				C1526.2,967.2,1537.9,972.6,1537.9,979.2z"/>
			<path class="st10" d="M1826.4,1207.2c0,6.6-11.7,12-26.1,12c-14.4,0-26.1-5.4-26.1-12s11.7-12,26.1-12
				C1814.7,1195.2,1826.4,1200.6,1826.4,1207.2z"/>
			<path class="st10" d="M729.3,1241.4c0,7.6-15.4,13.7-34.3,13.7s-34.3-6.1-34.3-13.7c0-7.6,15.4-13.7,34.3-13.7
				C713.9,1227.7,729.3,1233.8,729.3,1241.4z"/>
			<path class="st10" d="M1716.5,935.2c0,3.3-5.4,6-12,6s-12-2.7-12-6s5.4-6,12-6S1716.5,931.9,1716.5,935.2z"/>
			<path class="st10" d="M1850.3,1039.3c0,3.3-5.4,6-12,6s-12-2.7-12-6c0-3.3,5.4-6,12-6C1845,1033.3,1850.3,1036,1850.3,1039.3z"/>
			<ellipse class="st10" cx="101.3" cy="954.6" rx="25.7" ry="10.8"/>
		</g>
	</g>
	<path class="st11" d="M1424.2,896.6c-73.4,192.6-259.9,329.3-478.2,329.3s-404.7-136.8-478.2-329.3L1424.2,896.6L1424.2,896.6z"/>
	<g>
		<path class="st12" d="M531.9,980.7c-67.1-9.1-86.5,53.6,4.5,62.2c91.1,8.7,136.6,0.4,158.1-13.2c8.7-5.5,10-11.7,8.4-17
			c-2.2-7.6,2.9-15.5,10.7-17.1c11.5-2.3,24.8-6.3,31.8-12.9C759.2,969.6,577.8,987,531.9,980.7z"/>
		<path class="st12" d="M910.5,992.2c-1.5,1.5-86.3,12.6-131.5,15.6c-45.2,3-59.7,7-59.2,13.5c0.5,6.5,45.7,10.8,45.7,10.8
			s-23.1,11.3-19.1,16.6c4,5.3,87.3-14.4,100.8-16.6c13.5-2.2,47.4,11.3,73.4,26.4c26,15.1,0.4,25.1-10.7,39.6s20,22.1,56.9,19.3
			c36.9-2.8,104.5-63.6,126.1-78.1c21.7-14.5,42.8-22.1,73.3-19c30.5,3.1,44.9,29.8,63.2,44.7c18.3,14.9,21.5-123.1-44.9-140.1
			C1118.2,907.8,910.5,992.2,910.5,992.2z"/>
		<g>
			<g>
				<g>
					<g>
						<path class="st13" d="M904,866.7c-3.5,8-7.8,17.1-12.5,26.7c-23,46.8-56.2,104.8-56.2,104.8c-0.3,22.8-24.9,26-40.8,31.4
							c-15.8,5.4-37.2,18.4-45,11.3c-7.8-7.1,18.1-19.6,18.1-19.6c-16.8,1.4-49.1,0.5-50.8-6.3c-1.8-6.8,2.5-8.5,27.2-12.1
							c24.6-3.6,46.8-14.8,46.8-14.8L834,850l1.3-4.2C846.5,810.2,924.5,819.5,904,866.7z"/>
					</g>
					<g>
						<path class="st14" d="M936.5,811.2l-21.3,42.6v0l-9.3,18.5c-55.5,1.4-75.3-22.1-75.3-22.1s2.7-8.5,7.1-21.7
							c12.5-36.9,38.8-109.9,58.1-130.4l26.9,74.8L936.5,811.2z"/>
						<polygon class="st15" points="936.5,811.2 915.5,856.6 904.7,746 922.8,773 						"/>
						<path class="st15" d="M915.2,853.8c-1.9,7-5.1,13.8-9.5,20.2c-55.5,1.4-77-22.7-77-22.7s-1.7-13.6,5.5-24.6
							C843.4,833.8,870.2,849.3,915.2,853.8z"/>
					</g>
				</g>
				<path class="st14" d="M1174.7,869.5c-80.5,1.9-200,69.7-200,69.7s-33-73.9-55.5-133.7c-22.6-59.8-23.3-107.3-23.3-107.3
					s28.7-33.9,78.8-51.1l86.6-36c3.8,14.2,14.8,41.6,28.5,73.4c7.3,16.8,15.3,34.8,23.4,52.8
					C1143.2,803.8,1174.7,869.5,1174.7,869.5z"/>
				<path class="st15" d="M1114.5,732.4l-84.1-10.7l59.4-37.3C1100.2,698.2,1109.1,714.3,1114.5,732.4z"/>
				<path class="st16" d="M896.2,705.2c1.1,15.3,1.6,58,19,104.1"/>
				<g>
					<path class="st13" d="M1006.2,666.8c0,0-0.1,4.7-4,10c-2.8,3.8-7.7,7.8-16,10.5c-19.8,6.4-29.7-3.5-29.7-3.5
						s-13.2-50.1-13.4-50.8l25.8,4.9l27.9,5.3L1006.2,666.8z"/>
					<path class="st15" d="M1006.2,666.8c0,0-0.1,4.7-4,10c-9.8-2.7-18.8-8.5-26.8-17.7l-6.5-21.3l27.9,5.3L1006.2,666.8z"/>
					<path class="st13" d="M972.1,658.2c7.7,2.5,16,3.3,24.7,1.7c39.2-7.2,10.4-113-36.1-110.5c-44.9,2.4-42.4,48-34.5,66.2
						c3.7,8.5,11.8,20.2,22.9,29.5"/>
					<path class="st15" d="M995.2,569.1c0,0,28.1-18.2,10.7-40.9c-17.4-22.8-33-0.9-42.7,3.5s-38.8,1.7-46.6,14.9
						s0.8,30.6-16.5,43.3s-16.3,31.7,1.1,43.1c17.4,11.4,7.7,27.5,21.3,34.9c13.7,7.4,28.5-4.8,28.5-4.8l-5.6-21.1l-7.7-10.8
						c0,0,3-10.2-6.8-16.3c0,0,8.5-5.5,3.6-17.6c-4.9-12.1,3.5-18.4,23.2-14.3c19.8,4.1,30.7-10.1,31.9-20.2L995.2,569.1z"/>
					<path class="st17" d="M1005.3,563.7c6.8-7.2,11.7-21,0.6-35.5c-17.4-22.8-33-0.9-42.7,3.5s-38.8,1.7-46.6,14.9
						s0.8,30.6-16.5,43.3s-16.3,31.7,1.1,43.1c17.4,11.4,4.5,24.4,20.4,36.1c5.3,3.9,11,5.5,19.4,4.7"/>
					<path class="st13" d="M941.2,629.1c0,0-19-2.3-16.5,12.4s21,13.7,30.4,3.5"/>
					<g>
						<line class="st16" x1="938.2" y1="628" x2="957" y2="609.8"/>
						<path class="st13" d="M982,604.3c0,7.2-5.9,13.1-13.1,13.1c-7.2,0-13.1-5.9-13.1-13.1c0-7.2,5.9-13.1,13.1-13.1
							C976.1,591.1,982,597,982,604.3z"/>
						<path class="st13" d="M1016.5,589.3c0,7.2-5.9,13.1-13.1,13.1s-13.1-5.9-13.1-13.1c0-7.2,5.9-13.1,13.1-13.1
							S1016.5,582.1,1016.5,589.3z"/>
						<path class="st16" d="M979.8,597c0,0,3.2-7.7,10.7-4.8"/>
					</g>
				</g>
				<g>
					<path class="st13" d="M1132.3,672.8c-2.3,1.3-4.6,2.7-7,3.9c-3.3,1.8-6.8,3.6-10.3,5.3c-7.1,3.4-14.5,6.5-22.3,9.4
						c0,0-38.8-29.6-31.5-80.3c0,0,18.4-6.7,40.8-12.2c5.7-1.4,11.6-2.8,17.6-3.9c3.6-0.7,7.1-1.3,10.7-1.8
						c22.2-3.3,42.7-2.6,48.4,8.9C1189.4,623.5,1168.7,651.2,1132.3,672.8z"/>
					<g>
						<path class="st14" d="M1125.3,676.7c-3.3,1.8-6.8,3.6-10.3,5.3c-7.1,3.4-14.5,6.5-22.3,9.4c0,0-41.2-28.6-33.9-79.3
							c0,0,19.3-11,43.2-13.2c5.8-0.5,11.6-2.8,17.6-3.9C1109,620.5,1118.8,657.4,1125.3,676.7z"/>
						<path class="st16" d="M1092.8,691.3c0,0-34.8-26.2-34.5-69.9"/>
						<path class="st15" d="M1132.3,672.8c-5.4,3.2-11.2,6.3-17.3,9.2c-25.4-37.6-18.9-68.3-13-83.1c9.4-4.7,18-7.4,28.3-5.7
							C1111.3,625.7,1125.2,659.4,1132.3,672.8z"/>
					</g>
				</g>
				<g>
					<path class="st13" d="M1174.7,597.2c18,13.8,28.9,35.7-13.9,76c-41.2,38.8-127.3,56-127.3,56s-15.9,19.5-35.2,35
						c-4.5,3.6-9.2,7-13.8,9.9c-5.8,3.6-10.9,6.4-15.4,8.8c-8.2,4.2-14.1,6.4-17.7,7.5c-2.4,0.8-5-0.4-6-2.7c-0.3-0.7-0.4-1.3-0.4-2
						c0-1.6,0.7-3.1,2-4l23.7-17.1c-1.8,1.1-17,10-30.4,16.1c-3.3,1.5-7.2-0.1-8.5-3.5c-0.3-0.7-0.4-1.5-0.4-2.2
						c0-2.1,1.1-4.2,3-5.4l27-16.3l-23.6,10.1c-3.3,1.4-7.1-0.4-8.1-3.9c-0.2-0.5-0.2-1-0.2-1.6c0-2.1,1.1-4,2.9-5.1
						c6.5-3.8,19.6-11.4,27.1-14.9c-1.3,0.5-11.8,4.6-20.1,8.3c-3.4,1.5-7.3-0.7-7.8-4.4c0-0.2,0-0.5,0-0.7c0-1.8,0.8-3.5,2.3-4.6
						c5.7-3.9,19.1-12.7,31.6-16.6c0,0,18.4-20.7,42.6-30.6c0,0,69.4-64.2,121.4-87.4"/>
					<path class="st16" d="M1166.4,593.3c0,0,9.6,2.7,17.2,12.5"/>
					<path class="st15" d="M998.3,764.3c-4.5,3.6-9.2,7-13.8,9.9c-5.8,3.6-10.9,6.4-15.4,8.8c11.7-13.7,9.5-41.4,25.1-51.5
						L998.3,764.3z"/>
					<path class="st16" d="M966.9,728.5c0,0,3.2,23.1,16,38.5"/>
					<path class="st13" d="M996.6,727.5c0,0-12.5,15.8-3.3,34.2c0,0-9.5,21.5-3.4,32s8.3,2,14.1-11c5.8-13,27.6-35.1,29.5-54.9"/>
					<path class="st16" d="M981.6,729.3c0,0,6.3,1,15-1.8"/>
				</g>
				<g>
					<path class="st18" d="M974.6,925.5c0,0,41.4,76.1,60.7,88.3c19.3,12.2,64.4,0.9,83.9-14.1c0,0,48.7-10.7,65.5-27.5
						s-7.6-90.3-15.9-111.6C1160.5,839.5,1013.6,872.7,974.6,925.5z"/>
					<g>
						<path class="st18" d="M1060.8,882.2c0,0,27.9,40.2,52,100.7"/>
						<path class="st18" d="M1079.1,874.1c0,0,19.4,26.7,28.4,51.3c3,8.3,1.9,17.5-3.2,24.8l-3.4,4.9"/>
					</g>
				</g>
				<path class="st18" d="M1292.8,837.5c-13.9,42.4-31.2,96.8-72.7,130.6c-15.3,12.5-33.8,22.1-56.7,27.3c-13.2,3-27.9,4.5-44.2,4.3
					l-0.9-91.9c0,0,51.5-163.2,114.8-173.9C1296.5,723.3,1314.7,770.4,1292.8,837.5z"/>
				<path class="st19" d="M1122.8,856.4c-2.9,14.5-3.9,30.8-4.3,41c-0.1,2,2.7,2.5,3.3,0.7c3.7-9.8,9.9-25.9,17.3-43.6
					C1134.1,854.9,1128.7,855.5,1122.8,856.4z"/>
				<path class="st18" d="M1119.2,999.8c-10.6,9.1-24.3,16.9-40.1,22.5c-16.2,5.8-34.6,9.3-54.1,9.7c-27.3,0.5-56.8-5.1-85.6-19.4
					c-69.2-34.5-126.2-110.2-55.8-128.5c70.4-18.4,173.5,45.6,173.5,45.6L1119.2,999.8z"/>
				<path class="st16" d="M1093,970.3L1093,970.3c-32.9-37-75.1-65-122.5-79.4c-4.4-1.3-8.9-2.6-13.4-3.7"/>
				<g>
					<g>
						<path class="st18" d="M1035.3,1015.7c-31.3,57.8-88.7,57.8-88.7,57.8s-6.3-5.9-15.8-15.4v0c-29.2-29.2-88.8-91.9-90.2-118.9
							c-1.9-35.8,30.1-63.4,66.9-45.8c27.5,13.1,85.3,75,112.8,105.4C1029.5,1009,1035.3,1015.7,1035.3,1015.7z"/>
						<path class="st16" d="M907.4,893.4c27.5,13.1,85.3,75,112.8,105.4c9.3,10.3,15.1,17,15.1,17"/>
						<path class="st16" d="M940,1042.9c24.2-33.7,58.3-42.4,80.2-44.2"/>
					</g>
					<g>
						<path class="st15" d="M1059.7,1057.8c0.6,14.6-33.7,41.1-68,52.9h0c-2.9,1-5.8,1.9-8.6,2.6c-21.7,5.8-34.7,8-42.2,5.8
							c-5.2-1.5-7.8-5.2-8.8-11.2c-0.2-1.1-0.2-2.3-0.1-3.6c1-12.8,14-34.7,19.3-43.1c1.4-2.2,2.2-3.4,2.2-3.4
							c32.2-46.8,77.9-43.1,77.9-43.1s17.3,17.2,24.8,32.2c1.7,3.3,2.8,6.5,3.2,9.3C1059.6,1056.8,1059.6,1057.3,1059.7,1057.8z"/>
						<path class="st13" d="M991.7,1110.7L991.7,1110.7c-2.9,1-5.8,1.9-8.6,2.6c-21.7,5.8-34.7,8-42.2,5.8
							c-5.2-1.5-7.8-5.2-8.8-11.2c-0.2-1.1-0.2-2.3-0.1-3.6c1-12.8,14-34.7,19.3-43.1c8.9-1.2,22.9-0.3,36.9,12.3
							C1000.4,1084.5,999.1,1099.3,991.7,1110.7z"/>
						<path class="st13" d="M1059.7,1057.8c0.7,15.8-39.8,45.7-76.6,55.6c-21.7,5.8-34.7,8-42.2,5.8c-5.2-1.5-7.8-5.2-8.8-11.2
							c-0.2-1.1-0.2-2.3-0.1-3.6c2.4-8.4,10.4-19.7,31.8-32.5c38.5-23,74.4-35.8,92.6-24.9c1.7,3.3,2.8,6.5,3.2,9.3
							C1059.6,1056.8,1059.6,1057.3,1059.7,1057.8z"/>
						<path class="st13" d="M1059.7,1057.8c0.7,15.8-39.8,45.7-76.6,55.6c-21.7,5.8-34.7,8-42.2,5.8c-15.2-12.6,27-44.7,63.4-59.3
							c29.4-11.8,48.5-10.8,55.3-3.6C1059.6,1056.8,1059.6,1057.3,1059.7,1057.8z"/>
						<g>
							<line class="st16" x1="956.5" y1="1116.9" x2="962.4" y2="1087.9"/>
							<line class="st16" x1="984.1" y1="1076.3" x2="977.1" y2="1110.4"/>
							<line class="st16" x1="1005.6" y1="1065" x2="997.7" y2="1103.9"/>
							<line class="st16" x1="1025.8" y1="1058.4" x2="1018.7" y2="1093.2"/>
							<line class="st16" x1="1045.4" y1="1055" x2="1039.7" y2="1083"/>
						</g>
					</g>
				</g>
				<g>
					<g>
						<path class="st15" d="M1339.4,1084.2c-0.1,2-0.5,3.7-1.1,5.1c-5.7,13.2-37.2,17.7-73.8,0c-4-1.9-8-4.1-12.1-6.6
							c-41.7-25.2-49.8-49.9-49.8-49.9c0.1-3.2,0.2-6.2,0.4-9.1c1.1-14.7,4-24.3,4-24.3c10.4-46.4,85.8-20.9,101.6,5.4
							c7.8,13.1,16.8,30.4,23,46.3C1336.7,1064.2,1340,1076.2,1339.4,1084.2z"/>
						<path class="st13" d="M1262.7,1008.2c0,0,21.2,25.8,29.5,52.4s38.5,15,35.3-5.7c-3.2-20.7-28.5-54.6-28.5-54.6L1262.7,1008.2z
							"/>
						<path class="st13" d="M1339.4,1084.2c-0.1,2-0.5,3.7-1.1,5.1c-5.7,13.2-37.2,17.7-73.8,0c1.4-4.1,2.5-7,2.5-7
							s17.4-44.7,64.6-31.1C1336.7,1064.2,1340,1076.2,1339.4,1084.2z"/>
						<path class="st13" d="M1339.4,1084.2c-0.1,2-0.5,3.7-1.1,5.1c-6.4,14.6-44.2,18.6-85.9-6.6c-41.7-25.2-49.8-49.9-49.8-49.9
							c0.1-3.2,0.2-6.2,0.4-9.1c6.4,12.6,23.8,37.3,65.8,55.6C1299.8,1092.8,1323.8,1090,1339.4,1084.2z"/>
					</g>
					<g>
						<path class="st18" d="M1320.9,973.6c-0.7,17.1-1.2,28.2-1.2,28.2c-69.7,31.5-118.2,0-118.2,0s0.5-10.9,1.6-28.4
							c4.5-68.9,19.3-239.5,55.3-240.9c20.9-0.8,58.4,14.7,63.6,61.3C1325.9,828.2,1322.8,925.2,1320.9,973.6z"/>
						<path class="st16" d="M1239.9,750.3c-22.8,45.8-33.1,167.5-36.7,223c-1.1,17.5-1.6,28.4-1.6,28.4s42.9,27.9,106.1,4.9l10-4"/>
						<path class="st16" d="M1203.2,973.3c16.3,4.7,62.2,16,104.1,4.8"/>
					</g>
				</g>
			</g>
			<g>
				<path class="st20" d="M626.8,821.8c0,0-46.8,38.3-78.5,54.9s-50.8,48-27.9,79.7l13.8-10.7c0,0-15-31.8,6.2-47.3
					c21.2-15.5,58.4-31.5,73.2-43.1C628.4,843.9,626.8,821.8,626.8,821.8z"/>
				<path class="st20" d="M676.2,793.1c0-0.5,9.6-19.9,14.3-22.3c4.7-2.3,43,5.2,47.7,9.3c4.7,4.1-13.3,29.9-13.3,29.9l-8.5-3.9
					c0,0,8.2-16.3,9.1-19.9s-25.6-7.5-28.7-7.2c-3.1,0.3-10.2,16.2-10.2,16.2L676.2,793.1z"/>
				<path class="st20" d="M736,828.5c0,0,13,36.7,31.1,63.3c18.1,26.6-19.3,99.6-83.3,103.3L691,967c0,0,45.9-8.7,58.4-49
					c7.1-22.9-18-34.1-21.7-57.4C724,837.3,736,828.5,736,828.5z"/>
				<path class="st20" d="M706.5,962.4c-8.2,32.6-26.2,56.6-54.1,68.5c-17.7,7.6-39.3,10.2-64.9,7.2c-65.9-7.8-101.4-31.1-81.6-70
					c19.8-38.9,44.9-49.3,69-82.2s58.6-106.4,123.3-95.2c16.6,2.9,27.1,9.8,33.4,19.3C755.3,846,717.2,920.2,706.5,962.4z"/>
				<path class="st13" d="M706.5,962.4c-8.2,32.6-26.2,56.6-54.1,68.5c-19.1,4.4-35.3,3.1-39.8-11.8c-12.7-42,31.1-83.7,56.3-117.4
					c23.4-31.4,31.2-75.8,62.8-91.7C755.3,846,717.2,920.2,706.5,962.4z"/>
				<path class="st20" d="M692.5,787.1c-54-4.1-117.1,73.1-122.6,92.5c-5.5,19.4,17.7,29.9,63.5,29.7c45.9-0.2,70.6-32.4,86.2-58.8
					C735,824.1,745.2,791.1,692.5,787.1z"/>
				<path class="st13" d="M636.2,864.3c-10.5-1.5-9.2,10.4-1.7,10.6C642.1,875.2,641.1,865,636.2,864.3z"/>
			</g>
		</g>
	</g>
	<g>
		<g>
			<defs>
				<rect id="SVGID_3_" y="44.1" width="1923.4" height="1282.3"/>
			</defs>
			<clipPath id="SVGID_4_">
				<use xlink:href="#SVGID_3_"  style="overflow:visible;"/>
			</clipPath>
			<g class="st21">
				<path class="st11" d="M-185.8,1384.8l382.9-438.2l42.6-90.9c0,0,121.4-103.5,127-115.5c5.5-12,15.5-165.6,13.5-171.6
					s-39.9-44.9-41.2-52.5c-1.3-7.6,66.7-123.1,18.5-122.7s-82.5,113.5-104.2,130.3c-21.7,16.8-85.7,59.8-98.1,74.2
					C142.9,612.4,42.6,720.3,38.8,733.9s-9.4,117.4-9.4,117.4l-58.3,95.1L-506,1384.8h141.7l277.5-232.3l-225.6,232.3L-185.8,1384.8
					L-185.8,1384.8z"/>
				<path class="st11" d="M1607.7,475.5c-42.8,8.7-19.8,55.1,6.4,103.2c26.2,48.1-4.8,106.9-15.2,141.2
					c-10.5,34.2,51,193.6,62.8,219.2s78.6,48.1,78.6,48.1l18.2,39.2l304.1,439.7h155.1l-240.5-342.2l277.9,342.2h156.1l-396.7-439.7
					l-41.1-68.8c0,0,37.9-61.3,27.8-96.1S1880.9,669,1849.9,643.9c-31-25.1-112.8-33.7-134.2-57.8
					C1694.3,562.1,1665.4,463.7,1607.7,475.5z"/>
				<path class="st22" d="M1726,134.3c-39.8,9.6-16.7,52.2,9.4,96.4c26.1,44.2-1,100.2-9.7,132.6s54.1,179.5,65.9,203.1
					c11.8,23.6,75.1,42.5,75.1,42.5L1885,645l302.2,408.4l145.1-5l-239.5-319.3l274.5,318.1l146.1-5.1l-388.8-405.5l-40.7-63
					c0,0,33.5-58.6,22.9-90.8c-10.6-32.2-118.8-176.2-148.7-198.8s-106.7-27.9-127.5-49.7S1779.7,121.4,1726,134.3z"/>
				<path class="st22" d="M176.7,154.6c40.1,8.2,18.5,51.6-6,96.6c-24.5,45.1,4.4,100.1,14.2,132.2c9.8,32-47.8,181.2-58.8,205.3
					c-11,24-73.6,45.1-73.6,45.1l-17,36.7l-287.9,418.7h-145.2l228.3-327.4l-263.3,327.4h-146.2l374.5-418.7l38.5-64.4
					c0,0-35.5-57.4-26-90c9.5-32.5,112.7-180.2,141.7-203.8c29-23.5,105.7-31.5,125.7-54.1C95.6,235.7,122.6,143.6,176.7,154.6z"/>
				<path class="st23" d="M192.5,1384.8L560.6,859l64.6-199.4c0,0,101.5-103.5,104.7-115.5c3.2-12-16.4-165.6-19.7-171.6
					c-3.2-6-48.5-44.9-51.3-52.5s42.9-123.1-5.2-122.7c-48.1,0.4-60.5,113.5-79,130.3c-18.5,16.8-74.2,59.8-83.8,74.2
					s-89,122.3-90.2,135.9c-1.2,13.6,13.2,117.4,13.2,117.4l-79.4,203.6l-482.7,526.2H-6.6l362.4-428.5L51,1384.8L192.5,1384.8
					L192.5,1384.8z"/>
				<path class="st23" d="M1856.7,1336.3l-308.9-439.7l-30.4-111.3c22.8-39.1,77.2-134.6,79.1-163.2
					c2.4-36.2-158.8-153.2-181.3-159.7c-22.5-6.4-107.5-12.8-113.9-21.6s-29.7-109.9-89.8-102.7c-36.5,4.4-12.3,50.2,0,84.5
					c12.3,34.2,12.3,56.7-15.5,63.6c-27.8,7-59.9-3.2-67.9-10.1c-8-7-53.5-105.3-85.5-135.3c-32.1-30-61.5-44.4-68.4-37.4
					c-7,7,16.6,31,16.6,31s-19.8,18.7-14.4,39c5.4,20.3,24.6,18.2,30.5,32.1c5.9,13.9,53.3,116.7,80.5,133.9
					c27.2,17.2,99,28.1,115.1,44.5c16,16.4,119.9,312.6,119.9,312.6l235.2,439.7h121.9l-166.7-307l211.7,307L1856.7,1336.3
					L1856.7,1336.3z M1507.4,637.4c6.2,5.7-6.1,29.7-17.2,48.4l-20.5-74.9C1469.7,611,1496.9,627.9,1507.4,637.4z"/>
			</g>
		</g>
	</g>
</g>
<g class="st2">
	<path class="st3" d="M393.7,1389.6c2.6-1.3,5.6-2,8.9-2c3.3,0,6.3,0.7,8.9,2c2.3,0.7,4.6,3,7,7c0.3,0.7,0.7,1.5,1.1,2.4
		c0.4,0.9,0.8,1.6,1.1,2.2c0.3,0.6,0.4,1,0.4,1.3c0.3,0.3,0.8,1.2,1.4,2.6c0.7,1.5,1.3,2.6,1.8,3.5c1,3.9,1.9,5.9,2.6,5.9
		c0,1.2,2,6.3,6.1,15.4c0.6,1.2,0.8,2.3,0.7,3.5l2.6,5c0.3,0.9,1,2.4,2.2,4.7c1.2,2.2,1.9,3.8,2.2,4.7c0.1,0.6,0.5,1.4,1,2.5
		c0.5,1.1,0.8,1.7,0.9,2c0.1,0.2,0,0.5-0.1,0.8l12,25.5c1.7,3.5,2.8,5.2,3,5.2c0.3,0,0.7-1.4,1.1-4.4c0.4-3.6,0.8-16.2,1.2-37.7
		c0.4-21.5,0.5-35.4,0.5-41.4c-0.4-2.6-0.6-4.4-0.4-5.2c0.1-0.9,0.9-1.7,2.2-2.6c1-1,3.3-2.1,6.7-3.3c3.2-0.6,6-0.6,8.5,0
		c3.3,0.9,5.6,1.7,6.7,2.4c1.2,0.7,2.4,2.2,3.7,4.4c0.3,0.6,0.5,1.1,0.7,1.5c0.6,1.6,0.9,9.4,0.9,23.3c0,3.9-0.1,10.4-0.4,19.4
		c-0.3,9-0.4,15-0.4,18.1c-0.4,7.4-1,15.9-1.7,25.5c-0.7,9.6-1.3,17.2-1.7,23c-0.4,5.7-0.7,8.7-0.7,8.8l-1.7,8.5
		c-0.9,5.7-1.8,9.6-2.9,11.7s-2.9,3.7-5.5,4.6c-1.7,0.9-3,1.3-3.9,1.3c-0.9,0-2.2-0.4-3.9-1.3c-2.5-0.4-4.5-1.7-6-3.8
		c-1.5-2.1-5.2-8.5-11-19.3c-7.5-13.6-17.2-33.6-28.9-59.8c-0.1-0.4-0.3-0.7-0.4-0.9c-0.6-1.6-1-2.4-1.2-2.3c-0.2,0.1-0.5,1.4-1,4
		c0,0.7-0.1,2.7-0.4,5.9c-0.3,3.2-0.4,5.8-0.4,7.8c-0.3,4.5-0.7,10.6-1.3,18.2c-0.6,7.6-1.1,14.1-1.5,19.6s-0.7,8.2-0.7,8.4
		l-1.7,7.6c-0.9,4.4-1.8,7.5-2.8,9.5c-1,2-2.6,3.4-4.8,4.2c-2.9,1.3-5.7,1.5-8.5,0.5c-2.8-0.9-4.8-2.9-6.1-5.8
		c-0.9-2.2-1.5-8.4-1.7-18.8c-0.3-10.4-0.2-20.8,0.2-31.4c1-10.9,1.5-28.8,1.5-53.7c0-3.8,0-7.6,0.1-11.6c0.1-4,0.1-7.5,0.2-10.6
		c0.1-3,0.1-5.8,0.2-8.2c0.1-2.4,0.1-4.3,0.2-5.8c0.1-1.4,0.1-2.2,0.1-2.4L393.7,1389.6z"/>
	<path class="st3" d="M540.7,1434.8c1.7-1,4.1-1.3,7.2-0.9s5.7,1.4,7.8,2.8c1.7,0.6,5.3,3,10.7,7.4c10.3,11,14.6,23.5,13.1,37.5
		c-1.6,14-8.6,24-21.1,30.1c-8,3.8-16.5,4.9-25.5,3.4c-9-1.5-16.1-5.5-21.3-11.9c-5.5-5.7-7.8-13-7-22c0.9-14.6,5-25.8,12.4-33.5
		c5.9-4.9,11.3-7.8,16.1-8.5c2.5,0,3.7-0.9,3.7-2.6C536.8,1435.5,538.1,1434.8,540.7,1434.8z M556.1,1470.6
		c-1.1-6.5-3.6-11.9-7.5-16.4c-2.2-2.9-4.1-4.3-5.9-4.1c-1.7,0.1-4.2,1.8-7.4,5c-3.6,3.8-6.4,10.7-8.3,20.7
		c-0.7,9,0.4,15.4,3.3,19.4c1.4,1.9,3.3,3.4,5.5,4.6c2.2,1.2,4.1,1.5,5.5,1.1c2.2-0.4,4.6-2,7.3-4.7c2.7-2.7,4.7-5.5,6.2-8.4
		C556.8,1482.8,557.2,1477.1,556.1,1470.6z"/>
	<path class="st3" d="M649.1,1444c2.3-0.7,4.8-0.8,7.5-0.1c2.7,0.7,4.5,1.8,5.5,3.6c1.2,1.2,1.7,2.6,1.7,4.4c0.4,1.3,0.7,2,0.9,2
		c0.1,0,0.9-0.7,2.2-2c7.3-5.1,13.9-6.5,19.8-4.4c4.4,2,7,6.4,8,13.1c0,0.1,0.1,0.2,0.2,0.2c0.4,1.2,1.2,0.9,2.4-0.7
		c0.3-0.4,0.5-0.7,0.7-0.9c8.3-8.6,16.8-11.5,25.7-8.7c4.9,1.3,8,3.7,9.4,7.2c3,6.7,5.3,18.7,6.7,36.1c1.2,16.7,2.2,25,3,25
		c1,0.4,2,1.4,2.8,2.8c0.9,1.5,1.3,2.8,1.3,3.9c0,3.8-2.8,6.3-8.5,7.7c-5.7,1.4-10.6,0.8-14.8-1.6c-4.1-2.2-6.8-6.1-8.3-11.7
		c-1.5-5.7-2.5-17.4-3-35.2l-0.7-6.5c-0.1-0.9-0.3-1.2-0.4-1.1c-0.1,0-0.8,1-2,3c-1.9,3.8-3.3,6.3-4.1,7.6c-1.6,3-3.4,5.2-5.5,6.3
		c-2.1,1.2-5,1.7-8.8,1.7c-7.5,0.9-11.7-2.3-12.6-9.6c-0.3-0.9-0.7-2.5-1.1-5c-0.4-2.5-0.8-4.1-1.1-5c-1.2-6.8-1.9-10.8-2.2-12
		c-0.3-1.2-0.7-1.5-1.1-1.1c-0.7,0-2.3,1.2-4.6,3.5c-1.9,1.3-3,2.3-3.3,2.8c-0.3,0.6-0.2,1.9,0.2,3.9c3,27.3,2.8,44.1-0.9,50.5
		c-1.9,2.8-4.8,4.6-8.6,5.7c-3.8,1-7.6,0.9-11.2-0.4c-2.5-0.7-4.2-1.5-5.2-2.4c-1-0.9-1.5-2.1-1.5-3.7c-0.4-1.2,0.1-3.2,1.5-6.1
		c0.7-1.3,1.1-3.3,1.2-6.1c0.1-2.8,0.1-12,0.1-27.6c0-21,0.4-32.4,1.3-34.2C643.2,1446.4,645.6,1444.7,649.1,1444z"/>
	<path class="st3" d="M776.5,1452.8c4.6-1.2,8.2-2.1,10.8-2.5c8.4-1.6,15.7-0.7,22,2.6c1.9,1.2,4,2.9,6.2,5.2
		c2.2,2.3,3.7,4.4,4.5,6.1c1.3,2.5,2.3,6.9,3,13.3c0.3,1.7-0.6,18.8-2.6,51.1c-0.3,4.6-0.4,7.4-0.2,8.3c0.1,0.9,0.7,1.7,1.7,2.6
		c1,1.3,1.5,2.3,1.5,3c0,1.7-0.7,3.3-2,4.8c-3.9,4.1-9.3,5.2-16.1,3.5c-6.5-1.7-10.6-4.7-12.2-8.9c-0.3-1-0.6-1.6-0.9-1.7
		c-0.3-0.1-2-0.4-5-0.7c-7.8,0-14.7-1.4-20.7-4.4c-5.9-2.9-9.9-6.7-12-11.5c-2.2-4.6-2.3-9.9-0.4-15.9c1.3-3.2,3.8-6.2,7.4-9
		c3.6-2.8,7.5-4.7,11.5-5.5c2-0.7,5.1-1.1,9.2-1.1s7.4,0.4,9.7,1.1h3.5c0.3-0.3,0.7-3.3,1.2-9c0.5-5.7,0.6-9.3,0.3-10.8
		c-1.2-5.7-2.3-8.9-3.3-9.8c-0.7-0.7-3-1.2-6.7-1.5c-3.8-0.3-7.2-0.1-10.2,0.4c-6.5,0.7-10.5,0.1-12-1.7c-0.7-1.4,0.3-3.1,3-5
		C769,1455,771.9,1454,776.5,1452.8z M803.8,1405.7c2.5-0.9,5.7-0.7,9.6,0.7c2.5,1.3,4.1,2.4,5,3.4c0.9,0.9,1.3,2.1,1.3,3.6
		c0,1.9-0.7,3.4-2,4.6c-1.3,1.2-4.5,3-9.6,5.4c-14.9,7.5-28.1,12.4-39.6,14.6c-4.5,1.6-7.8,0.9-10-2c-2.3-1.7-1.3-4.2,3-7.4l2.6-1.3
		l3-2.6c1.9-0.6,4.2-1.8,7-3.7c3.3-1.6,5-2.7,5-3.3c0.3-0.1,0.9-0.5,1.8-1c0.9-0.5,2.2-1.2,3.7-2.1c1.5-0.9,3.1-1.7,4.7-2.6
		c0.6-0.1,1.1-0.3,1.6-0.5c0.5-0.2,0.9-0.4,1.3-0.5c0.4-0.1,0.6-0.2,0.8-0.2c0.7-1.6,3.3-2.8,7.6-3.7
		C802.5,1406.1,803.5,1405.7,803.8,1405.7z M795.1,1502.3c0-0.3-1.7-0.4-5-0.4c-4.4,0-7.1,0.4-8.3,1.1c-3,1.5-5,3.9-6,7.3
		c-0.9,3.4-0.6,6.9,1,10.3c1.3,2.6,2.8,4.4,4.4,5.4c1.6,1,4.2,1.7,7.8,2c2.2,0.3,3.4,0.1,3.6-0.5c0.2-0.7,0.7-5.3,1.4-14
		C794.7,1507.6,795.1,1503.9,795.1,1502.3z"/>
	<path class="st3" d="M858.8,1435c2.9-0.9,6.4-1.2,10.4-1c4.1,0.2,7.5,0.8,10.4,1.6c2.2,1,4.4,2.5,6.6,4.6c2.2,2,3.8,4,4.7,5.9
		c0.9,1.6,1.3,4.1,1.3,7.4c0,3.3-0.4,5.7-1.3,7c-1.6,2.5-4.2,4.1-7.8,5c-3.6,0.9-6.7,0.5-9.1-1.1c-1.2-1.2-1.7-3.3-1.7-6.5
		c0.4-2.9,0.1-5.3-0.9-7.3c-1-2-2.3-2.9-3.9-2.9c-1.3,0-3.3,1-6,3c-2.7,2-4.8,3.9-6.2,5.7c-2.5,3-2.2,6.7,0.9,10.9
		c1.4,1.6,2.9,2.7,4.2,3.3c1.4,0.6,4.7,1.7,10.1,3.5c10,2.6,17.1,5.5,21.2,8.8c4.1,3.3,6,7.7,5.5,13.2c0,8.4-4.6,15.2-13.7,20.5
		c-3,1.6-7.8,2.4-14.1,2.4c-0.9,0-1.5,0-2,0c-9.6,0.7-17.9-0.6-25-3.9c-4.5-2.3-6.4-4.9-5.7-7.8c0-2.6,2.1-4.6,6.3-6.1
		c2.2-0.6,5.2-0.2,9.1,1.1c4.1,1.2,7.5,1.7,10.4,1.7c3.2,0.4,5.5,0.3,7-0.5c1.4-0.8,2.6-2.3,3.5-4.5c1.4-2,1.4-3.8,0-5.2
		c-1.7-2.6-6.1-4.6-13.1-6.1c-19.3-4.9-28.9-13.6-28.9-26.1c-0.7-4.9,1.7-10,7.4-15.2C844.7,1440.5,851.4,1436.8,858.8,1435z"/>
	<path class="st3" d="M958.4,1396.4c0.4-1.8,1.6-3.4,3.8-4.9c2.3-2.3,4.9-3.5,7.6-3.5c2.8,0,5.3,1.2,7.6,3.5
		c1.4,1.5,2.6,2.2,3.6,2.2c0.9,0,3.3-0.7,7.1-2.2c10-3.3,21.6-3.3,34.8,0c11.2,3,18.7,10.4,22.6,22c3.9,11.6,2.4,22-4.6,31.1
		c-2.3,3-3.6,4.9-3.8,5.5c-0.2,0.7,0,1.3,0.8,2.1c3,0.7,6.5,2.7,10.4,6c3.9,3.3,7,6.8,9.4,10.6c3.8,6.1,5.7,13.9,5.7,23.5
		s-1.9,17.4-5.7,23.5c-8.8,8.8-17.4,14.4-25.7,16.8c-7.7,3-16.8,4.6-27.4,4.6c-13.1,0-20.6,0.5-22.6,1.5c-6.4,3.2-12,3.2-16.8,0
		c-1.7-0.6-2.8-1.7-3.3-3.3c-0.9-2.9-1.7-21-2.6-54.4c-1-20.2-1.5-43.4-1.5-69.6C957.8,1403.2,958,1398.2,958.4,1396.4z
		 M1016.6,1415c-1.5-6.4-4.4-10.7-8.9-12.8c-0.9,0-2.4-0.1-4.7-0.3c-2.2-0.2-4.6-0.3-7.1-0.3c-2.5,0-5.1,0.2-7.8,0.7
		c-3,0.7-4.8,1.3-5.1,1.8c-0.4,0.5-0.2,1.9,0.5,4.2c0,0.7,0.3,3.1,0.8,7.1c0.5,4,0.8,7.1,0.8,9.5c0.7,10.7,1.5,16.9,2.3,18.6
		c0.8,1.7,3.2,2.1,7.1,1.4c0.6-0.1,1-0.2,1.3-0.2c4.9,0,8.8-1,11.5-2.9c2.8-2,5.4-5,8-9.2C1017.6,1427.2,1018,1421.4,1016.6,1415z
		 M1016.8,1462.9c-4.1-2-10.1-3-18.1-3c-5.4,0-8.5,0.4-9.4,1.3s-1.3,3.9-1.3,9.1c0,1.5,0.3,5.9,0.8,13.5c0.5,7.5,0.8,13.6,0.8,18.3
		c0.7,10.6,1.6,16.7,2.7,18.4c1.1,1.7,4.7,2.1,10.8,1.4c6.7,0,12.3-1.5,16.8-4.6c5.4-3.8,9.1-8.9,11.2-15.3c2.1-6.5,2.4-13.5,1-21
		C1029,1470.4,1023.9,1464.3,1016.8,1462.9z"/>
	<path class="st3" d="M1130.8,1445c1.2-0.9,3.9-1.3,8.3-1.3c5.1,0,8.8,1.2,11.1,3.5c2,2,2,4.8,0,8.3c-1,3.8-1.6,7.5-1.7,11.3
		c0,8,0.2,16.4,0.7,25.2c0.4,18.9-0.1,29.9-1.7,33.1c-1.6,3.9-5.4,5.7-11.3,5.2c-5.2,0-8.5-1.2-9.8-3.5c-0.9-2.6-1.3-4.8-1.3-6.5
		c-0.3-1.6-0.5-3-0.7-4.1l-5.2,2.4c-6.8,3-11.2,5-13.1,5.9c-1.7,0.9-4.2,1.4-7.4,1.5c-3.2,0.1-5.8-0.1-7.8-0.9
		c-7.4-2.5-12.3-8.2-14.8-17.2c-1.6-5.5-2.8-13.1-3.7-22.7c-0.9-9.6-1-17.7-0.4-24.3c0.3-4.6,1.1-7.6,2.4-8.9
		c1.6-2.8,4.9-4.1,10-4.1c5.5-0.4,9.6,0.7,12.4,3.5c0.9,0.9,1.3,1.7,1.4,2.5c0.1,0.8,0,2.9-0.3,6.4c-1.5,30.2-1,48,1.3,53.5
		c0.7,1,1.2,1.6,1.4,1.7c0.2,0.1,0.9,0.2,2.1,0.2c3,0,7.4-1.8,13.1-5.4c0.6-0.1,1.5-0.5,2.8-1.2c1.3-0.7,2.1-1,2.4-1.2
		c1.6-0.7,2.5-1.2,2.7-1.5c0.2-0.3,0.3-1.3,0.3-3c0-0.4-0.1-1.2-0.2-2.4c-0.1-1.2-0.3-2.5-0.5-4.1c-0.2-1.6-0.4-3-0.5-4.1
		c-0.7-8.7-1.1-16.2-1.1-22.4c0-10.2,0.4-15.9,1.1-17.2C1123.8,1449,1126.6,1446.4,1130.8,1445z"/>
	<path class="st3" d="M1161.5,1391.1c0.4-0.6,1.1-1.1,1.8-1.6c0.8-0.5,1.4-0.8,1.8-0.8c1-1,4.5-1.5,10.4-1.5c1.9,0,3.5,0.2,4.8,0.7
		c1.3,0.4,2.2,0.9,2.8,1.3c0.6,0.4,1.5,1.3,2.8,2.6c2.3,2.3,3.6,5.3,3.8,8.9c0.2,3.6,0,15.2-0.8,34.6c-1.6,63.5-5.1,98-10.4,103.3
		c-2.2,1.6-5.2,2.3-9,2.1c-3.8-0.2-6.9-1.4-9-3.6c-1.6-1.6-2.4-5.3-2.5-11.2c-0.1-5.9,0.3-26.1,1-60.6c0-7.3,0-14.7,0.1-22.3
		c0.1-7.6,0.2-14.3,0.3-20.1c0.1-5.8,0.3-11,0.5-15.7c0.2-4.6,0.4-8.3,0.4-11.1c0.1-2.8,0.1-4.2,0.1-4.4L1161.5,1391.1z"/>
	<path class="st3" d="M1200.4,1391.1c0.4-0.6,1.1-1.1,1.8-1.6c0.8-0.5,1.4-0.8,1.8-0.8c1-1,4.5-1.5,10.4-1.5c1.9,0,3.5,0.2,4.8,0.7
		c1.3,0.4,2.2,0.9,2.8,1.3c0.6,0.4,1.5,1.3,2.8,2.6c2.3,2.3,3.6,5.3,3.8,8.9c0.2,3.6,0,15.2-0.8,34.6c-1.6,63.5-5.1,98-10.4,103.3
		c-2.2,1.6-5.2,2.3-9,2.1c-3.8-0.2-6.9-1.4-9-3.6c-1.6-1.6-2.4-5.3-2.5-11.2c-0.1-5.9,0.3-26.1,1-60.6c0-7.3,0-14.7,0.1-22.3
		c0.1-7.6,0.2-14.3,0.3-20.1c0.1-5.8,0.3-11,0.5-15.7c0.2-4.6,0.4-8.3,0.4-11.1c0.1-2.8,0.1-4.2,0.1-4.4L1200.4,1391.1z"/>
	<path class="st3" d="M1291.2,1441.6c0.7-0.3,1.1-0.4,1.4-0.4c2-0.7,4.8-0.6,8.3,0.3c3.5,0.9,5.6,2.2,6.3,3.8
		c0.4,0.4,0.7,6.9,0.7,19.4c0,15.5,0.8,34.7,2.4,57.4c0.9,22,1.2,36.3,1,42.8c-0.2,6.5-1.3,11.1-3.4,13.8
		c-2.8,5.7-8.1,9.4-16.1,11.2c-8,1.8-15,1.1-21.1-2.3c-4.5-2.5-7.6-5.6-9.4-9.5c-1.7-3.8-1.6-7.4,0.4-10.8c2-2.9,5.6-4.8,10.7-5.7
		c2.8,0,4.7,0.6,5.9,1.7c1.2,1.2,2.2,3.3,3,6.3c0.7,2.9,1.4,4.3,2.2,4.1c1.7-0.3,2.3-5.7,1.7-16.1c0-2-0.1-5.1-0.4-9.1
		c-0.3-4.1-0.4-6.7-0.4-8c-1-4.8-1.5-10.4-1.5-17c-0.4-4.5-0.9-7-1.4-7.5c-0.5-0.5-2.4-0.4-5.8,0.3c-7.4,1.5-13.6,1.5-18.7,0
		c-5.8-1.3-10.4-4.3-13.7-8.9c-2-2-3.2-4.3-3.6-6.9c-0.4-2.5-0.5-8.9-0.5-19c0-13.1-0.2-19.8-0.7-20.2c-1.2,0-1.7-1.1-1.7-3.3
		c0-3.2,3.8-4.8,11.3-4.8c4.9,0,7.9,0.3,8.9,0.9c3.3,1.6,6,4,8.1,7.2c0,0.4,0.1,1.5,0.2,3.2c0.1,1.7,0.4,4.2,0.7,7.5
		c0.3,3.3,0.6,6.2,0.9,8.7c0,2.6,0.1,5.3,0.2,8.2c0.1,2.8,0.3,5.1,0.3,6.9c0.1,1.7,0.1,2.7,0.1,2.8c0.7,1.3,4,1.3,9.8,0
		c1.9-0.3,3-0.5,3.4-0.7c0.4-0.1,0.7-0.5,1.1-1.2c0.4-0.7,0.3-1.6-0.3-2.9c-0.4-3.6-0.7-11.4-0.7-23.4s0.2-18.7,0.7-20.3
		c1.6-4.4,4.3-7,8-8.1C1290,1442,1290.6,1441.9,1291.2,1441.6z"/>
	<path class="st3" d="M1332,1464.2c1-1,2.8-1.5,5.4-1.5c2.2,0,4.2,0.7,6.1,2.2c2,2.5,3.8,8.5,5.2,18.1c1.6,19,1.6,33,0,42
		c-1.7,7-4.9,11.7-9.4,14.1c-2.2,1.3-5.1,2-8.7,2c-6.5,0.6-10.5-0.9-12-4.6c-0.7-1.3-1.1-2.3-1-2.9c0.1-0.7,0.6-1.9,1.6-3.8
		c2.6-4.8,3.9-12.4,3.9-22.8l1.3-13.3c0.9-8.8,1.6-14.9,2.2-18.1C1327.5,1469.4,1329.3,1465.6,1332,1464.2z M1330.1,1436.6
		c1.9-1,4.4-1.2,7.5-0.5c3.1,0.7,5.3,1.8,6.6,3.4c0.6,0.6,1.2,2.3,2,5.2c0,3.2-0.2,5.2-0.7,6.1c-1,1.9-3.4,3.2-7.1,3.8
		c-3.7,0.7-6.7,0.5-9-0.5c-2.3-1.3-3.8-2.4-4.4-3.4c-0.6-0.9-0.7-2.4-0.4-4.5C1324.6,1441.2,1326.4,1438,1330.1,1436.6z"/>
	<path class="st3" d="M1364.9,1441.7c1-0.9,2.2-1.5,3.5-1.6c4.9-0.7,9-0.3,12.2,1.3c2.9,1.3,4.4,4.7,4.4,10.2
		c0.3,2.3,0.5,3.6,0.8,3.9c0.2,0.3,1,0,2.3-0.9c2.2-1.3,7.3-3.7,15.4-7.2c3.9-1.3,8.1-1.3,12.5-0.1c4.4,1.2,8,3.5,10.8,6.9
		c2.2,2.9,4,6.5,5.3,10.7c1.4,4.2,2.8,10.9,4.2,20c0.9,13.5,1.3,20.5,1.3,21.1c0,8.3-0.4,13-1.3,14.1c-2.2,2.8-5.7,4.3-10.6,4.6
		c-4.9,0.3-8.7-0.8-11.4-3.3c-1.3-0.9-2-2.1-2.2-3.6c-0.1-1.5-0.2-7.1-0.2-16.6c0-22.8-1.5-37.3-4.4-43.5c-0.3-0.7-1.1-1.1-2.4-1.1
		c-3.5,0.9-8.8,3.6-15.9,8c-1.7,0.9-2.8,1.5-3,2c-0.3,0.4-0.3,1.4,0,2.8c0.3,1.9,1.1,10.2,2.4,25c0.4,10-0.2,18-2,23.9
		c-0.1,1.5-1.1,3.1-2.9,4.9c-1.8,1.8-3.7,3.1-5.5,3.8c-5.7,1.6-10.7,1.3-15.2-0.9c-5.7-2.6-7-6.2-3.9-10.9c0.7-1.3,1.1-3.4,1.2-6.3
		c0.1-2.9,0.1-12.3,0.1-28.1c0-16.1,0.1-25.7,0.3-28.7s1-5.7,2.3-7.8C1363.2,1443.5,1363.9,1442.6,1364.9,1441.7z"/>
	<path class="st3" d="M1493.8,1431.2c0.8-0.4,1.4-0.7,2-0.9c0.5-0.2,0.9-0.3,1.2-0.3c2.3-0.4,5.1-0.1,8.5,1.1
		c3.3,1.2,5.4,2.5,6.1,4.1c0.6,0.6,0.9,5.7,0.9,15.4c-0.7,7.3-0.2,23.3,1.5,48.1c1.2,25.4,1.8,41.6,1.8,48.7
		c0.1,7.1-0.3,12-1.2,14.8c-1.2,4.4-2.7,7.7-4.6,10c-5.7,5.7-12.7,8.5-21,8.6c-8.3,0.1-15.1-2.6-20.3-7.9c-3.2-3.2-4.4-7.3-3.7-12.2
		c0-1.9,0.4-3.4,1.3-4.5s2.7-2.4,5.4-4c6.4-2.5,10.7,0.1,13.1,7.6c0.9,2.6,1.6,4.1,2.2,4.4c1.7,0.9,2.3-4.9,1.7-17.2
		c-1.7-35.2-2.8-52.9-3-52.9c0-0.3-0.1-0.4-0.4-0.4c-0.3,0-0.8,0.1-1.5,0.2c-0.7,0.1-1.4,0.2-2,0.2c-1.7,1-5.6,1.5-11.5,1.5
		c-9.7,0-17.3-2.3-22.8-7c-4.2-2.8-7-6.8-8.5-12.2c-1-5.4-0.2-10.2,2.4-14.6c5.1-5.1,7.8-7.6,8.3-7.6l4.6-1.5c4.6-2,11.5-3,20.7-3
		c4.9,0,7.6-0.2,8.2-0.5c0.5-0.4,1.1-2.7,1.8-7.1c0.9-5.2,3.2-8.6,7-10C1492.3,1431.9,1493,1431.6,1493.8,1431.2z M1484.3,1467.7
		c-0.3-3-0.4-4.6-0.4-4.8c-0.4-1.2-0.9-1.8-1.3-2.1c-0.4-0.2-1.7-0.3-3.9-0.3c-7.3,0-12.3,2.6-15.2,7.8c-1.9,4.2-1.8,8.2,0.2,12
		c2,3.8,5.2,5.9,9.6,6.3c0.7,0.3,1.5,0.4,2.4,0.4c0.9,0,1.8-0.1,2.8-0.2c1-0.1,1.8-0.2,2.4-0.2c2-0.4,3.2-1.1,3.5-2
		c0.3-0.9,0.4-3.8,0.4-8.7C1484.8,1473.5,1484.6,1470.7,1484.3,1467.7z"/>
</g>
<g>
	<path class="st3" d="M1204.2,1810.1H746.8c-16,0-29-13-29-29v-6c0-16,13-29,29-29h457.3c16,0,29,13,29,29v6
		C1233.2,1797.1,1220.2,1810.1,1204.2,1810.1z"/>
	<g>
		<g class="st2">
			<path class="st0" d="M758.3,1786.2c0-4.7,5-5,5-8.6h2.9c0,4.3-5,5-5,8.2c0,1.6,1.5,2.8,4.1,2.8c2.3,0,4-0.8,5.1-2.3l2.1,1.5
				c-1.6,2-4.1,3.2-7.4,3.2C761,1791.1,758.3,1789.3,758.3,1786.2z M762.9,1773c0-1,0.8-1.9,1.9-1.9c1.1,0,1.9,0.8,1.9,1.9
				c0,1-0.8,1.8-1.9,1.8C763.7,1774.9,762.9,1774.1,762.9,1773z"/>
			<path class="st0" d="M794.8,1788.3c-1.3,1.5-3,2.3-5,2.3c-2.5,0-4.5-1.1-7.3-4c-5.8-0.3-9.9-4.6-9.9-10.2
				c0-5.9,4.5-10.2,10.7-10.2c6.1,0,10.6,4.4,10.6,10.2c0,5-3.2,8.8-7.9,9.9c1.3,1.4,2.5,2,3.8,2c1.4,0,2.6-0.6,3.7-1.7
				L794.8,1788.3z M783.2,1784.2c4.4,0,7.8-3.3,7.8-7.7c0-4.4-3.3-7.7-7.8-7.7c-4.5,0-7.8,3.3-7.8,7.7
				C775.4,1780.9,778.7,1784.2,783.2,1784.2z"/>
			<path class="st0" d="M812,1771.3v15.2h-2.6v-2.3c-1.1,1.6-3,2.5-5.2,2.5c-3.9,0-6.5-2.1-6.5-6.6v-8.7h2.7v8.4
				c0,3,1.5,4.5,4.1,4.5c2.9,0,4.7-1.8,4.7-5v-7.8H812z"/>
			<path class="st0" d="M830.9,1779.8h-12.3c0.3,2.7,2.5,4.4,5.5,4.4c1.8,0,3.3-0.6,4.4-1.8l1.5,1.8c-1.4,1.6-3.5,2.5-6,2.5
				c-4.9,0-8.2-3.2-8.2-7.8c0-4.5,3.2-7.7,7.6-7.7c4.4,0,7.5,3.1,7.5,7.8C830.9,1779.2,830.9,1779.6,830.9,1779.8z M818.6,1777.9
				h9.7c-0.3-2.5-2.2-4.4-4.9-4.4C820.8,1773.5,818.8,1775.3,818.6,1777.9z M823.8,1769.1h-2.6l3.9-3.7h3.5L823.8,1769.1z"/>
			<path class="st0" d="M856.8,1777.8v8.7h-2.7v-8.4c0-3-1.5-4.4-4.1-4.4c-2.9,0-4.8,1.7-4.8,5v7.8h-2.7v-21.2h2.7v8.2
				c1.1-1.5,3-2.3,5.4-2.3C854.2,1771.2,856.8,1773.3,856.8,1777.8z"/>
			<path class="st0" d="M873.9,1777.3v9.2h-2.6v-2c-0.9,1.4-2.6,2.2-5,2.2c-3.4,0-5.6-1.8-5.6-4.5c0-2.4,1.6-4.4,6.1-4.4h4.4v-0.5
				c0-2.3-1.3-3.7-4.1-3.7c-1.8,0-3.6,0.6-4.8,1.6l-1.1-2.1c1.6-1.3,3.8-1.9,6.3-1.9C871.6,1771.2,873.9,1773.2,873.9,1777.3z
				 M871.2,1781.9v-2.1H867c-2.7,0-3.5,1.1-3.5,2.3c0,1.5,1.3,2.5,3.3,2.5C868.9,1784.6,870.5,1783.6,871.2,1781.9z"/>
			<path class="st0" d="M877.7,1778.9c0-4.5,3.3-7.7,8-7.7c2.7,0,5,1.1,6.2,3.2l-2.1,1.3c-1-1.5-2.5-2.2-4.1-2.2
				c-3,0-5.2,2.1-5.2,5.3c0,3.3,2.2,5.4,5.2,5.4c1.7,0,3.1-0.7,4.1-2.2l2.1,1.3c-1.2,2.1-3.5,3.3-6.2,3.3
				C881.1,1786.7,877.7,1783.4,877.7,1778.9z"/>
			<path class="st0" d="M908.9,1779.8h-12.3c0.3,2.7,2.5,4.4,5.5,4.4c1.8,0,3.3-0.6,4.4-1.8l1.5,1.8c-1.4,1.6-3.5,2.5-6,2.5
				c-4.9,0-8.2-3.2-8.2-7.8c0-4.5,3.2-7.7,7.6-7.7c4.4,0,7.5,3.1,7.5,7.8C908.9,1779.2,908.9,1779.6,908.9,1779.8z M896.6,1777.9
				h9.7c-0.3-2.5-2.2-4.4-4.9-4.4C898.8,1773.5,896.9,1775.3,896.6,1777.9z"/>
			<path class="st0" d="M920.9,1771.2v2.7c-0.2,0-0.4,0-0.6,0c-2.9,0-4.8,1.8-4.8,5.1v7.6h-2.7v-15.2h2.6v2.5
				C916.4,1772.1,918.2,1771.2,920.9,1771.2z"/>
			<path class="st0" d="M935.3,1770v1.3h4.4v2.3h-4.4v12.9h-2.7v-12.9H930v-2.3h2.6v-1.3c0-2.9,1.8-4.9,5-4.9c1.2,0,2.3,0.3,3.1,0.9
				l-0.8,2.1c-0.6-0.4-1.3-0.7-2.1-0.7C936.1,1767.4,935.3,1768.3,935.3,1770z"/>
			<path class="st0" d="M952.7,1771.2v2.7c-0.2,0-0.4,0-0.6,0c-2.9,0-4.8,1.8-4.8,5.1v7.6h-2.7v-15.2h2.6v2.5
				C948.2,1772.1,950.1,1771.2,952.7,1771.2z"/>
			<path class="st0" d="M969.6,1779.8h-12.3c0.3,2.7,2.5,4.4,5.5,4.4c1.8,0,3.3-0.6,4.4-1.8l1.5,1.8c-1.4,1.6-3.5,2.5-6,2.5
				c-4.9,0-8.2-3.2-8.2-7.8c0-4.5,3.2-7.7,7.6-7.7c4.4,0,7.5,3.1,7.5,7.8C969.7,1779.2,969.7,1779.6,969.6,1779.8z M957.3,1777.9
				h9.7c-0.3-2.5-2.2-4.4-4.9-4.4C959.5,1773.5,957.6,1775.3,957.3,1777.9z"/>
			<path class="st0" d="M987.9,1777.8v8.7h-2.7v-8.4c0-3-1.5-4.4-4.1-4.4c-2.9,0-4.8,1.7-4.8,5v7.8h-2.7v-15.2h2.6v2.3
				c1.1-1.5,3.1-2.4,5.5-2.4C985.3,1771.2,987.9,1773.3,987.9,1777.8z"/>
			<path class="st0" d="M1001.5,1785.6c-0.8,0.7-2.1,1.1-3.3,1.1c-3.1,0-4.8-1.7-4.8-4.8v-8.3h-2.6v-2.3h2.6v-3.3h2.7v3.3h4.4v2.3
				h-4.4v8.2c0,1.6,0.9,2.5,2.4,2.5c0.8,0,1.6-0.3,2.1-0.7L1001.5,1785.6z"/>
			<path class="st0" d="M1018,1779.8h-12.3c0.3,2.7,2.5,4.4,5.5,4.4c1.8,0,3.3-0.6,4.4-1.8l1.5,1.8c-1.4,1.6-3.5,2.5-6,2.5
				c-4.9,0-8.2-3.2-8.2-7.8c0-4.5,3.2-7.7,7.6-7.7c4.4,0,7.5,3.1,7.5,7.8C1018,1779.2,1018,1779.6,1018,1779.8z M1005.7,1777.9h9.7
				c-0.3-2.5-2.2-4.4-4.9-4.4C1007.9,1773.5,1005.9,1775.3,1005.7,1777.9z"/>
			<path class="st0" d="M1041.5,1777.3v9.2h-2.6v-2c-0.9,1.4-2.6,2.2-5,2.2c-3.4,0-5.6-1.8-5.6-4.5c0-2.4,1.6-4.4,6.1-4.4h4.4v-0.5
				c0-2.3-1.3-3.7-4.1-3.7c-1.8,0-3.6,0.6-4.8,1.6l-1.1-2.1c1.6-1.3,3.8-1.9,6.3-1.9C1039.2,1771.2,1041.5,1773.2,1041.5,1777.3z
				 M1038.8,1781.9v-2.1h-4.2c-2.7,0-3.5,1.1-3.5,2.3c0,1.5,1.3,2.5,3.3,2.5C1036.5,1784.6,1038.1,1783.6,1038.8,1781.9z"/>
			<path class="st0" d="M1046.6,1765.3h2.7v21.2h-2.7V1765.3z"/>
			<path class="st0" d="M1078,1778.9c0,4.6-3.2,7.8-7.7,7.8c-2.2,0-4.2-0.9-5.4-2.6v2.4h-2.6v-21.2h2.7v8.4c1.3-1.6,3.1-2.4,5.3-2.4
				C1074.8,1771.2,1078,1774.3,1078,1778.9z M1075.3,1778.9c0-3.2-2.2-5.3-5.1-5.3c-2.9,0-5.1,2.1-5.1,5.3s2.2,5.4,5.1,5.4
				C1073.1,1784.3,1075.3,1782.2,1075.3,1778.9z"/>
			<path class="st0" d="M1096,1771.3v15.2h-2.6v-2.3c-1.1,1.6-3,2.5-5.2,2.5c-3.9,0-6.5-2.1-6.5-6.6v-8.7h2.7v8.4
				c0,3,1.5,4.5,4.1,4.5c2.9,0,4.7-1.8,4.7-5v-7.8H1096z"/>
			<path class="st0" d="M1101.2,1765.3h2.7v21.2h-2.7V1765.3z"/>
			<path class="st0" d="M1109.2,1765.3h2.7v21.2h-2.7V1765.3z"/>
			<path class="st0" d="M1130.6,1771.3l-7.4,16.7c-1.3,3.2-3.1,4.2-5.4,4.2c-1.5,0-2.9-0.5-3.9-1.4l1.2-2.1c0.7,0.7,1.7,1.1,2.7,1.1
				c1.3,0,2.1-0.6,2.9-2.3l0.5-1.1l-6.7-15.1h2.9l5.3,12.1l5.2-12.1H1130.6z"/>
			<path class="st0" d="M1132.7,1766.6c0-1,0.8-1.8,1.9-1.8s1.9,0.8,1.9,1.7c0,1-0.8,1.8-1.9,1.8
				C1133.5,1768.4,1132.7,1767.6,1132.7,1766.6z M1133.2,1771.3h2.7v15.2h-2.7V1771.3z"/>
			<path class="st0" d="M1155.6,1777.8v8.7h-2.7v-8.4c0-3-1.5-4.4-4.1-4.4c-2.9,0-4.8,1.7-4.8,5v7.8h-2.7v-15.2h2.6v2.3
				c1.1-1.5,3.1-2.4,5.5-2.4C1153,1771.2,1155.6,1773.3,1155.6,1777.8z"/>
			<path class="st0" d="M1175.3,1771.3v13.1c0,5.4-2.7,7.8-7.9,7.8c-2.8,0-5.6-0.8-7.2-2.3l1.3-2.1c1.4,1.2,3.6,2,5.8,2
				c3.6,0,5.2-1.7,5.2-5.1v-1.2c-1.3,1.6-3.3,2.3-5.5,2.3c-4.4,0-7.7-3-7.7-7.4s3.3-7.3,7.7-7.3c2.3,0,4.3,0.8,5.6,2.5v-2.3H1175.3z
				 M1172.6,1778.5c0-2.9-2.2-4.9-5.2-4.9c-3.1,0-5.2,2-5.2,4.9c0,2.9,2.2,5,5.2,5C1170.4,1783.5,1172.6,1781.4,1172.6,1778.5z"/>
			<path class="st0" d="M1189.9,1771.8c0-1.8-1.5-3.1-4.1-3.1c-2.3,0-4,0.8-5.1,2.3l-2.1-1.5c1.6-2,4.1-3.2,7.4-3.2
				c4.1,0,6.8,1.9,6.8,5.1c0,4.8-5.1,5.1-5.1,8.8h-2.9C1184.8,1775.7,1189.9,1775.1,1189.9,1771.8z M1184.4,1784.8
				c0-1,0.8-1.8,1.9-1.8c1.1,0,1.8,0.8,1.8,1.8c0,1-0.8,1.8-1.8,1.8C1185.2,1786.7,1184.4,1785.8,1184.4,1784.8z"/>
		</g>
	</g>
</g>
<path class="st24" d="M6757,9758"/>
</svg>
