<?xml version="1.0" encoding="utf-8"?>
<!-- Generator: Adobe Illustrator 25.4.1, SVG Export Plug-In . SVG Version: 6.00 Build 0)  -->
<svg version="1.1" id="Capa_1" xmlns="http://www.w3.org/2000/svg" xmlns:xlink="http://www.w3.org/1999/xlink" x="0px" y="0px"
	 viewBox="0 0 1080 1229" style="enable-background:new 0 0 1080 1229;" xml:space="preserve">
<style type="text/css">
	.st0{fill:#211F1F;}
	.st1{opacity:0.1;}
	.st2{clip-path:url(#SVGID_00000020391669105146380580000015273379865414549638_);}
	.st3{fill:none;stroke:#FFFFFF;stroke-width:2.0635;stroke-miterlimit:10;}
	.st4{opacity:0.1;fill:#65A4C5;}
	.st5{fill:#C8B5EE;}
	.st6{opacity:0.3;}
	.st7{fill:#0C1A3C;}
	.st8{opacity:0.5;fill:#0C1A3C;}
	.st9{opacity:0.6;fill:#0C1A3C;}
	.st10{fill:#FFFFFF;stroke:#231F20;stroke-width:2;stroke-linecap:round;stroke-linejoin:round;stroke-miterlimit:10;}
	.st11{fill:#E2EE6A;}
	.st12{fill:#231F20;stroke:#231F20;stroke-width:2;stroke-linecap:round;stroke-linejoin:round;stroke-miterlimit:10;}
	.st13{fill:none;stroke:#231F20;stroke-width:2;stroke-linecap:round;stroke-linejoin:round;stroke-miterlimit:10;}
	.st14{fill:none;stroke:#CDE894;stroke-width:2;stroke-linecap:round;stroke-linejoin:round;stroke-miterlimit:10;}
	.st15{fill:#83B6CC;}
	.st16{fill:#231F20;}
	.st17{fill:#CDE894;stroke:#231F20;stroke-width:2;stroke-miterlimit:10;}
	.st18{clip-path:url(#SVGID_00000043444907526216978990000001679543000243236256_);}
	.st19{opacity:0.4;fill:#0C1A3C;}
	.st20{opacity:0.7;fill:#0C1A3C;}
</style>
<path class="st0" d="M0,747.2L0,76.58h1.12l0-57.99c0,0,248.07,113.56,821.65,0c0,0,188.57-24.97,255.92-13.69v71.68h1.26l0,663.02
	v44.17v350.86c-41.2,11.23-296.07,71.05-823.8-1.73c0,0-186.24-17.18-256.16-9.89l0-346.85V747.2z"/>
<g>
	<g>
		<g class="st1">
			<defs>
				<polygon id="SVGID_1_" class="st1" points="1080,527.61 0.19,527.61 0.19,23.92 1080,-0.83 				"/>
			</defs>
			<clipPath id="SVGID_00000060739256003821989940000016399442362051450290_">
				<use xlink:href="#SVGID_1_"  style="overflow:visible;"/>
			</clipPath>
			<g style="clip-path:url(#SVGID_00000060739256003821989940000016399442362051450290_);">
				<g>
					<rect x="-20.56" y="13.24" class="st3" width="80.09" height="41.13"/>
					<rect x="59.53" y="13.24" class="st3" width="80.09" height="41.13"/>
					<rect x="139.62" y="13.24" class="st3" width="80.09" height="41.13"/>
					<rect x="219.72" y="13.24" class="st3" width="80.09" height="41.13"/>
					<rect x="299.81" y="13.24" class="st3" width="80.09" height="41.13"/>
					<rect x="379.91" y="13.24" class="st3" width="80.09" height="41.13"/>
					<rect x="460" y="13.24" class="st3" width="80.09" height="41.13"/>
					<rect x="540.09" y="13.24" class="st3" width="80.09" height="41.13"/>
					<rect x="620.19" y="13.24" class="st3" width="80.09" height="41.13"/>
					<rect x="700.28" y="13.24" class="st3" width="80.09" height="41.13"/>
					<rect x="780.38" y="13.24" class="st3" width="80.09" height="41.13"/>
					<rect x="860.47" y="13.24" class="st3" width="80.09" height="41.13"/>
					<rect x="940.56" y="13.24" class="st3" width="80.09" height="41.13"/>
					<rect x="1020.66" y="13.24" class="st3" width="80.09" height="41.13"/>
				</g>
				<g>
					<rect x="-60.61" y="54.37" class="st3" width="80.09" height="41.13"/>
					<rect x="19.48" y="54.37" class="st3" width="80.09" height="41.13"/>
					<rect x="99.58" y="54.37" class="st3" width="80.09" height="41.13"/>
					<rect x="179.67" y="54.37" class="st3" width="80.09" height="41.13"/>
					<rect x="259.77" y="54.37" class="st3" width="80.09" height="41.13"/>
					<rect x="339.86" y="54.37" class="st3" width="80.09" height="41.13"/>
					<rect x="419.95" y="54.37" class="st3" width="80.09" height="41.13"/>
					<rect x="500.05" y="54.37" class="st3" width="80.09" height="41.13"/>
					<rect x="580.14" y="54.37" class="st3" width="80.09" height="41.13"/>
					<rect x="660.23" y="54.37" class="st3" width="80.09" height="41.13"/>
					<rect x="740.33" y="54.37" class="st3" width="80.09" height="41.13"/>
					<rect x="820.42" y="54.37" class="st3" width="80.09" height="41.13"/>
					<rect x="900.52" y="54.37" class="st3" width="80.09" height="41.13"/>
					<rect x="980.61" y="54.37" class="st3" width="80.09" height="41.13"/>
					<rect x="1060.7" y="54.37" class="st3" width="80.09" height="41.13"/>
				</g>
				<g>
					<rect x="-20.56" y="95.5" class="st3" width="80.09" height="41.13"/>
					<rect x="59.53" y="95.5" class="st3" width="80.09" height="41.13"/>
					<rect x="139.62" y="95.5" class="st3" width="80.09" height="41.13"/>
					<rect x="219.72" y="95.5" class="st3" width="80.09" height="41.13"/>
					<rect x="299.81" y="95.5" class="st3" width="80.09" height="41.13"/>
					<rect x="379.91" y="95.5" class="st3" width="80.09" height="41.13"/>
					<rect x="460" y="95.5" class="st3" width="80.09" height="41.13"/>
					<rect x="540.09" y="95.5" class="st3" width="80.09" height="41.13"/>
					<rect x="620.19" y="95.5" class="st3" width="80.09" height="41.13"/>
					<rect x="700.28" y="95.5" class="st3" width="80.09" height="41.13"/>
					<rect x="780.38" y="95.5" class="st3" width="80.09" height="41.13"/>
					<rect x="860.47" y="95.5" class="st3" width="80.09" height="41.13"/>
					<rect x="940.56" y="95.5" class="st3" width="80.09" height="41.13"/>
					<rect x="1020.66" y="95.5" class="st3" width="80.09" height="41.13"/>
				</g>
				<g>
					<rect x="-60.61" y="136.63" class="st3" width="80.09" height="41.13"/>
					<rect x="19.48" y="136.63" class="st3" width="80.09" height="41.13"/>
					<rect x="99.58" y="136.63" class="st3" width="80.09" height="41.13"/>
					<rect x="179.67" y="136.63" class="st3" width="80.09" height="41.13"/>
					<rect x="259.77" y="136.63" class="st3" width="80.09" height="41.13"/>
					<rect x="339.86" y="136.63" class="st3" width="80.09" height="41.13"/>
					<rect x="419.95" y="136.63" class="st3" width="80.09" height="41.13"/>
					<rect x="500.05" y="136.63" class="st3" width="80.09" height="41.13"/>
					<rect x="580.14" y="136.63" class="st3" width="80.09" height="41.13"/>
					<rect x="660.23" y="136.63" class="st3" width="80.09" height="41.13"/>
					<rect x="740.33" y="136.63" class="st3" width="80.09" height="41.13"/>
					<rect x="820.42" y="136.63" class="st3" width="80.09" height="41.13"/>
					<rect x="900.52" y="136.63" class="st3" width="80.09" height="41.13"/>
					<rect x="980.61" y="136.63" class="st3" width="80.09" height="41.13"/>
					<rect x="1060.7" y="136.63" class="st3" width="80.09" height="41.13"/>
				</g>
				<g>
					<rect x="-20.56" y="177.76" class="st3" width="80.09" height="41.13"/>
					<rect x="59.53" y="177.76" class="st3" width="80.09" height="41.13"/>
					<rect x="139.62" y="177.76" class="st3" width="80.09" height="41.13"/>
					<rect x="219.72" y="177.76" class="st3" width="80.09" height="41.13"/>
					<rect x="299.81" y="177.76" class="st3" width="80.09" height="41.13"/>
					<rect x="379.91" y="177.76" class="st3" width="80.09" height="41.13"/>
					<rect x="460" y="177.76" class="st3" width="80.09" height="41.13"/>
					<rect x="540.09" y="177.76" class="st3" width="80.09" height="41.13"/>
					<rect x="620.19" y="177.76" class="st3" width="80.09" height="41.13"/>
					<rect x="700.28" y="177.76" class="st3" width="80.09" height="41.13"/>
					<rect x="780.38" y="177.76" class="st3" width="80.09" height="41.13"/>
					<rect x="860.47" y="177.76" class="st3" width="80.09" height="41.13"/>
					<rect x="940.56" y="177.76" class="st3" width="80.09" height="41.13"/>
					<rect x="1020.66" y="177.76" class="st3" width="80.09" height="41.13"/>
				</g>
				<g>
					<rect x="-60.61" y="218.89" class="st3" width="80.09" height="41.13"/>
					<rect x="19.48" y="218.89" class="st3" width="80.09" height="41.13"/>
					<rect x="99.58" y="218.89" class="st3" width="80.09" height="41.13"/>
					<rect x="179.67" y="218.89" class="st3" width="80.09" height="41.13"/>
					<rect x="259.77" y="218.89" class="st3" width="80.09" height="41.13"/>
					<rect x="339.86" y="218.89" class="st3" width="80.09" height="41.13"/>
					<rect x="419.95" y="218.89" class="st3" width="80.09" height="41.13"/>
					<rect x="500.05" y="218.89" class="st3" width="80.09" height="41.13"/>
					<rect x="580.14" y="218.89" class="st3" width="80.09" height="41.13"/>
					<rect x="660.23" y="218.89" class="st3" width="80.09" height="41.13"/>
					<rect x="740.33" y="218.89" class="st3" width="80.09" height="41.13"/>
					<rect x="820.42" y="218.89" class="st3" width="80.09" height="41.13"/>
					<rect x="900.52" y="218.89" class="st3" width="80.09" height="41.13"/>
					<rect x="980.61" y="218.89" class="st3" width="80.09" height="41.13"/>
					<rect x="1060.7" y="218.89" class="st3" width="80.09" height="41.13"/>
				</g>
				<g>
					<rect x="-20.56" y="260.02" class="st3" width="80.09" height="41.13"/>
					<rect x="59.53" y="260.02" class="st3" width="80.09" height="41.13"/>
					<rect x="139.62" y="260.02" class="st3" width="80.09" height="41.13"/>
					<rect x="219.72" y="260.02" class="st3" width="80.09" height="41.13"/>
					<rect x="299.81" y="260.02" class="st3" width="80.09" height="41.13"/>
					<rect x="379.91" y="260.02" class="st3" width="80.09" height="41.13"/>
					<rect x="460" y="260.02" class="st3" width="80.09" height="41.13"/>
					<rect x="540.09" y="260.02" class="st3" width="80.09" height="41.13"/>
					<rect x="620.19" y="260.02" class="st3" width="80.09" height="41.13"/>
					<rect x="700.28" y="260.02" class="st3" width="80.09" height="41.13"/>
					<rect x="780.38" y="260.02" class="st3" width="80.09" height="41.13"/>
					<rect x="860.47" y="260.02" class="st3" width="80.09" height="41.13"/>
					<rect x="940.56" y="260.02" class="st3" width="80.09" height="41.13"/>
					<rect x="1020.66" y="260.02" class="st3" width="80.09" height="41.13"/>
				</g>
				<g>
					<rect x="-60.61" y="301.15" class="st3" width="80.09" height="41.13"/>
					<rect x="19.48" y="301.15" class="st3" width="80.09" height="41.13"/>
					<rect x="99.58" y="301.15" class="st3" width="80.09" height="41.13"/>
					<rect x="179.67" y="301.15" class="st3" width="80.09" height="41.13"/>
					<rect x="259.77" y="301.15" class="st3" width="80.09" height="41.13"/>
					<rect x="339.86" y="301.15" class="st3" width="80.09" height="41.13"/>
					<rect x="419.95" y="301.15" class="st3" width="80.09" height="41.13"/>
					<rect x="500.05" y="301.15" class="st3" width="80.09" height="41.13"/>
					<rect x="580.14" y="301.15" class="st3" width="80.09" height="41.13"/>
					<rect x="660.23" y="301.15" class="st3" width="80.09" height="41.13"/>
					<rect x="740.33" y="301.15" class="st3" width="80.09" height="41.13"/>
					<rect x="820.42" y="301.15" class="st3" width="80.09" height="41.13"/>
					<rect x="900.52" y="301.15" class="st3" width="80.09" height="41.13"/>
					<rect x="980.61" y="301.15" class="st3" width="80.09" height="41.13"/>
					<rect x="1060.7" y="301.15" class="st3" width="80.09" height="41.13"/>
				</g>
				<g>
					<rect x="-20.56" y="342.28" class="st3" width="80.09" height="41.13"/>
					<rect x="59.53" y="342.28" class="st3" width="80.09" height="41.13"/>
					<rect x="139.62" y="342.28" class="st3" width="80.09" height="41.13"/>
					<rect x="219.72" y="342.28" class="st3" width="80.09" height="41.13"/>
					<rect x="299.81" y="342.28" class="st3" width="80.09" height="41.13"/>
					<rect x="379.91" y="342.28" class="st3" width="80.09" height="41.13"/>
					<rect x="460" y="342.28" class="st3" width="80.09" height="41.13"/>
					<rect x="540.09" y="342.28" class="st3" width="80.09" height="41.13"/>
					<rect x="620.19" y="342.28" class="st3" width="80.09" height="41.13"/>
					<rect x="700.28" y="342.28" class="st3" width="80.09" height="41.13"/>
					<rect x="780.38" y="342.28" class="st3" width="80.09" height="41.13"/>
					<rect x="860.47" y="342.28" class="st3" width="80.09" height="41.13"/>
					<rect x="940.56" y="342.28" class="st3" width="80.09" height="41.13"/>
					<rect x="1020.66" y="342.28" class="st3" width="80.09" height="41.13"/>
				</g>
				<g>
					<rect x="-60.61" y="383.41" class="st3" width="80.09" height="41.13"/>
					<rect x="19.48" y="383.41" class="st3" width="80.09" height="41.13"/>
					<rect x="99.58" y="383.41" class="st3" width="80.09" height="41.13"/>
					<rect x="179.67" y="383.41" class="st3" width="80.09" height="41.13"/>
					<rect x="259.77" y="383.41" class="st3" width="80.09" height="41.13"/>
					<rect x="339.86" y="383.41" class="st3" width="80.09" height="41.13"/>
					<rect x="419.95" y="383.41" class="st3" width="80.09" height="41.13"/>
					<rect x="500.05" y="383.41" class="st3" width="80.09" height="41.13"/>
					<rect x="580.14" y="383.41" class="st3" width="80.09" height="41.13"/>
					<rect x="660.23" y="383.41" class="st3" width="80.09" height="41.13"/>
					<rect x="740.33" y="383.41" class="st3" width="80.09" height="41.13"/>
					<rect x="820.42" y="383.41" class="st3" width="80.09" height="41.13"/>
					<rect x="900.52" y="383.41" class="st3" width="80.09" height="41.13"/>
					<rect x="980.61" y="383.41" class="st3" width="80.09" height="41.13"/>
					<rect x="1060.7" y="383.41" class="st3" width="80.09" height="41.13"/>
				</g>
				<g>
					<rect x="-20.56" y="424.54" class="st3" width="80.09" height="41.13"/>
					<rect x="59.53" y="424.54" class="st3" width="80.09" height="41.13"/>
					<rect x="139.62" y="424.54" class="st3" width="80.09" height="41.13"/>
					<rect x="219.72" y="424.54" class="st3" width="80.09" height="41.13"/>
					<rect x="299.81" y="424.54" class="st3" width="80.09" height="41.13"/>
					<rect x="379.91" y="424.54" class="st3" width="80.09" height="41.13"/>
					<rect x="460" y="424.54" class="st3" width="80.09" height="41.13"/>
					<rect x="540.09" y="424.54" class="st3" width="80.09" height="41.13"/>
					<rect x="620.19" y="424.54" class="st3" width="80.09" height="41.13"/>
					<rect x="700.28" y="424.54" class="st3" width="80.09" height="41.13"/>
					<rect x="780.38" y="424.54" class="st3" width="80.09" height="41.13"/>
					<rect x="860.47" y="424.54" class="st3" width="80.09" height="41.13"/>
					<rect x="940.56" y="424.54" class="st3" width="80.09" height="41.13"/>
					<rect x="1020.66" y="424.54" class="st3" width="80.09" height="41.13"/>
				</g>
				<g>
					<rect x="-60.61" y="465.67" class="st3" width="80.09" height="41.13"/>
					<rect x="19.48" y="465.67" class="st3" width="80.09" height="41.13"/>
					<rect x="99.58" y="465.67" class="st3" width="80.09" height="41.13"/>
					<rect x="179.67" y="465.67" class="st3" width="80.09" height="41.13"/>
					<rect x="259.77" y="465.67" class="st3" width="80.09" height="41.13"/>
					<rect x="339.86" y="465.67" class="st3" width="80.09" height="41.13"/>
					<rect x="419.95" y="465.67" class="st3" width="80.09" height="41.13"/>
					<rect x="500.05" y="465.67" class="st3" width="80.09" height="41.13"/>
					<rect x="580.14" y="465.67" class="st3" width="80.09" height="41.13"/>
					<rect x="660.23" y="465.67" class="st3" width="80.09" height="41.13"/>
					<rect x="740.33" y="465.67" class="st3" width="80.09" height="41.13"/>
					<rect x="820.42" y="465.67" class="st3" width="80.09" height="41.13"/>
					<rect x="900.52" y="465.67" class="st3" width="80.09" height="41.13"/>
					<rect x="980.61" y="465.67" class="st3" width="80.09" height="41.13"/>
					<rect x="1060.7" y="465.67" class="st3" width="80.09" height="41.13"/>
				</g>
			</g>
		</g>
		<circle class="st4" cx="531.26" cy="400.18" r="287.24"/>
	</g>
	<g>
		<rect x="0.19" y="502.53" class="st5" width="1079.81" height="241.27"/>
		<g class="st6">
			<ellipse class="st7" cx="118.97" cy="596.93" rx="15.12" ry="6.37"/>
			<ellipse class="st7" cx="256.46" cy="626.4" rx="12.24" ry="3.6"/>
			<ellipse class="st7" cx="921.63" cy="626.4" rx="12.24" ry="3.6"/>
			<ellipse class="st7" cx="682.4" cy="706.41" rx="12.24" ry="3.6"/>
			<ellipse class="st7" cx="173.4" cy="719.82" rx="12.24" ry="3.6"/>
			<path class="st7" d="M776.12,517.11c0,1.57-3.37,2.85-7.54,2.85s-7.54-1.27-7.54-2.85c0-1.57,3.37-2.85,7.54-2.85
				S776.12,515.54,776.12,517.11z"/>
			<path class="st7" d="M863.56,548.88c0,3.71-6.55,6.72-14.64,6.72s-14.64-3.01-14.64-6.72s6.55-6.72,14.64-6.72
				S863.56,545.17,863.56,548.88z"/>
			<path class="st7" d="M1025.53,676.9c0,3.71-6.55,6.72-14.64,6.72s-14.64-3.01-14.64-6.72c0-3.71,6.55-6.72,14.64-6.72
				S1025.53,673.19,1025.53,676.9z"/>
			<path class="st7" d="M409.62,696.1c0,4.24-8.62,7.68-19.26,7.68c-10.64,0-19.26-3.44-19.26-7.68c0-4.24,8.62-7.68,19.26-7.68
				C400.99,688.42,409.62,691.85,409.62,696.1z"/>
			<path class="st7" d="M963.86,524.17c0,1.86-3.01,3.36-6.72,3.36c-3.71,0-6.72-1.5-6.72-3.36c0-1.86,3.01-3.36,6.72-3.36
				C960.85,520.81,963.86,522.32,963.86,524.17z"/>
			<path class="st7" d="M1038.97,582.63c0,1.86-3.01,3.36-6.72,3.36c-3.71,0-6.72-1.5-6.72-3.36c0-1.86,3.01-3.36,6.72-3.36
				C1035.96,579.27,1038.97,580.77,1038.97,582.63z"/>
			<ellipse class="st7" cx="57.06" cy="535.06" rx="14.4" ry="6.09"/>
		</g>
	</g>
	<path class="st8" d="M799.72,502.53c-41.23,108.1-145.89,184.88-268.47,184.88S304.03,610.63,262.8,502.53H799.72z"/>
	<g>
		<path class="st9" d="M298.81,549.75c-37.68-5.12-48.59,30.07,2.54,34.94c51.13,4.87,76.69,0.22,88.73-7.38
			c4.89-3.09,5.6-6.55,4.72-9.56c-1.25-4.26,1.63-8.7,5.98-9.59c6.47-1.32,13.92-3.56,17.83-7.26
			C426.42,543.51,324.58,553.25,298.81,549.75z"/>
		<path class="st9" d="M511.32,556.17c-0.85,0.85-48.45,7.05-73.8,8.74c-25.35,1.69-33.52,3.94-33.24,7.61
			c0.28,3.66,25.63,6.04,25.63,6.04s-12.96,6.37-10.7,9.32c2.25,2.95,49.01-8.07,56.62-9.32c7.61-1.25,26.62,6.33,41.19,14.81
			c14.58,8.48,0.21,14.08-5.98,22.25c-6.2,8.17,11.24,12.38,31.96,10.84c20.72-1.54,58.64-35.69,70.81-43.83
			c12.16-8.14,24.03-12.43,41.18-10.69c17.14,1.74,25.23,16.74,35.49,25.12c10.26,8.38,12.06-69.11-25.22-78.68
			C627.98,508.82,511.32,556.17,511.32,556.17z"/>
		<g>
			<g>
				<g>
					<g>
						<path class="st10" d="M507.72,485.74c-1.94,4.51-4.36,9.62-7.01,15.01c-12.9,26.25-31.57,58.82-31.57,58.82
							c-0.17,12.78-13.99,14.62-22.9,17.61c-8.89,3.01-20.87,10.31-25.28,6.36c-4.39-3.97,10.14-11.02,10.14-11.02
							c-9.43,0.79-27.58,0.27-28.55-3.52c-0.98-3.8,1.4-4.77,15.25-6.79c13.83-2.03,26.25-8.28,26.25-8.28l24.36-77.56l0.74-2.38
							C475.41,454.01,519.2,459.22,507.72,485.74z"/>
					</g>
					<g>
						<path class="st11" d="M525.96,454.55l-11.97,23.93v0.02l-5.21,10.41c-31.18,0.79-42.29-12.42-42.29-12.42s1.5-4.8,4.01-12.17
							c7-20.7,21.77-61.69,32.6-73.2l15.13,41.98L525.96,454.55z"/>
						<polygon class="st12" points="525.96,454.55 514.15,480.07 508.08,417.98 518.24,433.1 						"/>
						<path class="st12" d="M514,478.48c-1.05,3.94-2.85,7.72-5.35,11.37c-31.19,0.79-43.24-12.75-43.24-12.75
							s-0.95-7.61,3.06-13.83C473.67,467.26,488.72,475.96,514,478.48z"/>
					</g>
				</g>
				<path class="st11" d="M659.69,487.32c-45.19,1.05-112.31,39.11-112.31,39.11s-18.51-41.49-31.18-75.06
					c-12.69-33.57-13.08-60.25-13.08-60.25s16.11-19.03,44.27-28.68L596,342.22c2.13,7.98,8.28,23.34,15.99,41.21
					c4.07,9.43,8.57,19.55,13.13,29.66C641.97,450.41,659.69,487.32,659.69,487.32z"/>
				<path class="st12" d="M625.86,410.34l-47.22-5.99l33.35-20.92C617.84,391.12,622.84,400.18,625.86,410.34z"/>
				<path class="st13" d="M503.31,395.06c0.62,8.61,0.9,32.54,10.69,58.44"/>
				<g>
					<path class="st10" d="M565.07,373.54c0,0-0.03,2.65-2.23,5.59c-1.59,2.11-4.31,4.39-8.99,5.9c-11.1,3.58-16.65-1.98-16.65-1.98
						s-7.4-28.14-7.54-28.55l14.47,2.74l15.67,2.96L565.07,373.54z"/>
					<path class="st12" d="M565.07,373.54c0,0-0.03,2.65-2.23,5.59c-5.53-1.53-10.57-4.78-15.06-9.93l-3.66-11.96l15.67,2.96
						L565.07,373.54z"/>
					<path class="st10" d="M545.93,368.68c4.3,1.37,8.96,1.84,13.86,0.94c22.02-4.05,5.81-63.43-20.26-62.02
						c-25.22,1.36-23.79,26.96-19.38,37.18c2.06,4.78,6.6,11.32,12.85,16.55"/>
					<path class="st12" d="M558.88,318.68c0,0,15.8-10.2,6.02-22.97c-9.78-12.77-18.5-0.53-23.96,1.94
						c-5.46,2.47-21.76,0.97-26.16,8.37c-4.4,7.4,0.44,17.18-9.25,24.31c-9.69,7.14-9.16,17.8,0.62,24.18
						c9.78,6.39,4.32,15.46,11.98,19.6c7.66,4.14,16.01-2.7,16.01-2.7l-3.12-11.84l-4.34-6.07c0,0,1.67-5.73-3.79-9.16
						c0,0,4.76-3.08,2.03-9.87c-2.73-6.78,1.94-10.31,13.04-8.02s17.26-5.65,17.92-11.33L558.88,318.68z"/>
					<path class="st14" d="M564.57,315.64c3.84-4.07,6.57-11.77,0.33-19.93c-9.78-12.77-18.5-0.53-23.96,1.94
						c-5.46,2.47-21.76,0.97-26.16,8.37c-4.4,7.4,0.44,17.18-9.25,24.31c-9.69,7.14-9.16,17.8,0.62,24.18
						c9.78,6.39,2.51,13.68,11.47,20.27c2.97,2.19,6.2,3.09,10.88,2.66"/>
					<path class="st10" d="M528.61,352.36c0,0-10.66-1.32-9.25,6.96c1.41,8.28,11.8,7.66,17.09,1.94"/>
					<g>
						<line class="st13" x1="526.9" y1="351.76" x2="537.44" y2="341.5"/>
						<path class="st10" d="M551.49,338.4c0,4.07-3.3,7.37-7.37,7.37c-4.07,0-7.37-3.3-7.37-7.37c0-4.07,3.3-7.37,7.37-7.37
							C548.19,331.03,551.49,334.33,551.49,338.4z"/>
						<path class="st10" d="M570.83,330.01c0,4.07-3.3,7.37-7.37,7.37c-4.07,0-7.37-3.3-7.37-7.37c0-4.07,3.3-7.37,7.37-7.37
							C567.53,322.65,570.83,325.95,570.83,330.01z"/>
						<path class="st13" d="M550.25,334.32c0,0,1.79-4.29,6.02-2.71"/>
					</g>
				</g>
				<g>
					<path class="st10" d="M635.87,376.86c-1.27,0.75-2.58,1.49-3.91,2.21c-1.87,1.03-3.81,2.01-5.79,2.96
						c-3.96,1.9-8.14,3.67-12.51,5.25c0,0-21.81-16.6-17.66-45.06c0,0,10.35-3.73,22.9-6.85c3.19-0.79,6.53-1.55,9.88-2.19
						c2.01-0.39,4.01-0.73,5.99-1.01c12.48-1.83,23.94-1.45,27.16,5C667.93,349.18,656.28,364.75,635.87,376.86z"/>
					<g>
						<path class="st11" d="M631.96,379.07c-1.87,1.03-3.81,2.01-5.79,2.96c-3.96,1.9-8.14,3.67-12.51,5.25
							c0,0-23.16-16.04-19.02-44.5c0,0,10.83-6.15,24.25-7.41c3.28-0.31,6.53-1.55,9.88-2.19
							C622.77,347.49,628.26,368.25,631.96,379.07z"/>
						<path class="st13" d="M613.66,387.28c0,0-19.54-14.71-19.35-39.25"/>
						<path class="st12" d="M635.87,376.86c-3.04,1.81-6.29,3.54-9.7,5.17c-14.28-21.12-10.63-38.36-7.27-46.65
							c5.3-2.66,10.1-4.15,15.88-3.2C624.07,350.43,631.89,369.37,635.87,376.86z"/>
					</g>
				</g>
				<g>
					<path class="st10" d="M659.69,334.46c10.1,7.77,16.22,20.06-7.79,42.65c-23.14,21.78-71.49,31.45-71.49,31.45
						s-8.92,10.92-19.77,19.67c-2.52,2.03-5.14,3.94-7.77,5.56c-3.26,2.01-6.14,3.62-8.64,4.92c-4.6,2.35-7.93,3.58-9.96,4.23
						c-1.35,0.42-2.81-0.24-3.36-1.54c-0.15-0.37-0.24-0.74-0.24-1.12c0-0.88,0.41-1.72,1.15-2.25l13.28-9.58
						c-1.03,0.61-9.55,5.59-17.07,9.06c-1.86,0.86-4.04-0.03-4.77-1.94c-0.15-0.41-0.24-0.83-0.24-1.25c0-1.2,0.63-2.37,1.71-3.03
						l15.18-9.13l-13.27,5.65c-1.86,0.79-3.99-0.22-4.55-2.18c-0.08-0.3-0.12-0.59-0.12-0.9c0-1.17,0.61-2.26,1.64-2.87
						c3.67-2.15,10.99-6.39,15.23-8.38c-0.73,0.27-6.64,2.59-11.29,4.68c-1.93,0.85-4.12-0.39-4.39-2.47
						c-0.02-0.12-0.02-0.25-0.02-0.37c0-1.01,0.47-1.98,1.32-2.59c3.18-2.21,10.7-7.15,17.76-9.33c0,0,10.31-11.61,23.92-17.17
						c0,0,38.94-36.05,68.18-49.06"/>
					<path class="st13" d="M655.03,332.22c0,0,5.41,1.53,9.67,7.02"/>
					<path class="st12" d="M560.63,428.24c-2.52,2.03-5.14,3.94-7.77,5.56c-3.26,2.01-6.14,3.62-8.64,4.92
						c6.55-7.69,5.36-23.25,14.11-28.9L560.63,428.24z"/>
					<path class="st13" d="M543.02,408.16c0,0,1.77,12.96,8.97,21.62"/>
					<path class="st10" d="M559.7,407.6c0,0-7.05,8.9-1.85,19.2c0,0-5.32,12.07-1.91,17.97c3.41,5.9,4.64,1.15,7.9-6.17
						c3.26-7.31,15.5-19.71,16.56-30.81"/>
					<path class="st13" d="M551.27,408.63c0,0,3.53,0.53,8.44-1.04"/>
				</g>
				<g>
					<path class="st15" d="M547.34,518.77c0,0,23.25,42.73,34.06,49.6c10.81,6.87,36.19,0.53,47.11-7.93c0,0,27.33-5.98,36.75-15.41
						c9.41-9.43-4.24-50.7-8.91-62.64C651.68,470.45,569.24,489.08,547.34,518.77z"/>
					<g>
						<path class="st15" d="M595.73,494.46c0,0,15.67,22.58,29.18,56.54"/>
						<path class="st15" d="M605.97,489.88c0,0,10.89,15,15.94,28.8c1.7,4.65,1.05,9.84-1.77,13.92l-1.92,2.76"/>
					</g>
				</g>
				<path class="st15" d="M725.94,469.36c-7.81,23.81-17.54,54.37-40.8,73.34c-8.57,7-18.98,12.41-31.81,15.35
					c-7.44,1.69-15.67,2.55-24.83,2.4l-0.52-51.62c0,0,28.9-91.62,64.48-97.62C728.05,405.22,738.28,431.65,725.94,469.36z"/>
				<path class="st16" d="M630.54,479.97c-1.6,8.17-2.2,17.27-2.43,23.02c-0.04,1.1,1.49,1.41,1.88,0.38
					c2.06-5.48,5.55-14.52,9.72-24.46C636.9,479.11,633.82,479.46,630.54,479.97z"/>
				<path class="st15" d="M628.5,560.44c-5.95,5.1-13.66,9.48-22.53,12.66c-9.09,3.24-19.42,5.24-30.39,5.46
					c-15.35,0.3-31.91-2.86-48.03-10.9c-38.87-19.37-70.83-61.84-31.32-72.14c39.52-10.31,97.39,25.62,97.39,25.62L628.5,560.44z"/>
				<path class="st13" d="M613.8,543.89L613.8,543.89c-18.47-20.8-42.15-36.46-68.75-44.59c-2.47-0.76-4.98-1.46-7.51-2.1"/>
				<g>
					<g>
						<path class="st15" d="M581.4,569.41c-17.56,32.43-49.8,32.43-49.8,32.43s-3.53-3.34-8.88-8.67v-0.01
							c-16.41-16.39-49.88-51.58-50.67-66.73c-1.06-20.09,16.91-35.59,37.58-25.72c15.46,7.37,47.89,42.09,63.3,59.16
							C578.13,565.66,581.4,569.41,581.4,569.41z"/>
						<path class="st13" d="M509.63,500.72c15.46,7.37,47.89,42.09,63.3,59.16c5.2,5.78,8.47,9.54,8.47,9.54"/>
						<path class="st13" d="M527.89,584.67c13.56-18.92,32.76-23.78,45.05-24.8"/>
					</g>
					<g>
						<path class="st12" d="M595.08,593.04c0.36,8.17-18.94,23.08-38.17,29.71h-0.01c-1.62,0.55-3.23,1.05-4.83,1.48
							c-12.19,3.27-19.49,4.48-23.7,3.23c-2.93-0.86-4.37-2.91-4.92-6.28c-0.1-0.61-0.12-1.3-0.06-2.03
							c0.54-7.2,7.89-19.49,10.86-24.2c0.76-1.21,1.24-1.91,1.24-1.91c18.1-26.3,43.74-24.19,43.74-24.19s9.74,9.65,13.94,18.07
							c0.93,1.84,1.59,3.63,1.82,5.23C595.04,592.44,595.07,592.75,595.08,593.04z"/>
						<path class="st10" d="M556.91,622.74h-0.01c-1.62,0.55-3.23,1.05-4.83,1.48c-12.19,3.27-19.49,4.48-23.7,3.23
							c-2.93-0.86-4.37-2.91-4.92-6.28c-0.1-0.61-0.12-1.3-0.06-2.03c0.54-7.2,7.89-19.49,10.86-24.2c5-0.7,12.86-0.17,20.71,6.89
							C561.82,608.03,561.1,616.3,556.91,622.74z"/>
						<path class="st10" d="M595.08,593.04c0.39,8.86-22.34,25.64-43.02,31.19c-12.19,3.27-19.49,4.48-23.7,3.23
							c-2.93-0.86-4.37-2.91-4.92-6.28c-0.1-0.61-0.12-1.3-0.06-2.03c1.33-4.74,5.81-11.08,17.82-18.27
							c21.59-12.93,41.76-20.1,51.96-13.96c0.93,1.84,1.59,3.63,1.82,5.23C595.04,592.44,595.07,592.75,595.08,593.04z"/>
						<path class="st10" d="M595.08,593.04c0.39,8.86-22.34,25.64-43.02,31.19c-12.19,3.27-19.49,4.48-23.7,3.23
							c-8.54-7.05,15.13-25.1,35.57-33.28c16.49-6.6,27.23-6.04,31.05-2.03C595.04,592.44,595.07,592.75,595.08,593.04z"/>
						<g>
							<line class="st10" x1="537.2" y1="626.2" x2="540.5" y2="609.95"/>
							<line class="st10" x1="552.65" y1="603.41" x2="548.76" y2="622.57"/>
							<line class="st10" x1="564.76" y1="597.07" x2="560.32" y2="618.93"/>
							<line class="st10" x1="576.08" y1="593.37" x2="572.1" y2="612.91"/>
							<line class="st10" x1="587.09" y1="591.44" x2="583.89" y2="607.17"/>
						</g>
					</g>
				</g>
				<g>
					<g>
						<path class="st12" d="M752.16,607.86c-0.07,1.1-0.27,2.07-0.62,2.89c-3.22,7.39-20.86,9.94-41.46-0.02
							c-2.23-1.08-4.49-2.29-6.78-3.68c-23.39-14.13-27.93-28.01-27.93-28.01c0.03-1.8,0.12-3.51,0.24-5.12
							c0.62-8.22,2.23-13.65,2.23-13.65c5.86-26.03,48.18-11.76,57.03,3.04c4.4,7.35,9.42,17.07,12.91,26.01
							C750.64,596.59,752.49,603.34,752.16,607.86z"/>
						<path class="st10" d="M709.1,565.2c0,0,11.91,14.49,16.54,29.42c4.63,14.93,21.59,8.43,19.82-3.17
							c-1.77-11.6-15.99-30.66-15.99-30.66L709.1,565.2z"/>
						<path class="st10" d="M752.16,607.86c-0.07,1.1-0.27,2.07-0.62,2.89c-3.22,7.39-20.86,9.94-41.46-0.02
							c0.8-2.27,1.42-3.94,1.42-3.94s9.78-25.06,36.29-17.46C750.64,596.59,752.49,603.34,752.16,607.86z"/>
						<path class="st10" d="M752.16,607.86c-0.07,1.1-0.27,2.07-0.62,2.89c-3.57,8.19-24.84,10.43-48.24-3.7
							c-23.39-14.13-27.93-28.01-27.93-28.01c0.03-1.8,0.12-3.51,0.24-5.12c3.62,7.05,13.35,20.96,36.94,31.23
							C729.92,612.7,743.35,611.08,752.16,607.86z"/>
					</g>
					<g>
						<path class="st15" d="M741.76,545.75c-0.38,9.61-0.67,15.8-0.67,15.8c-39.11,17.68-66.34,0-66.34,0s0.27-6.14,0.91-15.94
							c2.54-38.68,10.84-134.44,31.07-135.25c11.74-0.48,32.77,8.25,35.68,34.41C744.56,464.1,742.82,518.58,741.76,545.75z"/>
						<path class="st13" d="M696.27,420.42c-12.77,25.72-18.56,94.01-20.61,125.19c-0.63,9.8-0.91,15.94-0.91,15.94
							s24.11,15.66,59.56,2.76l5.63-2.25"/>
						<path class="st13" d="M675.67,545.61c9.16,2.64,34.92,8.99,58.43,2.7"/>
					</g>
				</g>
			</g>
			<g>
				<path class="st17" d="M352.06,460.54c0,0-26.25,21.5-44.05,30.83c-17.8,9.34-28.54,26.94-15.68,44.74l7.75-5.98
					c0,0-8.41-17.84,3.48-26.56c11.89-8.72,32.77-17.71,41.1-24.18C352.99,472.92,352.06,460.54,352.06,460.54z"/>
				<path class="st17" d="M379.81,444.42c0-0.26,5.37-11.19,8.02-12.51c2.64-1.32,24.14,2.91,26.78,5.2
					c2.64,2.29-7.49,16.8-7.49,16.8l-4.77-2.17c0,0,4.6-9.16,5.12-11.19c0.53-2.03-14.36-4.23-16.12-4.05
					c-1.76,0.18-5.73,9.07-5.73,9.07L379.81,444.42z"/>
				<path class="st17" d="M413.38,464.32c0,0,7.27,20.62,17.44,35.56c10.17,14.93-10.84,55.9-46.78,58.01l4.1-15.86
					c0,0,25.77-4.89,32.77-27.49c3.98-12.85-10.12-19.16-12.2-32.24C406.64,469.22,413.38,464.32,413.38,464.32z"/>
				<path class="st17" d="M396.81,539.47c-4.63,18.32-14.73,31.77-30.35,38.44c-9.92,4.24-22.05,5.74-36.42,4.03
					c-37-4.41-56.92-17.44-45.82-39.29c11.1-21.84,25.2-27.66,38.77-46.16c13.56-18.5,32.89-59.74,69.24-53.42
					c9.3,1.62,15.23,5.48,18.74,10.84C424.21,474.13,402.81,515.79,396.81,539.47z"/>
				<path class="st10" d="M396.81,539.47c-4.63,18.32-14.73,31.77-30.35,38.44c-10.71,2.49-19.81,1.71-22.33-6.62
					c-7.14-23.61,17.44-46.97,31.59-65.93c13.14-17.64,17.5-42.53,35.26-51.45C424.21,474.13,402.81,515.79,396.81,539.47z"/>
				<path class="st17" d="M388.93,441.07c-30.34-2.3-65.76,41.04-68.85,51.93s9.91,16.78,35.68,16.65
					c25.77-0.13,39.64-18.21,48.36-33.02C412.85,461.82,418.53,443.32,388.93,441.07z"/>
				<path class="st10" d="M357.35,484.41c-5.9-0.84-5.15,5.81-0.93,5.95C360.65,490.49,360.12,484.81,357.35,484.41z"/>
			</g>
		</g>
	</g>
	<g>
		<defs>
			<rect id="SVGID_00000167360805599153684060000006555485401654911622_" x="0.19" y="23.92" width="1079.81" height="719.88"/>
		</defs>
		<clipPath id="SVGID_00000047747950242255812300000007499885681644095930_">
			<use xlink:href="#SVGID_00000167360805599153684060000006555485401654911622_"  style="overflow:visible;"/>
		</clipPath>
		<g style="clip-path:url(#SVGID_00000047747950242255812300000007499885681644095930_);">
			<path class="st8" d="M-104.1,776.62l214.97-245.99l23.93-51.01c0,0,68.18-58.08,71.28-64.84c3.11-6.75,8.73-92.98,7.58-96.36
				c-1.15-3.38-22.37-25.21-23.12-29.49c-0.75-4.28,37.44-69.11,10.38-68.89c-27.06,0.23-46.3,63.71-58.49,73.17
				c-12.18,9.46-48.13,33.54-55.1,41.65c-6.97,8.1-63.24,68.66-65.4,76.32c-2.15,7.65-5.3,65.9-5.3,65.9l-32.72,53.37L-283.9,776.62
				h79.55l155.79-130.4l-126.67,130.4H-104.1z"/>
			<path class="st8" d="M902.74,266.1c-24.04,4.9-11.11,30.92,3.6,57.93c14.71,27.02-2.67,60.03-8.54,79.25
				c-5.87,19.21,28.65,108.66,35.25,123.07c6.6,14.41,44.13,27.02,44.13,27.02l10.21,22.03l170.75,246.83h87.05l-135.03-192.09
				l156.04,192.09h87.65l-222.68-246.83l-23.1-38.62c0,0,21.29-34.44,15.59-53.95c-5.7-19.51-67.54-108.06-84.95-122.17
				c-17.41-14.11-63.34-18.91-75.34-32.42C951.37,314.73,935.16,259.49,902.74,266.1z"/>
			<path class="st19" d="M969.17,74.56c-22.34,5.36-9.39,29.3,5.25,54.1c14.64,24.81-0.54,56.27-5.42,74.44
				c-4.87,18.17,30.34,100.76,36.99,114.03c6.65,13.27,42.17,23.85,42.17,23.85l10.27,20.28l169.67,229.31l81.47-2.83
				l-134.46-179.24l154.13,178.56l82.03-2.85L1193,356.61l-22.87-35.39c0,0,18.81-32.92,12.84-50.99
				c-5.97-18.07-66.72-98.94-83.47-111.58c-16.75-12.64-59.89-15.64-71.57-27.89S999.3,67.33,969.17,74.56z"/>
			<path class="st19" d="M99.37,85.95c22.52,4.59,10.4,28.95-3.37,54.25c-13.77,25.3,2.5,56.22,7.99,74.21
				c5.5,17.99-26.83,101.76-33.01,115.25c-6.18,13.49-41.32,25.3-41.32,25.3l-9.56,20.63l-161.61,235.05h-81.52l128.16-183.8
				l-147.84,183.8h-82.08l210.24-235.05l21.63-36.17c0,0-19.94-32.25-14.6-50.52c5.34-18.27,63.25-101.19,79.55-114.41
				c16.3-13.21,59.31-17.71,70.55-30.36C53.83,131.48,69.01,79.76,99.37,85.95z"/>
			<path class="st20" d="M108.28,776.62l206.63-295.2l36.25-111.96c0,0,56.96-58.08,58.76-64.84c1.8-6.75-9.23-92.98-11.03-96.36
				c-1.8-3.38-27.24-25.21-28.82-29.49c-1.58-4.28,24.09-69.11-2.93-68.89c-27.02,0.23-33.99,63.71-44.35,73.17
				c-10.36,9.46-41.65,33.54-47.05,41.65s-49.98,68.66-50.65,76.32c-0.68,7.65,7.43,65.9,7.43,65.9l-44.58,114.32L-83.05,776.62
				H-3.5l203.46-240.57L28.79,776.62H108.28z"/>
			<path class="st20" d="M1042.55,749.37L869.1,502.54l-17.07-62.47c12.82-21.93,43.32-75.59,44.39-91.6
				c1.35-20.3-89.15-86.04-101.76-89.64c-12.61-3.6-60.33-7.2-63.94-12.16c-3.6-4.95-16.66-61.69-50.43-57.63
				c-20.49,2.46-6.91,28.21,0,47.43c6.91,19.21,6.91,31.82-8.71,35.71c-15.61,3.91-33.62-1.8-38.12-5.7
				c-4.5-3.9-30.01-59.14-48.02-75.94c-18.01-16.81-34.53-24.92-38.43-21.02c-3.9,3.91,9.3,17.42,9.3,17.42s-11.1,10.5-8.1,21.91
				c3.01,11.41,13.81,10.2,17.11,18.01c3.3,7.81,29.92,65.51,45.2,75.19c15.29,9.68,55.59,15.76,64.59,24.99
				c9.01,9.23,67.31,175.49,67.31,175.49l132.03,246.82h68.44L849.29,577l118.82,172.37H1042.55z M846.43,357.03
				c3.46,3.17-3.45,16.67-9.67,27.2l-11.49-42.03C825.27,342.19,840.58,351.66,846.43,357.03z"/>
		</g>
	</g>
</g>
</svg>
