<?xml version="1.0" encoding="utf-8"?>
<!-- Generator: Adobe Illustrator 25.4.1, SVG Export Plug-In . SVG Version: 6.00 Build 0)  -->
<svg version="1.1" id="Capa_1" xmlns="http://www.w3.org/2000/svg" xmlns:xlink="http://www.w3.org/1999/xlink" x="0px" y="0px"
	 viewBox="0 0 684.5 443.1" style="enable-background:new 0 0 684.5 443.1;" xml:space="preserve">
<style type="text/css">
	.st0{fill:#2955CF;}
	.st1{fill:#024BAB;}
	.st2{fill:#D6A8CA;}
	.st3{fill:#CE4536;}
	.st4{fill:#B5332C;}
	.st5{fill:#D7E36A;}
	.st6{fill:#E35B43;}
	.st7{fill:#E86666;}
	.st8{fill:none;}
	.st9{font-family:'Montserrat-Bold';}
	.st10{font-size:49.3612px;}
	.st11{letter-spacing:-1;}
	.st12{fill:#5E96D3;}
	.st13{fill:#CE5959;}
	.st14{fill:#B24242;}
	.st15{fill:#ED7979;}
	.st16{font-size:37.5144px;}
</style>
<g>
	<g>
		<path class="st0" d="M316,304c0.8-4,1.3-8,1.5-12c0.6-9.9-0.1-28.1-8.8-35.1c-4.2-3.3-11.8-4.9-16.7-6.9
			c-7.1-2.8-14.4-5.3-21.7-7.5c-14.8-4.4-29.9-7.6-45.2-10.2c-2.2-0.4-4.5-0.7-6.7-1.1c-29-4.6-58.4-2.1-87.6-2.3
			c-25.7-0.1-51.8,3.3-76.3,11.3c-16.1,5.2-23.4,16.7-30.7,31.5C-1.7,322.9,3.4,383.4,3.4,438.9c0,0.3,0,3.9,0,3.9
			c0,0,236.4,0,236.4,0c0.5-8.3-1.3-36.7-1.5-40.1c-0.4-8.8-1.1-17.7-1.6-26.5c-0.5-7.7,0.4-17.1-1.5-24.6c0.4,1.7,8.7,3,10.3,3.4
			c23.7,4.6,51.1-6.7,62.6-28.3C311.8,319.6,314.4,311.9,316,304z"/>
		<path class="st1" d="M25.4,355.6c1.3-21.7,5.6-43.7,8.1-65.4c-0.2,0-0.3,0-0.5,0c-1.7,4.9-3.3,11.2-4.7,16.2
			c-1.6,5.8-3,11.6-4.3,17.5c-7.3,33.2-11.3,68.7-10.8,102.8c0.1,5.4,0.3,10.8,0.7,16.2c0,0,10.8,0,10.8,0c-0.4-9.2-1.5-19-1.2-28.1
			C24.3,394.7,24.2,375.5,25.4,355.6z"/>
		<path class="st1" d="M311.6,259.5c-2.5-2.6-6-3.8-9.7-5.5c5.3,10.7,8.5,22.5,7.7,34.6c-1.9,29.3-29.6,51.7-58.3,51
			c-29.6-0.7-55.7-22.6-70.4-47c-1,11.6-2.1,23.1-3.1,34.7c-3.2,38.5-5,77.2-0.4,115.6h62.6c0.5-8.3-1.3-36.7-1.5-40.1
			c-0.4-8.8-1.1-17.7-1.6-26.5c-0.4-7.2-1.2-14.9,0-22c0.3-0.7,10.8,0.8,11.8,1c6.1,0.8,12.3,0.4,18.3-0.7
			c12.2-2.3,24.6-8,33.5-16.6c15.5-15.1,20.1-41.7,16.2-62.3c-0.8-4.2-1.2-8.7-3-12.7C313.2,261.5,312.5,260.4,311.6,259.5z"/>
		<path class="st2" d="M131,228.9c-17.8-0.1-35.7,1.5-53.2,5.2c-3.4,19.9-8.5,39.4-13.2,59c-5,20.9-9.4,42.1-10.7,63.7
			c-1.2,19.7-1,39.7-0.1,59.4c0.4,8.8,1,17.8,1.7,26.7H147c-1.1-16.7-1.4-33.4-1.4-50.2c0-20.2-0.3-40.4,1.5-60.5
			c1.8-19.8,5.5-39.4,11.6-58.4c5.1-15.7,11.8-30.8,19.4-45.5C162.5,228.3,146.7,229,131,228.9z"/>
		<path class="st2" d="M95.1,282c0.1,21,2.2,41.6,6.3,62.2c3.7,18.6,8.3,37,14.2,55.1c4.8,14.8,10.5,29.4,17.1,43.5H147
			c-1.1-16.7-1.4-33.4-1.4-50.2c0-20.2-0.3-40.4,1.5-60.5c1.8-19.8,5.5-39.4,11.6-58.4c5.1-15.7,11.8-30.8,19.4-45.5
			c-15.7-0.1-31.5,0.6-47.2,0.5c-11.5-0.1-23.1,0.6-34.6,2.1C95.8,248,95,265,95.1,282z"/>
	</g>
	<path class="st3" d="M235.1,268.3c-25.8,19.1,2.9,58.8,28.2,59.9c17.2,0.8,37.6-3.2,47.5-18.7c8.2-12.9,11.8-29.9-3.8-39.4
		c-5.7-3.5-12.7-3.2-18.8-5.7c-5.8-2.3-9.7-4.3-16.4-4.7C259.7,259.2,245,261,235.1,268.3z"/>
	<path class="st4" d="M246.5,291.3c7.4,16.5,22.8,28.2,39.2,34.9c10.1-2.6,19.4-7.7,25.1-16.7c8.2-12.9,11.8-29.9-3.8-39.4
		c-5.7-3.5-12.7-3.2-18.8-5.7c-5.8-2.3-9.7-4.3-16.4-4.7c-9.4-0.5-20.3,0.5-29.4,4.4C241.3,273.4,242.6,282.7,246.5,291.3z"/>
	<g>
		<path class="st3" d="M84.4,231.3c2.2,38.6,59.4,23.3,57.1-8.1c-13.7-3.4-32.3-0.5-46.1,1.3c-7,0.9-11.3,2.9-10.3,11.5"/>
		<path class="st4" d="M102.7,231.2c2.3,3.8,5.1,7.2,8.2,10.4c3.7,3.9,8,6.8,12.5,9c10.6-5,19.1-14.9,18.2-27.4
			c-12.4-3-28.7-1-42,0.8C100.1,226.6,101.5,229.2,102.7,231.2z"/>
		<path d="M32.2,308.3c0.1-0.7-0.3-1.3-1-1.4c-0.7-0.1-1.3,0.3-1.4,1v0c-5.4,33.5-7.4,67.2-7.4,100.9c0,11.3,0.2,22.6,0.7,33.9h2.5
			c0,0,0,0,0,0c-0.4-11.3-0.7-22.6-0.7-33.9C24.8,375.2,26.8,341.6,32.2,308.3z"/>
		<g>
			<path d="M191,320.2c4.6,12.3,13.5,21.6,24.5,27.8c11,6.2,24.1,9.3,37,9.3c18.3,0,36.4-6.1,48.4-18.8c11.4-12.1,17.9-29.7,18-46.9
				c0-7.3-1.2-14.4-3.7-21c-0.2-0.6-1-1-1.6-0.7c-0.6,0.2-1,1-0.7,1.6c2.4,6.3,3.5,13.2,3.5,20.2c0,16.5-6.4,33.6-17.3,45.2
				c-11.4,12-28.9,18-46.6,18c-12.6,0-25.3-3-35.8-9c-10.6-5.9-19.1-14.8-23.4-26.5c-0.2-0.6-0.9-1-1.6-0.7
				C191.1,318.9,190.8,319.6,191,320.2L191,320.2z"/>
		</g>
		<g>
			<path d="M82.8,232.8c0,0.5-0.1,0.9-0.1,1.4c0,4,1.6,7.8,3.9,11c2.4,3.2,5.5,5.8,8.9,7.6h0c3.7,2,8.1,2.9,12.4,2.9
				c7,0,14.1-2.4,18.9-7.4c0.5-0.5,0.5-1.3,0-1.7c-0.5-0.5-1.3-0.5-1.7,0c-4.2,4.4-10.7,6.6-17.1,6.6c-4,0-8-0.9-11.3-2.6h0
				c-3-1.6-5.9-4-8-6.9c-2.1-2.9-3.4-6.2-3.4-9.6c0-0.4,0-0.8,0.1-1.2c0.1-0.7-0.4-1.3-1.1-1.3C83.4,231.6,82.8,232.1,82.8,232.8
				L82.8,232.8z"/>
		</g>
	</g>
	<g>
		<path class="st5" d="M57.5,167.8c-3-5.5-2.3-13.6-6.3-18.3c-3.1-3.7-8.9-4.2-13.3-5.3c-6.7-1.8-16.7-5.5-21.2-11.2
			c-7.1-9-6-22-5.7-32.7c0.2-6.9-3.7-23,3-27.8c1.3-0.9,3.7-0.4,5.2-0.5c1.1-9.6-2.4-18.9,0.4-28.3c2.5-8.6,5.6-16.1,12-22.7
			C49.7,2.3,83.9,5.5,107.9,5.5c24.1,0,51.6-2.5,73.1,10.8c28.6,17.7,20.6,59.1,20.6,88.1c0,19.2,4.2,47.5-4.8,65.2
			c-8.3,16.5-30.5,19.2-47,21.3c-15.4,2-30.6,1.6-46.1,0.2C82.2,189.2,68.3,187.5,57.5,167.8z"/>
		<path class="st5" d="M23.9,54.6c0-0.5,0.8-0.5,0.9-0.1c9,21.6,33.3,27.1,54.3,29c8.9,0.8,17.9,1.2,26.9,1.6
			c14.6,0.5,38,1.3,43.3-16.1c2.7-8.7,0.8-18.7,0.7-27.7c-0.1-8.7-1.2-17.9-7.8-24.3c-9.9-9.7-29.7-8.4-42.7-9.3
			c-14.4-1-28.7-0.4-43,1.8c-3.2,0.5-6.3,1-9.5,1.5c-5.8,2.3-11.1,5.5-15.5,10.1C25.2,27.7,21,36.6,19.3,45.6
			c-0.6,3,0,26.4-0.1,26.4c-1.5,0.1-4-0.4-5.2,0.5c-6.7,4.7-2.8,20.9-3,27.8C10.7,111,9.6,124,16.7,133c2.6,3.3,7,5.9,11.6,7.9
			C22.3,112.6,23.3,83.4,23.9,54.6z"/>
		<path class="st6" d="M33,127.2c0.1,2.6,0.1,5.2,0.1,7.9c0,13.4,0,26.8,0,40.1c0.3,10.7,0.8,22.2,5.1,32.2
			c3.7,8.6,10.1,15.1,18.5,19.2c15.9,7.7,34.4,6.5,51.6,5.6c15.7-0.8,33.1,1.3,47.8-5.4c7.1-3.2,12.9-8.8,14-16.9
			c1.6-12.5,3.9-29.1,1.2-41.5c20.2,0.5,23.3-19.6,22.5-35.3c-8.4-0.1-16,3.5-22.8-2.4c-5.8-5.2-5.9-12.2-6.2-19.5
			C164,91,145.2,93.8,129.6,94.3c-21.6,0.6-43.3,2.1-64.7-1.8c-5-0.9-10-1.1-15-2c-6.7-1.3-13.6-3.5-19.4-7.2
			C31.2,97.9,32.7,112.6,33,127.2z"/>
		<path class="st7" d="M66.2,224.2c-10.2-6.7-17-16.8-20-28.5c-2.4-9.3-3.2-19-3.8-28.6c-0.6-9.5-1.2-18.9-1.3-28.5
			c0-0.2,0-0.3,0-0.5c0-7.4,0-14.9,0-22.3c0-5.1,0-10.2,0-15.2c0-2.1,0-4.3,0-6.4c0-1.8,0.7-4.3,0.5-5.8c-1.3-0.1-2.4-0.6-3.7-1.1
			c-2.4-1.1-6.4-2.2-8-4.3c0.2,7.2,1.5,14.6,2,21.8c0.5,7.5,0.9,15,1.1,22.6c0.1,2.6,0.1,5.2,0.1,7.9v40.1
			c0.3,10.7,0.8,22.2,5.1,32.2c3.7,8.6,10.1,15.1,18.5,19.2c9.3,4.5,19.5,5.9,29.7,6.2C79.3,230.9,72.4,228.2,66.2,224.2z"/>
		<g>
			<path class="st3" d="M193.7,133.1c-8.4-0.1-16,3.5-22.8-2.4c-5.8-5.2-5.9-12.2-6.2-19.5C164,91,145.2,93.8,129.6,94.3
				c-17.9,0.5-35.8,1.6-53.6-0.2c5.3,3.2,10.9,6,16.6,8.3c14.2,5.8,30.5,9.4,45.7,5.3c0.3-0.1,0.6,0,0.7,0.4
				c1.1,18.5,1.4,37,0.7,55.4c-0.3,8-1,15.9-1.5,23.9c-0.3,5.5-1,11.1-2.4,16.5c-2.6,9.9-8.1,19.3-17.9,23.3
				c-5.7,2.3-12.2,3-18.3,3.5c-6.9,0.6-13.8,0.6-20.7,0.2c-5.3-0.3-10.7-0.9-16-1.7c14.4,4.9,30.5,3.9,45.5,3.1
				c15.7-0.8,33.1,1.3,47.8-5.4c7.1-3.2,12.9-8.8,14-16.9c1.6-12.5,3.9-29.1,1.2-41.5C191.4,168.9,194.5,148.9,193.7,133.1z"/>
		</g>
		<g>
			<path class="st1" d="M65.9,142.6c0.2-0.2,0.7-0.5,1.2-0.8c0.8-0.4,1.9-0.8,3.1-1.1c1.2-0.3,2.5-0.4,3.7-0.4
				c1.5,0,2.8,0.2,3.7,0.6c0.5,0.2,0.8,0.4,1.1,0.7c0.3,0.2,0.4,0.5,0.5,0.8c0.4,1,1.5,1.5,2.5,1.1c1-0.4,1.5-1.5,1.1-2.5
				c-0.3-0.9-0.9-1.7-1.5-2.3c-1-0.9-2.2-1.5-3.5-1.8c-1.3-0.3-2.6-0.5-4-0.5c-2,0-4.1,0.3-6,0.9c-0.9,0.3-1.8,0.6-2.6,1
				c-0.8,0.4-1.5,0.9-2.1,1.5c-0.8,0.7-0.8,2,0,2.7C63.9,143.3,65.1,143.3,65.9,142.6L65.9,142.6z"/>
			<path class="st1" d="M81.1,122l-1.9,0c0,2.6-0.2,6.4-0.2,10.4c0,4,0.2,8.3,1.1,12.2c0.4,1.9,1.1,3.8,1.9,5.4
				c0.9,1.6,2.1,3.1,3.6,4.2h0c3.3,2.2,7,3.6,10.8,4.3c3.8,0.8,7.6,1,11.3,1c0.2,0,0.4,0,0.6,0h0c3.3,0,7.3,0,11.2-0.4
				c4-0.5,8-1.4,11.2-3.6c1.4-0.9,2.4-2.1,3.3-3.4c1.2-1.9,1.9-4.1,2.4-6.2c0.4-2.1,0.6-4.3,0.6-6.2c0.1-2.4,0.4-5.9,0.4-9.3
				c0-1.5-0.1-3-0.3-4.4c-0.2-1.4-0.5-2.8-1.1-4c-0.3-0.8-0.8-1.4-1.3-1.9c-0.8-0.8-1.8-1.2-2.8-1.4c-0.9-0.2-1.8-0.2-2.7-0.2
				c-0.4,0-0.9,0-1.3,0c-0.2,0-0.4,0-0.6,0h0c-6.1-0.1-12.2-0.2-18.2-0.3h0c-0.4,0-1.7,0-3.5-0.1c-1.8,0-4.1-0.1-6.6-0.1
				c-4,0-8.5,0.1-12.1,0.4c-1.8,0.1-3.3,0.3-4.6,0.6c-0.6,0.2-1.2,0.3-1.7,0.6c-0.3,0.2-0.6,0.4-0.9,0.7c-0.3,0.3-0.6,0.9-0.6,1.5
				l0,0L81.1,122l1.9,0l-1.5,0l1.1,0.9c0.1-0.2,0.3-0.5,0.3-0.9l-1.5,0l1.1,0.9l-0.6-0.5l0.4,0.7c0,0,0.1,0,0.2-0.2l-0.6-0.5
				l0.4,0.7c0,0,0.2-0.1,0.5-0.2c0.6-0.2,1.5-0.3,2.7-0.4c3.5-0.4,8.7-0.5,13.3-0.5h0c2.5,0,4.8,0,6.5,0.1c1.8,0,3,0.1,3.5,0.1h0
				c6.1,0,12.1,0.1,18.2,0.3h0c0.2,0,0.5,0,0.7,0c0.5,0,0.9,0,1.3,0c1,0,1.8,0.1,2.2,0.2c0.2,0.1,0.4,0.2,0.5,0.3
				c0.2,0.2,0.3,0.4,0.5,0.8l0,0c0.3,0.7,0.6,1.7,0.8,2.9c0.2,1.2,0.2,2.5,0.2,3.9c0,3.2-0.3,6.5-0.4,9.1c-0.1,2.4-0.3,5.1-1,7.4
				c-0.3,1.2-0.8,2.2-1.4,3.1c-0.6,0.9-1.3,1.7-2.2,2.3c-2.4,1.6-5.8,2.5-9.5,2.9c-3.7,0.4-7.5,0.4-10.8,0.4h0c-0.2,0-0.4,0-0.6,0
				c-3.5,0-7.1-0.2-10.5-0.9c-3.4-0.7-6.6-1.9-9.3-3.7l0,0c-0.9-0.6-1.7-1.6-2.4-2.8c-1-1.8-1.7-4.3-2.1-7.1
				c-0.4-2.8-0.5-5.8-0.5-8.7c0-4,0.2-7.7,0.2-10.4L81.1,122l1.9,0L81.1,122z"/>
			<path class="st1" d="M20.4,121.5l-1.8,0c-0.1,3.1-0.4,7.9-0.4,12.9c0,3.7,0.2,7.4,0.9,10.8c0.3,1.7,0.8,3.3,1.5,4.7
				c0.7,1.4,1.5,2.7,2.7,3.7c2.7,2.4,5.9,3.8,9.1,4.7c3.2,0.8,6.5,1.1,9.6,1.1c1.1,0,2.3,0,3.6,0c2.5,0,5.2-0.1,7.8-0.6
				c2.6-0.5,5.2-1.4,7.4-3.1c1.2-0.9,2.1-2,2.7-3.3c1-1.9,1.7-4,2-6.1c0.4-2.1,0.6-4.2,0.6-6.1c0.1-2.7,0.6-6.6,0.6-10.4
				c0-2.6-0.2-5-0.9-7.1c-0.3-0.9-0.8-1.7-1.4-2.3c-0.5-0.5-1-0.8-1.6-1c-0.8-0.3-1.6-0.4-2.3-0.4c-0.7,0-1.4,0-2,0
				c-5-0.2-10-0.4-15-0.6h0c-0.2,0-0.7,0-1.4-0.1c-2.2-0.1-6.4-0.3-10.6-0.3c-2.8,0-5.7,0.1-7.9,0.3c-1.1,0.1-2.1,0.3-2.9,0.6
				c-0.4,0.2-0.8,0.3-1.2,0.7c-0.2,0.2-0.4,0.4-0.6,0.7c-0.2,0.3-0.3,0.7-0.3,1.1l0,0L20.4,121.5l1.8,0.1l-1.2,0l1.1,0.6
				c0.1-0.1,0.2-0.4,0.2-0.6l-1.2,0l1.1,0.6l-0.8-0.5l0.6,0.7c0,0,0.1-0.1,0.2-0.2l-0.8-0.5l0.6,0.7l-0.3-0.3l0.2,0.4l0,0l-0.3-0.3
				l0.2,0.4l0-0.1l0,0.1l0,0l0-0.1l0,0.1c0,0,0.4-0.2,1-0.3c0.9-0.2,2.2-0.3,3.8-0.4c1.5-0.1,3.3-0.1,5-0.1c2.7,0,5.5,0.1,7.6,0.2
				c1.1,0,2,0.1,2.8,0.1c0.7,0,1.2,0.1,1.5,0.1h0c5,0.1,10,0.3,15,0.6c0.7,0,1.3,0,1.8,0c0.4,0,0.7,0,1,0.1c0.4,0.1,0.6,0.2,0.7,0.3
				c0.2,0.1,0.4,0.4,0.6,1c0.5,1.4,0.7,3.5,0.7,5.9c0,3.5-0.4,7.3-0.5,10.2c-0.1,2.4-0.4,5.1-1,7.5c-0.3,1.2-0.7,2.3-1.2,3.2
				c-0.5,0.9-1.1,1.7-1.8,2.2c-1.6,1.2-3.6,2-5.9,2.4c-2.3,0.4-4.8,0.5-7.2,0.5c-1.2,0-2.4,0-3.5,0c-2.9,0-5.9-0.3-8.8-1
				c-2.8-0.7-5.5-1.9-7.7-3.9c-0.7-0.6-1.3-1.4-1.8-2.5c-0.8-1.6-1.3-3.8-1.6-6.2c-0.3-2.4-0.4-5.1-0.4-7.8c0-4.8,0.4-9.6,0.4-12.9
				L20.4,121.5l1.8,0.1L20.4,121.5z"/>
			<path class="st1" d="M135.2,128.8h30.1c1.1,0,1.9-0.9,1.9-1.9c0-1.1-0.9-1.9-1.9-1.9h-30.1c-1.1,0-1.9,0.9-1.9,1.9
				C133.3,127.9,134.2,128.8,135.2,128.8"/>
		</g>
		<g>
			<path d="M60,122.8c4.3,5.4,7,13.1,7,20.5c0,3.2-0.5,6.3-1.5,9c-1.1,3-2.7,5.9-4.5,8.7c-2.1,3.2-3.3,6.8-3.3,10.3
				c0,2.5,0.7,5,2.1,7.1c1.4,2.1,3.7,3.8,6.6,4.9c1.2,0.4,2.5,0.6,3.9,0.6c2.6,0,5.3-0.8,7.5-2.2c2.2-1.4,4-3.5,4.6-6.2
				c0.2-0.7-0.3-1.3-0.9-1.5c-0.7-0.2-1.3,0.3-1.5,0.9c-0.4,1.9-1.8,3.5-3.6,4.7c-1.8,1.1-4.1,1.8-6.2,1.8c-1.1,0-2.1-0.2-3-0.5
				c-2.6-0.9-4.3-2.3-5.4-3.9c-1.1-1.6-1.7-3.6-1.7-5.7c0-2.9,1-6.1,2.9-8.9c1.8-2.8,3.5-5.9,4.7-9.1c1.2-3.1,1.7-6.5,1.7-9.9
				c0-7.9-2.8-16.1-7.5-22c-0.4-0.5-1.2-0.6-1.7-0.2C59.7,121.5,59.6,122.2,60,122.8L60,122.8z"/>
			<path d="M24.6,80.4c3.5,4,8.3,6.6,13.4,8.4c5.1,1.8,10.6,2.8,15.6,3.7c0.7,0.1,1.3-0.3,1.4-1c0.1-0.7-0.3-1.3-1-1.4
				c-5-0.8-10.3-1.8-15.2-3.6c-4.9-1.7-9.2-4.1-12.3-7.7c-0.4-0.5-1.2-0.6-1.7-0.1C24.2,79.1,24.2,79.9,24.6,80.4L24.6,80.4z"/>
			<path d="M173.3,160.5c0.3,0,0.7,0,1,0c2.4,0,4.5-0.5,6.2-1.5c2.6-1.4,4.5-3.8,5.7-6.5c1.2-2.7,1.7-5.8,1.7-8.8
				c0-0.7-0.6-1.2-1.2-1.2c-0.7,0-1.2,0.6-1.2,1.2c0,3.7-0.9,7.4-2.7,10c-0.9,1.3-2,2.4-3.4,3.2c-1.4,0.8-3,1.2-5,1.2
				c-0.3,0-0.6,0-0.8,0c-0.7,0-1.3,0.5-1.3,1.2S172.6,160.5,173.3,160.5L173.3,160.5z"/>
			<path d="M170.2,155.7c0,7.5,0.2,14.9,0.2,22.3c0,5.2-0.1,10.5-0.5,15.6c-0.3,4.4-0.6,11-2.1,16.9c-0.7,2.9-1.7,5.6-3.1,7.8
				c-1.4,2.1-3.1,3.7-5.4,4.5c-0.6,0.2-1,0.9-0.8,1.6c0.2,0.6,0.9,1,1.6,0.8c2.9-1,5.1-3,6.7-5.4c2.4-3.7,3.6-8.5,4.4-13.2
				c0.7-4.7,1-9.3,1.2-12.6c0.4-5.3,0.5-10.6,0.5-15.8c0-7.5-0.2-14.9-0.2-22.3c0-0.7-0.6-1.2-1.2-1.2
				C170.8,154.5,170.2,155,170.2,155.7L170.2,155.7z"/>
			<path d="M95.1,133.5c0.5,3.1,1.7,6.3,3.7,8.8c1,1.3,2.1,2.3,3.5,3.1c1.4,0.8,2.9,1.3,4.6,1.2c1.5,0,3.1-0.4,4.8-1.2h0
				c1.4-0.7,2.6-1.6,3.5-2.7c1.3-1.6,2.1-3.6,2.6-5.6c0.4-2,0.6-4.1,0.6-6c0-0.7-0.6-1.2-1.2-1.2c-0.7,0-1.2,0.6-1.2,1.2
				c0,2.4-0.2,5-1,7.2c-0.4,1.1-0.9,2-1.6,2.9c-0.7,0.8-1.5,1.5-2.6,2.1l0,0c-1.4,0.7-2.6,0.9-3.7,0.9c-1.2,0-2.3-0.3-3.4-0.9
				c-1.5-0.9-2.9-2.4-3.9-4.2c-1-1.8-1.7-3.9-2.1-6c-0.1-0.7-0.7-1.1-1.4-1S95,132.9,95.1,133.5L95.1,133.5z"/>
			<path d="M41.7,139.3c0.8,2.6,2.1,5.1,4,7.1c1.8,1.9,4.3,3.3,7.1,3.3c1.5,0,3.1-0.4,4.8-1.2c2.1-1,3.6-2.6,4.6-4.4
				c1-1.8,1.5-3.8,1.8-5.8c0.1-0.7-0.4-1.3-1.1-1.4c-0.7-0.1-1.3,0.4-1.4,1.1c-0.2,1.8-0.7,3.5-1.5,4.9c-0.8,1.4-1.9,2.6-3.5,3.3
				c-1.4,0.7-2.6,0.9-3.7,0.9c-2.1,0-3.8-0.9-5.3-2.5c-1.5-1.6-2.7-3.8-3.4-6.1c-0.2-0.7-0.9-1-1.5-0.8
				C41.8,137.9,41.5,138.6,41.7,139.3L41.7,139.3z"/>
			<path d="M68.4,207.1c1-4.2,3.7-8,7.3-10.8c3.6-2.8,8-4.7,12.2-5.1c0.7-0.1,1.4-0.1,2.1-0.1c4.6,0,9.1,1.4,12.8,4
				c3.7,2.5,6.7,6.1,8.2,10.5c0.2,0.6,0.9,1,1.6,0.8c0.6-0.2,1-0.9,0.8-1.6c-1.7-4.9-5-8.9-9.1-11.7c-4.1-2.8-9.1-4.4-14.2-4.4
				c-0.8,0-1.6,0-2.4,0.1c-4.7,0.5-9.5,2.5-13.4,5.6c-3.9,3.1-7,7.3-8.2,12.2c-0.2,0.7,0.2,1.3,0.9,1.5
				C67.6,208.2,68.3,207.8,68.4,207.1L68.4,207.1z"/>
			<path d="M86,208.1c0.9,0,1.8,0,2.7,0c1.7,0,3.3,0,5,0c0.7,0,1.2-0.6,1.2-1.2c0-0.7-0.6-1.2-1.2-1.2c-1.7,0-3.3,0-5,0
				c-0.9,0-1.7,0-2.6,0c-0.7,0-1.3,0.5-1.3,1.2C84.8,207.5,85.3,208.1,86,208.1L86,208.1z"/>
			<path d="M37.2,111.5c2.8,3.7,6.4,6.4,10.5,8.2c4,1.8,8.5,2.7,13,2.7c1.9,0,3.8-0.2,5.7-0.5l-0.4-2.4c-1.7,0.3-3.5,0.4-5.3,0.4
				c-4.1,0-8.3-0.8-12-2.5c-3.7-1.7-7-4.1-9.5-7.5L37.2,111.5L37.2,111.5z"/>
			<path d="M78.9,122c1.3,0.1,2.7,0.2,4,0.2c12.2,0,23.1-5.6,30.3-15.7l-2-1.4c-6.8,9.5-16.8,14.7-28.3,14.7c-1.2,0-2.5-0.1-3.7-0.2
				L78.9,122L78.9,122z"/>
		</g>
	</g>
	<g>
		<path class="st6" d="M281.3,297.4L281.3,297.4c-32.2,8.6-66.3-4.6-84.3-33.1c-11.7-18.6-22.8-50.2-23-81.1
			c0-5.8,3.9-10.9,9.5-12.1h0c6.8-1.5,13.4,3.1,14.5,10.1c1.4,9.4,5.8,25.9,14.5,35c2.4,2.5,6.6,0.1,5.7-3.3
			c-5.1-19.3-15-69.3-7.1-143.7c0.8-7.6,7.3-13.1,14.8-12.5h0c7.5,0.6,13.1,7.4,12.5,15.1c-1.8,22.2-3.9,64.7,4.1,80.7
			c0.7,1.3,2.6,0.9,2.6-0.6c0.1-16,0.9-71.1,6.3-99.4c1.3-7,7.5-11.9,14.5-11.5c0.1,0,0.3,0,0.4,0c8.2,0.5,14.2,7.8,13.4,16.1
			c-2.3,23-5.1,66.8,3.2,92.1c0.1,0.4,0.7,0.3,0.7-0.1c-0.8-10.2-3.2-48.1,4.5-80.6c1.4-6.1,7.3-10,13.4-8.8l0,0
			c5.9,1.2,9.9,6.9,9.1,13c-2.4,18-6.1,54.6-1,77.8c0,0,2.1,2.4,2.5-1.1c1-8.2,2.1-29.3,11.6-50.2c2.4-5.4,8.7-7.5,13.9-4.8l0,0
			c4.3,2.3,6.4,7.3,5.1,12c-4.2,15.3-12,50-6,81.9c2,11,2.7,22.6,2.6,33.9C338.7,257.6,314.9,288.4,281.3,297.4z"/>
		<path class="st7" d="M201.4,262.8c-7.6-17.2-15.4-35.2-18.3-53.9c-1.1-6.8-1.7-14.7,1.4-21.1c2.6-5.3,7.6-7.7,13.1-8.2
			c-1.7-6.2-7.9-10-14.2-8.6c-5.6,1.3-9.6,6.3-9.5,12.1c0.2,30.9,11.3,62.5,23,81.1c3.3,5.2,7.2,9.9,11.4,14.1
			C206.3,273.1,203.7,267.9,201.4,262.8z"/>
		<path class="st7" d="M219.9,206.6c1.2-5,1.3-10.2,1.2-15.3c-0.3-26.6-5.5-52.9-5.8-79.5c-0.1-9.5-0.2-20.6,4.5-29.2
			c1.6-2.9,3.9-5.4,7.1-6.5c3.6-1.3,7.5-0.5,11.1,0.7c0.1-1.8,0.3-3.5,0.4-5.1c0.6-7.7-5-14.4-12.5-15.1c-7.4-0.6-14,4.9-14.8,12.5
			c-7.7,72.9,1.7,122.4,6.8,142.5C218.8,210.1,219.5,208.2,219.9,206.6z"/>
		<path class="st7" d="M253.2,128.7c1-9.3,0.4-18.8-0.1-28.1c-0.4-8.3-1.2-16.7-0.4-24.9c0.8-7.4,4.5-14.1,12.3-15.7
			c3.9-0.8,8-0.4,12-1.1c0.9-0.1,1.8-0.4,2.5-0.6c0-0.4,0.1-0.9,0.1-1.3c0.8-8.3-5.3-15.6-13.4-16.1c-0.1,0-0.3,0-0.4,0
			c-7-0.4-13.1,4.5-14.5,11.5c-5,26-6,74.8-6.3,94.9C251,143.5,252.5,135.1,253.2,128.7z"/>
		<path class="st3" d="M339.2,222.1c0.2-11.3-0.5-22.9-2.6-33.9c-6-31.9,1.8-66.5,6-81.9c1.3-4.7-0.8-9.8-5.1-12l0,0
			c-5.1-2.7-11.4-0.6-13.9,4.8c-9.5,20.9-10.6,42-11.6,50.2c-0.4,3.5-2.5,1.1-2.5,1.1c-5.1-23.3-1.4-59.8,1-77.8
			c0.6-4.8-1.7-9.3-5.6-11.6c-6.4,12.9-9.7,27.4-11.3,41.6c-2,17.2-1.6,35,2.4,51.9c0.1,0.3-0.1,0.6-0.4,0.6
			c-7.5,1-15.6,2.5-21.9,6.8c-5.4,3.6-8.2,9.1-9.3,15.4c-1.3,7.7-0.3,15.6,0.4,23.3c0.9,9.3,2.2,18.6,2,28c-0.2,8.7-1.8,17.5-6.3,25
			c-3.5,5.8-8.5,10.4-14.3,14c-11.5,6.9-27.4,10.3-41.2,7.6c19,21,48.3,29.8,76.1,22.4v0C314.9,288.4,338.7,257.6,339.2,222.1z"/>
		<g>
			<path d="M230.1,163c15.4-9.9,33.9-14.6,52.1-14c10.6,0.4,21.2,2.6,31,6.7c0.6,0.3,1.3,0,1.5-0.6c0.3-0.6,0-1.3-0.6-1.5
				c-10.1-4.2-20.9-6.5-31.8-6.9c-18.7-0.7-37.7,4.2-53.5,14.4c-0.5,0.4-0.7,1.1-0.4,1.6C228.8,163.2,229.5,163.4,230.1,163
				L230.1,163z"/>
		</g>
	</g>
	<g>
		
			<rect x="223.2" y="196.2" transform="matrix(0.9818 -0.1897 0.1897 0.9818 -37.5756 57.3705)" class="st8" width="115.3" height="57.4"/>
		<text transform="matrix(0.9818 -0.1897 0.1897 0.9818 225.7137 243.6305)" class="st9 st10 st11">stop</text>
	</g>
</g>
<g>
	<path class="st12" d="M644,270.3c-21.2,9.8-45.3,7.9-68,7.9c-21,0-46.3,3.3-66.5-2.2c-35-9.7-42.6-42.8-38.8-74.7
		c3.7-30.8,1.4-63.1-1.5-93.9c-2.4-25.6,0.3-51,18.9-70.1c6.7-6.9,14-12.1,22.8-16c22.5-10,42.9-11.6,67.2-7
		c1.9,0.4,25.6,9,23.6,10.6c12.3-9.9,33.6-4.6,46,2.5c34.5,19.7,23.9,60.1,17.5,91.9c-3.7,18.4-3.9,34.4-3.1,53
		c0.7,15.7,0.9,30.8,3.5,46.4C669,239.1,664.9,260.7,644,270.3z"/>
	<path class="st12" d="M662.1,172.3c-0.8-18.6-0.7-34.6,3.1-53c6.4-31.8,17-72.2-17.5-91.9c-12.4-7.1-33.6-12.4-46-2.5
		c2-1.6-21.7-10.3-23.6-10.6c-19-3.6-35.6-3.4-52.6,1.6c11.1,0,22.5,1.1,32.5,5.5c5,2.2,9.7,5.5,12.6,10.2
		c3.7,5.9,5.4,13.6,5.3,20.4c-0.2,14.2-9.4,25.7-19.4,34.9c-10.4,9.5-22.6,17.2-32,27.8c7.3,3.8,13.9,8.8,18.5,15.7
		c4.3,6.5,6.6,14,8.1,21.5c5.3,26.8,7,58.6-8.5,82.6c-6.6,10.1-16.1,17.8-27.4,22.3c-9.5,3.7-19.6,5.2-29.7,5.3
		c5.9,6.2,13.8,11,24,13.8c20.2,5.6,45.5,2.2,66.5,2.2c22.7,0,46.8,2,68-7.9c20.8-9.7,24.9-31.2,21.6-51.7
		C663,203.1,662.8,188,662.1,172.3z"/>
	<g>
		<path class="st5" d="M679,442.8v-45.3c0-31.2,0.1-61.7-5.9-92.4c-4.6-23.6-13.2-52.9-36.9-64c-24.1-11.2-59.9-5.8-85.6-2.1
			c-12.8,1.8-32.1,1.3-37.6,15.9c0,53.6,3.6,108.4,0,161.8c-0.8,11.3,5,19.2,17.2,21.3c27,4.7,62.4,4.7,93.3,4.7
			C641.9,442.8,660.5,442.8,679,442.8z"/>
		<path class="st5" d="M650.3,442.8c0,0,0-44.7,0-44.7c0-22.7-0.1-46.5-1.5-69.5c-1.3-22.2-1.6-47.6-9.8-68.6
			c-5.7-14.7-16.4-22.9-30.7-28.3c-19-7.1-39.9-7.3-59.9-7.3c-20.9,0-39.6,1.4-59.5,9.1c-23.2,9-36.8,27.5-45.3,50.3
			c-4.2,11.4-6.2,23.9-6.8,36C435,358.6,435,404,435,442.8H650.3z"/>
		<g>
			<path d="M650.4,426.5c0,5.2,0,11.1,0.1,16.3h2.5c0-5.3-0.1-11.1-0.1-16.3c0-13.4,0.1-26.7,0.1-40.1c0-28.5-0.5-57.2-3.7-88
				c-0.1-0.7-0.7-1.2-1.4-1.1c-0.7,0.1-1.2,0.7-1.1,1.4l0,0c3.1,30.6,3.6,59.3,3.6,87.8C650.5,399.7,650.4,413,650.4,426.5z"/>
		</g>
		<path class="st5" d="M364.5,292.5c-0.5,36.5,32.4,67.1,67.9,68c40,1,65.4-28.9,70.8-66c3-20.9,3.7-51.8-18.5-62.9
			c-32.1-16-89.6,3.6-110.2,31.5C367.7,272.4,364.7,282.5,364.5,292.5z"/>
	</g>
	<g>
		<path d="M373.7,262.2c-7.1,9.6-10.3,20.2-10.5,30.7c0,0.3,0,0.6,0,1c0,18.8,7.7,35.1,20,46.8c12.3,11.7,29.2,18.8,47.5,19.3
			c0.7,0,1.3,0,2,0c20.2,0,36.8-7.7,49-20.1c12.2-12.4,19.9-29.5,22.6-48.5c0.1-0.7-0.4-1.3-1-1.4c-0.7-0.1-1.3,0.4-1.4,1
			c-2.6,18.5-10.2,35.1-21.9,47.1c-11.7,12-27.6,19.3-47.2,19.4c-0.6,0-1.3,0-1.9,0c-17.7-0.4-34-7.3-45.8-18.6
			c-11.8-11.3-19.3-27-19.3-45c0-0.3,0-0.6,0-0.9c0.1-10.1,3.2-20.1,10-29.3c0.4-0.5,0.3-1.3-0.3-1.7
			C374.9,261.5,374.1,261.6,373.7,262.2L373.7,262.2z"/>
	</g>
	<path class="st13" d="M370.2,286.1c-0.5,24.6,22.7,47.7,50.1,41.7c26.6-5.8,59.3-64.4,27.3-80.7c-20.6-10.4-57.5,2-70.9,20
		C372.3,273.1,370.3,279.6,370.2,286.1z"/>
	<path class="st14" d="M371.2,291.4c6.6,5.6,14.4,9.7,22.4,12.9c10.6,4.1,21.7,7,33,8.1c5.1,0.5,10.2,0.7,15.3,0.7
		c17.9-20,28.8-54.2,5.6-66c-20.6-10.4-57.5,2-70.9,20c-4.4,5.9-6.4,12.4-6.5,18.9c0,1.6,0,3.1,0.2,4.6
		C370.6,291,370.9,291.2,371.2,291.4z"/>
	<g>
		<path class="st7" d="M489,237.4c4.7-18.6,8.2-43,8.8-75.1c0.1-5.6-3.4-10.6-8.6-12.3h0c-7.3-2.3-14.8,2.9-15.5,10.7
			c-1.2,11.7-3.2,27.3-6.3,35.9c-0.4,1.1-2,0.7-1.9-0.4c2.3-21.2,9.2-99.4-7.8-141.2c-2.2-5.3-7.6-8.3-13.1-7.5h0
			c-6.4,1-10.9,7-10.3,13.6c1.8,22.1,5.2,69.4,3.3,90.7c-0.1,0.5-0.8,0.5-0.8,0c-0.6-18.7-3.2-82.9-9.9-110.4
			c-1.6-6.5-7.6-10.8-14-9.9c-0.1,0-0.2,0-0.3,0c-6.9,0.9-11.9,7.2-11.4,14.4c1.6,24.4,4.6,77.6,3,102.8c0,0.4-0.6,0.4-0.6,0
			c-1.1-14.7-4-65.4-5.8-87.1c-0.5-5.6-5.5-10.7-11.4-10.7h0c-6.3,0-11.4,5.5-11.5,11.5c-0.1,24-0.2,74.9-2.8,95.8
			c0,0.2-0.4,0.2-0.4,0l-4.2-54.2c-0.5-6.3-5.9-10.9-11.9-10.3l0,0c-5.8,0.6-10.1,5.8-9.8,11.9c0.8,13.8,1.7,37.9-0.8,55.9
			c-1.6,11.9-4.9,35-3.9,59.4c1.8,43.6,37.9,77.2,80,74.4h0C453.2,293.2,480.8,269.9,489,237.4z"/>
		<path class="st13" d="M489.2,150.1c-7.3-2.3-14.8,2.9-15.5,10.7c-1.2,11.7-3.2,27.3-6.3,35.9c-0.4,1.1-2,0.7-1.9-0.4
			c2.3-21.2,9.2-99.4-7.8-141.2c-2.2-5.3-7.6-8.3-13.1-7.5c-6.4,1-10.9,7-10.3,13.6c1.8,22.1,5.2,69.4,3.3,90.7
			c-0.1,0.5-0.8,0.5-0.8,0c-0.6-18.7-3.2-82.9-9.9-110.4c-1.6-6.5-7.6-10.8-14-9.9c-0.1,0-0.2,0-0.3,0c-3.2,0.4-6,2.1-8,4.4
			c3.7,2.7,6.6,6.4,8.8,10.6c6.8,13.4,7.5,29.6,8,44.4c0.3,7.6,0.6,15.2,1,22.8c0.7,12.8,1.7,25.6,1.1,38.4c0,0.3-0.3,0.5-0.6,0.4
			c-9.4-2.4-19.1,0.3-25.5,7.7c-6,6.9-8.3,16.8-5.6,25.6c2.6,8.5,9.6,14.6,15.6,20.7c5.6,5.7,11.6,11.7,14.6,19.2
			c6,15-5.2,31.7-17.9,39.3c-14.1,8.5-31.9,8.3-46.3,1.5c14.8,18.9,38,30.4,63.3,28.8h0c32.3-2.1,59.9-25.3,68.1-57.8
			c4.7-18.6,8.2-43,8.8-75.1C497.9,156.7,494.4,151.7,489.2,150.1z"/>
		<g>
			<path d="M365.5,162.5c12.5-8.3,28.3-12.4,44.2-12.4c16.9,0,33.9,4.6,47,13.5c0.6,0.4,1.3,0.2,1.7-0.3c0.4-0.6,0.2-1.3-0.3-1.7
				c-13.6-9.2-31-13.9-48.3-13.9c-16.3,0-32.5,4.2-45.5,12.8c-0.6,0.4-0.7,1.1-0.3,1.7C364.1,162.7,364.9,162.9,365.5,162.5
				L365.5,162.5z"/>
		</g>
	</g>
	<g>
		<path class="st13" d="M556.4,248.8c7.5,6.6,16.6,8.7,26.1,6.9c6.5-1.2,12.7-5.2,16.4-11.2c1.9-3,3.1-6.5,3.3-10.1
			c0.1-1,0.6-10,0.4-10c-0.1,0-62,0-62,0c0.2,4.7,3.3,9.5,5.8,13.2C549.2,241.8,552.7,245.5,556.4,248.8z"/>
		<path class="st14" d="M602.6,224.4h-42.7c7.2,11.3,16.5,20.9,25.9,30.5c5.3-1.8,10-5.4,13.1-10.3c1.9-3,3.1-6.5,3.3-10.1
			C602.3,233.4,602.9,224.4,602.6,224.4z"/>
		<g>
			<g>
				<path d="M601.2,230.9c-1,6.8-3.6,13-8.7,17.5c-4.7,4.2-11.1,6.4-17.4,6.4c-6.3,0-12.4-2.2-16.9-6.8c-0.5-0.5-1.3-0.5-1.7,0
					c-0.5,0.5-0.5,1.3,0,1.7c5,5.1,11.8,7.5,18.6,7.5c6.9,0,13.8-2.4,19-7c5.6-5,8.4-11.8,9.5-19c0.1-0.7-0.4-1.3-1-1.4
					C601.9,229.7,601.3,230.2,601.2,230.9L601.2,230.9z"/>
			</g>
		</g>
	</g>
	<g>
		<path class="st7" d="M606.5,54c-1.6,5.9,16.9,19.4,20.7,22.4c4.8,3.8,10,7.2,15.4,10.1c3.4,1.8,14.2,4.5,15.8,7.5
			c1.7,3.3-2.4,13.5-3.2,17c-4.6,19.4-4.8,38.8-6.4,58.8c-1.5,18.5,3.9,42.3-14.4,53.7c-18.6,11.6-37.7,9.2-58.6,10.2
			c-11.1,0.5-24.9,0-34-7.1c-17-13.2-26.4-38.3-25.7-59.1c-18.7-0.1-23.7-20.8-23-35.1c0-0.4,20.2,2.7,22.3,2.3
			c2.8-0.5,5.4-2.1,7.1-4.4c1.8-2.6,1.5-5.2,1.5-8.2c0-4.3,0-8.6,0-12.8c2.6,0,7.8-0.1,10.3-0.6c4.9-1,9.9-2.9,14.7-4.6
			c3.4-1.2,6.8-3.2,10.1-4.6c3.4-1.5,6.7-3.3,9.8-5.3c6.5-4.1,12.4-9.2,17.9-14.6C594,72.3,603.7,64.4,606.5,54z"/>
		<path class="st15" d="M544.9,112.6c1.4,1.3,2.4,3,3.4,4.7c2.4,4.6,2.8,9.1,1.6,14.1c-1.5,6.4-6.1,8.3-9.6,13.2
			c-4.8,6.8-3.8,16.7-3.4,24.7c0.4,9.1-1.1,18.1-0.5,27.2c0.7,10.2,4.3,20,9.9,28.6c1.4,2.1,3.2,3.6,4.7,5.5c-1.4,0.1-3.1-1-4.4-1.4
			c-1.8-0.6-3.5-1.4-5-2.5c-17-13.2-26.4-38.3-25.7-59.1c-18.7-0.1-23.7-20.8-23-35.1c0-0.4,20.2,2.7,22.3,2.3c5.8-1,8.2-5.4,8.3-11
			c0-1.7,0-3.3,0-5c0-2.4,0.2-4.9,0-7.3c-0.1-0.8-0.1-1.5,0-2.3c0-0.3,5.1-0.1,5.5-0.1c1.3,0,2.6,0.1,4,0.1c1.5,0,3-0.1,4.5,0.1
			c1.5,0.2,3.1,0.6,4.5,1.3C543.1,111.1,544.1,111.8,544.9,112.6z"/>
		<path class="st13" d="M658.4,94c-1.6-3-12.4-5.7-15.8-7.5c-5.4-2.9-10.6-6.3-15.4-10.1c-1.7-1.3-6.3-4.7-10.7-8.6
			c0.5,1.4,1,2.9,1.5,4.3c2.6,6.6,6.5,12.7,11.5,17.7c2.5,2.5,5.3,4.7,8.3,6.6c1.5,1,3.1,1.8,4.7,2.6c1.4,0.7,3.3,2.1,4.9,2.2
			c-0.3,0-4.3,8.8-4.9,9.7c-2,3.1-4.3,6-7.2,8.3c-2.9,2.3-6.3,3.8-10,4.4c-3.3,0.5-7.7,1.4-11,0.9c0,0-0.1,0-0.1,0
			c-0.3,6.3-2.8,12.4-3,18.6c-0.2,5.6,1.9,12.1,4.9,16.8c2.9,4.5,5.4,7.3,5,12.8c-3.1,0.7-6.6,0.7-9.8,0.8c-1.3,0.1-7.7,1.1-8.5,0.3
			c2.3,2.4,5.1,4.2,7.7,6.3c2.4,2,4.3,4.5,6.6,6.7c0.9,0.9,0.9,1.4,0.9,2.7c0,1.3-0.1,2.5-0.1,3.8c0,3.6,0.4,7.1,0.4,10.7
			c0,7.6-1.8,14.3-8,19.1c-3.8,3-8.3,5-12.8,6.5c-2.2,0.8-4.5,1.3-6.8,2c-2.4,0.8-4.8,1.8-7.3,1.9c17.9-0.5,35.2-0.1,51.1-10
			c18.3-11.4,12.9-35.3,14.4-53.7c1.6-20,1.8-39.4,6.4-58.8C656,107.5,660.1,97.3,658.4,94z"/>
		<g>
			<path d="M516.3,111.6L516.3,111.6c21.6,0,42.8-7.9,60.1-20.5c7.1-5.2,15.3-12.2,21.7-20.4c3.2-4.1,6-8.5,7.9-13.1
				c2-4.6,3.1-9.5,3.1-14.4c0-2.4-0.3-4.9-0.9-7.3l0,0c-0.3-1.2-0.7-2.5-1.2-3.7c-0.2-0.6-1-0.9-1.6-0.7c-0.6,0.2-0.9,1-0.7,1.6
				c0.4,1.1,0.8,2.2,1.1,3.4l0,0c0.5,2.3,0.8,4.5,0.8,6.7c0,4.6-1.1,9.1-3,13.5c-2.8,6.6-7.4,12.8-12.5,18.3
				c-5.2,5.5-11,10.4-16.2,14.2c-16.9,12.3-37.6,20.1-58.6,20.1h0c-0.7,0-1.2,0.6-1.2,1.2C515.1,111.1,515.6,111.6,516.3,111.6
				L516.3,111.6z"/>
			<path d="M515.3,155.7c-0.3,0-0.6,0-0.9,0c-2.1,0-3.7-0.5-5.2-1.2c-2.1-1.2-3.7-3.1-4.7-5.5c-1-2.4-1.5-5.2-1.5-8
				c0-0.7-0.6-1.2-1.2-1.2c-0.7,0-1.2,0.6-1.2,1.2c0,4.1,1,8.4,3.2,11.7c1.1,1.6,2.6,3,4.4,4c1.8,1,3.9,1.5,6.3,1.5c0.3,0,0.7,0,1,0
				c0.7,0,1.2-0.6,1.2-1.3C516.6,156.1,516,155.6,515.3,155.7L515.3,155.7z"/>
			<path d="M516.1,153.2c0,5.4-0.2,10.8-0.2,16c0,9.9,0.7,19.8,4.8,29.8c2.7,6.8,7.1,14.5,12.7,21.1c5.6,6.6,12.5,11.9,20.3,13.6
				c0.7,0.1,1.3-0.3,1.5-0.9c0.1-0.7-0.3-1.3-0.9-1.5c-7.1-1.5-13.6-6.5-19-12.8c-5.4-6.3-9.6-13.9-12.3-20.4
				c-3.9-9.6-4.6-19.1-4.6-28.9c0-5.2,0.2-10.5,0.2-16c0-0.7-0.6-1.2-1.2-1.2S516.1,152.6,516.1,153.2L516.1,153.2z"/>
			<path d="M612.8,133.9c-0.7,2.8-1,5.7-1,8.5c0,3.5,0.5,6.9,1.7,10.1c1.2,3.3,3,6.4,4.8,9.3l0.2-0.1l-0.2,0.1l0,0l0.2-0.1l-0.2,0.1
				c0,0,0.1,0.2,0.3,0.5c0.5,1,1.3,3.1,2.1,5.1c0.4,1,0.7,2,0.9,2.8c0.1,0.4,0.2,0.8,0.3,1.1c0.1,0.3,0.1,0.5,0.1,0.6l0,0l0.1,0
				l-0.1,0l0,0l0.1,0l-0.1,0l0.8,0.1l-0.6-0.5c-0.2,0.2-0.2,0.3-0.2,0.4l0.8,0.1l-0.6-0.5l0.8,0.6l-0.5-0.9
				c-0.2,0.1-0.3,0.2-0.4,0.3l0.8,0.6l-0.5-0.9l0.4,0.9v-1c-0.1,0-0.3,0-0.4,0.1l0.4,0.9v-1c-7.4,0-14.7,0.4-22,0.4
				c-0.7,0-1.2,0.6-1.2,1.2c0,0.7,0.6,1.2,1.2,1.2c7.4,0,14.7-0.4,22-0.4c0.3,0,0.6-0.1,0.8-0.3c0.2-0.1,0.3-0.3,0.4-0.4
				c0.1-0.2,0.2-0.4,0.2-0.6c0-0.2,0-0.3,0-0.5c0-0.4-0.1-0.8-0.2-1.3c-0.4-1.6-1.2-3.9-2-5.9c-0.4-1-0.8-1.9-1.1-2.7
				c-0.2-0.4-0.3-0.7-0.4-0.9c-0.1-0.1-0.1-0.2-0.2-0.3c-0.1-0.1-0.1-0.2-0.2-0.3c-1.8-2.8-3.4-5.8-4.6-8.9c-1.1-2.9-1.6-6-1.6-9.3
				c0-2.6,0.3-5.3,1-7.9c0.2-0.7-0.2-1.3-0.9-1.5C613.6,132.9,613,133.3,612.8,133.9L612.8,133.9z"/>
			<path d="M583,132.2c-0.4,2.8-1.6,5.7-3.3,7.9c-0.8,1.1-1.8,2-2.8,2.6c-1,0.6-2.2,0.9-3.4,0.9c-1.1,0-2.4-0.3-3.8-0.9
				c-1.1-0.5-2-1.3-2.7-2.1c-1.1-1.3-1.7-2.9-2.1-4.7c-0.4-1.8-0.5-3.7-0.5-5.6c0-0.7-0.6-1.2-1.2-1.2c-0.7,0-1.2,0.6-1.2,1.2
				c0,2.6,0.2,5.5,1.2,8.2c0.5,1.3,1.1,2.6,2,3.7c0.9,1.1,2.1,2.1,3.5,2.8c1.7,0.8,3.3,1.2,4.9,1.2c1.7,0,3.3-0.5,4.7-1.3
				c2.1-1.2,3.7-3.1,4.9-5.2c1.2-2.2,2-4.6,2.4-6.9c0.1-0.7-0.4-1.3-1-1.4C583.8,131,583.1,131.5,583,132.2L583,132.2z"/>
			<path d="M636.7,135.8c0,0.2,0,0.4,0,0.6c0,1.4-0.1,2.9-0.5,4.1c-0.8,2.6-2.6,4.6-5.1,5.5c-0.8,0.3-1.6,0.4-2.4,0.4
				c-1.4,0-2.9-0.4-4.1-1.2c-1.3-0.8-2.3-1.8-2.9-3.1c-0.5-1-0.8-2.2-0.8-3.4v-2.4c0-0.7-0.6-1.2-1.2-1.2c-0.7,0-1.2,0.6-1.2,1.2
				v2.4c0,1.5,0.4,3.1,1,4.5c0.9,1.7,2.2,3.2,3.9,4.1c1.6,1,3.5,1.5,5.4,1.5c1.1,0,2.2-0.2,3.2-0.6c3.3-1.2,5.6-3.9,6.6-7.1
				c0.5-1.6,0.6-3.3,0.6-4.8c0-0.2,0-0.5,0-0.7c0-0.7-0.6-1.2-1.3-1.2C637.3,134.5,636.7,135.1,636.7,135.8L636.7,135.8z"/>
			<path d="M615.2,207.2c-1.2-4.9-4.3-9.2-8.3-12.4c-4-3.2-8.9-5.3-13.7-5.8c-0.8-0.1-1.6-0.1-2.4-0.1c-5.2,0-10.3,1.6-14.5,4.5
				c-4.2,2.9-7.6,7-9.3,11.9c-0.2,0.6,0.1,1.3,0.8,1.6s1.3-0.1,1.6-0.8c1.5-4.4,4.5-8.1,8.4-10.7c3.8-2.6,8.4-4.1,13.1-4.1
				c0.7,0,1.4,0,2.2,0.1c4.3,0.4,8.8,2.3,12.4,5.2c3.6,2.9,6.4,6.8,7.5,11.1c0.2,0.7,0.8,1.1,1.5,0.9
				C615,208.5,615.4,207.8,615.2,207.2L615.2,207.2z"/>
			<path d="M594.7,206.2c-0.9,0-1.8,0-2.6,0c-1.7,0-3.4,0-5.1,0c-0.7,0-1.2,0.6-1.2,1.2c0,0.7,0.6,1.2,1.2,1.2c1.7,0,3.4,0,5.1,0
				c0.9,0,1.8,0,2.7,0c0.7,0,1.2-0.6,1.2-1.3C596,206.7,595.4,206.2,594.7,206.2L594.7,206.2z"/>
			<path d="M642.7,111.4c-2.6,3.4-5.9,5.9-9.7,7.6c-3.8,1.7-8,2.5-12.2,2.5c-1.8,0-3.6-0.2-5.4-0.5l-0.4,2.4
				c1.9,0.3,3.9,0.5,5.8,0.5c4.6,0,9.1-0.9,13.2-2.7c4.1-1.8,7.8-4.6,10.7-8.4L642.7,111.4L642.7,111.4z"/>
			<path d="M601.9,121.2c-1.3,0.1-2.6,0.2-3.8,0.2c-11.7,0-22-5.3-28.9-15l-2,1.4c7.3,10.3,18.5,16,31,16c1.3,0,2.7-0.1,4.1-0.2
				L601.9,121.2L601.9,121.2z"/>
		</g>
	</g>
	<g>
		
			<rect x="406.3" y="140.7" transform="matrix(8.648451e-02 -0.9963 0.9963 8.648451e-02 169.9087 624.3928)" class="st8" width="38.3" height="157.7"/>
		<text transform="matrix(0.9962 8.648937e-02 -8.649024e-02 0.9963 346.1021 221.3745)" class="st9 st16 st11">bullying</text>
	</g>
</g>
</svg>
