<?xml version="1.0" encoding="utf-8"?>
<!-- Generator: Adobe Illustrator 25.4.1, SVG Export Plug-In . SVG Version: 6.00 Build 0)  -->
<svg version="1.1" id="Capa_1" xmlns="http://www.w3.org/2000/svg" xmlns:xlink="http://www.w3.org/1999/xlink" x="0px" y="0px"
	 viewBox="0 0 427 421" style="enable-background:new 0 0 427 421;" xml:space="preserve">
<style type="text/css">
	.st0{fill:#E1B3D5;}
	.st1{fill:#AFDBD1;}
	.st2{fill:#CDE894;}
</style>
<g>
	<path class="st0" d="M230,314c0,46.5-37.7,84.2-84.2,84.2c-46.5,0-84.2-37.7-84.2-84.2c0-46.5,37.7-84.2,84.2-84.2
		C192.3,229.8,230,267.5,230,314"/>
	<path class="st1" d="M146,160.4c0,31.2-25.3,56.5-56.5,56.5c-31.2,0-56.5-25.3-56.5-56.5c0-31.2,25.3-56.5,56.5-56.5
		C120.7,103.9,146,129.2,146,160.4"/>
	<path class="st2" d="M408.4,132.3c0,61.9-50.2,112-112,112c-61.9,0-112-50.2-112-112c0-61.9,50.2-112,112-112
		C358.3,20.2,408.4,70.4,408.4,132.3"/>
</g>
</svg>
