<?xml version="1.0" encoding="utf-8"?>
<!-- Generator: Adobe Illustrator 25.4.1, SVG Export Plug-In . SVG Version: 6.00 Build 0)  -->
<svg version="1.1" id="Capa_1" xmlns="http://www.w3.org/2000/svg" xmlns:xlink="http://www.w3.org/1999/xlink" x="0px" y="0px"
	 viewBox="0 0 1080 555" style="enable-background:new 0 0 1080 555;" xml:space="preserve">
<style type="text/css">
	.st0{fill-rule:evenodd;clip-rule:evenodd;fill:#A4D0C6;}
	.st1{fill:#D6A8CA;}
	.st2{fill:#BDAAE3;}
	.st3{fill:#D7E36A;}
	.st4{fill:#211F1F;stroke:#FFFFFF;stroke-miterlimit:10;}
</style>
<path class="st0" d="M1084.96-4.68H-4.96v501.21h1.13v40.78c0,0,250.36-79.86,829.24,0c0,0,190.32,17.56,258.29,9.63v-50.41h1.27
	V-4.68z"/>
<path class="st1" d="M1025.64,89.18c0,5.2-3.74,7.77-6.75,9.84c-2.94,2.02-4.6,3.28-4.6,5.75c0,2.47,1.66,3.73,4.6,5.74
	c3.01,2.07,6.75,4.64,6.75,9.84c0,5.2-3.74,7.77-6.75,9.84c-2.94,2.02-4.6,3.28-4.6,5.75c0,1.37-1.11,2.48-2.48,2.48
	c-1.37,0-2.48-1.11-2.48-2.48c0-5.2,3.74-7.77,6.75-9.84c2.94-2.02,4.6-3.28,4.6-5.75s-1.66-3.73-4.6-5.75
	c-3.01-2.07-6.75-4.64-6.75-9.84c0-5.2,3.74-7.78,6.75-9.84c2.94-2.02,4.6-3.28,4.6-5.75c0-2.47-1.66-3.73-4.6-5.75
	c-3.01-2.07-6.75-4.64-6.75-9.84c0-1.37,1.11-2.48,2.48-2.48c1.37,0,2.48,1.11,2.48,2.48c0,2.47,1.66,3.73,4.6,5.75
	C1021.89,81.41,1025.64,83.98,1025.64,89.18"/>
<path class="st2" d="M-4.24,455.62c38.95,0,70.52-31.57,70.52-70.52c0-38.95-31.57-70.52-70.52-70.52V455.62z"/>
<path class="st1" d="M490.24,142.13c-10.08,0-18.28-8.2-18.28-18.28c0-10.08,8.2-18.28,18.28-18.28s18.28,8.2,18.28,18.28
	C508.52,133.93,500.32,142.13,490.24,142.13z M490.24,112.45c-6.29,0-11.4,5.11-11.4,11.4c0,6.29,5.11,11.4,11.4,11.4
	s11.4-5.11,11.4-11.4C501.64,117.57,496.53,112.45,490.24,112.45z"/>
<path class="st3" d="M255.38,52.52c58.67,9.59,98.47,64.92,88.88,123.59c-4.66,28.5-45.52,14.43-66.91,30.52
	c-22.64,17.04-26.52,63.28-56.69,58.36c-58.67-9.59-98.47-64.92-88.88-123.59c4.53-27.75,37.56-23.04,58.08-39.12
	C212.73,84.36,224.46,47.46,255.38,52.52z"/>
<path class="st4" d="M916.78,458.93c7.83,0,11.7,5.64,14.81,10.16c3.03,4.42,4.93,6.92,8.65,6.92c3.72,0,5.61-2.5,8.65-6.92
	c3.11-4.53,6.98-10.16,14.81-10.16s11.7,5.64,14.81,10.16c3.04,4.42,4.93,6.92,8.65,6.92c2.06,0,3.74,1.67,3.74,3.74
	c0,2.06-1.67,3.74-3.74,3.74c-7.83,0-11.7-5.64-14.81-10.16c-3.03-4.42-4.93-6.92-8.65-6.92c-3.72,0-5.61,2.5-8.65,6.92
	c-3.11,4.53-6.98,10.16-14.81,10.16c-7.83,0-11.7-5.64-14.81-10.16c-3.04-4.42-4.93-6.92-8.65-6.92c-3.72,0-5.62,2.5-8.65,6.92
	c-3.11,4.53-6.98,10.16-14.81,10.16c-2.06,0-3.74-1.67-3.74-3.74c0-2.06,1.67-3.74,3.74-3.74c3.72,0,5.62-2.5,8.65-6.92
	C905.08,464.56,908.95,458.93,916.78,458.93"/>
</svg>
