<?xml version="1.0" encoding="utf-8"?>
<!-- Generator: Adobe Illustrator 25.4.1, SVG Export Plug-In . SVG Version: 6.00 Build 0)  -->
<svg version="1.1" id="Capa_1" xmlns="http://www.w3.org/2000/svg" xmlns:xlink="http://www.w3.org/1999/xlink" x="0px" y="0px"
	 viewBox="0 0 275.3 324.9" style="enable-background:new 0 0 275.3 324.9;" xml:space="preserve">
<style type="text/css">
	.st0{opacity:0.33;fill:url(#SVGID_1_);enable-background:new    ;}
	.st1{opacity:0.33;fill:url(#SVGID_00000103948981201557724800000011733612890856167091_);enable-background:new    ;}
	.st2{opacity:0.33;fill:url(#SVGID_00000168089458574085959580000000373582599708576141_);enable-background:new    ;}
	.st3{fill:#FFF0F9;}
	.st4{fill:#C5B2EB;}
	.st5{opacity:0.29;fill:#C5B2EB;enable-background:new    ;}
	.st6{enable-background:new    ;}
	.st7{fill:#3C246F;}
</style>
<g>
	<g>
		
			<linearGradient id="SVGID_1_" gradientUnits="userSpaceOnUse" x1="109.2987" y1="205.3153" x2="87.4957" y2="264.3002" gradientTransform="matrix(1 0 0 -1 0 326)">
			<stop  offset="3.723940e-03" style="stop-color:#FFB2C0;stop-opacity:0"/>
			<stop  offset="4.695790e-02" style="stop-color:#E59DB6;stop-opacity:1.550621e-02"/>
			<stop  offset="0.1191" style="stop-color:#C081A7;stop-opacity:4.138048e-02"/>
			<stop  offset="0.1974" style="stop-color:#A0689A;stop-opacity:6.947975e-02"/>
			<stop  offset="0.282" style="stop-color:#875490;stop-opacity:9.981480e-02"/>
			<stop  offset="0.3753" style="stop-color:#734588;stop-opacity:0.1333"/>
			<stop  offset="0.4816" style="stop-color:#653A82;stop-opacity:0.1714"/>
			<stop  offset="0.6125" style="stop-color:#5D347F;stop-opacity:0.2183"/>
			<stop  offset="0.8402" style="stop-color:#5A327E;stop-opacity:0.3"/>
		</linearGradient>
		<path class="st0" d="M57.7,136.4c22.7-20.2,56.8-30.4,89.8-28.4s64.3,15.8,86.5,36.4c-12.6-32.5-48-57.8-88-63
			s-82.8,10-106.4,37.7c-11,12.9-17.6,28.3-19.6,44c-1.7,13.2-1.9,35.1,8.1,46c5.2-3,1.8-12.5,2-17.2c0.3-6.7,1.6-13.3,3.7-19.7
			C38.2,158.8,46.4,146.4,57.7,136.4z"/>
		<g>
			
				<linearGradient id="SVGID_00000109018527670757203840000009636835958447660424_" gradientUnits="userSpaceOnUse" x1="19.1" y1="76.883" x2="247.547" y2="76.883" gradientTransform="matrix(1 0 0 -1 0 326)">
				<stop  offset="3.723940e-03" style="stop-color:#FFB2C0;stop-opacity:0"/>
				<stop  offset="4.695790e-02" style="stop-color:#E59DB6;stop-opacity:1.550621e-02"/>
				<stop  offset="0.1191" style="stop-color:#C081A7;stop-opacity:4.138048e-02"/>
				<stop  offset="0.1974" style="stop-color:#A0689A;stop-opacity:6.947975e-02"/>
				<stop  offset="0.282" style="stop-color:#875490;stop-opacity:9.981480e-02"/>
				<stop  offset="0.3753" style="stop-color:#734588;stop-opacity:0.1333"/>
				<stop  offset="0.4816" style="stop-color:#653A82;stop-opacity:0.1714"/>
				<stop  offset="0.6125" style="stop-color:#5D347F;stop-opacity:0.2183"/>
				<stop  offset="0.8402" style="stop-color:#5A327E;stop-opacity:0.3"/>
			</linearGradient>
			
				<path style="opacity:0.33;fill:url(#SVGID_00000109018527670757203840000009636835958447660424_);enable-background:new    ;" d="
				M19.1,208.3c0,0,47.6,111,138,88s90-110.6,90-110.6s10.7,89.9-72.6,119.3C75.9,339.8,19.1,244.8,19.1,208.3z"/>
			<g>
				
					<linearGradient id="SVGID_00000064312894027394535850000001217785866351662755_" gradientUnits="userSpaceOnUse" x1="19" y1="137.35" x2="250.2001" y2="137.35" gradientTransform="matrix(1 0 0 -1 0 326)">
					<stop  offset="3.723940e-03" style="stop-color:#FFB2C0;stop-opacity:0"/>
					<stop  offset="4.695790e-02" style="stop-color:#E59DB6;stop-opacity:1.550621e-02"/>
					<stop  offset="0.1191" style="stop-color:#C081A7;stop-opacity:4.138048e-02"/>
					<stop  offset="0.1974" style="stop-color:#A0689A;stop-opacity:6.947975e-02"/>
					<stop  offset="0.282" style="stop-color:#875490;stop-opacity:9.981480e-02"/>
					<stop  offset="0.3753" style="stop-color:#734588;stop-opacity:0.1333"/>
					<stop  offset="0.4816" style="stop-color:#653A82;stop-opacity:0.1714"/>
					<stop  offset="0.6125" style="stop-color:#5D347F;stop-opacity:0.2183"/>
					<stop  offset="0.8402" style="stop-color:#5A327E;stop-opacity:0.3"/>
				</linearGradient>
				
					<path style="opacity:0.33;fill:url(#SVGID_00000064312894027394535850000001217785866351662755_);enable-background:new    ;" d="
					M134.6,73C70.8,73,19,124.9,19,188.6c0,0.7,0,1.4,0,2.1c1.1,62.8,52.6,113.6,115.6,113.6c63.1,0,114.5-50.8,115.6-113.6
					c0-0.7,0-1.4,0-2.1C250.3,124.9,198.4,73,134.6,73z M39.4,142.9c0.1-0.2,0.2-0.4,0.3-0.6C56.9,107.2,93,83,134.6,83
					c51.5,0,94.6,37.1,103.8,86c1.2,6.4,1.8,12.9,1.8,19.6c0,58.2-47.4,105.6-105.6,105.6C76.4,294.3,29,246.9,29,188.6
					C29,172.3,32.7,156.7,39.4,142.9z"/>
				<path class="st3" d="M131.5,69.9c-63.8,0-115.7,51.9-115.7,115.7s51.9,115.7,115.7,115.7s115.7-51.9,115.7-115.7
					S195.3,69.9,131.5,69.9z M131.5,291.2c-58.2,0-105.6-47.4-105.6-105.6c0-16.4,3.8-31.9,10.4-45.7c0.1-0.2,0.2-0.4,0.3-0.6
					C53.8,104.2,89.9,80,131.5,80c51.5,0,94.6,37.1,103.8,86c1.2,6.4,1.8,12.9,1.8,19.6C237.2,243.8,189.8,291.2,131.5,291.2z"/>
				<g>
					<path class="st4" d="M131.5,69.9c-63.8,0-115.7,51.9-115.7,115.7c0,0.7,0,1.4,0,2.1c1.1,62.8,52.6,113.6,115.6,113.6
						S245.9,250.5,247,187.7c0-0.7,0-1.4,0-2.1C247.2,121.8,195.3,69.9,131.5,69.9z M36.3,139.8c0.1-0.2,0.2-0.4,0.3-0.6
						c17.2-35.1,53.3-59.3,94.9-59.3c51.5,0,94.6,37.1,103.8,86c1.2,6.4,1.8,12.9,1.8,19.6c0,58.2-47.4,105.6-105.6,105.6
						S25.9,243.7,25.9,185.5C25.9,169.2,29.7,153.7,36.3,139.8z"/>
					<path class="st5" d="M247.1,185.7c-1.9,62.1-53,112.1-115.6,112.1s-113.7-50-115.6-112.1c0,0.6,0,1.3,0,1.9
						c1.1,62.8,52.6,113.6,115.6,113.6S246,250.4,247.1,187.6C247.2,187,247.2,186.4,247.1,185.7z"/>
					<path class="st5" d="M130.9,75.8c-58.2,0-105.6,47.4-105.6,105.6c0,0.9,0,1.8,0,2.7c0.4-15.9,4.4-31,11.1-44.4
						c0.1-0.2,0.2-0.4,0.3-0.6C53.9,104,90,79.8,131.6,79.8c51.5,0,94.6,37.1,103.8,86C227.8,115,183.8,75.8,130.9,75.8z"/>
					<g>
						<path class="st4" d="M28.4,138.4c0.1-0.4,0.2-0.8,0.4-1.2l0.4-0.7c0.2-0.5,0.5-1,0.7-1.4c0.5-0.9,1-1.9,1.6-2.8
							c1.1-1.8,2.2-3.6,3.4-5.4c2.3-3.5,4.8-6.9,7.4-10.2c5.3-6.6,11.2-12.7,17.5-18.2c6.3-5.6,13.4-10.3,20.8-14.3l5.6-2.9l5.9-2.3
							l2.9-1.2l3-0.9l6.1-1.8c0.4-0.1,0.8,0.1,0.9,0.5s-0.1,0.8-0.5,0.9h-0.1l-6,1.8l-3,0.9l-2.9,1.2L87,82.9l-5.5,2.9
							c-7.3,4-14.2,8.7-20.4,14.2s-12,11.5-17.1,18c-2.5,3.3-5,6.6-7.2,10.1c-1.1,1.7-2.2,3.5-3.2,5.3c-0.5,0.9-1,1.8-1.5,2.7
							c-0.3,0.5-0.5,0.9-0.7,1.4l-0.3,0.7c0,0.1-0.1,0.2-0.2,0.2l-1,0.8c-0.4,0.3-0.9,0.3-1.2-0.1C28.4,139,28.4,138.7,28.4,138.4z"
							/>
						<path class="st4" d="M28.6,144.3c-1,2.5-2,5.1-2.9,7.7c-0.9,2.6-1.7,5.2-2.1,7.8l0,0c-0.1,0.4-0.4,0.7-0.9,0.6
							c-0.4-0.1-0.7-0.4-0.6-0.8c0.3-2.9,1-5.6,1.7-8.3c0.8-2.7,1.6-5.3,2.5-8c0.2-0.6,0.9-1,1.6-0.8
							C28.5,142.8,28.9,143.5,28.6,144.3C28.6,144.2,28.6,144.2,28.6,144.3L28.6,144.3z"/>
					</g>
				</g>
			</g>
		</g>
	</g>
	<g>
		<g>
			<g class="st6">
				<path class="st7" d="M117.9,41.2h-6.4l-1.3,3h-1.8l5.4-12h1.7l5.4,12h-1.8L117.9,41.2z M117.3,39.8l-2.6-5.9l-2.6,5.9H117.3z"/>
				<path class="st7" d="M130.2,36c0.7,0.7,1,1.6,1,2.9v5.2h-1.6v-5c0-0.9-0.2-1.5-0.6-2c-0.4-0.4-1-0.7-1.8-0.7
					c-0.9,0-1.6,0.3-2.1,0.8c-0.5,0.5-0.8,1.3-0.8,2.2v4.7h-1.6v-9.1h1.6v1.4c0.3-0.5,0.8-0.8,1.3-1.1c0.6-0.3,1.2-0.4,1.9-0.4
					C128.6,35,129.5,35.3,130.2,36z"/>
				<path class="st7" d="M134.3,33c-0.2-0.2-0.3-0.5-0.3-0.8s0.1-0.6,0.3-0.8c0.2-0.2,0.5-0.3,0.8-0.3c0.3,0,0.6,0.1,0.8,0.3
					c0.2,0.2,0.3,0.4,0.3,0.7c0,0.3-0.1,0.6-0.3,0.8c-0.2,0.2-0.5,0.3-0.8,0.3C134.8,33.3,134.5,33.2,134.3,33z M134.2,35.1h1.6v9.1
					h-1.6V35.1z"/>
				<path class="st7" d="M139,31.4h1.6v12.7H139V31.4z"/>
				<path class="st7" d="M143.8,31.4h1.6v12.7h-1.6V31.4z"/>
				<path class="st7" d="M150,43.7c-0.7-0.4-1.3-1-1.7-1.7s-0.6-1.5-0.6-2.4c0-0.9,0.2-1.7,0.6-2.4s1-1.2,1.7-1.6
					c0.7-0.4,1.5-0.6,2.4-0.6c0.9,0,1.7,0.2,2.4,0.6c0.7,0.4,1.3,0.9,1.7,1.6c0.4,0.7,0.6,1.5,0.6,2.4c0,0.9-0.2,1.7-0.6,2.4
					c-0.4,0.7-1,1.3-1.7,1.7c-0.7,0.4-1.5,0.6-2.4,0.6C151.6,44.3,150.8,44.1,150,43.7z M154,42.4c0.5-0.3,0.8-0.6,1.1-1.1
					c0.3-0.5,0.4-1,0.4-1.7c0-0.6-0.1-1.2-0.4-1.7c-0.3-0.5-0.6-0.9-1.1-1.1c-0.5-0.3-1-0.4-1.6-0.4c-0.6,0-1.1,0.1-1.6,0.4
					c-0.5,0.3-0.8,0.6-1.1,1.1s-0.4,1-0.4,1.7c0,0.6,0.1,1.2,0.4,1.7c0.3,0.5,0.6,0.9,1.1,1.1c0.5,0.3,1,0.4,1.6,0.4
					C153.1,42.8,153.6,42.7,154,42.4z"/>
				<path class="st7" d="M172.1,35.1l-4,9.1h-1.7l-4-9.1h1.7l3.1,7.3l3.2-7.3H172.1z"/>
				<path class="st7" d="M179.5,35.9c0.7,0.6,1,1.5,1,2.8v5.5H179V43c-0.3,0.4-0.7,0.7-1.2,1c-0.5,0.2-1.1,0.3-1.8,0.3
					c-1,0-1.8-0.2-2.4-0.7c-0.6-0.5-0.9-1.1-0.9-1.9c0-0.8,0.3-1.4,0.9-1.9c0.6-0.5,1.5-0.7,2.8-0.7h2.6v-0.3c0-0.7-0.2-1.2-0.6-1.6
					s-1-0.6-1.8-0.6c-0.5,0-1.1,0.1-1.6,0.3c-0.5,0.2-0.9,0.4-1.3,0.7l-0.7-1.2c0.5-0.4,1-0.7,1.7-0.9c0.7-0.2,1.3-0.3,2.1-0.3
					C177.9,35,178.9,35.3,179.5,35.9z M177.9,42.6c0.5-0.3,0.8-0.7,1-1.2v-1.3h-2.5c-1.4,0-2.1,0.5-2.1,1.4c0,0.5,0.2,0.8,0.5,1.1
					c0.4,0.3,0.8,0.4,1.5,0.4S177.4,42.9,177.9,42.6z"/>
				<path class="st7" d="M192.3,35.1v7.8c0,1.6-0.4,2.8-1.2,3.5c-0.8,0.8-2,1.1-3.5,1.1c-0.9,0-1.7-0.1-2.4-0.4s-1.4-0.6-1.9-1
					l0.8-1.3c0.4,0.4,0.9,0.7,1.6,0.9c0.6,0.2,1.3,0.3,1.9,0.3c1.1,0,1.8-0.3,2.4-0.8c0.5-0.5,0.8-1.3,0.8-2.3v-0.7
					c-0.4,0.5-0.9,0.8-1.4,1.1c-0.6,0.2-1.2,0.4-1.8,0.4c-0.9,0-1.7-0.2-2.4-0.6s-1.3-0.9-1.7-1.6c-0.4-0.7-0.6-1.4-0.6-2.3
					s0.2-1.6,0.6-2.3c0.4-0.7,1-1.2,1.7-1.5c0.7-0.4,1.5-0.5,2.4-0.5c0.7,0,1.3,0.1,1.9,0.4s1.1,0.6,1.4,1.1v-1.4H192.3z M189.2,42
					c0.5-0.3,0.8-0.6,1.1-1.1s0.4-1,0.4-1.5c0-0.9-0.3-1.6-0.9-2.1c-0.6-0.5-1.3-0.8-2.2-0.8c-0.9,0-1.7,0.3-2.3,0.8
					c-0.6,0.5-0.9,1.3-0.9,2.1c0,0.6,0.1,1.1,0.4,1.5s0.6,0.8,1.1,1.1s1,0.4,1.6,0.4C188.2,42.3,188.7,42.2,189.2,42z"/>
				<path class="st7" d="M195.5,33c-0.2-0.2-0.3-0.5-0.3-0.8s0.1-0.6,0.3-0.8c0.2-0.2,0.5-0.3,0.8-0.3c0.3,0,0.6,0.1,0.8,0.3
					s0.3,0.4,0.3,0.7c0,0.3-0.1,0.6-0.3,0.8c-0.2,0.2-0.5,0.3-0.8,0.3C196,33.3,195.7,33.2,195.5,33z M195.5,35.1h1.6v9.1h-1.6V35.1
					z"/>
				<path class="st7" d="M207.8,36c0.7,0.7,1,1.6,1,2.9v5.2h-1.6v-5c0-0.9-0.2-1.5-0.6-2c-0.4-0.4-1-0.7-1.8-0.7
					c-0.9,0-1.6,0.3-2.1,0.8c-0.5,0.5-0.8,1.3-0.8,2.2v4.7h-1.6v-9.1h1.6v1.4c0.3-0.5,0.8-0.8,1.3-1.1s1.2-0.4,1.9-0.4
					C206.2,35,207.2,35.3,207.8,36z"/>
				<path class="st7" d="M218.1,35.9c0.7,0.6,1,1.5,1,2.8v5.5h-1.6V43c-0.3,0.4-0.7,0.7-1.2,1c-0.5,0.2-1.1,0.3-1.8,0.3
					c-1,0-1.8-0.2-2.4-0.7c-0.6-0.5-0.9-1.1-0.9-1.9c0-0.8,0.3-1.4,0.9-1.9c0.6-0.5,1.5-0.7,2.8-0.7h2.6v-0.3c0-0.7-0.2-1.2-0.6-1.6
					s-1-0.6-1.8-0.6c-0.5,0-1.1,0.1-1.6,0.3c-0.5,0.2-0.9,0.4-1.3,0.7l-0.7-1.2c0.5-0.4,1-0.7,1.7-0.9c0.7-0.2,1.3-0.3,2.1-0.3
					C216.5,35,217.4,35.3,218.1,35.9z M216.5,42.6c0.5-0.3,0.8-0.7,1-1.2v-1.3h-2.5c-1.4,0-2.1,0.5-2.1,1.4c0,0.5,0.2,0.8,0.5,1.1
					c0.4,0.3,0.8,0.4,1.5,0.4S216,42.9,216.5,42.6z"/>
				<path class="st7" d="M222.1,31.4h1.6v12.7h-1.6V31.4z"/>
			</g>
		</g>
		<g>
			<g>
				<path class="st7" d="M26.7,121.5C23.8,113,24,103.6,26.3,95c2.3-8.7,6.6-16.7,12-23.8c5.5-7.1,12.1-13.3,19.7-18.1
					c7.5-4.9,16-8.3,24.9-9.9l0.2,1C74.4,45.6,66,49,58.5,53.7C51,58.5,44.3,64.6,38.8,71.6s-9.8,15-12.1,23.6
					C24.3,103.7,24,113,26.7,121.5L26.7,121.5z"/>
			</g>
			<g>
				<polygon class="st7" points="72,61.1 90.2,41.4 90.4,42.2 61.7,32.7 61.8,32.3 90.7,41.3 91.5,41.5 90.9,42.1 72.2,61.3 				"/>
			</g>
		</g>
	</g>
</g>
</svg>
