<?xml version="1.0" encoding="utf-8"?>
<!-- Generator: Adobe Illustrator 25.4.1, SVG Export Plug-In . SVG Version: 6.00 Build 0)  -->
<svg version="1.1" id="Capa_1" xmlns="http://www.w3.org/2000/svg" xmlns:xlink="http://www.w3.org/1999/xlink" x="0px" y="0px"
	 viewBox="0 0 735 536" style="enable-background:new 0 0 735 536;" xml:space="preserve">
<style type="text/css">
	.st0{fill:#C5B2EB;}
	.st1{fill:none;stroke:#3F236C;stroke-width:0.509;stroke-linecap:round;stroke-linejoin:round;stroke-miterlimit:10;}
	.st2{fill:#3F236C;}
	.st3{fill:#FFF0F9;}
	.st4{fill:#FF90A5;}
	.st5{fill:#3C246F;}
</style>
<g>
	<g>
		<g>
			<g>
				<path class="st0" d="M458.4,397l-399.7-45c-12.6-1.4-21.7-12.8-20.3-25.4L67.1,72.1c1.4-12.6,12.8-21.7,25.4-20.3l399.7,45
					c12.6,1.4,21.7,12.8,20.3,25.4l-28.7,254.4C482.4,389.3,471,398.4,458.4,397z"/>
				<g>
					<g>
						<polyline class="st1" points="477.1,154.3 489.4,155.7 485.7,189 82.6,143.6 79.2,174 88.7,175 						"/>
						<polygon class="st2" points="86.5,170.3 85.5,179.5 94.1,175.5 						"/>
					</g>
					<g>
						<polyline class="st1" points="470,217.4 482.3,218.8 478.6,252.1 75.5,206.7 72,237.1 81.6,238.1 						"/>
						<polygon class="st2" points="79.4,233.4 78.4,242.6 86.9,238.6 						"/>
					</g>
					<g>
						<polyline class="st1" points="463.4,276.3 475.7,277.7 471.9,311 68.8,265.6 65.4,296 74.9,297.1 						"/>
						<polygon class="st2" points="72.8,292.3 71.7,301.6 80.3,297.5 						"/>
					</g>
				</g>
				<g>
					<polygon class="st2" points="86.1,103.2 84.8,114.8 95.6,109.7 					"/>
					<g>
						<path class="st3" d="M92.5,80.8c-0.1-0.1-0.2-0.2-0.4-0.4s-0.3-0.2-0.5-0.3c-0.2-0.1-0.4-0.2-0.6-0.3
							c-0.2-0.1-0.5-0.1-0.7-0.2c-0.7-0.1-1.2,0-1.5,0.2c-0.3,0.2-0.5,0.5-0.6,1c0,0.2,0,0.4,0.1,0.6c0.1,0.2,0.2,0.3,0.4,0.4
							c0.2,0.1,0.4,0.3,0.7,0.4c0.3,0.1,0.6,0.2,1,0.4c0.4,0.1,0.8,0.3,1.2,0.5c0.3,0.2,0.6,0.4,0.9,0.6c0.2,0.2,0.4,0.5,0.5,0.7
							c0.1,0.3,0.1,0.6,0.1,1c0,0.4-0.2,0.8-0.4,1c-0.2,0.3-0.4,0.5-0.7,0.7c-0.3,0.2-0.6,0.3-1,0.3c-0.4,0.1-0.8,0.1-1.2,0
							c-0.7-0.1-1.3-0.2-1.8-0.5c-0.6-0.3-1.1-0.6-1.5-1.1l0.6-0.9c0.1,0.2,0.3,0.3,0.5,0.5c0.2,0.2,0.4,0.3,0.7,0.4
							c0.2,0.1,0.5,0.3,0.8,0.4c0.3,0.1,0.6,0.2,0.9,0.2c0.6,0.1,1.1,0,1.5-0.2c0.4-0.2,0.6-0.5,0.6-0.9c0-0.2,0-0.4-0.1-0.6
							c-0.1-0.2-0.2-0.3-0.4-0.5c-0.2-0.1-0.4-0.3-0.7-0.4c-0.3-0.1-0.6-0.3-1-0.4c-0.4-0.2-0.8-0.3-1.1-0.5
							c-0.3-0.2-0.6-0.3-0.8-0.5c-0.2-0.2-0.3-0.4-0.4-0.7C87,81.5,87,81.2,87,80.9c0-0.4,0.2-0.8,0.4-1.1c0.2-0.3,0.4-0.5,0.7-0.7
							c0.3-0.2,0.6-0.3,1-0.4c0.4-0.1,0.8-0.1,1.3,0c0.6,0.1,1.1,0.2,1.5,0.4c0.4,0.2,0.8,0.5,1.2,0.9L92.5,80.8z"/>
						<path class="st3" d="M102.2,81.1l-3-0.3l-0.9,7.6l-1.1-0.1l0.9-7.6l-3-0.3l0.1-1l7,0.8L102.2,81.1z"/>
						<path class="st3" d="M102.1,88.8l4.5-8.2l0.9,0.1l2.5,9l-1.2-0.1l-0.7-2.6l-3.6-0.4l-1.3,2.4L102.1,88.8z M106.9,81.9l-2,3.8
							L108,86L106.9,81.9z"/>
						<path class="st3" d="M112.4,89.9l1-8.6l3.7,0.4c0.4,0,0.7,0.2,1,0.4c0.3,0.2,0.6,0.4,0.8,0.7c0.2,0.3,0.3,0.6,0.4,0.9
							c0.1,0.3,0.1,0.7,0.1,1c0,0.3-0.1,0.6-0.2,0.8c-0.1,0.3-0.3,0.5-0.4,0.7c-0.2,0.2-0.4,0.4-0.6,0.5c-0.2,0.1-0.5,0.2-0.8,0.3
							l1.7,3.5l-1.2-0.1l-1.6-3.3l-2.3-0.3l-0.3,3.1L112.4,89.9z M113.9,86l2.6,0.3c0.2,0,0.4,0,0.6-0.1c0.2-0.1,0.4-0.2,0.5-0.3
							c0.1-0.1,0.3-0.3,0.4-0.5c0.1-0.2,0.2-0.4,0.2-0.7c0-0.2,0-0.5-0.1-0.7c-0.1-0.2-0.2-0.4-0.3-0.6c-0.1-0.2-0.3-0.3-0.5-0.4
							c-0.2-0.1-0.4-0.2-0.6-0.2l-2.5-0.3L113.9,86z"/>
						<path class="st3" d="M128.5,84.1l-3-0.3l-0.9,7.6l-1.1-0.1l0.9-7.6l-3-0.3l0.1-1l7,0.8L128.5,84.1z"/>
					</g>
				</g>
				<g>
					<g>
						<g>
							<path class="st4" d="M134.6,115.7c-1,8.7-8.8,14.9-17.5,13.9c-8.7-1-14.9-8.8-13.9-17.5c1-8.7,8.8-14.9,17.5-13.9
								C129.4,99.2,135.6,107,134.6,115.7z"/>
							<path class="st4" d="M191.7,122.1c-1,8.7-8.8,14.9-17.5,13.9c-8.7-1-14.9-8.8-13.9-17.5c1-8.7,8.8-14.9,17.5-13.9
								C186.4,105.6,192.7,113.5,191.7,122.1z"/>
							<path class="st4" d="M248.8,128.6c-1,8.7-8.8,14.9-17.5,13.9c-8.7-1-14.9-8.8-13.9-17.5c1-8.7,8.8-14.9,17.5-13.9
								C243.5,112.1,249.8,119.9,248.8,128.6z"/>
							<path class="st4" d="M305.9,135c-1,8.7-8.8,14.9-17.5,13.9c-8.7-1-14.9-8.8-13.9-17.5c1-8.7,8.8-14.9,17.5-13.9
								C300.6,118.5,306.9,126.3,305.9,135z"/>
							<path class="st4" d="M363,141.4c-1,8.7-8.8,14.9-17.5,13.9c-8.7-1-14.9-8.8-13.9-17.5c1-8.7,8.8-14.9,17.5-13.9
								C357.7,124.9,363.9,132.7,363,141.4z"/>
							<path class="st4" d="M420,147.9c-1,8.7-8.8,14.9-17.5,13.9c-8.7-1-14.9-8.8-13.9-17.5c1-8.7,8.8-14.9,17.5-13.9
								C414.8,131.3,421,139.2,420,147.9z"/>
							<path class="st4" d="M477.1,154.3c-1,8.7-8.8,14.9-17.5,13.9s-14.9-8.8-13.9-17.5c1-8.7,8.8-14.9,17.5-13.9
								C471.9,137.8,478.1,145.6,477.1,154.3z"/>
						</g>
						<g>
							<path class="st4" d="M127.8,176.6c-1,8.7-8.8,14.9-17.5,13.9c-8.7-1-14.9-8.8-13.9-17.5c1-8.7,8.8-14.9,17.5-13.9
								S128.7,167.9,127.8,176.6z"/>
							<path class="st4" d="M184.9,183c-1,8.7-8.8,14.9-17.5,13.9c-8.7-1-14.9-8.8-13.9-17.5c1-8.7,8.8-14.9,17.5-13.9
								C179.6,166.5,185.8,174.4,184.9,183z"/>
							<path class="st4" d="M241.9,189.5c-1,8.7-8.8,14.9-17.5,13.9c-8.7-1-14.9-8.8-13.9-17.5c1-8.7,8.8-14.9,17.5-13.9
								C236.7,173,242.9,180.8,241.9,189.5z"/>
							<path class="st4" d="M299,195.9c-1,8.7-8.8,14.9-17.5,13.9c-8.7-1-14.9-8.8-13.9-17.5c1-8.7,8.8-14.9,17.5-13.9
								C293.8,179.4,300,187.2,299,195.9z"/>
							<path class="st4" d="M356.1,202.3c-1,8.7-8.8,14.9-17.5,13.9c-8.7-1-14.9-8.8-13.9-17.5c1-8.7,8.8-14.9,17.5-13.9
								C350.8,185.8,357.1,193.7,356.1,202.3z"/>
							<path class="st4" d="M413.2,208.8c-1,8.7-8.8,14.9-17.5,13.9c-8.7-1-14.9-8.8-13.9-17.5c1-8.7,8.8-14.9,17.5-13.9
								C407.9,192.2,414.2,200.1,413.2,208.8z"/>
							<path class="st4" d="M470.3,215.2c-1,8.7-8.8,14.9-17.5,13.9c-8.7-1-14.9-8.8-13.9-17.5c1-8.7,8.8-14.9,17.5-13.9
								C465,198.7,471.2,206.5,470.3,215.2z"/>
						</g>
						<g>
							<path class="st4" d="M120.9,237.5c-1,8.7-8.8,14.9-17.5,13.9c-8.7-1-14.9-8.8-13.9-17.5c1-8.7,8.8-14.9,17.5-13.9
								C115.6,221,121.9,228.8,120.9,237.5z"/>
							<path class="st4" d="M178,244c-1,8.7-8.8,14.9-17.5,13.9c-8.7-1-14.9-8.8-13.9-17.5c1-8.7,8.8-14.9,17.5-13.9
								C172.7,227.4,179,235.3,178,244z"/>
							<path class="st4" d="M235.1,250.4c-1,8.7-8.8,14.9-17.5,13.9c-8.7-1-14.9-8.8-13.9-17.5c1-8.7,8.8-14.9,17.5-13.9
								C229.8,233.9,236.1,241.7,235.1,250.4z"/>
							<path class="st4" d="M292.2,256.8c-1,8.7-8.8,14.9-17.5,13.9c-8.7-1-14.9-8.8-13.9-17.5c1-8.7,8.8-14.9,17.5-13.9
								C286.9,240.3,293.1,248.1,292.2,256.8z"/>
							<path class="st4" d="M349.2,263.2c-1,8.7-8.8,14.9-17.5,13.9c-8.7-1-14.9-8.8-13.9-17.5c1-8.7,8.8-14.9,17.5-13.9
								C344,246.7,350.2,254.6,349.2,263.2z"/>
							<path class="st4" d="M406.3,269.7c-1,8.7-8.8,14.9-17.5,13.9c-8.7-1-14.9-8.8-13.9-17.5c1-8.7,8.8-14.9,17.5-13.9
								S407.3,261,406.3,269.7z"/>
							<path class="st4" d="M463.4,276.1c-1,8.7-8.8,14.9-17.5,13.9c-8.7-1-14.9-8.8-13.9-17.5c1-8.7,8.8-14.9,17.5-13.9
								C458.1,259.6,464.4,267.4,463.4,276.1z"/>
						</g>
					</g>
					<g>
						<path class="st3" d="M116.4,300.6c-1,8.7-8.8,14.9-17.5,13.9c-8.7-1-14.9-8.8-13.9-17.5c1-8.7,8.8-14.9,17.5-13.9
							C111.1,284,117.4,291.9,116.4,300.6z"/>
						<path class="st3" d="M171.1,304.9c-1,8.7-8.8,14.9-17.5,13.9c-8.7-1-14.9-8.8-13.9-17.5s8.8-14.9,17.5-13.9
							C165.9,288.3,172.1,296.2,171.1,304.9z"/>
						<path class="st3" d="M228.2,311.3c-1,8.7-8.8,14.9-17.5,13.9c-8.7-1-14.9-8.8-13.9-17.5c1-8.7,8.8-14.9,17.5-13.9
							C222.9,294.8,229.2,302.6,228.2,311.3z"/>
						<path class="st3" d="M285.3,317.7c-1,8.7-8.8,14.9-17.5,13.9c-8.7-1-14.9-8.8-13.9-17.5c1-8.7,8.8-14.9,17.5-13.9
							C280,301.2,286.3,309,285.3,317.7z"/>
						<path class="st3" d="M342.4,324.1c-1,8.7-8.8,14.9-17.5,13.9c-8.7-1-14.9-8.8-13.9-17.5c1-8.7,8.8-14.9,17.5-13.9
							C337.1,307.6,343.4,315.5,342.4,324.1z"/>
						<path class="st3" d="M399.5,330.6c-1,8.7-8.8,14.9-17.5,13.9c-8.7-1-14.9-8.8-13.9-17.5c1-8.7,8.8-14.9,17.5-13.9
							C394.2,314.1,400.4,321.9,399.5,330.6z"/>
						<path class="st3" d="M456.5,337c-1,8.7-8.8,14.9-17.5,13.9c-8.7-1-14.9-8.8-13.9-17.5c1-8.7,8.8-14.9,17.5-13.9
							C451.3,320.5,457.5,328.3,456.5,337z"/>
					</g>
				</g>
			</g>
		</g>
	</g>
	<g>
		<g>
			<g>
				<path class="st5" d="M508.7,361.5c6.7,3.8,12.3,9.4,16.4,16c4.1,6.6,6.6,14.1,7.5,21.7c0.9,7.7,0.3,15.6-2.2,22.9
					c-2.4,7.4-6.6,14.2-12.2,19.5l-0.7-0.7c5.6-5.2,9.8-11.8,12.2-19.1c2.4-7.2,3.2-15,2.3-22.6c-0.8-7.6-3.3-15-7.3-21.6
					c-4-6.6-9.5-12.2-16.2-16L508.7,361.5z"/>
			</g>
			<g>
				<polygon class="st5" points="514.6,424.2 514.1,446.3 513.4,445.8 540.7,438.7 540.8,439 513.7,446.8 513,447 513.1,446.3 
					514.3,424.2 				"/>
			</g>
		</g>
		<g>
			<g>
				<path class="st5" d="M229.8,481.8l-14.7,0l-3,6.9l-4.1,0l12.5-27.6l3.9,0l12.5,27.6l-4.1,0L229.8,481.8z M228.4,478.6l-6-13.5
					l-6,13.5L228.4,478.6z"/>
				<path class="st5" d="M260,469.9c1.6,1.5,2.3,3.8,2.3,6.8l0,12l-3.8,0l0-11.6c0-2-0.5-3.6-1.5-4.6c-1-1-2.4-1.5-4.2-1.5
					c-2.1,0-3.7,0.6-4.9,1.8c-1.2,1.2-1.8,2.9-1.8,5.2l0,10.8l-3.8,0l0-20.9l3.6,0l0,3.2c0.8-1.1,1.8-1.9,3.1-2.5
					c1.3-0.6,2.8-0.9,4.4-0.9C256.4,467.6,258.5,468.4,260,469.9z"/>
				<path class="st5" d="M283.1,487.5c-0.6,0.5-1.2,0.8-2.1,1.1c-0.8,0.2-1.7,0.4-2.5,0.4c-2.1,0-3.7-0.6-4.9-1.7
					c-1.2-1.1-1.7-2.8-1.7-4.9l0-11.5l-3.6,0l0-3.1l3.6,0l0-4.6l3.8,0l0,4.6l6,0l0,3.1l-6,0l0,11.3c0,1.1,0.3,2,0.8,2.6
					c0.6,0.6,1.4,0.9,2.4,0.9c1.2,0,2.1-0.3,3-1L283.1,487.5z"/>
				<path class="st5" d="M289.8,463.1c-0.5-0.5-0.7-1.1-0.7-1.7c0-0.7,0.2-1.3,0.7-1.8c0.5-0.5,1.1-0.7,1.8-0.7
					c0.7,0,1.3,0.2,1.8,0.7c0.5,0.5,0.7,1,0.7,1.7c0,0.7-0.2,1.3-0.7,1.8c-0.5,0.5-1.1,0.7-1.8,0.7
					C290.9,463.8,290.3,463.6,289.8,463.1z M289.7,467.8l3.8,0l0,20.9l-3.8,0L289.7,467.8z"/>
				<path class="st5" d="M306.1,487.6c-1.7-0.9-3-2.2-3.9-3.8c-0.9-1.6-1.4-3.5-1.4-5.5c0-2.1,0.5-3.9,1.4-5.5
					c0.9-1.6,2.3-2.9,3.9-3.8c1.7-0.9,3.6-1.4,5.7-1.4c1.9,0,3.6,0.4,5.1,1.1c1.5,0.8,2.6,1.9,3.5,3.3l-2.9,1.9
					c-0.7-1-1.5-1.8-2.4-2.3c-1-0.5-2.1-0.8-3.2-0.8c-1.4,0-2.6,0.3-3.7,0.9c-1.1,0.6-1.9,1.5-2.6,2.6c-0.6,1.1-0.9,2.4-0.9,3.8
					c0,1.5,0.3,2.8,0.9,3.9s1.5,2,2.6,2.6c1.1,0.6,2.3,0.9,3.7,0.9c1.2,0,2.3-0.2,3.2-0.7c1-0.5,1.8-1.2,2.4-2.2l2.9,1.8
					c-0.8,1.4-2,2.6-3.5,3.3c-1.5,0.8-3.2,1.2-5.1,1.2C309.7,489,307.8,488.5,306.1,487.6z"/>
				<path class="st5" d="M330.2,487.6c-1.7-0.9-3-2.2-3.9-3.8c-0.9-1.6-1.4-3.5-1.4-5.5c0-2.1,0.5-3.9,1.4-5.5
					c0.9-1.6,2.2-2.9,3.9-3.8c1.7-0.9,3.5-1.4,5.6-1.4c2.1,0,3.9,0.5,5.6,1.4c1.6,0.9,2.9,2.2,3.9,3.8c0.9,1.6,1.4,3.5,1.4,5.5
					c0,2.1-0.5,3.9-1.4,5.5c-0.9,1.6-2.2,2.9-3.9,3.8c-1.6,0.9-3.5,1.4-5.6,1.4C333.8,489,331.9,488.6,330.2,487.6z M339.5,484.8
					c1.1-0.6,1.9-1.5,2.5-2.6c0.6-1.1,0.9-2.4,0.9-3.8c0-1.4-0.3-2.7-0.9-3.9c-0.6-1.1-1.4-2-2.5-2.6c-1.1-0.6-2.3-0.9-3.6-0.9
					c-1.3,0-2.5,0.3-3.6,0.9c-1.1,0.6-1.9,1.5-2.5,2.6c-0.6,1.1-0.9,2.4-0.9,3.8c0,1.4,0.3,2.7,0.9,3.9c0.6,1.1,1.5,2,2.5,2.6
					c1.1,0.6,2.3,0.9,3.6,0.9C337.2,485.7,338.4,485.4,339.5,484.8z"/>
				<path class="st5" d="M371.5,470c1.6,1.5,2.3,3.8,2.3,6.8l0,12l-3.8,0l0-11.6c0-2-0.5-3.6-1.5-4.6c-1-1-2.4-1.5-4.2-1.5
					c-2.1,0-3.7,0.6-4.9,1.8c-1.2,1.2-1.8,2.9-1.8,5.2l0,10.8l-3.8,0l0-20.9l3.6,0l0,3.2c0.8-1.1,1.8-1.9,3.1-2.5
					c1.3-0.6,2.8-0.9,4.4-0.9C367.8,467.7,369.9,468.4,371.5,470z"/>
				<path class="st5" d="M386.3,487.7c-1.7-0.9-3-2.2-3.9-3.8c-0.9-1.6-1.4-3.5-1.4-5.5c0-2.1,0.5-3.9,1.4-5.5
					c0.9-1.6,2.3-2.9,3.9-3.8c1.7-0.9,3.6-1.4,5.7-1.4c1.9,0,3.6,0.4,5.1,1.1c1.5,0.8,2.6,1.9,3.5,3.3l-2.9,1.9
					c-0.7-1-1.5-1.8-2.4-2.3c-1-0.5-2.1-0.8-3.2-0.8c-1.4,0-2.6,0.3-3.7,0.9c-1.1,0.6-1.9,1.5-2.6,2.6c-0.6,1.1-0.9,2.4-0.9,3.9
					c0,1.5,0.3,2.8,0.9,3.9c0.6,1.1,1.5,2,2.6,2.6c1.1,0.6,2.3,0.9,3.7,0.9c1.2,0,2.3-0.2,3.2-0.7c1-0.5,1.8-1.2,2.4-2.3l2.9,1.8
					c-0.8,1.4-2,2.6-3.5,3.3c-1.5,0.8-3.2,1.2-5.1,1.2C389.9,489,388,488.6,386.3,487.7z"/>
				<path class="st5" d="M426,479.6l-17,0c0.2,1.8,1,3.3,2.4,4.4c1.4,1.1,3.1,1.7,5.2,1.7c2.5,0,4.5-0.8,6-2.5l2.1,2.4
					c-1,1.1-2.1,1.9-3.5,2.5c-1.4,0.6-3,0.9-4.7,0.9c-2.2,0-4.2-0.5-5.9-1.4c-1.7-0.9-3-2.2-4-3.8c-0.9-1.6-1.4-3.5-1.4-5.5
					c0-2,0.5-3.9,1.4-5.5c0.9-1.6,2.2-2.9,3.8-3.8c1.6-0.9,3.4-1.4,5.4-1.4c2,0,3.8,0.5,5.3,1.4c1.6,0.9,2.8,2.2,3.7,3.8
					c0.9,1.6,1.3,3.5,1.3,5.6C426,478.8,426,479.2,426,479.6z M411.1,472.5c-1.2,1.1-1.9,2.6-2.2,4.3l13.4,0
					c-0.2-1.8-0.9-3.2-2.2-4.3c-1.2-1.1-2.7-1.7-4.6-1.7C413.9,470.9,412.4,471.4,411.1,472.5z"/>
				<path class="st5" d="M449.8,469.1c1.6,0.9,2.9,2.1,3.8,3.8c0.9,1.6,1.4,3.5,1.4,5.6c0,2.1-0.5,4-1.4,5.6
					c-0.9,1.6-2.2,2.9-3.8,3.8s-3.4,1.3-5.4,1.3c-1.5,0-2.9-0.3-4.1-0.9c-1.2-0.6-2.3-1.4-3.2-2.5l0,10.8l-3.8,0l0-28.6l3.6,0l0,3.3
					c0.8-1.2,1.9-2,3.2-2.6c1.3-0.6,2.7-0.9,4.3-0.9C446.4,467.7,448.2,468.2,449.8,469.1z M447.7,484.8c1.1-0.6,1.9-1.5,2.5-2.6
					c0.6-1.1,0.9-2.4,0.9-3.8c0-1.4-0.3-2.7-0.9-3.9c-0.6-1.1-1.5-2-2.5-2.6c-1.1-0.6-2.3-0.9-3.6-0.9c-1.3,0-2.5,0.3-3.6,0.9
					c-1.1,0.6-1.9,1.5-2.5,2.6c-0.6,1.1-0.9,2.4-0.9,3.8c0,1.4,0.3,2.7,0.9,3.9c0.6,1.1,1.4,2,2.5,2.6c1.1,0.6,2.3,0.9,3.6,0.9
					C445.4,485.8,446.6,485.4,447.7,484.8z"/>
				<path class="st5" d="M473.9,487.6c-0.6,0.5-1.2,0.8-2.1,1.1c-0.8,0.2-1.7,0.4-2.5,0.4c-2.1,0-3.7-0.6-4.9-1.7
					c-1.2-1.1-1.7-2.8-1.7-4.9l0-11.5l-3.6,0l0-3.1l3.6,0l0-4.6l3.8,0l0,4.6l6,0l0,3.1l-6,0l0,11.3c0,1.1,0.3,2,0.8,2.6
					c0.6,0.6,1.4,0.9,2.4,0.9c1.2,0,2.1-0.3,3-1L473.9,487.6z"/>
				<path class="st5" d="M480.6,463.2c-0.5-0.5-0.7-1.1-0.7-1.7c0-0.7,0.2-1.3,0.7-1.8s1.1-0.7,1.8-0.7c0.7,0,1.3,0.2,1.8,0.7
					c0.5,0.5,0.7,1,0.7,1.7c0,0.7-0.2,1.3-0.7,1.8c-0.5,0.5-1.1,0.7-1.8,0.7C481.7,463.9,481.1,463.7,480.6,463.2z M480.5,467.9
					l3.8,0l0,20.9l-3.8,0L480.5,467.9z"/>
				<path class="st5" d="M512,467.9l-9.2,20.9l-3.9,0l-9.2-20.9l3.9,0l7.2,16.8l7.4-16.8L512,467.9z"/>
				<path class="st5" d="M520.3,487.7c-1.7-0.9-3-2.2-3.9-3.8c-0.9-1.6-1.4-3.5-1.4-5.5c0-2.1,0.5-3.9,1.4-5.5
					c0.9-1.6,2.2-2.9,3.9-3.8c1.7-0.9,3.5-1.4,5.6-1.4c2.1,0,3.9,0.5,5.6,1.4c1.6,0.9,2.9,2.2,3.9,3.8c0.9,1.6,1.4,3.5,1.4,5.5
					c0,2.1-0.5,3.9-1.4,5.5c-0.9,1.6-2.2,2.9-3.9,3.8c-1.6,0.9-3.5,1.4-5.6,1.4C523.8,489.1,522,488.7,520.3,487.7z M529.5,484.9
					c1.1-0.6,1.9-1.5,2.5-2.6c0.6-1.1,0.9-2.4,0.9-3.9c0-1.4-0.3-2.7-0.9-3.9c-0.6-1.1-1.4-2-2.5-2.6c-1.1-0.6-2.3-0.9-3.6-0.9
					c-1.3,0-2.5,0.3-3.6,0.9c-1.1,0.6-1.9,1.5-2.5,2.6c-0.6,1.1-0.9,2.4-0.9,3.8c0,1.4,0.3,2.7,0.9,3.9c0.6,1.1,1.5,2,2.5,2.6
					c1.1,0.6,2.3,0.9,3.6,0.9C527.2,485.8,528.5,485.5,529.5,484.9z"/>
				<path class="st5" d="M545.1,488.4c-1.6-0.5-2.8-1-3.7-1.8l1.6-3c0.9,0.7,2,1.2,3.4,1.6c1.3,0.4,2.6,0.6,4,0.6c3.3,0,5-0.9,5-2.8
					c0-0.6-0.2-1.1-0.7-1.5c-0.4-0.4-1-0.6-1.7-0.8c-0.7-0.2-1.6-0.4-2.9-0.6c-1.7-0.3-3.1-0.6-4.1-0.9c-1.1-0.3-2-0.9-2.7-1.7
					c-0.8-0.8-1.1-2-1.1-3.4c0-1.9,0.8-3.4,2.4-4.6c1.6-1.1,3.7-1.7,6.4-1.7c1.4,0,2.8,0.2,4.2,0.5c1.4,0.3,2.5,0.8,3.4,1.4l-1.6,3
					c-1.7-1.1-3.7-1.7-6-1.7c-1.6,0-2.8,0.3-3.7,0.8c-0.8,0.5-1.3,1.2-1.3,2.1c0,0.7,0.2,1.2,0.7,1.6c0.5,0.4,1.1,0.7,1.8,0.9
					c0.7,0.2,1.7,0.4,2.9,0.6c1.7,0.3,3,0.6,4.1,0.9c1,0.3,1.9,0.9,2.7,1.7c0.7,0.8,1.1,1.9,1.1,3.3c0,1.9-0.8,3.4-2.4,4.5
					c-1.6,1.1-3.8,1.7-6.6,1.7C548.3,489.1,546.6,488.9,545.1,488.4z"/>
				<path class="st5" d="M581.7,487.8c-1.7-0.9-3-2.2-3.9-3.8c-0.9-1.6-1.4-3.5-1.4-5.5c0-2.1,0.5-3.9,1.4-5.5
					c0.9-1.6,2.2-2.9,3.9-3.8c1.7-0.9,3.5-1.4,5.6-1.4c2.1,0,3.9,0.5,5.6,1.4c1.6,0.9,2.9,2.2,3.9,3.8c0.9,1.6,1.4,3.5,1.4,5.5
					c0,2.1-0.5,3.9-1.4,5.5c-0.9,1.6-2.2,2.9-3.9,3.8c-1.6,0.9-3.5,1.4-5.6,1.4C585.2,489.1,583.4,488.7,581.7,487.8z M590.9,484.9
					c1.1-0.6,1.9-1.5,2.5-2.6c0.6-1.1,0.9-2.4,0.9-3.9c0-1.4-0.3-2.7-0.9-3.9c-0.6-1.1-1.4-2-2.5-2.6c-1.1-0.6-2.3-0.9-3.6-0.9
					c-1.3,0-2.5,0.3-3.6,0.9c-1.1,0.6-1.9,1.5-2.5,2.6c-0.6,1.1-0.9,2.4-0.9,3.9c0,1.4,0.3,2.7,0.9,3.9c0.6,1.1,1.5,2,2.5,2.6
					c1.1,0.6,2.3,0.9,3.6,0.9S589.9,485.5,590.9,484.9z"/>
				<path class="st5" d="M612,468.7c1.3-0.6,2.9-0.9,4.7-0.9l0,3.7c-0.2,0-0.5,0-0.9,0c-2.1,0-3.7,0.6-4.8,1.8
					c-1.2,1.2-1.8,3-1.8,5.2l0,10.4l-3.8,0l0-20.9l3.6,0l0,3.5C609.7,470.3,610.7,469.4,612,468.7z"/>
				<path class="st5" d="M637.5,469.9c1.5,1.4,2.3,3.5,2.3,6.4l0,12.6l-3.6,0v-2.8c-0.6,1-1.5,1.7-2.7,2.2c-1.2,0.5-2.6,0.8-4.2,0.8
					c-2.3,0-4.2-0.6-5.6-1.7c-1.4-1.1-2.1-2.6-2.1-4.5c0-1.8,0.7-3.3,2-4.4c1.3-1.1,3.5-1.7,6.4-1.7l6,0v-0.7c0-1.6-0.5-2.9-1.4-3.8
					c-0.9-0.9-2.3-1.3-4.2-1.3c-1.2,0-2.4,0.2-3.6,0.6c-1.2,0.4-2.2,1-3,1.6l-1.6-2.8c1.1-0.9,2.4-1.5,3.9-2
					c1.5-0.5,3.1-0.7,4.8-0.7C633.8,467.8,636,468.5,637.5,469.9z M633.7,485.3c1.1-0.6,1.8-1.6,2.3-2.7l0-2.9l-5.8,0
					c-3.2,0-4.8,1.1-4.8,3.2c0,1.1,0.4,1.9,1.2,2.5c0.8,0.6,1.9,0.9,3.4,0.9C631.4,486.3,632.7,485.9,633.7,485.3z"/>
				<path class="st5" d="M648.8,459.6l3.8,0l0,29.3l-3.8,0L648.8,459.6z"/>
				<path class="st5" d="M680.7,479.8l-17,0c0.2,1.8,1,3.3,2.4,4.4c1.4,1.1,3.1,1.7,5.2,1.7c2.5,0,4.5-0.8,6-2.5l2.1,2.4
					c-1,1.1-2.1,1.9-3.5,2.5c-1.4,0.6-3,0.9-4.7,0.9c-2.2,0-4.2-0.5-5.9-1.4c-1.7-0.9-3-2.2-4-3.8c-0.9-1.6-1.4-3.5-1.4-5.5
					c0-2,0.5-3.9,1.4-5.5c0.9-1.6,2.2-2.9,3.8-3.8c1.6-0.9,3.4-1.4,5.4-1.4c2,0,3.8,0.5,5.3,1.4c1.6,0.9,2.8,2.2,3.7,3.8
					c0.9,1.6,1.3,3.5,1.3,5.6C680.7,478.9,680.7,479.3,680.7,479.8z M665.8,472.7c-1.2,1.1-1.9,2.6-2.2,4.3l13.4,0
					c-0.2-1.8-0.9-3.2-2.2-4.3c-1.2-1.1-2.7-1.7-4.6-1.7C668.6,471,667.1,471.6,665.8,472.7z"/>
				<path class="st5" d="M689,488.5c-1.6-0.5-2.8-1-3.7-1.8l1.6-3c0.9,0.7,2,1.2,3.4,1.6c1.3,0.4,2.6,0.6,4,0.6c3.3,0,5-0.9,5-2.8
					c0-0.6-0.2-1.1-0.7-1.5c-0.4-0.4-1-0.6-1.7-0.8c-0.7-0.2-1.6-0.4-2.9-0.6c-1.7-0.3-3.1-0.6-4.1-0.9c-1.1-0.3-2-0.9-2.7-1.7
					c-0.8-0.8-1.1-2-1.1-3.4c0-1.9,0.8-3.4,2.4-4.6c1.6-1.1,3.7-1.7,6.4-1.7c1.4,0,2.8,0.2,4.2,0.5c1.4,0.3,2.5,0.8,3.4,1.4l-1.6,3
					c-1.7-1.1-3.7-1.7-6-1.7c-1.6,0-2.8,0.3-3.7,0.8c-0.8,0.5-1.3,1.2-1.3,2.1c0,0.7,0.2,1.2,0.7,1.6c0.5,0.4,1.1,0.7,1.8,0.9
					c0.7,0.2,1.7,0.4,2.9,0.6c1.7,0.3,3,0.6,4.1,0.9c1,0.3,1.9,0.9,2.7,1.7c0.7,0.8,1.1,1.9,1.1,3.3c0,1.9-0.8,3.4-2.4,4.5
					c-1.6,1.1-3.8,1.7-6.6,1.7C692.2,489.2,690.6,489,689,488.5z"/>
			</g>
		</g>
	</g>
</g>
</svg>
