<?xml version="1.0" encoding="utf-8"?>
<!-- Generator: Adobe Illustrator 25.4.1, SVG Export Plug-In . SVG Version: 6.00 Build 0)  -->
<svg version="1.1" id="Capa_1" xmlns="http://www.w3.org/2000/svg" xmlns:xlink="http://www.w3.org/1999/xlink" x="0px" y="0px"
	 viewBox="0 0 1080 947" style="enable-background:new 0 0 1080 947;" xml:space="preserve">
<style type="text/css">
	.st0{fill:#85B4B4;}
	.st1{fill:#CDDEDF;}
	.st2{fill:#FFFFFF;}
	.st3{fill:#689594;}
	.st4{fill:#FF346F;}
	.st5{fill:#51A9D9;}
	.st6{fill:#AC3301;}
	.st7{fill:#EC7E56;}
</style>
<g>
	<path class="st0" d="M582.4,439.3c-0.3-14.5-3.7-28.5-6.4-42.6c-3.9-19.5-8.2-38.9-10.6-58.7c-3.2-27-4.9-54.1-2.9-81.3
		c2.4-31.7,8.6-62.7,19.1-92.7c8.8-25.1,24.2-45.8,42.9-64.3c2.5-2.5,3.2-2.5,6-0.5c1.8,1.2,3.6,2.5,5.2,3.9c2.4,2,3,3.9,1.7,6.9
		c-2.1,4.8-4.4,9.5-6.7,14.2c-11.8,23.9-21,48.9-27.5,74.7c-6.2,24.7-7,49.9-3.7,75.3c3.4,26.4,9.8,52.2,17.4,77.7
		c8.1,27.3,12,55.3,13.2,83.7c0.6,12.4-1.5,24.6-4,36.7c-3.5,16.5-7.8,32.8-13.6,48.6c-10.2,27.7-26.6,51.1-47.7,71.6
		c-13.2,12.9-26.4,25.7-41,37.2c-3.1,2.4-6.3,4.7-9.3,7.2c-2.5,2-5.1,2.6-8.1,1.6c-1.8-0.6-3.7-1-5.4-1.7c-2.2-0.9-3.7-0.4-5.3,1.4
		c-2.5,2.8-5.3,5.4-7.9,8.2c-1.9,2.1-4.2,2.8-7,2.4c-14.1-2-28.1-4.3-41.9-7.8c-15.1-3.9-30.5-5.9-45.9-7.7
		c-19.2-2.3-38.5-3.1-57.8-4.6c-25.5-2-50.9-4.3-76.4-6.9c-32.4-3.4-64.2-10.5-95.3-20.1c-23.6-7.3-47.3-14-71.3-19.7
		c-19.6-4.7-39-10.5-57.6-18.3c-1.2-0.5-2.4-1-3.5-1.8c-2.2-1.5-2.9-3.3-1.8-5.7c3-6.6,5.6-13.4,9.2-19.7c2.1-3.6,3.8-4.3,7.5-2.7
		c29.9,12.5,61.1,21.3,92,30.9c25.8,7.9,52.1,12.9,78.6,17.2c16.9,2.8,33.8,5.6,50.7,8.3c33.1,5.2,66,12,99.2,16.8
		c23.9,3.4,47.6,7.8,71.3,11.9c9.4,1.6,19,2.7,28.5,3.9c1.7,0.2,3.5,0.2,5.2,0.2c7.6,0.2,14-2.3,19.5-7.9
		c10.3-10.7,20.5-21.4,29.7-33c8.3-10.5,16.6-21,24.6-31.7c13.8-18.5,24.2-38.6,30.2-60.9c3.5-12.8,4.8-26,6.6-39.1
		C582.8,446.6,582.4,442.9,582.4,439.3z"/>
	<path class="st1" d="M191.1,48.1c12.4-0.2,24.6,1.8,36.9,3c10.5,1,21.1,2.1,31.7,3c17.1,1.5,34.2,2.8,51.2,4.2
		c11.4,0.9,22.9,1.9,34.3,2.8c17.8,1.4,35.5,3.6,53.3,5.8c18,2.2,36.1,4.2,54.2,5.7c24.6,2,49.3,3.4,73.8,6.2
		c12.8,1.5,25.5,3.9,38.3,6.1c16.9,2.9,33.8,5.4,50.9,6.8c1.7,0.1,3.4,0.6,5.2,0.8c3.6,0.6,5.6,2.5,6.3,6.2c0.4,2.3-0.1,3.9-1.7,5.5
		c-3.7,3.7-7.4,7.4-11,11.1c-7.4,7.6-12.6,16.6-17.2,25.9c-3.8,7.6-7.5,15.4-10.9,23.2c-4.4,10.1-7.8,20.5-10.7,31.1
		c-2.7,9.9-4.6,20-6.5,30.1c-2.7,13.4-4,26.9-4.4,40.5c-0.4,13.3,0.1,26.6,1.4,39.9c1.4,14,4,27.8,7.3,41.4
		c3.5,14.6,6.7,29.3,8.6,44.3c1.5,11.1,3.2,22.1,4.1,33.2c1.2,15.7-0.1,31.2-3.3,46.6c-2.1,10.1-3.6,20.3-6.6,30.2
		c-7,23.6-18.8,44.6-33.9,63.9c-17.3,22.2-38.1,40.6-60.2,57.8c-2.6,2.1-5.2,2.6-8.5,2c-9.7-1.8-19.3-4.3-29-5.7
		c-13.5-2-27.1-3.6-40.6-4.9c-17.8-1.7-35.6-3.4-53.3-5c-10.7-1-21.4-1.9-32.1-2.7c-20.9-1.6-41.5-4.7-62.2-8.2
		c-29.6-5.1-59.2-10.4-88.7-16.2c-22.5-4.4-44.6-10.5-66.3-18.2c-16.7-5.9-33.5-11.5-50.1-17.7c-10.3-3.9-20.3-8.6-29.9-14.1
		c-2.3-1.3-4.5-2.7-6.4-4.4c-3-2.8-3.1-4.2-0.2-7.2c7.7-7.9,15.5-15.8,22.5-24.3c15.8-19.2,30.3-39.4,40.8-62.1
		c9.4-20.4,13.5-42.2,13-64.8c-0.4-15.1-0.8-30.2-2-45.3c-0.8-10.1-2.4-20.2-3.9-30.2c-3.2-23-3.8-46-1.8-69.1
		c3-34.9,12.2-68.2,26.6-100.1c7.1-15.8,16.1-30.6,26-44.8c5.2-7.4,11.4-13.9,18.5-19.6c1.5-1.2,3-2.3,4.4-3.6
		c6.7-5.9,14.6-8.6,23.4-9C185.3,48,188.2,48.1,191.1,48.1z"/>
	<path class="st2" d="M162.6,184.9c16.4,0.9,32.8,2.1,49.1,3.2c16.8,1.1,33.6,2.5,50.4,3.2c18.7,0.8,37.4,2.2,56.1,3.8
		c9,0.8,18,1.3,26.9,2c17.2,1.3,34.5,2.7,51.7,4c7.2,0.5,14.5,1.2,21.7,1.2c17.5,0,34.8,1.3,52.2,2.5c10.6,0.7,21.2,1,31.7,2
		c10,0.9,20,1.8,29.9,2.9c2.7,0.3,5.5,0.4,7.6,2.6c2.5,2.6,2.8,3.2,1.2,6.4c-5.1,10.5-8.8,21.5-11.5,32.8
		c-4.4,18.4-5.1,37.1-2.7,55.8c3.6,28.8,9.9,57.2,15.6,85.7c4.3,21.6,6.4,43.4,4.8,65.4c-1.6,20.9-7.6,40.8-16.9,59.6
		c-8.5,17.2-19.8,32.4-33.2,46.1c-1.3,1.3-2.6,1.5-4.3,1.6c-10.3,0.6-20.6-0.1-30.9-0.7c-25.8-1.6-51.4-4.5-77.1-7.6
		c-13.5-1.6-27.1-3.2-40.7-3.9c-13.3-0.8-26.6-2.5-39.8-4.4c-12.7-1.8-25.4-2.9-38.1-4c-15.2-1.4-30.3-3.2-45.4-5.5
		c-21.7-3.3-43.2-7.3-65-10.1c-20.8-2.6-41-7.9-61.1-13.6c-4-1.2-8.1-2.3-12.1-3.5c-4.5-1.4-5.2-3.6-2.3-7.4
		c6.3-8.3,12.6-16.7,18.5-25.3c12.7-18.8,21.2-39.6,27.9-61.2c7.3-23.6,11.4-47.7,10.9-72.5c-0.4-17.6-3.2-34.9-7.3-52.1
		c-3.1-12.8-6.6-25.6-8-38.8c-1.9-17.5-1-34.8,3.9-51.8c1.1-3.8,2.7-7.4,4.3-10.9c2.5-5.2,6.7-7.4,12.2-7.4
		C149.5,184.9,156,184.9,162.6,184.9z"/>
	<path class="st3" d="M565.6,93.3c7.8,0.1,14.1,6.5,14,14.2c-0.2,7.6-6.4,13.8-14,13.8c-7.8,0-14.2-6.3-14.2-14
		C551.4,99.5,557.8,93.3,565.6,93.3z"/>
	<path class="st3" d="M415.7,91.6c-0.1-7.9,6-14.1,13.9-14.2c7.8,0,14.1,6.3,14.1,14c0,7.6-6.2,13.9-13.8,14
		C422.2,105.7,415.8,99.4,415.7,91.6z"/>
	<path class="st3" d="M202.1,72c0-7.8,6.3-14.1,14.1-14c7.7,0.1,14,6.6,13.9,14.3c-0.1,7.6-6.3,13.7-14,13.8
		C208.3,86.1,202.1,79.9,202.1,72z"/>
	<path class="st3" d="M512.9,97.6c0,7.8-6.3,14.2-14.1,14.1c-7.7-0.1-14.1-6.5-14-14.3c0.1-7.6,6.3-13.8,13.9-13.8
		C506.7,83.5,512.9,89.7,512.9,97.6z"/>
	<path class="st3" d="M346.9,85.2c0-7.9,6.2-14,14.1-14c7.8,0.1,14,6.4,13.9,14.2c-0.1,7.6-6.3,13.8-13.9,13.8
		C353.1,99.3,346.9,93,346.9,85.2z"/>
	<path class="st3" d="M291.3,62.6c7.8,0,14.1,6.2,14.1,14.1c0,7.8-6.5,14.1-14.2,14c-7.6-0.1-13.8-6.3-13.9-13.9
		C277.2,69,283.5,62.7,291.3,62.6z"/>
	<path class="st4" d="M475.6,455.4c0,3.2-0.2,6.4-1.2,9.5c-2.8,8.7-10.3,14.5-19.5,14.8c-8.1,0.2-14-3.3-17.6-10.5
		c-3.5-6.8-3.6-14-1.6-21.2c3.3-12,10.2-21.7,20-29.4c2-1.5,3.6-1.6,4.9,0.4C467.6,430.2,475.6,441.2,475.6,455.4z"/>
	<path class="st4" d="M354.7,445.2c-0.2,3.7-0.2,7.5-1.3,11.2c-1.3,4.2-3.5,7.6-6.9,10.3c-9.6,7.4-22.7,2.2-24.6-9.8
		c-0.7-4.2-0.2-8.4,1-12.5c3.1-10.9,8.9-20.1,17-27.9c3.5-3.4,6.2-3,8,1.5C351.4,426.7,355.2,435.4,354.7,445.2z"/>
	<path class="st4" d="M296.9,437.7c0.2,8.4-1.7,14.8-6.6,20.1c-4.7,5.2-12.4,7.1-18.3,4.6c-6.3-2.7-10-8.7-9.9-16
		c0.1-3.1,0.8-6,1.9-8.9c3.8-9.9,10.1-17.8,18.7-24c0.4-0.3,0.7-0.5,1.1-0.7c4.6-2.9,6.2-2.5,8.1,2.5
		C294.8,422.9,296.4,430.9,296.9,437.7z"/>
	<path class="st4" d="M408,451.7c0.2,4.3-0.7,8.4-2.9,12.1c-2.3,4.1-5.8,6.8-10.3,8.1c-8.4,2.4-16-2.5-17.3-11.1
		c-0.5-3.5-0.3-6.9,0.5-10.4c2.6-10.8,8.5-19.6,15.5-27.9c0.4-0.4,0.8-0.8,1.3-1.2c2.4-1.8,4.3-1.5,5.7,1.1
		C405.4,431.6,407.7,441.4,408,451.7z"/>
	<path d="M478.8,85.8c0,3.4,0.5,6.7,1.6,9.8c2.1,5.9,7.6,7.8,13,4.6c1.8-1.1,3.2-2.5,4.3-4.2c0.7-1,1.3-2,2.1-2.8
		c1.6-1.6,3.8-1.8,5.6-0.7c1.8,1.1,2.7,3.2,2,5.3c-2.3,6.2-10,13-17.9,13.4c-7.3,0.4-14.6-3.8-17.3-10.9c-5-13.4-3.7-26.4,5-38
		c8.3-11,22.9-10.1,30.3,1.5c1.8,2.8,3.2,5.8,3.9,9.2c0.6,3.1-0.7,5.5-3.3,6.2c-2.4,0.6-4.6-0.7-5.6-3.6c-0.8-2.2-1.5-4.4-2.7-6.4
		c-4.2-6.6-10.9-6.9-15.6-0.6C480.8,73,478.7,79.7,478.8,85.8z"/>
	<path d="M401,82.7c0.1-9.1,2.4-17.5,7.8-24.9c4.9-6.9,11.8-9.4,19.9-7.7c8.5,1.8,14.1,7.2,16.7,15.5c0.8,2.5-0.4,4.9-2.6,5.8
		c-2,0.8-4.3,0.1-5.7-2c-0.8-1.2-1.2-2.6-1.9-3.9c-2.2-4-5.7-6.1-10.2-6.4c-3.4-0.2-6.2,1-8.3,3.9c-5.6,7.7-7.1,16.5-5.7,25.7
		c0.7,4.7,5.6,6.7,9.8,4.3c2.2-1.2,3.8-3.1,5.3-5.1c0.9-1.2,1.7-2.4,3-3.1c1.9-1,3.7-0.9,5.2,0.5c1.4,1.3,1.9,2.9,1.3,4.7
		c-2.4,8.2-14.2,15-22.4,12.7c-5.9-1.6-9.9-5.3-11.3-11.4C401.2,88.5,401,85.6,401,82.7z"/>
	<path d="M541.4,98.4c0.5-11.1,3.9-21.1,10.9-29.7c4.7-5.9,10.7-7.2,17.5-4c7.8,3.6,11.3,10.1,12,18.3c0.2,2.8-1.2,4.7-3.6,5.2
		c-2.3,0.4-4.4-0.8-5.3-3.4c-0.4-1.2-0.6-2.5-0.9-3.8c-0.4-1.9-1.1-3.6-2.4-5c-4.1-4.5-7.9-4.4-11.3,0.6c-5,7.2-7.6,15.3-7.2,24.1
		c0.1,1.3,0.2,2.6,0.6,3.9c0.7,2.5,2.1,3.3,4.6,2.6c2.7-0.7,5-2.2,7.3-3.8c1.3-0.9,2.6-1.9,4-2.6c2.1-0.9,4.2-0.2,5.4,1.5
		c1.3,1.7,1.4,4.1-0.2,5.6c-5.1,4.7-10.7,8.6-17.9,8.9c-5.9,0.2-10.3-3.1-12-8.8c-0.4-1.4-0.8-2.8-0.9-4.2
		C541.6,101.9,541.5,100.1,541.4,98.4z"/>
	<path d="M338.2,76.4c0-5.9,1.2-11.6,3.8-16.9c6-12.5,15.8-12.6,25.3-7.1c2.4,1.4,4.3,3.4,6,5.7c1.4,1.9,1.2,4-0.2,5.6
		c-1.5,1.8-3.8,2.1-5.9,0.9c-1-0.6-1.8-1.4-2.6-2.2c-1.1-1.2-2.3-2.2-3.8-2.8c-4.6-2.1-7.4-1.2-9.7,3.2c-2.7,5.3-3.8,10.9-3.1,16.9
		c0.6,4.3,2.6,5.3,6.7,3.6c2.5-1,4.3-2.9,6.2-4.6c3.2-2.9,5.9-3.3,8-1.1c2,2.1,1.4,4.9-1.6,7.9c-3,3-6.3,5.6-10.4,7
		c-8.4,3-15.5-0.6-17.9-9.2C338.2,81,338.2,78.7,338.2,76.4z"/>
	<path d="M266.9,66.7c0.4-6.1,1.8-12.3,5.9-17.6c7.7-9.9,21.6-9.4,28.5,0.9c1.1,1.6,1.9,3.3,1.6,5.3c-0.3,2-1.2,3.6-3.3,4.2
		c-2.1,0.6-4-0.2-5.2-2.1c-0.1-0.1-0.2-0.2-0.2-0.4c-1.4-3.7-4.1-5.6-8-5.5c-4,0.2-6.2,2.9-7.7,6.2c-2,4.5-2.9,9.1-1.4,14
		c1.5,4.9,5.7,6.2,9.7,3c1.1-0.9,2-2.1,3-3.1c2.1-2,4.3-2.4,6.2-1c2.1,1.5,2.5,4,1.1,6.6c-3.3,6.1-11.4,9.8-18.2,8.4
		c-4.7-1-8-4-9.9-8.4C267.6,74,267,70.6,266.9,66.7z"/>
	<path d="M190.2,59.2c0.3-5.1,1.3-11,4.9-16.2c5-7.1,14.5-9.3,22-5.2c3.2,1.7,5.5,4.3,6.3,7.9c0.6,2.7-0.4,4.9-2.6,5.7
		c-2.1,0.8-4.5,0.2-5.6-2c-1.6-3.2-3.9-4.5-7.3-4.1c-3.7,0.4-5.5,2.9-6.7,6c-1.8,5-2.3,10.2-0.6,15.3c1.7,4.9,5.1,6.1,9.5,3.2
		c1.1-0.7,2-1.7,3.2-2.3c2.3-1.3,4.9-0.8,6.2,1.1c1.3,1.8,1.3,4.1-0.5,5.9c-4.1,4.2-8.9,7-15.1,6.1c-6.3-0.9-10-4.8-12.1-10.6
		C190.8,67,190.2,63.7,190.2,59.2z"/>
	<path class="st0" d="M483.3,341.7c1.6,9.4,3.3,18.1,4.6,26.8c1.7,11.3,3.1,22.7,4,34.2c0.3,4.5,0.3,4.4,4.7,4.8
		c14,1.1,28.2,1.3,42.1,3.1c3.5,0.4,4.8,1.5,4.6,3.5c-0.2,2-2,2.9-5.2,2.5c-9.4-1.3-18.8-1.4-28.2-2.2c-4.8-0.4-9.6-0.5-14.3-0.9
		c-2.1-0.2-2.8,0.6-2.8,2.7c0.1,5.2,0.2,10.5,0.1,15.7c-0.3,17.1-2.4,33.9-7.2,50.3c-0.2,0.7-0.4,1.4-0.6,2.4
		c5.8,1.3,11.6,1.5,17.3,2c10.7,1,21.4,1.8,32.1,2.7c1.9,0.2,3.4,0.9,3.6,3c0.1,1.8-1.4,3-4,3c-3.8-0.1-7.5-0.5-11.3-0.8
		c-11.7-1-23.4-2.1-35.1-3.2c-0.7-0.1-1.5,0-2.2-0.2c-1.9-0.4-2.8,0.4-3.5,2.3c-1.8,4.9-3.8,9.7-5.8,14.5
		c-6.7,15.6-15.2,30-25.8,43.3c-3.7,4.6-3.6,4.6-10.2,4c1.3-3.4,4-5.6,5.9-8.3c2.1-3,4.4-5.8,6.4-8.8c2-2.9,3.9-5.8,5.7-8.8
		c1.9-3.1,3.7-6.3,5.4-9.5c1.6-3.1,3.2-6.2,4.7-9.4c1.5-3.3,3-6.6,4.3-10c1.3-3.2,2.8-6.3,3.7-10c-2-0.9-4-0.9-6-1.1
		c-15.9-1.3-31.8-2.6-47.8-3.8c-4.8-0.4-4.2-0.7-5.9,3.7c-7.6,21-19.9,39-34.6,55.5c-1.2,1.3-2.5,2.5-3.5,3.9
		c-2.5,3.8-5.8,3.6-9.8,2.4c0.7-2,2.2-3.1,3.5-4.4c7.9-8.5,15.3-17.5,21.9-27.1c6.7-9.6,11.9-19.9,16.2-30.8c0.4-0.9,0.7-1.9,1-2.9
		c0.1-0.3,0-0.6,0-0.9c-3.7-1.3-7.7-1.1-11.6-1.5c-10.7-1.2-21.4-2.2-32.1-3.1c-3.5-0.3-3.6-0.2-4.7,2.9
		c-8.5,23-21.7,42.9-38.8,60.4c-3.5,3.6-4.7,3.9-10.1,1.6c19.4-18.6,34.7-39.8,43.6-65.5c-6-1.4-11.8-1.3-17.5-1.8
		c-9.7-0.8-19.4-1.5-29.1-2.6c-1.2-0.1-2.3-0.1-3.5-0.3c-1.8-0.3-2.6,0.5-3.2,2.1c-1.3,3.4-2.7,6.7-4.1,10.1
		c-8.1,19.3-20.4,35.7-34.5,50.9c-2,2.2-3.1,2.2-8.4,0.2c18-18.7,33.1-39.1,41.5-63.9c-2.9-1.4-6-1.1-9-1.5
		c-12.8-1.7-25.7-3.1-38.5-4.8c-3.8-0.5-5.8,0.4-7.8,4c-10.5,19.1-22.7,37.2-35.9,54.5c-3.2,4.2-3.3,4.2-9.2,2.5
		c2.1-3.5,4.9-6.5,7.2-9.7c2.5-3.4,5-6.8,7.4-10.2c2.3-3.3,4.6-6.7,6.8-10.1c2.3-3.4,4.5-6.8,6.7-10.2c2.3-3.5,4.5-7.1,6.7-10.7
		c2.1-3.5,4.3-6.8,5.8-10.8c-4.5-1.5-9.1-1.3-13.5-1.7c-13-1.1-26-2.3-39-3.7c-5.5-0.6-4.3-0.6-6.7,3.5
		c-10.4,18-22.1,35.1-34.8,51.6c-2.6,3.4-5.1,1.2-8.5,1.3c7.1-9.7,14.4-18.5,20.6-28.1c6.2-9.6,13-18.8,18.4-29.5
		c-3.8-0.5-6.9-1-10-1.3c-14.3-1.4-28.6-3.2-42.8-5.5c-3.4-0.5-4.8-1.6-4.7-3.5c0.1-2.1,1.8-3,5.6-2.5c9.2,1.3,18.4,2.8,27.6,3.8
		c8.2,0.9,16.5,1.8,24.7,2.9c2.2,0.3,3.1-0.7,3.9-2.4c5.8-12.1,10.6-24.5,13.7-37.6c1.3-5.4,2.4-10.8,3.2-16.2
		c0.7-4.5,0.6-4.7-3.8-5.2c-8.4-1-16.7-1.8-25.1-2.9c-7.3-0.9-14.7-2-22-2.9c-0.3,0-0.6-0.1-0.9-0.2c-1.8-0.3-3.5-0.9-3.5-3.2
		c0-1.8,1.6-3,4.2-2.7c5.8,0.6,11.5,1.5,17.3,2.3c10.7,1.3,21.3,2.6,32,3.8c2.7,0.3,2.8,0.2,2.9-2.8c0.4-10.5-0.3-20.9-1.3-31.3
		c-0.8-7.8-1.5-15.6-2.8-23.3c-0.4-2.3-1.4-3.1-3.6-3.3c-15.3-1.6-30.6-3.7-45.8-6c-1-0.2-2-0.3-3-0.6c-1.6-0.5-2.5-1.6-2.3-3.2
		c0.3-1.7,1.5-2.5,3.1-2.4c3.5,0.4,6.9,0.8,10.4,1.3c11.9,1.9,23.9,3.3,35.8,4.7c1,0.1,2,0.4,3.2-0.3c-0.4-5.1-1.7-10.1-2.8-15.1
		c-2.9-13.3-6.3-26.6-8.2-40.1c-0.3-2.1-1.1-3-3.2-3.2c-7.4-0.6-14.8-1.3-22.1-2.2c-8.1-1-16.1-2.2-24.2-3.2
		c-0.4-0.1-0.9-0.1-1.3-0.2c-2.9-0.6-4.2-1.9-3.8-3.8c0.4-1.9,2-2.6,5-2.1c14.9,2.4,29.9,4.1,45,5.3c3.4,0.3,3.3,0.3,3-3.1
		c-1.2-16.9-1.2-33.7,2.2-50.3c0.7-3.3,1.8-6.4,2.8-9.6c0.3-1.1,0.9-2.2,1.6-3.1c0.9-1.1,2.1-1.6,3.5-0.8c1.3,0.7,1.8,1.9,1.5,3.3
		c-0.1,0.6-0.4,1.1-0.6,1.6c-3.7,9.6-5,19.6-5.4,29.9c-0.4,8.9-0.7,17.7,0.1,26.6c0.7,7-0.2,6.5,6.9,7c13.5,0.8,27,1.7,40.4,2.5
		c0.1,0,0.3,0,0.4,0c4.8,0.3,4.9,0.3,4.5-4.3c-1.1-14-0.9-27.9,2.5-41.6c1.5-5.9,3.5-11.7,6.5-17c1.8-3.1,3.6-4,5.4-2.8
		c1.6,1.1,1.6,2.6-0.2,5.8c-4.8,8.8-7,18.4-8.2,28.3c-1.1,9.4-0.8,18.9,0.1,28.3c0.4,4.1,0.4,4.1,4.3,4.3
		c14.1,0.8,28.1,1.7,42.2,2.5c2,0.1,4.5,0.9,5.9-0.4c1.5-1.4,0-3.8-0.2-5.7c-2.1-18.6-0.6-36.8,6-54.5c0.4-1.1,0.8-2.2,1.4-3.2
		c0.8-1.2,1.9-1.8,3.4-1.3c1.6,0.6,2.2,1.9,1.9,3.5c-0.2,1.1-0.8,2.2-1.2,3.3c-6.5,17.9-7.8,36.2-5,54.9c0.5,3.5,0.6,3.7,4.3,3.8
		c13.5,0.5,27,0.9,40.5,1.3c3.1,0.1,3.2,0,3.4-3.5c0.7-13.8,2.5-27.5,6.2-40.8c1.7-6,3.9-11.9,6.2-17.7c0.3-0.8,0.7-1.6,1.2-2.3
		c0.9-1.1,2.2-1.4,3.5-0.8c1.2,0.6,1.7,1.7,1.5,2.9c-0.2,1.3-0.7,2.5-1.2,3.7c-7.5,17.8-10.5,36.5-11.5,55.6
		c-0.1,2.2,0.5,3.1,2.8,3.2c13.5,0.4,27,0.9,40.5,1.3c3,0.1,3,0,3.3-3.1c1.3-12.7,3-25.4,6.8-37.6c1.3-4,2.8-7.9,4.2-11.9
		c0.3-1,0.8-1.9,1.2-2.8c1.4-2.6,3-3.5,4.7-2.7c1.5,0.8,2,2.5,0.8,5c-7,15.3-9.8,31.5-11.6,48.1c0,0.3-0.1,0.6-0.1,0.9
		c-0.4,4.4-0.4,4.4,3.8,4.5c16.3,0.7,32.5,1.6,48.8,2.2c5.5,0.2,5.3,0.8,5.4-4.9c0.5-17.7,4.8-34.4,11.5-50.7c0.9-2.2,2.7-3,4.4-2.3
		c1.8,0.8,2.3,2.5,1.2,4.8c-3.3,7.3-5.7,14.9-7.6,22.7c-2.1,8.6-3.3,17.4-3.6,26.3c-0.2,4.2-0.1,4.2,4.3,4.3
		c11.2,0.3,22.4,0.6,33.5,1c2.9,0.1,5.8,0.4,8.7,0.6c0.6,0,1.2,0.1,1.7,0.3c1.5,0.5,2.6,1.5,2.3,3.2c-0.2,1.7-1.4,2.6-3,2.5
		c-2.3-0.1-4.6-0.5-6.9-0.6c-12.3-0.4-24.7-0.7-37-1c-3.5-0.1-3.5,0-3.3,3.7c0.9,15.9,3.7,31.4,6.7,47c0.4,1.9,0.8,3.7,1.2,5.5
		c0.8,3.7,0.8,3.7,4.8,3.8c3.6,0,7.3,0.1,10.9,0.1c9.2,0,18.3,0.6,27.4,1.1c1.1,0.1,2.3,0.2,3.4,0.6c1.5,0.4,2,1.6,1.8,3.1
		c-0.2,1.3-1,2.2-2.3,2.2c-1.6,0.1-3.2,0.1-4.8,0c-11.5-0.8-22.9-1-34.4-1C486.5,341.7,485.1,341.7,483.3,341.7z M420.3,479.3
		c18.8,1.6,37,3.1,55.2,4.6c3.2,0.3,3.2,0.2,4.1-3c5.9-19.8,7.7-40.1,7.1-60.7c-0.2-7.3-0.3-7.3-7.6-7.6c-13.5-0.4-27-0.8-40.5-1.7
		c-3.3-0.2-6.7-0.1-10-0.4c-2.2-0.1-2.9,0.8-2.5,2.8c0.1,0.6,0.1,1.2,0.1,1.7c0.5,16.1,0.6,32.2-2.5,48.2
		C422.8,468.5,421.5,473.7,420.3,479.3z M415.3,340.5c0,0.6-0.1,1.2,0,1.7c3.8,19.8,8.1,39.5,10,59.6c0.2,2.4,1.5,2.6,3.4,2.7
		c18.1,0.8,36.3,1.6,54.4,2.4c2.8,0.1,3,0.1,2.7-2.9c-0.5-6.2-1.2-12.4-1.9-18.6c-1.4-13.6-3.7-27-6.4-40.4
		c-0.7-3.5-0.8-3.5-4.5-3.8c-0.4,0-0.9-0.1-1.3-0.1c-17.6-0.4-35.1-0.8-52.7-1.2C417.8,340,416.4,339.6,415.3,340.5z M445,333.9
		c0,0.2,0,0.4,0,0.6c9.1,0.2,18.3,0.5,27.4,0.7c3,0.1,3.2-0.1,2.6-3.3c-3.6-17.8-6.9-35.6-7.8-53.7c-0.1-2-0.8-2.8-2.8-2.8
		c-16.8-0.4-33.6-1.3-50.4-2.2c-5.9-0.3-5.7-0.9-5.7,5.5c-0.1,17.3,2,34.4,5,51.5c0.6,3.6,0.6,3.7,4.4,3.7
		C426.7,334,435.9,333.9,445,333.9z M185,455.8c1.1,0.2,1.7,0.4,2.3,0.4c10.2,1.1,20.5,2.2,30.8,3.2c7.1,0.7,14.2,1.2,21.3,1.9
		c2.2,0.2,3.6-0.2,4.2-2.5c0.8-2.6,1.9-5.2,2.9-7.8c5.3-14.8,9.1-30,11.6-45.5c0.7-4.6,0.2-4.2-3.3-4.6c-15.9-1.6-31.8-3.3-47.6-5.6
		c-3.6-0.5-3.6-0.5-4.2,3.4c-2.5,17.3-7.4,34-14.7,50C187.2,450.9,186.2,453.1,185,455.8z M200,328.4c-0.1,1-0.2,1.4-0.2,1.8
		c2.7,18.6,4.7,37.2,4.1,56c-0.1,2,0.4,2.8,2.5,3.1c16.4,2.2,32.8,4.2,49.3,5.7c3.4,0.3,3.4,0.2,3.8-3c0.1-0.6,0.1-1.2,0.1-1.7
		c0.3-16.9-0.4-33.7-3.1-50.3c-1.1-6.9,0-5.6-7.2-6.5c-9.1-1-18.2-1.7-27.3-2.6C214.8,330,207.6,329.2,200,328.4z M307.9,468.8
		c0.5,0.1,1,0.4,1.6,0.4c15.7,1.8,31.5,2.7,47.3,4.2c3.2,0.3,3.3,0.1,4.3-3.4c5.6-19.1,7.3-38.7,6.9-58.6c-0.1-3.1-0.1-3.2-3.2-3.3
		c-14.2-0.6-28.4-1.3-42.6-2.5c-3.8-0.3-3.8-0.2-4,3.5c-1,19.2-4.3,38-9.8,56.5C308.1,466.7,307.7,467.6,307.9,468.8z M366.3,473.9
		c0.7,0.2,0.9,0.4,1.2,0.4c14.3,1.4,28.6,2.9,42.9,4.3c3.4,0.3,3.5,0.2,4.5-3.1c5.7-20.6,6.2-41.5,5.2-62.6
		c-0.1-2.3-1.2-2.8-3.3-2.9c-5.2-0.1-10.4-0.4-15.7-0.6c-8.3-0.3-16.5-0.5-24.8-0.8c-1.7-0.1-2.4,0.6-2.3,2.3c0.1,1.2,0,2.3,0,3.5
		c0.1,12.1-0.6,24.1-2.5,36C370.4,458.2,368.5,465.9,366.3,473.9z M187,263.1c-0.2,0.8-0.4,1-0.3,1.3c2.6,18.8,8.1,37.1,11.3,55.8
		c0.2,1.2,0.8,1.8,2,2c1.1,0.2,2.3,0.4,3.4,0.5c13.3,1.4,26.5,2.8,39.8,4.2c3.4,0.3,6.8,0.5,10.1,0.7c0.6-1.4,0.2-2.3,0-3.3
		c-1.3-5.7-2.8-11.2-4.6-16.8c-3.9-12.6-7.7-25.2-9.8-38.3c-0.4-2.4-1.3-3.1-3.6-3.2c-6.5-0.3-13-0.9-19.5-1.3
		C206.4,264.1,196.8,263.6,187,263.1z M249.2,462c3.9,0.5,7.9,0.9,11.9,1.4c12.2,1.5,24.5,3.1,36.7,4.6c3.3,0.4,3.4,0.4,4.3-2.7
		c1.5-5.3,3-10.6,4.3-16c3.2-13.5,5.1-27.1,5.7-40.9c0.1-3.2,0-3.4-2.8-3.6c-13.8-1-27.5-1.8-41.3-2.8c-3.4-0.2-3.5,0.2-4,3.4
		c-2.8,18.3-7.5,36.1-14.1,53.4C249.5,459.8,249,460.7,249.2,462z M244.9,267.1c0.7,5.6,2,10.9,3.3,16.3
		c3.3,13.5,8.3,26.6,11.2,40.2c1.1,4.8,1.1,4.8,6.3,5.1c7.8,0.5,15.6,1.1,23.5,1.6c5.4,0.4,10.7,0.7,16.1,0.9
		c2.6,0.1,2.8-0.2,2.5-2.7c-0.3-2.6-0.8-5.2-1.2-7.7c-2.6-15.8-6-31.3-8.3-47.1c-0.6-4.1-0.6-4.1-4.8-4.3
		c-12.9-0.6-25.8-1.3-38.7-2.2C251.6,266.9,248.4,266.4,244.9,267.1z M351.5,401.7c0,0.1,0,0.3,0,0.4c4.3,0,8.7,0,13,0
		c2.8,0,2.8,0,2.7-3c0-1-0.1-2-0.2-3c-1.7-18.4-5-36.5-8.1-54.6c-0.4-2.5-1.8-2.8-4-2.8c-12.3-0.2-24.7,0-37-0.9
		c-3.1-0.2-3.2,0-2.9,3.1c1.8,18.2,2.9,36.4,3.1,54.7c0,3.8,0,3.8,3.7,4.1C331.8,400.4,341.7,401,351.5,401.7z M397.1,402.6
		c0,0.2,0,0.4,0,0.5c1.7,0.1,3.5,0.3,5.2,0.3c4.8,0.2,9.6,0.3,14.4,0.5c2.2,0.1,2.9-0.8,2.5-2.8c-0.1-0.7-0.2-1.4-0.3-2.2
		c-2-18.9-6.1-37.5-9.7-56.2c-0.6-3.3-0.7-3.3-4.2-3.4c-11.5-0.3-22.9-0.9-34.4-0.8c-7.1,0.1-6-0.4-4.9,5.8
		c3.1,18.2,6.4,36.3,7.7,54.7c0.2,3.1,0.3,3.3,3.7,3.4C383.8,402.7,390.5,402.6,397.1,402.6z M262.5,334.7c-0.7,1.5-0.2,2.7,0,3.8
		c2.7,18.1,3.9,36.3,2.9,54.6c-0.1,2.5,1,2.9,3,3c13.3,0.9,26.6,1.8,39.9,2.7c3.9,0.3,3.9,0.2,4-4c0.1-9.7-0.5-19.4-1-29.1
		c-0.4-7.8-1.2-15.6-1.9-23.4c-0.4-4.7-0.5-4.6-5-4.9c-10.6-0.7-21.1-1.5-31.7-2.2C269.2,334.9,265.8,334.8,262.5,334.7z
		 M326.6,270.1c-5.8,0-11.6,0.1-17.4,0c-5.5-0.1-5.5-0.3-4.7,5.1c2.8,18.1,6.8,35.9,9.3,54c0.2,1.8,1,2.4,2.7,2.6
		c12.6,0.8,25.2,0.8,37.9,1c2.8,0,2.9-0.1,2.4-3.1c-1.2-8-2.6-16-3.6-24.1c-1.3-10.4-2.4-20.7-2.8-31.2c-0.1-3-0.2-3.1-3.3-3.2
		C340.2,271.1,333.4,271.1,326.6,270.1z M379.2,272.9c0-0.2,0-0.3,0-0.5c-6.5-0.3-13.1-0.6-19.6-0.9c-3.1-0.1-3.3,0-3.1,3.1
		c0.3,5.2,0.6,10.4,1,15.6c1.1,13.2,3.1,26.2,5.4,39.2c0.3,1.8,0.7,3.3,3.2,3.2c12.9-0.2,25.8,0.1,38.8,0.6c1.9,0.1,2.7-0.6,2.3-2.5
		c-0.2-0.8-0.3-1.7-0.5-2.6c-2.8-17.2-4.8-34.5-4.5-52c0-3.2,0-3.3-3.4-3.4C392.3,272.9,385.7,272.9,379.2,272.9z"/>
	<path d="M225.8,281.4c0,3.1-1,5.5-2.2,7.8c-1.7,3.4-1.7,3.4,0.9,5.9c3.6,3.5,5.3,7.6,3.9,12.6c-1.6,5.7-7.5,9.5-13,8.3
		c-5.4-1.1-8.5-5.5-7.6-10.9c0.5-3,1.4-6,3.3-8.4c2.2-2.6,2.3-4.7,0.1-7.6c-2.7-3.4-3.1-7.4-1.3-11.5c1.7-4.1,4.4-5.8,8.4-5.6
		c3.5,0.2,5.9,2.5,7,6.7C225.5,279.7,225.7,280.7,225.8,281.4z M222.9,304.5c0.1-1.6-0.7-3.2-2.4-4.8c-2.3-2.3-2.8-2.2-4.5,0.4
		c-1,1.6-1.7,3.4-2.1,5.2c-0.4,1.6-0.3,3.3,1.3,4.3c1.5,0.9,3,0.8,4.5,0C221.7,308.4,222.6,306.7,222.9,304.5z M217.7,287.2
		c1.6-2.4,2.8-4.7,1.6-7.6c-0.3-0.7-0.6-1.3-1.5-1.4c-1-0.1-1.6,0.4-2.1,1.2C214.3,281.8,214.9,284.1,217.7,287.2z"/>
	<path d="M283.7,298.9c-2.3,1-3.9,2-5.8,2.2c-4.4,0.6-8-1.5-9-5.7c-1-4.4,0.2-8.4,3.5-11.5c2.9-2.7,8.2-3.1,11.9-1.1
		c1.5,0.8,2.9,1.9,4.3,2.9c1.1,0.8,1.6,2,1.7,3.4c0,6.5-0.1,13.1-1.7,19.5c-0.7,2.5-1.9,4.8-3.7,6.8c-3.5,3.9-11.6,5-15.2-0.5
		c-1.4-2.2-1.6-4-0.2-5c1.8-1.3,3.2-0.4,4.6,0.9c3,2.8,5.6,2.4,7.6-1.2C283.4,306.4,283.8,303,283.7,298.9z M282.6,289.7
		c0-0.7-0.4-1-0.9-1.4c-1.3-0.9-4-0.7-5.3,0.3c-1.4,1.1-2.2,4.2-1.5,5.5c0.3,0.5,0.8,0.9,1.3,1C278.4,295.6,282.7,291.9,282.6,289.7
		z"/>
	<path d="M407.5,361.3c0,2-1.4,5-3.3,7.7c-1.7,2.4-2.5,4.3-0.2,6.7c1.4,1.5,1.9,3.6,2.2,5.6c1,6.8-4.9,12.2-11.3,10.4
		c-3.8-1-5.6-3.4-5.5-7.3c0-3.3,0.9-6.4,2.8-9c1.9-2.7,2-5.2,0.4-8.1c-0.8-1.5-1.2-3.3-1.6-5c-0.8-4.2,1.9-9.1,5.7-10.8
		C401.9,349.3,407.5,353.4,407.5,361.3z M397.9,378c-1.7,1.6-2,3.7-2.5,5.8c-0.2,0.8,0.1,1.4,0.7,1.9c0.8,0.6,1.6,0.5,2.4,0
		c1.4-0.8,1.9-2.1,1.6-3.7C399.9,380.5,399.4,379,397.9,378z M398.7,365.9c1.7-1.8,2.5-3.8,2.7-6c0.1-1-0.1-2.1-1.2-2.5
		c-1.4-0.5-2.2,0.5-2.7,1.6C396.1,361.5,397.3,363.6,398.7,365.9z"/>
	<path d="M460.5,373c-1.6,0.1-2.3,1.3-3.5,1.8c-4.7,2.2-9.5,0-10.4-5c-0.9-4.8,0.3-9.3,3.9-12.7c3.5-3.3,6.9-3.5,11.1-1.1
		c7.4,4.3,5.5,2.3,5.7,10.8c0.1,5.7-0.9,11.3-3.6,16.4c-1.6,3.2-3.9,5.8-7.5,6.8c-4,1.2-8-0.4-10.1-4c-0.9-1.6-1-3.1,0.5-4.3
		c1.4-1.1,2.7-0.7,3.9,0.4c1.1,1.1,2,2.7,3.9,2.1c1.8-0.5,2.9-1.9,3.7-3.5C459.5,378.4,460.7,375.9,460.5,373z M452.5,367
		c0.1,0.9-0.1,1.9,0.9,2.3c0.9,0.4,1.6-0.3,2.3-0.9c1.4-1.3,2.3-2.9,3.3-4.5c0.6-1.1,0.4-1.9-0.4-2.7c-1-0.9-2-0.9-3.1-0.2
		C453.3,362.6,452.7,364.7,452.5,367z"/>
	<path d="M151,474.6c-0.1,3.9-2,6.8-4.3,9.4c-2.8,3.1-2.8,3.1-0.9,6.7c3.3,6.2,0.8,12.9-5.6,14.6c-3.2,0.9-6.1,0.2-8.4-2.2
		c-2.3-2.4-3-5.2-2-8.4c0.9-3,2.3-5.7,4.5-7.8c1.2-1.1,1.5-2.2,1-3.8c-0.8-2.5-0.8-5.2-0.2-7.8c0.6-2.6,1.9-4.9,4.1-6.5
		c2.5-1.9,5.3-2.6,8.1-1C150,469.2,150.9,471.8,151,474.6z M141.3,495.7c-0.4-1.3-0.6-3.4-2.4-3.8c-1.7-0.4-2,1.7-2.7,2.9
		c-0.2,0.2-0.2,0.5-0.3,0.8c-0.6,1.3-0.7,2.5,0.5,3.5c0.9,0.7,1.9,0.7,2.8,0.2C140.5,498.6,141.2,497.6,141.3,495.7z M141.2,480.7
		c2-1.5,3-3.1,3.5-5c0.2-0.8,0.4-1.8-0.6-2.2c-0.9-0.3-1.7,0.3-2.1,1.1C140.9,476.3,140.3,478.1,141.2,480.7z"/>
	<path d="M498,245.9c2.7,0.1,5.4-0.1,8.1,0.8c6.7,2.4,8.8,9.5,4.3,15.1c-5,6.2-14.4,5.4-18.2-1.6c-1-1.8-1.5-3.8-1.7-5.8
		c-0.6-7.9,1.7-14.9,7.1-20.7c2.9-3.1,6.6-4.7,10.9-4.2c2.3,0.2,4.2,1.1,5.4,3.1c0.7,1.1,0.7,2.2-0.1,3.2c-0.8,1-1.9,1.6-3,1
		c-2.1-1.1-4.2-1.9-6.6-0.7c-2.8,1.5-4.5,4-5.8,6.8C498.1,243.8,497.5,244.6,498,245.9z M500.7,251.9c-0.7,0.1-1.7,0.2-2.7,0.4
		c-1.1,0.3-1.7,1-1.4,2.2c0.3,1.6,0.8,3.1,2.1,4.2c1.5,1.4,3.7,1.5,5.6,0.4c1.6-1,2.7-2.3,2.3-4.2c-0.5-2.3-2.4-2.6-4.3-2.9
		C501.9,252,501.4,252,500.7,251.9z"/>
	<path d="M209.3,492.7c-1.6,0.6-2.5,1.1-3.5,1.4c-5.6,1.6-10.3-2.3-9.7-8.1c0.4-4.1,2.8-7,6.4-8.7c3.5-1.6,6.5-0.5,9.8,1.3
		c5,2.7,5.4,6.2,4.1,11.2c-1.5,5.8-3,11.5-6.7,16.4c-1.4,1.9-3.1,3.5-5.3,4.3c-5.4,2-11.8-2-12.1-7.8c-0.1-1.4,0.3-2.6,1.8-3.1
		c1.4-0.5,2.6-0.1,3.4,1.1c0.5,0.7,0.8,1.6,1.2,2.3c1.5,2.4,3.3,2.7,5.2,0.6C206.7,500.7,208.5,497.3,209.3,492.7z M209.1,484.3
		c-1.2-1.6-2.4-2.1-4-1.4c-1.5,0.7-2.6,1.8-2.8,3.6c-0.2,1.4,0.7,2.3,2.1,1.7C206.3,487.5,207.8,486.2,209.1,484.3z"/>
	<path d="M265.4,244.2c4,0.3,7.4,0.6,10.8,0.9c1,0.1,2,0.2,3,0.5c1.4,0.5,2,1.6,1.8,3.1c-0.2,1.3-1.1,2.1-2.3,2.3
		c-1.1,0.2-2.3,0.2-3.5,0.1c-4.6-0.5-9.3-0.8-13.9-0.6c-0.4,0-0.9,0-1.3-0.1c-3.1-0.5-4.3-2.6-2.8-5.3c1.4-2.7,3.3-5.2,5.4-7.3
		c2.5-2.5,5-4.8,7.5-7.3c1.9-2,3.5-4.3,3.8-7.2c0.2-2.3-0.9-3.2-3.2-2.8c-1.4,0.2-2.4,0.9-3.4,1.8c-0.6,0.6-1.2,1.3-1.8,1.9
		c-1.1,1-2.3,1.2-3.6,0.4c-1.3-0.8-1.5-2.1-1.1-3.5c1.3-4.4,8.5-7.9,13.4-6.5c4.4,1.2,6.6,5.7,5.4,10.9c-0.9,3.6-2.8,6.7-5.4,9.3
		c-1.4,1.4-2.9,2.8-4.4,4.3C268.4,240.5,266.8,241.7,265.4,244.2z"/>
	<path d="M170.5,288.3c1.8,0.9,3.6,0.9,5.2,1.4c1.7,0.5,2.7,1.7,2.3,3.6c-0.4,1.7-1.8,2.2-3.3,2.2c-0.1,0-0.3,0-0.4,0
		c-2.1-0.3-4.6-1.6-6.2,0c-1.3,1.3-1.6,3.6-2.4,5.5c-0.6,1.5-1.2,3-1.9,4.4c-0.9,1.6-2.3,2.3-4,1.4c-1.4-0.8-1.8-2.1-1.3-3.7
		c0.8-2.6,2.3-5,2.7-7.9c-1.9-0.8-3.8-0.2-5.6-0.5c-1.8-0.2-3.1-1-3.1-3c0-1.9,1.3-2.8,3.1-2.9c1.7-0.1,3.5-0.2,5.2,0
		c2.5,0.3,3.8-0.8,4.3-3.1c0.1-0.6,0.5-1.1,0.6-1.6c0.5-2,2.7-4.2,1.3-6c-0.8-1.1-3.5-0.9-5.3-1.3c-1.8-0.3-3.4-0.3-4.7,1.3
		c-1.1,1.3-2.6,1.3-3.9,0.1c-1.2-1.2-1.2-2.6-0.4-4c1.3-2.3,3.3-3.8,6-3.6c4.5,0.4,8.9,1,13.4,1.7c2.1,0.3,2.9,1.9,2.6,3.8
		c-0.1,1.1-0.6,2.2-1,3.3C172.7,282.3,171.6,285.3,170.5,288.3z"/>
	<path d="M505,462.8c2.9,0.9,5.2,1,7.5,1.1c1.3,0.1,2.6,0.2,3.8,0.9c1,0.6,1.5,1.4,1.5,2.5c0,1.3-0.8,2.2-2,2.6
		c-0.8,0.2-1.7,0.2-2.6,0.2c-4.5-0.3-9-0.7-13.4-1.1c-1.7-0.2-3.6-0.5-4.3-2.4c-0.7-2,0.7-3.2,1.9-4.5c2.2-2.3,4.4-4.6,6.6-6.9
		c2.3-2.4,4.4-5,6-8c1.1-2.1,1.9-4.2,1.8-6.6c0-1.3-0.3-2.7-1.7-3.3c-1.2-0.6-2.3,0.2-3.2,0.9c-1.1,0.9-2,2.1-3,3.1
		c-1,1-2.3,1.3-3.5,0.5c-1.4-0.9-1.7-2.2-1.1-3.8c1.2-3.3,6.8-7.1,10.3-7c3.5,0.1,6.3,2.2,7.5,5.6c1.5,4.3,0.6,8.3-1.3,12.2
		c-1.8,4-4.6,7.4-7.6,10.6C507.3,460.3,506.3,461.3,505,462.8z"/>
	<path d="M252,508c0-6.8,1.7-12.3,4.7-17.4c3.9-6.6,12.6-6.2,16.2,0.5c1,1.8,1.5,3.8,1.5,5.8c-0.2,7.2-2.4,13.7-7.4,19
		c-1.3,1.4-2.9,2.4-4.8,2.9c-4,1.1-7.2-0.4-8.9-4.1C252.3,512.4,251.8,509.8,252,508z M258.1,506.9c0,0.9,0,1.7,0,2.6
		c0.1,1.3,0.2,2.8,1.5,3.4c1.6,0.7,2.7-0.5,3.7-1.6c2.4-2.8,3.8-6.1,4.6-9.7c0.4-1.8,0.8-3.7,0.4-5.6c-0.4-2-1.4-3.6-3.5-3.9
		c-1.9-0.2-2.8,1.3-3.5,2.8C259.4,498.6,258,502.5,258.1,506.9z"/>
	<path d="M112.1,494.4c3.2,0.7,6.4,1.3,9.6,2.1c3.6,0.9,4.9,2.3,4.2,4.4c-0.6,1.9-2.1,2.3-5.6,1.5c-3.8-0.9-7.6-1.7-11.6-2.1
		c-1-0.1-2-0.3-3-0.6c-3.8-1.1-4.7-4-1.8-6.8c3.6-3.4,7.4-6.5,11.1-9.8c2-1.7,4.1-3.3,6-5.1c1.4-1.3,3.3-3.2,1.8-4.8
		c-1.7-1.9-3.2,0.5-4.6,1.6c-0.5,0.3-0.8,0.8-1.3,1.1c-1.2,0.8-2.5,0.8-3.6-0.1c-1-0.9-1.2-2.1-0.7-3.2c1.7-3.3,4.6-5.3,8.1-6
		c2.9-0.6,5.6,0,7.3,2.7c1.9,2.9,1.8,6,0.2,9.1c-1.2,2.2-2.8,4-4.8,5.6c-3.3,2.7-6.5,5.3-9.7,8.1C113,492.6,112.1,493.1,112.1,494.4
		z"/>
	<path d="M462.1,445.6c3.1,0.6,5.7,0.6,8.1,1.6c4.4,1.9,6.1,5,5.1,9.7c-0.9,4.7-4.9,8.5-9.1,8.7c-4.6,0.2-9-3-10.2-7.9
		c-1.9-7.7-0.7-15,3.1-21.8c2-3.6,5.3-5.7,9.7-5.2c1.8,0.2,3.3,1,4.3,2.6c0.8,1.3,0.9,2.8-0.2,4c-1,1.1-2.2,1.1-3.6,0.4
		c-3-1.3-4-1-5.5,1.7C463.1,441.4,462.4,443.3,462.1,445.6z M464.3,452c-2.5,0.1-3.1,0.8-2.7,3c0.2,0.8,0.4,1.7,0.8,2.4
		c0.8,1.5,2.1,2.4,3.9,2.1c1.5-0.3,3.2-2.4,3.2-4.2c0.1-2.1-1.5-2.5-3.1-2.9C465.7,452.2,464.8,452.1,464.3,452z"/>
	<path d="M356.5,370.1c1.1,1.1,2.4,0.7,3.4,1.3c1.3,0.7,2,1.7,1.8,3.2c-0.2,1.2-1.1,2-2.4,2.2c-0.3,0-0.6,0.1-0.9,0.1
		c-4.7-1.3-6,2-7.3,5.4c-0.8,2-1.7,4-2.7,6c-0.8,1.6-2.2,2.4-4,1.6c-1.8-0.8-2.1-2.4-1.4-4c1.2-2.9,2.4-5.8,3.7-8.8
		c-1.7-1.4-3.5-0.7-5.2-0.8c-1.9-0.2-3.5-0.6-3.7-2.9c-0.1-1.7,1.1-2.8,3.5-3c2-0.2,4.1-0.2,6.1,0.2c1.5,0.3,2.5-0.3,3-1.8
		c0.8-2.3,1.7-4.6,2.6-6.9c0.5-1.4,0.1-2.2-1.5-2.3c-1.9,0-3.8,0-5.7-0.1c-1.2,0-2.3,0-3.5-0.2c-1.6-0.3-2.8-1.2-2.7-2.9
		c0-1.9,1.3-2.8,3.1-3c0.3,0,0.6,0,0.9,0c4.2,0.1,8.4,0.1,12.6,0.5c3.9,0.3,5.1,2.2,3.9,5.9C359.1,363.2,357.7,366.7,356.5,370.1z"
		/>
	<path d="M384.8,239.2c3.3,0.1,3.4,0.1,4-3.1c0.6-3.3,1.1-6.6,1.7-9.9c0.1-0.9,0.2-1.7,0.5-2.5c0.6-1.5,1.7-2.4,3.4-2.1
		c1.5,0.3,2.2,1.4,2.3,2.8c0,1-0.1,2-0.2,3c-1.6,9.4-3.3,18.9-4.9,28.3c-0.1,0.4-0.1,0.9-0.2,1.3c-0.5,1.6-1.3,3-3.3,2.8
		c-1.7-0.2-2.7-1.6-2.5-3.9c0.2-2.5,0.7-4.9,1.1-7.3c0.4-3.2,0.4-3.2-2.9-3.4c-2.1-0.1-4.1-0.5-6-1.1c-3-1-4.2-2.6-4.3-5.8
		c-0.1-4.8,0.9-9.5,1.8-14.2c0.3-1.7,1.4-2.9,3.4-2.7c1.8,0.2,2.7,1.6,2.4,3.9c-0.4,3-1.1,6-1.4,9c-0.5,4.1-0.2,4.4,4,4.8
		C383.9,239.2,384.4,239.2,384.8,239.2z"/>
	<path d="M444.2,319c3.2,0.2,5.8,0.3,8.4,0.5c1.2,0.1,2.3,0.2,3.4,0.5c1.6,0.4,2.6,1.3,2.5,3c-0.1,1.7-1.3,2.5-2.9,2.6
		c-0.4,0-0.9,0-1.3,0c-4.6-0.2-9.3-0.4-13.9-0.3c-4.1,0.1-5.8-2.6-3.9-6.3c1.3-2.6,3.2-4.8,5.3-6.8c2.1-2.2,4.3-4.3,6.1-6.8
		c1.3-1.9,2.4-4,2.5-6.4c0.1-1.2-0.4-2.3-1.5-2.9c-1.2-0.7-2.3-0.1-3.2,0.7c-0.7,0.7-1.3,1.6-1.9,2.4c-1,1.3-2.1,2-3.7,1.2
		c-1.8-0.9-1.9-2.4-1.4-4.1c1.1-3.8,6.3-7.1,10.2-6.6c4,0.5,7.2,4.1,7.4,8.4c0.1,2.1-0.3,4-1.1,5.9c-1.5,3.9-4.1,7-6.9,9.9
		C447,315.4,445.4,316.6,444.2,319z"/>
	<path d="M206.5,439.1c3.2,0.4,6.1,0.8,8.9,1.2c1.9,0.3,3.4,1.1,3.4,3.2c0,1.8-1.7,3-4.2,2.7c-4.3-0.4-8.6-0.9-12.9-1.5
		c-3.7-0.5-4.9-2.9-2.9-6.2c1.5-2.6,3.6-4.9,5.9-6.9c2.7-2.4,5.4-4.9,8-7.4c1.4-1.3,2.5-2.9,2.7-4.8c0.1-1.1,0.3-2.4-0.9-3.1
		c-1-0.6-2,0.1-2.8,0.7c-0.8,0.6-1.5,1.4-2.2,2.1c-0.5,0.5-0.8,1.2-1.3,1.7c-1.1,1-2.4,1.1-3.6,0.3c-1.2-0.8-1.5-2.1-1.1-3.5
		c1.2-4.2,7.3-8.2,11.6-7.6c2.5,0.3,4.3,1.7,5.3,4c1.9,4.2,1.2,8.2-1.4,11.9c-2.4,3.5-5.8,6.1-8.8,9
		C209,436.1,207.3,436.8,206.5,439.1z"/>
	<path d="M323.9,255.5c-2.3-0.1-5.1-0.7-7.3-2.8c-1.7-1.6-2-3.3-0.9-4.6c1.4-1.7,3-1.4,4.6-0.2c3.1,2.4,6.2,1.9,9.2-0.2
		c2.8-1.9,3-5,0.5-7.4c-1.2-1.1-2.6-1.8-4.2-2.1c-1-0.2-2-0.3-3-0.6c-1.3-0.4-2.3-1.3-2.4-2.8c-0.1-1.5,0.7-2.4,2-3
		c0.9-0.4,1.9-0.8,2.8-1.2c1.3-0.6,2.6-1.3,3.5-2.5c0.6-0.8,1.3-1.7,0.7-2.7c-0.6-1-1.7-1-2.7-0.6c-0.9,0.4-1.9,0.8-2.8,1
		c-1.4,0.3-2.6-0.2-3.2-1.6c-0.6-1.2-0.2-2.3,0.6-3.2c2.3-2.7,8.2-3.3,11.2-1.2c3.5,2.4,4.3,6.6,2.1,10.4c-0.4,0.6-0.7,1.3-1.3,1.8
		c-1.3,1.3-1.2,2.1,0.2,3.5c4.2,4,5.2,8.3,3.4,12.5C335.1,252.2,329.7,255.5,323.9,255.5z"/>
	<path d="M284.5,373.6c0.4-5,1.6-9.9,4.6-14.2c2-3,4.9-4.9,8.4-5.7c2.2-0.6,4.3-0.2,6.3,0.9c1.5,0.9,2.5,2.1,1.7,4
		c-0.7,1.6-2,1.8-3.6,1.6c-4.7-0.7-7,0.5-9,4.6c-1.1,2.4-1,2.7,1.5,3.2c2.3,0.4,4.5,1.1,6.4,2.5c4.4,3.1,4.9,8.5,1.2,12.4
		c-5.3,5.6-13.1,4.1-16.3-3.1C284.9,377.8,284.7,375.8,284.5,373.6z M298.3,376.9c-0.1-0.3-0.1-0.6-0.3-0.8
		c-0.7-1.3-5.5-2.9-6.7-2.3c-0.3,0.2-0.6,0.7-0.6,1c0.2,1.9,0.7,3.7,2.4,4.9c1.3,0.9,2.5,0.3,3.6-0.3
		C297.7,378.8,298.3,378,298.3,376.9z"/>
	<path d="M231.1,441.1c3.7,0.2,6.4,0.3,9.1,1c2.4,0.6,3.4,1.7,3.1,3.4c-0.2,1.7-1.7,2.8-4,2.5c-4-0.6-8.1-0.5-12.2-0.7
		c-4.1-0.2-5.4-2.7-3.4-6.2c1.7-2.9,4-5.4,6.3-7.7c1.9-2,3.8-4,5.3-6.3c1-1.6,1.8-3.3,2.2-5.2c0.3-1.5,0.5-3.1-1-3.8
		c-1.4-0.7-2.5,0.4-3.4,1.3c-0.7,0.7-1.3,1.6-2,2.3c-1.1,1-2.4,1.1-3.6,0.3c-1.2-0.8-1.4-2.1-1-3.5c1.3-4,7.2-7.5,11.2-6.6
		c4.2,0.9,6.6,5.1,6,10.2c-0.6,4.8-3.2,8.7-6.2,12.2C235.6,436.3,233.7,438.2,231.1,441.1z"/>
	<path d="M228.7,365.3c-4.3,0.1-5.3-1.1-4.4-5.1c0.7-3.1,1.5-6.2,2.4-9.3c0.9-3.2,2-4,5.3-3.9c3.6,0.2,7.2,0.7,10.7,1.5
		c1.8,0.4,3.3,1.2,3.1,3.5c-0.2,1.8-1.8,2.6-4.4,2.3c-2.3-0.3-4.6-0.7-6.9-1.1c-2.8-0.5-2.4,1.7-3,3.2c-0.7,1.7-0.2,2.4,1.6,3.1
		c6.2,2.4,8.9,6.1,8.7,11.6c-0.2,4.2-2.3,7.1-6,8.8c-4.1,1.9-8.1,1.9-12.1-0.4c-1.3-0.7-1.8-2-1.3-3.4c0.6-1.6,1.9-2.2,3.5-1.9
		c1,0.2,1.9,0.6,2.9,0.8c3.7,0.6,6.7-1.3,6.9-4.2c0.2-3.1-2.3-5.5-5.8-5.8C229.6,365.2,229.1,365.3,228.7,365.3z"/>
	<path d="M354.2,440.7c1.6,0.4,2-0.8,2.3-2.2c0.6-3.1,1.2-6.3,1.8-9.4c0.2-1,0.3-2,0.8-2.9c0.7-1.1,1.7-1.6,2.9-1.4
		c1.3,0.3,2.1,1.1,2.2,2.3c0.1,1.1,0,2.3-0.2,3.4c-1.6,9-3.3,18-5,26.9c-0.2,1.1-0.5,2.3-0.9,3.4c-0.6,1.5-1.7,2.4-3.4,2
		c-1.7-0.4-2.3-1.7-2.2-3.3c0.1-1.6,0.5-3.1,0.8-4.7c0.4-2,0.7-4,1.1-6c0.3-1.4-0.3-2.2-1.7-2.3c-2.3-0.2-4.6-0.7-6.7-1.6
		c-3.7-1.5-4.8-3.3-4.2-7.1c0.6-3.6,1.5-7.1,2.4-10.6c0.6-2.3,2-3.2,3.7-2.7c1.9,0.6,2.3,2.1,2.1,3.8c-0.4,2.6-0.8,5.2-1.6,7.7
		c-1.1,3.4,0,3.5,2.5,4.1C352,440.5,353,440.5,354.2,440.7z"/>
	<path d="M140.2,430.1c3.5,0.9,6.2,1.5,8.9,1.8c1.1,0.1,2.3,0.3,3.4,0.6c1.4,0.4,2.1,1.6,1.9,3c-0.2,1.5-1.2,2.3-2.7,2.4
		c-1.2,0.1-2.3,0.1-3.5-0.1c-4.3-0.5-8.6-1.4-12.8-2.5c-4-1.1-4.7-3.5-2.1-6.7c1.6-2.1,3.6-3.7,5.7-5.4c2.2-1.9,4.4-3.8,6.6-5.7
		c1.4-1.3,2.5-2.8,3.2-4.6c0.5-1.4,0.8-2.9-0.4-4.1c-1.3-1.2-2.7-0.7-4,0.1c-0.5,0.3-1,0.6-1.5,0.9c-1.4,0.9-2.8,0.9-3.9-0.4
		c-1-1.3-0.8-2.7,0.2-4c1.8-2.4,6.7-4,9.9-3.2c3.4,0.9,5.8,4,6.1,7.7c0.2,2.7-0.5,5.2-2,7.4c-1.9,3-4.3,5.5-7,7.7
		C144.5,426.5,142.7,428,140.2,430.1z"/>
	<path d="M515.9,377.4c0.1-5.1,1.1-10.1,2.6-14.9c1.6-5.1,6.2-6.7,10.6-3.7c2.7,1.9,4.6,4.4,4.9,7.8c0.6,6-0.3,11.8-2.9,17.3
		c-0.2,0.4-0.4,0.8-0.6,1.1c-2.3,3.9-5.1,5.4-8.4,4.8c-3.1-0.6-5.3-3.5-5.8-7.8C516,380.6,516,379,515.9,377.4z M521.9,378.2
		c0.1,0.7,0.2,2,0.3,3.3c0.1,0.8,0.1,1.9,1.2,2c1,0.1,1.5-0.8,1.9-1.6c2.3-4.5,3.1-9.3,2.7-14.2c-0.1-1.2-0.6-2.2-1.5-3.1
		c-1.3-1.3-2.1-1.1-2.7,0.7C522.6,369.3,522.1,373.5,521.9,378.2z"/>
	<path d="M511.4,304c1.2,1,2.3,1.7,3.3,2.6c4.4,4,4.3,10.1-0.2,14.1c-3.8,3.3-8.5,3.6-13.1,3.4c-2.2-0.1-3.5-1.7-3.3-3.3
		c0.3-1.9,1.7-2.4,3.5-2.5c1.9-0.1,3.8-0.3,5.6-0.6c2.8-0.5,4.5-2.1,4.6-3.9c0.1-1.8-1.4-3.3-4.2-4.3c-1.3-0.5-2.5-0.5-3.8-0.6
		c-1-0.1-2-0.2-2.9-0.6c-2.5-1.3-2.8-4-0.3-5.4c1.3-0.8,2.9-1.3,4.3-2c1-0.5,2.1-1.1,3-1.8c0.8-0.6,1.6-1.4,1.4-2.5
		c-0.3-1.4-1.5-1.6-2.7-1.7c-1-0.1-2,0-3-0.1c-2.3-0.3-3.7-1.5-3.5-3.1c0.2-1.9,1.5-2.7,3.3-2.8c1.3-0.1,2.6-0.1,3.9,0
		c3.4,0.3,6.1,1.7,7.6,5c1.4,3.3,0.5,6.2-1.9,8.8C512.4,302.8,512,303.3,511.4,304z"/>
	<path d="M310,505c0.7,0.9,1.5,1.9,2.3,3c2.6,3.9,2.6,9.5,0.1,13.2c-2.9,4.2-8.8,6.6-13.3,5.5c-1.3-0.3-2.5-0.9-3.5-1.7
		c-1.1-0.9-1.5-2.1-0.9-3.5c0.6-1.4,1.8-1.8,3.2-1.6c0.8,0.2,1.6,0.7,2.5,0.8c4.9,0.9,8.8-3.2,7.6-7.8c-0.6-2.2-2.1-3.3-4.3-3.8
		c-1.8-0.4-3.4-1.1-3.6-3.3c-0.1-1.9,1.3-2.7,2.7-3.6c1.5-1,2.9-1.9,4.2-3.1c1.3-1.1,2.7-2.2,2.8-4.4c-1.7-0.3-2.5,1.2-3.8,1.7
		c-1.4,0.6-2.6,0.3-3.5-0.9c-0.8-1-0.7-2.1-0.1-3.2c1.7-3,7.7-5.1,10.8-3.7c2.4,1,3.7,3.7,3.1,6.5c-0.5,2.8-1.9,5.1-3.9,7.2
		C311.6,503.1,310.5,503.6,310,505z"/>
	<path d="M326.5,452.5c2.2,0.4,4.4,0.6,6.5,1.1c2.6,0.5,3.8,1.8,3.5,3.6c-0.3,1.7-1.9,2.8-4.5,2.3c-3.9-0.7-7.8-0.8-11.7-1.3
		c-1.6-0.2-3.2-0.6-3.8-2.4c-0.6-1.8,0.3-3.1,1.4-4.3c3.7-3.9,7.4-7.8,11.1-11.7c1.5-1.6,2.8-3.4,3.5-5.5c0.6-1.6,0.7-3.2-0.7-4.4
		c-1.6-1.3-3-0.2-4.3,0.7c-0.5,0.3-0.9,0.8-1.3,1.2c-1.4,1.2-2.9,1.4-4.3,0c-1.2-1.2-0.9-2.7-0.1-4c2-3.3,7.8-5.4,11.5-4
		c3.8,1.4,6.1,5.5,5.5,9.9c-0.5,3.6-2.3,6.6-4.6,9.2c-2.3,2.6-4.7,5.1-7.1,7.7C326.9,451,326.4,451.4,326.5,452.5z"/>
	<path d="M330,307.2c0.4-3.3,0.2-6.9,1.4-10.4c1.4-4.3,4.4-6.9,7.9-6.9c3.5,0.1,7.6,3.2,8.4,7.1c1.5,7.9,0.1,15.3-5,21.7
		c-1.8,2.3-4.3,3.5-7.3,2.7c-3-0.8-4.3-3.2-4.9-6.1C330,312.7,329.7,310.1,330,307.2z M336.7,315.4c0.9-0.5,1.4-0.6,1.6-0.9
		c3.3-4.4,4.2-9.4,3.7-14.8c-0.1-0.9-0.3-1.7-0.9-2.4c-1.3-1.6-3.1-1.4-3.5,0.6C336.3,303.5,335.1,309.1,336.7,315.4z"/>
	<path d="M295.9,426.9c-2.1-0.4-3,1.1-4.3,2c-1.3,1-2.7,1.2-3.9,0c-1.2-1.2-1.2-2.7-0.3-4c2.2-3,5.3-4.6,9-4.5
		c2.9,0.1,5,2.3,5.5,5.3c0.5,2.8-0.2,5.5-1.7,7.9c-0.8,1.2-1.7,2.4-2.5,3.6c0.2,0.3,0.4,0.7,0.7,1c4.2,3.7,5.2,7.4,3.3,11.9
		c-1.7,4.1-6.1,6.7-10.9,6.4c-1.9-0.1-3.7-0.5-5.4-1.4c-1.6-0.8-2.6-2-1.9-3.9c0.6-1.8,2.1-2.2,3.9-1.7c1.5,0.4,3,1.1,4.7,0.9
		c2.6-0.3,4.3-1.7,4.5-4c0.2-2.2-1.1-3.7-4-4.3c-1-0.2-2-0.1-3-0.2c-1.2-0.2-2.2-0.9-2.5-2.1c-0.3-1.2,0.1-2.3,1.1-3.1
		c1.3-1,2.7-1.7,3.9-2.7C294.1,432.3,296.2,430.3,295.9,426.9z"/>
	<path d="M446.4,250.9c-0.1,6-4.3,10.1-10.3,9.9c-2.4-0.1-4.6-0.7-6.7-1.7c-1.6-0.8-2.7-2-1.9-3.8c0.7-1.8,2.1-2.2,3.9-1.7
		c1.5,0.4,3,1.1,4.6,1.2c2.5,0,3.8-0.8,4.2-2.9c0.4-2-0.3-3.8-2.3-4.6c-1.5-0.6-3.1-0.9-4.6-1.1c-3.8-0.7-4.6-1.9-3.5-5.7
		c0.8-2.9,1.7-5.8,2.6-8.7c1.1-3.5,2.6-4.7,6.3-4.8c3.3,0,6.6,0.8,9.9,1.5c1.8,0.4,2.8,1.6,2.5,3.4c-0.3,2-1.9,2.5-3.6,2.2
		c-2.2-0.3-4.3-0.6-6.4-1c-1.9-0.3-3.1,0.1-3.4,2.2c-0.1,0.4-0.3,0.8-0.4,1.2c-1,3.5-1,3.5,2.3,4.8
		C444.1,243.2,446.5,246.5,446.4,250.9z"/>
	<path d="M176.5,501.1c2.7,1.2,5.4,1.3,7.9,2c0.7,0.2,1.4,0.2,2.1,0.5c1.5,0.5,2.5,1.6,2.2,3.3c-0.3,1.7-1.5,2.6-3.1,2.4
		c-5.2-0.7-10.4-1.4-15.2-3.4c-2.8-1.1-3.1-3.9-0.9-6.5c2.4-2.9,5.4-5.3,8.7-7.2c2-1.2,4-2.3,5.7-3.9c1.3-1.2,2.3-2.7,2.5-4.5
		c0.2-2.2-1.3-3.2-3.3-2.3c-0.9,0.4-1.7,1.2-2.6,1.6c-1.4,0.7-2.9,0.6-3.9-0.8c-0.8-1.2-0.6-2.5,0.3-3.6c2.2-3,7.4-4.5,10.6-3.2
		c3.4,1.5,5.4,5.3,4.9,9.3c-0.5,3.3-2.2,6-4.7,8.1c-1.8,1.5-3.8,2.7-5.7,4C180.1,498,178.1,498.9,176.5,501.1z"/>
	<path d="M170.2,343.3c-0.5,2.3-1.1,5.4-1.7,8.5c-0.3,1.7-0.5,3.1,1.9,3.4c3.5,0.5,4.4,0.3,5-2.2c0.6-2.8,1.1-5.7,1.7-8.5
		c0.2-1.1,0.5-2.3,1-3.3c0.6-1.2,1.7-1.5,3-1.2c1.1,0.2,1.8,1,2,2c0.4,1.5,0,2.9-0.3,4.3c-1.7,8.4-3.4,16.7-5.1,25.1
		c-0.8,3.7-2,4.9-4.1,4.4c-1.9-0.5-2.4-2-1.8-5.5c0.1-0.7,0.4-1.4,0.5-2.1c0.3-2,1.7-4.1,0.9-5.9c-1-2-3.6-1-5.5-1.5
		c-4.3-1.2-6.1-3.4-5.4-8c0.5-3.9,1.4-7.7,2.1-11.5c0.4-1.9,1.3-3.3,3.5-3.1C169.6,338.6,170.3,340,170.2,343.3z"/>
	<path d="M502.7,383.6c3.1,0.2,5,0.2,6.9,0.4c1.1,0.1,2.3,0.2,3.4,0.6c1.5,0.5,2.4,1.7,2.1,3.4c-0.3,1.5-1.4,2.1-2.9,2.2
		c-0.7,0-1.4-0.1-2.2-0.1c-3.8-0.1-7.5-0.5-11.3-0.1c-1.9,0.2-3.9,0.1-4.9-1.9c-1-2.1,0.3-3.7,1.5-5.1c2.2-2.5,4.5-4.9,6.8-7.3
		c1.9-2,3.6-4.2,4.4-6.9c0.5-1.7,0.9-3.6-0.9-4.8c-1.7-1.2-3.3-0.4-4.8,0.7c-2.8,2-4.1,2.1-5.2,0.8c-1.3-1.6-0.5-4,2-5.9
		c3.3-2.5,8-2.9,11-1c3.6,2.3,4.7,5.8,4.1,9.8c-0.6,4.3-3,7.8-5.9,10.9C505.7,380.4,504.5,381.7,502.7,383.6z"/>
	<path d="M267.3,446.3c3.3,0.4,5.6,0.7,7.8,1c0.9,0.1,1.7,0.2,2.5,0.5c1.3,0.5,2.2,1.5,2,3c-0.2,1.7-1.3,2.6-3,2.6
		c-1.9,0-3.8-0.3-5.6-0.5c-3-0.4-6.1-0.7-9-1.4c-4.2-0.9-5.1-3.9-2.1-6.9c2.9-2.9,6-5.5,9-8.2c2.1-2,4.1-4.1,5.2-6.9
		c0.5-1.2,1.1-2.6-0.1-3.6c-1-0.9-2.2-0.3-3.2,0.2c-0.1,0.1-0.3,0.1-0.4,0.2c-1.7,1.1-3.5,1.8-4.9-0.3c-1.1-1.6-0.2-3.5,2.1-5
		c3.5-2.2,7.4-2.3,10.2-0.2c2.9,2.3,3.7,5.4,2.4,9.8c-1.1,3.7-3.5,6.6-6.2,9.3C272,441.9,270,443.8,267.3,446.3z"/>
	<path d="M407.8,428.1c1.8,0.3,4.7,0.7,7.5,1.3c1.7,0.4,3,1.4,2.7,3.3c-0.3,1.9-1.7,2.6-3.5,2.5c-1.3-0.1-2.6-0.4-3.9-0.5
		c-1.2-0.2-2.8-1.1-3.6,0.3c-1,1.6-1.5,3.5-1.5,5.4c0,0.9,0.9,0.9,1.6,1.1c5.5,1.7,8.2,5.6,7.4,11.2c-0.9,5.6-5.4,10.2-10.9,11
		c-1.5,0.2-2.9-0.1-4.2-0.7c-1.5-0.6-2.3-1.8-1.9-3.5c0.4-1.7,1.7-2.5,3.2-2.2c1.5,0.3,2.9,0.3,4.2-0.5c1.9-1,3.1-2.6,3.6-4.7
		c0.6-2.6-0.5-4.3-3-4.8c-0.4-0.1-0.9-0.1-1.3-0.1c-6.2-0.4-6.8-1.2-5.1-7.1c0.8-2.6,1.4-5.3,2.1-8
		C402.3,428.5,402.9,428,407.8,428.1z"/>
	<path d="M438.6,456.9c2.6,0.3,4.8,0.6,7.1,0.8c1.2,0.1,2.3,0.2,3.3,0.8c0.9,0.6,1.4,1.5,1.4,2.5c-0.1,1.3-0.8,2.2-2,2.5
		c-0.7,0.2-1.4,0.2-2.1,0.2c-4.3-0.5-8.6-0.7-13-0.7c-3.8-0.1-5.1-2.6-3-5.9c1.5-2.5,3.5-4.6,5.5-6.7c1.9-2,3.7-4,5.5-6.1
		c1.2-1.4,2.1-3.1,2.3-5.1c0.1-1.1-0.1-2-1-2.7c-1-0.8-1.9-0.3-2.8,0.3c-0.7,0.5-1.4,1.1-2.1,1.5c-1.2,0.7-2.5,0.7-3.6-0.3
		c-1.1-1.1-1-2.4-0.3-3.6c1.3-2.5,5.9-4.7,9-4.2c3.5,0.5,6.1,2.9,6.7,6.5c0.6,3.3-0.1,6.3-1.8,9.2c-1.6,2.6-3.7,4.8-5.8,7
		C440.7,454.1,439.4,455,438.6,456.9z"/>
	<path d="M245,490c-1.7-0.3-2.2,0.7-3,1.3c-1.3,0.9-2.7,1.1-4,0c-1.2-1.2-1.2-2.6-0.2-4c2-2.8,4.8-4.3,8.2-4.1
		c3.3,0.1,5.6,3.6,5.1,7.3c-0.4,2.9-1.9,5.2-4,7c-1.6,1.4-1.9,2.4-0.6,4.3c2.3,3.4,2.4,7.1,0.3,10.7c-3.1,5.6-10.8,6.4-15.2,1.7
		c-1.1-1.3-2-2.6-0.8-4.3c1-1.5,2.5-1.5,4.6-0.3c0.1,0.1,0.2,0.2,0.3,0.3c2.7,1.6,4.5,1.6,5.7-0.2c1.4-2,0.6-4.8-1.6-6.5
		c-5-3.5-5-4.3,0.2-7.7C242,494.2,243.9,492.8,245,490z"/>
	<path d="M383.7,454.6c1.9,0.9,3.6,0.5,5.1,0.8c1.1,0.2,2.3,0.4,3.4,0.8c1.4,0.5,2.1,1.6,1.8,3.1c-0.2,1.2-1.1,2.2-2.4,2.2
		c-4.7,0.1-9.3,0-13.7-2c-2.5-1.1-3-3.4-1.3-5.8c2.1-3,4.4-5.7,6.6-8.6c1.2-1.6,2.5-3.2,3.6-4.9c0.8-1.2,1.3-2.6,1.2-4.1
		c-0.1-2.1-0.9-2.7-2.7-1.7c-0.5,0.3-0.9,0.7-1.4,1c-1.4,1-2.7,0.9-3.9-0.4c-1.1-1.3-0.9-2.6,0.1-4c1.6-2.2,5.4-3.8,8.1-3.2
		c3,0.6,5.3,3.1,5.8,6.3c0.4,2.8-0.1,5.5-1.3,8c-1.2,2.5-3,4.6-4.8,6.7C386.5,450.5,384.9,452.2,383.7,454.6z"/>
	<path d="M536.1,437.1c-2.3-0.6-4.8-0.3-7.2-0.5c-0.9-0.1-1.8,0.1-2.6-0.1c-1.6-0.2-2.8-1.1-2.9-2.8c-0.1-1.7,1-2.8,2.6-3
		c4.8-0.4,9.6-0.3,14.3,0.2c2.1,0.2,3.1,2.1,2.9,4.3c-0.2,1.6-0.6,3.1-1.2,4.6c-3.2,9-7.1,17.8-11.1,26.5c-1.4,3.1-3,4-4.8,3.1
		c-1.8-0.9-2-2.5-0.6-5.7c3.2-7.5,6.4-14.9,9.5-22.4C535.6,440.1,536.4,438.8,536.1,437.1z"/>
	<path d="M171.9,407.1c-0.1,0.5-0.3,1.3-0.5,2.2c-2.6,8.6-5,17.2-6.8,26.1c-0.7,3.4-1.9,4.6-3.9,4.3c-2.1-0.3-2.7-1.9-2-5.7
		c1.8-9.3,4.6-18.3,7.2-27.3c0.1-0.4,0.3-0.8,0.5-1.2c0.7-1.5,1.7-2.4,3.4-2C171.4,403.8,172.1,405,171.9,407.1z"/>
	<path d="M319,523.9c0.5-2.1,1.2-4.7,1.8-7.4c1.5-6.5,2.9-13,4.3-19.5c0.2-1.1,0.4-2.3,1.1-3.3c0.8-1.2,1.8-1.9,3.3-1.4
		c1.4,0.4,2.1,1.5,2,3c0,0.7-0.2,1.4-0.3,2.1c-2,8.8-4,17.5-6,26.3c-0.2,0.7-0.4,1.4-0.6,2.1c-0.6,1.7-1.7,2.7-3.6,2.2
		C319.3,527.5,318.9,526.2,319,523.9z"/>
	<path d="M158.4,342.3c-0.6,7.9-2.5,15.7-3.5,23.6c-0.2,1.3-0.3,2.6-0.5,3.9c-0.3,1.9-1.1,3.4-3.3,3.4c-1.8,0-2.9-1.7-2.7-4.2
		c0.4-3.6,1-7.2,1.5-10.7c0.7-4.9,1.5-9.7,2.2-14.6c0.1-0.7,0.2-1.4,0.3-2.1c0.3-1.9,1-3.4,3.2-3.3
		C157.6,338.2,158.6,339.8,158.4,342.3z"/>
	<path d="M335.2,360.1c-0.9,7.9-1.9,16.6-3,25.4c-0.3,2.5-1.7,3.8-3.6,3.5c-2.2-0.4-2.6-2.1-2.4-4c0.6-5.7,1.3-11.5,2-17.2
		c0.3-2.9,0.7-5.7,1-8.6c0.1-0.9,0.2-1.7,0.5-2.6c0.5-1.4,1.5-2.2,3-2.1c1.5,0.1,2.4,1.1,2.5,2.5
		C335.3,357.7,335.2,358.5,335.2,360.1z"/>
	<path d="M375.9,386.4c1-6.6,2-13.1,3-19.5c0.4-2.4,0.7-4.9,1.1-7.3c0.3-1.7,1.2-3,3.2-2.9c1.7,0.1,2.8,1.5,2.6,3.8
		c-0.4,3.9-1,7.8-1.5,11.6c-0.7,4.6-1.5,9.1-2.2,13.7c-0.1,0.4-0.1,0.9-0.2,1.3c-0.3,1.9-1.2,3.3-3.3,3.3
		C376.8,390.4,375.8,388.7,375.9,386.4z"/>
	<path d="M432.6,295.8c-1,5.8-2.1,12.1-3.2,18.4c-0.4,2.4-0.8,4.9-1.3,7.3c-0.5,2.4-1.8,3.3-3.5,3c-1.7-0.3-2.8-1.7-2.4-4
		c1.5-8.9,3-17.7,4.7-26.6c0.4-2.3,1.9-3.3,3.6-2.8c2,0.5,2.3,2,2.2,3.7C432.7,295.1,432.7,295.2,432.6,295.8z"/>
	<path d="M486.4,314.3c0.4-6.1,0.8-12.1,1.2-18.2c0.1-1.4,0.3-2.9,0.6-4.3c0.3-1.4,1.4-2.2,2.9-2.1c1.4,0.1,2.4,1.1,2.5,2.5
		c0.1,1,0.1,2,0,3c-0.6,7.8-1.1,15.6-1.7,23.3c-0.1,0.7-0.1,1.4-0.3,2.1c-0.4,1.4-1.4,2.3-2.8,2.2c-1.7,0-2.7-1.1-2.8-2.7
		c-0.1-2,0.2-4,0.3-6C486.4,314.3,486.4,314.3,486.4,314.3z"/>
	<path d="M440.9,361.7c-1.1,8-2.2,16.1-3.4,24.1c-0.1,0.8-0.5,1.7-0.9,2.4c-0.6,0.9-1.5,1.4-2.6,1.2c-1.2-0.2-2.2-0.9-2.3-2.2
		c-0.1-1.3,0-2.6,0.1-3.9c1-7.3,2-14.7,3.1-22c0-0.3,0.1-0.6,0.1-0.9c0.2-2,1-3.4,3.1-3.5c1.6-0.1,2.7,1.5,2.8,3.8
		c0,0.3,0,0.6,0,0.9C440.8,361.7,440.9,361.7,440.9,361.7z"/>
	<path d="M390.6,292.7c-0.8,8-1.7,15.7-2.5,23.5c-0.1,0.8-0.3,1.8-0.7,2.5c-1.2,2-3.8,1.9-4.9-0.2c-0.6-1.1-0.4-2.2-0.3-3.4
		c0.8-7.6,1.6-15.3,2.4-22.9c0.1-0.6,0.1-1.2,0.2-1.7c0.4-1.7,1.3-3,3.3-2.8c2,0.2,2.6,1.7,2.6,3.4
		C390.7,291.7,390.7,292.3,390.6,292.7z"/>
	<path d="M367.9,312.7c0.6-6.8,1.3-13.6,1.9-20.3c0.1-0.6,0.1-1.2,0.2-1.7c0.4-1.5,1.4-2.7,3.1-2.5c1.7,0.1,2.6,1.3,2.7,2.9
		c0.1,1.2,0.1,2.3-0.1,3.5c-0.9,6.5-1.3,13-1.7,19.5c-0.1,1.2-0.3,2.3-0.5,3.4c-0.3,1.6-1.3,2.7-3,2.6c-2-0.1-2.7-1.5-2.7-3.3
		c0-1.3,0.1-2.6,0.2-3.9C367.9,312.7,367.9,312.7,367.9,312.7z"/>
	<path d="M318.1,313.3c0.4-6.7,1.2-12.6,2-18.5c0.2-1.3,0.5-2.6,1.1-3.7c0.5-1.2,1.6-1.6,2.9-1.4c1.3,0.2,2.1,1.1,2.2,2.3
		c0.1,1,0,2-0.1,3c-1.1,7.2-1.7,14.4-2.4,21.6c-0.1,0.6-0.1,1.2-0.2,1.7c-0.2,1.8-1.2,3-3.1,3.1c-1.7,0.1-2.9-1.5-2.8-3.7
		C317.7,316,318,314.3,318.1,313.3z"/>
	<path d="M271.2,380.6c1.5-7.3,3.1-15.4,4.8-23.5c0.4-1.8,1.4-3.4,3.6-2.9c2.2,0.4,2.5,2.2,2.2,4.1c-1.3,6.8-2.7,13.6-4,20.5
		c-0.3,1.3-0.4,2.6-0.8,3.8c-0.7,2.3-1.9,3.3-3.6,2.9C271.1,385,271,383.3,271.2,380.6z"/>
	<path d="M208.6,236.4c0.4-1.6,0.7-3.4,1.2-5.3c1.3-5.2,2.6-10.4,3.9-15.6c0.4-1.4,0.7-2.8,1.7-4c0.8-0.9,1.8-1.4,3.1-0.9
		c1.2,0.5,1.8,1.4,1.9,2.7c0,0.6-0.2,1.1-0.3,1.7c-1.8,7.3-3.6,14.6-5.4,22c-0.1,0.3-0.1,0.6-0.2,0.8c-0.6,1.7-1.6,2.9-3.5,2.5
		C209,239.9,208.4,238.5,208.6,236.4z"/>
	<path d="M218.9,354c-0.9,6.1-2,13.3-3.2,20.4c-0.1,0.7-0.3,1.4-0.6,2.1c-0.6,1.3-1.6,2.1-3.1,1.8c-1.5-0.3-2.3-1.4-2.3-2.8
		c0-1.9,0.3-3.7,0.6-5.6c0.8-5.7,1.7-11.4,2.6-17.2c0-0.1,0-0.3,0.1-0.4c0.6-3.3,1.8-4.7,3.8-4.3C218.6,348.4,219.2,349.8,218.9,354
		z"/>
</g>
<g>
	<path class="st5" d="M1068.8,785.3c0,1.3-0.7,2.5-1.3,3.5c-5,8-9.9,16-15,23.9c-2.6,4-3.7,4.1-7.9,1.8
		c-24.7-13.6-50-26.3-74.6-40.1c-5.1-2.9-10.5-5.4-15.8-8c-32.6-16.1-64.1-34.4-96.2-51.5c-14.9-8-30.1-15.4-44.7-23.9
		c-38.9-22.9-77.9-45.6-116.9-68.5c-19-11.2-38.6-21.1-58.1-31.4c-19.3-10.2-38.2-21.3-57.3-31.9c-2.1-1.2-4-2.7-5.7-4.4
		c-12.1-11.8-24.2-23.6-36.4-35.3c-2.1-2-2.6-3.6-1-6c1.4-2.1,1.7-5.4,3.8-6.4c2.2-1,4.9,0.6,7.3,1.3c14.9,3.7,29.7,7.5,44.5,11.2
		c2.7,0.7,5.1,1.8,7.5,3.1c32.5,17.3,65,34.7,97.1,52.8c11.7,6.6,23.2,13.4,34.8,20.2c30.4,17.6,61.2,34.5,91.8,51.7
		c15,8.4,29.9,17.1,44.8,25.8c13.1,7.6,26.7,14.4,40.4,20.8c21.2,10,41.9,21,62.5,32.2c28.3,15.4,56.3,31.4,83.9,48.1
		c3.4,2.1,6.6,4.5,9.8,6.8C1067.8,781.9,1068.9,783.3,1068.8,785.3z"/>
	<path class="st6" d="M630.6,787.2c-1.1-0.1-2.2-0.1-3.3-0.3c-10.2-1.5-15.3-9.9-12-19.7c1.5-4.3,4-8,6.8-11.5
		c3.7-4.6,8-8.7,12.4-12.6c9.4-8.6,18.9-17.2,28-26.1c1-1,2.1-2,3.2-2.9c3.7-3,5.1-2.6,7.8,1.5c7.4,10.9,12.9,22.7,15.4,35.7
		c1.1,5.8,0.7,7.1-4.3,10.3c-11.4,7.4-23,14.4-35.2,20.2C643.5,784.7,637.4,787,630.6,787.2z"/>
	<path class="st6" d="M613.7,680.6c-12,0.2-23.9-0.2-35.7-2.6c-6-1.2-11.6-3.5-16.6-7c-9.5-6.5-6.8-17.2-0.7-21.9
		c3.5-2.7,7.4-4.3,11.6-5.6c8.5-2.7,17.4-4.1,26.1-5.7c2.3-0.4,4.7-1,7-1.4c2.5-0.4,4.4,0.4,5.7,2.6c1.5,2.6,3.1,5.2,4.5,7.9
		c5,9.1,10.5,17.8,17.4,25.7c0.5,0.6,1.1,1.2,1.5,1.9c1.5,2.5,0.6,4.8-2.2,5.6c-1.4,0.4-2.8,0.5-4.2,0.5
		C623.2,680.7,618.5,680.6,613.7,680.6z"/>
	<path class="st6" d="M578.1,567.8c7.9-0.3,8.4,0.1,10.7,6.5c2.6,7.3,5.4,14.6,8.1,21.9c0.5,1.5,1,3,1.2,4.6
		c0.4,3.1-1.4,4.8-4.5,4.5c-0.2,0-0.3,0-0.5-0.1c-10.4-3.1-20.9-5.7-30.2-11.6c-2.3-1.4-4.4-3.2-6-5.4c-5.5-7.3-2.7-16,6.1-18.4
		C568.3,568.4,573.7,568.1,578.1,567.8z"/>
	<path class="st7" d="M1010,887.6c-9.6-9.6-34.2-37.6-43.3-47.6c-3.6-4-6.2-8.4-7.5-13.7c-3.3-13.3-6.7-26.6-10.1-39.9
		c-2.2-8.5-4.5-17-6.7-25.4c-0.8-3.1-2.4-5.5-5.6-6.6c-0.7-0.2-1.4-0.8-2.1-1.2c-13-7.4-25.9-15.2-39.1-22.2
		c-48.3-25.4-95.2-53.3-143.2-79.2c-22-11.9-43-25.6-64.6-38.3c-1.4-0.8-2.5-2-3.4-3.3c-4.3-6-8.6-11.9-12.9-17.8
		c-9.9-13.4-20.4-26.2-32.5-37.7c-10.5-10-22.9-15.5-37.1-17.3c-4.2-0.6-8.2,0.1-12,2.4c-6.4,3.8-8.5,9.6-8.3,16.6
		c0.2,7,2.3,13.5,5,19.8c3.6,8.5,6.7,17.2,8.8,26.3c1.6,6.8,3.3,13.7,5.1,20.4c3.2,11.7,6.6,23.4,14,33.3
		c7.5,10.1,15.8,19.7,25.4,27.9c18.6,15.9,32.4,35,41.3,57.8c5,12.6,9.8,25.3,14.1,38.1c10.7,31.8,26.5,60.7,48.3,86.3
		c24.3,28.5,46.2,46.3,75.6,69.4C819.1,936,895.7,921.2,1010,887.6z"/>
	<path class="st7" d="M757.1,547.1c-7.3-4.5-15.2-7.4-23.3-9.7c-19.5-5.5-39.4-5.6-59.4-4.4c-10.4,0.6-20.7,1.5-31,2.2
		c-4.8,0.3-9.5,1.3-14.3,1.3c-7,0-13.6-1.4-19.8-4.6c-10.5-5.4-20.9-10.9-31.3-16.5c-4-2.2-4.3-5.4-0.4-8.2
		c6.1-4.4,12.5-8.2,19.5-11.1c15-6.2,30.5-10.4,46.3-13.4c19.8-3.7,39.5-7.6,59.6-9.1c15-1.2,29.9-1.7,45-0.9
		c18.5,1,35.6,6.5,52.2,14.3c4.2,2,8.4,4,12.4,6.2c24.1,13.8,49.2,25.7,73.9,38.4c9.5,4.9,18.8,10.2,27.6,16.4
		c7.8,5.4,14.6,11.9,20.6,19.2c8,9.9,12.3,21,12.8,33.8c0.6,15.2-0.9,30.3-3,45.3c-2.3,16.8-4.8,33.5-7.3,50.2
		c-0.2,1.6-0.5,3.2-1,4.7c-1.5,4.7-4.5,6-8.8,3.6c-15.1-8.2-30.5-16-45.7-24.2c-35.5-19.3-70.2-39.8-105.6-59.3
		c-31-17.1-62.2-33.9-93.3-50.8c-4.6-2.5-9.2-5.2-13.7-7.8c-2.2-1.2-4.2-2.6-3.8-5.5c0.5-3.1,3.1-3.4,5.4-3.7
		c12.8-1.9,25.5-3.9,38.4-5.6c8.5-1.1,17.1-2.2,25.7-2.3C742.2,545.6,749.6,545.8,757.1,547.1z"/>
	<path class="st4" d="M537.7,516.1c-1.6-0.1-2.3-0.8-3-1.4c-6.3-5.2-12.7-10.5-19-15.8c-0.5-0.4-0.9-0.9-1.2-1.4
		c-0.4-0.9,0.1-1.6,1.1-1.5c0.8,0,1.5,0.4,2.2,0.7c7.3,3,14.6,6,21.9,9.1c2.6,1.1,3,2.1,1.9,4.8c-0.6,1.5-1.4,2.8-2.2,4.2
		C539,515.6,538.2,516,537.7,516.1z"/>
	<path class="st6" d="M831.4,711.7c0.1,2.5-2.3,4-4.6,2.8c-1.3-0.7-2.1-1.9-3.1-2.9c-15.4-16.1-31.5-31.2-50.1-43.6
		c-3.2-2.1-6.4-4.3-9.8-6c-20.4-10.3-39.8-22.2-60.2-32.5c-5-2.5-10-4.9-15.2-7c-2.9-1.2-5.1-2.9-6.9-5.5
		c-8.5-12.5-17.3-24.9-26.4-37c-6.8-9.1-14.2-17.7-22.1-25.8c-1.7-1.7-3.6-3.1-5.4-4.7c-1.5-1.3-2.1-3-0.9-4.7
		c1.2-1.7,3.1-1.6,4.7-0.5c2.9,2,5.5,4.3,7.9,6.9c9.8,10.3,18.7,21.3,27,32.9c6.5,9.1,12.9,18.2,19.3,27.4c1.8,2.6,3.9,4.3,6.8,5.6
		c13.3,5.8,26.2,12.6,38.7,19.9c9,5.2,18.1,10.1,27.4,14.8c19.3,9.7,36.1,22.8,51.8,37.5c6.4,6,12.7,12.1,18.7,18.6
		C830.1,708.9,831.4,710,831.4,711.7z"/>
	<path class="st2" d="M588,557.3c-0.1-11.6,6.2-16.2,16.5-12.2c8.7,3.4,15.5,9.4,21.1,16.8c1.9,2.5,1.5,4.6-1,6.7
		c-1.4,1.2-3.1,2.3-4.7,3.4c-5.3,3.5-10.8,6.8-15.8,10.7c-4.2,3.3-6.8,2.6-8.9-2.3c-2.1-5-4-10.1-5.8-15.2
		C588.4,562.4,587.8,559.6,588,557.3z"/>
	<path class="st6" d="M737.4,551.5c-14.6,0.3-28.6,2.4-42.7,4.3c-8.5,1.2-17.1,2.3-25.5,4.1c-0.5,0.1-0.9,0.2-1.4,0.2
		c-1.9,0-3.5-0.7-3.9-2.8c-0.4-2.1,0.9-3.4,2.8-3.8c3.3-0.7,6.6-1.3,9.9-1.8c17.2-2.5,34.4-5.1,51.7-6.5c13-1,25.8,0,38.4,3.8
		c7.2,2.2,14.3,4.5,21.2,7.3c1.3,0.5,2.7,1,3.8,2c1.1,1.1,1.6,2.4,0.8,3.9c-0.8,1.4-2.1,2-3.6,1.6c-1.1-0.3-2.1-0.8-3.1-1.2
		c-12.1-4.5-24.2-9-37.2-10.5C744.7,551.6,740.9,551.6,737.4,551.5z"/>
	<path class="st6" d="M793.7,624.7c0.4-2,0.7-3.9,1.2-5.8c5.6-22.2,14.3-42.6,32-58.2c5.3-4.7,10.9-8.8,16.7-12.8
		c1.2-0.8,2.5-1.5,4-0.9c1.9,0.8,2.5,3.1,1.1,4.8c-0.9,1.1-2.1,1.9-3.3,2.7c-5.3,3.9-10.6,7.7-15.4,12.2
		c-11.5,10.9-19.5,23.9-24.3,39c-1.9,6.1-4.1,12.1-5.3,18.4c-0.1,0.6-0.3,1.2-0.5,1.8c-0.6,1.9-2,2.9-4,2.4
		C794,627.8,793.7,626.2,793.7,624.7z"/>
	<path class="st6" d="M855,580.5c1.9,0.1,3.6,0.6,4,2.7c0.4,2.4-1.1,3.2-3.2,3.9c-13.7,4.3-25.5,11.5-34.8,22.7
		c-2.4,2.8-4.3,6-6.2,9.1c-0.4,0.7-0.8,1.4-1.3,2c-1.8,2.4-3.5,3-5.1,1.9c-1.6-1.1-1.7-2.9-0.3-5.5c9.7-17.8,24.9-29.1,43.7-35.9
		C852.9,581,854,580.8,855,580.5z"/>
	<path class="st6" d="M762.3,489c-0.3,13.2-2.5,25.9-9.4,37.5c-1.3,2.2-2.7,4.3-4.6,6c-1.5,1.3-3.2,1.6-4.7,0.2
		c-1.6-1.4-1.2-3.2,0-4.7c9.4-11.4,11.8-25.1,12.3-39.3c0.1-2.2-0.1-4.5,0-6.7c0.1-2,1-3.5,3.1-3.5c2.1-0.1,3.2,1.3,3.4,3.3
		C762.4,484.2,762.3,486.6,762.3,489z"/>
	<path class="st6" d="M679.7,513c-0.1-7.9-1.6-15.5-5.2-22.6c-0.6-1.1-1.2-2.3-1.5-3.5c-0.4-1.5,0.1-2.8,1.6-3.6
		c1.6-0.8,2.8-0.2,3.8,1c0.6,0.7,1.1,1.6,1.5,2.4c5.6,11,7.5,22.6,5.8,34.8c-0.2,1.4-0.6,2.8-1.1,4.2c-0.9,2.5-2.4,3.4-4.2,2.9
		c-1.8-0.5-2.7-2.2-2-4.7c0.6-2.3,1.1-4.7,1.3-7C679.8,515.5,679.7,514.2,679.7,513z"/>
</g>
</svg>
