<?xml version="1.0" encoding="utf-8"?>
<!-- Generator: Adobe Illustrator 25.4.1, SVG Export Plug-In . SVG Version: 6.00 Build 0)  -->
<svg version="1.1" id="Capa_1" xmlns="http://www.w3.org/2000/svg" xmlns:xlink="http://www.w3.org/1999/xlink" x="0px" y="0px"
	 viewBox="0 0 762.3 276.5" style="enable-background:new 0 0 762.3 276.5;" xml:space="preserve">
<style type="text/css">
	.st0{opacity:0.7;}
	.st1{opacity:0.7;fill:#DFEB6A;enable-background:new    ;}
	.st2{enable-background:new    ;}
	.st3{fill:#3C246F;}
</style>
<g class="st0">
	<path class="st1" d="M583,190.5c14.5,6.9,117.4-0.6,125,1.5c6.3,2.8-0.4,52-5.6,59.3c-1.8,2.6-4.1,3-9.5,1.8
		c-8.5-2.3-117.1,2-117.1,2c-1.5-1.5-5.5,3.6-6.4,1.7c-2.8-4.3-178.8,1.3-193.8,1.5c-9.1,0.1-2.1-2.8-12.7-1.6
		c-22.7,2.3-72.7,0-89.9,2.7c-13.7,2.2-16.7,2.3-30.2,0.5c-13.7-1.6-85.9,0.6-94,4c-2,0.9-3.5,0.6-3.6-0.5c0-0.2-51.1-1.1-51.3-2
		c-0.5-1.1-2-1.6-3.4-0.9c-2.6,1.1-56.6,5.2-57.7,2c-3.2-9.1,1.8-47.9,7.5-57.3c5.8-10.1,42,1.3,70.1-4.7l132.6-0.4l28.2-3.7
		c3.5,3.3,15.5-4.9,23.4,0.9c3.3,2.3,25.9,2.7,30.8,0.3c4.2-1.9,120.1,3.1,131.5-3.5C478.1,199.5,563.2,191.8,583,190.5z"/>
	<path class="st1" d="M602.8,127.7c15.3,8.3,112.3-5.4,118.9-3.4c6.2,3,2.9,60.9-1.8,69.8c-1.7,3.1-3.9,3.7-9.2,2.6
		c-2.1-0.6-10.3-0.2-21.4,0.4c-15.1,0.9-22.3,1.4-92.9,6.5c-1.5-1.8-5.4,4.4-6.3,2.2c-1.4-2.5-45-1.1-90.2,0.1
		c-22.6,0.6-95.6,2-99.3,2c-8.9,0-1.8-3.3-12.3-2.2c-22.4,2.3-71-2.3-88,0c-13.7,1.9-16.6,1.9-29.5-0.9c-10.8-2.3-83.6-4.6-92.2-1.3
		c-2.1,1-3.5,0.4-3.4-0.9c-1.3-0.2-49.5-5.4-49.6-6.4c-0.2-1.3-1.7-2-3.2-1.3c-2.7,1.3-56,0.8-56.4-3.1c-1-10.8,12-55.3,19.2-65.7
		c3.8-5.5,13.6-4.2,26-2s27.4,5,41.3,2.7c142,10.9,128.7,7.9,153.2,5.1c2.9,4,15.1-5,22.2,2c2.9,2.9,24.4,4.1,29.3,1.4
		c2.1-1.1,30.6,0.7,60,1.5c8.9,0.2,58.3,1.6,65.4-3.4C505.5,140.6,594.1,128.6,602.8,127.7z"/>
</g>
<g class="st0">
	<path class="st1" d="M604.7,72.5c15.7,6.9,126.9-0.6,135.1,1.5c6.8,2.8-0.4,52-6.1,59.3c-2,2.6-4.5,3-10.3,1.8
		c-9.2-2.3-126.6,2-126.6,2c-1.7-1.5-6,3.6-7,1.7c-3-4.3-193.3,1.3-209.5,1.5c-9.9,0.1-2.2-2.8-13.8-1.6c-24.6,2.3-78.6,0-97.2,2.7
		c-14.8,2.2-18.1,2.3-32.6,0.5c-14.8-1.6-92.9,0.6-101.6,4c-2.1,0.9-3.8,0.6-3.9-0.5c0-0.2-55.2-1.1-55.5-2
		c-0.5-1.1-2.2-1.6-3.7-0.9c-2.8,1.1-61.2,5.2-62.4,2c-3.5-9.1,1.9-47.9,8.1-57.3c6.3-10.1,45.4,1.3,75.8-4.7L236.8,82l30.5-3.7
		c3.7,3.3,16.7-4.9,25.3,0.9c3.6,2.3,28,2.7,33.3,0.3c4.6-1.9,129.8,3.1,142.2-3.5C491.2,81.5,583.3,73.8,604.7,72.5z"/>
	<path class="st1" d="M594.6,7.2c16.3,8.9,119.8-5.8,127-3.7c6.6,3.2,3.1,65.1-1.9,74.5c-1.8,3.3-4.1,4-9.8,2.8
		c-2.3-0.6-11-0.3-22.8,0.4c-16.1,0.9-23.8,1.5-99.2,7c-1.6-1.9-5.7,4.7-6.7,2.3c-1.5-2.7-48.1-1.2-96.3,0.1
		c-24.1,0.6-102.1,2.1-106,2.1c-9.5,0-1.9-3.5-13.2-2.4c-23.9,2.5-75.8-2.5-93.9,0c-14.6,2-17.7,2-31.5-0.9
		c-11.6-2.5-89.3-4.9-98.4-1.4c-2.2,1-3.8,0.5-3.7-0.9c-1.4-0.2-52.8-5.7-52.9-6.9c-0.3-1.4-1.8-2.2-3.4-1.4
		c-2.9,1.4-59.8,0.8-60.2-3.3C20.4,64,34.3,16.6,42,5.4C46.1-0.5,56.5,1,69.8,3.3C83,5.6,99,8.6,113.8,6.2
		c151.6,11.6,137.4,8.4,163.6,5.5c3.1,4.3,16.1-5.3,23.7,2.2c3.1,3.1,26.1,4.3,31.2,1.5c2.2-1.2,32.7,0.8,64.1,1.6
		c9.5,0.2,62.2,1.7,69.8-3.6C490.7,21,585.3,8.1,594.6,7.2z"/>
</g>
<g>
	<g class="st2">
		<path class="st3" d="M136.9,29.6h4.7v21h-4.7l-10-13.1v13.1h-4.7v-21h4.4l10.3,13.5V29.6z"/>
		<path class="st3" d="M162.4,42.5c0,2.3-0.8,4.3-2.4,5.9c-1.6,1.6-3.7,2.4-6.1,2.4c-2.5,0-4.5-0.8-6.1-2.4
			c-1.6-1.6-2.4-3.6-2.4-5.9s0.8-4.3,2.4-5.9c1.6-1.6,3.7-2.4,6.1-2.4c2.4,0,4.5,0.8,6.1,2.4C161.6,38.2,162.4,40.1,162.4,42.5z
			 M149.9,42.5c0,1.3,0.4,2.4,1.1,3.2s1.7,1.2,2.9,1.2s2.1-0.4,2.9-1.2s1.1-1.9,1.1-3.2c0-1.3-0.4-2.4-1.1-3.2
			c-0.8-0.8-1.7-1.3-2.9-1.3s-2.1,0.4-2.9,1.3C150.3,40.1,149.9,41.2,149.9,42.5z"/>
		<path class="st3" d="M181.4,46.8c1.5,0,2.9-0.8,4-2.2l2.7,3c-2.1,2.2-4.3,3.2-6.8,3.2s-4.5-0.8-6.1-2.3c-1.7-1.5-2.5-3.5-2.5-6
			s0.8-4.5,2.5-6s3.7-2.3,6-2.3c1.2,0,2.3,0.2,3.5,0.7c1.2,0.5,2.2,1.2,3.1,2.1l-2.3,3.1c-0.5-0.6-1.2-1.1-1.9-1.4
			c-0.8-0.3-1.5-0.5-2.2-0.5c-1.2,0-2.2,0.4-3,1.2c-0.9,0.8-1.3,1.8-1.3,3.2s0.4,2.4,1.3,3.2S180.3,46.8,181.4,46.8z"/>
		<path class="st3" d="M207,42.5c0,2.3-0.8,4.3-2.4,5.9c-1.6,1.6-3.7,2.4-6.1,2.4c-2.5,0-4.5-0.8-6.1-2.4c-1.6-1.6-2.4-3.6-2.4-5.9
			s0.8-4.3,2.4-5.9c1.6-1.6,3.7-2.4,6.1-2.4c2.4,0,4.5,0.8,6.1,2.4C206.2,38.2,207,40.1,207,42.5z M194.5,42.5
			c0,1.3,0.4,2.4,1.1,3.2s1.7,1.2,2.9,1.2s2.1-0.4,2.9-1.2s1.1-1.9,1.1-3.2c0-1.3-0.4-2.4-1.1-3.2c-0.8-0.8-1.7-1.3-2.9-1.3
			s-2.1,0.4-2.9,1.3C194.8,40.1,194.5,41.2,194.5,42.5z"/>
		<path class="st3" d="M225.2,41.8v8.7h-4.5v-8.8c0-1.3-0.2-2.2-0.6-2.8c-0.4-0.6-1-0.9-1.9-0.9c-0.9,0-1.6,0.3-2.3,1
			c-0.7,0.7-1,1.6-1,2.9v8.7h-4.5V34.4h4.5v1.8c1.2-1.4,2.7-2.1,4.3-2.1c1,0,1.9,0.3,2.8,0.9c0.8,0.6,1.5,1.3,1.9,2.2
			c0.6-1,1.5-1.7,2.5-2.3c1.1-0.5,2.1-0.8,3.2-0.8c1.9,0,3.4,0.6,4.6,1.7c1.2,1.1,1.7,2.8,1.7,4.9v9.8h-4.5v-8.8
			c0-2.5-0.9-3.7-2.7-3.7c-0.9,0-1.7,0.3-2.3,1C225.5,39.6,225.2,40.6,225.2,41.8z"/>
		<path class="st3" d="M249.2,34.1c1.9,0,3.6,0.8,5,2.4c1.5,1.6,2.2,3.5,2.2,5.9s-0.7,4.4-2.2,6c-1.5,1.6-3.2,2.4-5.2,2.4
			s-3.6-0.8-4.8-2.4v8h-4.5v-22h4.5v1.8C245.7,34.8,247.3,34.1,249.2,34.1z M244.3,42.5c0,1.3,0.4,2.4,1.1,3.2
			c0.7,0.8,1.6,1.2,2.7,1.2s2-0.4,2.7-1.2c0.8-0.8,1.2-1.9,1.2-3.2c0-1.3-0.4-2.4-1.1-3.3c-0.8-0.9-1.7-1.3-2.7-1.3
			c-1.1,0-2,0.4-2.7,1.3C244.6,40.1,244.3,41.2,244.3,42.5z"/>
		<path class="st3" d="M273.5,50.5h-4.2v-2c-1.2,1.5-2.6,2.2-4.3,2.2s-3.1-0.5-4.3-1.5c-1.2-1-1.7-2.3-1.7-4s0.6-2.9,1.8-3.7
			c1.2-0.8,2.8-1.2,4.9-1.2h3.4v-0.1c0-1.7-0.9-2.6-2.7-2.6c-0.8,0-1.6,0.2-2.5,0.5c-0.9,0.3-1.6,0.7-2.2,1.2l-2-2.9
			c2.1-1.5,4.5-2.3,7.3-2.3c2,0,3.6,0.5,4.8,1.5c1.2,1,1.9,2.5,1.9,4.7V50.5z M269,44.4v-0.8h-2.8c-1.8,0-2.7,0.6-2.7,1.7
			c0,0.6,0.2,1,0.6,1.3c0.4,0.3,1,0.5,1.8,0.5s1.5-0.2,2.1-0.7C268.7,45.9,269,45.2,269,44.4z"/>
		<path class="st3" d="M286.1,38.4c-1.3,0-2.3,0.5-3,1.4c-0.7,1-1,2.2-1,3.8v7h-4.5V34.4h4.5v2.1c0.6-0.7,1.3-1.2,2.2-1.7
			c0.9-0.5,1.8-0.7,2.7-0.7l0,4.2H286.1z"/>
		<path class="st3" d="M295.3,37.6v7.2c0,0.6,0.2,1.1,0.5,1.5c0.3,0.3,0.7,0.5,1.1,0.5c0.8,0,1.5-0.4,2.1-1.1l1.7,3.2
			c-1.4,1.3-2.9,1.9-4.4,1.9s-2.9-0.5-3.9-1.5c-1.1-1-1.6-2.4-1.6-4.2v-7.4h-1.9v-3.2h1.9v-4.8h4.5v4.8h3.9v3.2H295.3z"/>
		<path class="st3" d="M303.5,32.3c-0.5-0.5-0.8-1.1-0.8-1.9c0-0.7,0.3-1.4,0.8-1.9c0.5-0.5,1.1-0.8,1.9-0.8c0.7,0,1.4,0.3,1.9,0.8
			c0.5,0.5,0.8,1.1,0.8,1.9c0,0.7-0.3,1.4-0.8,1.9c-0.5,0.5-1.1,0.8-1.9,0.8C304.7,33.1,304,32.9,303.5,32.3z M307.7,50.5h-4.5V34.4
			h4.5V50.5z"/>
		<path class="st3" d="M325.9,48.2c-1.8,1.7-4,2.6-6.4,2.6c-2.5,0-4.5-0.8-6.1-2.3c-1.6-1.5-2.4-3.5-2.4-6.1s0.8-4.6,2.4-6.1
			s3.6-2.2,5.8-2.2c2.2,0,4.1,0.7,5.7,2c1.5,1.3,2.3,3.2,2.3,5.5v2.4h-11.8c0.1,0.9,0.6,1.6,1.4,2.2c0.8,0.6,1.7,0.8,2.6,0.8
			c1.6,0,2.9-0.5,3.9-1.6L325.9,48.2z M321.6,38.6c-0.6-0.5-1.4-0.8-2.3-0.8c-0.9,0-1.7,0.3-2.4,0.8c-0.7,0.5-1.2,1.3-1.3,2.2h7.1
			C322.6,39.9,322.2,39.2,321.6,38.6z"/>
		<path class="st3" d="M335,41.5v9h-4.5V34.4h4.5v1.8c1.4-1.4,2.9-2.1,4.6-2.1c1.7,0,3.1,0.6,4.3,1.8c1.1,1.2,1.7,2.8,1.7,4.8v9.8
			H341v-9.1c0-2.5-0.9-3.7-2.7-3.7c-0.9,0-1.7,0.3-2.4,1C335.3,39.3,335,40.3,335,41.5z"/>
		<path class="st3" d="M356.1,50.8c-1.9,0-3.6-0.8-5.1-2.4c-1.5-1.6-2.2-3.6-2.2-6c0-2.4,0.7-4.4,2.2-5.9c1.5-1.5,3.2-2.3,5.1-2.3
			s3.6,0.7,4.8,2.1v-7.9h4.5v22.3h-4.5v-2.1C359.6,50,358,50.8,356.1,50.8z M353.3,42.5c0,1.3,0.4,2.4,1.2,3.2
			c0.8,0.8,1.7,1.2,2.7,1.2c1,0,1.9-0.4,2.7-1.2c0.7-0.8,1.1-1.9,1.1-3.2s-0.4-2.4-1.1-3.3c-0.7-0.9-1.6-1.3-2.7-1.3s-2,0.4-2.7,1.3
			C353.6,40.1,353.3,41.2,353.3,42.5z"/>
		<path class="st3" d="M385.7,42.5c0,2.3-0.8,4.3-2.4,5.9c-1.6,1.6-3.7,2.4-6.1,2.4c-2.5,0-4.5-0.8-6.1-2.4
			c-1.6-1.6-2.4-3.6-2.4-5.9s0.8-4.3,2.4-5.9c1.6-1.6,3.7-2.4,6.1-2.4c2.4,0,4.5,0.8,6.1,2.4C384.9,38.2,385.7,40.1,385.7,42.5z
			 M373.2,42.5c0,1.3,0.4,2.4,1.1,3.2s1.7,1.2,2.9,1.2s2.1-0.4,2.9-1.2s1.1-1.9,1.1-3.2c0-1.3-0.4-2.4-1.1-3.2
			c-0.8-0.8-1.7-1.3-2.9-1.3s-2.1,0.4-2.9,1.3C373.6,40.1,373.2,41.2,373.2,42.5z"/>
		<path class="st3" d="M411,48.2c-1.8,1.7-4,2.6-6.4,2.6s-4.5-0.8-6.1-2.3c-1.6-1.5-2.4-3.5-2.4-6.1s0.8-4.6,2.4-6.1
			s3.6-2.2,5.8-2.2s4.1,0.7,5.7,2c1.5,1.3,2.3,3.2,2.3,5.5v2.4h-11.8c0.1,0.9,0.6,1.6,1.4,2.2c0.8,0.6,1.7,0.8,2.6,0.8
			c1.6,0,2.9-0.5,3.9-1.6L411,48.2z M406.7,38.6c-0.6-0.5-1.4-0.8-2.3-0.8c-0.9,0-1.7,0.3-2.4,0.8s-1.2,1.3-1.3,2.2h7.1
			C407.6,39.9,407.3,39.2,406.7,38.6z"/>
		<path class="st3" d="M420,50.5h-4.5V28.3h4.5V50.5z"/>
		<path class="st3" d="M438.3,48.2c-1.8,1.7-4,2.6-6.4,2.6s-4.5-0.8-6.1-2.3c-1.6-1.5-2.4-3.5-2.4-6.1s0.8-4.6,2.4-6.1
			s3.6-2.2,5.8-2.2s4.1,0.7,5.7,2c1.5,1.3,2.3,3.2,2.3,5.5v2.4h-11.8c0.1,0.9,0.6,1.6,1.4,2.2c0.8,0.6,1.7,0.8,2.6,0.8
			c1.6,0,2.9-0.5,3.9-1.6L438.3,48.2z M434,38.6c-0.6-0.5-1.4-0.8-2.3-0.8c-0.9,0-1.7,0.3-2.4,0.8s-1.2,1.3-1.3,2.2h7.1
			C434.9,39.9,434.6,39.2,434,38.6z"/>
		<path class="st3" d="M457.7,41.8v8.7h-4.5v-8.8c0-1.3-0.2-2.2-0.6-2.8c-0.4-0.6-1-0.9-1.9-0.9c-0.9,0-1.6,0.3-2.3,1
			c-0.7,0.7-1,1.6-1,2.9v8.7h-4.5V34.4h4.5v1.8c1.2-1.4,2.7-2.1,4.3-2.1c1,0,1.9,0.3,2.8,0.9c0.8,0.6,1.5,1.3,1.9,2.2
			c0.6-1,1.5-1.7,2.5-2.3s2.1-0.8,3.2-0.8c1.9,0,3.4,0.6,4.6,1.7c1.2,1.1,1.7,2.8,1.7,4.9v9.8h-4.5v-8.8c0-2.5-0.9-3.7-2.7-3.7
			c-0.9,0-1.7,0.3-2.3,1C458,39.6,457.7,40.6,457.7,41.8z"/>
		<path class="st3" d="M486.3,48.2c-1.8,1.7-4,2.6-6.4,2.6s-4.5-0.8-6.1-2.3c-1.6-1.5-2.4-3.5-2.4-6.1s0.8-4.6,2.4-6.1
			s3.6-2.2,5.8-2.2s4.1,0.7,5.7,2c1.5,1.3,2.3,3.2,2.3,5.5v2.4h-11.8c0.1,0.9,0.6,1.6,1.4,2.2c0.8,0.6,1.7,0.8,2.6,0.8
			c1.6,0,2.9-0.5,3.9-1.6L486.3,48.2z M482,38.6c-0.6-0.5-1.4-0.8-2.3-0.8c-0.9,0-1.7,0.3-2.4,0.8s-1.2,1.3-1.3,2.2h7.1
			C483,39.9,482.6,39.2,482,38.6z"/>
		<path class="st3" d="M495.4,41.5v9h-4.5V34.4h4.5v1.8c1.4-1.4,2.9-2.1,4.6-2.1c1.7,0,3.1,0.6,4.3,1.8c1.2,1.2,1.7,2.8,1.7,4.8v9.8
			h-4.5v-9.1c0-2.5-0.9-3.7-2.7-3.7c-0.9,0-1.7,0.3-2.4,1C495.7,39.3,495.4,40.3,495.4,41.5z"/>
		<path class="st3" d="M515.2,37.6v7.2c0,0.6,0.2,1.1,0.5,1.5c0.3,0.3,0.7,0.5,1.1,0.5c0.8,0,1.5-0.4,2.1-1.1l1.7,3.2
			c-1.4,1.3-2.9,1.9-4.4,1.9s-2.9-0.5-3.9-1.5c-1.1-1-1.6-2.4-1.6-4.2v-7.4h-1.9v-3.2h1.9v-4.8h4.5v4.8h3.9v3.2H515.2z"/>
		<path class="st3" d="M539,42.5c0,2.3-0.8,4.3-2.4,5.9c-1.6,1.6-3.7,2.4-6.1,2.4s-4.5-0.8-6.1-2.4c-1.6-1.6-2.4-3.6-2.4-5.9
			s0.8-4.3,2.4-5.9c1.6-1.6,3.7-2.4,6.1-2.4s4.5,0.8,6.1,2.4C538.1,38.2,539,40.1,539,42.5z M526.4,42.5c0,1.3,0.4,2.4,1.1,3.2
			s1.7,1.2,2.9,1.2s2.1-0.4,2.9-1.2s1.1-1.9,1.1-3.2c0-1.3-0.4-2.4-1.1-3.2c-0.8-0.8-1.7-1.3-2.9-1.3s-2.1,0.4-2.9,1.3
			C526.8,40.1,526.4,41.2,526.4,42.5z"/>
		<path class="st3" d="M554.3,45.5c0,1.6-0.6,2.9-1.8,3.8s-2.7,1.4-4.5,1.4c-1.2,0-2.5-0.2-3.8-0.6c-1.3-0.4-2.5-1.1-3.5-1.9l2-2.8
			c1.7,1.3,3.5,2,5.4,2c0.6,0,1-0.1,1.4-0.3c0.3-0.2,0.5-0.5,0.5-0.9c0-0.4-0.2-0.7-0.7-1c-0.5-0.3-1.2-0.6-2-0.9
			c-0.9-0.3-1.6-0.5-2-0.7c-0.5-0.2-1-0.5-1.6-0.9c-1.2-0.8-1.8-1.9-1.8-3.4c0-1.5,0.6-2.7,1.8-3.6c1.2-0.9,2.8-1.4,4.7-1.4
			c1.9,0,3.8,0.6,5.7,1.9l-1.7,3c-1.4-1-2.8-1.4-4.2-1.4c-1.4,0-2.1,0.4-2.1,1.1c0,0.4,0.2,0.8,0.7,1c0.4,0.2,1.2,0.5,2.2,0.8
			c1,0.3,1.7,0.6,2.2,0.7c0.4,0.2,0.9,0.4,1.5,0.8C553.7,42.8,554.3,43.9,554.3,45.5z"/>
		<path class="st3" d="M573.4,46.8c1.5,0,2.8-0.8,4-2.2l2.7,3c-2.1,2.2-4.3,3.2-6.8,3.2s-4.5-0.8-6.1-2.3c-1.7-1.5-2.5-3.5-2.5-6
			s0.8-4.5,2.5-6c1.7-1.5,3.7-2.3,6-2.3c1.2,0,2.3,0.2,3.5,0.7c1.2,0.5,2.2,1.2,3.1,2.1l-2.3,3.1c-0.5-0.6-1.2-1.1-1.9-1.4
			c-0.8-0.3-1.5-0.5-2.2-0.5c-1.2,0-2.2,0.4-3,1.2c-0.9,0.8-1.3,1.8-1.3,3.2s0.4,2.4,1.3,3.2C571.3,46.4,572.3,46.8,573.4,46.8z"/>
		<path class="st3" d="M599,42.5c0,2.3-0.8,4.3-2.4,5.9c-1.6,1.6-3.7,2.4-6.1,2.4s-4.5-0.8-6.1-2.4c-1.6-1.6-2.4-3.6-2.4-5.9
			s0.8-4.3,2.4-5.9c1.6-1.6,3.7-2.4,6.1-2.4s4.5,0.8,6.1,2.4C598.2,38.2,599,40.1,599,42.5z M586.4,42.5c0,1.3,0.4,2.4,1.1,3.2
			s1.7,1.2,2.9,1.2s2.1-0.4,2.9-1.2s1.1-1.9,1.1-3.2c0-1.3-0.4-2.4-1.1-3.2c-0.8-0.8-1.7-1.3-2.9-1.3s-2.1,0.4-2.9,1.3
			C586.8,40.1,586.4,41.2,586.4,42.5z"/>
		<path class="st3" d="M617.1,41.8v8.7h-4.5v-8.8c0-1.3-0.2-2.2-0.6-2.8c-0.4-0.6-1-0.9-1.9-0.9s-1.6,0.3-2.3,1
			c-0.7,0.7-1,1.6-1,2.9v8.7h-4.5V34.4h4.5v1.8c1.2-1.4,2.7-2.1,4.3-2.1c1,0,1.9,0.3,2.8,0.9c0.8,0.6,1.5,1.3,1.9,2.2
			c0.6-1,1.5-1.7,2.5-2.3c1.1-0.5,2.1-0.8,3.2-0.8c1.9,0,3.4,0.6,4.6,1.7s1.7,2.8,1.7,4.9v9.8h-4.5v-8.8c0-2.5-0.9-3.7-2.7-3.7
			c-0.9,0-1.7,0.3-2.3,1C617.5,39.6,617.1,40.6,617.1,41.8z"/>
		<path class="st3" d="M647.9,42.5c0,2.3-0.8,4.3-2.4,5.9c-1.6,1.6-3.7,2.4-6.1,2.4s-4.5-0.8-6.1-2.4c-1.6-1.6-2.4-3.6-2.4-5.9
			s0.8-4.3,2.4-5.9c1.6-1.6,3.7-2.4,6.1-2.4s4.5,0.8,6.1,2.4C647.1,38.2,647.9,40.1,647.9,42.5z M635.4,42.5c0,1.3,0.4,2.4,1.1,3.2
			s1.7,1.2,2.9,1.2s2.1-0.4,2.9-1.2s1.1-1.9,1.1-3.2c0-1.3-0.4-2.4-1.1-3.2c-0.8-0.8-1.7-1.3-2.9-1.3s-2.1,0.4-2.9,1.3
			C635.8,40.1,635.4,41.2,635.4,42.5z"/>
	</g>
	<g class="st2">
		<path class="st3" d="M38,85.5h-4.2v-2c-1.2,1.5-2.6,2.2-4.3,2.2s-3.1-0.5-4.3-1.5c-1.2-1-1.7-2.3-1.7-4s0.6-2.9,1.8-3.7
			c1.2-0.8,2.8-1.2,4.9-1.2h3.4v-0.1c0-1.7-0.9-2.6-2.7-2.6c-0.8,0-1.6,0.2-2.5,0.5c-0.9,0.3-1.6,0.7-2.2,1.2l-2-2.9
			c2.1-1.5,4.5-2.3,7.3-2.3c2,0,3.6,0.5,4.8,1.5c1.2,1,1.9,2.5,1.9,4.7V85.5z M33.5,79.4v-0.8h-2.8c-1.8,0-2.7,0.6-2.7,1.7
			c0,0.6,0.2,1,0.6,1.3c0.4,0.3,1,0.5,1.8,0.5s1.5-0.2,2.1-0.7C33.2,80.9,33.5,80.2,33.5,79.4z"/>
		<path class="st3" d="M54,82.8c-1.4,1.6-3.2,2.4-5.3,2.4c-2.1,0-3.9-0.7-5.3-2.1c-1.5-1.4-2.2-3.3-2.2-5.7c0-2.4,0.7-4.3,2.2-5.9
			c1.5-1.5,3.2-2.3,5.1-2.3s3.5,0.8,4.8,2.4v-2.1h4.5v14.1c0,1.4-0.2,2.7-0.8,3.8c-0.5,1.1-1.2,2-2,2.6c-1.7,1.3-3.6,2-5.9,2
			c-1.2,0-2.4-0.2-3.7-0.6c-1.2-0.4-2.3-0.9-3.3-1.7l1.7-3.4c1.5,1.1,3,1.7,4.7,1.7c1.7,0,3-0.4,3.9-1.2S54,84.6,54,82.8z
			 M53.4,77.1c0-1.3-0.4-2.3-1.1-3c-0.7-0.7-1.6-1.1-2.7-1.1s-2,0.4-2.7,1.1c-0.8,0.7-1.2,1.8-1.2,3s0.4,2.3,1.1,3.1
			s1.7,1.2,2.7,1.2s2-0.4,2.7-1.2C53,79.5,53.4,78.4,53.4,77.1z"/>
		<path class="st3" d="M72.5,78.1v-8.7H77v16.1h-4.5v-2.1c-1.1,1.6-2.6,2.4-4.3,2.4s-3.3-0.6-4.5-1.7c-1.2-1.1-1.8-2.8-1.8-4.9v-9.8
			h4.5v8.8c0,2.5,0.9,3.7,2.7,3.7c0.9,0,1.7-0.3,2.3-1C72.2,80.3,72.5,79.3,72.5,78.1z"/>
		<path class="st3" d="M82.8,85.8V69.4h4.5v16.8c0,1.8-0.5,3.1-1.6,4.2c-1.1,1-2.4,1.5-3.9,1.5c-1.6,0-3-0.6-4.4-1.9l2.1-3.3
			c0.6,0.7,1.3,1,2,1c0.4,0,0.7-0.2,1-0.5C82.7,86.9,82.8,86.5,82.8,85.8z M83.2,67.3c-0.5-0.5-0.8-1.1-0.8-1.9
			c0-0.7,0.3-1.4,0.8-1.9c0.5-0.5,1.1-0.8,1.9-0.8c0.7,0,1.4,0.3,1.9,0.8c0.5,0.5,0.8,1.1,0.8,1.9c0,0.7-0.3,1.4-0.8,1.9
			c-0.5,0.5-1.1,0.8-1.9,0.8C84.3,68.1,83.7,67.9,83.2,67.3z"/>
		<path class="st3" d="M105.3,85.5h-4.2v-2c-1.2,1.5-2.6,2.2-4.3,2.2s-3.1-0.5-4.3-1.5c-1.2-1-1.7-2.3-1.7-4s0.6-2.9,1.8-3.7
			c1.2-0.8,2.8-1.2,4.9-1.2h3.4v-0.1c0-1.7-0.9-2.6-2.7-2.6c-0.8,0-1.6,0.2-2.5,0.5c-0.9,0.3-1.6,0.7-2.2,1.2l-2-2.9
			c2.1-1.5,4.5-2.3,7.3-2.3c2,0,3.6,0.5,4.8,1.5c1.2,1,1.9,2.5,1.9,4.7V85.5z M100.8,79.4v-0.8H98c-1.8,0-2.7,0.6-2.7,1.7
			c0,0.6,0.2,1,0.6,1.3c0.4,0.3,1,0.5,1.8,0.5s1.5-0.2,2.1-0.7C100.5,80.9,100.8,80.2,100.8,79.4z"/>
		<path class="st3" d="M121.6,80.5c0,1.6-0.6,2.9-1.8,3.8s-2.7,1.4-4.5,1.4c-1.2,0-2.5-0.2-3.8-0.6c-1.3-0.4-2.5-1.1-3.5-1.9l2-2.8
			c1.7,1.3,3.5,2,5.4,2c0.6,0,1-0.1,1.4-0.3c0.3-0.2,0.5-0.5,0.5-0.9c0-0.4-0.2-0.7-0.7-1c-0.5-0.3-1.2-0.6-2-0.9
			c-0.9-0.3-1.6-0.5-2-0.7c-0.5-0.2-1-0.5-1.6-0.9c-1.2-0.8-1.8-1.9-1.8-3.4c0-1.5,0.6-2.7,1.8-3.6c1.2-0.9,2.8-1.4,4.6-1.4
			s3.8,0.6,5.7,1.9l-1.7,3c-1.4-1-2.8-1.4-4.2-1.4c-1.4,0-2.1,0.4-2.1,1.1c0,0.4,0.2,0.8,0.7,1s1.2,0.5,2.2,0.8
			c1,0.3,1.7,0.6,2.2,0.7c0.4,0.2,0.9,0.4,1.5,0.8C121,77.8,121.6,78.9,121.6,80.5z"/>
		<path class="st3" d="M125.6,85.2c-0.7-0.5-1-1.1-1-1.9s0.3-1.5,0.8-2c0.5-0.5,1.2-0.8,1.9-0.8c0.8,0,1.4,0.2,2,0.8
			s0.8,1.1,0.8,1.8c0,0.7-0.3,1.5-0.9,2.4l-1.8,3.1h-3L125.6,85.2z"/>
		<path class="st3" d="M143.4,85.8V69.4h4.5v16.8c0,1.8-0.5,3.1-1.6,4.2c-1.1,1-2.4,1.5-3.9,1.5c-1.6,0-3-0.6-4.4-1.9l2.1-3.3
			c0.6,0.7,1.3,1,2,1c0.4,0,0.7-0.2,1-0.5C143.2,86.9,143.4,86.5,143.4,85.8z M143.8,67.3c-0.5-0.5-0.8-1.1-0.8-1.9
			c0-0.7,0.3-1.4,0.8-1.9c0.5-0.5,1.1-0.8,1.9-0.8c0.7,0,1.4,0.3,1.9,0.8c0.5,0.5,0.8,1.1,0.8,1.9c0,0.7-0.3,1.4-0.8,1.9
			c-0.5,0.5-1.1,0.8-1.9,0.8C144.9,68.1,144.3,67.9,143.8,67.3z"/>
		<path class="st3" d="M166.1,83.2c-1.8,1.7-4,2.6-6.4,2.6c-2.5,0-4.5-0.8-6.1-2.3c-1.6-1.5-2.4-3.5-2.4-6.1s0.8-4.6,2.4-6.1
			s3.6-2.2,5.8-2.2c2.2,0,4.1,0.7,5.7,2c1.5,1.3,2.3,3.2,2.3,5.5v2.4h-11.8c0.1,0.9,0.6,1.6,1.4,2.2c0.8,0.6,1.7,0.8,2.6,0.8
			c1.6,0,2.9-0.5,3.9-1.6L166.1,83.2z M161.8,73.6c-0.6-0.5-1.4-0.8-2.3-0.8c-0.9,0-1.7,0.3-2.4,0.8c-0.7,0.5-1.2,1.3-1.3,2.2h7.1
			C162.8,74.9,162.4,74.2,161.8,73.6z"/>
		<path class="st3" d="M179.2,73.4c-1.3,0-2.3,0.5-3,1.4c-0.7,1-1,2.2-1,3.8v7h-4.5V69.4h4.5v2.1c0.6-0.7,1.3-1.2,2.2-1.7
			c0.9-0.5,1.8-0.7,2.7-0.7l0,4.2H179.2z"/>
		<path class="st3" d="M183.4,67.3c-0.5-0.5-0.8-1.1-0.8-1.9c0-0.7,0.3-1.4,0.8-1.9c0.5-0.5,1.1-0.8,1.9-0.8c0.7,0,1.4,0.3,1.9,0.8
			c0.5,0.5,0.8,1.1,0.8,1.9c0,0.7-0.3,1.4-0.8,1.9c-0.5,0.5-1.1,0.8-1.9,0.8C184.5,68.1,183.9,67.9,183.4,67.3z M187.5,85.5H183
			V69.4h4.5V85.5z"/>
		<path class="st3" d="M196.3,76.5v9h-4.5V69.4h4.5v1.8c1.4-1.4,2.9-2.1,4.6-2.1c1.7,0,3.1,0.6,4.3,1.8c1.1,1.2,1.7,2.8,1.7,4.8v9.8
			h-4.5v-9.1c0-2.5-0.9-3.7-2.7-3.7c-0.9,0-1.7,0.3-2.4,1C196.6,74.3,196.3,75.3,196.3,76.5z"/>
		<path class="st3" d="M222.9,82.8c-1.4,1.6-3.2,2.4-5.3,2.4c-2.1,0-3.9-0.7-5.3-2.1c-1.5-1.4-2.2-3.3-2.2-5.7
			c0-2.4,0.7-4.3,2.2-5.9c1.5-1.5,3.2-2.3,5.1-2.3s3.5,0.8,4.8,2.4v-2.1h4.5v14.1c0,1.4-0.2,2.7-0.8,3.8c-0.5,1.1-1.2,2-2,2.6
			c-1.7,1.3-3.6,2-5.9,2c-1.2,0-2.4-0.2-3.7-0.6c-1.2-0.4-2.3-0.9-3.3-1.7l1.7-3.4c1.5,1.1,3,1.7,4.7,1.7c1.7,0,3-0.4,3.9-1.2
			S222.9,84.6,222.9,82.8z M222.2,77.1c0-1.3-0.4-2.3-1.1-3c-0.7-0.7-1.6-1.1-2.7-1.1s-2,0.4-2.7,1.1c-0.8,0.7-1.2,1.8-1.2,3
			s0.4,2.3,1.1,3.1s1.7,1.2,2.7,1.2s2-0.4,2.7-1.2C221.9,79.5,222.2,78.4,222.2,77.1z"/>
		<path class="st3" d="M244.7,85.5h-4.2v-2c-1.2,1.5-2.6,2.2-4.3,2.2s-3.1-0.5-4.3-1.5c-1.2-1-1.7-2.3-1.7-4s0.6-2.9,1.8-3.7
			c1.2-0.8,2.8-1.2,4.9-1.2h3.4v-0.1c0-1.7-0.9-2.6-2.7-2.6c-0.8,0-1.6,0.2-2.5,0.5c-0.9,0.3-1.6,0.7-2.2,1.2l-2-2.9
			c2.1-1.5,4.5-2.3,7.3-2.3c2,0,3.6,0.5,4.8,1.5c1.2,1,1.9,2.5,1.9,4.7V85.5z M240.1,79.4v-0.8h-2.8c-1.8,0-2.7,0.6-2.7,1.7
			c0,0.6,0.2,1,0.6,1.3c0.4,0.3,1,0.5,1.8,0.5s1.5-0.2,2.1-0.7C239.8,80.9,240.1,80.2,240.1,79.4z"/>
		<path class="st3" d="M260.9,80.5c0,1.6-0.6,2.9-1.8,3.8s-2.7,1.4-4.5,1.4c-1.2,0-2.5-0.2-3.8-0.6c-1.3-0.4-2.5-1.1-3.5-1.9l2-2.8
			c1.7,1.3,3.5,2,5.4,2c0.6,0,1-0.1,1.4-0.3c0.3-0.2,0.5-0.5,0.5-0.9c0-0.4-0.2-0.7-0.7-1c-0.5-0.3-1.2-0.6-2-0.9
			c-0.9-0.3-1.6-0.5-2-0.7c-0.5-0.2-1-0.5-1.6-0.9c-1.2-0.8-1.8-1.9-1.8-3.4c0-1.5,0.6-2.7,1.8-3.6c1.2-0.9,2.8-1.4,4.6-1.4
			s3.8,0.6,5.7,1.9l-1.7,3c-1.4-1-2.8-1.4-4.2-1.4c-1.4,0-2.1,0.4-2.1,1.1c0,0.4,0.2,0.8,0.7,1s1.2,0.5,2.2,0.8
			c1,0.3,1.7,0.6,2.2,0.7c0.4,0.2,0.9,0.4,1.5,0.8C260.4,77.8,260.9,78.9,260.9,80.5z"/>
		<path class="st3" d="M265,85.2c-0.7-0.5-1-1.1-1-1.9s0.3-1.5,0.8-2c0.5-0.5,1.2-0.8,1.9-0.8c0.8,0,1.4,0.2,2,0.8s0.8,1.1,0.8,1.8
			c0,0.7-0.3,1.5-0.9,2.4l-1.8,3.1h-3L265,85.2z"/>
		<path class="st3" d="M296,76.8v8.7h-4.5v-8.8c0-1.3-0.2-2.2-0.6-2.8c-0.4-0.6-1-0.9-1.9-0.9c-0.9,0-1.6,0.3-2.3,1
			c-0.7,0.7-1,1.6-1,2.9v8.7h-4.5V69.4h4.5v1.8c1.2-1.4,2.7-2.1,4.3-2.1c1,0,1.9,0.3,2.8,0.9c0.8,0.6,1.5,1.3,1.9,2.2
			c0.6-1,1.5-1.7,2.5-2.3c1.1-0.5,2.1-0.8,3.2-0.8c1.9,0,3.4,0.6,4.6,1.7c1.2,1.1,1.7,2.8,1.7,4.9v9.8h-4.5v-8.8
			c0-2.5-0.9-3.7-2.7-3.7c-0.9,0-1.7,0.3-2.3,1C296.3,74.6,296,75.6,296,76.8z"/>
		<path class="st3" d="M324.4,85.5h-4.2v-2c-1.2,1.5-2.6,2.2-4.3,2.2s-3.1-0.5-4.3-1.5c-1.2-1-1.7-2.3-1.7-4s0.6-2.9,1.8-3.7
			c1.2-0.8,2.8-1.2,4.9-1.2h3.4v-0.1c0-1.7-0.9-2.6-2.7-2.6c-0.8,0-1.6,0.2-2.5,0.5c-0.9,0.3-1.6,0.7-2.2,1.2l-2-2.9
			c2.1-1.5,4.5-2.3,7.3-2.3c2,0,3.6,0.5,4.8,1.5c1.2,1,1.9,2.5,1.9,4.7V85.5z M319.9,79.4v-0.8H317c-1.8,0-2.7,0.6-2.7,1.7
			c0,0.6,0.2,1,0.6,1.3c0.4,0.3,1,0.5,1.8,0.5s1.5-0.2,2.1-0.7C319.6,80.9,319.9,80.2,319.9,79.4z M319,67.2h-4.3l3.8-5.3l4.6,1.9
			L319,67.2z"/>
		<path class="st3" d="M329.9,83.5c-1.5-1.5-2.3-3.5-2.3-6c0-2.4,0.8-4.4,2.2-6s3.2-2.4,5-2.4c1.8,0,3.4,0.7,4.8,2.1v-1.8h4.5v22
			h-4.5v-7.1c-1.3,1-2.7,1.5-4.4,1.5C333.3,85.8,331.5,85,329.9,83.5z M332.1,77.5c0,1.3,0.4,2.4,1.2,3.2c0.8,0.8,1.7,1.2,2.7,1.2
			c1,0,1.9-0.4,2.6-1.2c0.7-0.8,1.1-1.9,1.1-3.2s-0.4-2.4-1.1-3.3c-0.7-0.9-1.6-1.3-2.7-1.3s-2,0.4-2.7,1.3
			C332.5,75.1,332.1,76.2,332.1,77.5z"/>
		<path class="st3" d="M358.9,78.1v-8.7h4.5v16.1h-4.5v-2.1c-1.1,1.6-2.6,2.4-4.3,2.4s-3.3-0.6-4.5-1.7c-1.2-1.1-1.8-2.8-1.8-4.9
			v-9.8h4.5v8.8c0,2.5,0.9,3.7,2.7,3.7c0.9,0,1.7-0.3,2.3-1C358.6,80.3,358.9,79.3,358.9,78.1z"/>
		<path class="st3" d="M368.1,67.3c-0.5-0.5-0.8-1.1-0.8-1.9c0-0.7,0.3-1.4,0.8-1.9c0.5-0.5,1.1-0.8,1.9-0.8c0.7,0,1.4,0.3,1.9,0.8
			c0.5,0.5,0.8,1.1,0.8,1.9c0,0.7-0.3,1.4-0.8,1.9c-0.5,0.5-1.1,0.8-1.9,0.8C369.2,68.1,368.6,67.9,368.1,67.3z M372.2,85.5h-4.5
			V69.4h4.5V85.5z"/>
		<path class="st3" d="M380.9,76.5v9h-4.5V69.4h4.5v1.8c1.4-1.4,2.9-2.1,4.6-2.1s3.1,0.6,4.3,1.8c1.1,1.2,1.7,2.8,1.7,4.8v9.8H387
			v-9.1c0-2.5-0.9-3.7-2.7-3.7c-0.9,0-1.7,0.3-2.4,1C381.3,74.3,380.9,75.3,380.9,76.5z"/>
		<path class="st3" d="M409.3,85.5h-4.2v-2c-1.2,1.5-2.6,2.2-4.3,2.2s-3.1-0.5-4.3-1.5s-1.7-2.3-1.7-4s0.6-2.9,1.8-3.7
			c1.2-0.8,2.8-1.2,4.9-1.2h3.4v-0.1c0-1.7-0.9-2.6-2.7-2.6c-0.8,0-1.6,0.2-2.5,0.5c-0.9,0.3-1.6,0.7-2.2,1.2l-2-2.9
			c2.1-1.5,4.5-2.3,7.3-2.3c2,0,3.6,0.5,4.8,1.5c1.2,1,1.9,2.5,1.9,4.7V85.5z M404.8,79.4v-0.8H402c-1.8,0-2.7,0.6-2.7,1.7
			c0,0.6,0.2,1,0.6,1.3c0.4,0.3,1,0.5,1.8,0.5s1.5-0.2,2.1-0.7C404.5,80.9,404.8,80.2,404.8,79.4z"/>
		<path class="st3" d="M425.6,80.5c0,1.6-0.6,2.9-1.8,3.8s-2.7,1.4-4.5,1.4c-1.2,0-2.5-0.2-3.8-0.6s-2.5-1.1-3.5-1.9l2-2.8
			c1.7,1.3,3.5,2,5.4,2c0.6,0,1-0.1,1.4-0.3c0.3-0.2,0.5-0.5,0.5-0.9c0-0.4-0.2-0.7-0.7-1c-0.5-0.3-1.2-0.6-2-0.9s-1.6-0.5-2-0.7
			c-0.5-0.2-1-0.5-1.6-0.9c-1.2-0.8-1.8-1.9-1.8-3.4c0-1.5,0.6-2.7,1.8-3.6c1.2-0.9,2.8-1.4,4.6-1.4c1.9,0,3.8,0.6,5.7,1.9l-1.7,3
			c-1.4-1-2.8-1.4-4.2-1.4c-1.4,0-2.1,0.4-2.1,1.1c0,0.4,0.2,0.8,0.7,1c0.4,0.2,1.2,0.5,2.2,0.8c1,0.3,1.7,0.6,2.2,0.7
			c0.4,0.2,0.9,0.4,1.5,0.8C425,77.8,425.6,78.9,425.6,80.5z"/>
		<path class="st3" d="M443.4,85.8c-1.9,0-3.6-0.8-5.1-2.4c-1.5-1.6-2.2-3.6-2.2-6c0-2.4,0.7-4.4,2.2-5.9c1.5-1.5,3.2-2.3,5.1-2.3
			s3.6,0.7,4.8,2.1v-7.9h4.5v22.3h-4.5v-2.1C446.9,85,445.3,85.8,443.4,85.8z M440.6,77.5c0,1.3,0.4,2.4,1.2,3.2s1.7,1.2,2.7,1.2
			c1,0,1.9-0.4,2.7-1.2s1.1-1.9,1.1-3.2s-0.4-2.4-1.1-3.3s-1.6-1.3-2.7-1.3c-1.1,0-2,0.4-2.7,1.3S440.6,76.2,440.6,77.5z"/>
		<path class="st3" d="M470.9,83.2c-1.8,1.7-4,2.6-6.4,2.6c-2.5,0-4.5-0.8-6.1-2.3c-1.6-1.5-2.4-3.5-2.4-6.1s0.8-4.6,2.4-6.1
			s3.6-2.2,5.8-2.2c2.2,0,4.1,0.7,5.7,2c1.5,1.3,2.3,3.2,2.3,5.5v2.4h-11.8c0.1,0.9,0.6,1.6,1.4,2.2c0.8,0.6,1.7,0.8,2.6,0.8
			c1.6,0,2.9-0.5,3.9-1.6L470.9,83.2z M466.6,73.6c-0.6-0.5-1.4-0.8-2.3-0.8s-1.7,0.3-2.4,0.8c-0.7,0.5-1.2,1.3-1.3,2.2h7.1
			C467.6,74.9,467.2,74.2,466.6,73.6z"/>
		<path class="st3" d="M497.1,85.5h-4.2v-2c-1.2,1.5-2.6,2.2-4.3,2.2s-3.1-0.5-4.3-1.5c-1.2-1-1.7-2.3-1.7-4s0.6-2.9,1.8-3.7
			c1.2-0.8,2.8-1.2,4.9-1.2h3.4v-0.1c0-1.7-0.9-2.6-2.7-2.6c-0.8,0-1.6,0.2-2.5,0.5c-0.9,0.3-1.6,0.7-2.2,1.2l-2-2.9
			c2.1-1.5,4.5-2.3,7.3-2.3c2,0,3.6,0.5,4.8,1.5c1.2,1,1.9,2.5,1.9,4.7V85.5z M492.6,79.4v-0.8h-2.8c-1.8,0-2.7,0.6-2.7,1.7
			c0,0.6,0.2,1,0.6,1.3c0.4,0.3,1,0.5,1.8,0.5s1.5-0.2,2.1-0.7S492.6,80.2,492.6,79.4z"/>
		<path class="st3" d="M506.5,68.5v1.1h3.9v3.2h-3.9v12.8h-4.5V72.8H500v-3.2h1.9v-1c0-1.8,0.5-3.2,1.6-4.2c1.1-1,2.4-1.5,4-1.5
			s3,0.6,4.3,1.8l-1.6,3c-0.7-0.8-1.4-1.1-2.2-1.1c-0.5,0-0.8,0.2-1.1,0.5S506.5,67.8,506.5,68.5z"/>
		<path class="st3" d="M527.1,83.2c-1.8,1.7-4,2.6-6.4,2.6c-2.5,0-4.5-0.8-6.1-2.3c-1.6-1.5-2.4-3.5-2.4-6.1s0.8-4.6,2.4-6.1
			s3.6-2.2,5.8-2.2c2.2,0,4.1,0.7,5.7,2c1.5,1.3,2.3,3.2,2.3,5.5v2.4h-11.8c0.1,0.9,0.6,1.6,1.4,2.2c0.8,0.6,1.7,0.8,2.6,0.8
			c1.6,0,2.9-0.5,3.9-1.6L527.1,83.2z M522.8,73.6c-0.6-0.5-1.4-0.8-2.3-0.8s-1.7,0.3-2.4,0.8c-0.7,0.5-1.2,1.3-1.3,2.2h7.1
			C523.8,74.9,523.4,74.2,522.8,73.6z"/>
		<path class="st3" d="M532.1,67.3c-0.5-0.5-0.8-1.1-0.8-1.9c0-0.7,0.3-1.4,0.8-1.9c0.5-0.5,1.1-0.8,1.9-0.8s1.4,0.3,1.9,0.8
			c0.5,0.5,0.8,1.1,0.8,1.9c0,0.7-0.3,1.4-0.8,1.9c-0.5,0.5-1.1,0.8-1.9,0.8S532.6,67.9,532.1,67.3z M536.2,85.5h-4.5V69.4h4.5V85.5
			z"/>
		<path class="st3" d="M545.8,72.6v7.2c0,0.6,0.2,1.1,0.5,1.5c0.3,0.3,0.7,0.5,1.1,0.5c0.8,0,1.5-0.4,2.1-1.1l1.7,3.2
			c-1.4,1.3-2.9,1.9-4.4,1.9s-2.9-0.5-3.9-1.5c-1.1-1-1.6-2.4-1.6-4.2v-7.4h-1.9v-3.2h1.9v-4.8h4.5v4.8h3.9v3.2H545.8z"/>
		<path class="st3" d="M567.4,85.5h-4.2v-2c-1.2,1.5-2.6,2.2-4.3,2.2s-3.1-0.5-4.3-1.5c-1.2-1-1.7-2.3-1.7-4s0.6-2.9,1.8-3.7
			c1.2-0.8,2.8-1.2,4.9-1.2h3.4v-0.1c0-1.7-0.9-2.6-2.7-2.6c-0.8,0-1.6,0.2-2.5,0.5c-0.9,0.3-1.6,0.7-2.2,1.2l-2-2.9
			c2.1-1.5,4.5-2.3,7.3-2.3c2,0,3.6,0.5,4.8,1.5c1.2,1,1.9,2.5,1.9,4.7V85.5z M562.8,79.4v-0.8H560c-1.8,0-2.7,0.6-2.7,1.7
			c0,0.6,0.2,1,0.6,1.3c0.4,0.3,1,0.5,1.8,0.5s1.5-0.2,2.1-0.7S562.8,80.2,562.8,79.4z"/>
		<path class="st3" d="M580,73.4c-1.3,0-2.3,0.5-3,1.4s-1,2.2-1,3.8v7h-4.5V69.4h4.5v2.1c0.6-0.7,1.3-1.2,2.2-1.7
			c0.9-0.5,1.8-0.7,2.7-0.7l0,4.2H580z"/>
		<path class="st3" d="M607.9,77.5c0,2.3-0.8,4.3-2.4,5.9c-1.6,1.6-3.7,2.4-6.1,2.4c-2.5,0-4.5-0.8-6.1-2.4
			c-1.6-1.6-2.4-3.6-2.4-5.9s0.8-4.3,2.4-5.9c1.6-1.6,3.7-2.4,6.1-2.4c2.4,0,4.5,0.8,6.1,2.4C607.1,73.2,607.9,75.1,607.9,77.5z
			 M595.3,77.5c0,1.3,0.4,2.4,1.1,3.2s1.7,1.2,2.9,1.2s2.1-0.4,2.9-1.2s1.1-1.9,1.1-3.2c0-1.3-0.4-2.4-1.1-3.2
			c-0.8-0.8-1.7-1.3-2.9-1.3s-2.1,0.4-2.9,1.3C595.7,75.1,595.3,76.2,595.3,77.5z"/>
		<path class="st3" d="M626.9,81.8c1.5,0,2.8-0.8,4-2.2l2.7,3c-2.1,2.2-4.3,3.2-6.8,3.2s-4.5-0.8-6.1-2.3c-1.7-1.5-2.5-3.5-2.5-6
			s0.8-4.5,2.5-6c1.7-1.5,3.7-2.3,6-2.3c1.2,0,2.3,0.2,3.5,0.7c1.2,0.5,2.2,1.2,3.1,2.1l-2.3,3.1c-0.5-0.6-1.2-1.1-1.9-1.4
			c-0.8-0.3-1.5-0.5-2.2-0.5c-1.2,0-2.2,0.4-3,1.2c-0.8,0.8-1.3,1.8-1.3,3.2s0.4,2.4,1.3,3.2S625.7,81.8,626.9,81.8z"/>
		<path class="st3" d="M650.3,85.5h-4.2v-2c-1.2,1.5-2.6,2.2-4.3,2.2s-3.1-0.5-4.3-1.5s-1.7-2.3-1.7-4s0.6-2.9,1.8-3.7
			c1.2-0.8,2.8-1.2,4.9-1.2h3.4v-0.1c0-1.7-0.9-2.6-2.7-2.6c-0.8,0-1.6,0.2-2.5,0.5c-0.9,0.3-1.6,0.7-2.2,1.2l-2-2.9
			c2.1-1.5,4.5-2.3,7.3-2.3c2,0,3.6,0.5,4.8,1.5c1.2,1,1.9,2.5,1.9,4.7V85.5z M645.8,79.4v-0.8h-2.8c-1.8,0-2.7,0.6-2.7,1.7
			c0,0.6,0.2,1,0.6,1.3c0.4,0.3,1,0.5,1.8,0.5c0.8,0,1.5-0.2,2.1-0.7C645.4,80.9,645.8,80.2,645.8,79.4z"/>
		<path class="st3" d="M658.9,76.5v9h-4.5V69.4h4.5v1.8c1.4-1.4,2.9-2.1,4.6-2.1s3.1,0.6,4.3,1.8c1.1,1.2,1.7,2.8,1.7,4.8v9.8H665
			v-9.1c0-2.5-0.9-3.7-2.7-3.7c-0.9,0-1.7,0.3-2.4,1C659.2,74.3,658.9,75.3,658.9,76.5z"/>
		<path class="st3" d="M684,78.1v-8.7h4.5v16.1H684v-2.1c-1.1,1.6-2.6,2.4-4.3,2.4c-1.8,0-3.3-0.6-4.5-1.7c-1.2-1.1-1.8-2.8-1.8-4.9
			v-9.8h4.5v8.8c0,2.5,0.9,3.7,2.7,3.7c0.9,0,1.7-0.3,2.3-1C683.6,80.3,684,79.3,684,78.1z"/>
		<path class="st3" d="M698.1,72.6v7.2c0,0.6,0.2,1.1,0.5,1.5c0.3,0.3,0.7,0.5,1.1,0.5c0.8,0,1.5-0.4,2.1-1.1l1.7,3.2
			c-1.4,1.3-2.9,1.9-4.4,1.9s-2.9-0.5-3.9-1.5c-1.1-1-1.6-2.4-1.6-4.2v-7.4h-1.9v-3.2h1.9v-4.8h4.5v4.8h3.9v3.2H698.1z"/>
		<path class="st3" d="M721.9,77.5c0,2.3-0.8,4.3-2.4,5.9c-1.6,1.6-3.7,2.4-6.1,2.4c-2.5,0-4.5-0.8-6.1-2.4
			c-1.6-1.6-2.4-3.6-2.4-5.9s0.8-4.3,2.4-5.9c1.6-1.6,3.7-2.4,6.1-2.4c2.4,0,4.5,0.8,6.1,2.4C721.1,73.2,721.9,75.1,721.9,77.5z
			 M709.4,77.5c0,1.3,0.4,2.4,1.1,3.2s1.7,1.2,2.9,1.2s2.1-0.4,2.9-1.2s1.1-1.9,1.1-3.2c0-1.3-0.4-2.4-1.1-3.2
			c-0.8-0.8-1.7-1.3-2.9-1.3s-2.1,0.4-2.9,1.3C709.8,75.1,709.4,76.2,709.4,77.5z"/>
		<path class="st3" d="M737.2,80.5c0,1.6-0.6,2.9-1.8,3.8s-2.7,1.4-4.5,1.4c-1.2,0-2.5-0.2-3.8-0.6c-1.3-0.4-2.5-1.1-3.5-1.9l2-2.8
			c1.7,1.3,3.5,2,5.4,2c0.6,0,1-0.1,1.4-0.3c0.3-0.2,0.5-0.5,0.5-0.9c0-0.4-0.2-0.7-0.7-1c-0.5-0.3-1.2-0.6-2-0.9s-1.6-0.5-2-0.7
			c-0.5-0.2-1-0.5-1.6-0.9c-1.2-0.8-1.8-1.9-1.8-3.4c0-1.5,0.6-2.7,1.8-3.6c1.2-0.9,2.8-1.4,4.7-1.4c1.9,0,3.8,0.6,5.7,1.9l-1.7,3
			c-1.4-1-2.8-1.4-4.2-1.4c-1.4,0-2.1,0.4-2.1,1.1c0,0.4,0.2,0.8,0.7,1c0.4,0.2,1.2,0.5,2.2,0.8c1,0.3,1.7,0.6,2.2,0.7
			s0.9,0.4,1.5,0.8C736.7,77.8,737.2,78.9,737.2,80.5z"/>
		<path class="st3" d="M741,85c-0.5-0.5-0.8-1.1-0.8-1.9c0-0.7,0.3-1.4,0.8-1.9c0.5-0.5,1.1-0.8,1.9-0.8c0.7,0,1.4,0.3,1.9,0.8
			c0.5,0.5,0.8,1.1,0.8,1.9c0,0.7-0.3,1.4-0.8,1.9c-0.5,0.5-1.1,0.8-1.9,0.8C742.2,85.8,741.5,85.5,741,85z"/>
	</g>
	<g class="st2">
		<path class="st3" d="M37.3,103.8c-0.4,0.4-0.7,0.9-0.7,1.5c0,0.6,0.3,1.1,0.8,1.5c0.6,0.4,1.8,0.8,3.8,1.3s3.5,1.2,4.6,2.2
			c1.1,1,1.6,2.4,1.6,4.3s-0.7,3.4-2.1,4.6c-1.4,1.2-3.3,1.8-5.6,1.8c-3.3,0-6.3-1.2-9-3.7l2.8-3.4c2.3,2,4.4,3,6.3,3
			c0.9,0,1.5-0.2,2-0.6c0.5-0.4,0.7-0.9,0.7-1.5s-0.3-1.1-0.8-1.5c-0.5-0.4-1.6-0.7-3.1-1.1c-2.4-0.6-4.2-1.3-5.4-2.3
			c-1.1-0.9-1.7-2.4-1.7-4.4s0.7-3.5,2.1-4.6c1.4-1.1,3.2-1.6,5.4-1.6c1.4,0,2.8,0.2,4.2,0.7c1.4,0.5,2.6,1.2,3.7,2l-2.4,3.4
			c-1.8-1.4-3.7-2.1-5.6-2.1C38.4,103.2,37.8,103.4,37.3,103.8z"/>
		<path class="st3" d="M51.5,102.3c-0.5-0.5-0.8-1.1-0.8-1.9c0-0.7,0.3-1.4,0.8-1.9c0.5-0.5,1.1-0.8,1.9-0.8c0.7,0,1.4,0.3,1.9,0.8
			c0.5,0.5,0.8,1.1,0.8,1.9c0,0.7-0.3,1.4-0.8,1.9c-0.5,0.5-1.1,0.8-1.9,0.8C52.6,103.1,52,102.9,51.5,102.3z M55.6,120.5h-4.5
			v-16.1h4.5V120.5z"/>
		<path class="st3" d="M72.3,120.5h-4.5V98.3h4.5V120.5z"/>
		<path class="st3" d="M90.3,120.5H86v-2c-1.2,1.5-2.6,2.2-4.3,2.2s-3.1-0.5-4.3-1.5c-1.2-1-1.7-2.3-1.7-4s0.6-2.9,1.8-3.7
			c1.2-0.8,2.8-1.2,4.9-1.2h3.4v-0.1c0-1.7-0.9-2.6-2.7-2.6c-0.8,0-1.6,0.2-2.5,0.5c-0.9,0.3-1.6,0.7-2.2,1.2l-2-2.9
			c2.1-1.5,4.5-2.3,7.3-2.3c2,0,3.6,0.5,4.8,1.5c1.2,1,1.9,2.5,1.9,4.7V120.5z M85.7,114.4v-0.8h-2.8c-1.8,0-2.7,0.6-2.7,1.7
			c0,0.6,0.2,1,0.6,1.3c0.4,0.3,1,0.5,1.8,0.5s1.5-0.2,2.1-0.7C85.4,115.9,85.7,115.2,85.7,114.4z"/>
		<path class="st3" d="M117.1,111.8v8.7h-4.5v-8.8c0-1.3-0.2-2.2-0.6-2.8c-0.4-0.6-1-0.9-1.9-0.9c-0.9,0-1.6,0.3-2.3,1
			c-0.7,0.7-1,1.6-1,2.9v8.7h-4.5v-16.1h4.5v1.8c1.2-1.4,2.7-2.1,4.3-2.1c1,0,1.9,0.3,2.8,0.9c0.8,0.6,1.5,1.3,1.9,2.2
			c0.6-1,1.5-1.7,2.5-2.3c1.1-0.5,2.1-0.8,3.2-0.8c1.9,0,3.4,0.6,4.6,1.7c1.2,1.1,1.7,2.8,1.7,4.9v9.8h-4.5v-8.8
			c0-2.5-0.9-3.7-2.7-3.7c-0.9,0-1.7,0.3-2.3,1C117.4,109.6,117.1,110.6,117.1,111.8z"/>
		<path class="st3" d="M142.2,113.1v-8.7h4.5v16.1h-4.5v-2.1c-1.1,1.6-2.6,2.4-4.3,2.4s-3.3-0.6-4.5-1.7c-1.2-1.1-1.8-2.8-1.8-4.9
			v-9.8h4.5v8.8c0,2.5,0.9,3.7,2.7,3.7c0.9,0,1.7-0.3,2.3-1C141.9,115.3,142.2,114.3,142.2,113.1z"/>
		<path class="st3" d="M152.5,120.8v-16.5h4.5v16.8c0,1.8-0.5,3.1-1.6,4.2c-1.1,1-2.4,1.5-3.9,1.5c-1.6,0-3-0.6-4.4-1.9l2.1-3.3
			c0.6,0.7,1.3,1,2,1c0.4,0,0.7-0.2,1-0.5C152.4,121.9,152.5,121.5,152.5,120.8z M152.9,102.3c-0.5-0.5-0.8-1.1-0.8-1.9
			c0-0.7,0.3-1.4,0.8-1.9c0.5-0.5,1.1-0.8,1.9-0.8c0.7,0,1.4,0.3,1.9,0.8c0.5,0.5,0.8,1.1,0.8,1.9c0,0.7-0.3,1.4-0.8,1.9
			c-0.5,0.5-1.1,0.8-1.9,0.8C154,103.1,153.4,102.9,152.9,102.3z"/>
		<path class="st3" d="M175.3,118.2c-1.8,1.7-4,2.6-6.4,2.6c-2.5,0-4.5-0.8-6.1-2.3c-1.6-1.5-2.4-3.5-2.4-6.1s0.8-4.6,2.4-6.1
			s3.6-2.2,5.8-2.2c2.2,0,4.1,0.7,5.7,2c1.5,1.3,2.3,3.2,2.3,5.5v2.4h-11.8c0.1,0.9,0.6,1.6,1.4,2.2c0.8,0.6,1.7,0.8,2.6,0.8
			c1.6,0,2.9-0.5,3.9-1.6L175.3,118.2z M170.9,108.6c-0.6-0.5-1.4-0.8-2.3-0.8c-0.9,0-1.7,0.3-2.4,0.8c-0.7,0.5-1.2,1.3-1.3,2.2h7.1
			C171.9,109.9,171.6,109.2,170.9,108.6z"/>
		<path class="st3" d="M188.3,108.4c-1.3,0-2.3,0.5-3,1.4c-0.7,1-1,2.2-1,3.8v7h-4.5v-16.1h4.5v2.1c0.6-0.7,1.3-1.2,2.2-1.7
			c0.9-0.5,1.8-0.7,2.7-0.7l0,4.2H188.3z"/>
		<path class="st3" d="M214,118.2c-1.8,1.7-4,2.6-6.4,2.6c-2.5,0-4.5-0.8-6.1-2.3c-1.6-1.5-2.4-3.5-2.4-6.1s0.8-4.6,2.4-6.1
			s3.6-2.2,5.8-2.2c2.2,0,4.1,0.7,5.7,2c1.5,1.3,2.3,3.2,2.3,5.5v2.4h-11.8c0.1,0.9,0.6,1.6,1.4,2.2c0.8,0.6,1.7,0.8,2.6,0.8
			c1.6,0,2.9-0.5,3.9-1.6L214,118.2z M209.7,108.6c-0.6-0.5-1.4-0.8-2.3-0.8c-0.9,0-1.7,0.3-2.4,0.8c-0.7,0.5-1.2,1.3-1.3,2.2h7.1
			C210.7,109.9,210.3,109.2,209.7,108.6z"/>
		<path class="st3" d="M233.4,111.8v8.7h-4.5v-8.8c0-1.3-0.2-2.2-0.6-2.8c-0.4-0.6-1-0.9-1.9-0.9c-0.9,0-1.6,0.3-2.3,1
			c-0.7,0.7-1,1.6-1,2.9v8.7h-4.5v-16.1h4.5v1.8c1.2-1.4,2.7-2.1,4.3-2.1c1,0,1.9,0.3,2.8,0.9c0.8,0.6,1.5,1.3,1.9,2.2
			c0.6-1,1.5-1.7,2.5-2.3c1.1-0.5,2.1-0.8,3.2-0.8c1.9,0,3.4,0.6,4.6,1.7c1.2,1.1,1.7,2.8,1.7,4.9v9.8h-4.5v-8.8
			c0-2.5-0.9-3.7-2.7-3.7c-0.9,0-1.7,0.3-2.3,1C233.8,109.6,233.4,110.6,233.4,111.8z"/>
		<path class="st3" d="M257.4,104.1c2,0,3.7,0.8,5.1,2.3c1.5,1.5,2.2,3.5,2.2,5.9c0,2.4-0.8,4.4-2.2,6c-1.5,1.6-3.2,2.4-5.1,2.4
			s-3.5-0.8-4.8-2.4v2.1h-4.5V98.3h4.5v7.9C253.8,104.8,255.4,104.1,257.4,104.1z M252.5,112.5c0,1.3,0.4,2.4,1.1,3.2
			c0.7,0.8,1.6,1.2,2.7,1.2s2-0.4,2.7-1.2c0.8-0.8,1.2-1.9,1.2-3.2c0-1.3-0.4-2.4-1.1-3.3c-0.8-0.9-1.7-1.3-2.7-1.3
			c-1.1,0-2,0.4-2.7,1.3C252.9,110.1,252.5,111.2,252.5,112.5z"/>
		<path class="st3" d="M281.8,120.5h-4.2v-2c-1.2,1.5-2.6,2.2-4.3,2.2s-3.1-0.5-4.3-1.5c-1.2-1-1.7-2.3-1.7-4s0.6-2.9,1.8-3.7
			c1.2-0.8,2.8-1.2,4.9-1.2h3.4v-0.1c0-1.7-0.9-2.6-2.7-2.6c-0.8,0-1.6,0.2-2.5,0.5c-0.9,0.3-1.6,0.7-2.2,1.2l-2-2.9
			c2.1-1.5,4.5-2.3,7.3-2.3c2,0,3.6,0.5,4.8,1.5c1.2,1,1.9,2.5,1.9,4.7V120.5z M277.3,114.4v-0.8h-2.8c-1.8,0-2.7,0.6-2.7,1.7
			c0,0.6,0.2,1,0.6,1.3c0.4,0.3,1,0.5,1.8,0.5s1.5-0.2,2.1-0.7C277,115.9,277.3,115.2,277.3,114.4z"/>
		<path class="st3" d="M294.4,108.4c-1.3,0-2.3,0.5-3,1.4c-0.7,1-1,2.2-1,3.8v7h-4.5v-16.1h4.5v2.1c0.6-0.7,1.3-1.2,2.2-1.7
			c0.9-0.5,1.8-0.7,2.7-0.7l0,4.2H294.4z"/>
		<path class="st3" d="M311.8,120.5h-4.2v-2c-1.2,1.5-2.6,2.2-4.3,2.2s-3.1-0.5-4.3-1.5c-1.2-1-1.7-2.3-1.7-4s0.6-2.9,1.8-3.7
			c1.2-0.8,2.8-1.2,4.9-1.2h3.4v-0.1c0-1.7-0.9-2.6-2.7-2.6c-0.8,0-1.6,0.2-2.5,0.5c-0.9,0.3-1.6,0.7-2.2,1.2l-2-2.9
			c2.1-1.5,4.5-2.3,7.3-2.3c2,0,3.6,0.5,4.8,1.5c1.2,1,1.9,2.5,1.9,4.7V120.5z M307.3,114.4v-0.8h-2.8c-1.8,0-2.7,0.6-2.7,1.7
			c0,0.6,0.2,1,0.6,1.3c0.4,0.3,1,0.5,1.8,0.5s1.5-0.2,2.1-0.7C307,115.9,307.3,115.2,307.3,114.4z"/>
		<path class="st3" d="M315.6,108.1v-3.7h13v3.5l-7.8,8.9h8.3v3.8h-14v-3.7l7.6-8.7H315.6z"/>
		<path class="st3" d="M346.2,120.5H342v-2c-1.2,1.5-2.6,2.2-4.3,2.2s-3.1-0.5-4.3-1.5c-1.2-1-1.7-2.3-1.7-4s0.6-2.9,1.8-3.7
			c1.2-0.8,2.8-1.2,4.9-1.2h3.4v-0.1c0-1.7-0.9-2.6-2.7-2.6c-0.8,0-1.6,0.2-2.5,0.5c-0.9,0.3-1.6,0.7-2.2,1.2l-2-2.9
			c2.1-1.5,4.5-2.3,7.3-2.3c2,0,3.6,0.5,4.8,1.5c1.2,1,1.9,2.5,1.9,4.7V120.5z M341.7,114.4v-0.8h-2.8c-1.8,0-2.7,0.6-2.7,1.7
			c0,0.6,0.2,1,0.6,1.3c0.4,0.3,1,0.5,1.8,0.5s1.5-0.2,2.1-0.7C341.4,115.9,341.7,115.2,341.7,114.4z"/>
		<path class="st3" d="M356.8,120.8c-1.9,0-3.6-0.8-5.1-2.4c-1.5-1.6-2.2-3.6-2.2-6c0-2.4,0.7-4.4,2.2-5.9c1.5-1.5,3.2-2.3,5.1-2.3
			s3.6,0.7,4.8,2.1v-7.9h4.5v22.3h-4.5v-2.1C360.3,120,358.7,120.8,356.8,120.8z M353.9,112.5c0,1.3,0.4,2.4,1.2,3.2
			c0.8,0.8,1.7,1.2,2.7,1.2c1,0,1.9-0.4,2.7-1.2c0.7-0.8,1.1-1.9,1.1-3.2s-0.4-2.4-1.1-3.3c-0.7-0.9-1.6-1.3-2.7-1.3s-2,0.4-2.7,1.3
			C354.3,110.1,353.9,111.2,353.9,112.5z"/>
		<path class="st3" d="M384,120.5h-4.2v-2c-1.2,1.5-2.6,2.2-4.3,2.2s-3.1-0.5-4.3-1.5c-1.2-1-1.7-2.3-1.7-4s0.6-2.9,1.8-3.7
			c1.2-0.8,2.8-1.2,4.9-1.2h3.4v-0.1c0-1.7-0.9-2.6-2.7-2.6c-0.8,0-1.6,0.2-2.5,0.5c-0.9,0.3-1.6,0.7-2.2,1.2l-2-2.9
			c2.1-1.5,4.5-2.3,7.3-2.3c2,0,3.6,0.5,4.8,1.5c1.2,1,1.9,2.5,1.9,4.7V120.5z M379.5,114.4v-0.8h-2.8c-1.8,0-2.7,0.6-2.7,1.7
			c0,0.6,0.2,1,0.6,1.3c0.4,0.3,1,0.5,1.8,0.5s1.5-0.2,2.1-0.7C379.2,115.9,379.5,115.2,379.5,114.4z"/>
		<path class="st3" d="M401.4,107.6v7.2c0,0.6,0.2,1.1,0.5,1.5s0.7,0.5,1.1,0.5c0.8,0,1.5-0.4,2.1-1.1l1.7,3.2
			c-1.4,1.3-2.9,1.9-4.4,1.9c-1.6,0-2.9-0.5-3.9-1.5c-1.1-1-1.6-2.4-1.6-4.2v-7.4H395v-3.2h1.9v-4.8h4.5v4.8h3.9v3.2H401.4z"/>
		<path class="st3" d="M409.6,102.3c-0.5-0.5-0.8-1.1-0.8-1.9c0-0.7,0.3-1.4,0.8-1.9c0.5-0.5,1.1-0.8,1.9-0.8s1.4,0.3,1.9,0.8
			c0.5,0.5,0.8,1.1,0.8,1.9c0,0.7-0.3,1.4-0.8,1.9c-0.5,0.5-1.1,0.8-1.9,0.8S410.1,102.9,409.6,102.3z M413.7,120.5h-4.5v-16.1h4.5
			V120.5z"/>
		<path class="st3" d="M432,118.2c-1.8,1.7-4,2.6-6.4,2.6s-4.5-0.8-6.1-2.3c-1.6-1.5-2.4-3.5-2.4-6.1s0.8-4.6,2.4-6.1
			s3.6-2.2,5.8-2.2c2.2,0,4.1,0.7,5.7,2c1.6,1.3,2.3,3.2,2.3,5.5v2.4h-11.8c0.1,0.9,0.6,1.6,1.4,2.2c0.8,0.6,1.7,0.8,2.6,0.8
			c1.6,0,2.9-0.5,3.9-1.6L432,118.2z M427.6,108.6c-0.6-0.5-1.4-0.8-2.3-0.8c-0.9,0-1.7,0.3-2.4,0.8c-0.7,0.5-1.2,1.3-1.3,2.2h7.1
			C428.6,109.9,428.3,109.2,427.6,108.6z"/>
		<path class="st3" d="M441,111.5v9h-4.5v-16.1h4.5v1.8c1.4-1.4,2.9-2.1,4.6-2.1s3.1,0.6,4.3,1.8c1.2,1.2,1.7,2.8,1.7,4.8v9.8h-4.5
			v-9.1c0-2.5-0.9-3.7-2.7-3.7c-0.9,0-1.7,0.3-2.4,1C441.4,109.3,441,110.3,441,111.5z"/>
		<path class="st3" d="M469.7,118.2c-1.8,1.7-4,2.6-6.4,2.6c-2.5,0-4.5-0.8-6.1-2.3c-1.6-1.5-2.4-3.5-2.4-6.1s0.8-4.6,2.4-6.1
			c1.6-1.5,3.6-2.2,5.8-2.2c2.2,0,4.1,0.7,5.7,2c1.5,1.3,2.3,3.2,2.3,5.5v2.4h-11.8c0.1,0.9,0.6,1.6,1.4,2.2
			c0.8,0.6,1.7,0.8,2.6,0.8c1.6,0,2.9-0.5,3.9-1.6L469.7,118.2z M465.4,108.6c-0.6-0.5-1.4-0.8-2.3-0.8s-1.7,0.3-2.4,0.8
			c-0.7,0.5-1.2,1.3-1.3,2.2h7.1C466.3,109.9,466,109.2,465.4,108.6z"/>
		<path class="st3" d="M490.3,112.9l5.3-13.3h5.1l-8.4,21h-4l-8.4-21h5.1L490.3,112.9z"/>
		<path class="st3" d="M503.2,99.6h4.7v21h-4.7V99.6z"/>
		<path class="st3" d="M526.1,99.6h4.7v21h-4.7v-8.2h-8.3v8.2h-4.7v-21h4.7v8.8h8.3V99.6z"/>
		<path class="st3" d="M552.8,104.1c1.9,0,3.6,0.8,5,2.4s2.2,3.5,2.2,5.9s-0.7,4.4-2.2,6c-1.5,1.6-3.2,2.4-5.2,2.4s-3.6-0.8-4.8-2.4
			v8h-4.5v-22h4.5v1.8C549.3,104.8,550.9,104.1,552.8,104.1z M547.9,112.5c0,1.3,0.4,2.4,1.1,3.2s1.6,1.2,2.7,1.2c1,0,2-0.4,2.7-1.2
			c0.8-0.8,1.2-1.9,1.2-3.2c0-1.3-0.4-2.4-1.1-3.3c-0.8-0.9-1.7-1.3-2.7-1.3c-1.1,0-2,0.4-2.7,1.3S547.9,111.2,547.9,112.5z"/>
		<path class="st3" d="M573.8,113.1v-8.7h4.5v16.1h-4.5v-2.1c-1.1,1.6-2.6,2.4-4.3,2.4s-3.3-0.6-4.5-1.7c-1.2-1.1-1.8-2.8-1.8-4.9
			v-9.8h4.5v8.8c0,2.5,0.9,3.7,2.7,3.7c0.9,0,1.7-0.3,2.3-1C573.5,115.3,573.8,114.3,573.8,113.1z"/>
		<path class="st3" d="M596.6,118.2c-1.8,1.7-4,2.6-6.4,2.6c-2.5,0-4.5-0.8-6.1-2.3c-1.6-1.5-2.4-3.5-2.4-6.1s0.8-4.6,2.4-6.1
			c1.6-1.5,3.6-2.2,5.8-2.2c2.2,0,4.1,0.7,5.7,2c1.5,1.3,2.3,3.2,2.3,5.5v2.4h-11.8c0.1,0.9,0.6,1.6,1.4,2.2
			c0.8,0.6,1.7,0.8,2.6,0.8c1.6,0,2.9-0.5,3.9-1.6L596.6,118.2z M592.3,108.6c-0.6-0.5-1.4-0.8-2.3-0.8c-0.9,0-1.7,0.3-2.4,0.8
			c-0.7,0.5-1.2,1.3-1.3,2.2h7.1C593.2,109.9,592.9,109.2,592.3,108.6z"/>
		<path class="st3" d="M607.6,120.8c-1.9,0-3.6-0.8-5.1-2.4c-1.5-1.6-2.2-3.6-2.2-6c0-2.4,0.7-4.4,2.2-5.9c1.5-1.5,3.2-2.3,5.1-2.3
			c2,0,3.6,0.7,4.8,2.1v-7.9h4.5v22.3h-4.5v-2.1C611.1,120,609.5,120.8,607.6,120.8z M604.8,112.5c0,1.3,0.4,2.4,1.2,3.2
			c0.8,0.8,1.7,1.2,2.7,1.2s1.9-0.4,2.7-1.2c0.7-0.8,1.1-1.9,1.1-3.2s-0.4-2.4-1.1-3.3c-0.7-0.9-1.6-1.3-2.7-1.3
			c-1.1,0-2,0.4-2.7,1.3S604.8,111.2,604.8,112.5z"/>
		<path class="st3" d="M635.1,118.2c-1.8,1.7-4,2.6-6.4,2.6s-4.5-0.8-6.1-2.3c-1.6-1.5-2.4-3.5-2.4-6.1s0.8-4.6,2.4-6.1
			c1.6-1.5,3.6-2.2,5.8-2.2c2.2,0,4.1,0.7,5.7,2c1.5,1.3,2.3,3.2,2.3,5.5v2.4h-11.8c0.1,0.9,0.6,1.6,1.4,2.2
			c0.8,0.6,1.7,0.8,2.6,0.8c1.6,0,2.9-0.5,3.9-1.6L635.1,118.2z M630.8,108.6c-0.6-0.5-1.4-0.8-2.3-0.8s-1.7,0.3-2.4,0.8
			s-1.2,1.3-1.3,2.2h7.1C631.8,109.9,631.4,109.2,630.8,108.6z"/>
		<path class="st3" d="M659.7,115.5c0,1.6-0.6,2.9-1.8,3.8s-2.7,1.4-4.5,1.4c-1.2,0-2.5-0.2-3.8-0.6c-1.3-0.4-2.5-1.1-3.5-1.9l2-2.8
			c1.7,1.3,3.5,2,5.4,2c0.6,0,1-0.1,1.4-0.3c0.3-0.2,0.5-0.5,0.5-0.9c0-0.4-0.2-0.7-0.7-1c-0.5-0.3-1.2-0.6-2-0.9
			c-0.9-0.3-1.6-0.5-2-0.7c-0.5-0.2-1-0.5-1.6-0.9c-1.2-0.8-1.8-1.9-1.8-3.4c0-1.5,0.6-2.7,1.8-3.6c1.2-0.9,2.8-1.4,4.7-1.4
			s3.8,0.6,5.7,1.9l-1.7,3c-1.4-1-2.8-1.4-4.2-1.4c-1.4,0-2.1,0.4-2.1,1.1c0,0.4,0.2,0.8,0.7,1s1.2,0.5,2.2,0.8
			c1,0.3,1.7,0.6,2.2,0.7s0.9,0.4,1.5,0.8C659.2,112.8,659.7,113.9,659.7,115.5z"/>
		<path class="st3" d="M677.2,118.2c-1.8,1.7-4,2.6-6.4,2.6c-2.5,0-4.5-0.8-6.1-2.3c-1.6-1.5-2.4-3.5-2.4-6.1s0.8-4.6,2.4-6.1
			c1.6-1.5,3.6-2.2,5.8-2.2c2.2,0,4.1,0.7,5.7,2c1.5,1.3,2.3,3.2,2.3,5.5v2.4h-11.8c0.1,0.9,0.6,1.6,1.4,2.2
			c0.8,0.6,1.7,0.8,2.6,0.8c1.6,0,2.9-0.5,3.9-1.6L677.2,118.2z M672.8,108.6c-0.6-0.5-1.4-0.8-2.3-0.8c-0.9,0-1.7,0.3-2.4,0.8
			c-0.7,0.5-1.2,1.3-1.3,2.2h7.1C673.8,109.9,673.5,109.2,672.8,108.6z"/>
		<path class="st3" d="M693.7,117.8c-1.4,1.6-3.2,2.4-5.3,2.4s-3.9-0.7-5.3-2.1c-1.5-1.4-2.2-3.3-2.2-5.7c0-2.4,0.7-4.3,2.2-5.9
			c1.5-1.5,3.2-2.3,5.1-2.3s3.5,0.8,4.8,2.4v-2.1h4.5v14.1c0,1.4-0.2,2.7-0.8,3.8c-0.5,1.1-1.2,2-2,2.6c-1.7,1.3-3.6,2-5.9,2
			c-1.2,0-2.4-0.2-3.7-0.6c-1.3-0.4-2.3-0.9-3.3-1.7l1.7-3.4c1.5,1.1,3,1.7,4.7,1.7c1.7,0,3-0.4,3.9-1.2
			C693.2,120.9,693.7,119.6,693.7,117.8z M693,112.1c0-1.3-0.4-2.3-1.1-3c-0.7-0.7-1.6-1.1-2.7-1.1c-1.1,0-2,0.4-2.7,1.1
			c-0.8,0.7-1.2,1.8-1.2,3s0.4,2.3,1.1,3.1s1.7,1.2,2.7,1.2s2-0.4,2.7-1.2C692.7,114.5,693,113.4,693,112.1z"/>
		<path class="st3" d="M712.1,113.1v-8.7h4.5v16.1h-4.5v-2.1c-1.1,1.6-2.6,2.4-4.3,2.4s-3.3-0.6-4.5-1.7c-1.2-1.1-1.8-2.8-1.8-4.9
			v-9.8h4.5v8.8c0,2.5,0.9,3.7,2.7,3.7c0.9,0,1.7-0.3,2.3-1C711.8,115.3,712.1,114.3,712.1,113.1z"/>
		<path class="st3" d="M721.3,102.3c-0.5-0.5-0.8-1.1-0.8-1.9c0-0.7,0.3-1.4,0.8-1.9c0.5-0.5,1.1-0.8,1.9-0.8s1.4,0.3,1.9,0.8
			c0.5,0.5,0.8,1.1,0.8,1.9c0,0.7-0.3,1.4-0.8,1.9c-0.5,0.5-1.1,0.8-1.9,0.8S721.8,102.9,721.3,102.3z M725.4,120.5h-4.5v-16.1h4.5
			V120.5z"/>
		<path class="st3" d="M738.2,108.4c-1.3,0-2.3,0.5-3,1.4s-1,2.2-1,3.8v7h-4.5v-16.1h4.5v2.1c0.6-0.7,1.3-1.2,2.2-1.7
			c0.9-0.5,1.8-0.7,2.7-0.7l0,4.2H738.2z"/>
	</g>
	<g class="st2">
		<path class="st3" d="M17.8,148.1v-8.7h4.5v16.1h-4.5v-2.1c-1.1,1.6-2.6,2.4-4.3,2.4s-3.3-0.6-4.5-1.7c-1.2-1.1-1.8-2.8-1.8-4.9
			v-9.8h4.5v8.8c0,2.5,0.9,3.7,2.7,3.7c0.9,0,1.7-0.3,2.3-1C17.5,150.3,17.8,149.3,17.8,148.1z"/>
		<path class="st3" d="M31.1,146.5v9h-4.5v-16.1h4.5v1.8c1.4-1.4,2.9-2.1,4.6-2.1c1.7,0,3.1,0.6,4.3,1.8c1.1,1.2,1.7,2.8,1.7,4.8
			v9.8h-4.5v-9.1c0-2.5-0.9-3.7-2.7-3.7c-0.9,0-1.7,0.3-2.4,1C31.4,144.3,31.1,145.3,31.1,146.5z"/>
		<path class="st3" d="M59,142.6v7.2c0,0.6,0.2,1.1,0.5,1.5c0.3,0.3,0.7,0.5,1.1,0.5c0.8,0,1.5-0.4,2.1-1.1l1.7,3.2
			c-1.4,1.3-2.9,1.9-4.4,1.9s-2.9-0.5-3.9-1.5c-1.1-1-1.6-2.4-1.6-4.2v-7.4h-1.9v-3.2h1.9v-4.8H59v4.8h3.9v3.2H59z"/>
		<path class="st3" d="M75.4,143.4c-1.3,0-2.3,0.5-3,1.4c-0.7,1-1,2.2-1,3.8v7h-4.5v-16.1h4.5v2.1c0.6-0.7,1.3-1.2,2.2-1.7
			c0.9-0.5,1.8-0.7,2.7-0.7l0,4.2H75.4z"/>
		<path class="st3" d="M92.8,155.5h-4.2v-2c-1.2,1.5-2.6,2.2-4.3,2.2s-3.1-0.5-4.3-1.5c-1.2-1-1.7-2.3-1.7-4s0.6-2.9,1.8-3.7
			c1.2-0.8,2.8-1.2,4.9-1.2h3.4v-0.1c0-1.7-0.9-2.6-2.7-2.6c-0.8,0-1.6,0.2-2.5,0.5c-0.9,0.3-1.6,0.7-2.2,1.2l-2-2.9
			c2.1-1.5,4.5-2.3,7.3-2.3c2,0,3.6,0.5,4.8,1.5c1.2,1,1.9,2.5,1.9,4.7V155.5z M88.2,149.4v-0.8h-2.8c-1.8,0-2.7,0.6-2.7,1.7
			c0,0.6,0.2,1,0.6,1.3c0.4,0.3,1,0.5,1.8,0.5s1.5-0.2,2.1-0.7C87.9,150.9,88.2,150.2,88.2,149.4z"/>
		<path class="st3" d="M102.1,142.6v7.2c0,0.6,0.2,1.1,0.5,1.5c0.3,0.3,0.7,0.5,1.1,0.5c0.8,0,1.5-0.4,2.1-1.1l1.7,3.2
			c-1.4,1.3-2.9,1.9-4.4,1.9s-2.9-0.5-3.9-1.5c-1.1-1-1.6-2.4-1.6-4.2v-7.4h-1.9v-3.2h1.9v-4.8h4.5v4.8h3.9v3.2H102.1z"/>
		<path class="st3" d="M123.6,155.5h-4.2v-2c-1.2,1.5-2.6,2.2-4.3,2.2s-3.1-0.5-4.3-1.5c-1.2-1-1.7-2.3-1.7-4s0.6-2.9,1.8-3.7
			c1.2-0.8,2.8-1.2,4.9-1.2h3.4v-0.1c0-1.7-0.9-2.6-2.7-2.6c-0.8,0-1.6,0.2-2.5,0.5c-0.9,0.3-1.6,0.7-2.2,1.2l-2-2.9
			c2.1-1.5,4.5-2.3,7.3-2.3c2,0,3.6,0.5,4.8,1.5c1.2,1,1.9,2.5,1.9,4.7V155.5z M119.1,149.4v-0.8h-2.8c-1.8,0-2.7,0.6-2.7,1.7
			c0,0.6,0.2,1,0.6,1.3c0.4,0.3,1,0.5,1.8,0.5s1.5-0.2,2.1-0.7C118.8,150.9,119.1,150.2,119.1,149.4z"/>
		<path class="st3" d="M142.5,146.8v8.7H138v-8.8c0-1.3-0.2-2.2-0.6-2.8c-0.4-0.6-1-0.9-1.9-0.9c-0.9,0-1.6,0.3-2.3,1
			c-0.7,0.7-1,1.6-1,2.9v8.7h-4.5v-16.1h4.5v1.8c1.2-1.4,2.7-2.1,4.3-2.1c1,0,1.9,0.3,2.8,0.9c0.8,0.6,1.5,1.3,1.9,2.2
			c0.6-1,1.5-1.7,2.5-2.3c1.1-0.5,2.1-0.8,3.2-0.8c1.9,0,3.4,0.6,4.6,1.7c1.2,1.1,1.7,2.8,1.7,4.9v9.8h-4.5v-8.8
			c0-2.5-0.9-3.7-2.7-3.7c-0.9,0-1.7,0.3-2.3,1C142.9,144.6,142.5,145.6,142.5,146.8z"/>
		<path class="st3" d="M157.6,137.3c-0.5-0.5-0.8-1.1-0.8-1.9c0-0.7,0.3-1.4,0.8-1.9c0.5-0.5,1.1-0.8,1.9-0.8c0.7,0,1.4,0.3,1.9,0.8
			c0.5,0.5,0.8,1.1,0.8,1.9c0,0.7-0.3,1.4-0.8,1.9c-0.5,0.5-1.1,0.8-1.9,0.8C158.7,138.1,158.1,137.9,157.6,137.3z M161.7,155.5
			h-4.5v-16.1h4.5V155.5z"/>
		<path class="st3" d="M179.9,153.2c-1.8,1.7-4,2.6-6.4,2.6c-2.5,0-4.5-0.8-6.1-2.3c-1.6-1.5-2.4-3.5-2.4-6.1s0.8-4.6,2.4-6.1
			s3.6-2.2,5.8-2.2c2.2,0,4.1,0.7,5.7,2c1.5,1.3,2.3,3.2,2.3,5.5v2.4h-11.8c0.1,0.9,0.6,1.6,1.4,2.2c0.8,0.6,1.7,0.8,2.6,0.8
			c1.6,0,2.9-0.5,3.9-1.6L179.9,153.2z M175.6,143.6c-0.6-0.5-1.4-0.8-2.3-0.8c-0.9,0-1.7,0.3-2.4,0.8c-0.7,0.5-1.2,1.3-1.3,2.2h7.1
			C176.6,144.9,176.2,144.2,175.6,143.6z"/>
		<path class="st3" d="M189,146.5v9h-4.5v-16.1h4.5v1.8c1.4-1.4,2.9-2.1,4.6-2.1c1.7,0,3.1,0.6,4.3,1.8c1.1,1.2,1.7,2.8,1.7,4.8v9.8
			h-4.5v-9.1c0-2.5-0.9-3.7-2.7-3.7c-0.9,0-1.7,0.3-2.4,1C189.3,144.3,189,145.3,189,146.5z"/>
		<path class="st3" d="M208.8,142.6v7.2c0,0.6,0.2,1.1,0.5,1.5c0.3,0.3,0.7,0.5,1.1,0.5c0.8,0,1.5-0.4,2.1-1.1l1.7,3.2
			c-1.4,1.3-2.9,1.9-4.4,1.9s-2.9-0.5-3.9-1.5c-1.1-1-1.6-2.4-1.6-4.2v-7.4h-1.9v-3.2h1.9v-4.8h4.5v4.8h3.9v3.2H208.8z"/>
		<path class="st3" d="M232.6,147.5c0,2.3-0.8,4.3-2.4,5.9c-1.6,1.6-3.7,2.4-6.1,2.4c-2.5,0-4.5-0.8-6.1-2.4
			c-1.6-1.6-2.4-3.6-2.4-5.9s0.8-4.3,2.4-5.9c1.6-1.6,3.7-2.4,6.1-2.4c2.4,0,4.5,0.8,6.1,2.4C231.8,143.2,232.6,145.1,232.6,147.5z
			 M220,147.5c0,1.3,0.4,2.4,1.1,3.2s1.7,1.2,2.9,1.2s2.1-0.4,2.9-1.2s1.1-1.9,1.1-3.2c0-1.3-0.4-2.4-1.1-3.2
			c-0.8-0.8-1.7-1.3-2.9-1.3s-2.1,0.4-2.9,1.3C220.4,145.1,220,146.2,220,147.5z"/>
		<path class="st3" d="M253.2,139.1c1.9,0,3.6,0.8,5,2.4c1.5,1.6,2.2,3.5,2.2,5.9s-0.7,4.4-2.2,6c-1.5,1.6-3.2,2.4-5.2,2.4
			s-3.6-0.8-4.8-2.4v8h-4.5v-22h4.5v1.8C249.7,139.8,251.3,139.1,253.2,139.1z M248.3,147.5c0,1.3,0.4,2.4,1.1,3.2
			c0.7,0.8,1.6,1.2,2.7,1.2s2-0.4,2.7-1.2c0.8-0.8,1.2-1.9,1.2-3.2c0-1.3-0.4-2.4-1.1-3.3c-0.8-0.9-1.7-1.3-2.7-1.3
			c-1.1,0-2,0.4-2.7,1.3C248.6,145.1,248.3,146.2,248.3,147.5z"/>
		<path class="st3" d="M277.5,155.5h-4.2v-2c-1.2,1.5-2.6,2.2-4.3,2.2s-3.1-0.5-4.3-1.5c-1.2-1-1.7-2.3-1.7-4s0.6-2.9,1.8-3.7
			c1.2-0.8,2.8-1.2,4.9-1.2h3.4v-0.1c0-1.7-0.9-2.6-2.7-2.6c-0.8,0-1.6,0.2-2.5,0.5c-0.9,0.3-1.6,0.7-2.2,1.2l-2-2.9
			c2.1-1.5,4.5-2.3,7.3-2.3c2,0,3.6,0.5,4.8,1.5c1.2,1,1.9,2.5,1.9,4.7V155.5z M273,149.4v-0.8h-2.8c-1.8,0-2.7,0.6-2.7,1.7
			c0,0.6,0.2,1,0.6,1.3c0.4,0.3,1,0.5,1.8,0.5s1.5-0.2,2.1-0.7C272.7,150.9,273,150.2,273,149.4z"/>
		<path class="st3" d="M290.1,143.4c-1.3,0-2.3,0.5-3,1.4c-0.7,1-1,2.2-1,3.8v7h-4.5v-16.1h4.5v2.1c0.6-0.7,1.3-1.2,2.2-1.7
			c0.9-0.5,1.8-0.7,2.7-0.7l0,4.2H290.1z"/>
		<path class="st3" d="M307.5,155.5h-4.2v-2c-1.2,1.5-2.6,2.2-4.3,2.2s-3.1-0.5-4.3-1.5c-1.2-1-1.7-2.3-1.7-4s0.6-2.9,1.8-3.7
			c1.2-0.8,2.8-1.2,4.9-1.2h3.4v-0.1c0-1.7-0.9-2.6-2.7-2.6c-0.8,0-1.6,0.2-2.5,0.5c-0.9,0.3-1.6,0.7-2.2,1.2l-2-2.9
			c2.1-1.5,4.5-2.3,7.3-2.3c2,0,3.6,0.5,4.8,1.5c1.2,1,1.9,2.5,1.9,4.7V155.5z M303,149.4v-0.8h-2.8c-1.8,0-2.7,0.6-2.7,1.7
			c0,0.6,0.2,1,0.6,1.3c0.4,0.3,1,0.5,1.8,0.5s1.5-0.2,2.1-0.7C302.7,150.9,303,150.2,303,149.4z"/>
		<path class="st3" d="M333.5,153.2c-1.8,1.7-4,2.6-6.4,2.6c-2.5,0-4.5-0.8-6.1-2.3c-1.6-1.5-2.4-3.5-2.4-6.1s0.8-4.6,2.4-6.1
			s3.6-2.2,5.8-2.2c2.2,0,4.1,0.7,5.7,2c1.5,1.3,2.3,3.2,2.3,5.5v2.4h-11.8c0.1,0.9,0.6,1.6,1.4,2.2c0.8,0.6,1.7,0.8,2.6,0.8
			c1.6,0,2.9-0.5,3.9-1.6L333.5,153.2z M329.2,143.6c-0.6-0.5-1.4-0.8-2.3-0.8c-0.9,0-1.7,0.3-2.4,0.8c-0.7,0.5-1.2,1.3-1.3,2.2h7.1
			C330.2,144.9,329.8,144.2,329.2,143.6z"/>
		<path class="st3" d="M342.2,155.5l-6.4-16.2h4.7l4,10.2l4-10.2h4.7l-6.4,16.2H342.2z"/>
		<path class="st3" d="M355.8,137.3c-0.5-0.5-0.8-1.1-0.8-1.9c0-0.7,0.3-1.4,0.8-1.9c0.5-0.5,1.1-0.8,1.9-0.8c0.7,0,1.4,0.3,1.9,0.8
			c0.5,0.5,0.8,1.1,0.8,1.9c0,0.7-0.3,1.4-0.8,1.9c-0.5,0.5-1.1,0.8-1.9,0.8C356.9,138.1,356.3,137.9,355.8,137.3z M359.9,155.5
			h-4.5v-16.1h4.5V155.5z"/>
		<path class="st3" d="M369.6,142.6v7.2c0,0.6,0.2,1.1,0.5,1.5c0.3,0.3,0.7,0.5,1.1,0.5c0.8,0,1.5-0.4,2.1-1.1l1.7,3.2
			c-1.4,1.3-2.9,1.9-4.4,1.9s-2.9-0.5-3.9-1.5c-1.1-1-1.6-2.4-1.6-4.2v-7.4h-1.9v-3.2h1.9v-4.8h4.5v4.8h3.9v3.2H369.6z"/>
		<path class="st3" d="M391.1,155.5h-4.2v-2c-1.2,1.5-2.6,2.2-4.3,2.2c-1.7,0-3.1-0.5-4.3-1.5c-1.2-1-1.7-2.3-1.7-4s0.6-2.9,1.8-3.7
			c1.2-0.8,2.8-1.2,4.9-1.2h3.4v-0.1c0-1.7-0.9-2.6-2.7-2.6c-0.8,0-1.6,0.2-2.5,0.5c-0.9,0.3-1.6,0.7-2.2,1.2l-2-2.9
			c2.1-1.5,4.5-2.3,7.3-2.3c2,0,3.6,0.5,4.8,1.5c1.2,1,1.9,2.5,1.9,4.7V155.5z M386.6,149.4v-0.8h-2.8c-1.8,0-2.7,0.6-2.7,1.7
			c0,0.6,0.2,1,0.6,1.3c0.4,0.3,1,0.5,1.8,0.5s1.5-0.2,2.1-0.7C386.3,150.9,386.6,150.2,386.6,149.4z"/>
		<path class="st3" d="M403.7,143.4c-1.3,0-2.3,0.5-3,1.4c-0.7,1-1,2.2-1,3.8v7h-4.5v-16.1h4.5v2.1c0.6-0.7,1.3-1.2,2.2-1.7
			c0.9-0.5,1.8-0.7,2.7-0.7l0,4.2H403.7z"/>
		<path class="st3" d="M420,155.5h-4.5v-22.3h4.5V155.5z"/>
		<path class="st3" d="M437.9,155.5h-4.2v-2c-1.2,1.5-2.6,2.2-4.3,2.2s-3.1-0.5-4.3-1.5s-1.7-2.3-1.7-4s0.6-2.9,1.8-3.7
			c1.2-0.8,2.8-1.2,4.9-1.2h3.4v-0.1c0-1.7-0.9-2.6-2.7-2.6c-0.8,0-1.6,0.2-2.5,0.5c-0.9,0.3-1.6,0.7-2.2,1.2l-2-2.9
			c2.1-1.5,4.5-2.3,7.3-2.3c2,0,3.6,0.5,4.8,1.5c1.2,1,1.9,2.5,1.9,4.7V155.5z M433.4,149.4v-0.8h-2.8c-1.8,0-2.7,0.6-2.7,1.7
			c0,0.6,0.2,1,0.6,1.3c0.4,0.3,1,0.5,1.8,0.5s1.5-0.2,2.1-0.7C433.1,150.9,433.4,150.2,433.4,149.4z"/>
		<path class="st3" d="M455.3,142.6v7.2c0,0.6,0.2,1.1,0.5,1.5c0.3,0.3,0.7,0.5,1.1,0.5c0.8,0,1.5-0.4,2.1-1.1l1.7,3.2
			c-1.4,1.3-2.9,1.9-4.4,1.9s-2.9-0.5-3.9-1.5c-1.1-1-1.6-2.4-1.6-4.2v-7.4h-1.9v-3.2h1.9v-4.8h4.5v4.8h3.9v3.2H455.3z"/>
		<path class="st3" d="M471.7,143.4c-1.3,0-2.3,0.5-3,1.4c-0.7,1-1,2.2-1,3.8v7h-4.5v-16.1h4.5v2.1c0.6-0.7,1.3-1.2,2.2-1.7
			c0.9-0.5,1.8-0.7,2.7-0.7l0,4.2H471.7z"/>
		<path class="st3" d="M489.1,155.5h-4.2v-2c-1.2,1.5-2.6,2.2-4.3,2.2s-3.1-0.5-4.3-1.5s-1.7-2.3-1.7-4s0.6-2.9,1.8-3.7
			c1.2-0.8,2.8-1.2,4.9-1.2h3.4v-0.1c0-1.7-0.9-2.6-2.7-2.6c-0.8,0-1.6,0.2-2.5,0.5c-0.9,0.3-1.6,0.7-2.2,1.2l-2-2.9
			c2.1-1.5,4.5-2.3,7.3-2.3c2,0,3.6,0.5,4.8,1.5c1.2,1,1.9,2.5,1.9,4.7V155.5z M484.5,149.4v-0.8h-2.8c-1.8,0-2.7,0.6-2.7,1.7
			c0,0.6,0.2,1,0.6,1.3c0.4,0.3,1,0.5,1.8,0.5s1.5-0.2,2.1-0.7C484.2,150.9,484.5,150.2,484.5,149.4z"/>
		<path class="st3" d="M497.7,146.5v9h-4.5v-16.1h4.5v1.8c1.4-1.4,2.9-2.1,4.6-2.1s3.1,0.6,4.3,1.8c1.1,1.2,1.7,2.8,1.7,4.8v9.8
			h-4.5v-9.1c0-2.5-0.9-3.7-2.7-3.7c-0.9,0-1.7,0.3-2.4,1C498,144.3,497.7,145.3,497.7,146.5z"/>
		<path class="st3" d="M524.5,150.5c0,1.6-0.6,2.9-1.8,3.8s-2.7,1.4-4.5,1.4c-1.2,0-2.5-0.2-3.8-0.6s-2.5-1.1-3.5-1.9l2-2.8
			c1.7,1.3,3.5,2,5.4,2c0.6,0,1-0.1,1.4-0.3c0.3-0.2,0.5-0.5,0.5-0.9c0-0.4-0.2-0.7-0.7-1c-0.5-0.3-1.2-0.6-2-0.9s-1.6-0.5-2-0.7
			c-0.5-0.2-1-0.5-1.6-0.9c-1.2-0.8-1.8-1.9-1.8-3.4c0-1.5,0.6-2.7,1.8-3.6c1.2-0.9,2.8-1.4,4.6-1.4c1.9,0,3.8,0.6,5.7,1.9l-1.7,3
			c-1.4-1-2.8-1.4-4.2-1.4c-1.4,0-2.1,0.4-2.1,1.1c0,0.4,0.2,0.8,0.7,1c0.4,0.2,1.2,0.5,2.2,0.8c1,0.3,1.7,0.6,2.2,0.7
			c0.4,0.2,0.9,0.4,1.5,0.8C523.9,147.8,524.5,148.9,524.5,150.5z"/>
		<path class="st3" d="M542.8,146.8v8.7h-4.5v-8.8c0-1.3-0.2-2.2-0.6-2.8c-0.4-0.6-1-0.9-1.9-0.9c-0.9,0-1.6,0.3-2.3,1
			c-0.7,0.7-1,1.6-1,2.9v8.7h-4.5v-16.1h4.5v1.8c1.2-1.4,2.7-2.1,4.3-2.1c1,0,1.9,0.3,2.8,0.9c0.8,0.6,1.5,1.3,1.9,2.2
			c0.6-1,1.5-1.7,2.5-2.3s2.1-0.8,3.2-0.8c1.9,0,3.4,0.6,4.6,1.7s1.7,2.8,1.7,4.9v9.8h-4.5v-8.8c0-2.5-0.9-3.7-2.7-3.7
			c-0.9,0-1.7,0.3-2.3,1C543.1,144.6,542.8,145.6,542.8,146.8z"/>
		<path class="st3" d="M557.8,137.3c-0.5-0.5-0.8-1.1-0.8-1.9c0-0.7,0.3-1.4,0.8-1.9c0.5-0.5,1.1-0.8,1.9-0.8s1.4,0.3,1.9,0.8
			c0.5,0.5,0.8,1.1,0.8,1.9c0,0.7-0.3,1.4-0.8,1.9c-0.5,0.5-1.1,0.8-1.9,0.8S558.3,137.9,557.8,137.3z M561.9,155.5h-4.5v-16.1h4.5
			V155.5z"/>
		<path class="st3" d="M578.3,150.5c0,1.6-0.6,2.9-1.8,3.8s-2.7,1.4-4.5,1.4c-1.2,0-2.5-0.2-3.8-0.6c-1.3-0.4-2.5-1.1-3.5-1.9l2-2.8
			c1.7,1.3,3.5,2,5.4,2c0.6,0,1-0.1,1.4-0.3c0.3-0.2,0.5-0.5,0.5-0.9c0-0.4-0.2-0.7-0.7-1c-0.5-0.3-1.2-0.6-2-0.9s-1.6-0.5-2-0.7
			c-0.5-0.2-1-0.5-1.6-0.9c-1.2-0.8-1.8-1.9-1.8-3.4c0-1.5,0.6-2.7,1.8-3.6c1.2-0.9,2.8-1.4,4.7-1.4c1.9,0,3.8,0.6,5.7,1.9l-1.7,3
			c-1.4-1-2.8-1.4-4.2-1.4c-1.4,0-2.1,0.4-2.1,1.1c0,0.4,0.2,0.8,0.7,1c0.4,0.2,1.2,0.5,2.2,0.8c1,0.3,1.7,0.6,2.2,0.7
			s0.9,0.4,1.5,0.8C577.8,147.8,578.3,148.9,578.3,150.5z"/>
		<path class="st3" d="M582.2,137.3c-0.5-0.5-0.8-1.1-0.8-1.9c0-0.7,0.3-1.4,0.8-1.9c0.5-0.5,1.1-0.8,1.9-0.8s1.4,0.3,1.9,0.8
			c0.5,0.5,0.8,1.1,0.8,1.9c0,0.7-0.3,1.4-0.8,1.9c-0.5,0.5-1.1,0.8-1.9,0.8S582.7,137.9,582.2,137.3z M586.3,155.5h-4.5v-16.1h4.5
			V155.5z"/>
		<path class="st3" d="M606.7,147.5c0,2.3-0.8,4.3-2.4,5.9c-1.6,1.6-3.7,2.4-6.1,2.4c-2.5,0-4.5-0.8-6.1-2.4
			c-1.6-1.6-2.4-3.6-2.4-5.9s0.8-4.3,2.4-5.9c1.6-1.6,3.7-2.4,6.1-2.4c2.4,0,4.5,0.8,6.1,2.4C605.9,143.2,606.7,145.1,606.7,147.5z
			 M594.1,147.5c0,1.3,0.4,2.4,1.1,3.2s1.7,1.2,2.9,1.2s2.1-0.4,2.9-1.2s1.1-1.9,1.1-3.2c0-1.3-0.4-2.4-1.1-3.2
			c-0.8-0.8-1.7-1.3-2.9-1.3s-2.1,0.4-2.9,1.3C594.5,145.1,594.1,146.2,594.1,147.5z M599.8,137.2h-4.3l3.8-5.3l4.6,1.9L599.8,137.2
			z"/>
		<path class="st3" d="M614.5,146.5v9H610v-16.1h4.5v1.8c1.4-1.4,2.9-2.1,4.6-2.1s3.1,0.6,4.3,1.8c1.1,1.2,1.7,2.8,1.7,4.8v9.8h-4.5
			v-9.1c0-2.5-0.9-3.7-2.7-3.7c-0.9,0-1.7,0.3-2.4,1C614.8,144.3,614.5,145.3,614.5,146.5z"/>
		<path class="st3" d="M650.8,155.5h-4.2v-2c-1.2,1.5-2.6,2.2-4.3,2.2s-3.1-0.5-4.3-1.5s-1.7-2.3-1.7-4s0.6-2.9,1.8-3.7
			c1.2-0.8,2.8-1.2,4.9-1.2h3.4v-0.1c0-1.7-0.9-2.6-2.7-2.6c-0.8,0-1.6,0.2-2.5,0.5c-0.9,0.3-1.6,0.7-2.2,1.2l-2-2.9
			c2.1-1.5,4.5-2.3,7.3-2.3c2,0,3.6,0.5,4.8,1.5c1.2,1,1.9,2.5,1.9,4.7V155.5z M646.3,149.4v-0.8h-2.8c-1.8,0-2.7,0.6-2.7,1.7
			c0,0.6,0.2,1,0.6,1.3c0.4,0.3,1,0.5,1.8,0.5c0.8,0,1.5-0.2,2.1-0.7C645.9,150.9,646.3,150.2,646.3,149.4z"/>
		<path class="st3" d="M659.4,155.5h-4.5v-22.3h4.5V155.5z"/>
		<path class="st3" d="M680.9,139.1c2,0,3.7,0.8,5.1,2.3c1.5,1.5,2.2,3.5,2.2,5.9c0,2.4-0.8,4.4-2.2,6c-1.5,1.6-3.2,2.4-5.1,2.4
			s-3.5-0.8-4.8-2.4v2.1h-4.5v-22.3h4.5v7.9C677.3,139.8,678.9,139.1,680.9,139.1z M676,147.5c0,1.3,0.4,2.4,1.1,3.2
			c0.7,0.8,1.6,1.2,2.7,1.2c1,0,1.9-0.4,2.7-1.2s1.2-1.9,1.2-3.2c0-1.3-0.4-2.4-1.1-3.3c-0.8-0.9-1.7-1.3-2.7-1.3
			c-1.1,0-2,0.4-2.7,1.3C676.4,145.1,676,146.2,676,147.5z"/>
		<path class="st3" d="M705.5,153.2c-1.8,1.7-4,2.6-6.4,2.6c-2.5,0-4.5-0.8-6.1-2.3c-1.6-1.5-2.4-3.5-2.4-6.1s0.8-4.6,2.4-6.1
			s3.6-2.2,5.8-2.2s4.1,0.7,5.7,2c1.5,1.3,2.3,3.2,2.3,5.5v2.4h-11.8c0.1,0.9,0.6,1.6,1.4,2.2c0.8,0.6,1.7,0.8,2.6,0.8
			c1.6,0,2.9-0.5,3.9-1.6L705.5,153.2z M701.2,143.6c-0.6-0.5-1.4-0.8-2.3-0.8c-0.9,0-1.7,0.3-2.4,0.8c-0.7,0.5-1.2,1.3-1.3,2.2h7.1
			C702.2,144.9,701.8,144.2,701.2,143.6z"/>
		<path class="st3" d="M719.4,139.1c2,0,3.7,0.8,5.1,2.3c1.5,1.5,2.2,3.5,2.2,5.9c0,2.4-0.8,4.4-2.2,6c-1.5,1.6-3.2,2.4-5.1,2.4
			s-3.5-0.8-4.8-2.4v2.1h-4.5v-22.3h4.5v7.9C715.8,139.8,717.4,139.1,719.4,139.1z M714.5,147.5c0,1.3,0.4,2.4,1.1,3.2
			c0.7,0.8,1.6,1.2,2.7,1.2c1,0,1.9-0.4,2.7-1.2s1.2-1.9,1.2-3.2c0-1.3-0.4-2.4-1.1-3.3c-0.8-0.9-1.7-1.3-2.7-1.3
			c-1.1,0-2,0.4-2.7,1.3C714.9,145.1,714.5,146.2,714.5,147.5z"/>
		<path class="st3" d="M748.6,151.9c0.5,0,1-0.4,1.4-1.3c0.4-0.9,0.6-1.9,0.6-3.2c0-2.8-0.8-5.2-2.4-7c-1.6-1.8-3.8-2.8-6.5-2.8
			c-2.7,0-5,1-6.9,2.9c-1.9,1.9-2.8,4.3-2.8,7s0.9,5,2.6,6.8c1.8,1.8,3.9,2.7,6.5,2.7c2,0,3.8-0.7,5.3-2.2l1.2,2.1
			c-0.8,0.7-1.8,1.3-3.1,1.7c-1.2,0.4-2.4,0.6-3.5,0.6c-3.3,0-6.1-1.1-8.4-3.3c-2.2-2.2-3.4-5-3.4-8.4c0-3.3,1.2-6.2,3.6-8.6
			s5.2-3.6,8.6-3.6s6.1,1.1,8.4,3.4s3.4,5.1,3.4,8.5c0,2.2-0.5,4-1.4,5.3c-0.9,1.3-2.1,2-3.6,2c-0.8,0-1.5-0.2-2.1-0.7
			s-1.1-1-1.3-1.7c-1.1,1.4-2.5,2.1-4.2,2.1s-3.2-0.6-4.4-1.9c-1.3-1.3-1.9-2.9-1.9-4.9s0.6-3.6,1.7-5c1.1-1.3,2.6-2,4.5-2
			c0.6,0,1.2,0.1,1.8,0.4c0.6,0.3,1,0.5,1.2,0.8l0.4,0.4v-1.2h3.8v9.6C747.7,151.4,748,151.9,748.6,151.9z M744,147.4
			c0-1-0.3-1.8-0.8-2.5c-0.5-0.7-1.2-1-2.1-1c-0.9,0-1.5,0.3-2.1,1s-0.8,1.5-0.8,2.4c0,1,0.3,1.8,0.8,2.5s1.2,1.1,2.1,1.1
			s1.6-0.3,2.1-1C743.7,149.2,744,148.4,744,147.4z"/>
		<path class="st3" d="M757.1,155c-0.5-0.5-0.8-1.1-0.8-1.9c0-0.7,0.3-1.4,0.8-1.9c0.5-0.5,1.1-0.8,1.9-0.8c0.7,0,1.4,0.3,1.9,0.8
			c0.5,0.5,0.8,1.1,0.8,1.9c0,0.7-0.3,1.4-0.8,1.9c-0.5,0.5-1.1,0.8-1.9,0.8C758.2,155.8,757.6,155.5,757.1,155z"/>
	</g>
	<g class="st2">
		<path class="st3" d="M129.4,169.6v4.2h-10.4v4.3h9.4v4h-9.4v4.4h10.8v4.1h-15.4v-21H129.4z"/>
		<path class="st3" d="M145.4,185.5c0,1.6-0.6,2.9-1.8,3.8s-2.7,1.4-4.5,1.4c-1.2,0-2.5-0.2-3.8-0.6c-1.3-0.4-2.5-1.1-3.5-1.9l2-2.8
			c1.7,1.3,3.5,2,5.4,2c0.6,0,1-0.1,1.4-0.3c0.3-0.2,0.5-0.5,0.5-0.9c0-0.4-0.2-0.7-0.7-1c-0.5-0.3-1.2-0.6-2-0.9
			c-0.9-0.3-1.6-0.5-2-0.7c-0.5-0.2-1-0.5-1.6-0.9c-1.2-0.8-1.8-1.9-1.8-3.4c0-1.5,0.6-2.7,1.8-3.6c1.2-0.9,2.8-1.4,4.6-1.4
			s3.8,0.6,5.7,1.9l-1.7,3c-1.4-1-2.8-1.4-4.2-1.4c-1.4,0-2.1,0.4-2.1,1.1c0,0.4,0.2,0.8,0.7,1s1.2,0.5,2.2,0.8
			c1,0.3,1.7,0.6,2.2,0.7c0.4,0.2,0.9,0.4,1.5,0.8C144.8,182.8,145.4,183.9,145.4,185.5z"/>
		<path class="st3" d="M165.3,178.4c-1.3,0-2.3,0.5-3,1.4c-0.7,1-1,2.2-1,3.8v7h-4.5v-16.1h4.5v2.1c0.6-0.7,1.3-1.2,2.2-1.7
			c0.9-0.5,1.8-0.7,2.7-0.7l0,4.2H165.3z"/>
		<path class="st3" d="M183.1,188.2c-1.8,1.7-4,2.6-6.4,2.6c-2.5,0-4.5-0.8-6.1-2.3c-1.6-1.5-2.4-3.5-2.4-6.1s0.8-4.6,2.4-6.1
			s3.6-2.2,5.8-2.2c2.2,0,4.1,0.7,5.7,2c1.5,1.3,2.3,3.2,2.3,5.5v2.4h-11.8c0.1,0.9,0.6,1.6,1.4,2.2c0.8,0.6,1.7,0.8,2.6,0.8
			c1.6,0,2.9-0.5,3.9-1.6L183.1,188.2z M178.8,178.6c-0.6-0.5-1.4-0.8-2.3-0.8c-0.9,0-1.7,0.3-2.4,0.8c-0.7,0.5-1.2,1.3-1.3,2.2h7.1
			C179.7,179.9,179.4,179.2,178.8,178.6z"/>
		<path class="st3" d="M195.4,186.8c1.5,0,2.9-0.8,4-2.2l2.7,3c-2.1,2.2-4.3,3.2-6.8,3.2s-4.5-0.8-6.1-2.3c-1.7-1.5-2.5-3.5-2.5-6
			s0.8-4.5,2.5-6s3.7-2.3,6-2.3c1.2,0,2.3,0.2,3.5,0.7c1.2,0.5,2.2,1.2,3.1,2.1l-2.3,3.1c-0.5-0.6-1.2-1.1-1.9-1.4
			c-0.8-0.3-1.5-0.5-2.2-0.5c-1.2,0-2.2,0.4-3,1.2c-0.9,0.8-1.3,1.8-1.3,3.2s0.4,2.4,1.3,3.2S194.2,186.8,195.4,186.8z"/>
		<path class="st3" d="M221,182.5c0,2.3-0.8,4.3-2.4,5.9c-1.6,1.6-3.7,2.4-6.1,2.4c-2.5,0-4.5-0.8-6.1-2.4c-1.6-1.6-2.4-3.6-2.4-5.9
			s0.8-4.3,2.4-5.9c1.6-1.6,3.7-2.4,6.1-2.4c2.4,0,4.5,0.8,6.1,2.4C220.2,178.2,221,180.1,221,182.5z M208.4,182.5
			c0,1.3,0.4,2.4,1.1,3.2s1.7,1.2,2.9,1.2s2.1-0.4,2.9-1.2s1.1-1.9,1.1-3.2c0-1.3-0.4-2.4-1.1-3.2c-0.8-0.8-1.7-1.3-2.9-1.3
			s-2.1,0.4-2.9,1.3C208.8,180.1,208.4,181.2,208.4,182.5z"/>
		<path class="st3" d="M239.1,181.8v8.7h-4.5v-8.8c0-1.3-0.2-2.2-0.6-2.8c-0.4-0.6-1-0.9-1.9-0.9c-0.9,0-1.6,0.3-2.3,1
			c-0.7,0.7-1,1.6-1,2.9v8.7h-4.5v-16.1h4.5v1.8c1.2-1.4,2.7-2.1,4.3-2.1c1,0,1.9,0.3,2.8,0.9c0.8,0.6,1.5,1.3,1.9,2.2
			c0.6-1,1.5-1.7,2.5-2.3c1.1-0.5,2.1-0.8,3.2-0.8c1.9,0,3.4,0.6,4.6,1.7c1.2,1.1,1.7,2.8,1.7,4.9v9.8h-4.5v-8.8
			c0-2.5-0.9-3.7-2.7-3.7c-0.9,0-1.7,0.3-2.3,1C239.4,179.6,239.1,180.6,239.1,181.8z"/>
		<path class="st3" d="M267.8,188.2c-1.8,1.7-4,2.6-6.4,2.6c-2.5,0-4.5-0.8-6.1-2.3c-1.6-1.5-2.4-3.5-2.4-6.1s0.8-4.6,2.4-6.1
			s3.6-2.2,5.8-2.2c2.2,0,4.1,0.7,5.7,2c1.5,1.3,2.3,3.2,2.3,5.5v2.4h-11.8c0.1,0.9,0.6,1.6,1.4,2.2c0.8,0.6,1.7,0.8,2.6,0.8
			c1.6,0,2.9-0.5,3.9-1.6L267.8,188.2z M263.4,178.6c-0.6-0.5-1.4-0.8-2.3-0.8c-0.9,0-1.7,0.3-2.4,0.8c-0.7,0.5-1.2,1.3-1.3,2.2h7.1
			C264.4,179.9,264.1,179.2,263.4,178.6z"/>
		<path class="st3" d="M276.8,181.5v9h-4.5v-16.1h4.5v1.8c1.4-1.4,2.9-2.1,4.6-2.1c1.7,0,3.1,0.6,4.3,1.8c1.1,1.2,1.7,2.8,1.7,4.8
			v9.8h-4.5v-9.1c0-2.5-0.9-3.7-2.7-3.7c-0.9,0-1.7,0.3-2.4,1C277.2,179.3,276.8,180.3,276.8,181.5z"/>
		<path class="st3" d="M298,190.8c-1.9,0-3.6-0.8-5.1-2.4c-1.5-1.6-2.2-3.6-2.2-6c0-2.4,0.7-4.4,2.2-5.9c1.5-1.5,3.2-2.3,5.1-2.3
			s3.6,0.7,4.8,2.1v-7.9h4.5v22.3h-4.5v-2.1C301.5,190,299.9,190.8,298,190.8z M295.1,182.5c0,1.3,0.4,2.4,1.2,3.2
			c0.8,0.8,1.7,1.2,2.7,1.2c1,0,1.9-0.4,2.7-1.2c0.7-0.8,1.1-1.9,1.1-3.2s-0.4-2.4-1.1-3.3c-0.7-0.9-1.6-1.3-2.7-1.3s-2,0.4-2.7,1.3
			C295.5,180.1,295.1,181.2,295.1,182.5z"/>
		<path class="st3" d="M325.2,190.5H321v-2c-1.2,1.5-2.6,2.2-4.3,2.2s-3.1-0.5-4.3-1.5c-1.2-1-1.7-2.3-1.7-4s0.6-2.9,1.8-3.7
			c1.2-0.8,2.8-1.2,4.9-1.2h3.4v-0.1c0-1.7-0.9-2.6-2.7-2.6c-0.8,0-1.6,0.2-2.5,0.5c-0.9,0.3-1.6,0.7-2.2,1.2l-2-2.9
			c2.1-1.5,4.5-2.3,7.3-2.3c2,0,3.6,0.5,4.8,1.5c1.2,1,1.9,2.5,1.9,4.7V190.5z M320.7,184.4v-0.8h-2.8c-1.8,0-2.7,0.6-2.7,1.7
			c0,0.6,0.2,1,0.6,1.3c0.4,0.3,1,0.5,1.8,0.5s1.5-0.2,2.1-0.7C320.4,185.9,320.7,185.2,320.7,184.4z"/>
		<path class="st3" d="M338.6,174.1c2,0,3.7,0.8,5.1,2.3c1.5,1.5,2.2,3.5,2.2,5.9c0,2.4-0.8,4.4-2.2,6c-1.5,1.6-3.2,2.4-5.1,2.4
			s-3.5-0.8-4.8-2.4v2.1h-4.5v-22.3h4.5v7.9C335,174.8,336.6,174.1,338.6,174.1z M333.7,182.5c0,1.3,0.4,2.4,1.1,3.2
			c0.7,0.8,1.6,1.2,2.7,1.2s2-0.4,2.7-1.2c0.8-0.8,1.2-1.9,1.2-3.2c0-1.3-0.4-2.4-1.1-3.3c-0.8-0.9-1.7-1.3-2.7-1.3
			c-1.1,0-2,0.4-2.7,1.3C334.1,180.1,333.7,181.2,333.7,182.5z"/>
		<path class="st3" d="M353.8,190.5h-4.5v-22.3h4.5V190.5z"/>
		<path class="st3" d="M372,188.2c-1.8,1.7-4,2.6-6.4,2.6c-2.5,0-4.5-0.8-6.1-2.3c-1.6-1.5-2.4-3.5-2.4-6.1s0.8-4.6,2.4-6.1
			s3.6-2.2,5.8-2.2c2.2,0,4.1,0.7,5.7,2c1.5,1.3,2.3,3.2,2.3,5.5v2.4h-11.8c0.1,0.9,0.6,1.6,1.4,2.2c0.8,0.6,1.7,0.8,2.6,0.8
			c1.6,0,2.9-0.5,3.9-1.6L372,188.2z M367.7,178.6c-0.6-0.5-1.4-0.8-2.3-0.8c-0.9,0-1.7,0.3-2.4,0.8c-0.7,0.5-1.2,1.3-1.3,2.2h7.1
			C368.7,179.9,368.3,179.2,367.7,178.6z"/>
		<path class="st3" d="M385.9,188.5c-1.5-1.5-2.3-3.5-2.3-6c0-2.4,0.8-4.4,2.2-6s3.2-2.4,5-2.4s3.5,0.7,4.8,2.1v-1.8h4.5v22h-4.5
			v-7.1c-1.3,1-2.7,1.5-4.4,1.5C389.2,190.8,387.4,190,385.9,188.5z M388.1,182.5c0,1.3,0.4,2.4,1.2,3.2c0.8,0.8,1.7,1.2,2.7,1.2
			s1.9-0.4,2.6-1.2c0.7-0.8,1.1-1.9,1.1-3.2s-0.4-2.4-1.1-3.3c-0.7-0.9-1.6-1.3-2.7-1.3c-1.1,0-2,0.4-2.7,1.3
			C388.5,180.1,388.1,181.2,388.1,182.5z"/>
		<path class="st3" d="M414.9,183.1v-8.7h4.5v16.1h-4.5v-2.1c-1.1,1.6-2.6,2.4-4.3,2.4c-1.8,0-3.3-0.6-4.5-1.7
			c-1.2-1.1-1.8-2.8-1.8-4.9v-9.8h4.5v8.8c0,2.5,0.9,3.7,2.7,3.7c0.9,0,1.7-0.3,2.3-1C414.6,185.3,414.9,184.3,414.9,183.1z"/>
		<path class="st3" d="M437.7,188.2c-1.8,1.7-4,2.6-6.4,2.6s-4.5-0.8-6.1-2.3c-1.6-1.5-2.4-3.5-2.4-6.1s0.8-4.6,2.4-6.1
			s3.6-2.2,5.8-2.2s4.1,0.7,5.7,2c1.5,1.3,2.3,3.2,2.3,5.5v2.4h-11.8c0.1,0.9,0.6,1.6,1.4,2.2c0.8,0.6,1.7,0.8,2.6,0.8
			c1.6,0,2.9-0.5,3.9-1.6L437.7,188.2z M433.3,178.6c-0.6-0.5-1.4-0.8-2.3-0.8c-0.9,0-1.7,0.3-2.4,0.8s-1.2,1.3-1.3,2.2h7.1
			C434.3,179.9,434,179.2,433.3,178.6z"/>
		<path class="st3" d="M454.6,181.5v9h-4.5v-16.1h4.5v1.8c1.4-1.4,2.9-2.1,4.6-2.1s3.1,0.6,4.3,1.8c1.1,1.2,1.7,2.8,1.7,4.8v9.8
			h-4.5v-9.1c0-2.5-0.9-3.7-2.7-3.7c-0.9,0-1.7,0.3-2.4,1C455,179.3,454.6,180.3,454.6,181.5z"/>
		<path class="st3" d="M485.4,182.5c0,2.3-0.8,4.3-2.4,5.9c-1.6,1.6-3.7,2.4-6.1,2.4s-4.5-0.8-6.1-2.4c-1.6-1.6-2.4-3.6-2.4-5.9
			s0.8-4.3,2.4-5.9c1.6-1.6,3.7-2.4,6.1-2.4s4.5,0.8,6.1,2.4C484.6,178.2,485.4,180.1,485.4,182.5z M472.9,182.5
			c0,1.3,0.4,2.4,1.1,3.2s1.7,1.2,2.9,1.2s2.1-0.4,2.9-1.2s1.1-1.9,1.1-3.2c0-1.3-0.4-2.4-1.1-3.2c-0.8-0.8-1.7-1.3-2.9-1.3
			s-2.1,0.4-2.9,1.3C473.3,180.1,472.9,181.2,472.9,182.5z"/>
		<path class="st3" d="M510.4,190.5h-4.2v-2c-1.2,1.5-2.6,2.2-4.3,2.2s-3.1-0.5-4.3-1.5s-1.7-2.3-1.7-4s0.6-2.9,1.8-3.7
			c1.2-0.8,2.8-1.2,4.9-1.2h3.4v-0.1c0-1.7-0.9-2.6-2.7-2.6c-0.8,0-1.6,0.2-2.5,0.5c-0.9,0.3-1.6,0.7-2.2,1.2l-2-2.9
			c2.1-1.5,4.5-2.3,7.3-2.3c2,0,3.6,0.5,4.8,1.5c1.2,1,1.9,2.5,1.9,4.7V190.5z M505.9,184.4v-0.8h-2.8c-1.8,0-2.7,0.6-2.7,1.7
			c0,0.6,0.2,1,0.6,1.3c0.4,0.3,1,0.5,1.8,0.5s1.5-0.2,2.1-0.7C505.6,185.9,505.9,185.2,505.9,184.4z"/>
		<path class="st3" d="M529.3,181.8v8.7h-4.5v-8.8c0-1.3-0.2-2.2-0.6-2.8c-0.4-0.6-1-0.9-1.9-0.9c-0.9,0-1.6,0.3-2.3,1
			c-0.7,0.7-1,1.6-1,2.9v8.7h-4.5v-16.1h4.5v1.8c1.2-1.4,2.7-2.1,4.3-2.1c1,0,1.9,0.3,2.8,0.9c0.8,0.6,1.5,1.3,1.9,2.2
			c0.6-1,1.5-1.7,2.5-2.3s2.1-0.8,3.2-0.8c1.9,0,3.4,0.6,4.6,1.7c1.2,1.1,1.7,2.8,1.7,4.9v9.8h-4.5v-8.8c0-2.5-0.9-3.7-2.7-3.7
			c-0.9,0-1.7,0.3-2.3,1C529.7,179.6,529.3,180.6,529.3,181.8z"/>
		<path class="st3" d="M557.7,190.5h-4.2v-2c-1.2,1.5-2.6,2.2-4.3,2.2s-3.1-0.5-4.3-1.5s-1.7-2.3-1.7-4s0.6-2.9,1.8-3.7
			c1.2-0.8,2.8-1.2,4.9-1.2h3.4v-0.1c0-1.7-0.9-2.6-2.7-2.6c-0.8,0-1.6,0.2-2.5,0.5c-0.9,0.3-1.6,0.7-2.2,1.2l-2-2.9
			c2.1-1.5,4.5-2.3,7.3-2.3c2,0,3.6,0.5,4.8,1.5c1.2,1,1.9,2.5,1.9,4.7V190.5z M553.2,184.4v-0.8h-2.8c-1.8,0-2.7,0.6-2.7,1.7
			c0,0.6,0.2,1,0.6,1.3c0.4,0.3,1,0.5,1.8,0.5s1.5-0.2,2.1-0.7C552.9,185.9,553.2,185.2,553.2,184.4z"/>
		<path class="st3" d="M576.6,181.8v8.7h-4.5v-8.8c0-1.3-0.2-2.2-0.6-2.8c-0.4-0.6-1-0.9-1.9-0.9c-0.9,0-1.6,0.3-2.3,1
			c-0.7,0.7-1,1.6-1,2.9v8.7h-4.5v-16.1h4.5v1.8c1.2-1.4,2.7-2.1,4.3-2.1c1,0,1.9,0.3,2.8,0.9c0.8,0.6,1.5,1.3,1.9,2.2
			c0.6-1,1.5-1.7,2.5-2.3s2.1-0.8,3.2-0.8c1.9,0,3.4,0.6,4.6,1.7c1.2,1.1,1.7,2.8,1.7,4.9v9.8h-4.5v-8.8c0-2.5-0.9-3.7-2.7-3.7
			c-0.9,0-1.7,0.3-2.3,1C577,179.6,576.6,180.6,576.6,181.8z"/>
		<path class="st3" d="M605,190.5h-4.2v-2c-1.2,1.5-2.6,2.2-4.3,2.2s-3.1-0.5-4.3-1.5s-1.7-2.3-1.7-4s0.6-2.9,1.8-3.7
			c1.2-0.8,2.8-1.2,4.9-1.2h3.4v-0.1c0-1.7-0.9-2.6-2.7-2.6c-0.8,0-1.6,0.2-2.5,0.5c-0.9,0.3-1.6,0.7-2.2,1.2l-2-2.9
			c2.1-1.5,4.5-2.3,7.3-2.3c2,0,3.6,0.5,4.8,1.5c1.2,1,1.9,2.5,1.9,4.7V190.5z M600.5,184.4v-0.8h-2.8c-1.8,0-2.7,0.6-2.7,1.7
			c0,0.6,0.2,1,0.6,1.3c0.4,0.3,1,0.5,1.8,0.5s1.5-0.2,2.1-0.7C600.2,185.9,600.5,185.2,600.5,184.4z"/>
		<path class="st3" d="M613.6,181.5v9h-4.5v-16.1h4.5v1.8c1.4-1.4,2.9-2.1,4.6-2.1s3.1,0.6,4.3,1.8c1.1,1.2,1.7,2.8,1.7,4.8v9.8
			h-4.5v-9.1c0-2.5-0.9-3.7-2.7-3.7c-0.9,0-1.7,0.3-2.4,1C614,179.3,613.6,180.3,613.6,181.5z"/>
		<path class="st3" d="M633.4,177.6v7.2c0,0.6,0.2,1.1,0.5,1.5s0.7,0.5,1.1,0.5c0.8,0,1.5-0.4,2.1-1.1l1.7,3.2
			c-1.4,1.3-2.9,1.9-4.4,1.9s-2.9-0.5-3.9-1.5c-1.1-1-1.6-2.4-1.6-4.2v-7.4H627v-3.2h1.9v-4.8h4.5v4.8h3.9v3.2H633.4z"/>
		<path class="st3" d="M655.2,188.2c-1.8,1.7-4,2.6-6.4,2.6s-4.5-0.8-6.1-2.3c-1.6-1.5-2.4-3.5-2.4-6.1s0.8-4.6,2.4-6.1
			s3.6-2.2,5.8-2.2s4.1,0.7,5.7,2c1.5,1.3,2.3,3.2,2.3,5.5v2.4h-11.8c0.1,0.9,0.6,1.6,1.4,2.2c0.8,0.6,1.7,0.8,2.6,0.8
			c1.6,0,2.9-0.5,3.9-1.6L655.2,188.2z M650.9,178.6c-0.6-0.5-1.4-0.8-2.3-0.8c-0.9,0-1.7,0.3-2.4,0.8s-1.2,1.3-1.3,2.2h7.1
			C651.9,179.9,651.5,179.2,650.9,178.6z"/>
	</g>
	<g class="st2">
		<path class="st3" d="M184.4,209.1c1.9,0,3.6,0.8,5,2.4c1.5,1.6,2.2,3.5,2.2,5.9s-0.7,4.4-2.2,6c-1.5,1.6-3.2,2.4-5.2,2.4
			s-3.6-0.8-4.8-2.4v8H175v-22h4.5v1.8C180.9,209.8,182.5,209.1,184.4,209.1z M179.4,217.5c0,1.3,0.4,2.4,1.1,3.2
			c0.7,0.8,1.6,1.2,2.7,1.2s2-0.4,2.7-1.2c0.8-0.8,1.2-1.9,1.2-3.2c0-1.3-0.4-2.4-1.1-3.3c-0.8-0.9-1.7-1.3-2.7-1.3
			c-1.1,0-2,0.4-2.7,1.3C179.8,215.1,179.4,216.2,179.4,217.5z"/>
		<path class="st3" d="M211.1,217.5c0,2.3-0.8,4.3-2.4,5.9c-1.6,1.6-3.7,2.4-6.1,2.4c-2.5,0-4.5-0.8-6.1-2.4
			c-1.6-1.6-2.4-3.6-2.4-5.9s0.8-4.3,2.4-5.9c1.6-1.6,3.7-2.4,6.1-2.4c2.4,0,4.5,0.8,6.1,2.4C210.3,213.2,211.1,215.1,211.1,217.5z
			 M198.6,217.5c0,1.3,0.4,2.4,1.1,3.2s1.7,1.2,2.9,1.2s2.1-0.4,2.9-1.2s1.1-1.9,1.1-3.2c0-1.3-0.4-2.4-1.1-3.2
			c-0.8-0.8-1.7-1.3-2.9-1.3s-2.1,0.4-2.9,1.3C198.9,215.1,198.6,216.2,198.6,217.5z"/>
		<path class="st3" d="M222.9,213.4c-1.3,0-2.3,0.5-3,1.4c-0.7,1-1,2.2-1,3.8v7h-4.5v-16.1h4.5v2.1c0.6-0.7,1.3-1.2,2.2-1.7
			c0.9-0.5,1.8-0.7,2.7-0.7l0,4.2H222.9z"/>
		<path class="st3" d="M228,223.5c-1.5-1.5-2.3-3.5-2.3-6c0-2.4,0.8-4.4,2.2-6s3.2-2.4,5-2.4c1.8,0,3.4,0.7,4.8,2.1v-1.8h4.5v22
			h-4.5v-7.1c-1.3,1-2.7,1.5-4.4,1.5C231.3,225.8,229.5,225,228,223.5z M230.2,217.5c0,1.3,0.4,2.4,1.2,3.2c0.8,0.8,1.7,1.2,2.7,1.2
			c1,0,1.9-0.4,2.6-1.2c0.7-0.8,1.1-1.9,1.1-3.2s-0.4-2.4-1.1-3.3c-0.7-0.9-1.6-1.3-2.7-1.3s-2,0.4-2.7,1.3
			C230.6,215.1,230.2,216.2,230.2,217.5z"/>
		<path class="st3" d="M256.9,218.1v-8.7h4.5v16.1h-4.5v-2.1c-1.1,1.6-2.6,2.4-4.3,2.4s-3.3-0.6-4.5-1.7c-1.2-1.1-1.8-2.8-1.8-4.9
			v-9.8h4.5v8.8c0,2.5,0.9,3.7,2.7,3.7c0.9,0,1.7-0.3,2.3-1C256.6,220.3,256.9,219.3,256.9,218.1z"/>
		<path class="st3" d="M279.7,223.2c-1.8,1.7-4,2.6-6.4,2.6c-2.5,0-4.5-0.8-6.1-2.3c-1.6-1.5-2.4-3.5-2.4-6.1s0.8-4.6,2.4-6.1
			s3.6-2.2,5.8-2.2c2.2,0,4.1,0.7,5.7,2c1.5,1.3,2.3,3.2,2.3,5.5v2.4h-11.8c0.1,0.9,0.6,1.6,1.4,2.2c0.8,0.6,1.7,0.8,2.6,0.8
			c1.6,0,2.9-0.5,3.9-1.6L279.7,223.2z M275.4,213.6c-0.6-0.5-1.4-0.8-2.3-0.8c-0.9,0-1.7,0.3-2.4,0.8c-0.7,0.5-1.2,1.3-1.3,2.2h7.1
			C276.4,214.9,276,214.2,275.4,213.6z"/>
		<path class="st3" d="M306.2,223.2c-1.8,1.7-4,2.6-6.4,2.6c-2.5,0-4.5-0.8-6.1-2.3c-1.6-1.5-2.4-3.5-2.4-6.1s0.8-4.6,2.4-6.1
			s3.6-2.2,5.8-2.2c2.2,0,4.1,0.7,5.7,2c1.5,1.3,2.3,3.2,2.3,5.5v2.4h-11.8c0.1,0.9,0.6,1.6,1.4,2.2c0.8,0.6,1.7,0.8,2.6,0.8
			c1.6,0,2.9-0.5,3.9-1.6L306.2,223.2z M301.8,213.6c-0.6-0.5-1.4-0.8-2.3-0.8c-0.9,0-1.7,0.3-2.4,0.8c-0.7,0.5-1.2,1.3-1.3,2.2h7.1
			C302.8,214.9,302.5,214.2,301.8,213.6z"/>
		<path class="st3" d="M315.2,225.5h-4.5v-22.3h4.5V225.5z"/>
		<path class="st3" d="M331.8,225.5l-6.4-16.2h4.7l4,10.2l4-10.2h4.7l-6.4,16.2H331.8z"/>
		<path class="st3" d="M345.4,207.3c-0.5-0.5-0.8-1.1-0.8-1.9c0-0.7,0.3-1.4,0.8-1.9c0.5-0.5,1.1-0.8,1.9-0.8c0.7,0,1.4,0.3,1.9,0.8
			c0.5,0.5,0.8,1.1,0.8,1.9c0,0.7-0.3,1.4-0.8,1.9c-0.5,0.5-1.1,0.8-1.9,0.8C346.5,208.1,345.9,207.9,345.4,207.3z M349.5,225.5H345
			v-16.1h4.5V225.5z"/>
		<path class="st3" d="M362.2,213.4c-1.3,0-2.3,0.5-3,1.4c-0.7,1-1,2.2-1,3.8v7h-4.5v-16.1h4.5v2.1c0.6-0.7,1.3-1.2,2.2-1.7
			c0.9-0.5,1.8-0.7,2.7-0.7l0,4.2H362.2z"/>
		<path class="st3" d="M376.5,218.1v-8.7h4.5v16.1h-4.5v-2.1c-1.1,1.6-2.6,2.4-4.3,2.4s-3.3-0.6-4.5-1.7c-1.2-1.1-1.8-2.8-1.8-4.9
			v-9.8h4.5v8.8c0,2.5,0.9,3.7,2.7,3.7c0.9,0,1.7-0.3,2.3-1C376.2,220.3,376.5,219.3,376.5,218.1z"/>
		<path class="st3" d="M397.4,220.5c0,1.6-0.6,2.9-1.8,3.8s-2.7,1.4-4.5,1.4c-1.2,0-2.4-0.2-3.8-0.6c-1.3-0.4-2.5-1.1-3.5-1.9l2-2.8
			c1.7,1.3,3.5,2,5.4,2c0.6,0,1-0.1,1.4-0.3c0.3-0.2,0.5-0.5,0.5-0.9c0-0.4-0.2-0.7-0.7-1c-0.5-0.3-1.2-0.6-2-0.9
			c-0.9-0.3-1.6-0.5-2-0.7c-0.5-0.2-1-0.5-1.6-0.9c-1.2-0.8-1.8-1.9-1.8-3.4c0-1.5,0.6-2.7,1.8-3.6c1.2-0.9,2.8-1.4,4.7-1.4
			c1.9,0,3.8,0.6,5.7,1.9l-1.7,3c-1.4-1-2.8-1.4-4.2-1.4c-1.4,0-2.1,0.4-2.1,1.1c0,0.4,0.2,0.8,0.7,1c0.4,0.2,1.2,0.5,2.2,0.8
			c1,0.3,1.7,0.6,2.2,0.7c0.4,0.2,0.9,0.4,1.5,0.8C396.9,217.8,397.4,218.9,397.4,220.5z"/>
		<path class="st3" d="M420.9,220.5c0,1.6-0.6,2.9-1.8,3.8s-2.7,1.4-4.5,1.4c-1.2,0-2.4-0.2-3.8-0.6c-1.3-0.4-2.5-1.1-3.5-1.9l2-2.8
			c1.7,1.3,3.5,2,5.4,2c0.6,0,1-0.1,1.4-0.3c0.3-0.2,0.5-0.5,0.5-0.9c0-0.4-0.2-0.7-0.7-1c-0.5-0.3-1.2-0.6-2-0.9
			c-0.9-0.3-1.6-0.5-2-0.7c-0.5-0.2-1-0.5-1.6-0.9c-1.2-0.8-1.8-1.9-1.8-3.4c0-1.5,0.6-2.7,1.8-3.6c1.2-0.9,2.8-1.4,4.7-1.4
			c1.9,0,3.8,0.6,5.7,1.9l-1.7,3c-1.4-1-2.8-1.4-4.2-1.4c-1.4,0-2.1,0.4-2.1,1.1c0,0.4,0.2,0.8,0.7,1c0.4,0.2,1.2,0.5,2.2,0.8
			c1,0.3,1.7,0.6,2.2,0.7c0.4,0.2,0.9,0.4,1.5,0.8C420.4,217.8,420.9,218.9,420.9,220.5z"/>
		<path class="st3" d="M438.4,223.2c-1.8,1.7-4,2.6-6.4,2.6s-4.5-0.8-6.1-2.3c-1.6-1.5-2.4-3.5-2.4-6.1s0.8-4.6,2.4-6.1
			s3.6-2.2,5.8-2.2c2.2,0,4.1,0.7,5.7,2c1.6,1.3,2.3,3.2,2.3,5.5v2.4h-11.8c0.1,0.9,0.6,1.6,1.4,2.2c0.8,0.6,1.7,0.8,2.6,0.8
			c1.6,0,2.9-0.5,3.9-1.6L438.4,223.2z M434.1,213.6c-0.6-0.5-1.4-0.8-2.3-0.8c-0.9,0-1.7,0.3-2.4,0.8c-0.7,0.5-1.2,1.3-1.3,2.2h7.1
			C435,214.9,434.7,214.2,434.1,213.6z"/>
		<path class="st3" d="M456.2,212.6v7.2c0,0.6,0.2,1.1,0.5,1.5c0.3,0.3,0.7,0.5,1.1,0.5c0.8,0,1.5-0.4,2.1-1.1l1.7,3.2
			c-1.4,1.3-2.9,1.9-4.4,1.9s-2.9-0.5-3.9-1.5c-1.1-1-1.6-2.4-1.6-4.2v-7.4h-1.9v-3.2h1.9v-4.8h4.5v4.8h3.9v3.2H456.2z"/>
		<path class="st3" d="M472.5,213.4c-1.3,0-2.3,0.5-3,1.4c-0.7,1-1,2.2-1,3.8v7h-4.5v-16.1h4.5v2.1c0.6-0.7,1.3-1.2,2.2-1.7
			c0.9-0.5,1.8-0.7,2.7-0.7l0,4.2H472.5z"/>
		<path class="st3" d="M489.9,225.5h-4.2v-2c-1.2,1.5-2.6,2.2-4.3,2.2s-3.1-0.5-4.3-1.5s-1.7-2.3-1.7-4s0.6-2.9,1.8-3.7
			c1.2-0.8,2.8-1.2,4.9-1.2h3.4v-0.1c0-1.7-0.9-2.6-2.7-2.6c-0.8,0-1.6,0.2-2.5,0.5c-0.9,0.3-1.6,0.7-2.2,1.2l-2-2.9
			c2.1-1.5,4.5-2.3,7.3-2.3c2,0,3.6,0.5,4.8,1.5c1.2,1,1.9,2.5,1.9,4.7V225.5z M485.4,219.4v-0.8h-2.8c-1.8,0-2.7,0.6-2.7,1.7
			c0,0.6,0.2,1,0.6,1.3c0.4,0.3,1,0.5,1.8,0.5s1.5-0.2,2.1-0.7S485.4,220.2,485.4,219.4z"/>
		<path class="st3" d="M498.6,216.5v9h-4.5v-16.1h4.5v1.8c1.4-1.4,2.9-2.1,4.6-2.1c1.7,0,3.1,0.6,4.3,1.8c1.1,1.2,1.7,2.8,1.7,4.8
			v9.8h-4.5v-9.1c0-2.5-0.9-3.7-2.7-3.7c-0.9,0-1.7,0.3-2.4,1C498.9,214.3,498.6,215.3,498.6,216.5z"/>
		<path class="st3" d="M525.4,220.5c0,1.6-0.6,2.9-1.8,3.8s-2.7,1.4-4.5,1.4c-1.2,0-2.5-0.2-3.8-0.6c-1.3-0.4-2.5-1.1-3.5-1.9l2-2.8
			c1.7,1.3,3.5,2,5.4,2c0.6,0,1-0.1,1.4-0.3c0.3-0.2,0.5-0.5,0.5-0.9c0-0.4-0.2-0.7-0.7-1c-0.5-0.3-1.2-0.6-2-0.9
			c-0.9-0.3-1.6-0.5-2-0.7c-0.5-0.2-1-0.5-1.6-0.9c-1.2-0.8-1.8-1.9-1.8-3.4c0-1.5,0.6-2.7,1.8-3.6c1.2-0.9,2.8-1.4,4.6-1.4
			c1.9,0,3.8,0.6,5.7,1.9l-1.7,3c-1.4-1-2.8-1.4-4.2-1.4c-1.4,0-2.1,0.4-2.1,1.1c0,0.4,0.2,0.8,0.7,1c0.4,0.2,1.2,0.5,2.2,0.8
			c1,0.3,1.7,0.6,2.2,0.7s0.9,0.4,1.5,0.8C524.8,217.8,525.4,218.9,525.4,220.5z"/>
		<path class="st3" d="M543.6,216.8v8.7h-4.5v-8.8c0-1.3-0.2-2.2-0.6-2.8c-0.4-0.6-1-0.9-1.9-0.9c-0.9,0-1.6,0.3-2.3,1
			c-0.7,0.7-1,1.6-1,2.9v8.7h-4.5v-16.1h4.5v1.8c1.2-1.4,2.7-2.1,4.3-2.1c1,0,1.9,0.3,2.8,0.9c0.8,0.6,1.5,1.3,1.9,2.2
			c0.6-1,1.5-1.7,2.5-2.3c1.1-0.5,2.1-0.8,3.2-0.8c1.9,0,3.4,0.6,4.6,1.7c1.2,1.1,1.7,2.8,1.7,4.9v9.8h-4.5v-8.8
			c0-2.5-0.9-3.7-2.7-3.7c-0.9,0-1.7,0.3-2.3,1C544,214.6,543.6,215.6,543.6,216.8z"/>
		<path class="st3" d="M558.7,207.3c-0.5-0.5-0.8-1.1-0.8-1.9c0-0.7,0.3-1.4,0.8-1.9c0.5-0.5,1.1-0.8,1.9-0.8s1.4,0.3,1.9,0.8
			c0.5,0.5,0.8,1.1,0.8,1.9c0,0.7-0.3,1.4-0.8,1.9c-0.5,0.5-1.1,0.8-1.9,0.8S559.2,207.9,558.7,207.3z M562.8,225.5h-4.5v-16.1h4.5
			V225.5z"/>
		<path class="st3" d="M572.4,212.6v7.2c0,0.6,0.2,1.1,0.5,1.5c0.3,0.3,0.7,0.5,1.1,0.5c0.8,0,1.6-0.4,2.1-1.1l1.7,3.2
			c-1.4,1.3-2.9,1.9-4.4,1.9c-1.5,0-2.9-0.5-3.9-1.5c-1.1-1-1.6-2.4-1.6-4.2v-7.4H566v-3.2h1.9v-4.8h4.5v4.8h3.9v3.2H572.4z"/>
		<path class="st3" d="M594.3,223.2c-1.8,1.7-4,2.6-6.4,2.6c-2.5,0-4.5-0.8-6.1-2.3c-1.6-1.5-2.4-3.5-2.4-6.1s0.8-4.6,2.4-6.1
			s3.6-2.2,5.8-2.2s4.1,0.7,5.7,2c1.5,1.3,2.3,3.2,2.3,5.5v2.4h-11.8c0.1,0.9,0.6,1.6,1.4,2.2c0.8,0.6,1.7,0.8,2.6,0.8
			c1.6,0,2.9-0.5,3.9-1.6L594.3,223.2z M589.9,213.6c-0.6-0.5-1.4-0.8-2.3-0.8c-0.9,0-1.7,0.3-2.4,0.8s-1.2,1.3-1.3,2.2h7.1
			C590.9,214.9,590.6,214.2,589.9,213.6z"/>
	</g>
	<g class="st2">
		<path class="st3" d="M235.7,244.1c1.9,0,3.6,0.8,5,2.4c1.5,1.6,2.2,3.5,2.2,5.9s-0.7,4.4-2.2,6c-1.5,1.6-3.2,2.4-5.2,2.4
			s-3.6-0.8-4.8-2.4v8h-4.5v-22h4.5v1.8C232.2,244.8,233.8,244.1,235.7,244.1z M230.7,252.5c0,1.3,0.4,2.4,1.1,3.2
			c0.7,0.8,1.6,1.2,2.7,1.2s2-0.4,2.7-1.2c0.8-0.8,1.2-1.9,1.2-3.2c0-1.3-0.4-2.4-1.1-3.3c-0.8-0.9-1.7-1.3-2.7-1.3
			c-1.1,0-2,0.4-2.7,1.3C231.1,250.1,230.7,251.2,230.7,252.5z"/>
		<path class="st3" d="M262.4,252.5c0,2.3-0.8,4.3-2.4,5.9c-1.6,1.6-3.7,2.4-6.1,2.4c-2.5,0-4.5-0.8-6.1-2.4
			c-1.6-1.6-2.4-3.6-2.4-5.9s0.8-4.3,2.4-5.9c1.6-1.6,3.7-2.4,6.1-2.4c2.4,0,4.5,0.8,6.1,2.4C261.6,248.2,262.4,250.1,262.4,252.5z
			 M249.9,252.5c0,1.3,0.4,2.4,1.1,3.2s1.7,1.2,2.9,1.2s2.1-0.4,2.9-1.2s1.1-1.9,1.1-3.2c0-1.3-0.4-2.4-1.1-3.2
			c-0.8-0.8-1.7-1.3-2.9-1.3s-2.1,0.4-2.9,1.3C250.2,250.1,249.9,251.2,249.9,252.5z"/>
		<path class="st3" d="M274.2,248.4c-1.3,0-2.3,0.5-3,1.4c-0.7,1-1,2.2-1,3.8v7h-4.5v-16.1h4.5v2.1c0.6-0.7,1.3-1.2,2.2-1.7
			c0.9-0.5,1.8-0.7,2.7-0.7l0,4.2H274.2z"/>
		<path class="st3" d="M290.5,260.5H286v-22.3h4.5V260.5z"/>
		<path class="st3" d="M308.4,260.5h-4.2v-2c-1.2,1.5-2.6,2.2-4.3,2.2s-3.1-0.5-4.3-1.5c-1.2-1-1.7-2.3-1.7-4s0.6-2.9,1.8-3.7
			c1.2-0.8,2.8-1.2,4.9-1.2h3.4v-0.1c0-1.7-0.9-2.6-2.7-2.6c-0.8,0-1.6,0.2-2.5,0.5c-0.9,0.3-1.6,0.7-2.2,1.2l-2-2.9
			c2.1-1.5,4.5-2.3,7.3-2.3c2,0,3.6,0.5,4.8,1.5c1.2,1,1.9,2.5,1.9,4.7V260.5z M303.9,254.4v-0.8h-2.8c-1.8,0-2.7,0.6-2.7,1.7
			c0,0.6,0.2,1,0.6,1.3c0.4,0.3,1,0.5,1.8,0.5s1.5-0.2,2.1-0.7C303.6,255.9,303.9,255.2,303.9,254.4z"/>
		<path class="st3" d="M325,260.5h-4.5v-22.3h4.5V260.5z"/>
		<path class="st3" d="M343.2,258.2c-1.8,1.7-4,2.6-6.4,2.6c-2.5,0-4.5-0.8-6.1-2.3c-1.6-1.5-2.4-3.5-2.4-6.1s0.8-4.6,2.4-6.1
			s3.6-2.2,5.8-2.2c2.2,0,4.1,0.7,5.7,2c1.5,1.3,2.3,3.2,2.3,5.5v2.4h-11.8c0.1,0.9,0.6,1.6,1.4,2.2c0.8,0.6,1.7,0.8,2.6,0.8
			c1.6,0,2.9-0.5,3.9-1.6L343.2,258.2z M338.9,248.6c-0.6-0.5-1.4-0.8-2.3-0.8c-0.9,0-1.7,0.3-2.4,0.8c-0.7,0.5-1.2,1.3-1.3,2.2h7.1
			C339.9,249.9,339.5,249.2,338.9,248.6z"/>
		<path class="st3" d="M355.5,256.8c1.5,0,2.9-0.8,4-2.2l2.7,3c-2.1,2.2-4.3,3.2-6.8,3.2s-4.5-0.8-6.1-2.3c-1.7-1.5-2.5-3.5-2.5-6
			s0.8-4.5,2.5-6s3.7-2.3,6-2.3c1.2,0,2.3,0.2,3.5,0.7c1.2,0.5,2.2,1.2,3.1,2.1l-2.3,3.1c-0.5-0.6-1.2-1.1-1.9-1.4
			c-0.8-0.3-1.5-0.5-2.2-0.5c-1.2,0-2.2,0.4-3,1.2c-0.9,0.8-1.3,1.8-1.3,3.2s0.4,2.4,1.3,3.2S354.4,256.8,355.5,256.8z"/>
		<path class="st3" d="M369.7,251.8v8.7h-4.5v-22.3h4.5v7.9c1.4-1.4,2.9-2.1,4.6-2.1c1.7,0,3.1,0.6,4.3,1.8c1.2,1.2,1.7,2.8,1.7,4.8
			v9.8h-4.5v-8.8c0-2.5-0.9-3.7-2.7-3.7c-0.9,0-1.7,0.3-2.4,1C370.1,249.6,369.7,250.6,369.7,251.8z"/>
		<path class="st3" d="M398.4,258.2c-1.8,1.7-4,2.6-6.4,2.6c-2.5,0-4.5-0.8-6.1-2.3c-1.6-1.5-2.4-3.5-2.4-6.1s0.8-4.6,2.4-6.1
			s3.6-2.2,5.8-2.2c2.2,0,4.1,0.7,5.7,2c1.5,1.3,2.3,3.2,2.3,5.5v2.4h-11.8c0.1,0.9,0.6,1.6,1.4,2.2c0.8,0.6,1.7,0.8,2.6,0.8
			c1.6,0,2.9-0.5,3.9-1.6L398.4,258.2z M394.1,248.6c-0.6-0.5-1.4-0.8-2.3-0.8s-1.7,0.3-2.4,0.8c-0.7,0.5-1.2,1.3-1.3,2.2h7.1
			C395,249.9,394.7,249.2,394.1,248.6z"/>
		<path class="st3" d="M425.7,251.8v8.7h-4.5v-8.8c0-1.3-0.2-2.2-0.6-2.8c-0.4-0.6-1-0.9-1.9-0.9c-0.9,0-1.6,0.3-2.3,1
			c-0.7,0.7-1,1.6-1,2.9v8.7h-4.5v-16.1h4.5v1.8c1.2-1.4,2.7-2.1,4.3-2.1c1,0,1.9,0.3,2.8,0.9c0.8,0.6,1.5,1.3,1.9,2.2
			c0.6-1,1.5-1.7,2.5-2.3s2.1-0.8,3.2-0.8c1.9,0,3.4,0.6,4.6,1.7c1.2,1.1,1.7,2.8,1.7,4.9v9.8h-4.5v-8.8c0-2.5-0.9-3.7-2.7-3.7
			c-0.9,0-1.7,0.3-2.3,1C426,249.6,425.7,250.6,425.7,251.8z"/>
		<path class="st3" d="M454.1,260.5h-4.2v-2c-1.2,1.5-2.6,2.2-4.3,2.2s-3.1-0.5-4.3-1.5c-1.2-1-1.7-2.3-1.7-4s0.6-2.9,1.8-3.7
			c1.2-0.8,2.8-1.2,4.9-1.2h3.4v-0.1c0-1.7-0.9-2.6-2.7-2.6c-0.8,0-1.6,0.2-2.5,0.5c-0.9,0.3-1.6,0.7-2.2,1.2l-2-2.9
			c2.1-1.5,4.5-2.3,7.3-2.3c2,0,3.6,0.5,4.8,1.5c1.2,1,1.9,2.5,1.9,4.7V260.5z M449.5,254.4v-0.8h-2.8c-1.8,0-2.7,0.6-2.7,1.7
			c0,0.6,0.2,1,0.6,1.3c0.4,0.3,1,0.5,1.8,0.5s1.5-0.2,2.1-0.7S449.5,255.2,449.5,254.4z"/>
		<path class="st3" d="M463.4,247.6v7.2c0,0.6,0.2,1.1,0.5,1.5c0.3,0.3,0.7,0.5,1.1,0.5c0.8,0,1.5-0.4,2.1-1.1l1.7,3.2
			c-1.4,1.3-2.9,1.9-4.4,1.9s-2.9-0.5-3.9-1.5c-1.1-1-1.6-2.4-1.6-4.2v-7.4h-1.9v-3.2h1.9v-4.8h4.5v4.8h3.9v3.2H463.4z"/>
		<path class="st3" d="M485.2,258.2c-1.8,1.7-4,2.6-6.4,2.6c-2.5,0-4.5-0.8-6.1-2.3c-1.6-1.5-2.4-3.5-2.4-6.1s0.8-4.6,2.4-6.1
			s3.6-2.2,5.8-2.2c2.2,0,4.1,0.7,5.7,2c1.5,1.3,2.3,3.2,2.3,5.5v2.4h-11.8c0.1,0.9,0.6,1.6,1.4,2.2c0.8,0.6,1.7,0.8,2.6,0.8
			c1.6,0,2.9-0.5,3.9-1.6L485.2,258.2z M480.9,248.6c-0.6-0.5-1.4-0.8-2.3-0.8s-1.7,0.3-2.4,0.8c-0.7,0.5-1.2,1.3-1.3,2.2h7.1
			C481.8,249.9,481.5,249.2,480.9,248.6z"/>
		<path class="st3" d="M498.2,248.4c-1.3,0-2.3,0.5-3,1.4c-0.7,1-1,2.2-1,3.8v7h-4.5v-16.1h4.5v2.1c0.6-0.7,1.3-1.2,2.2-1.7
			c0.9-0.5,1.8-0.7,2.7-0.7l0,4.2H498.2z"/>
		<path class="st3" d="M506.6,251.5v9h-4.5v-16.1h4.5v1.8c1.4-1.4,2.9-2.1,4.6-2.1c1.7,0,3.1,0.6,4.3,1.8c1.2,1.2,1.7,2.8,1.7,4.8
			v9.8h-4.5v-9.1c0-2.5-0.9-3.7-2.7-3.7c-0.9,0-1.7,0.3-2.4,1C506.9,249.3,506.6,250.3,506.6,251.5z"/>
		<path class="st3" d="M534.9,260.5h-4.2v-2c-1.2,1.5-2.6,2.2-4.3,2.2s-3.1-0.5-4.3-1.5s-1.7-2.3-1.7-4s0.6-2.9,1.8-3.7
			c1.2-0.8,2.8-1.2,4.9-1.2h3.4v-0.1c0-1.7-0.9-2.6-2.7-2.6c-0.8,0-1.6,0.2-2.5,0.5c-0.9,0.3-1.6,0.7-2.2,1.2l-2-2.9
			c2.1-1.5,4.5-2.3,7.3-2.3c2,0,3.6,0.5,4.8,1.5c1.2,1,1.9,2.5,1.9,4.7V260.5z M530.4,254.4v-0.8h-2.8c-1.8,0-2.7,0.6-2.7,1.7
			c0,0.6,0.2,1,0.6,1.3c0.4,0.3,1,0.5,1.8,0.5s1.5-0.2,2.1-0.7C530.1,255.9,530.4,255.2,530.4,254.4z"/>
		<path class="st3" d="M539.4,260c-0.5-0.5-0.8-1.1-0.8-1.9c0-0.7,0.3-1.4,0.8-1.9c0.5-0.5,1.1-0.8,1.9-0.8c0.7,0,1.4,0.3,1.9,0.8
			c0.5,0.5,0.8,1.1,0.8,1.9c0,0.7-0.3,1.4-0.8,1.9c-0.5,0.5-1.1,0.8-1.9,0.8C540.5,260.8,539.9,260.5,539.4,260z"/>
	</g>
</g>
</svg>
