<?xml version="1.0" encoding="utf-8"?>
<!-- Generator: Adobe Illustrator 25.4.1, SVG Export Plug-In . SVG Version: 6.00 Build 0)  -->
<svg version="1.1" id="Capa_1" xmlns="http://www.w3.org/2000/svg" xmlns:xlink="http://www.w3.org/1999/xlink" x="0px" y="0px"
	 viewBox="0 0 673.4 202.2" style="enable-background:new 0 0 673.4 202.2;" xml:space="preserve">
<style type="text/css">
	.st0{opacity:0.7;}
	.st1{opacity:0.7;fill:#DFEB6A;enable-background:new    ;}
	.st2{enable-background:new    ;}
	.st3{fill:#3C246F;}
</style>
<g class="st0">
	<path class="st1" d="M138.9,114c-13.5-5.2-110.9,0.8-118.1-0.7c-5.9-2.1,1.8-39.3,7-44.8c1.8-2,4-2.3,9-1.4
		c8,1.7,110.7-1.9,110.7-1.9c1.4,1.2,5.3-2.7,6.1-1.3c2.5,3.3,169-1.6,183.2-1.8c8.6-0.1,1.9,2.1,12,1.2c21.5-1.8,68.7-0.2,85-2.3
		c13-1.7,15.9-1.8,28.5-0.4c12.9,1.2,81.2-0.7,88.9-3.3c1.9-0.7,3.3-0.5,3.4,0.4c0,0.2,48.2,0.7,48.5,1.3c0.4,0.8,1.9,1.2,3.2,0.6
		c2.5-0.9,53.6-4.1,54.6-1.7c2.8,6.9-3,36.2-8.7,43.3c-5.8,7.6-39.6-0.8-66.3,3.8l-125.3,0.7l-26.7,2.9c-3.2-2.5-14.8,3.8-22.1-0.6
		c-3.1-1.8-24.4-2-29.1-0.1c-4,1.4-113.3-1.9-124.3,3.1C238.3,106.8,157.7,112.9,138.9,114z"/>
	<path class="st1" d="M127,143.6c-12.3-5.3-101,0-107.5-1.6c-5.3-2.1,1.9-39.3,6.7-44.7c1.7-2,3.6-2.2,8.2-1.3
		c7.3,1.7,100.8-1,100.8-1c1.3,1.2,4.9-2.7,5.6-1.3c2.3,3.3,153.9-0.2,166.8-0.4c7.8-0.1,1.7,2.1,10.9,1.3
		c19.6-1.7,62.6,0.3,77.4-1.6c11.9-1.6,14.5-1.6,26-0.2c11.7,1.3,73.9-0.1,81-2.6c1.7-0.7,3.1-0.4,3.1,0.4c0,0.2,43.9,1,44.1,1.7
		c0.4,0.8,1.7,1.2,2.9,0.7c2.3-0.8,48.9-3.7,49.7-1.3c2.5,6.9-3,36.1-8.2,43.2c-5.3,7.6-36.1-1.2-60.4,3.3L420,137.8l-24.4,2.7
		c-2.9-2.5-13.5,3.7-20.1-0.8c-2.8-1.8-22.2-2.2-26.5-0.3c-3.7,1.4-103.2-2.8-113.2,2.1C217.6,137.2,144.1,142.7,127,143.6z"/>
	<path class="st1" d="M137.1,81.3c-11.9-5.2-94.9,1-101.1-0.5c-5.1-2.1-0.5-39.3,3.6-44.8c1.5-2,3.3-2.3,7.7-1.4
		c6.9,1.7,94.7-2.1,94.7-2.1c1.3,1.2,4.4-2.8,5.2-1.4c2.3,3.3,144.6-1.9,156.7-2.1c7.4-0.2,1.7,2.1,10.3,1.2
		c18.4-1.9,58.8-0.3,72.7-2.5c11.1-1.8,13.5-1.8,24.4-0.5c11.1,1.2,69.5-0.9,75.9-3.5c1.6-0.7,2.8-0.5,2.9,0.4
		c0,0.2,41.3,0.6,41.6,1.2c0.4,0.8,1.7,1.2,2.8,0.6c2.1-0.9,45.7-4.2,46.6-1.8c2.8,6.9-0.7,36.2-5.2,43.3c-4.5,7.6-34-0.8-56.6,3.9
		l-107.2,1l-22.7,3c-2.8-2.5-12.4,3.8-18.9-0.6c-2.7-1.7-21-1.9-24.9,0c-3.4,1.5-97.1-1.7-106.3,3.3C221.8,74,153,80.3,137.1,81.3z"
		/>
	<path class="st1" d="M148.4,176.2c-11.6-4.8-89.8,3.8-95.9,2.5c-5-1.9-3.5-39.2-0.1-44.9c1.2-2,2.9-2.4,7.2-1.6
		c6.7,1.5,89.6-4.9,89.6-4.9c1.3,1.1,4-2.9,4.8-1.5c2.4,3.2,136.9-6.1,148.3-6.7c7-0.4,1.8,2.1,9.9,0.9c17.2-2.4,55.7-2.1,68.6-4.6
		c10.4-2.1,12.6-2.2,23.1-1.2c10.6,0.8,65.8-2.9,71.7-5.7c1.4-0.8,2.7-0.6,2.8,0.3c0,0.2,39.2-0.6,39.5,0c0.4,0.8,1.7,1.2,2.7,0.6
		c1.9-0.9,43-5.6,44-3.2c3.1,6.8,2.1,36.1-1.5,43.4c-3.7,7.8-32.2,0.2-53.3,5.6l-101.5,4.1l-21.3,3.6c-2.9-2.4-11.5,4.2-18,0
		c-2.7-1.7-20.1-1.3-23.6,0.7c-3.1,1.6-92.2,1.1-100.5,6.4C228,166.4,163.4,174.7,148.4,176.2z"/>
</g>
<g class="st2">
	<path class="st3" d="M39.2,67.3c0.8,1,1.8,1.5,3.1,1.5c1.3,0,2.4-0.5,3.1-1.5c0.8-1,1.2-2.3,1.2-4V51.7h4.7v11.7c0,3-0.8,5.4-2.5,7
		c-1.7,1.6-3.8,2.4-6.5,2.4s-4.8-0.8-6.5-2.5c-1.7-1.6-2.5-4-2.5-7V51.7h4.7v11.6C38.1,65,38.5,66.3,39.2,67.3z"/>
	<path class="st3" d="M67.5,67.6c0,1.6-0.6,2.9-1.8,3.8s-2.7,1.4-4.5,1.4c-1.2,0-2.5-0.2-3.8-0.6c-1.3-0.4-2.5-1.1-3.5-1.9l2-2.8
		c1.7,1.3,3.5,2,5.4,2c0.6,0,1-0.1,1.4-0.3c0.3-0.2,0.5-0.5,0.5-0.9c0-0.4-0.2-0.7-0.7-1c-0.5-0.3-1.2-0.6-2-0.9
		c-0.9-0.3-1.6-0.5-2-0.7c-0.5-0.2-1-0.5-1.6-0.9c-1.2-0.8-1.8-1.9-1.8-3.4c0-1.5,0.6-2.7,1.8-3.6c1.2-0.9,2.8-1.4,4.6-1.4
		s3.8,0.6,5.7,1.9l-1.7,3c-1.4-1-2.8-1.4-4.2-1.4c-1.4,0-2.1,0.4-2.1,1.1c0,0.4,0.2,0.8,0.7,1s1.2,0.5,2.2,0.8
		c1,0.3,1.7,0.6,2.2,0.7c0.4,0.2,0.9,0.4,1.5,0.8C66.9,64.9,67.5,66.1,67.5,67.6z"/>
	<path class="st3" d="M84.6,72.7h-4.2v-2c-1.2,1.5-2.6,2.2-4.3,2.2s-3.1-0.5-4.3-1.5c-1.2-1-1.7-2.3-1.7-4s0.6-2.9,1.8-3.7
		c1.2-0.8,2.8-1.2,4.9-1.2h3.4v-0.1c0-1.7-0.9-2.6-2.7-2.6c-0.8,0-1.6,0.2-2.5,0.5c-0.9,0.3-1.6,0.7-2.2,1.2l-2-2.9
		c2.1-1.5,4.5-2.3,7.3-2.3c2,0,3.6,0.5,4.8,1.5c1.2,1,1.9,2.5,1.9,4.7V72.7z M80.1,66.5v-0.8h-2.8c-1.8,0-2.7,0.6-2.7,1.7
		c0,0.6,0.2,1,0.6,1.3c0.4,0.3,1,0.5,1.8,0.5s1.5-0.2,2.1-0.7C79.8,68,80.1,67.3,80.1,66.5z"/>
	<path class="st3" d="M93.3,63.7v9h-4.5V56.5h4.5v1.8c1.4-1.4,2.9-2.1,4.6-2.1c1.7,0,3.1,0.6,4.3,1.8c1.1,1.2,1.7,2.8,1.7,4.8v9.8
		h-4.5v-9.1c0-2.5-0.9-3.7-2.7-3.7c-0.9,0-1.7,0.3-2.4,1C93.6,61.5,93.3,62.4,93.3,63.7z"/>
	<path class="st3" d="M114.4,72.9c-1.9,0-3.6-0.8-5.1-2.4c-1.5-1.6-2.2-3.6-2.2-6c0-2.4,0.7-4.4,2.2-5.9c1.5-1.5,3.2-2.3,5.1-2.3
		s3.6,0.7,4.8,2.1v-7.9h4.5v22.3h-4.5v-2.1C117.9,72.1,116.3,72.9,114.4,72.9z M111.6,64.6c0,1.3,0.4,2.4,1.2,3.2
		c0.8,0.8,1.7,1.2,2.7,1.2c1,0,1.9-0.4,2.7-1.2c0.7-0.8,1.1-1.9,1.1-3.2s-0.4-2.4-1.1-3.3c-0.7-0.9-1.6-1.3-2.7-1.3s-2,0.4-2.7,1.3
		C111.9,62.2,111.6,63.3,111.6,64.6z"/>
	<path class="st3" d="M144,64.6c0,2.3-0.8,4.3-2.4,5.9c-1.6,1.6-3.7,2.4-6.1,2.4c-2.5,0-4.5-0.8-6.1-2.4c-1.6-1.6-2.4-3.6-2.4-5.9
		s0.8-4.3,2.4-5.9c1.6-1.6,3.7-2.4,6.1-2.4c2.4,0,4.5,0.8,6.1,2.4C143.2,60.3,144,62.3,144,64.6z M131.5,64.6c0,1.3,0.4,2.4,1.1,3.2
		s1.7,1.2,2.9,1.2s2.1-0.4,2.9-1.2s1.1-1.9,1.1-3.2c0-1.3-0.4-2.4-1.1-3.2c-0.8-0.8-1.7-1.3-2.9-1.3s-2.1,0.4-2.9,1.3
		C131.9,62.2,131.5,63.3,131.5,64.6z"/>
	<path class="st3" d="M164.7,56.3c1.9,0,3.6,0.8,5,2.4c1.5,1.6,2.2,3.5,2.2,5.9s-0.7,4.4-2.2,6c-1.5,1.6-3.2,2.4-5.2,2.4
		s-3.6-0.8-4.8-2.4v8h-4.5v-22h4.5v1.8C161.2,57,162.8,56.3,164.7,56.3z M159.7,64.6c0,1.3,0.4,2.4,1.1,3.2c0.7,0.8,1.6,1.2,2.7,1.2
		s2-0.4,2.7-1.2c0.8-0.8,1.2-1.9,1.2-3.2c0-1.3-0.4-2.4-1.1-3.3c-0.8-0.9-1.7-1.3-2.7-1.3c-1.1,0-2,0.4-2.7,1.3
		C160.1,62.2,159.7,63.3,159.7,64.6z"/>
	<path class="st3" d="M183.8,60.5c-1.3,0-2.3,0.5-3,1.4c-0.7,1-1,2.2-1,3.8v7h-4.5V56.5h4.5v2.1c0.6-0.7,1.3-1.2,2.2-1.7
		c0.9-0.5,1.8-0.7,2.7-0.7l0,4.2H183.8z"/>
	<path class="st3" d="M201.6,70.3c-1.8,1.7-4,2.6-6.4,2.6c-2.5,0-4.5-0.8-6.1-2.3c-1.6-1.5-2.4-3.5-2.4-6.1s0.8-4.6,2.4-6.1
		s3.6-2.2,5.8-2.2c2.2,0,4.1,0.7,5.7,2c1.5,1.3,2.3,3.2,2.3,5.5v2.4h-11.8c0.1,0.9,0.6,1.6,1.4,2.2c0.8,0.6,1.7,0.8,2.6,0.8
		c1.6,0,2.9-0.5,3.9-1.6L201.6,70.3z M197.3,60.8c-0.6-0.5-1.4-0.8-2.3-0.8c-0.9,0-1.7,0.3-2.4,0.8c-0.7,0.5-1.2,1.3-1.3,2.2h7.1
		C198.2,62,197.9,61.3,197.3,60.8z"/>
	<path class="st3" d="M218.3,67.6c0,1.6-0.6,2.9-1.8,3.8s-2.7,1.4-4.5,1.4c-1.2,0-2.5-0.2-3.8-0.6c-1.3-0.4-2.5-1.1-3.5-1.9l2-2.8
		c1.7,1.3,3.5,2,5.4,2c0.6,0,1-0.1,1.4-0.3c0.3-0.2,0.5-0.5,0.5-0.9c0-0.4-0.2-0.7-0.7-1c-0.5-0.3-1.2-0.6-2-0.9
		c-0.9-0.3-1.6-0.5-2-0.7c-0.5-0.2-1-0.5-1.6-0.9c-1.2-0.8-1.8-1.9-1.8-3.4c0-1.5,0.6-2.7,1.8-3.6c1.2-0.9,2.8-1.4,4.6-1.4
		s3.8,0.6,5.7,1.9l-1.7,3c-1.4-1-2.8-1.4-4.2-1.4c-1.4,0-2.1,0.4-2.1,1.1c0,0.4,0.2,0.8,0.7,1s1.2,0.5,2.2,0.8
		c1,0.3,1.7,0.6,2.2,0.7c0.4,0.2,0.9,0.4,1.5,0.8C217.7,64.9,218.3,66.1,218.3,67.6z"/>
	<path class="st3" d="M235.7,70.3c-1.8,1.7-4,2.6-6.4,2.6c-2.5,0-4.5-0.8-6.1-2.3c-1.6-1.5-2.4-3.5-2.4-6.1s0.8-4.6,2.4-6.1
		s3.6-2.2,5.8-2.2c2.2,0,4.1,0.7,5.7,2c1.5,1.3,2.3,3.2,2.3,5.5v2.4h-11.8c0.1,0.9,0.6,1.6,1.4,2.2c0.8,0.6,1.7,0.8,2.6,0.8
		c1.6,0,2.9-0.5,3.9-1.6L235.7,70.3z M231.4,60.8c-0.6-0.5-1.4-0.8-2.3-0.8c-0.9,0-1.7,0.3-2.4,0.8c-0.7,0.5-1.2,1.3-1.3,2.2h7.1
		C232.4,62,232,61.3,231.4,60.8z"/>
	<path class="st3" d="M248.8,60.5c-1.3,0-2.3,0.5-3,1.4c-0.7,1-1,2.2-1,3.8v7h-4.5V56.5h4.5v2.1c0.6-0.7,1.3-1.2,2.2-1.7
		c0.9-0.5,1.8-0.7,2.7-0.7l0,4.2H248.8z"/>
	<path class="st3" d="M257,72.7l-6.4-16.2h4.7l4,10.2l4-10.2h4.7l-6.4,16.2H257z"/>
	<path class="st3" d="M283.7,72.7h-4.2v-2c-1.2,1.5-2.6,2.2-4.3,2.2s-3.1-0.5-4.3-1.5c-1.2-1-1.7-2.3-1.7-4s0.6-2.9,1.8-3.7
		c1.2-0.8,2.8-1.2,4.9-1.2h3.4v-0.1c0-1.7-0.9-2.6-2.7-2.6c-0.8,0-1.6,0.2-2.5,0.5c-0.9,0.3-1.6,0.7-2.2,1.2l-2-2.9
		c2.1-1.5,4.5-2.3,7.3-2.3c2,0,3.6,0.5,4.8,1.5c1.2,1,1.9,2.5,1.9,4.7V72.7z M279.2,66.5v-0.8h-2.8c-1.8,0-2.7,0.6-2.7,1.7
		c0,0.6,0.2,1,0.6,1.3c0.4,0.3,1,0.5,1.8,0.5s1.5-0.2,2.1-0.7C278.9,68,279.2,67.3,279.2,66.5z"/>
	<path class="st3" d="M293,59.8V67c0,0.6,0.2,1.1,0.5,1.5c0.3,0.3,0.7,0.5,1.1,0.5c0.8,0,1.5-0.4,2.1-1.1l1.7,3.2
		c-1.4,1.3-2.9,1.9-4.4,1.9s-2.9-0.5-3.9-1.5c-1.1-1-1.6-2.4-1.6-4.2v-7.4h-1.9v-3.2h1.9v-4.8h4.5v4.8h3.9v3.2H293z"/>
	<path class="st3" d="M301.2,54.5c-0.5-0.5-0.8-1.1-0.8-1.9c0-0.7,0.3-1.4,0.8-1.9c0.5-0.5,1.1-0.8,1.9-0.8c0.7,0,1.4,0.3,1.9,0.8
		c0.5,0.5,0.8,1.1,0.8,1.9c0,0.7-0.3,1.4-0.8,1.9c-0.5,0.5-1.1,0.8-1.9,0.8C302.3,55.2,301.7,55,301.2,54.5z M305.3,72.7h-4.5V56.5
		h4.5V72.7z"/>
	<path class="st3" d="M313.9,72.7l-6.4-16.2h4.7l4,10.2l4-10.2h4.7l-6.4,16.2H313.9z"/>
	<path class="st3" d="M342.9,64.6c0,2.3-0.8,4.3-2.4,5.9c-1.6,1.6-3.7,2.4-6.1,2.4c-2.5,0-4.5-0.8-6.1-2.4c-1.6-1.6-2.4-3.6-2.4-5.9
		s0.8-4.3,2.4-5.9c1.6-1.6,3.7-2.4,6.1-2.4c2.4,0,4.5,0.8,6.1,2.4C342.1,60.3,342.9,62.3,342.9,64.6z M330.4,64.6
		c0,1.3,0.4,2.4,1.1,3.2s1.7,1.2,2.9,1.2s2.1-0.4,2.9-1.2c0.7-0.8,1.1-1.9,1.1-3.2c0-1.3-0.4-2.4-1.1-3.2c-0.8-0.8-1.7-1.3-2.9-1.3
		s-2.1,0.4-2.9,1.3C330.8,62.2,330.4,63.3,330.4,64.6z"/>
	<path class="st3" d="M357,79c-1.6,0-3.1-0.6-4.5-1.9l2-3.3c0.8,0.7,1.5,1.1,2.3,1.1c0.4,0,0.8-0.2,1.1-0.6c0.3-0.4,0.4-0.8,0.4-1.3
		s-2.1-5.9-6.2-16.4h4.8l3.9,10l3.9-10h4.8l-7.5,19c-0.4,1.1-1.1,2-2.1,2.6C359.2,78.7,358.1,79,357,79z"/>
	<path class="st3" d="M382.1,48.5h4.3L373.8,76h-4.2L382.1,48.5z"/>
	<path class="st3" d="M404.1,64.6c0,2.3-0.8,4.3-2.4,5.9c-1.6,1.6-3.7,2.4-6.1,2.4s-4.5-0.8-6.1-2.4c-1.6-1.6-2.4-3.6-2.4-5.9
		s0.8-4.3,2.4-5.9c1.6-1.6,3.7-2.4,6.1-2.4s4.5,0.8,6.1,2.4C403.3,60.3,404.1,62.3,404.1,64.6z M391.6,64.6c0,1.3,0.4,2.4,1.1,3.2
		s1.7,1.2,2.9,1.2s2.1-0.4,2.9-1.2s1.1-1.9,1.1-3.2c0-1.3-0.4-2.4-1.1-3.2c-0.8-0.8-1.7-1.3-2.9-1.3s-2.1,0.4-2.9,1.3
		C392,62.2,391.6,63.3,391.6,64.6z"/>
	<path class="st3" d="M423.1,68.9c1.5,0,2.8-0.8,4-2.2l2.7,3c-2.1,2.2-4.3,3.2-6.8,3.2s-4.5-0.8-6.1-2.3c-1.7-1.5-2.5-3.5-2.5-6
		s0.8-4.5,2.5-6c1.7-1.5,3.7-2.3,6-2.3c1.2,0,2.3,0.2,3.5,0.7c1.2,0.5,2.2,1.2,3.1,2.1l-2.3,3.1c-0.5-0.6-1.2-1.1-1.9-1.4
		c-0.8-0.3-1.5-0.5-2.2-0.5c-1.2,0-2.2,0.4-3,1.2c-0.9,0.8-1.3,1.8-1.3,3.2s0.4,2.4,1.3,3.2C421,68.5,422,68.9,423.1,68.9z"/>
	<path class="st3" d="M446.5,72.7h-4.2v-2c-1.2,1.5-2.6,2.2-4.3,2.2s-3.1-0.5-4.3-1.5s-1.7-2.3-1.7-4s0.6-2.9,1.8-3.7
		c1.2-0.8,2.8-1.2,4.9-1.2h3.4v-0.1c0-1.7-0.9-2.6-2.7-2.6c-0.8,0-1.6,0.2-2.5,0.5c-0.9,0.3-1.6,0.7-2.2,1.2l-2-2.9
		c2.1-1.5,4.5-2.3,7.3-2.3c2,0,3.6,0.5,4.8,1.5c1.2,1,1.9,2.5,1.9,4.7V72.7z M442,66.5v-0.8h-2.8c-1.8,0-2.7,0.6-2.7,1.7
		c0,0.6,0.2,1,0.6,1.3c0.4,0.3,1,0.5,1.8,0.5s1.5-0.2,2.1-0.7C441.7,68,442,67.3,442,66.5z"/>
	<path class="st3" d="M465.5,64v8.7h-4.5v-8.8c0-1.3-0.2-2.2-0.6-2.8c-0.4-0.6-1-0.9-1.9-0.9c-0.9,0-1.6,0.3-2.3,1
		c-0.7,0.7-1,1.6-1,2.9v8.7h-4.5V56.5h4.5v1.8c1.2-1.4,2.7-2.1,4.3-2.1c1,0,1.9,0.3,2.8,0.9c0.8,0.6,1.5,1.3,1.9,2.2
		c0.6-1,1.5-1.7,2.5-2.3s2.1-0.8,3.2-0.8c1.9,0,3.4,0.6,4.6,1.7c1.2,1.1,1.7,2.8,1.7,4.9v9.8h-4.5v-8.8c0-2.5-0.9-3.7-2.7-3.7
		c-0.9,0-1.7,0.3-2.3,1C465.8,61.8,465.5,62.7,465.5,64z"/>
	<path class="st3" d="M489.5,56.3c1.9,0,3.6,0.8,5,2.4c1.5,1.6,2.2,3.5,2.2,5.9s-0.7,4.4-2.2,6c-1.5,1.6-3.2,2.4-5.2,2.4
		s-3.6-0.8-4.8-2.4v8h-4.5v-22h4.5v1.8C486,57,487.6,56.3,489.5,56.3z M484.6,64.6c0,1.3,0.4,2.4,1.1,3.2s1.6,1.2,2.7,1.2
		s2-0.4,2.7-1.2c0.8-0.8,1.2-1.9,1.2-3.2c0-1.3-0.4-2.4-1.1-3.3s-1.7-1.3-2.7-1.3c-1.1,0-2,0.4-2.7,1.3S484.6,63.3,484.6,64.6z"/>
	<path class="st3" d="M516.3,64.6c0,2.3-0.8,4.3-2.4,5.9c-1.6,1.6-3.7,2.4-6.1,2.4c-2.5,0-4.5-0.8-6.1-2.4c-1.6-1.6-2.4-3.6-2.4-5.9
		s0.8-4.3,2.4-5.9c1.6-1.6,3.7-2.4,6.1-2.4c2.4,0,4.5,0.8,6.1,2.4C515.4,60.3,516.3,62.3,516.3,64.6z M503.7,64.6
		c0,1.3,0.4,2.4,1.1,3.2s1.7,1.2,2.9,1.2s2.1-0.4,2.9-1.2s1.1-1.9,1.1-3.2c0-1.3-0.4-2.4-1.1-3.2c-0.8-0.8-1.7-1.3-2.9-1.3
		s-2.1,0.4-2.9,1.3C504.1,62.2,503.7,63.3,503.7,64.6z"/>
	<path class="st3" d="M534,72.9c-1.9,0-3.6-0.8-5.1-2.4c-1.5-1.6-2.2-3.6-2.2-6c0-2.4,0.7-4.4,2.2-5.9c1.5-1.5,3.2-2.3,5.1-2.3
		s3.6,0.7,4.8,2.1v-7.9h4.5v22.3h-4.5v-2.1C537.5,72.1,535.9,72.9,534,72.9z M531.1,64.6c0,1.3,0.4,2.4,1.2,3.2s1.7,1.2,2.7,1.2
		c1,0,1.9-0.4,2.7-1.2s1.1-1.9,1.1-3.2s-0.4-2.4-1.1-3.3S536.1,60,535,60c-1.1,0-2,0.4-2.7,1.3S531.1,63.3,531.1,64.6z"/>
	<path class="st3" d="M561.5,70.3c-1.8,1.7-4,2.6-6.4,2.6c-2.5,0-4.5-0.8-6.1-2.3c-1.6-1.5-2.4-3.5-2.4-6.1s0.8-4.6,2.4-6.1
		s3.6-2.2,5.8-2.2c2.2,0,4.1,0.7,5.7,2c1.5,1.3,2.3,3.2,2.3,5.5v2.4H551c0.1,0.9,0.6,1.6,1.4,2.2c0.8,0.6,1.7,0.8,2.6,0.8
		c1.6,0,2.9-0.5,3.9-1.6L561.5,70.3z M557.1,60.8c-0.6-0.5-1.4-0.8-2.3-0.8s-1.7,0.3-2.4,0.8c-0.7,0.5-1.2,1.3-1.3,2.2h7.1
		C558.1,62,557.8,61.3,557.1,60.8z"/>
	<path class="st3" d="M578.4,72.7h-4.5V50.4h4.5V72.7z"/>
	<path class="st3" d="M596.4,72.7h-4.2v-2c-1.2,1.5-2.6,2.2-4.3,2.2s-3.1-0.5-4.3-1.5s-1.7-2.3-1.7-4s0.6-2.9,1.8-3.7
		c1.2-0.8,2.8-1.2,4.9-1.2h3.4v-0.1c0-1.7-0.9-2.6-2.7-2.6c-0.8,0-1.6,0.2-2.5,0.5c-0.9,0.3-1.6,0.7-2.2,1.2l-2-2.9
		c2.1-1.5,4.5-2.3,7.3-2.3c2,0,3.6,0.5,4.8,1.5c1.2,1,1.9,2.5,1.9,4.7V72.7z M591.9,66.5v-0.8h-2.8c-1.8,0-2.7,0.6-2.7,1.7
		c0,0.6,0.2,1,0.6,1.3c0.4,0.3,1,0.5,1.8,0.5c0.8,0,1.5-0.2,2.1-0.7C591.6,68,591.9,67.3,591.9,66.5z M591,54.3h-4.3l3.8-5.3
		l4.7,1.9L591,54.3z"/>
	<path class="st3" d="M605.9,59.8V67c0,0.6,0.2,1.1,0.5,1.5c0.3,0.3,0.7,0.5,1.1,0.5c0.8,0,1.5-0.4,2.1-1.1l1.7,3.2
		c-1.4,1.3-2.9,1.9-4.4,1.9s-2.9-0.5-3.9-1.5c-1.1-1-1.6-2.4-1.6-4.2v-7.4h-1.9v-3.2h1.9v-4.8h4.5v4.8h3.9v3.2H605.9z"/>
	<path class="st3" d="M627.7,70.3c-1.8,1.7-4,2.6-6.4,2.6c-2.5,0-4.5-0.8-6.1-2.3c-1.6-1.5-2.4-3.5-2.4-6.1s0.8-4.6,2.4-6.1
		s3.6-2.2,5.8-2.2s4.1,0.7,5.7,2c1.5,1.3,2.3,3.2,2.3,5.5v2.4h-11.8c0.1,0.9,0.6,1.6,1.4,2.2c0.8,0.6,1.7,0.8,2.6,0.8
		c1.6,0,2.9-0.5,3.9-1.6L627.7,70.3z M623.4,60.8c-0.6-0.5-1.4-0.8-2.3-0.8c-0.9,0-1.7,0.3-2.4,0.8c-0.7,0.5-1.2,1.3-1.3,2.2h7.1
		C624.4,62,624,61.3,623.4,60.8z"/>
	<path class="st3" d="M635.7,56.5l2.8,4.3l2.8-4.3h5.3l-5.5,7.9l5.8,8.2h-5.4l-3.2-4.4l-3.1,4.4h-5.2l5.6-8.2l-5.3-7.9H635.7z"/>
</g>
<g class="st2">
	<path class="st3" d="M114.4,105.3c-1.8,1.7-4,2.6-6.4,2.6c-2.5,0-4.5-0.8-6.1-2.3c-1.6-1.5-2.4-3.5-2.4-6.1c0-2.5,0.8-4.6,2.4-6.1
		s3.6-2.2,5.8-2.2c2.2,0,4.1,0.7,5.7,2c1.5,1.3,2.3,3.2,2.3,5.5v2.4H104c0.1,0.9,0.6,1.6,1.4,2.2c0.8,0.6,1.7,0.8,2.6,0.8
		c1.6,0,2.9-0.5,3.9-1.6L114.4,105.3z M110.1,95.8c-0.6-0.5-1.4-0.8-2.3-0.8c-0.9,0-1.7,0.3-2.4,0.8c-0.7,0.5-1.2,1.3-1.3,2.2h7.1
		C111.1,97,110.7,96.3,110.1,95.8z"/>
	<path class="st3" d="M123.5,98.7v9H119V91.5h4.5v1.8c1.4-1.4,2.9-2.1,4.6-2.1c1.7,0,3.1,0.6,4.3,1.8c1.1,1.2,1.7,2.8,1.7,4.8v9.8
		h-4.5v-9.1c0-2.5-0.9-3.7-2.7-3.7c-0.9,0-1.7,0.3-2.4,1C123.8,96.5,123.5,97.4,123.5,98.7z"/>
	<path class="st3" d="M151.4,94.8v7.2c0,0.6,0.2,1.1,0.5,1.5c0.3,0.3,0.7,0.5,1.1,0.5c0.8,0,1.5-0.4,2.1-1.1l1.7,3.2
		c-1.4,1.3-2.9,1.9-4.4,1.9s-2.9-0.5-3.9-1.5c-1.1-1-1.6-2.4-1.6-4.2v-7.4H145v-3.2h1.9v-4.8h4.5v4.8h3.9v3.2H151.4z"/>
	<path class="st3" d="M175.2,99.6c0,2.3-0.8,4.3-2.4,5.9c-1.6,1.6-3.7,2.4-6.1,2.4c-2.5,0-4.5-0.8-6.1-2.4c-1.6-1.6-2.4-3.6-2.4-5.9
		s0.8-4.3,2.4-5.9c1.6-1.6,3.7-2.4,6.1-2.4c2.4,0,4.5,0.8,6.1,2.4C174.4,95.3,175.2,97.3,175.2,99.6z M162.7,99.6
		c0,1.3,0.4,2.4,1.1,3.2c0.8,0.8,1.7,1.2,2.9,1.2s2.1-0.4,2.9-1.2c0.8-0.8,1.1-1.9,1.1-3.2c0-1.3-0.4-2.4-1.1-3.2
		c-0.8-0.8-1.7-1.3-2.9-1.3s-2.1,0.4-2.9,1.3C163.1,97.2,162.7,98.3,162.7,99.6z"/>
	<path class="st3" d="M185,107.9c-1.9,0-3.6-0.8-5.1-2.4c-1.5-1.6-2.2-3.6-2.2-6c0-2.4,0.7-4.4,2.2-5.9c1.5-1.5,3.2-2.3,5.1-2.3
		s3.6,0.7,4.8,2.1v-7.9h4.5v22.3h-4.5v-2.1C188.5,107.1,186.9,107.9,185,107.9z M182.2,99.6c0,1.3,0.4,2.4,1.2,3.2
		c0.8,0.8,1.7,1.2,2.7,1.2c1,0,1.9-0.4,2.7-1.2c0.7-0.8,1.1-1.9,1.1-3.2s-0.4-2.4-1.1-3.3c-0.7-0.9-1.6-1.3-2.7-1.3s-2,0.4-2.7,1.3
		C182.6,97.2,182.2,98.3,182.2,99.6z"/>
	<path class="st3" d="M212.2,107.7H208v-2c-1.2,1.5-2.6,2.2-4.3,2.2s-3.1-0.5-4.3-1.5c-1.2-1-1.7-2.3-1.7-4c0-1.6,0.6-2.9,1.8-3.7
		c1.2-0.8,2.8-1.2,4.9-1.2h3.4v-0.1c0-1.7-0.9-2.6-2.7-2.6c-0.8,0-1.6,0.2-2.5,0.5c-0.9,0.3-1.6,0.7-2.2,1.2l-2-2.9
		c2.1-1.5,4.5-2.3,7.3-2.3c2,0,3.6,0.5,4.8,1.5c1.2,1,1.9,2.5,1.9,4.7V107.7z M207.7,101.5v-0.8h-2.8c-1.8,0-2.7,0.6-2.7,1.7
		c0,0.6,0.2,1,0.6,1.3c0.4,0.3,1,0.5,1.8,0.5s1.5-0.2,2.1-0.7C207.4,103,207.7,102.3,207.7,101.5z"/>
	<path class="st3" d="M228.5,102.6c0,1.6-0.6,2.9-1.8,3.8s-2.7,1.4-4.5,1.4c-1.2,0-2.5-0.2-3.8-0.6c-1.3-0.4-2.5-1.1-3.5-1.9l2-2.8
		c1.7,1.3,3.5,2,5.4,2c0.6,0,1-0.1,1.4-0.3c0.3-0.2,0.5-0.5,0.5-0.9c0-0.4-0.2-0.7-0.7-1c-0.5-0.3-1.2-0.6-2-0.9
		c-0.9-0.3-1.6-0.5-2-0.7c-0.5-0.2-1-0.5-1.6-0.9c-1.2-0.8-1.8-1.9-1.8-3.4c0-1.5,0.6-2.7,1.8-3.6c1.2-0.9,2.8-1.4,4.6-1.4
		s3.8,0.6,5.7,1.9l-1.7,3c-1.4-1-2.8-1.4-4.2-1.4c-1.4,0-2.1,0.4-2.1,1.1c0,0.4,0.2,0.8,0.7,1s1.2,0.5,2.2,0.8
		c1,0.3,1.7,0.6,2.2,0.7c0.4,0.2,0.9,0.4,1.5,0.8C227.9,99.9,228.5,101.1,228.5,102.6z"/>
	<path class="st3" d="M244.4,107.7h-4.5V85.4h4.5V107.7z"/>
	<path class="st3" d="M262.3,107.7h-4.2v-2c-1.2,1.5-2.6,2.2-4.3,2.2s-3.1-0.5-4.3-1.5c-1.2-1-1.7-2.3-1.7-4c0-1.6,0.6-2.9,1.8-3.7
		c1.2-0.8,2.8-1.2,4.9-1.2h3.4v-0.1c0-1.7-0.9-2.6-2.7-2.6c-0.8,0-1.6,0.2-2.5,0.5c-0.9,0.3-1.6,0.7-2.2,1.2l-2-2.9
		c2.1-1.5,4.5-2.3,7.3-2.3c2,0,3.6,0.5,4.8,1.5c1.2,1,1.9,2.5,1.9,4.7V107.7z M257.8,101.5v-0.8H255c-1.8,0-2.7,0.6-2.7,1.7
		c0,0.6,0.2,1,0.6,1.3c0.4,0.3,1,0.5,1.8,0.5s1.5-0.2,2.1-0.7C257.5,103,257.8,102.3,257.8,101.5z"/>
	<path class="st3" d="M278.6,102.6c0,1.6-0.6,2.9-1.8,3.8s-2.7,1.4-4.5,1.4c-1.2,0-2.5-0.2-3.8-0.6c-1.3-0.4-2.5-1.1-3.5-1.9l2-2.8
		c1.7,1.3,3.5,2,5.4,2c0.6,0,1-0.1,1.4-0.3c0.3-0.2,0.5-0.5,0.5-0.9c0-0.4-0.2-0.7-0.7-1c-0.5-0.3-1.2-0.6-2-0.9
		c-0.9-0.3-1.6-0.5-2-0.7c-0.5-0.2-1-0.5-1.6-0.9c-1.2-0.8-1.8-1.9-1.8-3.4c0-1.5,0.6-2.7,1.8-3.6c1.2-0.9,2.8-1.4,4.6-1.4
		s3.8,0.6,5.7,1.9l-1.7,3c-1.4-1-2.8-1.4-4.2-1.4c-1.4,0-2.1,0.4-2.1,1.1c0,0.4,0.2,0.8,0.7,1s1.2,0.5,2.2,0.8
		c1,0.3,1.7,0.6,2.2,0.7c0.4,0.2,0.9,0.4,1.5,0.8C278,99.9,278.6,101.1,278.6,102.6z"/>
	<path class="st3" d="M298.5,95.5c-1.3,0-2.3,0.5-3,1.4c-0.7,1-1,2.2-1,3.8v7H290V91.5h4.5v2.1c0.6-0.7,1.3-1.2,2.2-1.7
		c0.9-0.5,1.8-0.7,2.7-0.7l0,4.2H298.5z"/>
	<path class="st3" d="M316.3,105.3c-1.8,1.7-4,2.6-6.4,2.6c-2.5,0-4.5-0.8-6.1-2.3c-1.6-1.5-2.4-3.5-2.4-6.1c0-2.5,0.8-4.6,2.4-6.1
		s3.6-2.2,5.8-2.2c2.2,0,4.1,0.7,5.7,2c1.5,1.3,2.3,3.2,2.3,5.5v2.4h-11.8c0.1,0.9,0.6,1.6,1.4,2.2c0.8,0.6,1.7,0.8,2.6,0.8
		c1.6,0,2.9-0.5,3.9-1.6L316.3,105.3z M312,95.8c-0.6-0.5-1.4-0.8-2.3-0.8c-0.9,0-1.7,0.3-2.4,0.8c-0.7,0.5-1.2,1.3-1.3,2.2h7.1
		C312.9,97,312.6,96.3,312,95.8z"/>
	<path class="st3" d="M325.3,107.7h-4.5V85.4h4.5V107.7z"/>
	<path class="st3" d="M343.3,107.7h-4.2v-2c-1.2,1.5-2.6,2.2-4.3,2.2s-3.1-0.5-4.3-1.5c-1.2-1-1.7-2.3-1.7-4c0-1.6,0.6-2.9,1.8-3.7
		c1.2-0.8,2.8-1.2,4.9-1.2h3.4v-0.1c0-1.7-0.9-2.6-2.7-2.6c-0.8,0-1.6,0.2-2.5,0.5c-0.9,0.3-1.6,0.7-2.2,1.2l-2-2.9
		c2.1-1.5,4.5-2.3,7.3-2.3c2,0,3.6,0.5,4.8,1.5c1.2,1,1.9,2.5,1.9,4.7V107.7z M338.8,101.5v-0.8H336c-1.8,0-2.7,0.6-2.7,1.7
		c0,0.6,0.2,1,0.6,1.3c0.4,0.3,1,0.5,1.8,0.5s1.5-0.2,2.1-0.7S338.8,102.3,338.8,101.5z"/>
	<path class="st3" d="M355.2,103.9c1.5,0,2.9-0.8,4-2.2l2.7,3c-2.1,2.2-4.3,3.2-6.8,3.2s-4.5-0.8-6.1-2.3c-1.7-1.5-2.5-3.5-2.5-6
		c0-2.5,0.8-4.5,2.5-6c1.7-1.5,3.7-2.3,6-2.3c1.2,0,2.3,0.2,3.5,0.7c1.2,0.5,2.2,1.2,3.1,2.1l-2.3,3.1c-0.5-0.6-1.2-1.1-1.9-1.4
		c-0.8-0.3-1.5-0.5-2.2-0.5c-1.2,0-2.2,0.4-3,1.2c-0.8,0.8-1.3,1.8-1.3,3.2s0.4,2.4,1.3,3.2C353,103.5,354,103.9,355.2,103.9z"/>
	<path class="st3" d="M365.3,89.5c-0.5-0.5-0.8-1.1-0.8-1.9c0-0.7,0.3-1.4,0.8-1.9c0.5-0.5,1.1-0.8,1.9-0.8c0.7,0,1.4,0.3,1.9,0.8
		c0.5,0.5,0.8,1.1,0.8,1.9c0,0.7-0.3,1.4-0.8,1.9c-0.5,0.5-1.1,0.8-1.9,0.8C366.4,90.2,365.8,90,365.3,89.5z M369.4,107.7h-4.5V91.5
		h4.5V107.7z"/>
	<path class="st3" d="M389.8,99.6c0,2.3-0.8,4.3-2.4,5.9c-1.6,1.6-3.7,2.4-6.1,2.4s-4.5-0.8-6.1-2.4c-1.6-1.6-2.4-3.6-2.4-5.9
		s0.8-4.3,2.4-5.9c1.6-1.6,3.7-2.4,6.1-2.4s4.5,0.8,6.1,2.4C389,95.3,389.8,97.3,389.8,99.6z M377.2,99.6c0,1.3,0.4,2.4,1.1,3.2
		c0.8,0.8,1.7,1.2,2.9,1.2s2.1-0.4,2.9-1.2c0.8-0.8,1.1-1.9,1.1-3.2c0-1.3-0.4-2.4-1.1-3.2c-0.8-0.8-1.7-1.3-2.9-1.3
		s-2.1,0.4-2.9,1.3C377.6,97.2,377.2,98.3,377.2,99.6z"/>
	<path class="st3" d="M397.6,98.7v9h-4.5V91.5h4.5v1.8c1.4-1.4,2.9-2.1,4.6-2.1s3.1,0.6,4.3,1.8c1.1,1.2,1.7,2.8,1.7,4.8v9.8h-4.5
		v-9.1c0-2.5-0.9-3.7-2.7-3.7c-0.9,0-1.7,0.3-2.4,1C397.9,96.5,397.6,97.4,397.6,98.7z"/>
	<path class="st3" d="M426.3,105.3c-1.8,1.7-4,2.6-6.4,2.6c-2.5,0-4.5-0.8-6.1-2.3c-1.6-1.5-2.4-3.5-2.4-6.1c0-2.5,0.8-4.6,2.4-6.1
		s3.6-2.2,5.8-2.2c2.2,0,4.1,0.7,5.7,2c1.5,1.3,2.3,3.2,2.3,5.5v2.4h-11.8c0.1,0.9,0.6,1.6,1.4,2.2c0.8,0.6,1.7,0.8,2.6,0.8
		c1.6,0,2.9-0.5,3.9-1.6L426.3,105.3z M421.9,95.8c-0.6-0.5-1.4-0.8-2.3-0.8s-1.7,0.3-2.4,0.8c-0.7,0.5-1.2,1.3-1.3,2.2h7.1
		C422.9,97,422.6,96.3,421.9,95.8z"/>
	<path class="st3" d="M443,102.6c0,1.6-0.6,2.9-1.8,3.8s-2.7,1.4-4.5,1.4c-1.2,0-2.5-0.2-3.8-0.6s-2.5-1.1-3.5-1.9l2-2.8
		c1.7,1.3,3.5,2,5.4,2c0.6,0,1-0.1,1.4-0.3c0.3-0.2,0.5-0.5,0.5-0.9c0-0.4-0.2-0.7-0.7-1c-0.5-0.3-1.2-0.6-2-0.9s-1.6-0.5-2-0.7
		c-0.5-0.2-1-0.5-1.6-0.9c-1.2-0.8-1.8-1.9-1.8-3.4c0-1.5,0.6-2.7,1.8-3.6c1.2-0.9,2.8-1.4,4.6-1.4c1.9,0,3.8,0.6,5.7,1.9l-1.7,3
		c-1.4-1-2.8-1.4-4.2-1.4c-1.4,0-2.1,0.4-2.1,1.1c0,0.4,0.2,0.8,0.7,1c0.4,0.2,1.2,0.5,2.2,0.8c1,0.3,1.7,0.6,2.2,0.7
		c0.4,0.2,0.9,0.4,1.5,0.8C442.4,99.9,443,101.1,443,102.6z"/>
	<path class="st3" d="M466.5,102.6c0,1.6-0.6,2.9-1.8,3.8s-2.7,1.4-4.5,1.4c-1.2,0-2.5-0.2-3.8-0.6c-1.3-0.4-2.5-1.1-3.5-1.9l2-2.8
		c1.7,1.3,3.5,2,5.4,2c0.6,0,1-0.1,1.4-0.3c0.3-0.2,0.5-0.5,0.5-0.9c0-0.4-0.2-0.7-0.7-1c-0.5-0.3-1.2-0.6-2-0.9
		c-0.9-0.3-1.6-0.5-2-0.7c-0.5-0.2-1-0.5-1.6-0.9c-1.2-0.8-1.8-1.9-1.8-3.4c0-1.5,0.6-2.7,1.8-3.6c1.2-0.9,2.8-1.4,4.7-1.4
		c1.9,0,3.8,0.6,5.7,1.9l-1.7,3c-1.4-1-2.8-1.4-4.2-1.4c-1.4,0-2.1,0.4-2.1,1.1c0,0.4,0.2,0.8,0.7,1c0.4,0.2,1.2,0.5,2.2,0.8
		c1,0.3,1.7,0.6,2.2,0.7c0.4,0.2,0.9,0.4,1.5,0.8C465.9,99.9,466.5,101.1,466.5,102.6z"/>
	<path class="st3" d="M483.9,105.3c-1.8,1.7-4,2.6-6.4,2.6s-4.5-0.8-6.1-2.3c-1.6-1.5-2.4-3.5-2.4-6.1c0-2.5,0.8-4.6,2.4-6.1
		s3.6-2.2,5.8-2.2s4.1,0.7,5.7,2c1.5,1.3,2.3,3.2,2.3,5.5v2.4h-11.8c0.1,0.9,0.6,1.6,1.4,2.2c0.8,0.6,1.7,0.8,2.6,0.8
		c1.6,0,2.9-0.5,3.9-1.6L483.9,105.3z M479.6,95.8c-0.6-0.5-1.4-0.8-2.3-0.8c-0.9,0-1.7,0.3-2.4,0.8s-1.2,1.3-1.3,2.2h7.1
		C480.6,97,480.2,96.3,479.6,95.8z"/>
	<path class="st3" d="M492,91.5l2.8,4.3l2.9-4.3h5.3l-5.6,7.9l5.8,8.2h-5.4l-3.2-4.4l-3.1,4.4h-5.2l5.6-8.2l-5.3-7.9H492z"/>
	<path class="st3" d="M516,100.2v-8.7h4.5v16.1H516v-2.1c-1.1,1.6-2.6,2.4-4.3,2.4c-1.8,0-3.3-0.6-4.5-1.7c-1.2-1.1-1.8-2.8-1.8-4.9
		v-9.8h4.5v8.8c0,2.5,0.9,3.7,2.7,3.7c0.9,0,1.7-0.3,2.3-1C515.7,102.4,516,101.5,516,100.2z"/>
	<path class="st3" d="M538.5,107.7h-4.2v-2c-1.2,1.5-2.6,2.2-4.3,2.2s-3.1-0.5-4.3-1.5s-1.7-2.3-1.7-4c0-1.6,0.6-2.9,1.8-3.7
		c1.2-0.8,2.8-1.2,4.9-1.2h3.4v-0.1c0-1.7-0.9-2.6-2.7-2.6c-0.8,0-1.6,0.2-2.5,0.5c-0.9,0.3-1.6,0.7-2.2,1.2l-2-2.9
		c2.1-1.5,4.5-2.3,7.3-2.3c2,0,3.6,0.5,4.8,1.5c1.2,1,1.9,2.5,1.9,4.7V107.7z M534,101.5v-0.8h-2.8c-1.8,0-2.7,0.6-2.7,1.7
		c0,0.6,0.2,1,0.6,1.3c0.4,0.3,1,0.5,1.8,0.5s1.5-0.2,2.1-0.7C533.6,103,534,102.3,534,101.5z"/>
	<path class="st3" d="M547.1,107.7h-4.5V85.4h4.5V107.7z"/>
	<path class="st3" d="M565.3,105.3c-1.8,1.7-4,2.6-6.4,2.6c-2.5,0-4.5-0.8-6.1-2.3c-1.6-1.5-2.4-3.5-2.4-6.1c0-2.5,0.8-4.6,2.4-6.1
		s3.6-2.2,5.8-2.2c2.2,0,4.1,0.7,5.7,2c1.5,1.3,2.3,3.2,2.3,5.5v2.4h-11.8c0.1,0.9,0.6,1.6,1.4,2.2c0.8,0.6,1.7,0.8,2.6,0.8
		c1.6,0,2.9-0.5,3.9-1.6L565.3,105.3z M561,95.8c-0.6-0.5-1.4-0.8-2.3-0.8s-1.7,0.3-2.4,0.8c-0.7,0.5-1.2,1.3-1.3,2.2h7.1
		C562,97,561.6,96.3,561,95.8z"/>
	<path class="st3" d="M582,102.6c0,1.6-0.6,2.9-1.8,3.8s-2.7,1.4-4.5,1.4c-1.2,0-2.5-0.2-3.8-0.6s-2.5-1.1-3.5-1.9l2-2.8
		c1.7,1.3,3.5,2,5.4,2c0.6,0,1-0.1,1.4-0.3c0.3-0.2,0.5-0.5,0.5-0.9c0-0.4-0.2-0.7-0.7-1c-0.5-0.3-1.2-0.6-2-0.9s-1.6-0.5-2-0.7
		c-0.5-0.2-1-0.5-1.6-0.9c-1.2-0.8-1.8-1.9-1.8-3.4c0-1.5,0.6-2.7,1.8-3.6c1.2-0.9,2.8-1.4,4.6-1.4c1.9,0,3.8,0.6,5.7,1.9l-1.7,3
		c-1.4-1-2.8-1.4-4.2-1.4c-1.4,0-2.1,0.4-2.1,1.1c0,0.4,0.2,0.8,0.7,1c0.4,0.2,1.2,0.5,2.2,0.8c1,0.3,1.7,0.6,2.2,0.7
		c0.4,0.2,0.9,0.4,1.5,0.8C581.5,99.9,582,101.1,582,102.6z"/>
</g>
<g class="st2">
	<path class="st3" d="M140.7,126.3c-0.8,2.5-1.2,4.8-1.2,6.9c0,2.2,0.4,4.5,1.2,6.9c0.8,2.5,1.8,4.6,3,6.3h-4.9
		c-1-1.4-1.9-3.3-2.7-5.8s-1.2-5-1.2-7.4c0-2.4,0.4-4.9,1.2-7.4c0.8-2.5,1.7-4.5,2.7-5.9h4.9C142.5,121.8,141.5,123.9,140.7,126.3z"
		/>
	<path class="st3" d="M161.9,134.6c0,2.3-0.8,4.3-2.4,5.9c-1.6,1.6-3.7,2.4-6.1,2.4c-2.5,0-4.5-0.8-6.1-2.4
		c-1.6-1.6-2.4-3.6-2.4-5.9s0.8-4.3,2.4-5.9c1.6-1.6,3.7-2.4,6.1-2.4c2.4,0,4.5,0.8,6.1,2.4C161.1,130.3,161.9,132.3,161.9,134.6z
		 M149.4,134.6c0,1.3,0.4,2.4,1.1,3.2s1.7,1.2,2.9,1.2s2.1-0.4,2.9-1.2s1.1-1.9,1.1-3.2c0-1.3-0.4-2.4-1.1-3.2
		c-0.8-0.8-1.7-1.3-2.9-1.3s-2.1,0.4-2.9,1.3C149.8,132.2,149.4,133.3,149.4,134.6z"/>
	<path class="st3" d="M173.7,130.5c-1.3,0-2.3,0.5-3,1.4c-0.7,1-1,2.2-1,3.8v7h-4.5v-16.1h4.5v2.1c0.6-0.7,1.3-1.2,2.2-1.7
		c0.9-0.5,1.8-0.7,2.7-0.7l0,4.2H173.7z"/>
	<path class="st3" d="M191.1,142.7h-4.2v-2c-1.2,1.5-2.6,2.2-4.3,2.2s-3.1-0.5-4.3-1.5c-1.2-1-1.7-2.3-1.7-4s0.6-2.9,1.8-3.7
		c1.2-0.8,2.8-1.2,4.9-1.2h3.4v-0.1c0-1.7-0.9-2.6-2.7-2.6c-0.8,0-1.6,0.2-2.5,0.5c-0.9,0.3-1.6,0.7-2.2,1.2l-2-2.9
		c2.1-1.5,4.5-2.3,7.3-2.3c2,0,3.6,0.5,4.8,1.5c1.2,1,1.9,2.5,1.9,4.7V142.7z M186.6,136.5v-0.8h-2.8c-1.8,0-2.7,0.6-2.7,1.7
		c0,0.6,0.2,1,0.6,1.3c0.4,0.3,1,0.5,1.8,0.5s1.5-0.2,2.1-0.7C186.3,138,186.6,137.3,186.6,136.5z"/>
	<path class="st3" d="M199.8,142.7h-4.5v-22.3h4.5V142.7z"/>
	<path class="st3" d="M218,140.3c-1.8,1.7-4,2.6-6.4,2.6c-2.5,0-4.5-0.8-6.1-2.3c-1.6-1.5-2.4-3.5-2.4-6.1s0.8-4.6,2.4-6.1
		s3.6-2.2,5.8-2.2c2.2,0,4.1,0.7,5.7,2c1.5,1.3,2.3,3.2,2.3,5.5v2.4h-11.8c0.1,0.9,0.6,1.6,1.4,2.2c0.8,0.6,1.7,0.8,2.6,0.8
		c1.6,0,2.9-0.5,3.9-1.6L218,140.3z M213.7,130.8c-0.6-0.5-1.4-0.8-2.3-0.8c-0.9,0-1.7,0.3-2.4,0.8c-0.7,0.5-1.2,1.3-1.3,2.2h7.1
		C214.6,132,214.3,131.3,213.7,130.8z"/>
	<path class="st3" d="M234.7,137.6c0,1.6-0.6,2.9-1.8,3.8s-2.7,1.4-4.5,1.4c-1.2,0-2.5-0.2-3.8-0.6c-1.3-0.4-2.5-1.1-3.5-1.9l2-2.8
		c1.7,1.3,3.5,2,5.4,2c0.6,0,1-0.1,1.4-0.3c0.3-0.2,0.5-0.5,0.5-0.9c0-0.4-0.2-0.7-0.7-1c-0.5-0.3-1.2-0.6-2-0.9
		c-0.9-0.3-1.6-0.5-2-0.7c-0.5-0.2-1-0.5-1.6-0.9c-1.2-0.8-1.8-1.9-1.8-3.4c0-1.5,0.6-2.7,1.8-3.6c1.2-0.9,2.8-1.4,4.6-1.4
		s3.8,0.6,5.7,1.9l-1.7,3c-1.4-1-2.8-1.4-4.2-1.4c-1.4,0-2.1,0.4-2.1,1.1c0,0.4,0.2,0.8,0.7,1s1.2,0.5,2.2,0.8
		c1,0.3,1.7,0.6,2.2,0.7c0.4,0.2,0.9,0.4,1.5,0.8C234.1,134.9,234.7,136.1,234.7,137.6z"/>
	<path class="st3" d="M238.7,142.3c-0.7-0.5-1-1.1-1-1.9s0.3-1.5,0.8-2c0.5-0.5,1.2-0.8,1.9-0.8c0.8,0,1.4,0.2,2,0.8
		s0.8,1.1,0.8,1.8c0,0.7-0.3,1.5-0.9,2.4l-1.8,3.1h-3L238.7,142.3z"/>
	<path class="st3" d="M268.7,142.7h-4.2v-2c-1.2,1.5-2.6,2.2-4.3,2.2s-3.1-0.5-4.3-1.5c-1.2-1-1.7-2.3-1.7-4s0.6-2.9,1.8-3.7
		c1.2-0.8,2.8-1.2,4.9-1.2h3.4v-0.1c0-1.7-0.9-2.6-2.7-2.6c-0.8,0-1.6,0.2-2.5,0.5c-0.9,0.3-1.6,0.7-2.2,1.2l-2-2.9
		c2.1-1.5,4.5-2.3,7.3-2.3c2,0,3.6,0.5,4.8,1.5c1.2,1,1.9,2.5,1.9,4.7V142.7z M264.2,136.5v-0.8h-2.8c-1.8,0-2.7,0.6-2.7,1.7
		c0,0.6,0.2,1,0.6,1.3c0.4,0.3,1,0.5,1.8,0.5s1.5-0.2,2.1-0.7C263.9,138,264.2,137.3,264.2,136.5z"/>
	<path class="st3" d="M277.3,133.7v9h-4.5v-16.1h4.5v1.8c1.4-1.4,2.9-2.1,4.6-2.1c1.7,0,3.1,0.6,4.3,1.8c1.1,1.2,1.7,2.8,1.7,4.8
		v9.8h-4.5v-9.1c0-2.5-0.9-3.7-2.7-3.7c-0.9,0-1.7,0.3-2.4,1C277.6,131.5,277.3,132.4,277.3,133.7z"/>
	<path class="st3" d="M305.7,142.7h-4.2v-2c-1.2,1.5-2.6,2.2-4.3,2.2s-3.1-0.5-4.3-1.5c-1.2-1-1.7-2.3-1.7-4s0.6-2.9,1.8-3.7
		c1.2-0.8,2.8-1.2,4.9-1.2h3.4v-0.1c0-1.7-0.9-2.6-2.7-2.6c-0.8,0-1.6,0.2-2.5,0.5c-0.9,0.3-1.6,0.7-2.2,1.2l-2-2.9
		c2.1-1.5,4.5-2.3,7.3-2.3c2,0,3.6,0.5,4.8,1.5c1.2,1,1.9,2.5,1.9,4.7V142.7z M301.1,136.5v-0.8h-2.8c-1.8,0-2.7,0.6-2.7,1.7
		c0,0.6,0.2,1,0.6,1.3c0.4,0.3,1,0.5,1.8,0.5s1.5-0.2,2.1-0.7C300.8,138,301.1,137.3,301.1,136.5z"/>
	<path class="st3" d="M314.3,142.7h-4.5v-22.3h4.5V142.7z"/>
	<path class="st3" d="M332.5,140.3c-1.8,1.7-4,2.6-6.4,2.6c-2.5,0-4.5-0.8-6.1-2.3c-1.6-1.5-2.4-3.5-2.4-6.1s0.8-4.6,2.4-6.1
		s3.6-2.2,5.8-2.2c2.2,0,4.1,0.7,5.7,2c1.5,1.3,2.3,3.2,2.3,5.5v2.4h-11.8c0.1,0.9,0.6,1.6,1.4,2.2c0.8,0.6,1.7,0.8,2.6,0.8
		c1.6,0,2.9-0.5,3.9-1.6L332.5,140.3z M328.2,130.8c-0.6-0.5-1.4-0.8-2.3-0.8c-0.9,0-1.7,0.3-2.4,0.8c-0.7,0.5-1.2,1.3-1.3,2.2h7.1
		C329.2,132,328.8,131.3,328.2,130.8z"/>
	<path class="st3" d="M349.2,137.6c0,1.6-0.6,2.9-1.8,3.8s-2.7,1.4-4.5,1.4c-1.2,0-2.5-0.2-3.8-0.6c-1.3-0.4-2.5-1.1-3.5-1.9l2-2.8
		c1.7,1.3,3.5,2,5.4,2c0.6,0,1-0.1,1.4-0.3c0.3-0.2,0.5-0.5,0.5-0.9c0-0.4-0.2-0.7-0.7-1c-0.5-0.3-1.2-0.6-2-0.9
		c-0.9-0.3-1.6-0.5-2-0.7c-0.5-0.2-1-0.5-1.6-0.9c-1.2-0.8-1.8-1.9-1.8-3.4c0-1.5,0.6-2.7,1.8-3.6c1.2-0.9,2.8-1.4,4.7-1.4
		c1.9,0,3.8,0.6,5.7,1.9l-1.7,3c-1.4-1-2.8-1.4-4.2-1.4c-1.4,0-2.1,0.4-2.1,1.1c0,0.4,0.2,0.8,0.7,1c0.4,0.2,1.2,0.5,2.2,0.8
		c1,0.3,1.7,0.6,2.2,0.7c0.4,0.2,0.9,0.4,1.5,0.8C348.7,134.9,349.2,136.1,349.2,137.6z"/>
	<path class="st3" d="M363.4,149c-1.6,0-3.1-0.6-4.5-1.9l2-3.3c0.8,0.7,1.5,1.1,2.3,1.1c0.4,0,0.8-0.2,1.1-0.6
		c0.3-0.4,0.5-0.8,0.5-1.3s-2.1-5.9-6.2-16.4h4.8l3.9,10l3.9-10h4.8l-7.5,19c-0.4,1.1-1.1,2-2.1,2.6
		C365.6,148.7,364.5,149,363.4,149z"/>
	<path class="st3" d="M390.6,142.7l-6.4-16.2h4.7l4,10.2l4-10.2h4.7l-6.4,16.2H390.6z"/>
	<path class="st3" d="M417.3,142.7h-4.2v-2c-1.2,1.5-2.6,2.2-4.3,2.2s-3.1-0.5-4.3-1.5c-1.2-1-1.7-2.3-1.7-4s0.6-2.9,1.8-3.7
		c1.2-0.8,2.8-1.2,4.9-1.2h3.4v-0.1c0-1.7-0.9-2.6-2.7-2.6c-0.8,0-1.6,0.2-2.5,0.5c-0.9,0.3-1.6,0.7-2.2,1.2l-2-2.9
		c2.1-1.5,4.5-2.3,7.3-2.3c2,0,3.6,0.5,4.8,1.5c1.2,1,1.9,2.5,1.9,4.7V142.7z M412.8,136.5v-0.8H410c-1.8,0-2.7,0.6-2.7,1.7
		c0,0.6,0.2,1,0.6,1.3c0.4,0.3,1,0.5,1.8,0.5s1.5-0.2,2.1-0.7S412.8,137.3,412.8,136.5z"/>
	<path class="st3" d="M433.4,139.9c-1.4,1.6-3.2,2.4-5.3,2.4c-2.1,0-3.9-0.7-5.3-2.1c-1.5-1.4-2.2-3.3-2.2-5.7
		c0-2.4,0.7-4.3,2.2-5.9c1.5-1.5,3.2-2.3,5.1-2.3s3.5,0.8,4.8,2.4v-2.1h4.5v14.1c0,1.4-0.2,2.7-0.8,3.8c-0.5,1.1-1.2,2-2,2.6
		c-1.7,1.3-3.6,2-5.9,2c-1.2,0-2.4-0.2-3.7-0.6c-1.2-0.4-2.3-0.9-3.3-1.7l1.7-3.4c1.5,1.1,3,1.7,4.7,1.7c1.7,0,3-0.4,3.9-1.2
		S433.4,141.7,433.4,139.9z M432.7,134.3c0-1.3-0.4-2.3-1.1-3c-0.7-0.7-1.6-1.1-2.7-1.1c-1.1,0-2,0.4-2.7,1.1
		c-0.8,0.7-1.2,1.8-1.2,3s0.4,2.3,1.1,3.1s1.7,1.2,2.7,1.2s2-0.4,2.7-1.2C432.4,136.6,432.7,135.5,432.7,134.3z"/>
	<path class="st3" d="M441.8,124.5c-0.5-0.5-0.8-1.1-0.8-1.9c0-0.7,0.3-1.4,0.8-1.9c0.5-0.5,1.1-0.8,1.9-0.8s1.4,0.3,1.9,0.8
		c0.5,0.5,0.8,1.1,0.8,1.9c0,0.7-0.3,1.4-0.8,1.9c-0.5,0.5-1.1,0.8-1.9,0.8S442.3,125,441.8,124.5z M445.9,142.7h-4.5v-16.1h4.5
		V142.7z"/>
	<path class="st3" d="M454.7,133.7v9h-4.5v-16.1h4.5v1.8c1.4-1.4,2.9-2.1,4.6-2.1c1.7,0,3.1,0.6,4.3,1.8c1.2,1.2,1.7,2.8,1.7,4.8
		v9.8h-4.5v-9.1c0-2.5-0.9-3.7-2.7-3.7c-0.9,0-1.7,0.3-2.4,1C455,131.5,454.7,132.4,454.7,133.7z"/>
	<path class="st3" d="M483.1,142.7h-4.2v-2c-1.2,1.5-2.6,2.2-4.3,2.2s-3.1-0.5-4.3-1.5s-1.7-2.3-1.7-4s0.6-2.9,1.8-3.7
		c1.2-0.8,2.8-1.2,4.9-1.2h3.4v-0.1c0-1.7-0.9-2.6-2.7-2.6c-0.8,0-1.6,0.2-2.5,0.5c-0.9,0.3-1.6,0.7-2.2,1.2l-2-2.9
		c2.1-1.5,4.5-2.3,7.3-2.3c2,0,3.6,0.5,4.8,1.5c1.2,1,1.9,2.5,1.9,4.7V142.7z M478.5,136.5v-0.8h-2.8c-1.8,0-2.7,0.6-2.7,1.7
		c0,0.6,0.2,1,0.6,1.3c0.4,0.3,1,0.5,1.8,0.5s1.5-0.2,2.1-0.7C478.2,138,478.5,137.3,478.5,136.5z"/>
	<path class="st3" d="M491.7,142.7h-4.5v-22.3h4.5V142.7z"/>
	<path class="st3" d="M509.9,140.3c-1.8,1.7-4,2.6-6.4,2.6c-2.5,0-4.5-0.8-6.1-2.3c-1.6-1.5-2.4-3.5-2.4-6.1s0.8-4.6,2.4-6.1
		s3.6-2.2,5.8-2.2c2.2,0,4.1,0.7,5.7,2c1.5,1.3,2.3,3.2,2.3,5.5v2.4h-11.8c0.1,0.9,0.6,1.6,1.4,2.2c0.8,0.6,1.7,0.8,2.6,0.8
		c1.6,0,2.9-0.5,3.9-1.6L509.9,140.3z M505.6,130.8c-0.6-0.5-1.4-0.8-2.3-0.8s-1.7,0.3-2.4,0.8c-0.7,0.5-1.2,1.3-1.3,2.2h7.1
		C506.6,132,506.2,131.3,505.6,130.8z"/>
	<path class="st3" d="M526.6,137.6c0,1.6-0.6,2.9-1.8,3.8s-2.7,1.4-4.5,1.4c-1.2,0-2.5-0.2-3.8-0.6s-2.5-1.1-3.5-1.9l2-2.8
		c1.7,1.3,3.5,2,5.4,2c0.6,0,1-0.1,1.4-0.3c0.3-0.2,0.5-0.5,0.5-0.9c0-0.4-0.2-0.7-0.7-1c-0.5-0.3-1.2-0.6-2-0.9s-1.6-0.5-2-0.7
		c-0.5-0.2-1-0.5-1.6-0.9c-1.2-0.8-1.8-1.9-1.8-3.4c0-1.5,0.6-2.7,1.8-3.6c1.2-0.9,2.8-1.4,4.6-1.4c1.9,0,3.8,0.6,5.7,1.9l-1.7,3
		c-1.4-1-2.8-1.4-4.2-1.4c-1.4,0-2.1,0.4-2.1,1.1c0,0.4,0.2,0.8,0.7,1c0.4,0.2,1.2,0.5,2.2,0.8c1,0.3,1.7,0.6,2.2,0.7
		c0.4,0.2,0.9,0.4,1.5,0.8C526.1,134.9,526.6,136.1,526.6,137.6z"/>
	<path class="st3" d="M531.1,140.2c0.8-2.5,1.2-4.8,1.2-6.9c0-2.1-0.4-4.5-1.2-6.9c-0.8-2.5-1.8-4.6-3-6.3h4.9
		c1,1.4,1.9,3.3,2.7,5.9c0.8,2.5,1.2,5,1.2,7.4c0,2.4-0.4,4.9-1.2,7.4c-0.8,2.5-1.7,4.5-2.7,5.8h-4.9
		C529.3,144.8,530.3,142.7,531.1,140.2z"/>
	<path class="st3" d="M540.7,142.1c-0.5-0.5-0.8-1.1-0.8-1.9c0-0.7,0.3-1.4,0.8-1.9c0.5-0.5,1.1-0.8,1.9-0.8c0.7,0,1.4,0.3,1.9,0.8
		c0.5,0.5,0.8,1.1,0.8,1.9c0,0.7-0.3,1.4-0.8,1.9c-0.5,0.5-1.1,0.8-1.9,0.8C541.8,142.9,541.2,142.7,540.7,142.1z"/>
</g>
</svg>
