<?xml version="1.0" encoding="utf-8"?>
<!-- Generator: Adobe Illustrator 25.4.1, SVG Export Plug-In . SVG Version: 6.00 Build 0)  -->
<svg version="1.1" id="Capa_1" xmlns="http://www.w3.org/2000/svg" xmlns:xlink="http://www.w3.org/1999/xlink" x="0px" y="0px"
	 viewBox="0 0 599.3 657.5" style="enable-background:new 0 0 599.3 657.5;" xml:space="preserve">
<style type="text/css">
	.st0{fill:#F66EA3;}
	.st1{fill:#F661A3;}
	.st2{fill:#FF86B9;}
	.st3{fill:#FF7AAF;}
	.st4{fill:#FEFEFE;}
	.st5{fill:#CF3456;}
	.st6{fill:#FDD9E5;}
	.st7{fill:#FDCDD8;}
	.st8{fill:#EFC3CC;}
	.st9{fill:#F65F85;}
	.st10{fill:#F77898;}
</style>
<g>
	<g>
		<path class="st0" d="M367.8,368.5c-0.1,0-0.2,0-0.3,0c-0.3,0.1-0.6,0.3-0.7,0.6c-0.4,0.8-0.8,1.6-1.2,2.4l-0.2,0.3
			c-0.8,1.4-1.6,2.9-2.5,4.3l-0.3,0.5c-2.2,3.9-4.5,7.8-6.8,11.8c-3,5.4-5.6,10.3-7.9,14.8c-2.8,5.7-4.9,10.4-6.5,14.8
			c-0.8,2.3-1.5,4.4-1.9,6.4c-0.5,2.1-0.7,3.9-0.7,5.6c0,1.7,0.3,3.2,0.9,4.5c0.3,0.6,0.7,1.1,1.2,1.6c0.5,0.5,1.1,0.9,2,1.2
			c0.5,0.2,1.2,0.3,1.9,0.3c0.2,0,0.3,0,0.5,0c0.9-0.1,1.8-0.3,2.7-0.6c2.3-0.9,4.3-2.3,5.9-3.6c1.9-1.5,3.8-3.2,6.1-5.7
			c1.9-2,3.9-4.1,6.1-6.8c3.5-4.1,6.9-8.5,10.1-12.7l0.2-0.2l0.3-0.3c1-1.3,2-2.6,3-3.8c3.3-3.9,6.6-8,9.8-12.2
			c1.4-1.8,2.7-3.7,4.1-5.5c0.2-0.3,0.2-0.7,0.1-0.9c-0.1-0.3-0.3-0.6-0.6-0.8c-0.2-0.1-0.4-0.2-0.6-0.2c-0.2-0.9-0.5-2-1-3
			c-0.5-1.1-1.3-2.1-2.4-3.2c-0.9-0.9-2-1.8-3.4-2.8c-2.4-1.6-5.2-2.9-8.4-3.8c-1.4-0.4-2.9-0.7-4.3-0.9c-0.8-0.1-1.5-0.1-2.2-0.1
			c-0.5,0-1,0-1.5,0.1c-0.2,0-0.3,0-0.5,0.1l0.1-0.2c0.1-0.3,0.2-0.6,0.1-0.9c-0.1-0.3-0.3-0.6-0.6-0.8
			C368.2,368.5,368,368.5,367.8,368.5"/>
		<path class="st1" d="M367.4,368.5c-0.3,0.1-0.6,0.3-0.8,0.6c-0.3,0.7-0.7,1.4-1.1,2.1l-0.1,0.3l-0.2,0.3c-0.8,1.4-1.6,2.9-2.5,4.3
			l-0.3,0.5l-0.2,0.4c-0.2,0.3-0.4,0.6-0.6,1c0.2,0.8,0.5,1.6,0.8,2.3c0.3,0.7,0.7,1.4,1.1,2.1c0,0,0,0,0,0c0.5,0.9,1.1,1.7,1.7,2.5
			c0.6,0.7,1.2,1.4,1.8,2c0.9,0.8,1.8,1.6,2.7,2.3c1,0.7,2,1.4,3.1,2l-0.1-0.1c2.9,1.6,6,2.9,9.2,3.7c0,0,0,0,0,0c0,0,0,0,0,0
			c0,0,0,0,0,0c1.4,0.4,2.9,0.7,4.4,0.9c1-1.3,2.1-2.6,3.1-4c1.4-1.8,2.7-3.7,4.1-5.5c0.2-0.3,0.2-0.7,0.1-1
			c-0.1-0.3-0.3-0.6-0.6-0.8c-0.2-0.1-0.4-0.2-0.6-0.2c-0.2-1-0.5-2-1-3c-0.5-1-1.3-2.1-2.4-3.2c-0.9-1-2.1-1.9-3.5-2.8
			c-2.4-1.6-5.2-2.9-8.4-3.8c-1.4-0.4-2.8-0.7-4.4-0.9c-0.8-0.1-1.5-0.1-2.2-0.1c-0.5,0-1,0-1.5,0.1l-0.3,0l0-0.2
			c0.1-0.3,0.2-0.6,0.1-1c-0.1-0.3-0.3-0.6-0.6-0.8c-0.2-0.1-0.4-0.2-0.6-0.2C367.7,368.4,367.6,368.4,367.4,368.5"/>
		<path class="st0" d="M374.9,383c12.9,8.9,28.7,8.4,35.2-1.1c6.5-9.5,1.3-24.4-11.6-33.3c-12.9-8.9-28.7-8.4-35.2,1.1
			C356.8,359.3,362,374.2,374.9,383"/>
		<path class="st1" d="M363.3,349.8c-0.3,0.4-0.5,0.8-0.7,1.1c0.1,0.6,0.3,1.3,0.4,1.9v0c0.4,1.4,0.9,2.8,1.4,4.1
			c0.6,1.3,1.2,2.6,1.9,3.8l-0.1-0.1c2.1,3.6,4.7,6.8,7.6,9.7c0,0,0,0,0,0c3.5,3.4,7.4,6.3,11.6,8.7c0,0,0,0,0,0c0,0,0,0,0,0
			c0,0,0,0,0,0c3.5,2,7.3,3.5,11.2,4.6c0,0,0,0,0,0c2.8,0.7,5.7,1.1,8.6,1.2c0.9,0,1.7,0,2.6-0.1c0.9-0.8,1.7-1.7,2.3-2.7
			c3.2-4.6,3.7-10.6,1.5-16.9c-2.2-6.3-6.9-12.1-13.1-16.4c-6-4.1-12.8-6.3-19.2-6.3C372.4,342.3,366.5,345,363.3,349.8
			 M373.9,370.3L373.9,370.3L373.9,370.3z M385.4,378.9C385.4,378.9,385.4,378.9,385.4,378.9C385.4,378.9,385.4,378.9,385.4,378.9"
			/>
		<path class="st1" d="M396.7,383.5C396.7,383.5,396.6,383.5,396.7,383.5C396.6,383.5,396.6,383.5,396.7,383.5"/>
		<path class="st2" d="M403,152.2c-0.1,0-0.3,0-0.4,0.1c-0.4,0.1-0.5,0.4-0.7,0.6c-9.1,13.8-17.2,28.1-24.1,42.7
			c-5.9,12.6-10.9,25.5-14.8,38.3c-4.4,14.3-7.4,28.6-9,42.4c-1.7,15.2-1.5,29.5,0.7,42.4c2.5,15.1,7.6,27.9,15.2,38.2
			c4.1,5.5,9,10.3,14.6,14.2c2.8,1.9,5.7,3.6,8.9,5.1c3,1.4,6.3,2.6,10,3.7c5.9,1.7,12.4,2.5,19.4,2.5c0.6,0,1.2,0,1.8,0
			c6.4-0.1,13.1-1,20.4-2.7c9.4-2.2,19-5.7,29.2-10.7c8.6-4.2,17.4-9.4,26.1-15.4c14.1-9.8,27.8-21.7,40.8-35.4l0.2-0.2l0.3-0.3
			c3.1-3.3,6.2-6.7,9.2-10.2c3.7-4.3,7.3-8.7,10.8-13.2l0.2-0.3l0.2-0.2l0.4-0.5l0.5-0.6c2.7-3.5,5-6.7,7.1-9.6c0.4-0.5,0.7-1,1-1.4
			l0.1-0.2l0.3-0.5l0.3-0.5l0.2-0.3l0.2-0.2l0.1-0.2l0.2-0.3l0.2-0.3l0.1-0.1l0.5-0.8l0.3-0.5l0.2-0.3l0.6-0.9
			c0.3-0.5,0.6-0.9,0.9-1.3l0.5-0.7l0.1-0.2l0.6-0.9l0.7-1.1l0.5-0.8l0.1-0.2l0.2-0.3l0.2-0.3l0.1-0.2l0.2-0.3
			c0.2-0.3,0.2-0.7,0.1-1c-0.1-0.3-0.3-0.6-0.6-0.7c-0.2-0.1-0.4-0.1-0.6-0.1c-0.1,0-0.3,0-0.4,0.1c-0.3,0.1-0.5,0.3-0.7,0.6
			l-0.1,0.2l-0.2,0.4l-0.1,0.2l-0.3,0.5l-0.5,0.8l-0.1,0.2l-0.1-0.5c-0.2-0.5-0.5-1.1-0.8-1.7c-0.8-1.5-1.8-3-3.1-4.5
			c-2.7-3-6-5.5-8.9-7.4c-1-0.7-2.1-1.4-3.1-2.1l-0.5-0.3l-1-0.6c-1.7-1.1-3.3-2.3-4.9-3.4c-4.6-3.3-9.3-6.5-13.9-9.8
			c-20.6-14.4-39.2-26.7-56.7-37.8l-2.4-1.5c-1.6-1-3.2-2-4.7-3c-2.3-1.5-4.7-3-7-4.5c-2.6-1.7-5.2-3.4-7.8-5.2l-1.2-0.8l-4.9-3.3
			c-8.3-5.5-18-11.8-28.1-17.3c-6.4-3.5-14.9-7.7-24.3-9.3l1.1-1.6l1.9-2.8c0.2-0.3,0.2-0.7,0.1-1c-0.1-0.3-0.3-0.6-0.6-0.7
			C403.4,152.3,403.2,152.2,403,152.2"/>
		<path class="st3" d="M523.6,259.3c-6.4,8.1-13.2,15.9-20.4,23.3c-7.2,7.5-14.8,14.6-22.8,21.2c-8,6.6-16.3,12.7-25.1,18.2
			c-8.5,5.3-17.4,10-26.7,13.7c-9,3.7-18.4,6.5-28,8.2c-9.6,1.7-19.3,2.3-29,1.6c-3.1-0.2-6.1-0.6-9.2-1.1c2.1,4.6,4.7,8.8,7.5,12.7
			c4.1,5.6,9,10.3,14.6,14.2c2.7,1.9,5.7,3.6,8.9,5.1c3,1.4,6.3,2.6,10,3.7c5.9,1.7,12.5,2.5,19.4,2.5c0.6,0,1.2,0,1.8,0
			c6.4-0.1,13.1-1,20.4-2.7c9.4-2.2,19-5.7,29.2-10.7c8.6-4.2,17.4-9.4,26.1-15.4c14-9.8,27.8-21.7,40.8-35.4l0.2-0.2l0.3-0.3
			c3.2-3.4,6.2-6.8,9.2-10.2c3.7-4.3,7.3-8.7,10.8-13.2l0.2-0.3l0.2-0.2l0.4-0.5l0.5-0.6c2.6-3.5,5-6.7,7.1-9.6c0.4-0.5,0.7-1,1-1.4
			l0.1-0.2l0.3-0.5l0.3-0.5l0.2-0.3l0.2-0.2l0.1-0.2l0.2-0.3l0.2-0.3l0.1-0.1l0.5-0.8l0.3-0.5l0.2-0.3l0.6-0.9
			c0.3-0.5,0.6-0.9,0.9-1.3l0.5-0.7l0.1-0.2l0.6-0.9l0.7-1.1l0.5-0.8l0.1-0.2l0.2-0.3l0.2-0.3l0.1-0.2l0.2-0.3
			c0.2-0.3,0.2-0.7,0.1-1c-0.1-0.3-0.3-0.6-0.7-0.7c-0.2-0.1-0.4-0.2-0.6-0.2c-0.1,0-0.3,0-0.4,0.1c-0.4,0.1-0.6,0.4-0.7,0.6
			l-0.1,0.2l-0.2,0.4l-0.1,0.2l-0.3,0.5l-0.5,0.8l-0.1,0.2l-0.1-0.5l-0.1-0.2l-0.1-0.2c-0.2-0.4-0.4-0.8-0.6-1.3
			c-0.7-1.5-1.8-3-3.1-4.5c-2.7-3-6-5.5-8.9-7.4c-1-0.7-2.1-1.4-3.1-2.1l-0.5-0.3l-1-0.6c-1.7-1.1-3.3-2.3-4.9-3.4
			c-4.6-3.3-9.3-6.5-13.9-9.8c-0.3-0.2-0.5-0.4-0.8-0.6C533.1,246.9,528.5,253.2,523.6,259.3"/>
		<path class="st0" d="M406.9,138.5c-0.1,0-0.2,0-0.3,0.1c-3.7,1.2-7.1,3.8-9.9,7.4c-1.3,1.7-2.3,3.5-2.9,5.5
			c-0.7,2-0.8,4.1-0.5,6.2c0,0.1,0.1,0.3,0.1,0.4c0.1,0.4,0.4,0.5,0.6,0.7l0.3,0.2l0.4,0.2l0.3,0.2l0.2,0.2c0.1,0.1,0.2,0.1,0.2,0.1
			l38.8,25.6l28.6,18.9l28.7,18.9l17.5,11.5l10.5,6.9l13.5,8.9l22.5,14.8l12.6,8.3l5.5,3.6l3.3,2.2c0.1,0.1,0.3,0.1,0.5,0.1
			c0.1,0,0.2,0.1,0.4,0.1c0.1,0,0.2,0,0.4-0.1c4-0.6,7.8-3.2,10.4-7.1c1.4-2,2.3-4.2,2.6-6.3c0.4-2.2,0.1-4.5-0.8-6.4
			c-0.2-0.3-0.3-0.6-0.6-0.7c-0.1-0.2-0.2-0.3-0.5-0.5l-17.8-11.8c-11.9-7.8-23.8-15.7-35.7-23.5l-33.5-22.1l-22.1-14.5l-54.5-35.9
			l-17.6-11.6c-0.1-0.1-0.3-0.1-0.5-0.1C407.2,138.6,407,138.5,406.9,138.5"/>
		<path class="st1" d="M564.8,245.2c-1.7,1.9-3.8,3.4-6,4.6c-2.3,1.1-4.8,1.9-7.3,2.3c-2.7,0.4-5.4,0.6-8.1,0.4
			c-2.8-0.2-5.7-0.6-8.5-1.3c-0.2-0.1-0.5-0.1-0.7-0.2l21.2,14l12.6,8.3l5.5,3.6l3.3,2.2c0.1,0.1,0.3,0.2,0.5,0.2
			c0.1,0,0.2,0.1,0.4,0.1c0.1,0,0.2,0,0.4-0.1c4-0.6,7.8-3.2,10.4-7.2c1.4-2,2.3-4.2,2.6-6.3c0.4-2.2,0.1-4.5-0.8-6.4
			c-0.1-0.3-0.3-0.6-0.7-0.7c-0.1-0.2-0.2-0.3-0.5-0.5l-17.8-11.8c-1.6-1.1-3.2-2.1-4.9-3.2C565.9,243.9,565.4,244.6,564.8,245.2"/>
		<path class="st1" d="M549,250.3C549,250.3,549,250.3,549,250.3C549,250.2,549,250.3,549,250.3"/>
		<path class="st4" d="M417.9,194.4c-0.6-1.5-1.6-2.9-2.9-4.1c-1.1-1-2.6-1.7-4.1-2c-0.5-0.1-0.9-0.1-1.4-0.1c-0.9,0-2,0.1-3.1,0.4
			c-1.3,0.4-2.7,1-4.4,1.9c-1.3,0.7-2.7,1.7-4.1,2.9c-1.3,1-2.5,2.2-3.7,3.4c-2.5,2.5-4.5,5.4-6,7.6c-2.1,3.2-4.1,6.5-5.9,9.8
			c-3.5,6.6-6.4,13.9-8.9,22.3c-1.8,6.1-3.3,12.6-4.3,19.2c-0.3,1.3-0.5,2.6-0.7,4c0,0.2-0.1,0.4-0.1,0.7c-0.6,2.5-1,5-1.3,7.6
			c-0.2,1.3-0.3,2.6-0.4,3.9c-0.1,0.3-0.1,0.7-0.2,1c-0.3,1.8-0.4,3.7-0.4,5.6c-0.1,1.2-0.2,2.4-0.2,3.5c0,0.1,0,0.2,0,0.4
			c0,0.2,0,0.4,0,0.6c0,0.1,0,0.2,0,0.4c0,0.6,0,1.3,0,1.9c0,0,0,0,0,0c0,0.8,0,1.6,0,2.4c0,0.9,0.1,1.9,0.1,2.8c0,0.3,0,0.7,0,1
			c0,1.5,0.1,3,0.4,4.4c0.1,1.6,0.2,3.2,0.5,4.8c0.3,1.6,0.8,3.3,1.9,4.6c0.4,0.5,0.9,0.8,1.5,1c0.1,0,0.3,0.1,0.4,0.1
			c0.2,0,0.4,0,0.6,0c0.3-0.1,0.5-0.2,0.7-0.4c0.6-0.5,1-1.1,1.3-1.7c0.5-0.8,0.9-1.7,1.3-2.6c1-2.3,1.8-4.7,2.6-7.1
			c0.9-2.6,1.6-5.2,2.4-7.8c0-0.1,0.1-0.2,0.1-0.4c0.3-0.8,0.5-1.6,0.8-2.4c1.6-3.8,3.1-7.7,4.7-11.5c0.2-0.4,0.4-0.8,0.6-1.3
			c2.2-4.7,4.5-9.3,6.9-13.9c1.2-2.3,2.3-4.6,3.5-6.9c0.5-1.1,1-2.1,1.6-3.2c1.3-2.2,2.5-4.4,3.8-6.6c1.1-1.9,2.1-3.8,3.1-5.7
			c0.5-1,1-1.9,1.5-2.9c0.3-0.6,0.6-1.3,1-2c0.8-1.6,1.7-3.2,2.5-4.8c0.5-0.9,1-1.8,1.5-2.7c1.9-3.6,3.3-6.6,4.5-9.4
			c1.6-3.8,2.6-7,3-10C419.2,199.8,419,196.9,417.9,194.4z M371,304.9C371,304.9,370.9,304.9,371,304.9c-0.1,0-0.2-0.1-0.2-0.1
			c0,0,0-0.1,0.1-0.1c0,0,0,0,0,0c0.1,0,0.1,0.1,0.2,0.1c0,0,0.1,0,0.1,0C371,304.9,371,304.9,371,304.9z"/>
		<path class="st4" d="M369.6,312.2c-0.3,0.1-0.5,0.1-0.8,0.2c-0.3,0.1-0.5,0.2-0.7,0.3c-0.4,0.2-0.8,0.6-1.2,0.9
			c-0.3,0.3-0.6,0.8-0.8,1.2c-0.3,0.5-0.5,1-0.6,1.5c-0.3,1-0.5,2-0.5,3.1c0,0.7,0,1.4,0,2.1c0,0,0,0.1,0,0.1c0,0.3,0,0.6,0,0.9
			c0,0.3,0.1,0.7,0.2,1c0.1,0.4,0.2,0.7,0.4,1c0.1,0.3,0.2,0.5,0.3,0.8c0.2,0.4,0.4,0.9,0.6,1.3c0.2,0.3,0.3,0.6,0.6,0.9
			c0.5,0.7,1.3,1.3,2.2,1.4c0.5,0,1,0,1.4-0.2c0.5-0.2,1-0.5,1.4-1c0.4-0.4,0.6-0.8,0.9-1.3c0.1-0.2,0.2-0.4,0.3-0.6
			c0.5-0.7,0.8-1.5,1.1-2.3c0.4-1.2,0.7-2.5,0.8-3.8c0.1-0.7,0.1-1.5,0.1-2.2c0,0,0,0,0,0c0-0.6-0.1-1.2-0.2-1.8
			c-0.1-0.4-0.2-0.8-0.5-1.1c-0.3-0.6-0.8-1.2-1.3-1.7c-0.7-0.5-1.7-0.8-2.6-0.8C370.1,312.1,369.9,312.1,369.6,312.2 M373.3,319.8
			C373.3,319.8,373.3,319.8,373.3,319.8C373.3,319.8,373.3,319.8,373.3,319.8C373.3,319.8,373.3,319.8,373.3,319.8"/>
	</g>
	<g>
		<g>
			<path class="st5" d="M494.5,10.7c-0.1,0-0.1,0.1-0.2,0.1c-0.1,0.1-0.2,0.2-0.3,0.3c-2.2,4.7-4.2,9.2-5.9,13.6
				c-1.8,4.6-3.5,9.4-5,14.2c-3.1,10.1-5,20-5.8,29.4c-0.6,7.5-0.3,14,0.7,20c0.6,3.5,1.6,6.7,3,9.5c0.7,1.4,1.5,2.7,2.6,4.1
				c0.9,1.2,2,2.2,3.4,3.2c0.7,0.5,1.6,1,2.5,1.4c0.5,0.2,1.1,0.4,1.6,0.6c0,0,0,0,0,0c0,0,0.1,0,0.1,0c0.2,0.1,0.4,0.2,0.6,0.2
				c0.1,0,0.2,0,0.3,0.1c0.3,0,0.5,0.1,0.8,0.1h0c0.1,0,0.3,0,0.4,0c0.4,0,0.7,0,1.1,0c0.1,0,0.2-0.1,0.2-0.1c0.1,0,0.1-0.1,0.2-0.1
				c0.2,0.1,0.5,0.2,0.7,0.2c0.8-0.1,1.7-0.2,2.5-0.5c0.6-0.2,1.2-0.4,1.8-0.7c0.9-0.4,1.8-0.9,2.5-1.4c1.4-1,2.5-2,3.4-3.2
				c1.1-1.4,1.9-2.7,2.6-4.1c1.4-2.8,2.4-6,3-9.5c1-6,1.3-12.5,0.7-20c-0.7-9.4-2.7-19.3-5.8-29.4c-1.5-4.9-3.2-9.7-5-14.2
				c-1.8-4.4-3.7-8.9-5.9-13.6c-0.1-0.2-0.3-0.3-0.6-0.3C494.7,10.6,494.6,10.6,494.5,10.7"/>
			<path class="st4" d="M491.6,27c-1.2,5-2.7,9.9-4.1,14.9c-0.7,2.5-1.4,5-2,7.5c-0.6,2.5-1.2,5-1.7,7.6c-1,5.2-1.7,10.4-1.9,15.6
				c-0.1,2.6,0,5.1,0.2,7.7c0.2,2.7,0.6,5.4,1.2,8.1c0.2,0.7,0.4,1.4,0.6,2.1c0.1,0.4,0.3,0.8,0.6,1.1c0.4,0.4,1.1,0.7,1.7,0.7
				c0.6,0,1.2-0.3,1.7-0.7c0.4-0.4,0.7-1.1,0.7-1.7c-0.1-0.8-0.2-1.6-0.3-2.4c-0.1-0.9-0.2-1.8-0.3-2.8c-0.2-1.7-0.4-3.5-0.6-5.2
				c-0.3-3.5-0.4-7-0.4-10.5c0-3.5,0.2-7,0.4-10.5c0.3-3.5,0.7-7,1.1-10.4c0,0,0,0.1,0,0.1c0.1-0.5,0.1-1,0.2-1.4
				c0.1-0.7,0.2-1.3,0.3-2c0,0.1,0,0.2,0,0.3c0.8-5.9,1.9-11.9,3.4-17.7c0.1-0.3-0.2-0.5-0.4-0.5C491.8,26.7,491.7,26.8,491.6,27
				 M488.8,46.5c0,0,0,0.1,0,0.1C488.8,46.5,488.8,46.5,488.8,46.5"/>
			<path class="st4" d="M485.7,96.4c0,1.1,0.9,2,2,2c1.1,0,2-0.9,2-2c0-1.1-0.9-2-2-2C486.6,94.4,485.7,95.3,485.7,96.4"/>
		</g>
		<g>
			<path class="st5" d="M454.2,61.7c-0.1,0-0.1,0.1-0.1,0.1c-0.1,0-0.2,0.1-0.3,0.2c-1.9,4-3.6,7.8-5.1,11.6c-1.6,3.9-3,8-4.3,12.2
				c-2.7,8.7-4.3,17.1-4.9,25.2c-0.5,6.4-0.3,12,0.6,17.1c0.5,3,1.4,5.7,2.5,8.1c0.6,1.2,1.3,2.3,2.2,3.5c0.8,1,1.7,1.9,2.9,2.8
				c0.6,0.5,1.4,0.9,2.2,1.2c0.5,0.2,0.9,0.4,1.4,0.5c0,0,0,0,0,0c0,0,0.1,0,0.1,0c0.2,0.1,0.3,0.1,0.5,0.2c0.1,0,0.2,0,0.2,0.1
				c0.2,0,0.4,0.1,0.7,0.1h0c0.1,0,0.2,0,0.3,0c0.3,0,0.6,0,1,0c0.1,0,0.1-0.1,0.2-0.1c0.1,0,0.1-0.1,0.2-0.1
				c0.2,0.1,0.4,0.2,0.6,0.2c0.7-0.1,1.4-0.2,2.2-0.4c0.5-0.2,1-0.4,1.6-0.6c0.8-0.4,1.5-0.8,2.2-1.2c1.2-0.8,2.1-1.8,2.9-2.8
				c0.9-1.2,1.7-2.3,2.2-3.5c1.2-2.4,2-5.1,2.5-8.1c0.9-5.1,1.1-10.7,0.6-17.1c-0.6-8-2.3-16.5-4.9-25.2c-1.3-4.2-2.7-8.3-4.3-12.2
				c-1.5-3.8-3.2-7.6-5.1-11.6c-0.1-0.2-0.3-0.3-0.5-0.3C454.4,61.6,454.3,61.6,454.2,61.7"/>
			<path class="st4" d="M451.8,75.7c-1.1,4.3-2.3,8.5-3.5,12.7c-0.6,2.1-1.2,4.3-1.8,6.4c-0.5,2.1-1,4.3-1.4,6.5
				c-0.9,4.4-1.5,8.9-1.6,13.4c-0.1,2.2,0,4.4,0.1,6.6c0.2,2.3,0.5,4.6,1.1,6.9c0.2,0.6,0.3,1.2,0.5,1.8c0.1,0.3,0.3,0.6,0.5,0.9
				c0.4,0.4,0.9,0.6,1.4,0.6c0.5,0,1.1-0.2,1.4-0.6c0.4-0.4,0.6-0.9,0.6-1.4c0-0.7-0.1-1.4-0.2-2.1c-0.1-0.8-0.2-1.6-0.3-2.4
				c-0.2-1.5-0.3-3-0.5-4.5c-0.3-3-0.3-6-0.3-9c0-3,0.2-6,0.4-9c0.2-3,0.6-6,0.9-8.9c0,0,0,0.1,0,0.1c0.1-0.4,0.1-0.8,0.2-1.2
				c0.1-0.6,0.2-1.1,0.2-1.7c0,0.1,0,0.2,0,0.3c0.7-5.1,1.7-10.1,2.9-15.1c0.1-0.3-0.2-0.4-0.4-0.4
				C451.9,75.4,451.8,75.5,451.8,75.7 M449.4,92.3C449.4,92.3,449.4,92.3,449.4,92.3C449.4,92.3,449.4,92.3,449.4,92.3"/>
			<path class="st4" d="M446.7,135c0,0.9,0.8,1.7,1.7,1.7c0.9,0,1.7-0.8,1.7-1.7c0-0.9-0.8-1.7-1.7-1.7
				C447.4,133.3,446.7,134.1,446.7,135"/>
		</g>
		<g>
			<path class="st5" d="M515.5,115.4c-0.1,0-0.1,0.1-0.1,0.1c-0.1,0-0.2,0.1-0.2,0.2c-1.7,3.7-3.2,7.1-4.6,10.5
				c-1.4,3.5-2.7,7.3-3.9,11c-2.4,7.8-3.9,15.5-4.5,22.8c-0.4,5.8-0.3,10.9,0.6,15.5c0.5,2.7,1.2,5.2,2.3,7.4c0.5,1,1.2,2.1,2,3.2
				c0.7,0.9,1.6,1.7,2.6,2.5c0.6,0.4,1.2,0.8,2,1.1c0.4,0.2,0.8,0.3,1.3,0.5c0,0,0,0,0,0c0,0,0.1,0,0.1,0c0.2,0.1,0.3,0.1,0.5,0.2
				c0.1,0,0.1,0,0.2,0.1c0.2,0,0.4,0.1,0.6,0.1h0c0.1,0,0.2,0,0.3,0c0.3,0,0.6,0,0.9,0c0.1,0,0.1-0.1,0.2-0.1c0,0,0.1-0.1,0.1-0.1
				c0.2,0.1,0.4,0.1,0.6,0.1c0.6-0.1,1.3-0.2,2-0.4c0.5-0.2,1-0.3,1.4-0.5c0.7-0.3,1.4-0.7,2-1.1c1.1-0.8,1.9-1.6,2.6-2.5
				c0.8-1.1,1.5-2.1,2-3.2c1.1-2.2,1.8-4.7,2.3-7.4c0.8-4.6,1-9.7,0.6-15.5c-0.6-7.3-2.1-15-4.5-22.8c-1.2-3.8-2.5-7.5-3.9-11
				c-1.4-3.4-2.9-6.9-4.6-10.5c-0.1-0.2-0.2-0.3-0.5-0.3C515.6,115.4,515.5,115.4,515.5,115.4"/>
			<path class="st4" d="M513.2,128.1c-1,3.9-2.1,7.7-3.2,11.6c-0.5,1.9-1.1,3.9-1.6,5.8c-0.5,1.9-0.9,3.9-1.3,5.9
				c-0.8,4-1.3,8-1.4,12.1c-0.1,2,0,4,0.1,6c0.2,2.1,0.4,4.2,1,6.3c0.1,0.5,0.3,1.1,0.5,1.6c0.1,0.3,0.2,0.6,0.5,0.8
				c0.3,0.3,0.8,0.5,1.3,0.5c0.5,0,1-0.2,1.3-0.5c0.3-0.3,0.6-0.8,0.5-1.3c0-0.6-0.1-1.3-0.2-1.9c-0.1-0.7-0.2-1.4-0.3-2.1
				c-0.2-1.3-0.3-2.7-0.4-4.1c-0.2-2.7-0.3-5.4-0.3-8.1c0-2.7,0.1-5.4,0.4-8.1c0.2-2.7,0.5-5.4,0.9-8.1c0,0,0,0,0,0.1
				c0.1-0.4,0.1-0.7,0.1-1.1c0.1-0.5,0.1-1,0.2-1.6c0,0.1,0,0.2,0,0.2c0.6-4.6,1.5-9.2,2.6-13.7c0.1-0.2-0.1-0.4-0.3-0.4
				C513.4,127.9,513.3,128,513.2,128.1 M511.1,143.2C511.1,143.2,511.1,143.3,511.1,143.2C511.1,143.3,511.1,143.2,511.1,143.2"/>
			<path class="st4" d="M508.6,182c0,0.8,0.7,1.5,1.5,1.5c0.8,0,1.5-0.7,1.5-1.5c0-0.8-0.7-1.5-1.5-1.5
				C509.3,180.4,508.6,181.1,508.6,182"/>
		</g>
	</g>
</g>
<g>
	<path class="st6" d="M215.7,426.5l-2.4-2.4l-2.5-2.4l-1.8-1.8l-0.8-0.7c-0.8-0.8-1.7-1.6-2.6-2.5c-1.2-1-2.5-2-3.8-2.9
		c-2.5-1.7-5.2-2.9-7.9-3.7c-2.5-0.8-5.3-1.2-8.1-1.3c-2.6-0.1-5.4,0.2-8.4,0.8c-2.7,0.5-5.5,1.3-8.7,2.4c-2.6,0.9-5.5,2-9.1,3.6
		c-0.4,0.2-0.7,0.3-1.1,0.5c-0.3,0.1-0.5,0.3-0.6,0.6c-0.1,0.3-0.1,0.6,0,0.8c0.1,0.1,0.1,0.3,0.2,0.3c0.3,0.3,0.8,0.4,1.2,0.2
		c0.6-0.2,1.1-0.5,1.7-0.7c2.5,13.6,8.3,27.2,16.9,39.5c3.9,5.6,8.4,10.9,13.3,15.6c5.8,5.6,12.2,10.6,19,14.8
		c6,3.7,12.4,6.8,19.1,9.1c0.4,0.2,0.9-0.1,1.1-0.4l0.1,0.1c-0.8,1.4-1.4,2.6-1.9,3.9c-0.2,0.4-0.1,0.9,0.3,1.2
		c0.1,0.1,0.2,0.2,0.4,0.2c0.6,0.2,1.2-0.1,1.4-0.7c0.6-1.2,1.2-2.5,2-4.1l0.1-0.2l2-3.7l0.2-0.3c2.4-4.4,4.9-9,6.7-13.7
		c1.3-3.4,1.9-6.3,2-9c0.1-2.4-0.3-5-1.3-7.9c-0.7-2.3-1.9-4.9-3.5-7.7c-1.4-2.4-3.1-5-5.2-7.8c-3.4-4.5-7.3-8.9-12.8-14.5
		C219.1,429.9,217.4,428.2,215.7,426.5"/>
	<path class="st7" d="M239.7,457.6c0.2,2.6,0.4,5.2,0.3,7.7c0,2.5-0.2,4.9-0.7,7.3c-0.7,3.8-2.3,8.1-5.9,9.9
		c-0.9,0.4-1.8,0.7-2.7,0.9c-1.1,0.2-2.2,0.2-3.3,0c-1.3-0.2-2.7-0.5-3.9-1c-1.4-0.5-2.8-1.1-4.1-1.9c-2.9-1.6-5.6-3.6-8.2-5.8
		c-2.8-2.3-5.4-4.8-7.9-7.4c-1.5-1.5-2.9-3-4.4-4.5c0,0,0,0,0,0c-0.9-0.9-1.7-1.8-2.6-2.7c-0.2-0.2-0.3-0.4-0.5-0.5c0,0,0,0-0.1-0.1
		c0,0-0.1-0.1-0.1-0.1c-0.1-0.1-0.2-0.3-0.4-0.4l-0.7-0.8c-0.6-0.6-1.1-1.2-1.7-1.8c-3.1-3.2-6-6.6-8.7-10.2
		c-2.7-3.6-5.3-7.3-7.7-11.1c-4.5-7-8.5-14.3-12.3-21.7c-1.4,0.5-2.8,1.2-4.4,1.8c-0.4,0.2-0.8,0.3-1.1,0.5
		c-0.3,0.1-0.5,0.3-0.6,0.6c-0.1,0.3-0.1,0.6,0,0.9c0.1,0.1,0.1,0.3,0.2,0.4c0.3,0.3,0.8,0.4,1.3,0.2c0.6-0.2,1.1-0.5,1.7-0.7
		c2.4,13.5,8.3,27.2,16.9,39.5c4,5.6,8.5,10.9,13.3,15.6c5.8,5.6,12.2,10.6,19,14.8c6,3.7,12.4,6.7,19.1,9.1
		c0.4,0.2,0.9-0.1,1.2-0.4l0.1,0.1c-0.7,1.3-1.4,2.5-2,3.9c-0.2,0.4-0.1,0.9,0.3,1.2c0.1,0.1,0.2,0.2,0.4,0.2
		c0.6,0.2,1.2-0.1,1.5-0.7c0.6-1.2,1.2-2.6,2-4.1l0.1-0.2l2-3.7l0.2-0.3c2.4-4.4,4.9-8.9,6.7-13.7c1.3-3.4,1.9-6.3,2-9
		c0.1-2.4-0.3-5-1.3-7.9c-0.7-2.1-1.6-4.3-3-6.8C239.5,455.8,239.6,456.7,239.7,457.6"/>
	<path class="st7" d="M98.8,517.6c-9.7-9.4-20.9-16.9-32.5-21.5c0.3-0.3,0.6-0.7,0.8-1.1l0.2-0.3c0.3-0.4,0.3-0.9,0-1.3
		c0-0.1-0.1-0.1-0.1-0.2c0,0-0.1-0.1-0.1-0.1c-0.3-0.2-0.5-0.2-0.9-0.2c-0.3,0.1-0.6,0.2-0.8,0.5l-0.6,0.8l-0.1,0.2
		c-2.3,3.3-4,5.9-5.3,8.2c-1.7,2.9-3.1,5.6-4.1,8.1c-1.2,2.9-2,5.5-2.4,8.1c-0.5,2.8-0.6,5.6-0.3,8.3c0.3,2.8,1,5.7,2.1,8.5
		c0.6,1.5,1.3,3,2.1,4.3c0.7,1.2,1.4,2.3,1.9,3.1l0.6,0.9l1.4,2.2l1.9,3l1.9,2.9c1.3,2,2.6,4.1,4,6.1c4.4,6.5,8,11.3,11.8,15.5
		c1.5,1.7,2.9,3.1,4.2,4.4c0.8,0.8,1.7,1.6,2.5,2.3c2.5,2.2,4.7,3.8,6.9,5c2.7,1.5,5.2,2.4,7.5,2.8c2.7,0.4,5.7,0.4,9.3-0.2
		c5.1-0.8,10-2.3,14.8-3.8l0.5-0.1l4.1-1.3l0.2,0c1.7-0.5,3.1-0.9,4.5-1.2c0.7-0.1,1.1-0.7,1-1.3c0-0.2-0.1-0.3-0.2-0.4
		c-0.1-0.1-0.1-0.2-0.2-0.2c-0.3-0.3-0.6-0.4-1-0.3c-1.5,0.3-2.8,0.7-4.2,1.1l0-0.1c0.3-0.1,0.6-0.5,0.6-1c-1-7-2.7-14-5.1-20.6
		c-2.8-7.5-6.4-14.8-10.8-21.6c-3.7-5.8-8-11.2-12.7-16.2C100.8,519.6,99.8,518.6,98.8,517.6"/>
	<path class="st8" d="M66.2,496.1c0.3-0.3,0.6-0.7,0.9-1.1l0.2-0.3c0.3-0.4,0.3-0.9,0-1.3c0-0.1-0.1-0.1-0.2-0.2
		c0,0-0.1-0.1-0.1-0.1c-0.3-0.2-0.6-0.2-0.9-0.2c-0.3,0.1-0.6,0.2-0.8,0.5l-0.6,0.8l-0.1,0.2c-1.8,2.6-3.2,4.8-4.4,6.7
		c4,2.7,7.9,5.5,11.7,8.4c5.8,4.5,11.3,9.2,16.5,14.3c0.4,0.4,0.7,0.7,1.1,1.1c5.1,5,10,10.3,14.4,15.8c2.3,2.9,4.5,5.9,6.5,8.9
		c1.9,2.9,3.6,5.9,5.2,8.9c0.4,0.8,0.8,1.6,1.1,2.4c0.3,0.7,0.7,1.5,1,2.2c0.5,1.3,0.9,2.7,1.2,4.1c0.2,1.2,0.3,2.3,0.1,3.5
		c-0.1,1-0.3,2-0.8,2.9c-0.4,0.9-0.9,1.7-1.6,2.4c-0.7,0.7-1.4,1.3-2.3,1.8c-1.9,1.1-4,1.8-6.1,2.2c-2.5,0.5-5.1,0.6-7.7,0.6
		c-2.7-0.1-5.4-0.3-8.1-0.7c-2.6-0.4-5.1-1-7.7-1.7c-0.2-0.1-0.4-0.1-0.6-0.2c0.8,0.8,1.6,1.5,2.4,2.2c2.5,2.2,4.8,3.8,6.9,5
		c2.7,1.5,5.2,2.4,7.5,2.8c2.7,0.4,5.7,0.4,9.3-0.2c5-0.8,10-2.3,14.7-3.8l0.5-0.2l4.1-1.3l0.2,0c1.6-0.5,3-0.8,4.5-1.2
		c0.7-0.1,1.1-0.7,1-1.3c0-0.2-0.1-0.3-0.2-0.5c-0.1-0.1-0.1-0.2-0.2-0.2c-0.3-0.3-0.7-0.4-1-0.3c-1.5,0.3-2.9,0.7-4.2,1.1
		c0.2-0.1,0.7-0.6,0.6-1.1c-1-7-2.7-14-5.1-20.6c-2.7-7.5-6.4-14.8-10.8-21.6c-3.7-5.8-8-11.2-12.7-16.2c-1-1-2-2-3-3
		C89.1,508.2,77.9,500.7,66.2,496.1"/>
	<path class="st8" d="M109.1,579.1"/>
	<polyline class="st8" points="109.1,579.1 109.1,579.1 109.1,579.1 	"/>
	<path class="st8" d="M131.9,578.2c-0.8-0.6-1.6-1.2-2.4-1.8c-0.4-0.3-0.9-0.3-1.3,0c0,0,0,0-0.1,0.1c-0.2,0.1-0.4,0.3-0.5,0.5
		c0,0.1-0.1,0.2-0.1,0.3c-0.1,0.3-0.1,0.7,0.1,1c0.3,0.4,0.6,0.6,0.9,0.9c0.1,0,0.1,0.1,0.2,0.1c0.3,0.2,0.6,0.5,0.9,0.7
		c0.3,0.3,0.8,0.3,1.1,0.1c0,0,0.1,0,0.1,0c0.5,0.1,1-0.2,1.1-0.6c0.2-0.4,0.1-0.9-0.2-1.2C132,578.3,132,578.3,131.9,578.2"/>
	<path class="st8" d="M84.2,517.2c-5.7-5.2-11.7-10-18.1-14.2c-1.1-0.7-2.2-1.4-3.3-2.1c-0.2-0.2-0.5-0.3-0.8-0.2
		c-0.3,0-0.6,0.2-0.7,0.4c-0.2,0.2-0.3,0.5-0.2,0.8c0,0.3,0.2,0.6,0.4,0.7c5.4,3.4,10.5,7.1,15.3,11.1c5.2,4.2,10.1,8.8,14.7,13.6
		c0,0,0,0,0,0c8.1,8.5,15.5,18,21.1,28.3c0,0,0-0.1-0.1-0.1c2.2,4.1,4.2,8.3,5.3,12.9c0.6,2.5,0.8,5,0.8,7.5c0,0.3,0.2,0.6,0.4,0.7
		c0.2,0.2,0.5,0.3,0.8,0.2c0.3,0,0.6-0.2,0.7-0.4c0.2-0.2,0.2-0.5,0.2-0.8c0-4-0.7-7.9-2-11.6c-0.6-1.8-1.4-3.6-2.3-5.3
		c-0.8-1.7-1.7-3.3-2.6-4.9c-3.7-6.8-8.2-13.1-13.1-19.1c-3.8-4.6-7.8-8.9-12-13.1C87.3,520.1,85.7,518.7,84.2,517.2 M91.3,527.1
		c0,0,0.1,0.1,0.1,0.1C91.3,527.2,91.3,527.2,91.3,527.1"/>
	<path class="st8" d="M101.2,530.9c-0.5,0.3-0.6,1-0.2,1.5c2,2.6,4,5.3,5.8,8.1c-0.1,0.3,0,0.6,0.2,0.9c1.6,2.2,3.2,4.5,4.7,6.8
		c1.8,2.8,3.5,5.7,5.2,8.5c0.3,0.5,1.1,0.6,1.5,0.2c0.2-0.2,0.4-0.4,0.4-0.7c0-0.3-0.1-0.5-0.2-0.8c-1.6-2.9-3.4-5.7-5.2-8.4
		c-3.4-5.4-6.8-10.7-10.7-15.8c0,0-0.1-0.1-0.1-0.1C102.2,530.6,101.7,530.5,101.2,530.9"/>
	<path class="st6" d="M135.5,375c-1.3-1.3-2.6-2.5-4-3.6c-4.5-3.8-9.5-7-14.7-9.4c-5-2.3-10.2-4.1-15.5-5.3
		c-5.5-1.2-10.8-1.8-15.9-1.8c-5.5,0-10.8,0.6-15.8,1.7c-5.3,1.2-10.3,3-15,5.3c-4.8,2.4-9.4,5.5-13.5,9c-0.1,0.1-0.2,0.2-0.2,0.3
		c-3,2.6-5.8,5.4-8.3,8.5c-3.3,4-6.1,8.5-8.5,13.4c-2.2,4.6-3.9,9.7-5.1,15c-1.1,5-1.7,10.4-1.7,16c0,5.4,0.6,10.9,1.8,16.3
		c1.2,5.7,3.3,11.2,6,16.4c2.5,4.8,5.7,9.5,9.5,14.2c2.6,3.2,5.6,6.4,9.2,9.9c0.9,0.9,1.8,1.7,2.7,2.6c5.8,5.4,12,10.5,17.9,15.4
		c3,2.4,5.9,4.9,8.8,7.3c2.4,2.1,4.6,3.9,6.5,5.7c2.4,2.2,4.7,4.4,6.9,6.5l1.5,1.5c4.5,4.4,9,8.9,13.3,13.5c2,2.1,4.1,4.3,6.1,6.5
		c1,1.5,2,3,2.9,4.5c1.8,2.8,3.5,5.4,5.1,8.1c1.3,2.2,2.7,4.6,4.3,7.5c1.9,3.3,3.7,6.7,5.5,10.1c3.7,6.8,7.5,13.9,11.7,20.6
		c3.4,5.5,6.7,10.1,10,14.1c2.1,2.6,4.3,5,6.5,7.1c1.8,1.8,3.7,3.4,5.5,4.9c4.6,3.7,9.6,6.7,15,9c5,2.2,10.3,3.8,15.6,4.9
		c5.5,1.1,10.9,1.5,16,1.4c5.5-0.1,10.8-0.8,15.7-2.1c5.3-1.4,10.3-3.3,14.8-5.7c3.5-1.9,6.8-4.1,9.9-6.5c0.1,0,0.2-0.1,0.3-0.2
		c4.3-3.4,8.1-7.2,11.4-11.5c3.2-4.1,5.9-8.7,8.1-13.7c2.1-4.7,3.7-9.8,4.7-15.2c1-5,1.4-10.4,1.3-16c-0.1-5.5-0.9-10.9-2.2-16.2
		c-1.4-5.6-3.5-11.1-6.4-16.3c-2.6-4.7-5.9-9.4-9.9-13.9c-2-2.3-4.1-4.6-6.6-7c-1.7-1.7-3.6-3.4-5.6-5.2
		c-5.9-5.2-12.2-10.1-18.3-14.9c-3-2.4-6.1-4.7-9.1-7.1c-2.4-1.9-4.6-3.8-6.7-5.5c-2.4-2.1-4.8-4.3-7.1-6.4
		c-4-3.6-7.9-7.4-11.8-11.2c-1.2-1.1-2.3-2.3-3.4-3.4c-1-1-2-2-3-3c-1.3-2-2.5-4.1-3.8-6.1c-1.6-2.6-3.3-5.4-4.9-8.2
		c-1.3-2.3-2.6-4.7-4.1-7.6c-1.8-3.4-3.5-6.8-5.2-10.3c-3.5-6.9-7.1-14-11.1-20.8c-3.4-5.7-6.4-10.2-9.6-14.3
		C140.8,380.6,138.1,377.6,135.5,375"/>
	<path class="st6" d="M168.9,432.6c-0.5,0.4-0.6,1-0.3,1.5c6.3,9.9,12.3,20,19.6,29.2c0.4,0.5,1,0.6,1.5,0.3c0.5-0.3,0.6-1,0.3-1.5
		c-7.4-9.2-13.4-19.3-19.6-29.2c0-0.1-0.1-0.1-0.1-0.2C169.9,432.4,169.3,432.3,168.9,432.6"/>
	<path class="st6" d="M169.7,430.8c-0.3-0.1-0.5-0.1-0.8,0c-0.3,0.1-0.5,0.3-0.6,0.6c-0.1,0.2-0.2,0.6,0,0.8
		c6.1,12.8,14.7,24.1,23.8,34.8c0.2,0.2,0.4,0.4,0.7,0.4c0.3,0,0.6,0,0.8-0.2c0.4-0.3,0.7-1.1,0.3-1.5c-8.3-9.7-16.1-19.9-22-31.3
		c0,0,0,0,0,0c-0.5-1-1-2-1.5-3.1c-0.1-0.2-0.2-0.3-0.3-0.4C169.9,430.9,169.8,430.9,169.7,430.8"/>
	<path class="st6" d="M168.6,431.9c-0.5,0.4-0.6,1-0.3,1.5c7.8,12.6,16.3,24.7,26.6,35.4c0.2,0.2,0.5,0.3,0.8,0.2
		c0.3,0,0.6-0.2,0.7-0.4c0.2-0.2,0.3-0.5,0.2-0.8c0-0.3-0.2-0.5-0.4-0.7c-0.8-0.8-1.5-1.6-2.3-2.4c0.1,0.1,0.1,0.1,0.2,0.2
		c-9.2-10-17-21.2-24.2-32.8c0-0.1-0.1-0.1-0.1-0.2C169.6,431.7,169,431.6,168.6,431.9"/>
	<path class="st6" d="M168.5,432.3c-0.5,0.3-0.6,1-0.3,1.5c8.2,12.8,17.4,24.9,28,35.9c0.2,0.2,0.5,0.3,0.8,0.2
		c0.3,0,0.6-0.2,0.7-0.4c0.2-0.2,0.3-0.5,0.2-0.8c0-0.3-0.2-0.5-0.4-0.7c-1.1-1.1-2.2-2.3-3.3-3.5c0.1,0.1,0.1,0.1,0.2,0.2
		c-9.2-9.9-17.2-20.8-24.5-32.2c0-0.1-0.1-0.1-0.1-0.2C169.5,432.1,168.9,432,168.5,432.3"/>
	<path class="st6" d="M171.8,437.4c-0.5,0.4-0.6,1-0.3,1.5c7.7,12.4,17.9,23,27.9,33.6c0.2,0.2,0.5,0.3,0.8,0.2
		c0.3,0,0.6-0.2,0.7-0.4c0.2-0.2,0.3-0.5,0.2-0.8c0-0.3-0.2-0.5-0.4-0.7c-2.9-3.1-5.8-6.1-8.7-9.2c0.1,0.1,0.1,0.1,0.2,0.2
		c-7-7.6-13.6-15.4-19-24.2c0-0.1-0.1-0.1-0.1-0.2C172.8,437.1,172.2,437.1,171.8,437.4"/>
	<path class="st6" d="M171.2,437.7c-0.5,0.3-0.6,1-0.3,1.5c8.9,12.8,19.8,24.1,30.8,35.1c0.4,0.4,1.2,0.3,1.5-0.1
		c0.2-0.2,0.3-0.5,0.2-0.8c0-0.3-0.2-0.5-0.4-0.7c-4.9-4.8-9.6-9.7-14.3-14.7l0.2,0.2c-5.9-6.4-11.4-13-16.4-20.1
		c0-0.1-0.1-0.1-0.1-0.2C172.2,437.5,171.7,437.4,171.2,437.7"/>
	<path class="st6" d="M172.6,439.5c-0.5,0.3-0.6,1-0.3,1.5c8,11.7,18.1,21.7,27.7,32c0.2,0.2,0.5,0.3,0.8,0.2c0.3,0,0.6-0.2,0.7-0.4
		c0.2-0.2,0.3-0.5,0.2-0.8c0-0.3-0.2-0.5-0.4-0.7c-3.8-4-7.6-8-11.3-12l0.2,0.2c-5.8-6.3-11.4-12.7-16.2-19.8c0-0.1-0.1-0.1-0.1-0.1
		C173.6,439.3,173.1,439.2,172.6,439.5"/>
	<path class="st6" d="M100.8,527.3c-0.3,0-0.6,0-0.8,0.2c-0.5,0.3-0.6,1-0.3,1.5c5,6.1,10.1,12,15.3,17.8c0.2,0.2,0.4,0.4,0.7,0.4
		c0.3,0,0.6,0,0.8-0.2c0.2-0.2,0.4-0.4,0.4-0.7c0-0.3,0-0.6-0.2-0.8c-5.3-5.8-10.4-11.7-15.3-17.8c0,0-0.1-0.1-0.1-0.1
		C101.2,527.4,101,527.3,100.8,527.3"/>
	<path class="st6" d="M97.7,525.5c-0.5,0.3-0.6,1-0.3,1.5c5.8,8,12.1,15.6,18.4,23.2c0.2,0.2,0.4,0.4,0.7,0.4c0.3,0.1,0.6,0,0.8-0.2
		c0.4-0.3,0.6-1.1,0.3-1.5c-6.3-7.6-12.6-15.2-18.4-23.2c0-0.1-0.1-0.1-0.1-0.1C98.8,525.3,98.2,525.2,97.7,525.5"/>
	<path class="st6" d="M96.8,525.2c-0.5,0.3-0.6,1-0.3,1.5c5.6,7.5,12,14.4,17.7,21.9c0.4,0.5,1,0.6,1.5,0.3c0.5-0.3,0.6-1,0.3-1.5
		c-5.6-7.5-12-14.4-17.7-21.9c0,0-0.1-0.1-0.1-0.1C97.8,525,97.2,524.9,96.8,525.2"/>
	<path class="st6" d="M102.5,529c-0.3,0-0.6,0-0.8,0.2c-0.4,0.3-0.6,1.1-0.3,1.5c3.5,4.2,7.1,8.4,10.4,12.8c0.4,0.5,1,0.6,1.5,0.3
		c0.5-0.3,0.6-1,0.3-1.5c-3.3-4.4-6.8-8.6-10.3-12.8c0,0-0.1-0.1-0.1-0.1C102.9,529.1,102.7,529,102.5,529"/>
	<path class="st6" d="M99.3,526.4c-0.3,0-0.6,0-0.8,0.2c-0.4,0.3-0.6,1-0.3,1.5c4.5,5.5,9.3,10.8,13.6,16.5c0.4,0.5,1,0.6,1.5,0.3
		c0.5-0.3,0.6-1,0.3-1.5c-4.3-5.7-9.1-11-13.6-16.4c0-0.1-0.1-0.1-0.1-0.1C99.7,526.6,99.5,526.5,99.3,526.4"/>
	<path class="st6" d="M99.7,527.6c-0.3,0-0.6,0-0.8,0.2c-0.2,0.2-0.4,0.4-0.4,0.7c0,0.3,0,0.6,0.2,0.8c4.9,5.3,9.5,10.9,14,16.6
		c0.4,0.5,1,0.6,1.5,0.3c0.5-0.3,0.6-1,0.3-1.5c-4.4-5.7-9.1-11.2-14-16.6c0,0-0.1-0.1-0.1-0.1C100.1,527.8,100,527.7,99.7,527.6"/>
	<path class="st6" d="M100.7,529.7c-0.5,0.3-0.6,1-0.3,1.5c4.3,5.6,8.7,11.2,13.1,16.8c0.4,0.5,1,0.6,1.5,0.3c0.5-0.3,0.6-1,0.3-1.5
		c-4.4-5.5-8.8-11.1-13.1-16.8c0,0-0.1-0.1-0.1-0.1C101.7,529.4,101.1,529.4,100.7,529.7"/>
	<path class="st6" d="M101.2,529.1c-0.3,0-0.6,0-0.8,0.2c-0.5,0.3-0.6,1-0.3,1.5c5,5.9,9.8,12,14.3,18.2c0.3,0.5,1,0.6,1.5,0.3
		c0.5-0.3,0.6-1,0.3-1.5c-4.6-6.3-9.4-12.3-14.4-18.2c0-0.1-0.1-0.1-0.1-0.1C101.6,529.2,101.4,529.1,101.2,529.1"/>
	<path class="st7" d="M265.9,587.3c-2.5,2.8-5.1,5.5-7.9,8c-2.7,2.3-5.4,4.5-8.4,6.4c-2.9,1.9-5.8,3.6-8.9,5
		c-2.7,1.3-5.5,2.4-8.4,3.3c-2.6,0.8-5.3,1.5-8.1,1.8c-2.6,0.4-5.3,0.6-8,0.5c-2.5-0.1-5-0.3-7.5-0.8c-2.5-0.5-5-1.1-7.4-2
		c-2.4-0.8-4.7-1.8-6.9-2.9c-4.7-2.4-9.2-5.3-13.3-8.6c-4.5-3.5-8.7-7.4-12.7-11.5c-4.1-4.2-8-8.6-11.7-13.2
		c-3.9-4.7-7.6-9.5-11.3-14.3c-3.6-4.7-7.2-9.5-10.8-14.2c-3.4-4.4-6.9-8.9-10.5-13.1c0,0,0,0,0.1,0.1c-1.5-1.8-3-3.5-4.5-5.2
		c-1.9-2.1-3.9-4.2-6-6.2c-3.1-3-6.3-5.9-9.6-8.6c-3.2-2.6-6.4-5.2-9.7-7.7c-6.8-5.1-13.7-10.1-20.5-15.1c-3.5-2.6-6.9-5.2-10.3-7.9
		c-3.2-2.6-6.4-5.2-9.4-8c-3.6-3.3-7.1-6.7-10.4-10.3c-3.2-3.5-6.1-7.2-8.8-11.2c-1.3-1.9-2.5-3.8-3.6-5.8c-0.9-1.7-1.8-3.4-2.7-5.1
		c-1.6-3.4-3-7-4.1-10.6c-1.1-3.6-1.9-7.2-2.4-10.9c-0.6-3.8-0.9-7.7-0.9-11.5c0-2.9,0.1-5.8,0.3-8.7c-1,2.9-1.9,5.9-2.6,9.1
		c-1.1,5-1.7,10.4-1.7,16c0,5.5,0.6,11,1.8,16.3c1.2,5.7,3.3,11.2,6,16.4c2.5,4.8,5.7,9.5,9.5,14.2c2.7,3.2,5.7,6.5,9.2,9.9
		c0.9,0.9,1.8,1.7,2.7,2.6c5.8,5.4,12.1,10.6,17.8,15.2l0.2,0.2l0.5,0.4c2.8,2.3,5.6,4.6,8.4,6.9c2.5,2.1,4.6,4,6.5,5.7
		c2.3,2,4.4,4.1,6.9,6.5l1.5,1.5c4.5,4.4,9,8.9,13.3,13.5c0.9,0.9,1.7,1.8,2.6,2.7l1.2,1.4l0.9,1.1l0.4,0.5l3.2,4.1l0.8,1.2
		c1.9,3,3.5,5.4,5.1,8.1c1.3,2.2,2.7,4.6,4.3,7.5c1.9,3.3,3.7,6.7,5.5,10.1c3.5,6.5,7.4,13.8,11.7,20.6c3.4,5.5,6.7,10.1,10,14.1
		c2.1,2.6,4.3,5,6.5,7.1c1.8,1.7,3.6,3.4,5.5,4.9c4.6,3.7,9.6,6.7,15,9c5,2.2,10.3,3.8,15.6,4.9c5.5,1.1,10.8,1.5,16,1.4
		c5.5-0.1,10.8-0.9,15.7-2.1c5.3-1.4,10.3-3.3,14.8-5.7c3.5-1.9,6.8-4.1,10-6.5c0.1,0,0.2-0.1,0.3-0.2c4.3-3.4,8.1-7.2,11.4-11.5
		c3.2-4.1,5.9-8.7,8.1-13.7c1.3-3,2.4-6.1,3.4-9.4C268.3,584.4,267.1,585.8,265.9,587.3"/>
	<path class="st9" d="M133.9,394.4c-1.1-1.1-2.3-2.2-3.5-3.2c-3.9-3.3-8.2-6.2-12.7-8.4c-4.3-2.1-8.7-3.8-13.2-4.9
		c-4.6-1.2-9.2-1.9-13.5-2c-4.6-0.2-9.1,0.1-13.3,0.9c-4.4,0.9-8.6,2.2-12.4,4c-4,1.9-7.7,4.3-11.1,7.1c-0.1,0.1-0.1,0.1-0.2,0.2
		c-2.4,2-4.7,4.3-6.7,6.9c-2.6,3.3-4.9,7-6.7,11.1c-1.7,3.8-3,8-3.8,12.5c-0.8,4.2-1.1,8.7-0.9,13.4c0.2,4.6,0.9,9.3,2,13.8
		c1.2,4.8,3.1,9.5,5.6,14c2.2,4.1,5.1,8.2,8.5,12.2c2.3,2.8,5,5.6,8,8.6c0.8,0.8,1.6,1.5,2.4,2.3c5,4.7,10.6,9.3,15.5,13.4l0.2,0.1
		l0.4,0.3c2.5,2.1,4.9,4.1,7.3,6.1c2.2,1.8,4,3.5,5.7,5c2,1.8,3.8,3.6,6.1,5.7l1.3,1.3c4,3.9,7.9,7.8,11.7,11.8
		c0.8,0.8,1.5,1.6,2.3,2.4l1.1,1.2l0.8,0.9l0.3,0.4c0.9,1.2,1.9,2.4,2.8,3.6l0.7,1c1.7,2.6,3.1,4.7,4.5,6.9c1.2,1.9,2.4,4,3.9,6.4
		c1.7,2.9,3.3,5.7,4.9,8.6c3.2,5.6,6.7,11.9,10.5,17.7c3.1,4.7,6,8.7,8.9,12.2c1.9,2.2,3.8,4.3,5.7,6.2c1.6,1.5,3.2,3,4.8,4.3
		c4,3.2,8.3,6,12.9,8.1c4.3,2,8.8,3.6,13.3,4.6c4.6,1.1,9.2,1.6,13.5,1.7c4.6,0.1,9.1-0.4,13.2-1.3c4.4-1,8.5-2.4,12.3-4.3
		c2.9-1.4,5.6-3.2,8.2-5.2c0.1,0,0.2-0.1,0.3-0.1c3.5-2.7,6.6-5.8,9.3-9.3c2.5-3.3,4.7-7.1,6.4-11.2c1.6-3.9,2.8-8.1,3.5-12.6
		c0.7-4.2,0.9-8.7,0.6-13.4c-0.3-4.6-1.1-9.2-2.4-13.7c-1.4-4.8-3.4-9.5-5.9-13.9c-2.4-4-5.3-8.1-8.8-12c-1.8-2-3.7-4-5.8-6.1
		c-1.4-1.4-3.1-2.9-4.9-4.6c-5.1-4.6-10.5-8.9-15.8-13l-0.1-0.1l-0.7-0.6c-2.5-1.9-4.8-3.8-7.1-5.7c-2-1.6-3.9-3.2-5.8-4.9
		c-2-1.8-4.1-3.6-6.2-5.6c-3.2-3-6.5-6.1-9.7-9.2l-0.1-0.1l-0.1-0.1l0.1,0.2l-1-1.1c-0.8-0.9-1.6-1.8-2.4-2.7
		c-0.5-0.5-0.9-1.1-1.3-1.6c-1.5-1.9-2.9-3.7-4.3-5.5c-0.8-1.1-1.6-2.3-2.4-3.4c-0.9-1.4-1.7-2.7-2.5-4.1c-1.1-1.8-2.2-3.8-3.7-6.5
		c-1.5-2.6-2.9-5.3-4.3-8l-0.5-0.9c-3.2-5.9-6.4-12-10-17.9c-3-4.9-5.7-8.8-8.6-12.4C138.5,399.2,136.2,396.7,133.9,394.4"/>
	<path class="st10" d="M142.2,438.9c-18.7-18.3-32-27.4-35.5-24.4c-2.6,2.3,0.7,11.2,9.3,25.1c8.7,13.9,21.6,31.1,36.4,48.5
		c10.1,11.8,20.5,23,30,32.3c18.7,18.3,32,27.4,35.5,24.4c5.4-4.7-15.1-37.7-45.8-73.6C162.2,459.4,151.8,448.2,142.2,438.9"/>
	<path class="st10" d="M106.8,469.8c-18.7-18.3-32-27.4-35.5-24.4c-5.4,4.7,15.1,37.7,45.8,73.6c10.1,11.8,20.5,23,30,32.3
		c18.7,18.3,32,27.4,35.5,24.4c2.6-2.3-0.7-11.2-9.3-25.1c-8.6-13.9-21.6-31.1-36.4-48.5C126.7,490.3,116.3,479.1,106.8,469.8"/>
</g>
</svg>
