<?xml version="1.0" encoding="utf-8"?>
<!-- Generator: Adobe Illustrator 25.4.1, SVG Export Plug-In . SVG Version: 6.00 Build 0)  -->
<svg version="1.1" id="Capa_1" xmlns="http://www.w3.org/2000/svg" xmlns:xlink="http://www.w3.org/1999/xlink" x="0px" y="0px"
	 viewBox="0 0 654 256" style="enable-background:new 0 0 654 256;" xml:space="preserve">
<style type="text/css">
	.st0{opacity:0.7;fill:#CAE591;}
	.st1{fill:#3C246F;}
</style>
<g>
	<path class="st0" d="M138.4,121.7c-12.6-8.6-103.3,1.4-110-1.2C23,117,30.1,55.2,34.9,46c1.7-3.3,3.7-3.8,8.4-2.3
		c7.5,2.8,103.2-3.1,103.2-3.1c1.3,1.9,4.9-4.6,5.7-2.2c2.3,5.4,157.4-2.6,170.7-2.9c8-0.2,1.8,3.5,11.2,2c20.1-3,64-0.4,79.2-3.8
		c12.1-2.9,14.8-2.9,26.6-0.7c12,2,75.6-1.2,82.8-5.5c1.7-1.2,3.1-0.8,3.2,0.6c0,0.3,44.9,1.1,45.1,2.2c0.4,1.4,1.8,2,3,1.1
		c2.3-1.4,50-6.8,50.8-2.8c2.6,11.4-2.8,60.1-8.1,72c-5.4,12.7-36.9-1.4-61.8,6.3l-116.7,1.2l-24.9,4.8c-3-4.1-13.8,6.3-20.6-1
		c-2.9-2.9-22.8-3.3-27.1-0.2c-3.8,2.4-105.6-3.2-115.8,5.1C231,109.7,155.9,119.9,138.4,121.7z"/>
	<path class="st0" d="M194.6,170.9c-9.7-8.8-79.8,0-85-2.7c-4.2-3.6,1.5-65.3,5.3-74.4c1.3-3.2,2.9-3.7,6.5-2.2
		c5.8,2.9,79.7-1.7,79.7-1.7c1,1.9,3.8-4.5,4.4-2.1c1.8,5.5,121.7-0.4,131.9-0.6c6.2-0.1,1.3,3.6,8.6,2.1
		c15.5-2.8,49.5,0.5,61.2-2.7c9.4-2.7,11.4-2.7,20.5-0.4c9.3,2.1,58.5-0.2,64-4.4c1.4-1.2,2.4-0.7,2.4,0.6c0,0.3,34.7,1.7,34.9,2.8
		c0.3,1.4,1.3,2,2.3,1.1c1.8-1.4,38.6-6.1,39.3-2.1c2,11.5-2.4,60.1-6.5,71.9c-4.2,12.6-28.5-1.9-47.8,5.5l-90.2-0.4l-19.3,4.5
		c-2.3-4.1-10.6,6.1-15.9-1.3c-2.2-2.9-17.6-3.6-20.9-0.5c-2.9,2.4-81.6-4.7-89.5,3.5C266.1,160.3,208,169.4,194.6,170.9z"/>
	<path class="st0" d="M147.2,225.1c-10.9-8-83.7,6.4-89.3,4.2c-4.7-3.2-3.3-65.2,0-74.6c1.1-3.3,2.7-4,6.7-2.7
		c6.3,2.4,83.5-8.1,83.5-8.1c1.2,1.8,3.7-4.8,4.5-2.5c2.3,5.3,127.5-10.2,138.2-11.2c6.5-0.6,1.7,3.4,9.2,1.4
		c16.1-4,51.9-3.5,64-7.7c9.6-3.5,11.8-3.7,21.5-2c9.9,1.4,61.3-4.9,66.8-9.5c1.3-1.3,2.5-0.9,2.6,0.4c0,0.3,36.5-1.1,36.8,0
		c0.4,1.3,1.6,1.9,2.5,0.9c1.8-1.5,40.1-9.2,41-5.3c2.9,11.3,2,60.1-1.4,72.2c-3.5,12.9-30,0.4-49.7,9.3l-94.6,6.9l-19.9,6
		c-2.7-4-10.7,6.9-16.8,0c-2.5-2.8-18.7-2.2-22,1.2c-2.9,2.6-85.9,1.9-93.6,10.7C221.5,208.7,161.2,222.5,147.2,225.1z"/>
</g>
<g>
	<path class="st1" d="M32,84.5l3.5,2l-0.9,1.6L31.1,86l0,4h-1.8l0-4l-3.6,2.1l-0.9-1.6l3.5-2l-3.5-1.9l0.9-1.6l3.6,2.1l0-4h1.8l0,4
		l3.6-2.1l0.9,1.6L32,84.5z"/>
	<path class="st1" d="M39.2,80.3h8.7c2.2,0,4.1,0.4,5.8,1.3c1.7,0.9,3,2.1,3.9,3.6c0.9,1.6,1.4,3.3,1.4,5.4c0,2-0.5,3.8-1.4,5.4
		c-0.9,1.6-2.2,2.8-3.9,3.6s-3.6,1.3-5.8,1.3h-8.7V80.3z M47.6,98.3c1.7,0,3.1-0.3,4.4-1s2.2-1.6,2.9-2.7c0.7-1.2,1-2.5,1-4
		c0-1.5-0.3-2.9-1-4c-0.7-1.2-1.7-2.1-2.9-2.7s-2.7-1-4.4-1h-5.5v15.4H47.6z"/>
	<path class="st1" d="M77,94H64.4c0.2,1.4,0.8,2.5,1.8,3.3c1,0.8,2.3,1.2,3.8,1.2c1.9,0,3.4-0.6,4.5-1.9l1.6,1.8
		c-0.7,0.8-1.6,1.4-2.6,1.9s-2.2,0.6-3.5,0.6c-1.6,0-3.1-0.3-4.4-1c-1.3-0.7-2.3-1.6-2.9-2.8c-0.7-1.2-1-2.6-1-4.1
		c0-1.5,0.3-2.9,1-4.1c0.7-1.2,1.6-2.2,2.8-2.8c1.2-0.7,2.5-1,4-1c1.5,0,2.8,0.3,4,1c1.2,0.7,2.1,1.6,2.7,2.8c0.7,1.2,1,2.6,1,4.2
		C77,93.4,77,93.7,77,94z M66,88.8c-0.9,0.8-1.4,1.9-1.6,3.2h10c-0.2-1.3-0.7-2.4-1.6-3.2s-2-1.2-3.4-1.2C68,87.5,66.9,87.9,66,88.8
		z"/>
	<path class="st1" d="M81.7,100.5c-1.2-0.3-2.1-0.8-2.8-1.3l1.2-2.2c0.7,0.5,1.5,0.9,2.5,1.2c1,0.3,2,0.4,3,0.4
		c2.5,0,3.7-0.7,3.7-2.1c0-0.5-0.2-0.8-0.5-1.1s-0.7-0.5-1.2-0.6c-0.5-0.1-1.2-0.3-2.1-0.4c-1.3-0.2-2.3-0.4-3.1-0.7
		c-0.8-0.3-1.5-0.7-2-1.3c-0.6-0.6-0.9-1.5-0.9-2.6c0-1.4,0.6-2.5,1.8-3.4c1.2-0.9,2.7-1.3,4.7-1.3c1,0,2.1,0.1,3.1,0.4
		c1,0.3,1.9,0.6,2.6,1l-1.2,2.2c-1.3-0.8-2.8-1.2-4.5-1.2c-1.2,0-2.1,0.2-2.7,0.6c-0.6,0.4-0.9,0.9-0.9,1.6c0,0.5,0.2,0.9,0.5,1.2
		c0.4,0.3,0.8,0.5,1.3,0.6c0.5,0.1,1.2,0.3,2.2,0.5c1.3,0.2,2.3,0.4,3,0.7c0.8,0.2,1.4,0.7,2,1.2c0.5,0.6,0.8,1.4,0.8,2.5
		c0,1.4-0.6,2.5-1.8,3.4s-2.8,1.2-4.9,1.2C84.1,101,82.9,100.8,81.7,100.5z"/>
	<path class="st1" d="M107.9,86.1c1.2,0.7,2.1,1.6,2.8,2.8c0.7,1.2,1,2.6,1,4.1c0,1.6-0.3,2.9-1,4.2c-0.7,1.2-1.6,2.1-2.8,2.8
		c-1.2,0.7-2.5,1-4,1c-1.1,0-2.1-0.2-3.1-0.6c-0.9-0.4-1.7-1.1-2.4-1.9v8h-2.8V85.3h2.7v2.5c0.6-0.9,1.4-1.5,2.4-2
		c1-0.4,2-0.7,3.2-0.7C105.4,85.1,106.7,85.5,107.9,86.1z M106.3,97.9c0.8-0.5,1.4-1.1,1.9-1.9c0.5-0.8,0.7-1.8,0.7-2.9
		c0-1.1-0.2-2-0.7-2.9c-0.5-0.8-1.1-1.5-1.9-1.9c-0.8-0.4-1.7-0.7-2.7-0.7c-1,0-1.9,0.2-2.7,0.7c-0.8,0.5-1.4,1.1-1.9,1.9
		c-0.5,0.8-0.7,1.8-0.7,2.8c0,1.1,0.2,2,0.7,2.9c0.5,0.8,1.1,1.5,1.9,1.9s1.7,0.7,2.7,0.7C104.7,98.6,105.5,98.3,106.3,97.9z"/>
	<path class="st1" d="M130.2,85.3v15.6h-2.7v-2.3c-0.6,0.8-1.3,1.4-2.2,1.9c-0.9,0.4-1.9,0.7-3,0.7c-2.1,0-3.7-0.6-4.9-1.7
		c-1.2-1.1-1.8-2.8-1.8-5.1v-8.9h2.8v8.6c0,1.5,0.4,2.6,1.1,3.4c0.7,0.8,1.8,1.2,3.1,1.2c1.5,0,2.7-0.5,3.5-1.4
		c0.9-0.9,1.3-2.2,1.3-3.8v-8H130.2z"/>
	<path class="st1" d="M149.5,94h-12.6c0.2,1.4,0.8,2.5,1.8,3.3c1,0.8,2.3,1.2,3.8,1.2c1.9,0,3.4-0.6,4.5-1.9l1.6,1.8
		c-0.7,0.8-1.6,1.4-2.6,1.9s-2.2,0.6-3.5,0.6c-1.6,0-3.1-0.3-4.4-1c-1.3-0.7-2.3-1.6-2.9-2.8c-0.7-1.2-1-2.6-1-4.1
		c0-1.5,0.3-2.9,1-4.1c0.7-1.2,1.6-2.2,2.8-2.8c1.2-0.7,2.5-1,4-1c1.5,0,2.8,0.3,4,1c1.2,0.7,2.1,1.6,2.7,2.8c0.7,1.2,1,2.6,1,4.2
		C149.6,93.4,149.6,93.7,149.5,94z M138.5,88.8c-0.9,0.8-1.4,1.9-1.6,3.2h10c-0.2-1.3-0.7-2.4-1.6-3.2s-2-1.2-3.4-1.2
		C140.5,87.5,139.4,87.9,138.5,88.8z M143.6,79.2h3.6l-4.9,3.8h-2.6L143.6,79.2z"/>
	<path class="st1" d="M154.3,100.5c-1.2-0.3-2.1-0.8-2.8-1.3l1.2-2.2c0.7,0.5,1.5,0.9,2.5,1.2c1,0.3,2,0.4,3,0.4
		c2.5,0,3.7-0.7,3.7-2.1c0-0.5-0.2-0.8-0.5-1.1s-0.7-0.5-1.2-0.6c-0.5-0.1-1.2-0.3-2.1-0.4c-1.3-0.2-2.3-0.4-3.1-0.7
		c-0.8-0.3-1.5-0.7-2-1.3c-0.6-0.6-0.9-1.5-0.9-2.6c0-1.4,0.6-2.5,1.8-3.4c1.2-0.9,2.7-1.3,4.7-1.3c1,0,2.1,0.1,3.1,0.4
		c1,0.3,1.9,0.6,2.6,1l-1.2,2.2c-1.3-0.8-2.8-1.2-4.5-1.2c-1.2,0-2.1,0.2-2.7,0.6c-0.6,0.4-0.9,0.9-0.9,1.6c0,0.5,0.2,0.9,0.5,1.2
		c0.4,0.3,0.8,0.5,1.3,0.6c0.5,0.1,1.2,0.3,2.2,0.5c1.3,0.2,2.3,0.4,3,0.7c0.8,0.2,1.4,0.7,2,1.2c0.5,0.6,0.8,1.4,0.8,2.5
		c0,1.4-0.6,2.5-1.8,3.4s-2.8,1.2-4.9,1.2C156.7,101,155.4,100.8,154.3,100.5z"/>
	<path class="st1" d="M190.7,79.1v21.8H188v-2.5c-0.6,0.9-1.4,1.5-2.4,2c-1,0.5-2,0.7-3.2,0.7c-1.5,0-2.9-0.3-4-1
		c-1.2-0.7-2.1-1.6-2.8-2.8c-0.7-1.2-1-2.6-1-4.2c0-1.6,0.3-2.9,1-4.1c0.7-1.2,1.6-2.1,2.8-2.8c1.2-0.7,2.5-1,4-1
		c1.1,0,2.1,0.2,3.1,0.6c0.9,0.4,1.7,1,2.3,1.9v-8.6H190.7z M185.4,97.9c0.8-0.5,1.4-1.1,1.9-1.9c0.4-0.8,0.7-1.8,0.7-2.9
		c0-1.1-0.2-2-0.7-2.9c-0.5-0.8-1.1-1.5-1.9-1.9c-0.8-0.4-1.7-0.7-2.7-0.7c-1,0-1.9,0.2-2.7,0.7c-0.8,0.5-1.4,1.1-1.9,1.9
		c-0.5,0.8-0.7,1.8-0.7,2.9c0,1.1,0.2,2,0.7,2.9c0.5,0.8,1.1,1.5,1.9,1.9c0.8,0.5,1.7,0.7,2.7,0.7C183.7,98.6,184.6,98.3,185.4,97.9
		z"/>
	<path class="st1" d="M210.1,94h-12.6c0.2,1.4,0.8,2.5,1.8,3.3c1,0.8,2.3,1.2,3.8,1.2c1.9,0,3.4-0.6,4.5-1.9l1.6,1.8
		c-0.7,0.8-1.6,1.4-2.6,1.9s-2.2,0.6-3.5,0.6c-1.6,0-3.1-0.3-4.4-1c-1.3-0.7-2.3-1.6-2.9-2.8c-0.7-1.2-1-2.6-1-4.1
		c0-1.5,0.3-2.9,1-4.1c0.7-1.2,1.6-2.2,2.8-2.8c1.2-0.7,2.5-1,4-1c1.5,0,2.8,0.3,4,1c1.2,0.7,2.1,1.6,2.7,2.8c0.7,1.2,1,2.6,1,4.2
		C210.1,93.4,210.1,93.7,210.1,94z M199.1,88.8c-0.9,0.8-1.4,1.9-1.6,3.2h10c-0.2-1.3-0.7-2.4-1.6-3.2s-2-1.2-3.4-1.2
		C201.1,87.5,200,87.9,199.1,88.8z"/>
	<path class="st1" d="M236.4,85.3v15.6h-2.7v-2.3c-0.6,0.8-1.3,1.4-2.2,1.9c-0.9,0.4-1.9,0.7-3,0.7c-2.1,0-3.7-0.6-4.9-1.7
		c-1.2-1.1-1.8-2.8-1.8-5.1v-8.9h2.8v8.6c0,1.5,0.4,2.6,1.1,3.4c0.7,0.8,1.8,1.2,3.1,1.2c1.5,0,2.7-0.5,3.5-1.4
		c0.9-0.9,1.3-2.2,1.3-3.8v-8H236.4z"/>
	<path class="st1" d="M254.8,86.9c1.2,1.1,1.7,2.8,1.7,5v8.9h-2.8v-8.6c0-1.5-0.4-2.6-1.1-3.4c-0.7-0.8-1.8-1.1-3.1-1.1
		c-1.5,0-2.7,0.4-3.6,1.3c-0.9,0.9-1.3,2.2-1.3,3.8v8h-2.8V85.3h2.7v2.3c0.6-0.8,1.3-1.4,2.3-1.8c1-0.4,2.1-0.6,3.3-0.6
		C252.1,85.1,253.6,85.7,254.8,86.9z"/>
	<path class="st1" d="M272.4,86.7c1.1,1.1,1.7,2.6,1.7,4.7v9.4h-2.7v-2.1c-0.5,0.7-1.1,1.3-2,1.7c-0.9,0.4-1.9,0.6-3.1,0.6
		c-1.7,0-3.1-0.4-4.2-1.3c-1-0.8-1.6-1.9-1.6-3.3c0-1.4,0.5-2.5,1.5-3.3c1-0.8,2.6-1.2,4.8-1.2h4.5v-0.6c0-1.2-0.4-2.1-1.1-2.8
		s-1.7-1-3.1-1c-0.9,0-1.8,0.2-2.7,0.5c-0.9,0.3-1.6,0.7-2.2,1.2l-1.2-2.1c0.8-0.6,1.8-1.1,2.9-1.5c1.1-0.3,2.3-0.5,3.6-0.5
		C269.6,85.1,271.2,85.7,272.4,86.7z M269.6,98.1c0.8-0.5,1.3-1.2,1.7-2v-2.2h-4.3c-2.4,0-3.6,0.8-3.6,2.4c0,0.8,0.3,1.4,0.9,1.8
		s1.4,0.7,2.5,0.7S268.8,98.6,269.6,98.1z"/>
	<path class="st1" d="M292.1,85.8c1-0.5,2.1-0.7,3.5-0.7v2.7c-0.2,0-0.4,0-0.6,0c-1.5,0-2.7,0.5-3.6,1.4c-0.9,0.9-1.3,2.2-1.3,3.9
		v7.7h-2.8V85.3h2.7v2.6C290.4,87,291.1,86.3,292.1,85.8z"/>
	<path class="st1" d="M312.9,94h-12.6c0.2,1.4,0.8,2.5,1.8,3.3c1,0.8,2.3,1.2,3.8,1.2c1.9,0,3.4-0.6,4.5-1.9l1.6,1.8
		c-0.7,0.8-1.6,1.4-2.6,1.9s-2.2,0.6-3.5,0.6c-1.6,0-3.1-0.3-4.4-1c-1.3-0.7-2.3-1.6-2.9-2.8c-0.7-1.2-1-2.6-1-4.1
		c0-1.5,0.3-2.9,1-4.1c0.7-1.2,1.6-2.2,2.8-2.8c1.2-0.7,2.5-1,4-1c1.5,0,2.8,0.3,4,1c1.2,0.7,2.1,1.6,2.7,2.8c0.7,1.2,1,2.6,1,4.2
		C313,93.4,312.9,93.7,312.9,94z M301.9,88.8c-0.9,0.8-1.4,1.9-1.6,3.2h10c-0.2-1.3-0.7-2.4-1.6-3.2s-2-1.2-3.4-1.2
		C303.9,87.5,302.8,87.9,301.9,88.8z"/>
	<path class="st1" d="M316.9,79.1h2.8v21.8h-2.8V79.1z"/>
	<path class="st1" d="M335.6,86.7c1.1,1.1,1.7,2.6,1.7,4.7v9.4h-2.7v-2.1c-0.5,0.7-1.1,1.3-2,1.7c-0.9,0.4-1.9,0.6-3.1,0.6
		c-1.7,0-3.1-0.4-4.2-1.3c-1-0.8-1.6-1.9-1.6-3.3c0-1.4,0.5-2.5,1.5-3.3c1-0.8,2.6-1.2,4.8-1.2h4.5v-0.6c0-1.2-0.4-2.1-1.1-2.8
		s-1.7-1-3.1-1c-0.9,0-1.8,0.2-2.7,0.5c-0.9,0.3-1.6,0.7-2.2,1.2l-1.2-2.1c0.8-0.6,1.8-1.1,2.9-1.5c1.1-0.3,2.3-0.5,3.6-0.5
		C332.9,85.1,334.5,85.7,335.6,86.7z M332.8,98.1c0.8-0.5,1.3-1.2,1.7-2v-2.2h-4.3c-2.4,0-3.6,0.8-3.6,2.4c0,0.8,0.3,1.4,0.9,1.8
		s1.4,0.7,2.5,0.7S332.1,98.6,332.8,98.1z"/>
	<path class="st1" d="M345.2,100c-1.2-0.7-2.2-1.6-2.9-2.8c-0.7-1.2-1.1-2.6-1.1-4.1c0-1.5,0.4-2.9,1.1-4.1c0.7-1.2,1.7-2.1,2.9-2.8
		c1.2-0.7,2.7-1,4.2-1c1.4,0,2.7,0.3,3.8,0.9c1.1,0.6,2,1.4,2.6,2.5l-2.1,1.4c-0.5-0.7-1.1-1.3-1.8-1.7s-1.5-0.6-2.4-0.6
		c-1,0-1.9,0.2-2.7,0.7c-0.8,0.5-1.4,1.1-1.9,1.9c-0.5,0.8-0.7,1.8-0.7,2.9c0,1.1,0.2,2.1,0.7,2.9c0.5,0.8,1.1,1.5,1.9,1.9
		c0.8,0.5,1.7,0.7,2.7,0.7c0.9,0,1.7-0.2,2.4-0.6s1.3-0.9,1.8-1.7l2.1,1.3c-0.6,1.1-1.5,1.9-2.6,2.5c-1.1,0.6-2.4,0.9-3.8,0.9
		C347.9,101,346.5,100.7,345.2,100z"/>
	<path class="st1" d="M359.5,81.8c-0.4-0.4-0.5-0.8-0.5-1.3s0.2-0.9,0.5-1.3c0.4-0.4,0.8-0.5,1.4-0.5c0.5,0,1,0.2,1.4,0.5
		c0.4,0.3,0.5,0.8,0.5,1.3c0,0.5-0.2,1-0.5,1.3c-0.4,0.4-0.8,0.5-1.4,0.5C360.3,82.3,359.8,82.1,359.5,81.8z M359.4,85.3h2.8v15.6
		h-2.8V85.3z"/>
	<path class="st1" d="M370.1,100c-1.2-0.7-2.2-1.6-2.9-2.8c-0.7-1.2-1-2.6-1-4.1c0-1.5,0.3-2.9,1-4.1c0.7-1.2,1.7-2.1,2.9-2.8
		c1.2-0.7,2.6-1,4.2-1c1.5,0,2.9,0.3,4.2,1c1.2,0.7,2.2,1.6,2.9,2.8c0.7,1.2,1,2.6,1,4.1c0,1.5-0.3,2.9-1,4.1
		c-0.7,1.2-1.7,2.1-2.9,2.8c-1.2,0.7-2.6,1-4.2,1C372.7,101,371.3,100.7,370.1,100z M377,97.9c0.8-0.5,1.4-1.1,1.9-1.9
		c0.4-0.8,0.7-1.8,0.7-2.9c0-1.1-0.2-2-0.7-2.9c-0.5-0.8-1.1-1.5-1.9-1.9c-0.8-0.4-1.7-0.7-2.7-0.7c-1,0-1.9,0.2-2.7,0.7
		c-0.8,0.5-1.4,1.1-1.9,1.9c-0.5,0.8-0.7,1.8-0.7,2.9c0,1.1,0.2,2,0.7,2.9c0.5,0.8,1.1,1.5,1.9,1.9c0.8,0.5,1.7,0.7,2.7,0.7
		C375.3,98.6,376.2,98.3,377,97.9z M376,79.2h3.6l-4.9,3.8H372L376,79.2z"/>
	<path class="st1" d="M399.3,86.9c1.2,1.1,1.7,2.8,1.7,5v8.9h-2.8v-8.6c0-1.5-0.4-2.6-1.1-3.4c-0.7-0.8-1.8-1.1-3.1-1.1
		c-1.5,0-2.7,0.4-3.6,1.3c-0.9,0.9-1.3,2.2-1.3,3.8v8h-2.8V85.3h2.7v2.3c0.6-0.8,1.3-1.4,2.3-1.8c1-0.4,2.1-0.6,3.3-0.6
		C396.5,85.1,398.1,85.7,399.3,86.9z"/>
	<path class="st1" d="M414.9,100.5c-1.2-0.3-2.1-0.8-2.8-1.3l1.2-2.2c0.7,0.5,1.5,0.9,2.5,1.2c1,0.3,2,0.4,3,0.4
		c2.5,0,3.7-0.7,3.7-2.1c0-0.5-0.2-0.8-0.5-1.1s-0.7-0.5-1.2-0.6c-0.5-0.1-1.2-0.3-2.1-0.4c-1.3-0.2-2.3-0.4-3.1-0.7
		c-0.8-0.3-1.5-0.7-2-1.3c-0.6-0.6-0.9-1.5-0.9-2.6c0-1.4,0.6-2.5,1.8-3.4c1.2-0.9,2.7-1.3,4.7-1.3c1,0,2.1,0.1,3.1,0.4
		c1,0.3,1.9,0.6,2.6,1l-1.2,2.2c-1.3-0.8-2.8-1.2-4.5-1.2c-1.2,0-2.1,0.2-2.7,0.6c-0.6,0.4-0.9,0.9-0.9,1.6c0,0.5,0.2,0.9,0.5,1.2
		c0.4,0.3,0.8,0.5,1.3,0.6c0.5,0.1,1.2,0.3,2.2,0.5c1.3,0.2,2.3,0.4,3,0.7c0.8,0.2,1.4,0.7,2,1.2c0.5,0.6,0.8,1.4,0.8,2.5
		c0,1.4-0.6,2.5-1.8,3.4s-2.8,1.2-4.9,1.2C417.3,101,416.1,100.8,414.9,100.5z"/>
	<path class="st1" d="M442.8,94h-12.6c0.2,1.4,0.8,2.5,1.8,3.3c1,0.8,2.3,1.2,3.8,1.2c1.9,0,3.4-0.6,4.5-1.9l1.6,1.8
		c-0.7,0.8-1.6,1.4-2.6,1.9s-2.2,0.6-3.5,0.6c-1.6,0-3.1-0.3-4.4-1c-1.3-0.7-2.3-1.6-2.9-2.8c-0.7-1.2-1-2.6-1-4.1
		c0-1.5,0.3-2.9,1-4.1c0.7-1.2,1.6-2.2,2.8-2.8c1.2-0.7,2.5-1,4-1c1.5,0,2.8,0.3,4,1c1.2,0.7,2.1,1.6,2.7,2.8c0.7,1.2,1,2.6,1,4.2
		C442.9,93.4,442.9,93.7,442.8,94z M431.8,88.8c-0.9,0.8-1.4,1.9-1.6,3.2h10c-0.2-1.3-0.7-2.4-1.6-3.2s-2-1.2-3.4-1.2
		C433.8,87.5,432.7,87.9,431.8,88.8z"/>
	<path class="st1" d="M456.3,100.8l-4.5-6l-4.5,6h-3.1l6.1-8l-5.8-7.6h3.1l4.3,5.6l4.3-5.6h3.1l-5.9,7.6l6.2,8H456.3z"/>
	<path class="st1" d="M476.7,85.3v15.6h-2.7v-2.3c-0.6,0.8-1.3,1.4-2.2,1.9c-0.9,0.4-1.9,0.7-3,0.7c-2.1,0-3.7-0.6-4.9-1.7
		c-1.2-1.1-1.8-2.8-1.8-5.1v-8.9h2.8v8.6c0,1.5,0.4,2.6,1.1,3.4c0.7,0.8,1.8,1.2,3.1,1.2c1.5,0,2.7-0.5,3.5-1.4
		c0.9-0.9,1.3-2.2,1.3-3.8v-8H476.7z"/>
	<path class="st1" d="M492.7,86.7c1.1,1.1,1.7,2.6,1.7,4.7v9.4h-2.7v-2.1c-0.5,0.7-1.1,1.3-2,1.7c-0.9,0.4-1.9,0.6-3.1,0.6
		c-1.7,0-3.1-0.4-4.2-1.3c-1-0.8-1.6-1.9-1.6-3.3c0-1.4,0.5-2.5,1.5-3.3c1-0.8,2.6-1.2,4.8-1.2h4.5v-0.6c0-1.2-0.4-2.1-1.1-2.8
		s-1.7-1-3.1-1c-0.9,0-1.8,0.2-2.7,0.5c-0.9,0.3-1.6,0.7-2.2,1.2l-1.2-2.1c0.8-0.6,1.8-1.1,2.9-1.5c1.1-0.3,2.3-0.5,3.6-0.5
		C489.9,85.1,491.6,85.7,492.7,86.7z M489.9,98.1c0.8-0.5,1.3-1.2,1.7-2v-2.2h-4.3c-2.4,0-3.6,0.8-3.6,2.4c0,0.8,0.3,1.4,0.9,1.8
		s1.4,0.7,2.5,0.7S489.1,98.6,489.9,98.1z"/>
	<path class="st1" d="M499.7,79.1h2.8v21.8h-2.8V79.1z"/>
	<path class="st1" d="M518.9,83.9v1.4h4.5v2.3H519v13.2h-2.8V87.6h-2.6v-2.3h2.6v-1.4c0-1.5,0.4-2.8,1.3-3.7
		c0.9-0.9,2.2-1.4,3.8-1.4c0.6,0,1.2,0.1,1.8,0.2c0.5,0.2,1,0.4,1.4,0.7l-0.9,2.1c-0.6-0.5-1.4-0.7-2.2-0.7
		C519.7,81.2,518.9,82.1,518.9,83.9z"/>
	<path class="st1" d="M528.4,100c-1.2-0.7-2.2-1.6-2.9-2.8c-0.7-1.2-1-2.6-1-4.1c0-1.5,0.3-2.9,1-4.1c0.7-1.2,1.7-2.1,2.9-2.8
		c1.2-0.7,2.6-1,4.2-1c1.5,0,2.9,0.3,4.2,1c1.2,0.7,2.2,1.6,2.9,2.8c0.7,1.2,1,2.6,1,4.1c0,1.5-0.3,2.9-1,4.1
		c-0.7,1.2-1.7,2.1-2.9,2.8c-1.2,0.7-2.6,1-4.2,1C531,101,529.6,100.7,528.4,100z M535.2,97.9c0.8-0.5,1.4-1.1,1.9-1.9
		c0.4-0.8,0.7-1.8,0.7-2.9c0-1.1-0.2-2-0.7-2.9c-0.5-0.8-1.1-1.5-1.9-1.9c-0.8-0.4-1.7-0.7-2.7-0.7c-1,0-1.9,0.2-2.7,0.7
		c-0.8,0.5-1.4,1.1-1.9,1.9c-0.5,0.8-0.7,1.8-0.7,2.9c0,1.1,0.2,2,0.7,2.9c0.5,0.8,1.1,1.5,1.9,1.9c0.8,0.5,1.7,0.7,2.7,0.7
		C533.5,98.6,534.4,98.3,535.2,97.9z"/>
	<path class="st1" d="M549.4,85.8c1-0.5,2.1-0.7,3.5-0.7v2.7c-0.2,0-0.4,0-0.6,0c-1.5,0-2.7,0.5-3.6,1.4c-0.9,0.9-1.3,2.2-1.3,3.9
		v7.7h-2.8V85.3h2.7v2.6C547.7,87,548.4,86.3,549.4,85.8z"/>
	<path class="st1" d="M568.1,98.5v2.3h-13V99l9.2-11.4h-9v-2.3h12.6v1.8l-9.2,11.4H568.1z"/>
	<path class="st1" d="M582.4,86.7c1.1,1.1,1.7,2.6,1.7,4.7v9.4h-2.7v-2.1c-0.5,0.7-1.1,1.3-2,1.7c-0.9,0.4-1.9,0.6-3.1,0.6
		c-1.7,0-3.1-0.4-4.2-1.3c-1-0.8-1.6-1.9-1.6-3.3c0-1.4,0.5-2.5,1.5-3.3c1-0.8,2.6-1.2,4.8-1.2h4.5v-0.6c0-1.2-0.4-2.1-1.1-2.8
		s-1.7-1-3.1-1c-0.9,0-1.8,0.2-2.7,0.5c-0.9,0.3-1.6,0.7-2.2,1.2l-1.2-2.1c0.8-0.6,1.8-1.1,2.9-1.5c1.1-0.3,2.3-0.5,3.6-0.5
		C579.6,85.1,581.3,85.7,582.4,86.7z M579.6,98.1c0.8-0.5,1.3-1.2,1.7-2v-2.2H577c-2.4,0-3.6,0.8-3.6,2.4c0,0.8,0.3,1.4,0.9,1.8
		s1.4,0.7,2.5,0.7S578.8,98.6,579.6,98.1z"/>
	<path class="st1" d="M604.1,79.1v21.8h-2.7v-2.5c-0.6,0.9-1.4,1.5-2.4,2c-1,0.5-2,0.7-3.2,0.7c-1.5,0-2.9-0.3-4-1
		c-1.2-0.7-2.1-1.6-2.8-2.8c-0.7-1.2-1-2.6-1-4.2c0-1.6,0.3-2.9,1-4.1c0.7-1.2,1.6-2.1,2.8-2.8c1.2-0.7,2.5-1,4-1
		c1.1,0,2.1,0.2,3.1,0.6c0.9,0.4,1.7,1,2.3,1.9v-8.6H604.1z M598.8,97.9c0.8-0.5,1.4-1.1,1.9-1.9c0.4-0.8,0.7-1.8,0.7-2.9
		c0-1.1-0.2-2-0.7-2.9c-0.5-0.8-1.1-1.5-1.9-1.9c-0.8-0.4-1.7-0.7-2.7-0.7c-1,0-1.9,0.2-2.7,0.7c-0.8,0.5-1.4,1.1-1.9,1.9
		c-0.5,0.8-0.7,1.8-0.7,2.9c0,1.1,0.2,2,0.7,2.9c0.5,0.8,1.1,1.5,1.9,1.9c0.8,0.5,1.7,0.7,2.7,0.7C597.1,98.6,598,98.3,598.8,97.9z"
		/>
	<path class="st1" d="M620.1,86.7c1.1,1.1,1.7,2.6,1.7,4.7v9.4h-2.7v-2.1c-0.5,0.7-1.1,1.3-2,1.7c-0.9,0.4-1.9,0.6-3.1,0.6
		c-1.7,0-3.1-0.4-4.2-1.3c-1-0.8-1.6-1.9-1.6-3.3c0-1.4,0.5-2.5,1.5-3.3c1-0.8,2.6-1.2,4.8-1.2h4.5v-0.6c0-1.2-0.4-2.1-1.1-2.8
		s-1.7-1-3.1-1c-0.9,0-1.8,0.2-2.7,0.5c-0.9,0.3-1.6,0.7-2.2,1.2l-1.2-2.1c0.8-0.6,1.8-1.1,2.9-1.5c1.1-0.3,2.3-0.5,3.6-0.5
		C617.3,85.1,618.9,85.7,620.1,86.7z M617.3,98.1c0.8-0.5,1.3-1.2,1.7-2v-2.2h-4.3c-2.4,0-3.6,0.8-3.6,2.4c0,0.8,0.3,1.4,0.9,1.8
		s1.4,0.7,2.5,0.7S616.5,98.6,617.3,98.1z"/>
	<path class="st1" d="M89.1,135.2c-1.2-0.7-2.2-1.6-2.9-2.8c-0.7-1.2-1-2.6-1-4.1c0-1.5,0.3-2.9,1-4.1c0.7-1.2,1.7-2.1,2.9-2.8
		c1.2-0.7,2.6-1,4.2-1c1.5,0,2.9,0.3,4.2,1c1.2,0.7,2.2,1.6,2.9,2.8c0.7,1.2,1,2.6,1,4.1c0,1.5-0.3,2.9-1,4.1
		c-0.7,1.2-1.7,2.1-2.9,2.8c-1.2,0.7-2.6,1-4.2,1C91.7,136.2,90.3,135.9,89.1,135.2z M95.9,133.1c0.8-0.5,1.4-1.1,1.9-1.9
		c0.4-0.8,0.7-1.8,0.7-2.9c0-1.1-0.2-2-0.7-2.9c-0.5-0.8-1.1-1.5-1.9-1.9c-0.8-0.4-1.7-0.7-2.7-0.7c-1,0-1.9,0.2-2.7,0.7
		c-0.8,0.5-1.4,1.1-1.9,1.9c-0.5,0.8-0.7,1.8-0.7,2.9c0,1.1,0.2,2,0.7,2.9c0.5,0.8,1.1,1.5,1.9,1.9c0.8,0.5,1.7,0.7,2.7,0.7
		C94.2,133.8,95.1,133.5,95.9,133.1z"/>
	<path class="st1" d="M127.6,120.5v15.6h-2.7v-2.3c-0.6,0.8-1.3,1.4-2.2,1.9c-0.9,0.4-1.9,0.7-3,0.7c-2.1,0-3.7-0.6-4.9-1.7
		c-1.2-1.1-1.8-2.8-1.8-5.1v-8.9h2.8v8.6c0,1.5,0.4,2.6,1.1,3.4c0.7,0.8,1.8,1.2,3.1,1.2c1.5,0,2.7-0.5,3.5-1.4
		c0.9-0.9,1.3-2.2,1.3-3.8v-8H127.6z"/>
	<path class="st1" d="M146,122.1c1.2,1.1,1.7,2.8,1.7,5v8.9h-2.8v-8.6c0-1.5-0.4-2.6-1.1-3.4c-0.7-0.8-1.8-1.1-3.1-1.1
		c-1.5,0-2.7,0.4-3.6,1.3c-0.9,0.9-1.3,2.2-1.3,3.8v8H133v-15.6h2.7v2.3c0.6-0.8,1.3-1.4,2.3-1.8c1-0.4,2.1-0.6,3.3-0.6
		C143.2,120.4,144.8,120.9,146,122.1z"/>
	<path class="st1" d="M163.6,121.9c1.1,1.1,1.7,2.6,1.7,4.7v9.4h-2.7V134c-0.5,0.7-1.1,1.3-2,1.7c-0.9,0.4-1.9,0.6-3.1,0.6
		c-1.7,0-3.1-0.4-4.2-1.3c-1-0.8-1.6-1.9-1.6-3.3c0-1.4,0.5-2.5,1.5-3.3c1-0.8,2.6-1.2,4.8-1.2h4.5v-0.6c0-1.2-0.4-2.1-1.1-2.8
		s-1.7-1-3.1-1c-0.9,0-1.8,0.2-2.7,0.5c-0.9,0.3-1.6,0.7-2.2,1.2l-1.2-2.1c0.8-0.6,1.8-1.1,2.9-1.5c1.1-0.3,2.3-0.5,3.6-0.5
		C160.8,120.4,162.4,120.9,163.6,121.9z M160.8,133.3c0.8-0.5,1.3-1.2,1.7-2v-2.2h-4.3c-2.4,0-3.6,0.8-3.6,2.4
		c0,0.8,0.3,1.4,0.9,1.8s1.4,0.7,2.5,0.7S160,133.8,160.8,133.3z"/>
	<path class="st1" d="M192.2,120.5l-6.8,15.6h-2.9l-6.8-15.6h2.9l5.3,12.5l5.5-12.5H192.2z"/>
	<path class="st1" d="M194.8,117c-0.4-0.4-0.5-0.8-0.5-1.3s0.2-0.9,0.5-1.3c0.4-0.4,0.8-0.5,1.4-0.5c0.5,0,1,0.2,1.4,0.5
		c0.4,0.3,0.5,0.8,0.5,1.3c0,0.5-0.2,1-0.5,1.3c-0.4,0.4-0.8,0.5-1.4,0.5C195.7,117.5,195.2,117.3,194.8,117z M194.8,120.5h2.8v15.6
		h-2.8V120.5z"/>
	<path class="st1" d="M205.5,135.2c-1.2-0.7-2.2-1.6-2.9-2.8c-0.7-1.2-1-2.6-1-4.1c0-1.5,0.3-2.9,1-4.1c0.7-1.2,1.7-2.1,2.9-2.8
		c1.2-0.7,2.6-1,4.2-1c1.5,0,2.9,0.3,4.2,1c1.2,0.7,2.2,1.6,2.9,2.8c0.7,1.2,1,2.6,1,4.1c0,1.5-0.3,2.9-1,4.1
		c-0.7,1.2-1.7,2.1-2.9,2.8c-1.2,0.7-2.6,1-4.2,1C208.1,136.2,206.7,135.9,205.5,135.2z M212.3,133.1c0.8-0.5,1.4-1.1,1.9-1.9
		c0.4-0.8,0.7-1.8,0.7-2.9c0-1.1-0.2-2-0.7-2.9c-0.5-0.8-1.1-1.5-1.9-1.9c-0.8-0.4-1.7-0.7-2.7-0.7c-1,0-1.9,0.2-2.7,0.7
		c-0.8,0.5-1.4,1.1-1.9,1.9c-0.5,0.8-0.7,1.8-0.7,2.9c0,1.1,0.2,2,0.7,2.9c0.5,0.8,1.1,1.5,1.9,1.9c0.8,0.5,1.7,0.7,2.7,0.7
		C210.6,133.8,211.5,133.5,212.3,133.1z"/>
	<path class="st1" d="M221.6,114.3h2.8v21.8h-2.8V114.3z"/>
	<path class="st1" d="M240.4,121.9c1.1,1.1,1.7,2.6,1.7,4.7v9.4h-2.7V134c-0.5,0.7-1.1,1.3-2,1.7c-0.9,0.4-1.9,0.6-3.1,0.6
		c-1.7,0-3.1-0.4-4.2-1.3c-1-0.8-1.6-1.9-1.6-3.3c0-1.4,0.5-2.5,1.5-3.3c1-0.8,2.6-1.2,4.8-1.2h4.5v-0.6c0-1.2-0.4-2.1-1.1-2.8
		s-1.7-1-3.1-1c-0.9,0-1.8,0.2-2.7,0.5c-0.9,0.3-1.6,0.7-2.2,1.2l-1.2-2.1c0.8-0.6,1.8-1.1,2.9-1.5c1.1-0.3,2.3-0.5,3.6-0.5
		C237.6,120.4,239.3,120.9,240.4,121.9z M237.6,133.3c0.8-0.5,1.3-1.2,1.7-2v-2.2H235c-2.4,0-3.6,0.8-3.6,2.4c0,0.8,0.3,1.4,0.9,1.8
		s1.4,0.7,2.5,0.7S236.8,133.8,237.6,133.3z"/>
	<path class="st1" d="M250,135.2c-1.2-0.7-2.2-1.6-2.9-2.8c-0.7-1.2-1.1-2.6-1.1-4.1c0-1.5,0.4-2.9,1.1-4.1c0.7-1.2,1.7-2.1,2.9-2.8
		c1.2-0.7,2.7-1,4.2-1c1.4,0,2.7,0.3,3.8,0.9c1.1,0.6,2,1.4,2.6,2.5l-2.1,1.4c-0.5-0.7-1.1-1.3-1.8-1.7s-1.5-0.6-2.4-0.6
		c-1,0-1.9,0.2-2.7,0.7c-0.8,0.5-1.4,1.1-1.9,1.9c-0.5,0.8-0.7,1.8-0.7,2.9c0,1.1,0.2,2.1,0.7,2.9c0.5,0.8,1.1,1.5,1.9,1.9
		c0.8,0.5,1.7,0.7,2.7,0.7c0.9,0,1.7-0.2,2.4-0.6s1.3-0.9,1.8-1.7l2.1,1.3c-0.6,1.1-1.5,1.9-2.6,2.5c-1.1,0.6-2.4,0.9-3.8,0.9
		C252.6,136.2,251.2,135.9,250,135.2z"/>
	<path class="st1" d="M264.2,117c-0.4-0.4-0.5-0.8-0.5-1.3s0.2-0.9,0.5-1.3c0.4-0.4,0.8-0.5,1.4-0.5c0.5,0,1,0.2,1.4,0.5
		c0.4,0.3,0.5,0.8,0.5,1.3c0,0.5-0.2,1-0.5,1.3c-0.4,0.4-0.8,0.5-1.4,0.5C265,117.5,264.6,117.3,264.2,117z M264.2,120.5h2.8v15.6
		h-2.8V120.5z"/>
	<path class="st1" d="M274.9,135.2c-1.2-0.7-2.2-1.6-2.9-2.8c-0.7-1.2-1-2.6-1-4.1c0-1.5,0.3-2.9,1-4.1c0.7-1.2,1.7-2.1,2.9-2.8
		c1.2-0.7,2.6-1,4.2-1c1.5,0,2.9,0.3,4.2,1c1.2,0.7,2.2,1.6,2.9,2.8c0.7,1.2,1,2.6,1,4.1c0,1.5-0.3,2.9-1,4.1
		c-0.7,1.2-1.7,2.1-2.9,2.8c-1.2,0.7-2.6,1-4.2,1C277.5,136.2,276.1,135.9,274.9,135.2z M281.7,133.1c0.8-0.5,1.4-1.1,1.9-1.9
		c0.4-0.8,0.7-1.8,0.7-2.9c0-1.1-0.2-2-0.7-2.9c-0.5-0.8-1.1-1.5-1.9-1.9c-0.8-0.4-1.7-0.7-2.7-0.7c-1,0-1.9,0.2-2.7,0.7
		c-0.8,0.5-1.4,1.1-1.9,1.9c-0.5,0.8-0.7,1.8-0.7,2.9c0,1.1,0.2,2,0.7,2.9c0.5,0.8,1.1,1.5,1.9,1.9c0.8,0.5,1.7,0.7,2.7,0.7
		C280,133.8,280.9,133.5,281.7,133.1z M280.8,114.4h3.6l-4.9,3.8h-2.6L280.8,114.4z"/>
	<path class="st1" d="M304,122.1c1.2,1.1,1.7,2.8,1.7,5v8.9h-2.8v-8.6c0-1.5-0.4-2.6-1.1-3.4c-0.7-0.8-1.8-1.1-3.1-1.1
		c-1.5,0-2.7,0.4-3.6,1.3c-0.9,0.9-1.3,2.2-1.3,3.8v8H291v-15.6h2.7v2.3c0.6-0.8,1.3-1.4,2.3-1.8c1-0.4,2.1-0.6,3.3-0.6
		C301.3,120.4,302.9,120.9,304,122.1z"/>
	<path class="st1" d="M319.9,135.5c-0.6-2.3-0.9-4.8-0.9-7.5c0-2.7,0.3-5.2,0.9-7.6c0.6-2.4,1.5-4.4,2.6-6.2h2.7
		c-1.2,2.1-2,4.2-2.6,6.5c-0.5,2.2-0.8,4.7-0.8,7.3c0,2.6,0.3,5,0.8,7.3c0.5,2.2,1.4,4.4,2.6,6.5h-2.7
		C321.4,139.9,320.5,137.9,319.9,135.5z"/>
	<path class="st1" d="M339.4,121.9c1.1,1.1,1.7,2.6,1.7,4.7v9.4h-2.7V134c-0.5,0.7-1.1,1.3-2,1.7c-0.9,0.4-1.9,0.6-3.1,0.6
		c-1.7,0-3.1-0.4-4.2-1.3c-1-0.8-1.6-1.9-1.6-3.3c0-1.4,0.5-2.5,1.5-3.3c1-0.8,2.6-1.2,4.8-1.2h4.5v-0.6c0-1.2-0.4-2.1-1.1-2.8
		s-1.7-1-3.1-1c-0.9,0-1.8,0.2-2.7,0.5c-0.9,0.3-1.6,0.7-2.2,1.2l-1.2-2.1c0.8-0.6,1.8-1.1,2.9-1.5c1.1-0.3,2.3-0.5,3.6-0.5
		C336.6,120.4,338.2,120.9,339.4,121.9z M336.6,133.3c0.8-0.5,1.3-1.2,1.7-2v-2.2h-4.3c-2.4,0-3.6,0.8-3.6,2.4
		c0,0.8,0.3,1.4,0.9,1.8s1.4,0.7,2.5,0.7S335.8,133.8,336.6,133.3z"/>
	<path class="st1" d="M358.6,121.4c1.2,0.7,2.1,1.6,2.8,2.8c0.7,1.2,1,2.6,1,4.1c0,1.6-0.3,2.9-1,4.2c-0.7,1.2-1.6,2.1-2.8,2.8
		c-1.2,0.7-2.5,1-4,1c-1.1,0-2.1-0.2-3.1-0.6c-0.9-0.4-1.7-1.1-2.4-1.9v8h-2.8v-21.2h2.7v2.5c0.6-0.9,1.4-1.5,2.4-2
		c1-0.4,2-0.7,3.2-0.7C356.1,120.4,357.4,120.7,358.6,121.4z M357,133.1c0.8-0.5,1.4-1.1,1.9-1.9c0.5-0.8,0.7-1.8,0.7-2.9
		c0-1.1-0.2-2-0.7-2.9c-0.5-0.8-1.1-1.5-1.9-1.9c-0.8-0.4-1.7-0.7-2.7-0.7c-1,0-1.9,0.2-2.7,0.7c-0.8,0.5-1.4,1.1-1.9,1.9
		c-0.5,0.8-0.7,1.8-0.7,2.8c0,1.1,0.2,2,0.7,2.9c0.5,0.8,1.1,1.5,1.9,1.9s1.7,0.7,2.7,0.7C355.3,133.8,356.2,133.5,357,133.1z"/>
	<path class="st1" d="M366.3,114.3h2.8v21.8h-2.8V114.3z"/>
	<path class="st1" d="M374.6,117c-0.4-0.4-0.5-0.8-0.5-1.3s0.2-0.9,0.5-1.3c0.4-0.4,0.8-0.5,1.4-0.5c0.5,0,1,0.2,1.4,0.5
		c0.4,0.3,0.5,0.8,0.5,1.3c0,0.5-0.2,1-0.5,1.3c-0.4,0.4-0.8,0.5-1.4,0.5C375.4,117.5,374.9,117.3,374.6,117z M374.5,120.5h2.8v15.6
		h-2.8V120.5z"/>
	<path class="st1" d="M385.2,135.2c-1.2-0.7-2.2-1.6-2.9-2.8c-0.7-1.2-1.1-2.6-1.1-4.1c0-1.5,0.4-2.9,1.1-4.1
		c0.7-1.2,1.7-2.1,2.9-2.8c1.2-0.7,2.7-1,4.2-1c1.4,0,2.7,0.3,3.8,0.9c1.1,0.6,2,1.4,2.6,2.5l-2.1,1.4c-0.5-0.7-1.1-1.3-1.8-1.7
		s-1.5-0.6-2.4-0.6c-1,0-1.9,0.2-2.7,0.7c-0.8,0.5-1.4,1.1-1.9,1.9c-0.5,0.8-0.7,1.8-0.7,2.9c0,1.1,0.2,2.1,0.7,2.9
		c0.5,0.8,1.1,1.5,1.9,1.9c0.8,0.5,1.7,0.7,2.7,0.7c0.9,0,1.7-0.2,2.4-0.6s1.3-0.9,1.8-1.7l2.1,1.3c-0.6,1.1-1.5,1.9-2.6,2.5
		c-1.1,0.6-2.4,0.9-3.8,0.9C387.9,136.2,386.5,135.9,385.2,135.2z"/>
	<path class="st1" d="M410.1,121.9c1.1,1.1,1.7,2.6,1.7,4.7v9.4h-2.7V134c-0.5,0.7-1.1,1.3-2,1.7c-0.9,0.4-1.9,0.6-3.1,0.6
		c-1.7,0-3.1-0.4-4.2-1.3c-1-0.8-1.6-1.9-1.6-3.3c0-1.4,0.5-2.5,1.5-3.3c1-0.8,2.6-1.2,4.8-1.2h4.5v-0.6c0-1.2-0.4-2.1-1.1-2.8
		s-1.7-1-3.1-1c-0.9,0-1.8,0.2-2.7,0.5c-0.9,0.3-1.6,0.7-2.2,1.2l-1.2-2.1c0.8-0.6,1.8-1.1,2.9-1.5c1.1-0.3,2.3-0.5,3.6-0.5
		C407.3,120.4,408.9,120.9,410.1,121.9z M407.3,133.3c0.8-0.5,1.3-1.2,1.7-2v-2.2h-4.3c-2.4,0-3.6,0.8-3.6,2.4
		c0,0.8,0.3,1.4,0.9,1.8s1.4,0.7,2.5,0.7S406.5,133.8,407.3,133.3z"/>
	<path class="st1" d="M437.2,121.4c1.2,0.7,2.1,1.6,2.8,2.8c0.7,1.2,1,2.6,1,4.1c0,1.6-0.3,2.9-1,4.2c-0.7,1.2-1.6,2.1-2.8,2.8
		c-1.2,0.7-2.5,1-4,1c-1.1,0-2.1-0.2-3.1-0.6c-0.9-0.4-1.7-1.1-2.4-1.9v8h-2.8v-21.2h2.7v2.5c0.6-0.9,1.4-1.5,2.4-2
		c1-0.4,2-0.7,3.2-0.7C434.6,120.4,436,120.7,437.2,121.4z M435.6,133.1c0.8-0.5,1.4-1.1,1.9-1.9c0.5-0.8,0.7-1.8,0.7-2.9
		c0-1.1-0.2-2-0.7-2.9c-0.5-0.8-1.1-1.5-1.9-1.9c-0.8-0.4-1.7-0.7-2.7-0.7c-1,0-1.9,0.2-2.7,0.7c-0.8,0.5-1.4,1.1-1.9,1.9
		c-0.5,0.8-0.7,1.8-0.7,2.8c0,1.1,0.2,2,0.7,2.9c0.5,0.8,1.1,1.5,1.9,1.9s1.7,0.7,2.7,0.7C433.9,133.8,434.8,133.5,435.6,133.1z"/>
	<path class="st1" d="M449.8,121.1c1-0.5,2.1-0.7,3.5-0.7v2.7c-0.2,0-0.4,0-0.6,0c-1.5,0-2.7,0.5-3.6,1.4c-0.9,0.9-1.3,2.2-1.3,3.9
		v7.7h-2.8v-15.6h2.7v2.6C448.1,122.2,448.8,121.5,449.8,121.1z"/>
	<path class="st1" d="M459.1,135.2c-1.2-0.7-2.2-1.6-2.9-2.8c-0.7-1.2-1-2.6-1-4.1c0-1.5,0.3-2.9,1-4.1c0.7-1.2,1.7-2.1,2.9-2.8
		c1.2-0.7,2.6-1,4.2-1c1.5,0,2.9,0.3,4.2,1c1.2,0.7,2.2,1.6,2.9,2.8c0.7,1.2,1,2.6,1,4.1c0,1.5-0.3,2.9-1,4.1
		c-0.7,1.2-1.7,2.1-2.9,2.8c-1.2,0.7-2.6,1-4.2,1C461.7,136.2,460.3,135.9,459.1,135.2z M465.9,133.1c0.8-0.5,1.4-1.1,1.9-1.9
		c0.4-0.8,0.7-1.8,0.7-2.9c0-1.1-0.2-2-0.7-2.9c-0.5-0.8-1.1-1.5-1.9-1.9c-0.8-0.4-1.7-0.7-2.7-0.7c-1,0-1.9,0.2-2.7,0.7
		c-0.8,0.5-1.4,1.1-1.9,1.9c-0.5,0.8-0.7,1.8-0.7,2.9c0,1.1,0.2,2,0.7,2.9c0.5,0.8,1.1,1.5,1.9,1.9c0.8,0.5,1.7,0.7,2.7,0.7
		C464.2,133.8,465.1,133.5,465.9,133.1z"/>
	<path class="st1" d="M484,135.1c-0.4,0.4-0.9,0.6-1.5,0.8c-0.6,0.2-1.2,0.3-1.9,0.3c-1.6,0-2.8-0.4-3.6-1.3c-0.9-0.8-1.3-2-1.3-3.6
		v-8.5H473v-2.3h2.6v-3.4h2.8v3.4h4.5v2.3h-4.5v8.4c0,0.8,0.2,1.5,0.6,1.9c0.4,0.5,1,0.7,1.8,0.7c0.9,0,1.6-0.2,2.2-0.7L484,135.1z"
		/>
	<path class="st1" d="M489.3,135.2c-1.2-0.7-2.2-1.6-2.9-2.8c-0.7-1.2-1-2.6-1-4.1c0-1.5,0.3-2.9,1-4.1c0.7-1.2,1.7-2.1,2.9-2.8
		c1.2-0.7,2.6-1,4.2-1c1.5,0,2.9,0.3,4.2,1c1.2,0.7,2.2,1.6,2.9,2.8c0.7,1.2,1,2.6,1,4.1c0,1.5-0.3,2.9-1,4.1
		c-0.7,1.2-1.7,2.1-2.9,2.8c-1.2,0.7-2.6,1-4.2,1C491.9,136.2,490.6,135.9,489.3,135.2z M496.2,133.1c0.8-0.5,1.4-1.1,1.9-1.9
		c0.4-0.8,0.7-1.8,0.7-2.9c0-1.1-0.2-2-0.7-2.9c-0.5-0.8-1.1-1.5-1.9-1.9c-0.8-0.4-1.7-0.7-2.7-0.7c-1,0-1.9,0.2-2.7,0.7
		c-0.8,0.5-1.4,1.1-1.9,1.9c-0.5,0.8-0.7,1.8-0.7,2.9c0,1.1,0.2,2,0.7,2.9c0.5,0.8,1.1,1.5,1.9,1.9c0.8,0.5,1.7,0.7,2.7,0.7
		C494.5,133.8,495.4,133.5,496.2,133.1z"/>
	<path class="st1" d="M508,135.2c-1.2-0.7-2.2-1.6-2.9-2.8c-0.7-1.2-1.1-2.6-1.1-4.1c0-1.5,0.4-2.9,1.1-4.1c0.7-1.2,1.7-2.1,2.9-2.8
		c1.2-0.7,2.7-1,4.2-1c1.4,0,2.7,0.3,3.8,0.9c1.1,0.6,2,1.4,2.6,2.5l-2.1,1.4c-0.5-0.7-1.1-1.3-1.8-1.7s-1.5-0.6-2.4-0.6
		c-1,0-1.9,0.2-2.7,0.7c-0.8,0.5-1.4,1.1-1.9,1.9c-0.5,0.8-0.7,1.8-0.7,2.9c0,1.1,0.2,2.1,0.7,2.9c0.5,0.8,1.1,1.5,1.9,1.9
		c0.8,0.5,1.7,0.7,2.7,0.7c0.9,0,1.7-0.2,2.4-0.6s1.3-0.9,1.8-1.7l2.1,1.3c-0.6,1.1-1.5,1.9-2.6,2.5c-1.1,0.6-2.4,0.9-3.8,0.9
		C510.7,136.2,509.2,135.9,508,135.2z"/>
	<path class="st1" d="M524.5,135.2c-1.2-0.7-2.2-1.6-2.9-2.8c-0.7-1.2-1-2.6-1-4.1c0-1.5,0.3-2.9,1-4.1c0.7-1.2,1.7-2.1,2.9-2.8
		c1.2-0.7,2.6-1,4.2-1c1.5,0,2.9,0.3,4.2,1c1.2,0.7,2.2,1.6,2.9,2.8c0.7,1.2,1,2.6,1,4.1c0,1.5-0.3,2.9-1,4.1
		c-0.7,1.2-1.7,2.1-2.9,2.8c-1.2,0.7-2.6,1-4.2,1C527.1,136.2,525.7,135.9,524.5,135.2z M531.3,133.1c0.8-0.5,1.4-1.1,1.9-1.9
		c0.4-0.8,0.7-1.8,0.7-2.9c0-1.1-0.2-2-0.7-2.9c-0.5-0.8-1.1-1.5-1.9-1.9c-0.8-0.4-1.7-0.7-2.7-0.7c-1,0-1.9,0.2-2.7,0.7
		c-0.8,0.5-1.4,1.1-1.9,1.9c-0.5,0.8-0.7,1.8-0.7,2.9c0,1.1,0.2,2,0.7,2.9c0.5,0.8,1.1,1.5,1.9,1.9c0.8,0.5,1.7,0.7,2.7,0.7
		C529.6,133.8,530.5,133.5,531.3,133.1z"/>
	<path class="st1" d="M540.6,114.3h2.8v21.8h-2.8V114.3z"/>
	<path class="st1" d="M551.3,135.2c-1.2-0.7-2.2-1.6-2.9-2.8c-0.7-1.2-1-2.6-1-4.1c0-1.5,0.3-2.9,1-4.1c0.7-1.2,1.7-2.1,2.9-2.8
		c1.2-0.7,2.6-1,4.2-1c1.5,0,2.9,0.3,4.2,1c1.2,0.7,2.2,1.6,2.9,2.8c0.7,1.2,1,2.6,1,4.1c0,1.5-0.3,2.9-1,4.1
		c-0.7,1.2-1.7,2.1-2.9,2.8c-1.2,0.7-2.6,1-4.2,1C553.9,136.2,552.5,135.9,551.3,135.2z M558.1,133.1c0.8-0.5,1.4-1.1,1.9-1.9
		c0.4-0.8,0.7-1.8,0.7-2.9c0-1.1-0.2-2-0.7-2.9c-0.5-0.8-1.1-1.5-1.9-1.9c-0.8-0.4-1.7-0.7-2.7-0.7c-1,0-1.9,0.2-2.7,0.7
		c-0.8,0.5-1.4,1.1-1.9,1.9c-0.5,0.8-0.7,1.8-0.7,2.9c0,1.1,0.2,2,0.7,2.9c0.5,0.8,1.1,1.5,1.9,1.9c0.8,0.5,1.7,0.7,2.7,0.7
		C556.5,133.8,557.4,133.5,558.1,133.1z"/>
	<path class="st1" d="M206.1,155.7l-6.8,15.6h-2.9l-6.8-15.6h2.9l5.3,12.5l5.5-12.5H206.1z"/>
	<path class="st1" d="M208.8,152.2c-0.4-0.4-0.5-0.8-0.5-1.3s0.2-0.9,0.5-1.3c0.4-0.4,0.8-0.5,1.4-0.5c0.5,0,1,0.2,1.4,0.5
		c0.4,0.3,0.5,0.8,0.5,1.3c0,0.5-0.2,1-0.5,1.3c-0.4,0.4-0.8,0.5-1.4,0.5C209.6,152.7,209.1,152.5,208.8,152.2z M208.7,155.7h2.8
		v15.6h-2.8V155.7z"/>
	<path class="st1" d="M219.4,170.4c-1.2-0.7-2.2-1.6-2.9-2.8c-0.7-1.2-1-2.6-1-4.1c0-1.5,0.3-2.9,1-4.1c0.7-1.2,1.7-2.1,2.9-2.8
		c1.2-0.7,2.6-1,4.2-1c1.5,0,2.9,0.3,4.2,1c1.2,0.7,2.2,1.6,2.9,2.8c0.7,1.2,1,2.6,1,4.1c0,1.5-0.3,2.9-1,4.1
		c-0.7,1.2-1.7,2.1-2.9,2.8c-1.2,0.7-2.6,1-4.2,1C222,171.4,220.7,171.1,219.4,170.4z M226.3,168.3c0.8-0.5,1.4-1.1,1.9-1.9
		c0.4-0.8,0.7-1.8,0.7-2.9c0-1.1-0.2-2-0.7-2.9c-0.5-0.8-1.1-1.5-1.9-1.9c-0.8-0.4-1.7-0.7-2.7-0.7c-1,0-1.9,0.2-2.7,0.7
		c-0.8,0.5-1.4,1.1-1.9,1.9c-0.5,0.8-0.7,1.8-0.7,2.9c0,1.1,0.2,2,0.7,2.9c0.5,0.8,1.1,1.5,1.9,1.9c0.8,0.5,1.7,0.7,2.7,0.7
		C224.6,169,225.5,168.7,226.3,168.3z"/>
	<path class="st1" d="M235.6,149.5h2.8v21.8h-2.8V149.5z"/>
	<path class="st1" d="M254.4,157.1c1.1,1.1,1.7,2.6,1.7,4.7v9.4h-2.7v-2.1c-0.5,0.7-1.1,1.3-2,1.7c-0.9,0.4-1.9,0.6-3.1,0.6
		c-1.7,0-3.1-0.4-4.2-1.3c-1-0.8-1.6-1.9-1.6-3.3c0-1.4,0.5-2.5,1.5-3.3c1-0.8,2.6-1.2,4.8-1.2h4.5v-0.6c0-1.2-0.4-2.1-1.1-2.8
		s-1.7-1-3.1-1c-0.9,0-1.8,0.2-2.7,0.5c-0.9,0.3-1.6,0.7-2.2,1.2l-1.2-2.1c0.8-0.6,1.8-1.1,2.9-1.5c1.1-0.3,2.3-0.5,3.6-0.5
		C251.6,155.6,253.2,156.1,254.4,157.1z M251.6,168.5c0.8-0.5,1.3-1.2,1.7-2v-2.2h-4.3c-2.4,0-3.6,0.8-3.6,2.4
		c0,0.8,0.3,1.4,0.9,1.8s1.4,0.7,2.5,0.7S250.8,169,251.6,168.5z"/>
	<path class="st1" d="M263.9,170.4c-1.2-0.7-2.2-1.6-2.9-2.8c-0.7-1.2-1.1-2.6-1.1-4.1c0-1.5,0.4-2.9,1.1-4.1
		c0.7-1.2,1.7-2.1,2.9-2.8c1.2-0.7,2.7-1,4.2-1c1.4,0,2.7,0.3,3.8,0.9c1.1,0.6,2,1.4,2.6,2.5l-2.1,1.4c-0.5-0.7-1.1-1.3-1.8-1.7
		s-1.5-0.6-2.4-0.6c-1,0-1.9,0.2-2.7,0.7c-0.8,0.5-1.4,1.1-1.9,1.9c-0.5,0.8-0.7,1.8-0.7,2.9c0,1.1,0.2,2.1,0.7,2.9
		c0.5,0.8,1.1,1.5,1.9,1.9c0.8,0.5,1.7,0.7,2.7,0.7c0.9,0,1.7-0.2,2.4-0.6s1.3-0.9,1.8-1.7l2.1,1.3c-0.6,1.1-1.5,1.9-2.6,2.5
		c-1.1,0.6-2.4,0.9-3.8,0.9C266.6,171.4,265.2,171.1,263.9,170.4z"/>
	<path class="st1" d="M278.2,152.2c-0.4-0.4-0.5-0.8-0.5-1.3s0.2-0.9,0.5-1.3c0.4-0.4,0.8-0.5,1.4-0.5c0.5,0,1,0.2,1.4,0.5
		c0.4,0.3,0.5,0.8,0.5,1.3c0,0.5-0.2,1-0.5,1.3c-0.4,0.4-0.8,0.5-1.4,0.5C279,152.7,278.5,152.5,278.2,152.2z M278.1,155.7h2.8v15.6
		h-2.8V155.7z"/>
	<path class="st1" d="M288.8,170.4c-1.2-0.7-2.2-1.6-2.9-2.8c-0.7-1.2-1-2.6-1-4.1c0-1.5,0.3-2.9,1-4.1c0.7-1.2,1.7-2.1,2.9-2.8
		c1.2-0.7,2.6-1,4.2-1c1.5,0,2.9,0.3,4.2,1c1.2,0.7,2.2,1.6,2.9,2.8c0.7,1.2,1,2.6,1,4.1c0,1.5-0.3,2.9-1,4.1
		c-0.7,1.2-1.7,2.1-2.9,2.8c-1.2,0.7-2.6,1-4.2,1C291.4,171.4,290,171.1,288.8,170.4z M295.7,168.3c0.8-0.5,1.4-1.1,1.9-1.9
		c0.4-0.8,0.7-1.8,0.7-2.9c0-1.1-0.2-2-0.7-2.9c-0.5-0.8-1.1-1.5-1.9-1.9c-0.8-0.4-1.7-0.7-2.7-0.7c-1,0-1.9,0.2-2.7,0.7
		c-0.8,0.5-1.4,1.1-1.9,1.9c-0.5,0.8-0.7,1.8-0.7,2.9c0,1.1,0.2,2,0.7,2.9c0.5,0.8,1.1,1.5,1.9,1.9c0.8,0.5,1.7,0.7,2.7,0.7
		C294,169,294.9,168.7,295.7,168.3z M294.7,149.6h3.6l-4.9,3.8h-2.6L294.7,149.6z"/>
	<path class="st1" d="M318,157.3c1.2,1.1,1.7,2.8,1.7,5v8.9h-2.8v-8.6c0-1.5-0.4-2.6-1.1-3.4c-0.7-0.8-1.8-1.1-3.1-1.1
		c-1.5,0-2.7,0.4-3.6,1.3c-0.9,0.9-1.3,2.2-1.3,3.8v8H305v-15.6h2.7v2.3c0.6-0.8,1.3-1.4,2.3-1.8c1-0.4,2.1-0.6,3.3-0.6
		C315.2,155.6,316.8,156.1,318,157.3z"/>
	<path class="st1" d="M345.1,156.6c1.2,0.7,2.1,1.6,2.8,2.8c0.7,1.2,1,2.6,1,4.1c0,1.6-0.3,2.9-1,4.2c-0.7,1.2-1.6,2.1-2.8,2.8
		c-1.2,0.7-2.5,1-4,1c-1.1,0-2.1-0.2-3.1-0.6c-0.9-0.4-1.7-1.1-2.4-1.9v8h-2.8v-21.2h2.7v2.5c0.6-0.9,1.4-1.5,2.4-2
		c1-0.4,2-0.7,3.2-0.7C342.6,155.6,343.9,155.9,345.1,156.6z M343.5,168.3c0.8-0.5,1.4-1.1,1.9-1.9c0.5-0.8,0.7-1.8,0.7-2.9
		c0-1.1-0.2-2-0.7-2.9c-0.5-0.8-1.1-1.5-1.9-1.9c-0.8-0.4-1.7-0.7-2.7-0.7c-1,0-1.9,0.2-2.7,0.7c-0.8,0.5-1.4,1.1-1.9,1.9
		c-0.5,0.8-0.7,1.8-0.7,2.8c0,1.1,0.2,2,0.7,2.9c0.5,0.8,1.1,1.5,1.9,1.9s1.7,0.7,2.7,0.7C341.8,169,342.7,168.7,343.5,168.3z"/>
	<path class="st1" d="M363.3,157.1c1.1,1.1,1.7,2.6,1.7,4.7v9.4h-2.7v-2.1c-0.5,0.7-1.1,1.3-2,1.7c-0.9,0.4-1.9,0.6-3.1,0.6
		c-1.7,0-3.1-0.4-4.2-1.3c-1-0.8-1.6-1.9-1.6-3.3c0-1.4,0.5-2.5,1.5-3.3c1-0.8,2.6-1.2,4.8-1.2h4.5v-0.6c0-1.2-0.4-2.1-1.1-2.8
		s-1.7-1-3.1-1c-0.9,0-1.8,0.2-2.7,0.5c-0.9,0.3-1.6,0.7-2.2,1.2l-1.2-2.1c0.8-0.6,1.8-1.1,2.9-1.5c1.1-0.3,2.3-0.5,3.6-0.5
		C360.5,155.6,362.2,156.1,363.3,157.1z M360.5,168.5c0.8-0.5,1.3-1.2,1.7-2v-2.2h-4.3c-2.4,0-3.6,0.8-3.6,2.4
		c0,0.8,0.3,1.4,0.9,1.8s1.4,0.7,2.5,0.7S359.7,169,360.5,168.5z"/>
	<path class="st1" d="M375.1,156.3c1-0.5,2.1-0.7,3.5-0.7v2.7c-0.2,0-0.4,0-0.6,0c-1.5,0-2.7,0.5-3.6,1.4c-0.9,0.9-1.3,2.2-1.3,3.9
		v7.7h-2.8v-15.6h2.7v2.6C373.4,157.4,374.2,156.7,375.1,156.3z"/>
	<path class="st1" d="M392.6,157.1c1.1,1.1,1.7,2.6,1.7,4.7v9.4h-2.7v-2.1c-0.5,0.7-1.1,1.3-2,1.7c-0.9,0.4-1.9,0.6-3.1,0.6
		c-1.7,0-3.1-0.4-4.2-1.3c-1-0.8-1.6-1.9-1.6-3.3c0-1.4,0.5-2.5,1.5-3.3c1-0.8,2.6-1.2,4.8-1.2h4.5v-0.6c0-1.2-0.4-2.1-1.1-2.8
		s-1.7-1-3.1-1c-0.9,0-1.8,0.2-2.7,0.5c-0.9,0.3-1.6,0.7-2.2,1.2l-1.2-2.1c0.8-0.6,1.8-1.1,2.9-1.5c1.1-0.3,2.3-0.5,3.6-0.5
		C389.9,155.6,391.5,156.1,392.6,157.1z M389.8,168.5c0.8-0.5,1.3-1.2,1.7-2v-2.2h-4.3c-2.4,0-3.6,0.8-3.6,2.4
		c0,0.8,0.3,1.4,0.9,1.8s1.4,0.7,2.5,0.7S389.1,169,389.8,168.5z"/>
	<path class="st1" d="M407.9,150.7h2.9v20.5h-2.9V150.7z"/>
	<path class="st1" d="M421.1,153.3h-7v-2.6h17v2.6h-7v18h-2.9V153.3z"/>
	<path class="st1" d="M435.5,170.8c-1.4-0.5-2.6-1.1-3.4-1.9l1.1-2.3c0.8,0.7,1.8,1.3,3,1.7c1.2,0.4,2.5,0.7,3.8,0.7
		c1.7,0,3-0.3,3.8-0.9c0.8-0.6,1.3-1.3,1.3-2.3c0-0.7-0.2-1.3-0.7-1.7c-0.5-0.4-1-0.8-1.7-1s-1.6-0.5-2.9-0.8
		c-1.5-0.4-2.8-0.7-3.7-1.1c-0.9-0.4-1.8-0.9-2.4-1.7c-0.7-0.8-1-1.8-1-3.1c0-1.1,0.3-2.1,0.9-3c0.6-0.9,1.5-1.6,2.6-2.1
		c1.2-0.5,2.6-0.8,4.4-0.8c1.2,0,2.4,0.2,3.6,0.5c1.2,0.3,2.2,0.8,3,1.3l-1,2.3c-0.9-0.5-1.8-1-2.8-1.2c-1-0.3-1.9-0.4-2.9-0.4
		c-1.7,0-2.9,0.3-3.7,0.9c-0.8,0.6-1.2,1.4-1.2,2.3c0,0.7,0.2,1.3,0.7,1.7c0.5,0.4,1.1,0.8,1.7,1c0.7,0.2,1.6,0.5,2.8,0.8
		c1.5,0.4,2.8,0.7,3.7,1.1c0.9,0.4,1.7,0.9,2.4,1.7c0.7,0.8,1,1.8,1,3.1c0,1.1-0.3,2.1-0.9,2.9s-1.5,1.6-2.7,2.1
		c-1.2,0.5-2.7,0.8-4.4,0.8C438.4,171.5,436.9,171.3,435.5,170.8z"/>
	<path class="st1" d="M450,177c1.2-2.1,2-4.2,2.6-6.5c0.6-2.2,0.8-4.7,0.8-7.3s-0.3-5-0.8-7.3c-0.6-2.2-1.4-4.4-2.6-6.5h2.7
		c1.1,1.8,2,3.8,2.6,6.2c0.6,2.3,0.9,4.9,0.9,7.6c0,2.7-0.3,5.2-0.9,7.5c-0.6,2.3-1.5,4.4-2.6,6.2H450z"/>
</g>
</svg>
