<?xml version="1.0" encoding="utf-8"?>
<!-- Generator: Adobe Illustrator 25.4.1, SVG Export Plug-In . SVG Version: 6.00 Build 0)  -->
<svg version="1.1" id="Capa_1" xmlns="http://www.w3.org/2000/svg" xmlns:xlink="http://www.w3.org/1999/xlink" x="0px" y="0px"
	 viewBox="0 0 722 256" style="enable-background:new 0 0 722 256;" xml:space="preserve">
<style type="text/css">
	.st0{opacity:0.7;}
	.st1{opacity:0.7;fill:#CAE591;}
	.st2{fill:#3C246F;}
</style>
<g class="st0">
	<path class="st1" d="M143.5,84.3c-15.9-5.4-118.2,4.9-125.1,3.8c-6.3-1.9,0.3-41,5.6-47c1.9-2.1,4.2-2.7,9.7-1.9
		c4.8,0.7,38.9-1.5,118.9-5.9c1.5,1.2,5.7-3,6.6-1.5c1.3,1.6,103.5-1.9,196.9-2.2c9.3,0,1.9,2.2,12.8,1.5
		c23.3-1.5,73.8,1.7,91.4,0.2c14.2-1.2,17.2-1.2,30.6,0.7c10.6,1.5,87,3.7,95.7,1.6c2.1-0.6,3.6-0.3,3.6,0.6
		c1.4,0.2,6.7,0.6,8.1,0.7c16.3,1.3,21.6,1.7,35.5,3.1c4.9,0.5,8.1,0.9,8.2,1.1c0.3,0.9,1.8,1.4,3.4,0.9c2.8-0.9,58,0.2,58.6,2.8
		c1.8,7.4-9,37.1-15.9,44.1c-7.3,7.3-41-4.2-70.6-1.4c-25.3-1.5-45.2-2.7-66.3-3.7c-75.5-3.7-66.1-2.9-94.9-1
		c-3.2-2.7-15.9,3.2-23.3-1.5c-3.1-2-25.7-2.7-30.8-1c-1.1,0.4-9.1,0.2-20.8-0.1c-10.9-0.3-100.9-3.2-111.2,1.5
		C247.2,75.1,166.7,82.4,143.5,84.3z"/>
	<path class="st1" d="M156.2,122.9c-13.4-5.4-110.9,1.1-118-0.5c-5.8-2.2,2.7-41,8-46.7c1.9-2.1,4-2.4,9.1-1.5
		c8,1.7,110.7-2.2,110.7-2.2c1.4,1.2,5.4-2.9,6.2-1.4c2.4,3.4,168.9-2,183.1-2.2c8.6-0.2,1.8,2.2,12,1.2c21.6-2,68.7-0.4,85-2.6
		c13.1-1.8,15.9-1.9,28.5-0.5c12.9,1.2,81.2-0.9,88.9-3.7c1.9-0.8,3.4-0.5,3.4,0.4c0,0.2,48.2,0.6,48.4,1.3c0.4,0.9,1.9,1.3,3.2,0.7
		c2.5-0.9,53.7-4.4,54.6-1.9c2.7,7.2-3.8,37.7-9.6,45.2c-5.9,8-39.6-0.8-66.4,4.1l-125.2,1l-26.8,3.1c-3.1-2.6-14.8,4-22.1-0.6
		c-3.1-1.8-24.4-2-29.1,0c-4.1,1.5-113.3-1.8-124.3,3.5C255.7,115.2,174.9,121.7,156.2,122.9z"/>
	<path class="st1" d="M149.4,158.3c-7.6-3.9-50.8-7.3-90.7-3c-1.3,0.1-15.6,2-16.9,1.8c-5.6-1.6-6.3-39.9-0.7-47.1
		c2.9-3.8,6.7-2.1,17.3-2.6c28.6-1.3,32.2-2.5,107,1.2c1.2,1.3,5.6-2.4,6.2-0.9c1,1.8,41.9,5,84.4,6.8c42.5,1.8,86.5,2.1,93.4,2.1
		c8.4,0.1,1.7,2.3,11.6,1.6c21-1.3,66.9,1.1,82.8-1.1c30-4.1,8.4,2.3,72.8-1.3c6-0.3,35.8-2,41.2-4.3c1.8-0.8,3.2-0.6,3.3,0.3
		c0.6,0,47-0.9,47.1-0.5c0.4,0.8,1.9,1.2,3.2,0.5c2.4-1.1,51.8-7.1,52.8-4.8c3.2,7-0.3,37.8-5.4,45.6c-5.3,8.3-39.3,1.5-65.5,7.4
		c-141.8,6.6-90.4,0.1-151,6.7c-3.1-2.6-14.7,3.8-21.9-0.8c-3-1.9-24.2-2.4-28.9-0.5c-2,0.7-30.2-0.3-59.1-1.5
		c-29-1.1-58.8-2.4-64.5-0.1C253.8,160,208,159.4,149.4,158.3z"/>
	<path class="st1" d="M161.4,196.8c-12.1-5.7-104.6-2.8-111.9-4.8c-5.4-2.4,5-40.8,10.3-46.3c1.9-2,4-2.3,8.6-1.1
		c7.7,2,94.2,1.8,104.5,1.7c1.3,1.2,5.2-2.7,5.9-1.2c2.5,4.1,168.3,2.1,172.7,2.1c8.1,0,1.7,2.2,11.3,1.4
		c20.4-1.7,64.8,0.6,80.2-1.6c12.4-1.7,15-1.7,26.9-0.3c12.1,1.4,76.7-0.5,83.9-3.4c1.8-0.7,3.2-0.5,3.2,0.4
		c0.6,0,45.5,0.6,45.7,1.2c0.4,0.9,1.8,1.3,3,0.6c2.3-0.9,50.6-4.7,51.5-2.2c2.5,7.2-3.1,37.7-8.4,45.2c-5.6,8-37.6-0.5-63,4.5
		c-140.8,1.2-108.5-0.4-144.3,3.6c-2.9-2.6-14,3.8-20.9-0.8c-2.8-1.9-23.1-2.3-27.6-0.4c-1.9,0.7-28.8-0.1-56.5-0.6
		c-27.7-0.5-56.2-0.7-61.6,1.8C256.1,192,179.2,196.4,161.4,196.8z"/>
	<path class="st1" d="M161.9,246.4c-6.3-2.8-32.6-2.8-59-4.2c-26.3-1.4-51.3-4.6-55.8-6.6c-2.6-1.6,1.2-11.4,6.2-21.4
		c12.8-26,15-25.5,21.5-22.8c4.5,1.9,27.3,4.2,49.9,4.7c18.7,0.4,35-0.1,46.7-0.5c1.3,1.2,4.9-2.8,5.6-1.4c1,1.7,39.9,1.3,80.1,0.1
		c40.2-1.1,81.8-2.9,88.4-3.1c7.9-0.2,1.7,2.2,11,1.1c19.8-2.2,63.3-1.1,78.2-3.5c12-2,14.6-2,26.2-0.9c11.9,1.1,74.8-2.1,81.8-5.1
		c1.7-0.8,3.1-0.6,3.1,0.3c1.8,0.1,20.4,0,22.2,0c0.6,0,22.2-0.1,22.4,0.3c0.4,0.8,1.8,1.2,3,0.6c2.3-0.9,49.2-5.6,50.2-3.1
		c2.7,7.1-2,37.7-7,45.4c-5.3,8.1-36.6,0.1-61.2,5.6c-138,4.1-105.7,1.8-140.4,6.7c-2.9-2.5-13.5,4.1-20.4-0.3
		c-2.8-1.8-22.6-1.7-26.9,0.3c-3.7,1.7-104.7-0.8-114.9,4.4C254.2,238.7,180,245.6,161.9,246.4z"/>
</g>
<g>
	<g>
		<path class="st2" d="M33.1,54.4l3.5,2L35.6,58l-3.6-2.1l0,4h-1.8l0-4L26.8,58l-0.9-1.6l3.5-2l-3.5-1.9l0.9-1.6l3.6,2.1l0-4h1.8
			l0,4l3.6-2.1l0.9,1.6L33.1,54.4z"/>
		<path class="st2" d="M40.2,50.2h8.7c2.2,0,4.1,0.4,5.8,1.3c1.7,0.9,3,2.1,3.9,3.6c0.9,1.6,1.4,3.3,1.4,5.4c0,2-0.5,3.8-1.4,5.4
			c-0.9,1.6-2.2,2.8-3.9,3.6s-3.6,1.3-5.8,1.3h-8.7V50.2z M48.7,68.2c1.7,0,3.1-0.3,4.4-1s2.2-1.6,2.9-2.7c0.7-1.2,1-2.5,1-4
			c0-1.5-0.3-2.9-1-4c-0.7-1.2-1.7-2.1-2.9-2.7s-2.7-1-4.4-1h-5.5v15.4H48.7z"/>
		<path class="st2" d="M78,63.9H65.4c0.2,1.4,0.8,2.5,1.8,3.3c1,0.8,2.3,1.2,3.8,1.2c1.9,0,3.4-0.6,4.5-1.9l1.6,1.8
			c-0.7,0.8-1.6,1.4-2.6,1.9s-2.2,0.6-3.5,0.6c-1.6,0-3.1-0.3-4.4-1c-1.3-0.7-2.3-1.6-2.9-2.8c-0.7-1.2-1-2.6-1-4.1
			c0-1.5,0.3-2.9,1-4.1c0.7-1.2,1.6-2.2,2.8-2.8c1.2-0.7,2.5-1,4-1c1.5,0,2.8,0.3,4,1c1.2,0.7,2.1,1.6,2.7,2.8c0.7,1.2,1,2.6,1,4.2
			C78.1,63.3,78.1,63.5,78,63.9z M67,58.6c-0.9,0.8-1.4,1.9-1.6,3.2h10c-0.2-1.3-0.7-2.4-1.6-3.2s-2-1.2-3.4-1.2
			C69,57.4,67.9,57.8,67,58.6z"/>
		<path class="st2" d="M82.8,70.4c-1.2-0.3-2.1-0.8-2.8-1.3l1.2-2.2c0.7,0.5,1.5,0.9,2.5,1.2c1,0.3,2,0.4,3,0.4
			c2.5,0,3.7-0.7,3.7-2.1c0-0.5-0.2-0.8-0.5-1.1s-0.7-0.5-1.2-0.6c-0.5-0.1-1.2-0.3-2.1-0.4c-1.3-0.2-2.3-0.4-3.1-0.7
			c-0.8-0.3-1.5-0.7-2-1.3c-0.6-0.6-0.9-1.5-0.9-2.6c0-1.4,0.6-2.5,1.8-3.4C83.4,55.5,85,55,87,55c1,0,2.1,0.1,3.1,0.4
			c1,0.3,1.9,0.6,2.6,1l-1.2,2.2c-1.3-0.8-2.8-1.2-4.5-1.2c-1.2,0-2.1,0.2-2.7,0.6c-0.6,0.4-0.9,0.9-0.9,1.6c0,0.5,0.2,0.9,0.5,1.2
			c0.4,0.3,0.8,0.5,1.3,0.6c0.5,0.1,1.2,0.3,2.2,0.5c1.3,0.2,2.3,0.4,3,0.7c0.8,0.2,1.4,0.7,2,1.2c0.5,0.6,0.8,1.4,0.8,2.5
			c0,1.4-0.6,2.5-1.8,3.4s-2.8,1.2-4.9,1.2C85.2,70.9,83.9,70.7,82.8,70.4z"/>
		<path class="st2" d="M109,56c1.2,0.7,2.1,1.6,2.8,2.8c0.7,1.2,1,2.6,1,4.1c0,1.6-0.3,2.9-1,4.2c-0.7,1.2-1.6,2.1-2.8,2.8
			c-1.2,0.7-2.5,1-4,1c-1.1,0-2.1-0.2-3.1-0.6c-0.9-0.4-1.7-1.1-2.4-1.9v8h-2.8V55.2h2.7v2.5c0.6-0.9,1.4-1.5,2.4-2
			c1-0.4,2-0.7,3.2-0.7C106.4,55,107.8,55.4,109,56z M107.4,67.8c0.8-0.5,1.4-1.1,1.9-1.9c0.5-0.8,0.7-1.8,0.7-2.9
			c0-1.1-0.2-2-0.7-2.9c-0.5-0.8-1.1-1.5-1.9-1.9c-0.8-0.4-1.7-0.7-2.7-0.7c-1,0-1.9,0.2-2.7,0.7c-0.8,0.5-1.4,1.1-1.9,1.9
			c-0.5,0.8-0.7,1.8-0.7,2.8c0,1.1,0.2,2,0.7,2.9c0.5,0.8,1.1,1.5,1.9,1.9s1.7,0.7,2.7,0.7C105.7,68.4,106.6,68.2,107.4,67.8z"/>
		<path class="st2" d="M131.2,55.2v15.6h-2.7v-2.3c-0.6,0.8-1.3,1.4-2.2,1.9c-0.9,0.4-1.9,0.7-3,0.7c-2.1,0-3.7-0.6-4.9-1.7
			c-1.2-1.1-1.8-2.8-1.8-5.1v-8.9h2.8v8.6c0,1.5,0.4,2.6,1.1,3.4c0.7,0.8,1.8,1.2,3.1,1.2c1.5,0,2.7-0.5,3.5-1.4
			c0.9-0.9,1.3-2.2,1.3-3.8v-8H131.2z"/>
		<path class="st2" d="M150.6,63.9h-12.6c0.2,1.4,0.8,2.5,1.8,3.3c1,0.8,2.3,1.2,3.8,1.2c1.9,0,3.4-0.6,4.5-1.9l1.6,1.8
			c-0.7,0.8-1.6,1.4-2.6,1.9s-2.2,0.6-3.5,0.6c-1.6,0-3.1-0.3-4.4-1c-1.3-0.7-2.3-1.6-2.9-2.8c-0.7-1.2-1-2.6-1-4.1
			c0-1.5,0.3-2.9,1-4.1c0.7-1.2,1.6-2.2,2.8-2.8c1.2-0.7,2.5-1,4-1c1.5,0,2.8,0.3,4,1c1.2,0.7,2.1,1.6,2.7,2.8c0.7,1.2,1,2.6,1,4.2
			C150.6,63.3,150.6,63.5,150.6,63.9z M139.5,58.6c-0.9,0.8-1.4,1.9-1.6,3.2h10c-0.2-1.3-0.7-2.4-1.6-3.2s-2-1.2-3.4-1.2
			C141.6,57.4,140.4,57.8,139.5,58.6z M144.7,49.1h3.6l-4.9,3.8h-2.6L144.7,49.1z"/>
		<path class="st2" d="M155.3,70.4c-1.2-0.3-2.1-0.8-2.8-1.3l1.2-2.2c0.7,0.5,1.5,0.9,2.5,1.2c1,0.3,2,0.4,3,0.4
			c2.5,0,3.7-0.7,3.7-2.1c0-0.5-0.2-0.8-0.5-1.1s-0.7-0.5-1.2-0.6c-0.5-0.1-1.2-0.3-2.1-0.4c-1.3-0.2-2.3-0.4-3.1-0.7
			c-0.8-0.3-1.5-0.7-2-1.3c-0.6-0.6-0.9-1.5-0.9-2.6c0-1.4,0.6-2.5,1.8-3.4c1.2-0.9,2.7-1.3,4.7-1.3c1,0,2.1,0.1,3.1,0.4
			c1,0.3,1.9,0.6,2.6,1l-1.2,2.2c-1.3-0.8-2.8-1.2-4.5-1.2c-1.2,0-2.1,0.2-2.7,0.6c-0.6,0.4-0.9,0.9-0.9,1.6c0,0.5,0.2,0.9,0.5,1.2
			c0.4,0.3,0.8,0.5,1.3,0.6c0.5,0.1,1.2,0.3,2.2,0.5c1.3,0.2,2.3,0.4,3,0.7c0.8,0.2,1.4,0.7,2,1.2c0.5,0.6,0.8,1.4,0.8,2.5
			c0,1.4-0.6,2.5-1.8,3.4s-2.8,1.2-4.9,1.2C157.7,70.9,156.5,70.7,155.3,70.4z"/>
		<path class="st2" d="M191.8,49v21.8h-2.7v-2.5c-0.6,0.9-1.4,1.5-2.4,2c-1,0.5-2,0.7-3.2,0.7c-1.5,0-2.9-0.3-4-1
			c-1.2-0.7-2.1-1.6-2.8-2.8c-0.7-1.2-1-2.6-1-4.2c0-1.6,0.3-2.9,1-4.1c0.7-1.2,1.6-2.1,2.8-2.8c1.2-0.7,2.5-1,4-1
			c1.1,0,2.1,0.2,3.1,0.6c0.9,0.4,1.7,1,2.3,1.9V49H191.8z M186.4,67.8c0.8-0.5,1.4-1.1,1.9-1.9C188.8,65,189,64,189,63
			c0-1.1-0.2-2-0.7-2.9c-0.5-0.8-1.1-1.5-1.9-1.9c-0.8-0.4-1.7-0.7-2.7-0.7c-1,0-1.9,0.2-2.7,0.7c-0.8,0.5-1.4,1.1-1.9,1.9
			c-0.5,0.8-0.7,1.8-0.7,2.9c0,1.1,0.2,2,0.7,2.9c0.5,0.8,1.1,1.5,1.9,1.9c0.8,0.5,1.7,0.7,2.7,0.7
			C184.7,68.4,185.6,68.2,186.4,67.8z"/>
		<path class="st2" d="M211.1,63.9h-12.6c0.2,1.4,0.8,2.5,1.8,3.3c1,0.8,2.3,1.2,3.8,1.2c1.9,0,3.4-0.6,4.5-1.9l1.6,1.8
			c-0.7,0.8-1.6,1.4-2.6,1.9s-2.2,0.6-3.5,0.6c-1.6,0-3.1-0.3-4.4-1c-1.3-0.7-2.3-1.6-2.9-2.8c-0.7-1.2-1-2.6-1-4.1
			c0-1.5,0.3-2.9,1-4.1c0.7-1.2,1.6-2.2,2.8-2.8c1.2-0.7,2.5-1,4-1c1.5,0,2.8,0.3,4,1c1.2,0.7,2.1,1.6,2.7,2.8c0.7,1.2,1,2.6,1,4.2
			C211.2,63.3,211.2,63.5,211.1,63.9z M200.1,58.6c-0.9,0.8-1.4,1.9-1.6,3.2h10c-0.2-1.3-0.7-2.4-1.6-3.2s-2-1.2-3.4-1.2
			C202.1,57.4,201,57.8,200.1,58.6z"/>
		<path class="st2" d="M237.5,55.2v15.6h-2.7v-2.3c-0.6,0.8-1.3,1.4-2.2,1.9c-0.9,0.4-1.9,0.7-3,0.7c-2.1,0-3.7-0.6-4.9-1.7
			c-1.2-1.1-1.8-2.8-1.8-5.1v-8.9h2.8v8.6c0,1.5,0.4,2.6,1.1,3.4c0.7,0.8,1.8,1.2,3.1,1.2c1.5,0,2.7-0.5,3.5-1.4
			c0.9-0.9,1.3-2.2,1.3-3.8v-8H237.5z"/>
		<path class="st2" d="M255.8,56.8c1.2,1.1,1.7,2.8,1.7,5v8.9h-2.8v-8.6c0-1.5-0.4-2.6-1.1-3.4c-0.7-0.8-1.8-1.1-3.1-1.1
			c-1.5,0-2.7,0.4-3.6,1.3c-0.9,0.9-1.3,2.2-1.3,3.8v8h-2.8V55.2h2.7v2.3c0.6-0.8,1.3-1.4,2.3-1.8c1-0.4,2.1-0.6,3.3-0.6
			C253.1,55,254.7,55.6,255.8,56.8z"/>
		<path class="st2" d="M273.4,56.6c1.1,1.1,1.7,2.6,1.7,4.7v9.4h-2.7v-2.1c-0.5,0.7-1.1,1.3-2,1.7c-0.9,0.4-1.9,0.6-3.1,0.6
			c-1.7,0-3.1-0.4-4.2-1.3c-1-0.8-1.6-1.9-1.6-3.3c0-1.4,0.5-2.5,1.5-3.3c1-0.8,2.6-1.2,4.8-1.2h4.5v-0.6c0-1.2-0.4-2.1-1.1-2.8
			s-1.7-1-3.1-1c-0.9,0-1.8,0.2-2.7,0.5c-0.9,0.3-1.6,0.7-2.2,1.2l-1.2-2.1c0.8-0.6,1.8-1.1,2.9-1.5c1.1-0.3,2.3-0.5,3.6-0.5
			C270.6,55,272.3,55.6,273.4,56.6z M270.6,68c0.8-0.5,1.3-1.2,1.7-2v-2.2H268c-2.4,0-3.6,0.8-3.6,2.4c0,0.8,0.3,1.4,0.9,1.8
			s1.4,0.7,2.5,0.7S269.8,68.5,270.6,68z"/>
		<path class="st2" d="M293.1,55.7c1-0.5,2.1-0.7,3.5-0.7v2.7c-0.2,0-0.4,0-0.6,0c-1.5,0-2.7,0.5-3.6,1.4c-0.9,0.9-1.3,2.2-1.3,3.9
			v7.7h-2.8V55.2h2.7v2.6C291.4,56.9,292.2,56.2,293.1,55.7z"/>
		<path class="st2" d="M313.9,63.9h-12.6c0.2,1.4,0.8,2.5,1.8,3.3c1,0.8,2.3,1.2,3.8,1.2c1.9,0,3.4-0.6,4.5-1.9l1.6,1.8
			c-0.7,0.8-1.6,1.4-2.6,1.9s-2.2,0.6-3.5,0.6c-1.6,0-3.1-0.3-4.4-1c-1.3-0.7-2.3-1.6-2.9-2.8c-0.7-1.2-1-2.6-1-4.1
			c0-1.5,0.3-2.9,1-4.1c0.7-1.2,1.6-2.2,2.8-2.8c1.2-0.7,2.5-1,4-1c1.5,0,2.8,0.3,4,1c1.2,0.7,2.1,1.6,2.7,2.8c0.7,1.2,1,2.6,1,4.2
			C314,63.3,314,63.5,313.9,63.9z M302.9,58.6c-0.9,0.8-1.4,1.9-1.6,3.2h10c-0.2-1.3-0.7-2.4-1.6-3.2s-2-1.2-3.4-1.2
			C304.9,57.4,303.8,57.8,302.9,58.6z"/>
		<path class="st2" d="M317.9,49h2.8v21.8h-2.8V49z"/>
		<path class="st2" d="M336.7,56.6c1.1,1.1,1.7,2.6,1.7,4.7v9.4h-2.7v-2.1c-0.5,0.7-1.1,1.3-2,1.7c-0.9,0.4-1.9,0.6-3.1,0.6
			c-1.7,0-3.1-0.4-4.2-1.3c-1-0.8-1.6-1.9-1.6-3.3c0-1.4,0.5-2.5,1.5-3.3c1-0.8,2.6-1.2,4.8-1.2h4.5v-0.6c0-1.2-0.4-2.1-1.1-2.8
			s-1.7-1-3.1-1c-0.9,0-1.8,0.2-2.7,0.5c-0.9,0.3-1.6,0.7-2.2,1.2l-1.2-2.1c0.8-0.6,1.8-1.1,2.9-1.5c1.1-0.3,2.3-0.5,3.6-0.5
			C333.9,55,335.5,55.6,336.7,56.6z M333.9,68c0.8-0.5,1.3-1.2,1.7-2v-2.2h-4.3c-2.4,0-3.6,0.8-3.6,2.4c0,0.8,0.3,1.4,0.9,1.8
			s1.4,0.7,2.5,0.7S333.1,68.5,333.9,68z"/>
		<path class="st2" d="M346.2,69.9c-1.2-0.7-2.2-1.6-2.9-2.8c-0.7-1.2-1.1-2.6-1.1-4.1c0-1.5,0.4-2.9,1.1-4.1
			c0.7-1.2,1.7-2.1,2.9-2.8c1.2-0.7,2.7-1,4.2-1c1.4,0,2.7,0.3,3.8,0.9c1.1,0.6,2,1.4,2.6,2.5l-2.1,1.4c-0.5-0.7-1.1-1.3-1.8-1.7
			s-1.5-0.6-2.4-0.6c-1,0-1.9,0.2-2.7,0.7c-0.8,0.5-1.4,1.1-1.9,1.9c-0.5,0.8-0.7,1.8-0.7,2.9c0,1.1,0.2,2.1,0.7,2.9
			c0.5,0.8,1.1,1.5,1.9,1.9c0.8,0.5,1.7,0.7,2.7,0.7c0.9,0,1.7-0.2,2.4-0.6s1.3-0.9,1.8-1.7l2.1,1.3c-0.6,1.1-1.5,1.9-2.6,2.5
			c-1.1,0.6-2.4,0.9-3.8,0.9C348.9,70.9,347.5,70.6,346.2,69.9z"/>
		<path class="st2" d="M360.5,51.7c-0.4-0.4-0.5-0.8-0.5-1.3s0.2-0.9,0.5-1.3c0.4-0.4,0.8-0.5,1.4-0.5c0.5,0,1,0.2,1.4,0.5
			c0.4,0.3,0.5,0.8,0.5,1.3c0,0.5-0.2,1-0.5,1.3c-0.4,0.4-0.8,0.5-1.4,0.5C361.3,52.2,360.9,52,360.5,51.7z M360.5,55.2h2.8v15.6
			h-2.8V55.2z"/>
		<path class="st2" d="M371.1,69.9c-1.2-0.7-2.2-1.6-2.9-2.8c-0.7-1.2-1-2.6-1-4.1c0-1.5,0.3-2.9,1-4.1c0.7-1.2,1.7-2.1,2.9-2.8
			c1.2-0.7,2.6-1,4.2-1c1.5,0,2.9,0.3,4.2,1c1.2,0.7,2.2,1.6,2.9,2.8c0.7,1.2,1,2.6,1,4.1c0,1.5-0.3,2.9-1,4.1
			c-0.7,1.2-1.7,2.1-2.9,2.8c-1.2,0.7-2.6,1-4.2,1C373.8,70.9,372.4,70.6,371.1,69.9z M378,67.8c0.8-0.5,1.4-1.1,1.9-1.9
			c0.4-0.8,0.7-1.8,0.7-2.9c0-1.1-0.2-2-0.7-2.9c-0.5-0.8-1.1-1.5-1.9-1.9c-0.8-0.4-1.7-0.7-2.7-0.7c-1,0-1.9,0.2-2.7,0.7
			c-0.8,0.5-1.4,1.1-1.9,1.9c-0.5,0.8-0.7,1.8-0.7,2.9c0,1.1,0.2,2,0.7,2.9c0.5,0.8,1.1,1.5,1.9,1.9c0.8,0.5,1.7,0.7,2.7,0.7
			C376.3,68.4,377.2,68.2,378,67.8z M377.1,49.1h3.6l-4.9,3.8h-2.6L377.1,49.1z"/>
		<path class="st2" d="M400.3,56.8c1.2,1.1,1.7,2.8,1.7,5v8.9h-2.8v-8.6c0-1.5-0.4-2.6-1.1-3.4c-0.7-0.8-1.8-1.1-3.1-1.1
			c-1.5,0-2.7,0.4-3.6,1.3c-0.9,0.9-1.3,2.2-1.3,3.8v8h-2.8V55.2h2.7v2.3c0.6-0.8,1.3-1.4,2.3-1.8c1-0.4,2.1-0.6,3.3-0.6
			C397.6,55,399.1,55.6,400.3,56.8z"/>
		<path class="st2" d="M416,70.4c-1.2-0.3-2.1-0.8-2.8-1.3l1.2-2.2c0.7,0.5,1.5,0.9,2.5,1.2c1,0.3,2,0.4,3,0.4
			c2.5,0,3.7-0.7,3.7-2.1c0-0.5-0.2-0.8-0.5-1.1s-0.7-0.5-1.2-0.6c-0.5-0.1-1.2-0.3-2.1-0.4c-1.3-0.2-2.3-0.4-3.1-0.7
			c-0.8-0.3-1.5-0.7-2-1.3c-0.6-0.6-0.9-1.5-0.9-2.6c0-1.4,0.6-2.5,1.8-3.4c1.2-0.9,2.7-1.3,4.7-1.3c1,0,2.1,0.1,3.1,0.4
			c1,0.3,1.9,0.6,2.6,1l-1.2,2.2c-1.3-0.8-2.8-1.2-4.5-1.2c-1.2,0-2.1,0.2-2.7,0.6c-0.6,0.4-0.9,0.9-0.9,1.6c0,0.5,0.2,0.9,0.5,1.2
			c0.4,0.3,0.8,0.5,1.3,0.6c0.5,0.1,1.2,0.3,2.2,0.5c1.3,0.2,2.3,0.4,3,0.7c0.8,0.2,1.4,0.7,2,1.2c0.5,0.6,0.8,1.4,0.8,2.5
			c0,1.4-0.6,2.5-1.8,3.4s-2.8,1.2-4.9,1.2C418.3,70.9,417.1,70.7,416,70.4z"/>
		<path class="st2" d="M443.9,63.9h-12.6c0.2,1.4,0.8,2.5,1.8,3.3c1,0.8,2.3,1.2,3.8,1.2c1.9,0,3.4-0.6,4.5-1.9l1.6,1.8
			c-0.7,0.8-1.6,1.4-2.6,1.9s-2.2,0.6-3.5,0.6c-1.6,0-3.1-0.3-4.4-1c-1.3-0.7-2.3-1.6-2.9-2.8c-0.7-1.2-1-2.6-1-4.1
			c0-1.5,0.3-2.9,1-4.1c0.7-1.2,1.6-2.2,2.8-2.8c1.2-0.7,2.5-1,4-1c1.5,0,2.8,0.3,4,1c1.2,0.7,2.1,1.6,2.7,2.8c0.7,1.2,1,2.6,1,4.2
			C443.9,63.3,443.9,63.5,443.9,63.9z M432.8,58.6c-0.9,0.8-1.4,1.9-1.6,3.2h10c-0.2-1.3-0.7-2.4-1.6-3.2s-2-1.2-3.4-1.2
			C434.9,57.4,433.7,57.8,432.8,58.6z"/>
		<path class="st2" d="M457.3,70.7l-4.5-6l-4.5,6h-3.1l6.1-8l-5.8-7.6h3.1l4.3,5.6l4.3-5.6h3.1l-5.9,7.6l6.2,8H457.3z"/>
		<path class="st2" d="M477.8,55.2v15.6h-2.7v-2.3c-0.6,0.8-1.3,1.4-2.2,1.9c-0.9,0.4-1.9,0.7-3,0.7c-2.1,0-3.7-0.6-4.9-1.7
			c-1.2-1.1-1.8-2.8-1.8-5.1v-8.9h2.8v8.6c0,1.5,0.4,2.6,1.1,3.4c0.7,0.8,1.8,1.2,3.1,1.2c1.5,0,2.7-0.5,3.5-1.4
			c0.9-0.9,1.3-2.2,1.3-3.8v-8H477.8z"/>
		<path class="st2" d="M493.8,56.6c1.1,1.1,1.7,2.6,1.7,4.7v9.4h-2.7v-2.1c-0.5,0.7-1.1,1.3-2,1.7c-0.9,0.4-1.9,0.6-3.1,0.6
			c-1.7,0-3.1-0.4-4.2-1.3c-1-0.8-1.6-1.9-1.6-3.3c0-1.4,0.5-2.5,1.5-3.3c1-0.8,2.6-1.2,4.8-1.2h4.5v-0.6c0-1.2-0.4-2.1-1.1-2.8
			s-1.7-1-3.1-1c-0.9,0-1.8,0.2-2.7,0.5c-0.9,0.3-1.6,0.7-2.2,1.2l-1.2-2.1c0.8-0.6,1.8-1.1,2.9-1.5c1.1-0.3,2.3-0.5,3.6-0.5
			C491,55,492.6,55.6,493.8,56.6z M490.9,68c0.8-0.5,1.3-1.2,1.7-2v-2.2h-4.3c-2.4,0-3.6,0.8-3.6,2.4c0,0.8,0.3,1.4,0.9,1.8
			s1.4,0.7,2.5,0.7S490.2,68.5,490.9,68z"/>
		<path class="st2" d="M500.7,49h2.8v21.8h-2.8V49z"/>
		<path class="st2" d="M519.3,69.9c-1.2-0.7-2.2-1.6-2.9-2.8c-0.7-1.2-1.1-2.6-1.1-4.1c0-1.5,0.4-2.9,1.1-4.1
			c0.7-1.2,1.7-2.1,2.9-2.8c1.2-0.7,2.7-1,4.2-1c1.4,0,2.7,0.3,3.8,0.9c1.1,0.6,2,1.4,2.6,2.5l-2.1,1.4c-0.5-0.7-1.1-1.3-1.8-1.7
			s-1.5-0.6-2.4-0.6c-1,0-1.9,0.2-2.7,0.7c-0.8,0.5-1.4,1.1-1.9,1.9c-0.5,0.8-0.7,1.8-0.7,2.9c0,1.1,0.2,2.1,0.7,2.9
			c0.5,0.8,1.1,1.5,1.9,1.9c0.8,0.5,1.7,0.7,2.7,0.7c0.9,0,1.7-0.2,2.4-0.6s1.3-0.9,1.8-1.7l2.1,1.3c-0.6,1.1-1.5,1.9-2.6,2.5
			c-1.1,0.6-2.4,0.9-3.8,0.9C522,70.9,520.5,70.6,519.3,69.9z"/>
		<path class="st2" d="M535.8,69.9c-1.2-0.7-2.2-1.6-2.9-2.8c-0.7-1.2-1-2.6-1-4.1c0-1.5,0.3-2.9,1-4.1c0.7-1.2,1.7-2.1,2.9-2.8
			c1.2-0.7,2.6-1,4.2-1c1.5,0,2.9,0.3,4.2,1c1.2,0.7,2.2,1.6,2.9,2.8c0.7,1.2,1,2.6,1,4.1c0,1.5-0.3,2.9-1,4.1
			c-0.7,1.2-1.7,2.1-2.9,2.8c-1.2,0.7-2.6,1-4.2,1C538.4,70.9,537,70.6,535.8,69.9z M542.6,67.8c0.8-0.5,1.4-1.1,1.9-1.9
			c0.4-0.8,0.7-1.8,0.7-2.9c0-1.1-0.2-2-0.7-2.9c-0.5-0.8-1.1-1.5-1.9-1.9c-0.8-0.4-1.7-0.7-2.7-0.7c-1,0-1.9,0.2-2.7,0.7
			c-0.8,0.5-1.4,1.1-1.9,1.9c-0.5,0.8-0.7,1.8-0.7,2.9c0,1.1,0.2,2,0.7,2.9c0.5,0.8,1.1,1.5,1.9,1.9c0.8,0.5,1.7,0.7,2.7,0.7
			C540.9,68.4,541.8,68.2,542.6,67.8z"/>
		<path class="st2" d="M564.9,56.8c1.2,1.1,1.7,2.8,1.7,5v8.9h-2.8v-8.6c0-1.5-0.4-2.6-1.1-3.4c-0.7-0.8-1.8-1.1-3.1-1.1
			c-1.5,0-2.7,0.4-3.6,1.3c-0.9,0.9-1.3,2.2-1.3,3.8v8h-2.8V55.2h2.7v2.3c0.6-0.8,1.3-1.4,2.3-1.8c1-0.4,2.1-0.6,3.3-0.6
			C562.2,55,563.8,55.6,564.9,56.8z"/>
		<path class="st2" d="M583,53.8v1.4h4.5v2.3H583v13.2h-2.8V57.5h-2.6v-2.3h2.6v-1.4c0-1.5,0.4-2.8,1.3-3.7c0.9-0.9,2.2-1.4,3.8-1.4
			c0.6,0,1.2,0.1,1.8,0.2c0.5,0.2,1,0.4,1.4,0.7l-0.9,2.1c-0.6-0.5-1.4-0.7-2.2-0.7C583.8,51.1,583,52,583,53.8z"/>
		<path class="st2" d="M600.5,56.6c1.1,1.1,1.7,2.6,1.7,4.7v9.4h-2.7v-2.1c-0.5,0.7-1.1,1.3-2,1.7c-0.9,0.4-1.9,0.6-3.1,0.6
			c-1.7,0-3.1-0.4-4.2-1.3c-1-0.8-1.6-1.9-1.6-3.3c0-1.4,0.5-2.5,1.5-3.3c1-0.8,2.6-1.2,4.8-1.2h4.5v-0.6c0-1.2-0.4-2.1-1.1-2.8
			s-1.7-1-3.1-1c-0.9,0-1.8,0.2-2.7,0.5c-0.9,0.3-1.6,0.7-2.2,1.2l-1.2-2.1c0.8-0.6,1.8-1.1,2.9-1.5c1.1-0.3,2.3-0.5,3.6-0.5
			C597.7,55,599.3,55.6,600.5,56.6z M597.7,68c0.8-0.5,1.3-1.2,1.7-2v-2.2H595c-2.4,0-3.6,0.8-3.6,2.4c0,0.8,0.3,1.4,0.9,1.8
			s1.4,0.7,2.5,0.7S596.9,68.5,597.7,68z"/>
		<path class="st2" d="M607.4,49h2.8v21.8h-2.8V49z"/>
		<path class="st2" d="M615.6,49h2.8v21.8h-2.8V49z"/>
		<path class="st2" d="M634.4,56.6c1.1,1.1,1.7,2.6,1.7,4.7v9.4h-2.7v-2.1c-0.5,0.7-1.1,1.3-2,1.7c-0.9,0.4-1.9,0.6-3.1,0.6
			c-1.7,0-3.1-0.4-4.2-1.3c-1-0.8-1.6-1.9-1.6-3.3c0-1.4,0.5-2.5,1.5-3.3c1-0.8,2.6-1.2,4.8-1.2h4.5v-0.6c0-1.2-0.4-2.1-1.1-2.8
			s-1.7-1-3.1-1c-0.9,0-1.8,0.2-2.7,0.5c-0.9,0.3-1.6,0.7-2.2,1.2L623,57c0.8-0.6,1.8-1.1,2.9-1.5c1.1-0.3,2.3-0.5,3.6-0.5
			C631.6,55,633.2,55.6,634.4,56.6z M631.6,68c0.8-0.5,1.3-1.2,1.7-2v-2.2h-4.3c-2.4,0-3.6,0.8-3.6,2.4c0,0.8,0.3,1.4,0.9,1.8
			s1.4,0.7,2.5,0.7S630.8,68.5,631.6,68z"/>
		<path class="st2" d="M642.1,70.4c-1.2-0.3-2.1-0.8-2.8-1.3l1.2-2.2c0.7,0.5,1.5,0.9,2.5,1.2c1,0.3,2,0.4,3,0.4
			c2.5,0,3.7-0.7,3.7-2.1c0-0.5-0.2-0.8-0.5-1.1s-0.7-0.5-1.2-0.6c-0.5-0.1-1.2-0.3-2.1-0.4c-1.3-0.2-2.3-0.4-3.1-0.7
			c-0.8-0.3-1.5-0.7-2-1.3c-0.6-0.6-0.9-1.5-0.9-2.6c0-1.4,0.6-2.5,1.8-3.4c1.2-0.9,2.7-1.3,4.7-1.3c1,0,2.1,0.1,3.1,0.4
			c1,0.3,1.9,0.6,2.6,1l-1.2,2.2c-1.3-0.8-2.8-1.2-4.5-1.2c-1.2,0-2.1,0.2-2.7,0.6c-0.6,0.4-0.9,0.9-0.9,1.6c0,0.5,0.2,0.9,0.5,1.2
			c0.4,0.3,0.8,0.5,1.3,0.6c0.5,0.1,1.2,0.3,2.2,0.5c1.3,0.2,2.3,0.4,3,0.7c0.8,0.2,1.4,0.7,2,1.2c0.5,0.6,0.8,1.4,0.8,2.5
			c0,1.4-0.6,2.5-1.8,3.4s-2.8,1.2-4.9,1.2C644.5,70.9,643.3,70.7,642.1,70.4z"/>
		<path class="st2" d="M55.3,99.1H42.7c0.2,1.4,0.8,2.5,1.8,3.3c1,0.8,2.3,1.2,3.8,1.2c1.9,0,3.4-0.6,4.5-1.9l1.6,1.8
			c-0.7,0.8-1.6,1.4-2.6,1.9s-2.2,0.6-3.5,0.6c-1.6,0-3.1-0.3-4.4-1c-1.3-0.7-2.3-1.6-2.9-2.8c-0.7-1.2-1-2.6-1-4.1
			c0-1.5,0.3-2.9,1-4.1c0.7-1.2,1.6-2.2,2.8-2.8c1.2-0.7,2.5-1,4-1c1.5,0,2.8,0.3,4,1c1.2,0.7,2.1,1.6,2.7,2.8c0.7,1.2,1,2.6,1,4.2
			C55.4,98.5,55.4,98.8,55.3,99.1z M44.3,93.9c-0.9,0.8-1.4,1.9-1.6,3.2h10c-0.2-1.3-0.7-2.4-1.6-3.2s-2-1.2-3.4-1.2
			C46.3,92.6,45.2,93,44.3,93.9z"/>
		<path class="st2" d="M72.3,92c1.2,1.1,1.7,2.8,1.7,5v8.9h-2.8v-8.6c0-1.5-0.4-2.6-1.1-3.4c-0.7-0.8-1.8-1.1-3.1-1.1
			c-1.5,0-2.7,0.4-3.6,1.3c-0.9,0.9-1.3,2.2-1.3,3.8v8h-2.8V90.4H62v2.3c0.6-0.8,1.3-1.4,2.3-1.8c1-0.4,2.1-0.6,3.3-0.6
			C69.6,90.2,71.1,90.8,72.3,92z"/>
		<path class="st2" d="M87.2,84.2H90v21.8h-2.8V84.2z"/>
		<path class="st2" d="M106,91.8c1.1,1.1,1.7,2.6,1.7,4.7v9.4H105v-2.1c-0.5,0.7-1.1,1.3-2,1.7c-0.9,0.4-1.9,0.6-3.1,0.6
			c-1.7,0-3.1-0.4-4.2-1.3c-1-0.8-1.6-1.9-1.6-3.3c0-1.4,0.5-2.5,1.5-3.3c1-0.8,2.6-1.2,4.8-1.2h4.5v-0.6c0-1.2-0.4-2.1-1.1-2.8
			s-1.7-1-3.1-1c-0.9,0-1.8,0.2-2.7,0.5c-0.9,0.3-1.6,0.7-2.2,1.2l-1.2-2.1c0.8-0.6,1.8-1.1,2.9-1.5c1.1-0.3,2.3-0.5,3.6-0.5
			C103.2,90.2,104.8,90.8,106,91.8z M103.2,103.2c0.8-0.5,1.3-1.2,1.7-2V99h-4.3c-2.4,0-3.6,0.8-3.6,2.4c0,0.8,0.3,1.4,0.9,1.8
			s1.4,0.7,2.5,0.7S102.4,103.7,103.2,103.2z"/>
		<path class="st2" d="M133.1,91.2c1.2,0.7,2.1,1.6,2.8,2.8c0.7,1.2,1,2.6,1,4.1c0,1.6-0.3,2.9-1,4.2c-0.7,1.2-1.6,2.1-2.8,2.8
			c-1.2,0.7-2.5,1-4,1c-1.1,0-2.1-0.2-3.1-0.6c-0.9-0.4-1.7-1.1-2.4-1.9v8h-2.8V90.4h2.7v2.5c0.6-0.9,1.4-1.5,2.4-2
			c1-0.4,2-0.7,3.2-0.7C130.5,90.2,131.9,90.6,133.1,91.2z M131.5,103c0.8-0.5,1.4-1.1,1.9-1.9c0.5-0.8,0.7-1.8,0.7-2.9
			c0-1.1-0.2-2-0.7-2.9c-0.5-0.8-1.1-1.5-1.9-1.9c-0.8-0.4-1.7-0.7-2.7-0.7c-1,0-1.9,0.2-2.7,0.7c-0.8,0.5-1.4,1.1-1.9,1.9
			c-0.5,0.8-0.7,1.8-0.7,2.8c0,1.1,0.2,2,0.7,2.9c0.5,0.8,1.1,1.5,1.9,1.9s1.7,0.7,2.7,0.7C129.8,103.7,130.7,103.4,131.5,103z"/>
		<path class="st2" d="M145.7,91c1-0.5,2.1-0.7,3.5-0.7V93c-0.2,0-0.4,0-0.6,0c-1.5,0-2.7,0.5-3.6,1.4c-0.9,0.9-1.3,2.2-1.3,3.9v7.7
			h-2.8V90.4h2.7V93C144,92.1,144.7,91.4,145.7,91z"/>
		<path class="st2" d="M155,105.1c-1.2-0.7-2.2-1.6-2.9-2.8c-0.7-1.2-1-2.6-1-4.1c0-1.5,0.3-2.9,1-4.1c0.7-1.2,1.7-2.1,2.9-2.8
			c1.2-0.7,2.6-1,4.2-1c1.5,0,2.9,0.3,4.2,1c1.2,0.7,2.2,1.6,2.9,2.8c0.7,1.2,1,2.6,1,4.1c0,1.5-0.3,2.9-1,4.1
			c-0.7,1.2-1.7,2.1-2.9,2.8c-1.2,0.7-2.6,1-4.2,1C157.6,106.1,156.2,105.8,155,105.1z M161.8,103c0.8-0.5,1.4-1.1,1.9-1.9
			c0.4-0.8,0.7-1.8,0.7-2.9c0-1.1-0.2-2-0.7-2.9c-0.5-0.8-1.1-1.5-1.9-1.9c-0.8-0.4-1.7-0.7-2.7-0.7c-1,0-1.9,0.2-2.7,0.7
			c-0.8,0.5-1.4,1.1-1.9,1.9c-0.5,0.8-0.7,1.8-0.7,2.9c0,1.1,0.2,2,0.7,2.9c0.5,0.8,1.1,1.5,1.9,1.9c0.8,0.5,1.7,0.7,2.7,0.7
			C160.1,103.7,161,103.4,161.8,103z"/>
		<path class="st2" d="M179.9,105c-0.4,0.4-0.9,0.6-1.5,0.8c-0.6,0.2-1.2,0.3-1.9,0.3c-1.6,0-2.8-0.4-3.6-1.3
			c-0.9-0.8-1.3-2-1.3-3.6v-8.5h-2.6v-2.3h2.6V87h2.8v3.4h4.5v2.3h-4.5v8.4c0,0.8,0.2,1.5,0.6,1.9c0.4,0.5,1,0.7,1.8,0.7
			c0.9,0,1.6-0.2,2.2-0.7L179.9,105z"/>
		<path class="st2" d="M196.7,99.1h-12.6c0.2,1.4,0.8,2.5,1.8,3.3c1,0.8,2.3,1.2,3.8,1.2c1.9,0,3.4-0.6,4.5-1.9l1.6,1.8
			c-0.7,0.8-1.6,1.4-2.6,1.9s-2.2,0.6-3.5,0.6c-1.6,0-3.1-0.3-4.4-1c-1.3-0.7-2.3-1.6-2.9-2.8c-0.7-1.2-1-2.6-1-4.1
			c0-1.5,0.3-2.9,1-4.1c0.7-1.2,1.6-2.2,2.8-2.8c1.2-0.7,2.5-1,4-1c1.5,0,2.8,0.3,4,1c1.2,0.7,2.1,1.6,2.7,2.8c0.7,1.2,1,2.6,1,4.2
			C196.8,98.5,196.8,98.8,196.7,99.1z M185.7,93.9c-0.9,0.8-1.4,1.9-1.6,3.2h10c-0.2-1.3-0.7-2.4-1.6-3.2s-2-1.2-3.4-1.2
			C187.7,92.6,186.6,93,185.7,93.9z"/>
		<path class="st2" d="M203.2,105.1c-1.2-0.7-2.2-1.6-2.9-2.8c-0.7-1.2-1.1-2.6-1.1-4.1c0-1.5,0.4-2.9,1.1-4.1
			c0.7-1.2,1.7-2.1,2.9-2.8c1.2-0.7,2.7-1,4.2-1c1.4,0,2.7,0.3,3.8,0.9c1.1,0.6,2,1.4,2.6,2.5l-2.1,1.4c-0.5-0.7-1.1-1.3-1.8-1.7
			s-1.5-0.6-2.4-0.6c-1,0-1.9,0.2-2.7,0.7c-0.8,0.5-1.4,1.1-1.9,1.9c-0.5,0.8-0.7,1.8-0.7,2.9c0,1.1,0.2,2.1,0.7,2.9
			c0.5,0.8,1.1,1.5,1.9,1.9c0.8,0.5,1.7,0.7,2.7,0.7c0.9,0,1.7-0.2,2.4-0.6s1.3-0.9,1.8-1.7l2.1,1.3c-0.6,1.1-1.5,1.9-2.6,2.5
			c-1.1,0.6-2.4,0.9-3.8,0.9C205.9,106.1,204.5,105.8,203.2,105.1z"/>
		<path class="st2" d="M219.7,105.1c-1.2-0.7-2.2-1.6-2.9-2.8c-0.7-1.2-1.1-2.6-1.1-4.1c0-1.5,0.4-2.9,1.1-4.1
			c0.7-1.2,1.7-2.1,2.9-2.8c1.2-0.7,2.7-1,4.2-1c1.4,0,2.7,0.3,3.8,0.9c1.1,0.6,2,1.4,2.6,2.5l-2.1,1.4c-0.5-0.7-1.1-1.3-1.8-1.7
			s-1.5-0.6-2.4-0.6c-1,0-1.9,0.2-2.7,0.7c-0.8,0.5-1.4,1.1-1.9,1.9c-0.5,0.8-0.7,1.8-0.7,2.9c0,1.1,0.2,2.1,0.7,2.9
			c0.5,0.8,1.1,1.5,1.9,1.9c0.8,0.5,1.7,0.7,2.7,0.7c0.9,0,1.7-0.2,2.4-0.6s1.3-0.9,1.8-1.7l2.1,1.3c-0.6,1.1-1.5,1.9-2.6,2.5
			c-1.1,0.6-2.4,0.9-3.8,0.9C222.4,106.1,221,105.8,219.7,105.1z"/>
		<path class="st2" d="M234,86.9c-0.4-0.4-0.5-0.8-0.5-1.3s0.2-0.9,0.5-1.3c0.4-0.4,0.8-0.5,1.4-0.5c0.5,0,1,0.2,1.4,0.5
			c0.4,0.3,0.5,0.8,0.5,1.3c0,0.5-0.2,1-0.5,1.3c-0.4,0.4-0.8,0.5-1.4,0.5C234.8,87.4,234.4,87.2,234,86.9z M234,90.4h2.8v15.6H234
			V90.4z"/>
		<path class="st2" d="M244.6,105.1c-1.2-0.7-2.2-1.6-2.9-2.8c-0.7-1.2-1-2.6-1-4.1c0-1.5,0.3-2.9,1-4.1c0.7-1.2,1.7-2.1,2.9-2.8
			c1.2-0.7,2.6-1,4.2-1c1.5,0,2.9,0.3,4.2,1c1.2,0.7,2.2,1.6,2.9,2.8c0.7,1.2,1,2.6,1,4.1c0,1.5-0.3,2.9-1,4.1
			c-0.7,1.2-1.7,2.1-2.9,2.8c-1.2,0.7-2.6,1-4.2,1C247.3,106.1,245.9,105.8,244.6,105.1z M251.5,103c0.8-0.5,1.4-1.1,1.9-1.9
			c0.4-0.8,0.7-1.8,0.7-2.9c0-1.1-0.2-2-0.7-2.9c-0.5-0.8-1.1-1.5-1.9-1.9c-0.8-0.4-1.7-0.7-2.7-0.7c-1,0-1.9,0.2-2.7,0.7
			c-0.8,0.5-1.4,1.1-1.9,1.9c-0.5,0.8-0.7,1.8-0.7,2.9c0,1.1,0.2,2,0.7,2.9c0.5,0.8,1.1,1.5,1.9,1.9c0.8,0.5,1.7,0.7,2.7,0.7
			C249.8,103.7,250.7,103.4,251.5,103z M250.6,84.3h3.6l-4.9,3.8h-2.6L250.6,84.3z"/>
		<path class="st2" d="M273.8,92c1.2,1.1,1.7,2.8,1.7,5v8.9h-2.8v-8.6c0-1.5-0.4-2.6-1.1-3.4c-0.7-0.8-1.8-1.1-3.1-1.1
			c-1.5,0-2.7,0.4-3.6,1.3c-0.9,0.9-1.3,2.2-1.3,3.8v8h-2.8V90.4h2.7v2.3c0.6-0.8,1.3-1.4,2.3-1.8c1-0.4,2.1-0.6,3.3-0.6
			C271.1,90.2,272.6,90.8,273.8,92z"/>
		<path class="st2" d="M299.3,91.8c1.1,1.1,1.7,2.6,1.7,4.7v9.4h-2.7v-2.1c-0.5,0.7-1.1,1.3-2,1.7c-0.9,0.4-1.9,0.6-3.1,0.6
			c-1.7,0-3.1-0.4-4.2-1.3c-1-0.8-1.6-1.9-1.6-3.3c0-1.4,0.5-2.5,1.5-3.3c1-0.8,2.6-1.2,4.8-1.2h4.5v-0.6c0-1.2-0.4-2.1-1.1-2.8
			s-1.7-1-3.1-1c-0.9,0-1.8,0.2-2.7,0.5c-0.9,0.3-1.6,0.7-2.2,1.2l-1.2-2.1c0.8-0.6,1.8-1.1,2.9-1.5c1.1-0.3,2.3-0.5,3.6-0.5
			C296.5,90.2,298.1,90.8,299.3,91.8z M296.5,103.2c0.8-0.5,1.3-1.2,1.7-2V99h-4.3c-2.4,0-3.6,0.8-3.6,2.4c0,0.8,0.3,1.4,0.9,1.8
			s1.4,0.7,2.5,0.7S295.7,103.7,296.5,103.2z"/>
		<path class="st2" d="M319.2,92c1.2,1.1,1.7,2.8,1.7,5v8.9h-2.8v-8.6c0-1.5-0.4-2.6-1.1-3.4c-0.7-0.8-1.8-1.1-3.1-1.1
			c-1.5,0-2.7,0.4-3.6,1.3c-0.9,0.9-1.3,2.2-1.3,3.8v8h-2.8V90.4h2.7v2.3c0.6-0.8,1.3-1.4,2.3-1.8c1-0.4,2.1-0.6,3.3-0.6
			C316.5,90.2,318,90.8,319.2,92z"/>
		<path class="st2" d="M334.9,105c-0.4,0.4-0.9,0.6-1.5,0.8c-0.6,0.2-1.2,0.3-1.9,0.3c-1.6,0-2.8-0.4-3.6-1.3
			c-0.9-0.8-1.3-2-1.3-3.6v-8.5h-2.6v-2.3h2.6V87h2.8v3.4h4.5v2.3h-4.5v8.4c0,0.8,0.2,1.5,0.6,1.9c0.4,0.5,1,0.7,1.8,0.7
			c0.9,0,1.6-0.2,2.2-0.7L334.9,105z"/>
		<path class="st2" d="M338.4,86.9c-0.4-0.4-0.5-0.8-0.5-1.3s0.2-0.9,0.5-1.3c0.4-0.4,0.8-0.5,1.4-0.5c0.5,0,1,0.2,1.4,0.5
			c0.4,0.3,0.5,0.8,0.5,1.3c0,0.5-0.2,1-0.5,1.3c-0.4,0.4-0.8,0.5-1.4,0.5C339.2,87.4,338.7,87.2,338.4,86.9z M338.3,90.4h2.8v15.6
			h-2.8V90.4z"/>
		<path class="st2" d="M349.1,105.1c-1.2-0.7-2.2-1.6-2.9-2.8c-0.7-1.2-1.1-2.6-1.1-4.1c0-1.5,0.4-2.9,1.1-4.1
			c0.7-1.2,1.7-2.1,2.9-2.8c1.2-0.7,2.7-1,4.2-1c1.4,0,2.7,0.3,3.8,0.9c1.1,0.6,2,1.4,2.6,2.5l-2.1,1.4c-0.5-0.7-1.1-1.3-1.8-1.7
			s-1.5-0.6-2.4-0.6c-1,0-1.9,0.2-2.7,0.7c-0.8,0.5-1.4,1.1-1.9,1.9c-0.5,0.8-0.7,1.8-0.7,2.9c0,1.1,0.2,2.1,0.7,2.9
			c0.5,0.8,1.1,1.5,1.9,1.9c0.8,0.5,1.7,0.7,2.7,0.7c0.9,0,1.7-0.2,2.4-0.6s1.3-0.9,1.8-1.7l2.1,1.3c-0.6,1.1-1.5,1.9-2.6,2.5
			c-1.1,0.6-2.4,0.9-3.8,0.9C351.7,106.1,350.3,105.8,349.1,105.1z"/>
		<path class="st2" d="M365.5,105.1c-1.2-0.7-2.2-1.6-2.9-2.8c-0.7-1.2-1-2.6-1-4.1c0-1.5,0.3-2.9,1-4.1c0.7-1.2,1.7-2.1,2.9-2.8
			c1.2-0.7,2.6-1,4.2-1c1.5,0,2.9,0.3,4.2,1c1.2,0.7,2.2,1.6,2.9,2.8c0.7,1.2,1,2.6,1,4.1c0,1.5-0.3,2.9-1,4.1
			c-0.7,1.2-1.7,2.1-2.9,2.8c-1.2,0.7-2.6,1-4.2,1C368.1,106.1,366.8,105.8,365.5,105.1z M372.4,103c0.8-0.5,1.4-1.1,1.9-1.9
			c0.4-0.8,0.7-1.8,0.7-2.9c0-1.1-0.2-2-0.7-2.9c-0.5-0.8-1.1-1.5-1.9-1.9c-0.8-0.4-1.7-0.7-2.7-0.7c-1,0-1.9,0.2-2.7,0.7
			c-0.8,0.5-1.4,1.1-1.9,1.9c-0.5,0.8-0.7,1.8-0.7,2.9c0,1.1,0.2,2,0.7,2.9c0.5,0.8,1.1,1.5,1.9,1.9c0.8,0.5,1.7,0.7,2.7,0.7
			C370.7,103.7,371.6,103.4,372.4,103z"/>
		<path class="st2" d="M394.7,92c1.2,1.1,1.7,2.8,1.7,5v8.9h-2.8v-8.6c0-1.5-0.4-2.6-1.1-3.4c-0.7-0.8-1.8-1.1-3.1-1.1
			c-1.5,0-2.7,0.4-3.6,1.3c-0.9,0.9-1.3,2.2-1.3,3.8v8h-2.8V90.4h2.7v2.3c0.6-0.8,1.3-1.4,2.3-1.8c1-0.4,2.1-0.6,3.3-0.6
			C391.9,90.2,393.5,90.8,394.7,92z"/>
		<path class="st2" d="M404.3,105.1c-1.2-0.7-2.2-1.6-2.9-2.8c-0.7-1.2-1.1-2.6-1.1-4.1c0-1.5,0.4-2.9,1.1-4.1
			c0.7-1.2,1.7-2.1,2.9-2.8c1.2-0.7,2.7-1,4.2-1c1.4,0,2.7,0.3,3.8,0.9c1.1,0.6,2,1.4,2.6,2.5l-2.1,1.4c-0.5-0.7-1.1-1.3-1.8-1.7
			s-1.5-0.6-2.4-0.6c-1,0-1.9,0.2-2.7,0.7c-0.8,0.5-1.4,1.1-1.9,1.9c-0.5,0.8-0.7,1.8-0.7,2.9c0,1.1,0.2,2.1,0.7,2.9
			c0.5,0.8,1.1,1.5,1.9,1.9c0.8,0.5,1.7,0.7,2.7,0.7c0.9,0,1.7-0.2,2.4-0.6s1.3-0.9,1.8-1.7l2.1,1.3c-0.6,1.1-1.5,1.9-2.6,2.5
			c-1.1,0.6-2.4,0.9-3.8,0.9C406.9,106.1,405.5,105.8,404.3,105.1z"/>
		<path class="st2" d="M432.3,99.1h-12.6c0.2,1.4,0.8,2.5,1.8,3.3c1,0.8,2.3,1.2,3.8,1.2c1.9,0,3.4-0.6,4.5-1.9l1.6,1.8
			c-0.7,0.8-1.6,1.4-2.6,1.9s-2.2,0.6-3.5,0.6c-1.6,0-3.1-0.3-4.4-1c-1.3-0.7-2.3-1.6-2.9-2.8c-0.7-1.2-1-2.6-1-4.1
			c0-1.5,0.3-2.9,1-4.1c0.7-1.2,1.6-2.2,2.8-2.8c1.2-0.7,2.5-1,4-1c1.5,0,2.8,0.3,4,1c1.2,0.7,2.1,1.6,2.7,2.8c0.7,1.2,1,2.6,1,4.2
			C432.3,98.5,432.3,98.8,432.3,99.1z M421.2,93.9c-0.9,0.8-1.4,1.9-1.6,3.2h10c-0.2-1.3-0.7-2.4-1.6-3.2s-2-1.2-3.4-1.2
			C423.3,92.6,422.1,93,421.2,93.9z"/>
		<path class="st2" d="M448.5,91.2c1.2,0.7,2.1,1.6,2.8,2.8c0.7,1.2,1,2.6,1,4.1c0,1.6-0.3,2.9-1,4.2c-0.7,1.2-1.6,2.1-2.8,2.8
			c-1.2,0.7-2.5,1-4,1c-1.1,0-2.1-0.2-3.1-0.6c-0.9-0.4-1.7-1.1-2.4-1.9v8h-2.8V90.4h2.7v2.5c0.6-0.9,1.4-1.5,2.4-2
			c1-0.4,2-0.7,3.2-0.7C446,90.2,447.3,90.6,448.5,91.2z M446.9,103c0.8-0.5,1.4-1.1,1.9-1.9c0.5-0.8,0.7-1.8,0.7-2.9
			c0-1.1-0.2-2-0.7-2.9c-0.5-0.8-1.1-1.5-1.9-1.9c-0.8-0.4-1.7-0.7-2.7-0.7c-1,0-1.9,0.2-2.7,0.7c-0.8,0.5-1.4,1.1-1.9,1.9
			c-0.5,0.8-0.7,1.8-0.7,2.8c0,1.1,0.2,2,0.7,2.9c0.5,0.8,1.1,1.5,1.9,1.9s1.7,0.7,2.7,0.7C445.2,103.7,446.1,103.4,446.9,103z"/>
		<path class="st2" d="M465,105c-0.4,0.4-0.9,0.6-1.5,0.8c-0.6,0.2-1.2,0.3-1.9,0.3c-1.6,0-2.8-0.4-3.6-1.3c-0.9-0.8-1.3-2-1.3-3.6
			v-8.5H454v-2.3h2.6V87h2.8v3.4h4.5v2.3h-4.5v8.4c0,0.8,0.2,1.5,0.6,1.9c0.4,0.5,1,0.7,1.8,0.7c0.9,0,1.6-0.2,2.2-0.7L465,105z"/>
		<path class="st2" d="M468.4,86.9c-0.4-0.4-0.5-0.8-0.5-1.3s0.2-0.9,0.5-1.3c0.4-0.4,0.8-0.5,1.4-0.5c0.5,0,1,0.2,1.4,0.5
			c0.4,0.3,0.5,0.8,0.5,1.3c0,0.5-0.2,1-0.5,1.3c-0.4,0.4-0.8,0.5-1.4,0.5C469.2,87.4,468.8,87.2,468.4,86.9z M468.4,90.4h2.8v15.6
			h-2.8V90.4z"/>
		<path class="st2" d="M490.3,90.4l-6.8,15.6h-2.9l-6.8-15.6h2.9l5.3,12.5l5.5-12.5H490.3z"/>
		<path class="st2" d="M503.1,91.8c1.1,1.1,1.7,2.6,1.7,4.7v9.4h-2.7v-2.1c-0.5,0.7-1.1,1.3-2,1.7c-0.9,0.4-1.9,0.6-3.1,0.6
			c-1.7,0-3.1-0.4-4.2-1.3c-1-0.8-1.6-1.9-1.6-3.3c0-1.4,0.5-2.5,1.5-3.3c1-0.8,2.6-1.2,4.8-1.2h4.5v-0.6c0-1.2-0.4-2.1-1.1-2.8
			s-1.7-1-3.1-1c-0.9,0-1.8,0.2-2.7,0.5c-0.9,0.3-1.6,0.7-2.2,1.2l-1.2-2.1c0.8-0.6,1.8-1.1,2.9-1.5c1.1-0.3,2.3-0.5,3.6-0.5
			C500.3,90.2,501.9,90.8,503.1,91.8z M500.3,103.2c0.8-0.5,1.3-1.2,1.7-2V99h-4.3c-2.4,0-3.6,0.8-3.6,2.4c0,0.8,0.3,1.4,0.9,1.8
			s1.4,0.7,2.5,0.7S499.5,103.7,500.3,103.2z"/>
		<path class="st2" d="M509.3,93.7c-0.4-0.4-0.6-0.9-0.6-1.5c0-0.6,0.2-1,0.6-1.4c0.4-0.4,0.9-0.6,1.4-0.6c0.5,0,1,0.2,1.4,0.6
			c0.4,0.4,0.6,0.9,0.6,1.4c0,0.6-0.2,1.1-0.6,1.5c-0.4,0.4-0.8,0.6-1.4,0.6C510.1,94.3,509.7,94.1,509.3,93.7z M509.3,105.5
			c-0.4-0.4-0.6-0.9-0.6-1.5c0-0.6,0.2-1,0.6-1.4c0.4-0.4,0.9-0.6,1.4-0.6c0.5,0,1,0.2,1.4,0.6c0.4,0.4,0.6,0.9,0.6,1.4
			s-0.2,1.1-0.6,1.5c-0.4,0.4-0.8,0.6-1.4,0.6C510.1,106.1,509.7,105.9,509.3,105.5z"/>
		<path class="st2" d="M529.4,91c1-0.5,2.1-0.7,3.5-0.7V93c-0.2,0-0.4,0-0.6,0c-1.5,0-2.7,0.5-3.6,1.4c-0.9,0.9-1.3,2.2-1.3,3.9v7.7
			h-2.8V90.4h2.7V93C527.7,92.1,528.5,91.4,529.4,91z"/>
		<path class="st2" d="M538.7,105.1c-1.2-0.7-2.2-1.6-2.9-2.8c-0.7-1.2-1-2.6-1-4.1c0-1.5,0.3-2.9,1-4.1c0.7-1.2,1.7-2.1,2.9-2.8
			c1.2-0.7,2.6-1,4.2-1c1.5,0,2.9,0.3,4.2,1c1.2,0.7,2.2,1.6,2.9,2.8c0.7,1.2,1,2.6,1,4.1c0,1.5-0.3,2.9-1,4.1
			c-0.7,1.2-1.7,2.1-2.9,2.8c-1.2,0.7-2.6,1-4.2,1C541.4,106.1,540,105.8,538.7,105.1z M545.6,103c0.8-0.5,1.4-1.1,1.9-1.9
			c0.4-0.8,0.7-1.8,0.7-2.9c0-1.1-0.2-2-0.7-2.9c-0.5-0.8-1.1-1.5-1.9-1.9c-0.8-0.4-1.7-0.7-2.7-0.7c-1,0-1.9,0.2-2.7,0.7
			c-0.8,0.5-1.4,1.1-1.9,1.9c-0.5,0.8-0.7,1.8-0.7,2.9c0,1.1,0.2,2,0.7,2.9c0.5,0.8,1.1,1.5,1.9,1.9c0.8,0.5,1.7,0.7,2.7,0.7
			C543.9,103.7,544.8,103.4,545.6,103z"/>
		<path class="st2" d="M563.6,105c-0.4,0.4-0.9,0.6-1.5,0.8c-0.6,0.2-1.2,0.3-1.9,0.3c-1.6,0-2.8-0.4-3.6-1.3
			c-0.9-0.8-1.3-2-1.3-3.6v-8.5h-2.6v-2.3h2.6V87h2.8v3.4h4.5v2.3h-4.5v8.4c0,0.8,0.2,1.5,0.6,1.9c0.4,0.5,1,0.7,1.8,0.7
			c0.9,0,1.6-0.2,2.2-0.7L563.6,105z"/>
		<path class="st2" d="M581.5,90.4v15.6h-2.7v-2.3c-0.6,0.8-1.3,1.4-2.2,1.9c-0.9,0.4-1.9,0.7-3,0.7c-2.1,0-3.7-0.6-4.9-1.7
			c-1.2-1.1-1.8-2.8-1.8-5.1v-8.9h2.8V99c0,1.5,0.4,2.6,1.1,3.4c0.7,0.8,1.8,1.2,3.1,1.2c1.5,0,2.7-0.5,3.5-1.4
			c0.9-0.9,1.3-2.2,1.3-3.8v-8H581.5z"/>
		<path class="st2" d="M591.8,91c1-0.5,2.1-0.7,3.5-0.7V93c-0.2,0-0.4,0-0.6,0c-1.5,0-2.7,0.5-3.6,1.4c-0.9,0.9-1.3,2.2-1.3,3.9v7.7
			h-2.8V90.4h2.7V93C590.1,92.1,590.8,91.4,591.8,91z"/>
		<path class="st2" d="M609.3,91.8c1.1,1.1,1.7,2.6,1.7,4.7v9.4h-2.7v-2.1c-0.5,0.7-1.1,1.3-2,1.7c-0.9,0.4-1.9,0.6-3.1,0.6
			c-1.7,0-3.1-0.4-4.2-1.3c-1-0.8-1.6-1.9-1.6-3.3c0-1.4,0.5-2.5,1.5-3.3c1-0.8,2.6-1.2,4.8-1.2h4.5v-0.6c0-1.2-0.4-2.1-1.1-2.8
			s-1.7-1-3.1-1c-0.9,0-1.8,0.2-2.7,0.5c-0.9,0.3-1.6,0.7-2.2,1.2l-1.2-2.1c0.8-0.6,1.8-1.1,2.9-1.5c1.1-0.3,2.3-0.5,3.6-0.5
			C606.5,90.2,608.1,90.8,609.3,91.8z M606.5,103.2c0.8-0.5,1.3-1.2,1.7-2V99h-4.3c-2.4,0-3.6,0.8-3.6,2.4c0,0.8,0.3,1.4,0.9,1.8
			s1.4,0.7,2.5,0.7S605.7,103.7,606.5,103.2z"/>
		<path class="st2" d="M626.6,105.1c-1.2-0.7-2.2-1.6-2.9-2.8c-0.7-1.2-1-2.6-1-4.1c0-1.5,0.3-2.9,1-4.1c0.7-1.2,1.7-2.1,2.9-2.8
			c1.2-0.7,2.6-1,4.2-1c1.5,0,2.9,0.3,4.2,1c1.2,0.7,2.2,1.6,2.9,2.8c0.7,1.2,1,2.6,1,4.1c0,1.5-0.3,2.9-1,4.1
			c-0.7,1.2-1.7,2.1-2.9,2.8c-1.2,0.7-2.6,1-4.2,1C629.2,106.1,627.8,105.8,626.6,105.1z M633.5,103c0.8-0.5,1.4-1.1,1.9-1.9
			c0.4-0.8,0.7-1.8,0.7-2.9c0-1.1-0.2-2-0.7-2.9c-0.5-0.8-1.1-1.5-1.9-1.9c-0.8-0.4-1.7-0.7-2.7-0.7c-1,0-1.9,0.2-2.7,0.7
			c-0.8,0.5-1.4,1.1-1.9,1.9c-0.5,0.8-0.7,1.8-0.7,2.9c0,1.1,0.2,2,0.7,2.9c0.5,0.8,1.1,1.5,1.9,1.9c0.8,0.5,1.7,0.7,2.7,0.7
			C631.8,103.7,632.7,103.4,633.5,103z"/>
		<path class="st2" d="M102,119.4v21.8h-2.7v-2.5c-0.6,0.9-1.4,1.5-2.4,2c-1,0.5-2,0.7-3.2,0.7c-1.5,0-2.9-0.3-4-1
			c-1.2-0.7-2.1-1.6-2.8-2.8c-0.7-1.2-1-2.6-1-4.2c0-1.6,0.3-2.9,1-4.1c0.7-1.2,1.6-2.1,2.8-2.8c1.2-0.7,2.5-1,4-1
			c1.1,0,2.1,0.2,3.1,0.6c0.9,0.4,1.7,1,2.3,1.9v-8.6H102z M96.7,138.2c0.8-0.5,1.4-1.1,1.9-1.9c0.4-0.8,0.7-1.8,0.7-2.9
			c0-1.1-0.2-2-0.7-2.9c-0.5-0.8-1.1-1.5-1.9-1.9c-0.8-0.4-1.7-0.7-2.7-0.7c-1,0-1.9,0.2-2.7,0.7c-0.8,0.5-1.4,1.1-1.9,1.9
			c-0.5,0.8-0.7,1.8-0.7,2.9c0,1.1,0.2,2,0.7,2.9c0.5,0.8,1.1,1.5,1.9,1.9c0.8,0.5,1.7,0.7,2.7,0.7C95,138.9,95.9,138.6,96.7,138.2z
			"/>
		<path class="st2" d="M121.4,134.3h-12.6c0.2,1.4,0.8,2.5,1.8,3.3c1,0.8,2.3,1.2,3.8,1.2c1.9,0,3.4-0.6,4.5-1.9l1.6,1.8
			c-0.7,0.8-1.6,1.4-2.6,1.9s-2.2,0.6-3.5,0.6c-1.6,0-3.1-0.3-4.4-1c-1.3-0.7-2.3-1.6-2.9-2.8c-0.7-1.2-1-2.6-1-4.1
			c0-1.5,0.3-2.9,1-4.1c0.7-1.2,1.6-2.2,2.8-2.8c1.2-0.7,2.5-1,4-1c1.5,0,2.8,0.3,4,1c1.2,0.7,2.1,1.6,2.7,2.8c0.7,1.2,1,2.6,1,4.2
			C121.4,133.7,121.4,134,121.4,134.3z M110.3,129.1c-0.9,0.8-1.4,1.9-1.6,3.2h10c-0.2-1.3-0.7-2.4-1.6-3.2s-2-1.2-3.4-1.2
			C112.4,127.8,111.2,128.2,110.3,129.1z"/>
		<path class="st2" d="M126.1,140.8c-1.2-0.3-2.1-0.8-2.8-1.3l1.2-2.2c0.7,0.5,1.5,0.9,2.5,1.2c1,0.3,2,0.4,3,0.4
			c2.5,0,3.7-0.7,3.7-2.1c0-0.5-0.2-0.8-0.5-1.1s-0.7-0.5-1.2-0.6c-0.5-0.1-1.2-0.3-2.1-0.4c-1.3-0.2-2.3-0.4-3.1-0.7
			c-0.8-0.3-1.5-0.7-2-1.3c-0.6-0.6-0.9-1.5-0.9-2.6c0-1.4,0.6-2.5,1.8-3.4c1.2-0.9,2.7-1.3,4.7-1.3c1,0,2.1,0.1,3.1,0.4
			c1,0.3,1.9,0.6,2.6,1l-1.2,2.2c-1.3-0.8-2.8-1.2-4.5-1.2c-1.2,0-2.1,0.2-2.7,0.6c-0.6,0.4-0.9,0.9-0.9,1.6c0,0.5,0.2,0.9,0.5,1.2
			c0.4,0.3,0.8,0.5,1.3,0.6c0.5,0.1,1.2,0.3,2.2,0.5c1.3,0.2,2.3,0.4,3,0.7c0.8,0.2,1.4,0.7,2,1.2c0.5,0.6,0.8,1.4,0.8,2.5
			c0,1.4-0.6,2.5-1.8,3.4s-2.8,1.2-4.9,1.2C128.5,141.3,127.3,141.2,126.1,140.8z"/>
		<path class="st2" d="M152.3,126.5c1.2,0.7,2.1,1.6,2.8,2.8c0.7,1.2,1,2.6,1,4.1c0,1.6-0.3,2.9-1,4.2c-0.7,1.2-1.6,2.1-2.8,2.8
			c-1.2,0.7-2.5,1-4,1c-1.1,0-2.1-0.2-3.1-0.6c-0.9-0.4-1.7-1.1-2.4-1.9v8H140v-21.2h2.7v2.5c0.6-0.9,1.4-1.5,2.4-2
			c1-0.4,2-0.7,3.2-0.7C149.8,125.5,151.1,125.8,152.3,126.5z M150.7,138.2c0.8-0.5,1.4-1.1,1.9-1.9c0.5-0.8,0.7-1.8,0.7-2.9
			c0-1.1-0.2-2-0.7-2.9c-0.5-0.8-1.1-1.5-1.9-1.9c-0.8-0.4-1.7-0.7-2.7-0.7c-1,0-1.9,0.2-2.7,0.7c-0.8,0.5-1.4,1.1-1.9,1.9
			c-0.5,0.8-0.7,1.8-0.7,2.8c0,1.1,0.2,2,0.7,2.9c0.5,0.8,1.1,1.5,1.9,1.9s1.7,0.7,2.7,0.7C149,138.9,149.9,138.6,150.7,138.2z"/>
		<path class="st2" d="M164.9,126.2c1-0.5,2.1-0.7,3.5-0.7v2.7c-0.2,0-0.4,0-0.6,0c-1.5,0-2.7,0.5-3.6,1.4c-0.9,0.9-1.3,2.2-1.3,3.9
			v7.7H160v-15.6h2.7v2.6C163.2,127.3,163.9,126.6,164.9,126.2z"/>
		<path class="st2" d="M185.7,134.3h-12.6c0.2,1.4,0.8,2.5,1.8,3.3c1,0.8,2.3,1.2,3.8,1.2c1.9,0,3.4-0.6,4.5-1.9l1.6,1.8
			c-0.7,0.8-1.6,1.4-2.6,1.9s-2.2,0.6-3.5,0.6c-1.6,0-3.1-0.3-4.4-1c-1.3-0.7-2.3-1.6-2.9-2.8c-0.7-1.2-1-2.6-1-4.1
			c0-1.5,0.3-2.9,1-4.1c0.7-1.2,1.6-2.2,2.8-2.8c1.2-0.7,2.5-1,4-1c1.5,0,2.8,0.3,4,1c1.2,0.7,2.1,1.6,2.7,2.8c0.7,1.2,1,2.6,1,4.2
			C185.8,133.7,185.7,134,185.7,134.3z M174.7,129.1c-0.9,0.8-1.4,1.9-1.6,3.2h10c-0.2-1.3-0.7-2.4-1.6-3.2s-2-1.2-3.4-1.2
			C176.7,127.8,175.6,128.2,174.7,129.1z"/>
		<path class="st2" d="M202.7,127.2c1.2,1.1,1.7,2.8,1.7,5v8.9h-2.8v-8.6c0-1.5-0.4-2.6-1.1-3.4c-0.7-0.8-1.8-1.1-3.1-1.1
			c-1.5,0-2.7,0.4-3.6,1.3c-0.9,0.9-1.3,2.2-1.3,3.8v8h-2.8v-15.6h2.7v2.3c0.6-0.8,1.3-1.4,2.3-1.8c1-0.4,2.1-0.6,3.3-0.6
			C199.9,125.5,201.5,126,202.7,127.2z"/>
		<path class="st2" d="M224.4,119.4v21.8h-2.7v-2.5c-0.6,0.9-1.4,1.5-2.4,2c-1,0.5-2,0.7-3.2,0.7c-1.5,0-2.9-0.3-4-1
			c-1.2-0.7-2.1-1.6-2.8-2.8c-0.7-1.2-1-2.6-1-4.2c0-1.6,0.3-2.9,1-4.1c0.7-1.2,1.6-2.1,2.8-2.8c1.2-0.7,2.5-1,4-1
			c1.1,0,2.1,0.2,3.1,0.6c0.9,0.4,1.7,1,2.3,1.9v-8.6H224.4z M219.1,138.2c0.8-0.5,1.4-1.1,1.9-1.9c0.4-0.8,0.7-1.8,0.7-2.9
			c0-1.1-0.2-2-0.7-2.9c-0.5-0.8-1.1-1.5-1.9-1.9c-0.8-0.4-1.7-0.7-2.7-0.7c-1,0-1.9,0.2-2.7,0.7c-0.8,0.5-1.4,1.1-1.9,1.9
			c-0.5,0.8-0.7,1.8-0.7,2.9c0,1.1,0.2,2,0.7,2.9c0.5,0.8,1.1,1.5,1.9,1.9c0.8,0.5,1.7,0.7,2.7,0.7
			C217.4,138.9,218.3,138.6,219.1,138.2z"/>
		<path class="st2" d="M229.8,122.1c-0.4-0.4-0.5-0.8-0.5-1.3s0.2-0.9,0.5-1.3c0.4-0.4,0.8-0.5,1.4-0.5c0.5,0,1,0.2,1.4,0.5
			c0.4,0.3,0.5,0.8,0.5,1.3c0,0.5-0.2,1-0.5,1.3c-0.4,0.4-0.8,0.5-1.4,0.5C230.6,122.6,230.2,122.4,229.8,122.1z M229.7,125.6h2.8
			v15.6h-2.8V125.6z"/>
		<path class="st2" d="M262,127.2c1.1,1.1,1.7,2.8,1.7,5v8.9h-2.8v-8.6c0-1.5-0.3-2.6-1-3.4c-0.7-0.8-1.7-1.1-3-1.1
			c-1.4,0-2.6,0.4-3.4,1.3c-0.8,0.9-1.3,2.2-1.3,3.8v8h-2.8v-8.6c0-1.5-0.3-2.6-1-3.4c-0.7-0.8-1.7-1.1-3-1.1
			c-1.4,0-2.6,0.4-3.4,1.3c-0.8,0.9-1.3,2.2-1.3,3.8v8h-2.8v-15.6h2.7v2.3c0.6-0.8,1.3-1.4,2.2-1.8c0.9-0.4,2-0.6,3.1-0.6
			c1.2,0,2.3,0.2,3.2,0.7s1.7,1.2,2.2,2.1c0.6-0.9,1.4-1.6,2.5-2.1c1-0.5,2.2-0.8,3.5-0.8C259.3,125.5,260.9,126,262,127.2z"/>
		<path class="st2" d="M269,122.1c-0.4-0.4-0.5-0.8-0.5-1.3s0.2-0.9,0.5-1.3c0.4-0.4,0.8-0.5,1.4-0.5c0.5,0,1,0.2,1.4,0.5
			c0.4,0.3,0.5,0.8,0.5,1.3c0,0.5-0.2,1-0.5,1.3c-0.4,0.4-0.8,0.5-1.4,0.5C269.8,122.6,269.4,122.4,269,122.1z M268.9,125.6h2.8
			v15.6h-2.8V125.6z"/>
		<path class="st2" d="M291.1,134.3h-12.6c0.2,1.4,0.8,2.5,1.8,3.3c1,0.8,2.3,1.2,3.8,1.2c1.9,0,3.4-0.6,4.5-1.9l1.6,1.8
			c-0.7,0.8-1.6,1.4-2.6,1.9s-2.2,0.6-3.5,0.6c-1.6,0-3.1-0.3-4.4-1c-1.3-0.7-2.3-1.6-2.9-2.8c-0.7-1.2-1-2.6-1-4.1
			c0-1.5,0.3-2.9,1-4.1c0.7-1.2,1.6-2.2,2.8-2.8c1.2-0.7,2.5-1,4-1c1.5,0,2.8,0.3,4,1c1.2,0.7,2.1,1.6,2.7,2.8c0.7,1.2,1,2.6,1,4.2
			C291.2,133.7,291.2,134,291.1,134.3z M280.1,129.1c-0.9,0.8-1.4,1.9-1.6,3.2h10c-0.2-1.3-0.7-2.4-1.6-3.2s-2-1.2-3.4-1.2
			C282.2,127.8,281,128.2,280.1,129.1z"/>
		<path class="st2" d="M308.1,127.2c1.2,1.1,1.7,2.8,1.7,5v8.9H307v-8.6c0-1.5-0.4-2.6-1.1-3.4c-0.7-0.8-1.8-1.1-3.1-1.1
			c-1.5,0-2.7,0.4-3.6,1.3c-0.9,0.9-1.3,2.2-1.3,3.8v8h-2.8v-15.6h2.7v2.3c0.6-0.8,1.3-1.4,2.3-1.8c1-0.4,2.1-0.6,3.3-0.6
			C305.4,125.5,306.9,126,308.1,127.2z"/>
		<path class="st2" d="M323.8,140.2c-0.4,0.4-0.9,0.6-1.5,0.8c-0.6,0.2-1.2,0.3-1.9,0.3c-1.6,0-2.8-0.4-3.6-1.3
			c-0.9-0.8-1.3-2-1.3-3.6v-8.5h-2.6v-2.3h2.6v-3.4h2.8v3.4h4.5v2.3h-4.5v8.4c0,0.8,0.2,1.5,0.6,1.9c0.4,0.5,1,0.7,1.8,0.7
			c0.9,0,1.6-0.2,2.2-0.7L323.8,140.2z"/>
		<path class="st2" d="M329.2,140.3c-1.2-0.7-2.2-1.6-2.9-2.8c-0.7-1.2-1-2.6-1-4.1c0-1.5,0.3-2.9,1-4.1c0.7-1.2,1.7-2.1,2.9-2.8
			c1.2-0.7,2.6-1,4.2-1c1.5,0,2.9,0.3,4.2,1c1.2,0.7,2.2,1.6,2.9,2.8c0.7,1.2,1,2.6,1,4.1c0,1.5-0.3,2.9-1,4.1
			c-0.7,1.2-1.7,2.1-2.9,2.8c-1.2,0.7-2.6,1-4.2,1C331.8,141.3,330.4,141,329.2,140.3z M336,138.2c0.8-0.5,1.4-1.1,1.9-1.9
			c0.4-0.8,0.7-1.8,0.7-2.9c0-1.1-0.2-2-0.7-2.9c-0.5-0.8-1.1-1.5-1.9-1.9c-0.8-0.4-1.7-0.7-2.7-0.7c-1,0-1.9,0.2-2.7,0.7
			c-0.8,0.5-1.4,1.1-1.9,1.9c-0.5,0.8-0.7,1.8-0.7,2.9c0,1.1,0.2,2,0.7,2.9c0.5,0.8,1.1,1.5,1.9,1.9c0.8,0.5,1.7,0.7,2.7,0.7
			C334.4,138.9,335.2,138.6,336,138.2z"/>
		<path class="st2" d="M367.9,119.4v21.8h-2.7v-2.5c-0.6,0.9-1.4,1.5-2.4,2c-1,0.5-2,0.7-3.2,0.7c-1.5,0-2.9-0.3-4-1
			c-1.2-0.7-2.1-1.6-2.8-2.8c-0.7-1.2-1-2.6-1-4.2c0-1.6,0.3-2.9,1-4.1c0.7-1.2,1.6-2.1,2.8-2.8c1.2-0.7,2.5-1,4-1
			c1.1,0,2.1,0.2,3.1,0.6c0.9,0.4,1.7,1,2.3,1.9v-8.6H367.9z M362.5,138.2c0.8-0.5,1.4-1.1,1.9-1.9c0.4-0.8,0.7-1.8,0.7-2.9
			c0-1.1-0.2-2-0.7-2.9c-0.5-0.8-1.1-1.5-1.9-1.9c-0.8-0.4-1.7-0.7-2.7-0.7c-1,0-1.9,0.2-2.7,0.7c-0.8,0.5-1.4,1.1-1.9,1.9
			c-0.5,0.8-0.7,1.8-0.7,2.9c0,1.1,0.2,2,0.7,2.9c0.5,0.8,1.1,1.5,1.9,1.9c0.8,0.5,1.7,0.7,2.7,0.7
			C360.9,138.9,361.7,138.6,362.5,138.2z"/>
		<path class="st2" d="M387.2,134.3h-12.6c0.2,1.4,0.8,2.5,1.8,3.3c1,0.8,2.3,1.2,3.8,1.2c1.9,0,3.4-0.6,4.5-1.9l1.6,1.8
			c-0.7,0.8-1.6,1.4-2.6,1.9s-2.2,0.6-3.5,0.6c-1.6,0-3.1-0.3-4.4-1c-1.3-0.7-2.3-1.6-2.9-2.8c-0.7-1.2-1-2.6-1-4.1
			c0-1.5,0.3-2.9,1-4.1c0.7-1.2,1.6-2.2,2.8-2.8c1.2-0.7,2.5-1,4-1c1.5,0,2.8,0.3,4,1c1.2,0.7,2.1,1.6,2.7,2.8c0.7,1.2,1,2.6,1,4.2
			C387.3,133.7,387.3,134,387.2,134.3z M376.2,129.1c-0.9,0.8-1.4,1.9-1.6,3.2h10c-0.2-1.3-0.7-2.4-1.6-3.2s-2-1.2-3.4-1.2
			C378.2,127.8,377.1,128.2,376.2,129.1z"/>
		<path class="st2" d="M391.2,119.4h2.8v21.8h-2.8V119.4z"/>
		<path class="st2" d="M419.6,126.5c1.2,0.7,2.1,1.6,2.8,2.8c0.7,1.2,1,2.6,1,4.1c0,1.6-0.3,2.9-1,4.2c-0.7,1.2-1.6,2.1-2.8,2.8
			c-1.2,0.7-2.5,1-4,1c-1.1,0-2.1-0.2-3.1-0.6c-0.9-0.4-1.7-1.1-2.4-1.9v8h-2.8v-21.2h2.7v2.5c0.6-0.9,1.4-1.5,2.4-2
			c1-0.4,2-0.7,3.2-0.7C417,125.5,418.4,125.8,419.6,126.5z M418,138.2c0.8-0.5,1.4-1.1,1.9-1.9c0.5-0.8,0.7-1.8,0.7-2.9
			c0-1.1-0.2-2-0.7-2.9c-0.5-0.8-1.1-1.5-1.9-1.9c-0.8-0.4-1.7-0.7-2.7-0.7c-1,0-1.9,0.2-2.7,0.7c-0.8,0.5-1.4,1.1-1.9,1.9
			c-0.5,0.8-0.7,1.8-0.7,2.8c0,1.1,0.2,2,0.7,2.9c0.5,0.8,1.1,1.5,1.9,1.9s1.7,0.7,2.7,0.7C416.3,138.9,417.2,138.6,418,138.2z"/>
		<path class="st2" d="M432.1,126.2c1-0.5,2.1-0.7,3.5-0.7v2.7c-0.2,0-0.4,0-0.6,0c-1.5,0-2.7,0.5-3.6,1.4c-0.9,0.9-1.3,2.2-1.3,3.9
			v7.7h-2.8v-15.6h2.7v2.6C430.5,127.3,431.2,126.6,432.1,126.2z"/>
		<path class="st2" d="M453,134.3h-12.6c0.2,1.4,0.8,2.5,1.8,3.3c1,0.8,2.3,1.2,3.8,1.2c1.9,0,3.4-0.6,4.5-1.9l1.6,1.8
			c-0.7,0.8-1.6,1.4-2.6,1.9s-2.2,0.6-3.5,0.6c-1.6,0-3.1-0.3-4.4-1c-1.3-0.7-2.3-1.6-2.9-2.8c-0.7-1.2-1-2.6-1-4.1
			c0-1.5,0.3-2.9,1-4.1c0.7-1.2,1.6-2.2,2.8-2.8c1.2-0.7,2.5-1,4-1c1.5,0,2.8,0.3,4,1c1.2,0.7,2.1,1.6,2.7,2.8c0.7,1.2,1,2.6,1,4.2
			C453,133.7,453,134,453,134.3z M441.9,129.1c-0.9,0.8-1.4,1.9-1.6,3.2h10c-0.2-1.3-0.7-2.4-1.6-3.2s-2-1.2-3.4-1.2
			C444,127.8,442.8,128.2,441.9,129.1z"/>
		<path class="st2" d="M457.7,140.8c-1.2-0.3-2.1-0.8-2.8-1.3l1.2-2.2c0.7,0.5,1.5,0.9,2.5,1.2c1,0.3,2,0.4,3,0.4
			c2.5,0,3.7-0.7,3.7-2.1c0-0.5-0.2-0.8-0.5-1.1s-0.7-0.5-1.2-0.6c-0.5-0.1-1.2-0.3-2.1-0.4c-1.3-0.2-2.3-0.4-3.1-0.7
			c-0.8-0.3-1.5-0.7-2-1.3c-0.6-0.6-0.9-1.5-0.9-2.6c0-1.4,0.6-2.5,1.8-3.4c1.2-0.9,2.7-1.3,4.7-1.3c1,0,2.1,0.1,3.1,0.4
			c1,0.3,1.9,0.6,2.6,1l-1.2,2.2c-1.3-0.8-2.8-1.2-4.5-1.2c-1.2,0-2.1,0.2-2.7,0.6c-0.6,0.4-0.9,0.9-0.9,1.6c0,0.5,0.2,0.9,0.5,1.2
			c0.4,0.3,0.8,0.5,1.3,0.6c0.5,0.1,1.2,0.3,2.2,0.5c1.3,0.2,2.3,0.4,3,0.7c0.8,0.2,1.4,0.7,2,1.2c0.5,0.6,0.8,1.4,0.8,2.5
			c0,1.4-0.6,2.5-1.8,3.4s-2.8,1.2-4.9,1.2C460.1,141.3,458.9,141.2,457.7,140.8z"/>
		<path class="st2" d="M485.6,134.3H473c0.2,1.4,0.8,2.5,1.8,3.3c1,0.8,2.3,1.2,3.8,1.2c1.9,0,3.4-0.6,4.5-1.9l1.6,1.8
			c-0.7,0.8-1.6,1.4-2.6,1.9s-2.2,0.6-3.5,0.6c-1.6,0-3.1-0.3-4.4-1c-1.3-0.7-2.3-1.6-2.9-2.8c-0.7-1.2-1-2.6-1-4.1
			c0-1.5,0.3-2.9,1-4.1c0.7-1.2,1.6-2.2,2.8-2.8c1.2-0.7,2.5-1,4-1c1.5,0,2.8,0.3,4,1c1.2,0.7,2.1,1.6,2.7,2.8c0.7,1.2,1,2.6,1,4.2
			C485.7,133.7,485.6,134,485.6,134.3z M474.6,129.1c-0.9,0.8-1.4,1.9-1.6,3.2h10c-0.2-1.3-0.7-2.4-1.6-3.2s-2-1.2-3.4-1.2
			C476.6,127.8,475.5,128.2,474.6,129.1z"/>
		<path class="st2" d="M494.4,126.2c1-0.5,2.1-0.7,3.5-0.7v2.7c-0.2,0-0.4,0-0.6,0c-1.5,0-2.7,0.5-3.6,1.4c-0.9,0.9-1.3,2.2-1.3,3.9
			v7.7h-2.8v-15.6h2.7v2.6C492.8,127.3,493.5,126.6,494.4,126.2z"/>
		<path class="st2" d="M515.8,125.6l-6.8,15.6h-2.9l-6.8-15.6h2.9l5.3,12.5l5.5-12.5H515.8z"/>
		<path class="st2" d="M528.5,127c1.1,1.1,1.7,2.6,1.7,4.7v9.4h-2.7v-2.1c-0.5,0.7-1.1,1.3-2,1.7c-0.9,0.4-1.9,0.6-3.1,0.6
			c-1.7,0-3.1-0.4-4.2-1.3c-1-0.8-1.6-1.9-1.6-3.3c0-1.4,0.5-2.5,1.5-3.3c1-0.8,2.6-1.2,4.8-1.2h4.5v-0.6c0-1.2-0.4-2.1-1.1-2.8
			s-1.7-1-3.1-1c-0.9,0-1.8,0.2-2.7,0.5c-0.9,0.3-1.6,0.7-2.2,1.2l-1.2-2.1c0.8-0.6,1.8-1.1,2.9-1.5c1.1-0.3,2.3-0.5,3.6-0.5
			C525.8,125.5,527.4,126,528.5,127z M525.7,138.4c0.8-0.5,1.3-1.2,1.7-2v-2.2h-4.3c-2.4,0-3.6,0.8-3.6,2.4c0,0.8,0.3,1.4,0.9,1.8
			s1.4,0.7,2.5,0.7S525,138.9,525.7,138.4z"/>
		<path class="st2" d="M544.2,140.2c-0.4,0.4-0.9,0.6-1.5,0.8c-0.6,0.2-1.2,0.3-1.9,0.3c-1.6,0-2.8-0.4-3.6-1.3
			c-0.9-0.8-1.3-2-1.3-3.6v-8.5h-2.6v-2.3h2.6v-3.4h2.8v3.4h4.5v2.3h-4.5v8.4c0,0.8,0.2,1.5,0.6,1.9c0.4,0.5,1,0.7,1.8,0.7
			c0.9,0,1.6-0.2,2.2-0.7L544.2,140.2z"/>
		<path class="st2" d="M547.7,122.1c-0.4-0.4-0.5-0.8-0.5-1.3s0.2-0.9,0.5-1.3c0.4-0.4,0.8-0.5,1.4-0.5c0.5,0,1,0.2,1.4,0.5
			c0.4,0.3,0.5,0.8,0.5,1.3c0,0.5-0.2,1-0.5,1.3c-0.4,0.4-0.8,0.5-1.4,0.5C548.5,122.6,548,122.4,547.7,122.1z M547.6,125.6h2.8
			v15.6h-2.8V125.6z"/>
		<path class="st2" d="M569.6,125.6l-6.8,15.6h-2.9l-6.8-15.6h2.9l5.3,12.5l5.5-12.5H569.6z"/>
		<path class="st2" d="M574.3,140.3c-1.2-0.7-2.2-1.6-2.9-2.8c-0.7-1.2-1-2.6-1-4.1c0-1.5,0.3-2.9,1-4.1c0.7-1.2,1.7-2.1,2.9-2.8
			c1.2-0.7,2.6-1,4.2-1c1.5,0,2.9,0.3,4.2,1c1.2,0.7,2.2,1.6,2.9,2.8c0.7,1.2,1,2.6,1,4.1c0,1.5-0.3,2.9-1,4.1
			c-0.7,1.2-1.7,2.1-2.9,2.8c-1.2,0.7-2.6,1-4.2,1C576.9,141.3,575.5,141,574.3,140.3z M581.1,138.2c0.8-0.5,1.4-1.1,1.9-1.9
			c0.4-0.8,0.7-1.8,0.7-2.9c0-1.1-0.2-2-0.7-2.9c-0.5-0.8-1.1-1.5-1.9-1.9c-0.8-0.4-1.7-0.7-2.7-0.7c-1,0-1.9,0.2-2.7,0.7
			c-0.8,0.5-1.4,1.1-1.9,1.9c-0.5,0.8-0.7,1.8-0.7,2.9c0,1.1,0.2,2,0.7,2.9c0.5,0.8,1.1,1.5,1.9,1.9c0.8,0.5,1.7,0.7,2.7,0.7
			C579.4,138.9,580.3,138.6,581.1,138.2z"/>
		<path class="st2" d="M592.1,137.9c0.4,0.4,0.5,0.9,0.5,1.4c0,0.3,0,0.6-0.1,0.9s-0.2,0.7-0.4,1.3l-1.4,4.1h-1.8l1.1-4.4
			c-0.4-0.1-0.7-0.4-0.9-0.7c-0.2-0.3-0.3-0.7-0.3-1.1c0-0.6,0.2-1.1,0.6-1.4s0.8-0.6,1.4-0.6C591.3,137.3,591.8,137.5,592.1,137.9z
			"/>
		<path class="st2" d="M75.2,169.5H62.6c0.2,1.4,0.8,2.5,1.8,3.3c1,0.8,2.3,1.2,3.8,1.2c1.9,0,3.4-0.6,4.5-1.9l1.6,1.8
			c-0.7,0.8-1.6,1.4-2.6,1.9s-2.2,0.6-3.5,0.6c-1.6,0-3.1-0.3-4.4-1c-1.3-0.7-2.3-1.6-2.9-2.8c-0.7-1.2-1-2.6-1-4.1
			c0-1.5,0.3-2.9,1-4.1c0.7-1.2,1.6-2.2,2.8-2.8c1.2-0.7,2.5-1,4-1c1.5,0,2.8,0.3,4,1c1.2,0.7,2.1,1.6,2.7,2.8c0.7,1.2,1,2.6,1,4.2
			C75.3,168.9,75.3,169.2,75.2,169.5z M64.2,164.3c-0.9,0.8-1.4,1.9-1.6,3.2h10c-0.2-1.3-0.7-2.4-1.6-3.2s-2-1.2-3.4-1.2
			C66.3,163,65.1,163.5,64.2,164.3z"/>
		<path class="st2" d="M92.7,160.8l-7.5,17.1c-0.7,1.6-1.4,2.7-2.3,3.3c-0.9,0.6-2,1-3.2,1c-0.8,0-1.5-0.1-2.2-0.4
			c-0.7-0.2-1.3-0.6-1.8-1.1l1.2-2.1c0.8,0.8,1.7,1.1,2.8,1.1c0.7,0,1.3-0.2,1.7-0.5c0.5-0.4,0.9-1,1.2-1.9l0.5-1.1l-6.9-15.5h2.9
			l5.4,12.4l5.4-12.4H92.7z"/>
		<path class="st2" d="M105.4,162.3c1.1,1.1,1.7,2.6,1.7,4.7v9.4h-2.7v-2.1c-0.5,0.7-1.1,1.3-2,1.7c-0.9,0.4-1.9,0.6-3.1,0.6
			c-1.7,0-3.1-0.4-4.2-1.3c-1-0.8-1.6-1.9-1.6-3.3c0-1.4,0.5-2.5,1.5-3.3c1-0.8,2.6-1.2,4.8-1.2h4.5v-0.6c0-1.2-0.4-2.1-1.1-2.8
			s-1.7-1-3.1-1c-0.9,0-1.8,0.2-2.7,0.5c-0.9,0.3-1.6,0.7-2.2,1.2l-1.2-2.1c0.8-0.6,1.8-1.1,2.9-1.5c1.1-0.3,2.3-0.5,3.6-0.5
			C102.6,160.7,104.3,161.2,105.4,162.3z M102.6,173.7c0.8-0.5,1.3-1.2,1.7-2v-2.2H100c-2.4,0-3.6,0.8-3.6,2.4
			c0,0.8,0.3,1.4,0.9,1.8s1.4,0.7,2.5,0.7S101.8,174.1,102.6,173.7z"/>
		<path class="st2" d="M115,175.5c-1.2-0.7-2.2-1.6-2.9-2.8c-0.7-1.2-1.1-2.6-1.1-4.1c0-1.5,0.4-2.9,1.1-4.1
			c0.7-1.2,1.7-2.1,2.9-2.8c1.2-0.7,2.7-1,4.2-1c1.4,0,2.7,0.3,3.8,0.9c1.1,0.6,2,1.4,2.6,2.5l-2.1,1.4c-0.5-0.7-1.1-1.3-1.8-1.7
			s-1.5-0.6-2.4-0.6c-1,0-1.9,0.2-2.7,0.7c-0.8,0.5-1.4,1.1-1.9,1.9c-0.5,0.8-0.7,1.8-0.7,2.9c0,1.1,0.2,2.1,0.7,2.9
			c0.5,0.8,1.1,1.5,1.9,1.9c0.8,0.5,1.7,0.7,2.7,0.7c0.9,0,1.7-0.2,2.4-0.6s1.3-0.9,1.8-1.7l2.1,1.3c-0.6,1.1-1.5,1.9-2.6,2.5
			c-1.1,0.6-2.4,0.9-3.8,0.9C117.6,176.5,116.2,176.2,115,175.5z"/>
		<path class="st2" d="M143.7,160.8v15.6H141V174c-0.6,0.8-1.3,1.4-2.2,1.9c-0.9,0.4-1.9,0.7-3,0.7c-2.1,0-3.7-0.6-4.9-1.7
			c-1.2-1.1-1.8-2.8-1.8-5.1v-8.9h2.8v8.6c0,1.5,0.4,2.6,1.1,3.4c0.7,0.8,1.8,1.2,3.1,1.2c1.5,0,2.7-0.5,3.5-1.4
			c0.9-0.9,1.3-2.2,1.3-3.8v-8H143.7z"/>
		<path class="st2" d="M149.1,154.6h2.8v21.8h-2.8V154.6z"/>
		<path class="st2" d="M167.8,162.3c1.1,1.1,1.7,2.6,1.7,4.7v9.4h-2.7v-2.1c-0.5,0.7-1.1,1.3-2,1.7c-0.9,0.4-1.9,0.6-3.1,0.6
			c-1.7,0-3.1-0.4-4.2-1.3c-1-0.8-1.6-1.9-1.6-3.3c0-1.4,0.5-2.5,1.5-3.3c1-0.8,2.6-1.2,4.8-1.2h4.5v-0.6c0-1.2-0.4-2.1-1.1-2.8
			s-1.7-1-3.1-1c-0.9,0-1.8,0.2-2.7,0.5c-0.9,0.3-1.6,0.7-2.2,1.2l-1.2-2.1c0.8-0.6,1.8-1.1,2.9-1.5c1.1-0.3,2.3-0.5,3.6-0.5
			C165.1,160.7,166.7,161.2,167.8,162.3z M165,173.7c0.8-0.5,1.3-1.2,1.7-2v-2.2h-4.3c-2.4,0-3.6,0.8-3.6,2.4c0,0.8,0.3,1.4,0.9,1.8
			s1.4,0.7,2.5,0.7S164.3,174.1,165,173.7z"/>
		<path class="st2" d="M177.4,175.5c-1.2-0.7-2.2-1.6-2.9-2.8c-0.7-1.2-1.1-2.6-1.1-4.1c0-1.5,0.4-2.9,1.1-4.1
			c0.7-1.2,1.7-2.1,2.9-2.8c1.2-0.7,2.7-1,4.2-1c1.4,0,2.7,0.3,3.8,0.9c1.1,0.6,2,1.4,2.6,2.5l-2.1,1.4c-0.5-0.7-1.1-1.3-1.8-1.7
			s-1.5-0.6-2.4-0.6c-1,0-1.9,0.2-2.7,0.7c-0.8,0.5-1.4,1.1-1.9,1.9c-0.5,0.8-0.7,1.8-0.7,2.9c0,1.1,0.2,2.1,0.7,2.9
			c0.5,0.8,1.1,1.5,1.9,1.9c0.8,0.5,1.7,0.7,2.7,0.7c0.9,0,1.7-0.2,2.4-0.6s1.3-0.9,1.8-1.7l2.1,1.3c-0.6,1.1-1.5,1.9-2.6,2.5
			c-1.1,0.6-2.4,0.9-3.8,0.9C180.1,176.5,178.7,176.2,177.4,175.5z"/>
		<path class="st2" d="M191.7,157.3c-0.4-0.4-0.5-0.8-0.5-1.3s0.2-0.9,0.5-1.3c0.4-0.4,0.8-0.5,1.4-0.5c0.5,0,1,0.2,1.4,0.5
			c0.4,0.3,0.5,0.8,0.5,1.3c0,0.5-0.2,1-0.5,1.3c-0.4,0.4-0.8,0.5-1.4,0.5C192.5,157.8,192,157.6,191.7,157.3z M191.6,160.8h2.8
			v15.6h-2.8V160.8z"/>
		<path class="st2" d="M202.3,175.5c-1.2-0.7-2.2-1.6-2.9-2.8c-0.7-1.2-1-2.6-1-4.1c0-1.5,0.3-2.9,1-4.1c0.7-1.2,1.7-2.1,2.9-2.8
			c1.2-0.7,2.6-1,4.2-1c1.5,0,2.9,0.3,4.2,1c1.2,0.7,2.2,1.6,2.9,2.8c0.7,1.2,1,2.6,1,4.1c0,1.5-0.3,2.9-1,4.1
			c-0.7,1.2-1.7,2.1-2.9,2.8c-1.2,0.7-2.6,1-4.2,1C204.9,176.5,203.5,176.2,202.3,175.5z M209.2,173.4c0.8-0.5,1.4-1.1,1.9-1.9
			c0.4-0.8,0.7-1.8,0.7-2.9c0-1.1-0.2-2-0.7-2.9c-0.5-0.8-1.1-1.5-1.9-1.9c-0.8-0.4-1.7-0.7-2.7-0.7c-1,0-1.9,0.2-2.7,0.7
			c-0.8,0.5-1.4,1.1-1.9,1.9c-0.5,0.8-0.7,1.8-0.7,2.9c0,1.1,0.2,2,0.7,2.9c0.5,0.8,1.1,1.5,1.9,1.9c0.8,0.5,1.7,0.7,2.7,0.7
			C207.5,174.1,208.4,173.8,209.2,173.4z M208.2,154.7h3.6l-4.9,3.8h-2.6L208.2,154.7z"/>
		<path class="st2" d="M231.5,162.4c1.2,1.1,1.7,2.8,1.7,5v8.9h-2.8v-8.6c0-1.5-0.4-2.6-1.1-3.4c-0.7-0.8-1.8-1.1-3.1-1.1
			c-1.5,0-2.7,0.4-3.6,1.3c-0.9,0.9-1.3,2.2-1.3,3.8v8h-2.8v-15.6h2.7v2.3c0.6-0.8,1.3-1.4,2.3-1.8c1-0.4,2.1-0.6,3.3-0.6
			C228.7,160.7,230.3,161.2,231.5,162.4z"/>
		<path class="st2" d="M258.6,161.7c1.2,0.7,2.1,1.6,2.8,2.8c0.7,1.2,1,2.6,1,4.1c0,1.6-0.3,2.9-1,4.2c-0.7,1.2-1.6,2.1-2.8,2.8
			c-1.2,0.7-2.5,1-4,1c-1.1,0-2.1-0.2-3.1-0.6c-0.9-0.4-1.7-1.1-2.4-1.9v8h-2.8v-21.2h2.7v2.5c0.6-0.9,1.4-1.5,2.4-2
			c1-0.4,2-0.7,3.2-0.7C256.1,160.7,257.4,161,258.6,161.7z M257,173.4c0.8-0.5,1.4-1.1,1.9-1.9c0.5-0.8,0.7-1.8,0.7-2.9
			c0-1.1-0.2-2-0.7-2.9c-0.5-0.8-1.1-1.5-1.9-1.9c-0.8-0.4-1.7-0.7-2.7-0.7c-1,0-1.9,0.2-2.7,0.7c-0.8,0.5-1.4,1.1-1.9,1.9
			c-0.5,0.8-0.7,1.8-0.7,2.8c0,1.1,0.2,2,0.7,2.9c0.5,0.8,1.1,1.5,1.9,1.9s1.7,0.7,2.7,0.7C255.3,174.1,256.2,173.8,257,173.4z"/>
		<path class="st2" d="M268.8,175.5c-1.2-0.7-2.2-1.6-2.9-2.8c-0.7-1.2-1-2.6-1-4.1c0-1.5,0.3-2.9,1-4.1c0.7-1.2,1.7-2.1,2.9-2.8
			c1.2-0.7,2.6-1,4.2-1c1.5,0,2.9,0.3,4.2,1c1.2,0.7,2.2,1.6,2.9,2.8c0.7,1.2,1,2.6,1,4.1c0,1.5-0.3,2.9-1,4.1
			c-0.7,1.2-1.7,2.1-2.9,2.8c-1.2,0.7-2.6,1-4.2,1C271.5,176.5,270.1,176.2,268.8,175.5z M275.7,173.4c0.8-0.5,1.4-1.1,1.9-1.9
			c0.4-0.8,0.7-1.8,0.7-2.9c0-1.1-0.2-2-0.7-2.9c-0.5-0.8-1.1-1.5-1.9-1.9c-0.8-0.4-1.7-0.7-2.7-0.7c-1,0-1.9,0.2-2.7,0.7
			c-0.8,0.5-1.4,1.1-1.9,1.9c-0.5,0.8-0.7,1.8-0.7,2.9c0,1.1,0.2,2,0.7,2.9c0.5,0.8,1.1,1.5,1.9,1.9c0.8,0.5,1.7,0.7,2.7,0.7
			C274,174.1,274.9,173.8,275.7,173.4z"/>
		<path class="st2" d="M289.8,161.4c1-0.5,2.1-0.7,3.5-0.7v2.7c-0.2,0-0.4,0-0.6,0c-1.5,0-2.7,0.5-3.6,1.4c-0.9,0.9-1.3,2.2-1.3,3.9
			v7.7H285v-15.6h2.7v2.6C288.2,162.5,288.9,161.8,289.8,161.4z"/>
		<path class="st2" d="M305.7,176c-1.2-0.3-2.1-0.8-2.8-1.3l1.2-2.2c0.7,0.5,1.5,0.9,2.5,1.2c1,0.3,2,0.4,3,0.4
			c2.5,0,3.7-0.7,3.7-2.1c0-0.5-0.2-0.8-0.5-1.1s-0.7-0.5-1.2-0.6c-0.5-0.1-1.2-0.3-2.1-0.4c-1.3-0.2-2.3-0.4-3.1-0.7
			c-0.8-0.3-1.5-0.7-2-1.3c-0.6-0.6-0.9-1.5-0.9-2.6c0-1.4,0.6-2.5,1.8-3.4c1.2-0.9,2.7-1.3,4.7-1.3c1,0,2.1,0.1,3.1,0.4
			c1,0.3,1.9,0.6,2.6,1l-1.2,2.2c-1.3-0.8-2.8-1.2-4.5-1.2c-1.2,0-2.1,0.2-2.7,0.6c-0.6,0.4-0.9,0.9-0.9,1.6c0,0.5,0.2,0.9,0.5,1.2
			c0.4,0.3,0.8,0.5,1.3,0.6c0.5,0.1,1.2,0.3,2.2,0.5c1.3,0.2,2.3,0.4,3,0.7c0.8,0.2,1.4,0.7,2,1.2c0.5,0.6,0.8,1.4,0.8,2.5
			c0,1.4-0.6,2.5-1.8,3.4s-2.8,1.2-4.9,1.2C308.1,176.5,306.9,176.4,305.7,176z"/>
		<path class="st2" d="M322.1,175.5c-1.2-0.7-2.2-1.6-2.9-2.8c-0.7-1.2-1-2.6-1-4.1c0-1.5,0.3-2.9,1-4.1c0.7-1.2,1.7-2.1,2.9-2.8
			c1.2-0.7,2.6-1,4.2-1c1.5,0,2.9,0.3,4.2,1c1.2,0.7,2.2,1.6,2.9,2.8c0.7,1.2,1,2.6,1,4.1c0,1.5-0.3,2.9-1,4.1
			c-0.7,1.2-1.7,2.1-2.9,2.8c-1.2,0.7-2.6,1-4.2,1C324.7,176.5,323.3,176.2,322.1,175.5z M328.9,173.4c0.8-0.5,1.4-1.1,1.9-1.9
			c0.4-0.8,0.7-1.8,0.7-2.9c0-1.1-0.2-2-0.7-2.9c-0.5-0.8-1.1-1.5-1.9-1.9c-0.8-0.4-1.7-0.7-2.7-0.7c-1,0-1.9,0.2-2.7,0.7
			c-0.8,0.5-1.4,1.1-1.9,1.9c-0.5,0.8-0.7,1.8-0.7,2.9c0,1.1,0.2,2,0.7,2.9c0.5,0.8,1.1,1.5,1.9,1.9c0.8,0.5,1.7,0.7,2.7,0.7
			C327.2,174.1,328.1,173.8,328.9,173.4z"/>
		<path class="st2" d="M350.5,161.7c1.2,0.7,2.1,1.6,2.8,2.8c0.7,1.2,1,2.6,1,4.1c0,1.6-0.3,2.9-1,4.2c-0.7,1.2-1.6,2.1-2.8,2.8
			c-1.2,0.7-2.5,1-4,1c-1.2,0-2.2-0.2-3.2-0.7c-1-0.4-1.8-1.1-2.4-2v2.5h-2.7v-21.8h2.8v8.6c0.6-0.8,1.4-1.4,2.3-1.9
			c0.9-0.4,2-0.6,3.1-0.6C348,160.7,349.3,161,350.5,161.7z M348.9,173.4c0.8-0.5,1.4-1.1,1.9-1.9c0.5-0.8,0.7-1.8,0.7-2.9
			c0-1.1-0.2-2-0.7-2.9c-0.5-0.8-1.1-1.5-1.9-1.9c-0.8-0.4-1.7-0.7-2.7-0.7c-1,0-1.9,0.2-2.7,0.7c-0.8,0.5-1.4,1.1-1.9,1.9
			c-0.5,0.8-0.7,1.8-0.7,2.9c0,1.1,0.2,2,0.7,2.9c0.5,0.8,1.1,1.5,1.9,1.9s1.7,0.7,2.7,0.7C347.2,174.1,348.1,173.8,348.9,173.4z"/>
		<path class="st2" d="M363.1,161.4c1-0.5,2.1-0.7,3.5-0.7v2.7c-0.2,0-0.4,0-0.6,0c-1.5,0-2.7,0.5-3.6,1.4c-0.9,0.9-1.3,2.2-1.3,3.9
			v7.7h-2.8v-15.6h2.7v2.6C361.4,162.5,362.1,161.8,363.1,161.4z"/>
		<path class="st2" d="M383.9,169.5h-12.6c0.2,1.4,0.8,2.5,1.8,3.3c1,0.8,2.3,1.2,3.8,1.2c1.9,0,3.4-0.6,4.5-1.9l1.6,1.8
			c-0.7,0.8-1.6,1.4-2.6,1.9s-2.2,0.6-3.5,0.6c-1.6,0-3.1-0.3-4.4-1c-1.3-0.7-2.3-1.6-2.9-2.8c-0.7-1.2-1-2.6-1-4.1
			c0-1.5,0.3-2.9,1-4.1c0.7-1.2,1.6-2.2,2.8-2.8c1.2-0.7,2.5-1,4-1c1.5,0,2.8,0.3,4,1c1.2,0.7,2.1,1.6,2.7,2.8c0.7,1.2,1,2.6,1,4.2
			C384,168.9,383.9,169.2,383.9,169.5z M372.9,164.3c-0.9,0.8-1.4,1.9-1.6,3.2h10c-0.2-1.3-0.7-2.4-1.6-3.2s-2-1.2-3.4-1.2
			C374.9,163,373.8,163.5,372.9,164.3z"/>
		<path class="st2" d="M395.8,154.6h2.8v21.8h-2.8V154.6z"/>
		<path class="st2" d="M414.6,162.3c1.1,1.1,1.7,2.6,1.7,4.7v9.4h-2.7v-2.1c-0.5,0.7-1.1,1.3-2,1.7c-0.9,0.4-1.9,0.6-3.1,0.6
			c-1.7,0-3.1-0.4-4.2-1.3c-1-0.8-1.6-1.9-1.6-3.3c0-1.4,0.5-2.5,1.5-3.3c1-0.8,2.6-1.2,4.8-1.2h4.5v-0.6c0-1.2-0.4-2.1-1.1-2.8
			s-1.7-1-3.1-1c-0.9,0-1.8,0.2-2.7,0.5c-0.9,0.3-1.6,0.7-2.2,1.2l-1.2-2.1c0.8-0.6,1.8-1.1,2.9-1.5c1.1-0.3,2.3-0.5,3.6-0.5
			C411.8,160.7,413.4,161.2,414.6,162.3z M411.8,173.7c0.8-0.5,1.3-1.2,1.7-2v-2.2h-4.3c-2.4,0-3.6,0.8-3.6,2.4
			c0,0.8,0.3,1.4,0.9,1.8s1.4,0.7,2.5,0.7S411,174.1,411.8,173.7z"/>
		<path class="st2" d="M440.9,174v2.3h-13v-1.8l9.2-11.4h-9v-2.3h12.6v1.8l-9.2,11.4H440.9z"/>
		<path class="st2" d="M446.9,175.5c-1.2-0.7-2.2-1.6-2.9-2.8c-0.7-1.2-1-2.6-1-4.1c0-1.5,0.3-2.9,1-4.1c0.7-1.2,1.7-2.1,2.9-2.8
			c1.2-0.7,2.6-1,4.2-1c1.5,0,2.9,0.3,4.2,1c1.2,0.7,2.2,1.6,2.9,2.8c0.7,1.2,1,2.6,1,4.1c0,1.5-0.3,2.9-1,4.1
			c-0.7,1.2-1.7,2.1-2.9,2.8c-1.2,0.7-2.6,1-4.2,1C449.6,176.5,448.2,176.2,446.9,175.5z M453.8,173.4c0.8-0.5,1.4-1.1,1.9-1.9
			c0.4-0.8,0.7-1.8,0.7-2.9c0-1.1-0.2-2-0.7-2.9c-0.5-0.8-1.1-1.5-1.9-1.9c-0.8-0.4-1.7-0.7-2.7-0.7c-1,0-1.9,0.2-2.7,0.7
			c-0.8,0.5-1.4,1.1-1.9,1.9c-0.5,0.8-0.7,1.8-0.7,2.9c0,1.1,0.2,2,0.7,2.9c0.5,0.8,1.1,1.5,1.9,1.9c0.8,0.5,1.7,0.7,2.7,0.7
			C452.1,174.1,453,173.8,453.8,173.4z"/>
		<path class="st2" d="M476.1,162.4c1.2,1.1,1.7,2.8,1.7,5v8.9H475v-8.6c0-1.5-0.4-2.6-1.1-3.4c-0.7-0.8-1.8-1.1-3.1-1.1
			c-1.5,0-2.7,0.4-3.6,1.3c-0.9,0.9-1.3,2.2-1.3,3.8v8h-2.8v-15.6h2.7v2.3c0.6-0.8,1.3-1.4,2.3-1.8c1-0.4,2.1-0.6,3.3-0.6
			C473.4,160.7,474.9,161.2,476.1,162.4z"/>
		<path class="st2" d="M493.7,162.3c1.1,1.1,1.7,2.6,1.7,4.7v9.4h-2.7v-2.1c-0.5,0.7-1.1,1.3-2,1.7c-0.9,0.4-1.9,0.6-3.1,0.6
			c-1.7,0-3.1-0.4-4.2-1.3c-1-0.8-1.6-1.9-1.6-3.3c0-1.4,0.5-2.5,1.5-3.3c1-0.8,2.6-1.2,4.8-1.2h4.5v-0.6c0-1.2-0.4-2.1-1.1-2.8
			s-1.7-1-3.1-1c-0.9,0-1.8,0.2-2.7,0.5c-0.9,0.3-1.6,0.7-2.2,1.2l-1.2-2.1c0.8-0.6,1.8-1.1,2.9-1.5c1.1-0.3,2.3-0.5,3.6-0.5
			C490.9,160.7,492.5,161.2,493.7,162.3z M490.9,173.7c0.8-0.5,1.3-1.2,1.7-2v-2.2h-4.3c-2.4,0-3.6,0.8-3.6,2.4
			c0,0.8,0.3,1.4,0.9,1.8s1.4,0.7,2.5,0.7S490.1,174.1,490.9,173.7z"/>
		<path class="st2" d="M522.3,160.8l-6.8,15.6h-2.9l-6.8-15.6h2.9l5.3,12.5l5.5-12.5H522.3z"/>
		<path class="st2" d="M535,162.3c1.1,1.1,1.7,2.6,1.7,4.7v9.4h-2.7v-2.1c-0.5,0.7-1.1,1.3-2,1.7c-0.9,0.4-1.9,0.6-3.1,0.6
			c-1.7,0-3.1-0.4-4.2-1.3c-1-0.8-1.6-1.9-1.6-3.3c0-1.4,0.5-2.5,1.5-3.3c1-0.8,2.6-1.2,4.8-1.2h4.5v-0.6c0-1.2-0.4-2.1-1.1-2.8
			s-1.7-1-3.1-1c-0.9,0-1.8,0.2-2.7,0.5c-0.9,0.3-1.6,0.7-2.2,1.2l-1.2-2.1c0.8-0.6,1.8-1.1,2.9-1.5c1.1-0.3,2.3-0.5,3.6-0.5
			C532.2,160.7,533.9,161.2,535,162.3z M532.2,173.7c0.8-0.5,1.3-1.2,1.7-2v-2.2h-4.3c-2.4,0-3.6,0.8-3.6,2.4c0,0.8,0.3,1.4,0.9,1.8
			s1.4,0.7,2.5,0.7S531.4,174.1,532.2,173.7z"/>
		<path class="st2" d="M556.9,160.8v13.4c0,2.7-0.7,4.7-2,6s-3.4,2-6,2c-1.5,0-2.9-0.2-4.2-0.6c-1.3-0.4-2.4-1-3.2-1.7l1.3-2.2
			c0.7,0.6,1.6,1.1,2.7,1.5c1.1,0.4,2.2,0.5,3.3,0.5c1.8,0,3.2-0.4,4-1.3c0.9-0.9,1.3-2.2,1.3-3.9v-1.2c-0.7,0.8-1.5,1.4-2.5,1.8
			c-1,0.4-2,0.6-3.2,0.6c-1.5,0-2.8-0.3-4-1c-1.2-0.6-2.1-1.5-2.8-2.7c-0.7-1.1-1-2.4-1-3.9s0.3-2.8,1-3.9c0.7-1.1,1.6-2,2.8-2.7
			c1.2-0.6,2.5-0.9,4-0.9c1.2,0,2.3,0.2,3.3,0.6c1,0.4,1.8,1.1,2.5,1.9v-2.4H556.9z M551.6,172.6c0.8-0.4,1.4-1,1.9-1.8
			c0.5-0.8,0.7-1.6,0.7-2.6c0-1.5-0.5-2.7-1.5-3.7s-2.3-1.4-3.8-1.4c-1.6,0-2.9,0.5-3.9,1.4c-1,0.9-1.5,2.1-1.5,3.7
			c0,1,0.2,1.9,0.7,2.6c0.5,0.8,1.1,1.4,1.9,1.8c0.8,0.4,1.7,0.6,2.8,0.6C549.8,173.3,550.7,173,551.6,172.6z"/>
		<path class="st2" d="M562.3,157.3c-0.4-0.4-0.5-0.8-0.5-1.3s0.2-0.9,0.5-1.3c0.4-0.4,0.8-0.5,1.4-0.5c0.5,0,1,0.2,1.4,0.5
			c0.4,0.3,0.5,0.8,0.5,1.3c0,0.5-0.2,1-0.5,1.3c-0.4,0.4-0.8,0.5-1.4,0.5C563.1,157.8,562.7,157.6,562.3,157.3z M562.3,160.8h2.8
			v15.6h-2.8V160.8z"/>
		<path class="st2" d="M583.5,162.4c1.2,1.1,1.7,2.8,1.7,5v8.9h-2.8v-8.6c0-1.5-0.4-2.6-1.1-3.4c-0.7-0.8-1.8-1.1-3.1-1.1
			c-1.5,0-2.7,0.4-3.6,1.3c-0.9,0.9-1.3,2.2-1.3,3.8v8h-2.8v-15.6h2.7v2.3c0.6-0.8,1.3-1.4,2.3-1.8c1-0.4,2.1-0.6,3.3-0.6
			C580.7,160.7,582.3,161.2,583.5,162.4z"/>
		<path class="st2" d="M601.1,162.3c1.1,1.1,1.7,2.6,1.7,4.7v9.4h-2.7v-2.1c-0.5,0.7-1.1,1.3-2,1.7c-0.9,0.4-1.9,0.6-3.1,0.6
			c-1.7,0-3.1-0.4-4.2-1.3c-1-0.8-1.6-1.9-1.6-3.3c0-1.4,0.5-2.5,1.5-3.3c1-0.8,2.6-1.2,4.8-1.2h4.5v-0.6c0-1.2-0.4-2.1-1.1-2.8
			s-1.7-1-3.1-1c-0.9,0-1.8,0.2-2.7,0.5c-0.9,0.3-1.6,0.7-2.2,1.2l-1.2-2.1c0.8-0.6,1.8-1.1,2.9-1.5c1.1-0.3,2.3-0.5,3.6-0.5
			C598.3,160.7,599.9,161.2,601.1,162.3z M598.3,173.7c0.8-0.5,1.3-1.2,1.7-2v-2.2h-4.3c-2.4,0-3.6,0.8-3.6,2.4
			c0,0.8,0.3,1.4,0.9,1.8s1.4,0.7,2.5,0.7S597.5,174.1,598.3,173.7z"/>
		<path class="st2" d="M608,154.6h2.8v21.8H608V154.6z"/>
		<path class="st2" d="M618.2,173.1c0.4,0.4,0.5,0.9,0.5,1.4c0,0.3,0,0.6-0.1,0.9s-0.2,0.7-0.4,1.3l-1.4,4.1h-1.8l1.1-4.4
			c-0.4-0.1-0.7-0.4-0.9-0.7c-0.2-0.3-0.3-0.7-0.3-1.1c0-0.6,0.2-1.1,0.6-1.4s0.8-0.6,1.4-0.6C617.4,172.5,617.9,172.7,618.2,173.1z
			"/>
		<path class="st2" d="M182.2,189.8v21.8h-2.7v-2.5c-0.6,0.9-1.4,1.5-2.4,2c-1,0.5-2,0.7-3.2,0.7c-1.5,0-2.9-0.3-4-1
			c-1.2-0.7-2.1-1.6-2.8-2.8c-0.7-1.2-1-2.6-1-4.2c0-1.6,0.3-2.9,1-4.1c0.7-1.2,1.6-2.1,2.8-2.8c1.2-0.7,2.5-1,4-1
			c1.1,0,2.1,0.2,3.1,0.6c0.9,0.4,1.7,1,2.3,1.9v-8.6H182.2z M176.9,208.6c0.8-0.5,1.4-1.1,1.9-1.9c0.4-0.8,0.7-1.8,0.7-2.9
			c0-1.1-0.2-2-0.7-2.9c-0.5-0.8-1.1-1.5-1.9-1.9c-0.8-0.4-1.7-0.7-2.7-0.7c-1,0-1.9,0.2-2.7,0.7c-0.8,0.5-1.4,1.1-1.9,1.9
			c-0.5,0.8-0.7,1.8-0.7,2.9c0,1.1,0.2,2,0.7,2.9c0.5,0.8,1.1,1.5,1.9,1.9c0.8,0.5,1.7,0.7,2.7,0.7
			C175.2,209.3,176.1,209.1,176.9,208.6z"/>
		<path class="st2" d="M201.6,204.7H189c0.2,1.4,0.8,2.5,1.8,3.3c1,0.8,2.3,1.2,3.8,1.2c1.9,0,3.4-0.6,4.5-1.9l1.6,1.8
			c-0.7,0.8-1.6,1.4-2.6,1.9s-2.2,0.6-3.5,0.6c-1.6,0-3.1-0.3-4.4-1c-1.3-0.7-2.3-1.6-2.9-2.8c-0.7-1.2-1-2.6-1-4.1
			c0-1.5,0.3-2.9,1-4.1c0.7-1.2,1.6-2.2,2.8-2.8c1.2-0.7,2.5-1,4-1c1.5,0,2.8,0.3,4,1c1.2,0.7,2.1,1.6,2.7,2.8c0.7,1.2,1,2.6,1,4.2
			C201.6,204.1,201.6,204.4,201.6,204.7z M190.6,199.5c-0.9,0.8-1.4,1.9-1.6,3.2h10c-0.2-1.3-0.7-2.4-1.6-3.2s-2-1.2-3.4-1.2
			C192.6,198.3,191.5,198.7,190.6,199.5z"/>
		<path class="st2" d="M206.3,211.2c-1.2-0.3-2.1-0.8-2.8-1.3l1.2-2.2c0.7,0.5,1.5,0.9,2.5,1.2c1,0.3,2,0.4,3,0.4
			c2.5,0,3.7-0.7,3.7-2.1c0-0.5-0.2-0.8-0.5-1.1s-0.7-0.5-1.2-0.6c-0.5-0.1-1.2-0.3-2.1-0.4c-1.3-0.2-2.3-0.4-3.1-0.7
			c-0.8-0.3-1.5-0.7-2-1.3c-0.6-0.6-0.9-1.5-0.9-2.6c0-1.4,0.6-2.5,1.8-3.4c1.2-0.9,2.7-1.3,4.7-1.3c1,0,2.1,0.1,3.1,0.4
			c1,0.3,1.9,0.6,2.6,1l-1.2,2.2c-1.3-0.8-2.8-1.2-4.5-1.2c-1.2,0-2.1,0.2-2.7,0.6c-0.6,0.4-0.9,0.9-0.9,1.6c0,0.5,0.2,0.9,0.5,1.2
			c0.4,0.3,0.8,0.5,1.3,0.6c0.5,0.1,1.2,0.3,2.2,0.5c1.3,0.2,2.3,0.4,3,0.7c0.8,0.2,1.4,0.7,2,1.2c0.5,0.6,0.8,1.4,0.8,2.5
			c0,1.4-0.6,2.5-1.8,3.4s-2.8,1.2-4.9,1.2C208.7,211.8,207.5,211.6,206.3,211.2z"/>
		<path class="st2" d="M232.5,196.9c1.2,0.7,2.1,1.6,2.8,2.8c0.7,1.2,1,2.6,1,4.1c0,1.6-0.3,2.9-1,4.2c-0.7,1.2-1.6,2.1-2.8,2.8
			c-1.2,0.7-2.5,1-4,1c-1.1,0-2.1-0.2-3.1-0.6c-0.9-0.4-1.7-1.1-2.4-1.9v8h-2.8V196h2.7v2.5c0.6-0.9,1.4-1.5,2.4-2
			c1-0.4,2-0.7,3.2-0.7C230,195.9,231.3,196.2,232.5,196.9z M230.9,208.6c0.8-0.5,1.4-1.1,1.9-1.9c0.5-0.8,0.7-1.8,0.7-2.9
			c0-1.1-0.2-2-0.7-2.9c-0.5-0.8-1.1-1.5-1.9-1.9c-0.8-0.4-1.7-0.7-2.7-0.7c-1,0-1.9,0.2-2.7,0.7c-0.8,0.5-1.4,1.1-1.9,1.9
			c-0.5,0.8-0.7,1.8-0.7,2.8c0,1.1,0.2,2,0.7,2.9c0.5,0.8,1.1,1.5,1.9,1.9s1.7,0.7,2.7,0.7C229.2,209.3,230.1,209.1,230.9,208.6z"/>
		<path class="st2" d="M240.3,189.8h2.8v21.8h-2.8V189.8z"/>
		<path class="st2" d="M259,197.5c1.1,1.1,1.7,2.6,1.7,4.7v9.4h-2.7v-2.1c-0.5,0.7-1.1,1.3-2,1.7c-0.9,0.4-1.9,0.6-3.1,0.6
			c-1.7,0-3.1-0.4-4.2-1.3c-1-0.8-1.6-1.9-1.6-3.3c0-1.4,0.5-2.5,1.5-3.3c1-0.8,2.6-1.2,4.8-1.2h4.5v-0.6c0-1.2-0.4-2.1-1.1-2.8
			s-1.7-1-3.1-1c-0.9,0-1.8,0.2-2.7,0.5c-0.9,0.3-1.6,0.7-2.2,1.2l-1.2-2.1c0.8-0.6,1.8-1.1,2.9-1.5c1.1-0.3,2.3-0.5,3.6-0.5
			C256.3,195.9,257.9,196.4,259,197.5z M256.2,208.9c0.8-0.5,1.3-1.2,1.7-2v-2.2h-4.3c-2.4,0-3.6,0.8-3.6,2.4c0,0.8,0.3,1.4,0.9,1.8
			s1.4,0.7,2.5,0.7S255.5,209.3,256.2,208.9z"/>
		<path class="st2" d="M277.5,209.3v2.3h-13v-1.8l9.2-11.4h-9V196h12.6v1.8l-9.2,11.4H277.5z"/>
		<path class="st2" d="M291.9,197.5c1.1,1.1,1.7,2.6,1.7,4.7v9.4h-2.7v-2.1c-0.5,0.7-1.1,1.3-2,1.7c-0.9,0.4-1.9,0.6-3.1,0.6
			c-1.7,0-3.1-0.4-4.2-1.3c-1-0.8-1.6-1.9-1.6-3.3c0-1.4,0.5-2.5,1.5-3.3c1-0.8,2.6-1.2,4.8-1.2h4.5v-0.6c0-1.2-0.4-2.1-1.1-2.8
			s-1.7-1-3.1-1c-0.9,0-1.8,0.2-2.7,0.5c-0.9,0.3-1.6,0.7-2.2,1.2l-1.2-2.1c0.8-0.6,1.8-1.1,2.9-1.5c1.1-0.3,2.3-0.5,3.6-0.5
			C289.1,195.9,290.7,196.4,291.9,197.5z M289.1,208.9c0.8-0.5,1.3-1.2,1.7-2v-2.2h-4.3c-2.4,0-3.6,0.8-3.6,2.4
			c0,0.8,0.3,1.4,0.9,1.8s1.4,0.7,2.5,0.7S288.3,209.3,289.1,208.9z"/>
		<path class="st2" d="M322.9,197.6c1.1,1.1,1.7,2.8,1.7,5v8.9h-2.8v-8.6c0-1.5-0.3-2.6-1-3.4c-0.7-0.8-1.7-1.1-3-1.1
			c-1.4,0-2.6,0.4-3.4,1.3c-0.8,0.9-1.3,2.2-1.3,3.8v8h-2.8v-8.6c0-1.5-0.3-2.6-1-3.4c-0.7-0.8-1.7-1.1-3-1.1
			c-1.4,0-2.6,0.4-3.4,1.3c-0.8,0.9-1.3,2.2-1.3,3.8v8h-2.8V196h2.7v2.3c0.6-0.8,1.3-1.4,2.2-1.8c0.9-0.4,2-0.6,3.1-0.6
			c1.2,0,2.3,0.2,3.2,0.7s1.7,1.2,2.2,2.1c0.6-0.9,1.4-1.6,2.5-2.1c1-0.5,2.2-0.8,3.5-0.8C320.2,195.9,321.8,196.4,322.9,197.6z"/>
		<path class="st2" d="M329.9,192.5c-0.4-0.4-0.5-0.8-0.5-1.3s0.2-0.9,0.5-1.3c0.4-0.4,0.8-0.5,1.4-0.5c0.5,0,1,0.2,1.4,0.5
			c0.4,0.3,0.5,0.8,0.5,1.3c0,0.5-0.2,1-0.5,1.3c-0.4,0.4-0.8,0.5-1.4,0.5C330.7,193,330.2,192.9,329.9,192.5z M329.8,196h2.8v15.6
			h-2.8V196z"/>
		<path class="st2" d="M352,204.7h-12.6c0.2,1.4,0.8,2.5,1.8,3.3c1,0.8,2.3,1.2,3.8,1.2c1.9,0,3.4-0.6,4.5-1.9l1.6,1.8
			c-0.7,0.8-1.6,1.4-2.6,1.9s-2.2,0.6-3.5,0.6c-1.6,0-3.1-0.3-4.4-1c-1.3-0.7-2.3-1.6-2.9-2.8c-0.7-1.2-1-2.6-1-4.1
			c0-1.5,0.3-2.9,1-4.1c0.7-1.2,1.6-2.2,2.8-2.8c1.2-0.7,2.5-1,4-1c1.5,0,2.8,0.3,4,1c1.2,0.7,2.1,1.6,2.7,2.8c0.7,1.2,1,2.6,1,4.2
			C352.1,204.1,352.1,204.4,352,204.7z M341,199.5c-0.9,0.8-1.4,1.9-1.6,3.2h10c-0.2-1.3-0.7-2.4-1.6-3.2s-2-1.2-3.4-1.2
			C343,198.3,341.9,198.7,341,199.5z"/>
		<path class="st2" d="M369,197.6c1.2,1.1,1.7,2.8,1.7,5v8.9h-2.8v-8.6c0-1.5-0.4-2.6-1.1-3.4c-0.7-0.8-1.8-1.1-3.1-1.1
			c-1.5,0-2.7,0.4-3.6,1.3c-0.9,0.9-1.3,2.2-1.3,3.8v8H356V196h2.7v2.3c0.6-0.8,1.3-1.4,2.3-1.8c1-0.4,2.1-0.6,3.3-0.6
			C366.3,195.9,367.8,196.4,369,197.6z"/>
		<path class="st2" d="M384.7,210.7c-0.4,0.4-0.9,0.6-1.5,0.8c-0.6,0.2-1.2,0.3-1.9,0.3c-1.6,0-2.8-0.4-3.6-1.3
			c-0.9-0.8-1.3-2-1.3-3.6v-8.5h-2.6V196h2.6v-3.4h2.8v3.4h4.5v2.3h-4.5v8.4c0,0.8,0.2,1.5,0.6,1.9c0.4,0.5,1,0.7,1.8,0.7
			c0.9,0,1.6-0.2,2.2-0.7L384.7,210.7z"/>
		<path class="st2" d="M390.1,210.7c-1.2-0.7-2.2-1.6-2.9-2.8c-0.7-1.2-1-2.6-1-4.1c0-1.5,0.3-2.9,1-4.1c0.7-1.2,1.7-2.1,2.9-2.8
			c1.2-0.7,2.6-1,4.2-1c1.5,0,2.9,0.3,4.2,1c1.2,0.7,2.2,1.6,2.9,2.8c0.7,1.2,1,2.6,1,4.1c0,1.5-0.3,2.9-1,4.1
			c-0.7,1.2-1.7,2.1-2.9,2.8c-1.2,0.7-2.6,1-4.2,1C392.7,211.8,391.3,211.4,390.1,210.7z M396.9,208.6c0.8-0.5,1.4-1.1,1.9-1.9
			c0.4-0.8,0.7-1.8,0.7-2.9c0-1.1-0.2-2-0.7-2.9c-0.5-0.8-1.1-1.5-1.9-1.9c-0.8-0.4-1.7-0.7-2.7-0.7c-1,0-1.9,0.2-2.7,0.7
			c-0.8,0.5-1.4,1.1-1.9,1.9c-0.5,0.8-0.7,1.8-0.7,2.9c0,1.1,0.2,2,0.7,2.9c0.5,0.8,1.1,1.5,1.9,1.9c0.8,0.5,1.7,0.7,2.7,0.7
			C395.2,209.3,396.1,209.1,396.9,208.6z"/>
		<path class="st2" d="M428.8,189.8v21.8h-2.7v-2.5c-0.6,0.9-1.4,1.5-2.4,2c-1,0.5-2,0.7-3.2,0.7c-1.5,0-2.9-0.3-4-1
			c-1.2-0.7-2.1-1.6-2.8-2.8c-0.7-1.2-1-2.6-1-4.2c0-1.6,0.3-2.9,1-4.1c0.7-1.2,1.6-2.1,2.8-2.8c1.2-0.7,2.5-1,4-1
			c1.1,0,2.1,0.2,3.1,0.6c0.9,0.4,1.7,1,2.3,1.9v-8.6H428.8z M423.4,208.6c0.8-0.5,1.4-1.1,1.9-1.9c0.4-0.8,0.7-1.8,0.7-2.9
			c0-1.1-0.2-2-0.7-2.9c-0.5-0.8-1.1-1.5-1.9-1.9c-0.8-0.4-1.7-0.7-2.7-0.7c-1,0-1.9,0.2-2.7,0.7c-0.8,0.5-1.4,1.1-1.9,1.9
			c-0.5,0.8-0.7,1.8-0.7,2.9c0,1.1,0.2,2,0.7,2.9c0.5,0.8,1.1,1.5,1.9,1.9c0.8,0.5,1.7,0.7,2.7,0.7
			C421.7,209.3,422.6,209.1,423.4,208.6z"/>
		<path class="st2" d="M448.1,204.7h-12.6c0.2,1.4,0.8,2.5,1.8,3.3c1,0.8,2.3,1.2,3.8,1.2c1.9,0,3.4-0.6,4.5-1.9l1.6,1.8
			c-0.7,0.8-1.6,1.4-2.6,1.9s-2.2,0.6-3.5,0.6c-1.6,0-3.1-0.3-4.4-1c-1.3-0.7-2.3-1.6-2.9-2.8c-0.7-1.2-1-2.6-1-4.1
			c0-1.5,0.3-2.9,1-4.1c0.7-1.2,1.6-2.2,2.8-2.8c1.2-0.7,2.5-1,4-1c1.5,0,2.8,0.3,4,1c1.2,0.7,2.1,1.6,2.7,2.8c0.7,1.2,1,2.6,1,4.2
			C448.2,204.1,448.1,204.4,448.1,204.7z M437.1,199.5c-0.9,0.8-1.4,1.9-1.6,3.2h10c-0.2-1.3-0.7-2.4-1.6-3.2s-2-1.2-3.4-1.2
			C439.1,198.3,438,198.7,437.1,199.5z"/>
		<path class="st2" d="M460.4,191h8.7c2.2,0,4.1,0.4,5.8,1.3c1.7,0.9,3,2.1,3.9,3.6c0.9,1.6,1.4,3.3,1.4,5.4c0,2-0.5,3.8-1.4,5.4
			c-0.9,1.6-2.2,2.8-3.9,3.6s-3.6,1.3-5.8,1.3h-8.7V191z M468.9,209c1.7,0,3.1-0.3,4.4-1s2.2-1.6,2.9-2.7c0.7-1.2,1-2.5,1-4
			c0-1.5-0.3-2.9-1-4c-0.7-1.2-1.7-2.1-2.9-2.7s-2.7-1-4.4-1h-5.5V209H468.9z"/>
		<path class="st2" d="M484.6,191h2.9v20.5h-2.9V191z"/>
		<path class="st2" d="M495.8,209.5c-1.5-1.6-2.3-3.8-2.3-6.7V191h2.9v11.6c0,4.4,1.9,6.6,5.8,6.6c1.9,0,3.3-0.5,4.3-1.6
			c1-1.1,1.5-2.7,1.5-5V191h2.8v11.7c0,3-0.8,5.2-2.3,6.8s-3.7,2.3-6.4,2.3C499.5,211.8,497.3,211,495.8,209.5z"/>
	</g>
</g>
</svg>
