<?xml version="1.0" encoding="utf-8"?>
<!-- Generator: Adobe Illustrator 25.4.1, SVG Export Plug-In . SVG Version: 6.00 Build 0)  -->
<svg version="1.1" id="Capa_1" xmlns="http://www.w3.org/2000/svg" xmlns:xlink="http://www.w3.org/1999/xlink" x="0px" y="0px"
	 viewBox="0 0 372.7 410.3" style="enable-background:new 0 0 372.7 410.3;" xml:space="preserve">
<style type="text/css">
	.st0{fill:none;stroke:#3C246F;stroke-miterlimit:10;}
	.st1{enable-background:new    ;}
	.st2{fill:#3C246F;}
	.st3{fill:#ECECEC;}
	.st4{fill:#C5B2EB;}
	.st5{fill:#FFFFFF;}
</style>
<g>
	<g>
		<g>
			<path class="st0" d="M117.9,328.2c-2,27.8,23.5,51,48.8,44.5c0.3-0.1,0.7-0.2,1-0.3"/>
			<polyline class="st0" points="157.7,361.8 173.1,371.5 155.3,388.5 			"/>
		</g>
	</g>
	<g class="st1">
		<path class="st2" d="M187.4,364.6h5.3c1.3,0,2.5,0.3,3.6,0.8c1,0.5,1.8,1.3,2.4,2.2s0.9,2.1,0.9,3.3c0,1.2-0.3,2.3-0.9,3.3
			s-1.4,1.7-2.4,2.2c-1,0.5-2.2,0.8-3.6,0.8h-5.3V364.6z M192.6,375.7c1,0,1.9-0.2,2.7-0.6c0.8-0.4,1.4-1,1.8-1.7
			c0.4-0.7,0.6-1.5,0.6-2.5c0-0.9-0.2-1.8-0.6-2.5c-0.4-0.7-1-1.3-1.8-1.7c-0.8-0.4-1.7-0.6-2.7-0.6h-3.4v9.5H192.6z"/>
		<path class="st2" d="M202.4,364.6h1.8v12.7h-1.8V364.6z"/>
		<path class="st2" d="M209.3,376c-0.9-1-1.4-2.4-1.4-4.2v-7.2h1.8v7.1c0,2.7,1.2,4.1,3.6,4.1c1.2,0,2-0.3,2.7-1
			c0.6-0.7,0.9-1.7,0.9-3.1v-7.1h1.8v7.2c0,1.8-0.5,3.2-1.4,4.2c-0.9,1-2.3,1.4-4,1.4S210.2,377,209.3,376z"/>
	</g>
</g>
<g>
	<g>
		<g>
			<path class="st3" d="M240.1,66.9C214,63,197.5,85,197.5,85s1.3-27.5-21.3-41.1C153.7,30.2,33.4,16.3,34.1,44.2
				c0.7,28,35.9,7.2,35.9,7.2s11.6,3,18.4-4.6s83-1.4,93,26.6c0,0,3.7,6.8-1,20c-4.7,13.1-13,29.5-12.7,31.8
				c0.4,2.3,5.2,3.5,4.5,7.4c-0.7,3.8-7.9,25.1-10.1,24.1c-2.3-1.1-7.5-1-9.1,3.9c-1.5,4.9-48.6,134.7-48.6,134.7s0.4,3.5,4.5,5.6
				c-0.4,1.3-0.8,2.5-1.1,3.2c-0.1,0.2,0,0.3,0.2,0.4c-1.7,4.2-4.7,11-7.6,11.1c-4.1,0.2-5.2,0.5-7.2,4.1s-17.8,54.6-17.8,54.6
				s-5.8,20.1,8.6,25.3c14.4,5.2,22.7-14,22.7-14s20.4-49.3,21.1-53.3c0.7-4,0.1-5-2.9-7.8c-2.1-1.9-0.1-9.4,1.4-13.7l0,0
				c0,0,0,0,0.1,0c0.2,0,0.3-0.1,0.4-0.2c0.3-0.8,0.6-1.8,0.9-2.8c4.6,1.1,7.2-1.4,7.2-1.4s46.6-130,48.6-134.7
				c2-4.8-2.1-8.2-4.5-8.8s5.6-21.6,7.6-25c1.9-3.4,6.4-1.3,8.2-2.8c1.7-1.5,5.8-19.4,10.5-32.5s12-16,12-16
				c25.5-15.2,88.1,28.7,88.5,38.9s11.2,15.3,11.2,15.3s13.9,38.5,32.2,17.4C367.7,136.8,266.2,70.8,240.1,66.9z M98.1,375.9
				c-1.8,5.1-5.8,8.4-8.8,7.3s-3.9-6.1-2.1-11.2s5.8-8.4,8.8-7.3S99.9,370.8,98.1,375.9z"/>
			<g>
				<g>
					<path class="st4" d="M250.8,62.2c-25.7-6.1-44,14.4-44,14.4s3.6-27.3-17.7-42.8C167.8,18.4,49.2-5.7,47.5,22.2
						s35.1,10.2,35.1,10.2s11.3,4,18.7-3s82.8,5.7,90.4,34.4c0,0,3.2,7.1-2.7,19.8c-5.8,12.7-15.5,28.3-15.3,30.6
						c0.2,2.3,4.9,4,3.9,7.7c-1,3.8-10,24.4-12.1,23.1c-2.2-1.2-7.4-1.7-9.4,3.1S96.3,278.3,96.3,278.3s0,3.7,4.3,6.2
						c0,0-5.9,13.9-10,13.7c-4.1-0.2-5.2,0.1-7.5,3.5s-22.3,52.8-22.3,52.8s-7.5,19.6,6.4,26s23.9-12,23.9-12s24.5-47.4,25.6-51.3
						c1.1-4,0.5-4.9-2.3-8c-2.8-3,3.9-16.5,3.9-16.5c4.7,1.7,7.5-0.7,7.5-0.7s57.5-125.5,59.9-130.1c2.4-4.6-1.4-8.3-3.7-9.1
						s7.5-21.1,9.7-24.3s6.5-0.7,8.4-2.1s7.4-18.9,13.3-31.5c5.8-12.7,13.3-14.9,13.3-14.9c26.7-12.9,85.4,36.1,84.9,46.2
						c-0.5,10.2,9.9,16.2,9.9,16.2s10.5,39.5,30.6,20C372,142.7,276.5,68.4,250.8,62.2z M83.1,358.1c-2.3,4.9-6.4,7.8-9.3,6.5
						s-3.4-6.4-1.1-11.3s6.4-7.8,9.3-6.5C84.8,348.1,85.3,353.2,83.1,358.1z"/>
					<path class="st4" d="M250.8,62.2c-25.7-6.1-44,14.4-44,14.4s3.6-27.3-17.7-42.8C167.8,18.4,49.2-5.7,47.5,22.2
						s35.1,10.2,35.1,10.2s11.3,4,18.7-3s82.8,5.7,90.4,34.4c0,0,3.2,7.1-2.7,19.8c-5.8,12.7-15.5,28.3-15.3,30.6
						c0.2,2.3,4.9,4,3.9,7.7c-1,3.8-10,24.4-12.1,23.1c-2.2-1.2-7.4-1.7-9.4,3.1S96.3,278.3,96.3,278.3s0,3.7,4.3,6.2
						c0,0-5.9,13.9-10,13.7c-4.1-0.2-5.2,0.1-7.5,3.5s-22.3,52.8-22.3,52.8s-7.5,19.6,6.4,26s23.9-12,23.9-12s24.5-47.4,25.6-51.3
						c1.1-4,0.5-4.9-2.3-8c-2.8-3,3.9-16.5,3.9-16.5c4.7,1.7,7.5-0.7,7.5-0.7s57.5-125.5,59.9-130.1c2.4-4.6-1.4-8.3-3.7-9.1
						s7.5-21.1,9.7-24.3s6.5-0.7,8.4-2.1s7.4-18.9,13.3-31.5c5.8-12.7,13.3-14.9,13.3-14.9c26.7-12.9,85.4,36.1,84.9,46.2
						c-0.5,10.2,9.9,16.2,9.9,16.2s10.5,39.5,30.6,20C372,142.7,276.5,68.4,250.8,62.2z M83.1,358.1c-2.3,4.9-6.4,7.8-9.3,6.5
						s-3.4-6.4-1.1-11.3s6.4-7.8,9.3-6.5C84.8,348.1,85.3,353.2,83.1,358.1z"/>
				</g>
				<g>
					<path class="st5" d="M198,124.4c-6.7-5.1-14.6-8.7-22.9-10.5c-0.2,0-0.4,0.1-0.4,0.3c0,0.2,0.1,0.4,0.3,0.4l0,0
						c8.2,1.7,16,5.3,22.6,10.4l0.1,0.1c0.1,0,0.3,0,0.3-0.1C198.1,124.7,198.1,124.5,198,124.4z"/>
					<path class="st5" d="M166.6,145.7L166.6,145.7c-0.2,0-0.4,0.1-0.4,0.2c-0.1,0.2,0,0.4,0.2,0.4c4.6,1.4,9.8,3,13.8,6.4l0.1,0.1
						c0.1,0,0.3,0,0.3-0.1c0.1-0.1,0.1-0.4,0-0.5C176.6,148.8,171.3,147.1,166.6,145.7z"/>
					<path class="st5" d="M116.2,282.4c-1.8-1.1-3.9-2-6.7-3c-1.9-0.7-4.2-1.4-6.5-1.8c-1.9-0.2-3.8-0.2-5.7,0.2
						c-0.2,0-0.3,0.2-0.3,0.4c0,0.2,0.2,0.3,0.4,0.3c1.7-0.3,3.4-0.3,5.1-0.2c-0.7,2.1-2.8,7.3-3.6,9.1c-0.1,0.2,0,0.4,0.2,0.5
						c0,0,0,0,0.1,0c0.2,0,0.3,0,0.4-0.2c0.9-1.8,3.1-7.3,3.7-9.3c2.2,0.3,4.3,1,6,1.7c2.7,1,4.8,1.9,6.5,3c1.7,1,3.3,2.3,4.7,3.6
						c-1,1.6-2.9,6-3.9,8.5c-0.1,0.2,0,0.4,0.2,0.4c0,0,0,0,0.1,0c0.2,0,0.3,0,0.4-0.2c1-2.4,2.8-6.5,3.8-8.2c1,1.1,2,2.2,2.8,3.4
						c0.1,0.1,0.1,0.1,0.2,0.1s0.2,0,0.3-0.1c0.2-0.1,0.2-0.3,0.1-0.5C122.3,287,119.4,284.3,116.2,282.4z"/>
				</g>
			</g>
		</g>
	</g>
</g>
</svg>
