<?xml version="1.0" encoding="utf-8"?>
<!-- Generator: Adobe Illustrator 25.4.1, SVG Export Plug-In . SVG Version: 6.00 Build 0)  -->
<svg version="1.1" id="Capa_1" xmlns="http://www.w3.org/2000/svg" xmlns:xlink="http://www.w3.org/1999/xlink" x="0px" y="0px"
	 viewBox="0 0 862.7 202.2" style="enable-background:new 0 0 862.7 202.2;" xml:space="preserve">
<style type="text/css">
	.st0{opacity:0.7;fill:#DFEB6A;enable-background:new    ;}
	.st1{enable-background:new    ;}
	.st2{fill:#3C246F;}
</style>
<g>
	<g>
		<path class="st0" d="M177.7,65.6C160.8,61,47.6,72.2,40.3,71.2c-6.8-1.7,2-37.9,8-43.5c2.1-2,4.7-2.5,10.6-1.9
			c6.2,0.7,71.3-3.7,129.5-7.5c0,0,192.1-7.9,221.6-8.9c10.1-0.3,2.1,2,14,1c25.3-2.2,80.5-1,99.6-3.1c15.3-1.7,18.6-1.7,33.4-0.5
			c12.8,1,95-0.2,104.3-2.7c2.3-0.6,3.9-0.4,3.9,0.4c0,0,40.3,1,54.2,1.7c1.6,0.1,2.5,0.2,2.5,0.3c0.4,0.8,2.1,1.2,3.7,0.7
			c2.9-0.9,63-2.8,64-0.4c2.7,6.7-6,34.5-13,41.3c-7.3,7.1-45.6-1.7-77.6,2.3c-165.4-1.1-145.8-0.2-177.4,2.7
			c-3.6-2.4-17.3,3.6-25.7-0.5c-3.5-1.7-28.4-1.6-33.9,0.2c-4,1.3-130.9,0-145,5.5C291,54.6,190.6,64.6,177.7,65.6z"/>
		<path class="st0" d="M202,99.2c-16.5-5-137.5,0.6-146.4-0.9c-7.2-2,4.3-37.7,11-43c2.4-1.9,5.1-2.2,11.3-1.3
			c9.8,1.6,137.4-1.6,137.4-1.6c1.7,1.1,6.7-2.6,7.7-1.3c2.9,3.1,209.6-1.1,227.2-1.3c10.7-0.1,2.2,2,14.8,1.2
			c26.8-1.7,85.2-0.1,105.5-2c16.3-1.6,19.8-1.7,35.4-0.4c15.9,1.2,100.7-0.5,110.4-3c2.4-0.7,4.2-0.4,4.2,0.4
			c0,0.2,59.7,0.7,60,1.4c0.5,0.8,2.3,1.2,4,0.6c3.1-0.8,66.7-3.8,67.7-1.5c3.1,6.6-5.6,34.7-13,41.6c-7.5,7.3-49.1-0.9-82.4,3.5
			L601.4,92L568,94.7c-3.8-2.4-18.5,3.6-27.3-0.6c-3.7-1.7-30.2-1.9-36-0.2c-5.1,1.4-140.4-2.1-154.3,2.7
			C325.6,92.6,225.3,98.3,202,99.2z"/>
		<path class="st0" d="M190.8,131.8c-16.3-5.5-136.9-3.3-145.7-5c-7.1-2.2,5.3-37.6,12.1-42.7c2.4-1.8,5.1-2,11.3-1
			c9.8,1.9,136.8,2.3,136.8,2.3c1.7,1.2,6.8-2.4,7.7-1.1c2.8,3.2,208.7,4.8,226.2,5.1c10.6,0.2,2.2,2.1,14.7,1.6
			c26.7-1,84.8,2.3,105.1,0.9c16.2-1.2,19.7-1.1,35.2,0.6c15.8,1.6,100.3,2.3,110,0.1c2.4-0.6,4.2-0.3,4.2,0.5
			c0,0.2,59.4,2.4,59.7,3c0.4,0.8,2.2,1.2,3.9,0.7c3.1-0.7,66.5-2,67.5,0.4c2.9,6.7-6.6,34.5-14.1,41.2c-7.7,7.1-48.8-2.3-82.2,1.2
			l-154.7-3.9l-33.2,1.8c-3.7-2.5-18.5,3.1-27.2-1.4c-3.7-1.8-30-2.8-35.9-1.2c-5.1,1.2-139.7-6-153.7-1.7
			C314,128.6,214,131.5,190.8,131.8z"/>
		<path class="st0" d="M162.8,163.9c-17.6-5-135.5,3.6-143,2.4c-7.1-1.8,3-37.8,9.4-43.3c2.3-1.9,4.9-2.4,11-1.6s66.1-1.8,134.8-4.5
			c0,0,177.3-3,230.6-3.3c10.5-0.1,2.2,2,14.5,1.3c26.3-1.5,83.6,1.1,103.6-0.4c16-1.2,19.4-1.2,34.7,0.4c13,1.4,98.7,2.6,108.4,0.3
			c2.4-0.6,4.1-0.3,4.1,0.5c1.6,0.1,7.6,0.4,9.2,0.5c0.6,0,49.4,2.6,49.7,3.1c0.4,0.8,2.2,1.2,3.9,0.8c3.1-0.8,65.6-0.8,66.5,1.5
			c2.6,6.8-7.3,34.3-14.7,40.9c-7.8,6.8-47.3-3.1-80.7-0.1c0,0-9.5-0.3-23.7-0.8c-142.6-5-131.9-3.4-160.6-1.6
			c-3.7-2.5-18.1,3.1-26.7-1.2c-3.6-1.8-29.5-2.4-35.2-0.7c-4.1,1.2-136.4-3.5-150.8,1.7C280.3,155.6,173.8,163.3,162.8,163.9z"/>
		<path class="st0" d="M160.8,193.1c-16-5.3-133.5-1.6-142.1-3.2c-6.9-2.1,4.8-37.7,11.3-42.8c2.3-1.8,4.9-2.1,11-1.1
			c9.5,1.8,133.4,0.6,133.4,0.6c1.6,1.1,6.6-2.5,7.5-1.2c2.8,3.2,203.5,2.2,220.6,2.3c10.4,0.1,2.1,2.1,14.4,1.4
			c26.1-1.3,82.7,1.3,102.5-0.4c15.8-1.4,19.2-1.4,34.3,0.2c15.5,1.4,97.8,1.1,107.2-1.3c2.3-0.7,4.1-0.4,4.1,0.4
			c0,0.2,58,1.7,58.2,2.3c0.4,0.8,2.2,1.2,3.8,0.7c3-0.8,64.8-2.8,65.8-0.4c2.9,6.7-6,34.6-13.3,41.3c-7.4,7.2-47.6-1.7-80.1,2.2
			l-150.8-2l-32.4,2.2c-3.7-2.4-18,3.3-26.5-1.1c-3.6-1.7-29.3-2.4-35-0.7c-5,1.3-136.3-4.3-149.8,0.2
			C280.9,188.4,183.4,192.5,160.8,193.1z"/>
	</g>
	<g class="st1">
		<path class="st2" d="M93.8,66.5c0,1.2-0.4,2.1-1.2,2.9c-0.8,0.7-1.8,1.1-2.9,1.1c-1.3,0-2.3-0.4-3-1.1c-0.7-0.7-1.1-1.7-1.1-2.9
			c0-1.2,0.4-2.2,1.2-2.9c0.8-0.7,1.8-1.1,2.9-1.1c1.3,0,2.3,0.4,3,1.1C93.5,64.3,93.8,65.2,93.8,66.5z M92.4,74.1l1.2,20.2h-7.9
			l1.2-19.9L92.4,74.1z"/>
		<path class="st2" d="M117,77.6h4.6l-0.1,8.8H98v-3.8l3.9-1.3l-1,1.5V58.9l0.9,1.5L98,59.1v-3.8l10.5-0.2H121v8.5h-4.6l-0.9-4
			l1.4,1h-9.3l1.2-1.2V69l-1.2-1.2h9.9v5.3h-9.9l1.2-1.4V82l-1.2-1.2h9.9L116,82L117,77.6z"/>
		<path class="st2" d="M131.7,68.7c0,0.6,0.3,1.1,0.9,1.4c0.6,0.4,1.4,0.7,2.3,0.9s1.9,0.6,3,0.9c1.1,0.3,2.1,0.7,3,1.3
			s1.7,1.2,2.3,2.1c0.6,0.9,0.9,2,0.9,3.3c0,1.9-0.5,3.5-1.5,4.7c-1,1.2-2.4,2.1-4.1,2.7c-1.7,0.6-3.7,0.9-5.8,0.9
			c-1.3,0-2.7-0.1-4.1-0.3s-2.9-0.5-4.3-0.9l0.3-7h4.7l0.6,3.7l-0.6-1c0.6,0.2,1.2,0.4,1.9,0.4c0.7,0.1,1.3,0.1,1.8,0.1
			c0.6,0,1.2-0.1,1.8-0.2c0.6-0.1,1.1-0.3,1.4-0.6c0.4-0.3,0.5-0.7,0.5-1.2c0-0.6-0.3-1.1-0.9-1.5c-0.6-0.4-1.3-0.7-2.3-0.9
			s-1.9-0.6-2.9-0.9c-1-0.3-2-0.7-2.9-1.3c-0.9-0.5-1.7-1.3-2.3-2.2c-0.6-0.9-0.9-2.1-0.9-3.6c0-1.8,0.4-3.3,1.3-4.5
			c0.9-1.1,2.1-2,3.7-2.5c1.6-0.5,3.3-0.8,5.2-0.8c1.3,0,2.7,0.1,4.1,0.3c1.4,0.2,2.9,0.5,4.5,1l-0.3,6.4H138l-0.8-3.4l1,1.1
			c-1.3-0.3-2.5-0.4-3.5-0.4c-0.9,0-1.7,0.2-2.2,0.5C132,67.7,131.7,68.1,131.7,68.7z"/>
		<path class="st2" d="M164.7,87c-2.2,0-4.2-0.5-5.8-1.4s-3-2.2-3.9-4c-0.9-1.8-1.4-4-1.4-6.6c0-2.7,0.5-5,1.5-7
			c1-1.9,2.4-3.4,4.2-4.4c1.8-1,3.9-1.5,6.4-1.5c2.4,0,4.3,0.5,5.8,1.4c1.5,0.9,2.6,2.2,3.3,3.8c0.7,1.6,1,3.4,1,5.4
			c0,0.6,0,1.1-0.1,1.7c0,0.6-0.1,1.2-0.3,1.8h-15.7V72h9.4l-1.1,0.8c0-1.2,0-2.1-0.2-2.9c-0.2-0.8-0.5-1.4-1-1.9
			c-0.5-0.4-1.1-0.6-1.9-0.6c-1,0-1.7,0.3-2.3,0.9c-0.5,0.6-0.9,1.4-1.1,2.4c-0.2,1-0.3,2-0.3,3.2c0,1.4,0.1,2.7,0.4,3.9
			c0.3,1.2,0.8,2.1,1.6,2.8c0.8,0.7,1.8,1,3.2,1c0.9,0,1.9-0.2,3-0.5s2.3-0.8,3.5-1.5l2.5,3.9c-1.8,1.2-3.6,2.1-5.4,2.7
			C168.3,86.7,166.5,87,164.7,87z"/>
		<path class="st2" d="M187.7,82.1l-0.5-0.6l3.2,1.1v3.8h-12.9v-3.8l3.2-1.1l-0.5,0.6V56.5l0.4,0.4l-3.1-1v-3.8l10.2-0.4V82.1z"/>
		<path class="st2" d="M208.4,87c-2,0-3.6-0.6-5-1.9c-1.4-1.3-2-3.3-2-5.9V66.7l0.7,1l-3.4-1.2v-3.8l10.2-0.4v15.5
			c0,1.2,0.3,2,0.8,2.6c0.5,0.6,1.2,0.8,2.1,0.8c0.6,0,1.4-0.2,2.1-0.5c0.8-0.3,1.6-0.9,2.4-1.6l-0.4,1.2V66.5l0.6,1.2l-3.3-1.2
			v-3.8l10.2-0.4v20.2l-0.9-1.2l3.5,1.3v3.8l-8.5,0.4l-1-4.3l1,0.3c-1.4,1.4-3,2.5-4.5,3.2C211.4,86.6,209.9,87,208.4,87z
			 M208.8,59.8l-2.5-3.6l9.7-7.6l3.7,5L208.8,59.8z"/>
		<path class="st2" d="M227.7,86.4v-3.8l3.6-1.2l-0.9,1.1V66.6l0.9,1.2l-3.6-1.2v-3.8l8.5-0.4l0.9,4.2l-0.9-0.3
			c1.4-1.4,2.9-2.5,4.5-3.2c1.6-0.7,3.1-1,4.6-1c2,0,3.6,0.6,5,1.9c1.4,1.3,2,3.2,2,5.8v12.7l-0.6-1l3.3,1.2v3.8h-10.2V71.3
			c0-1.2-0.3-2.1-0.8-2.7s-1.2-0.9-2.1-0.9c-0.7,0-1.4,0.2-2.2,0.5c-0.8,0.4-1.6,0.9-2.3,1.5l0.5-1v13.8l-0.7-1.1l3,1.1v3.8H227.7z"
			/>
		<path class="st2" d="M266.7,82.1l-0.5-0.6l3.2,1.1v3.8h-12.9v-3.8l3.2-1.1l-0.5,0.6V67.2l0.4,0.4l-3.1-1.1v-3.8l10.2-0.4V82.1z
			 M262.8,59.6c-1.3,0-2.3-0.4-3.1-1.1c-0.8-0.7-1.2-1.8-1.2-3.1c0-1.4,0.4-2.5,1.2-3.2c0.8-0.7,1.8-1,3.1-1c1.2,0,2.2,0.3,3,1
			c0.8,0.7,1.2,1.7,1.2,3.2c0,1.4-0.4,2.4-1.2,3.1C265,59.3,264,59.6,262.8,59.6z"/>
		<path class="st2" d="M282,87c-2.1,0-4-0.5-5.7-1.4c-1.7-1-3-2.4-4-4.2s-1.5-4.1-1.5-6.7c0-2.4,0.4-4.4,1.1-6
			c0.7-1.6,1.7-2.9,2.9-3.9c1.2-1,2.5-1.7,4-2.1c1.5-0.4,2.9-0.6,4.5-0.6c1.6,0,3.1,0.2,4.6,0.6s2.7,0.7,3.5,1.1l-0.2,7h-4.7
			l-0.7-3.4l0.6,0.4c-0.3-0.1-0.8-0.2-1.3-0.3c-0.5-0.1-1-0.1-1.6-0.1c-1.2,0-2.1,0.3-2.8,0.9c-0.7,0.6-1.2,1.4-1.5,2.4
			c-0.3,1-0.5,2.3-0.5,3.7c0,1.6,0.2,2.9,0.6,4c0.4,1.1,1,1.9,1.8,2.4c0.8,0.5,1.7,0.8,2.7,0.8c0.9,0,1.8-0.2,2.9-0.5
			c1-0.4,2.1-0.9,3.3-1.6l2.4,3.8c-1.7,1.3-3.4,2.3-5.1,2.9S283.7,87,282,87z"/>
		<path class="st2" d="M305.2,62c3.7,0,6.5,1,8.5,3.1s3,5.1,3,8.9c0,2.7-0.5,5-1.5,6.9c-1,1.9-2.4,3.4-4.2,4.4c-1.8,1-4,1.6-6.6,1.6
			c-3.6,0-6.4-1-8.4-3.1c-2-2.1-2.9-5.1-2.9-8.9c0-2.7,0.5-5,1.4-7c1-1.9,2.3-3.4,4.2-4.4C300.5,62.5,302.7,62,305.2,62z
			 M304.9,67.3c-1.4,0-2.4,0.6-3.1,1.7s-0.9,3-0.9,5.6s0.3,4.4,0.9,5.5c0.6,1.1,1.6,1.6,2.9,1.6c1,0,1.8-0.3,2.3-0.8
			c0.6-0.5,1-1.3,1.3-2.4c0.3-1.1,0.4-2.5,0.4-4.1c0-2.5-0.3-4.4-0.9-5.4S306.3,67.3,304.9,67.3z"/>
		<path class="st2" d="M349.8,65.9l-1,0.4c1.4-1.4,2.9-2.5,4.5-3.2c1.6-0.7,3.1-1.1,4.5-1.1c1.9,0,3.5,0.6,4.8,1.9
			c1.3,1.2,1.9,3.1,1.9,5.7v12.8l-0.7-1l3.3,1.2v3.8H357V71.3c0-1.2-0.2-2.1-0.7-2.7c-0.5-0.6-1.1-0.9-1.9-0.9
			c-0.6,0-1.3,0.2-2.1,0.6c-0.8,0.4-1.6,0.9-2.4,1.7l0.5-1.6c0,0.2,0,0.4,0,0.6s0,0.3,0,0.4v13.1l-0.6-1l3.3,1.2v3.8H343V71.3
			c0-1.2-0.2-2.1-0.7-2.7s-1.1-0.9-1.9-0.9c-0.6,0-1.3,0.2-2.1,0.5s-1.5,0.9-2.3,1.5l0.5-1v13.8l-0.7-1.1l3.4,1.1v3.8h-12.9v-3.8
			l3.6-1.2l-0.9,1.1V66.6l0.9,1.2l-3.6-1.2v-3.8l8.5-0.4l0.9,4.2l-0.9-0.3c1.4-1.4,2.8-2.4,4.4-3.1c1.6-0.7,3.1-1.1,4.5-1.1
			c1.3,0,2.5,0.3,3.6,1C348.5,63.6,349.3,64.6,349.8,65.9z"/>
		<path class="st2" d="M379.6,87c-2.2,0-4.2-0.5-5.8-1.4s-3-2.2-3.9-4c-0.9-1.8-1.4-4-1.4-6.6c0-2.7,0.5-5,1.5-7
			c1-1.9,2.4-3.4,4.2-4.4c1.8-1,3.9-1.5,6.4-1.5c2.4,0,4.3,0.5,5.8,1.4c1.5,0.9,2.6,2.2,3.3,3.8c0.7,1.6,1,3.4,1,5.4
			c0,0.6,0,1.1-0.1,1.7c0,0.6-0.1,1.2-0.3,1.8h-15.7V72h9.4l-1.1,0.8c0-1.2,0-2.1-0.2-2.9c-0.2-0.8-0.5-1.4-1-1.9
			c-0.5-0.4-1.1-0.6-1.9-0.6c-1,0-1.7,0.3-2.3,0.9c-0.5,0.6-0.9,1.4-1.1,2.4c-0.2,1-0.3,2-0.3,3.2c0,1.4,0.1,2.7,0.4,3.9
			c0.3,1.2,0.8,2.1,1.6,2.8c0.8,0.7,1.8,1,3.2,1c0.9,0,1.9-0.2,3-0.5s2.3-0.8,3.5-1.5l2.5,3.9c-1.8,1.2-3.6,2.1-5.4,2.7
			C383.2,86.7,381.4,87,379.6,87z M376.7,59.8l-2.5-3.6l9.7-7.6l3.7,5L376.7,59.8z"/>
		<path class="st2" d="M402,87c-2.2,0-3.9-0.7-5.1-2s-1.7-3.3-1.7-6V66.6l0.9,0.9H392v-3.9l4.2-1.3l-1,1.3v-6.2l7.5-1.4v7.5l-0.8-1
			h6.7l-0.1,4.9H402l0.8-0.9v11.3c0,1.2,0.2,2.1,0.6,2.7c0.4,0.6,1,0.8,1.8,0.8c0.4,0,0.9-0.1,1.5-0.2c0.5-0.1,1.2-0.3,1.8-0.6
			l1.4,4C407.1,86.2,404.5,87,402,87z"/>
		<path class="st2" d="M422.5,62c3.7,0,6.5,1,8.5,3.1c2,2.1,3,5.1,3,8.9c0,2.7-0.5,5-1.5,6.9c-1,1.9-2.4,3.4-4.2,4.4
			c-1.8,1-4,1.6-6.6,1.6c-3.6,0-6.4-1-8.4-3.1c-2-2.1-2.9-5.1-2.9-8.9c0-2.7,0.5-5,1.4-7c1-1.9,2.3-3.4,4.2-4.4
			C417.7,62.5,419.9,62,422.5,62z M422.1,67.3c-1.4,0-2.4,0.6-3.1,1.7s-0.9,3-0.9,5.6s0.3,4.4,0.9,5.5c0.6,1.1,1.6,1.6,2.9,1.6
			c1,0,1.8-0.3,2.3-0.8c0.6-0.5,1-1.3,1.3-2.4c0.3-1.1,0.4-2.5,0.4-4.1c0-2.5-0.3-4.4-0.9-5.4S423.5,67.3,422.1,67.3z"/>
		<path class="st2" d="M444.7,87c-1.7,0-3.2-0.5-4.5-1.4c-1.3-0.9-2.3-2.2-3.1-4c-0.8-1.8-1.1-3.9-1.1-6.5c0-4.5,1.1-7.8,3.4-9.9
			c2.3-2.1,5.5-3.2,9.7-3.2c0.5,0,1.1,0,1.7,0c0.6,0,1.2,0.1,1.8,0.2l-1.3,0.8v-6.5l0.5,0.7l-3.4-1.3v-3.8l10.4-0.4v30.5l-0.8-1
			l3.5,1.3v3.8l-8.5,0.4l-1-3.9l0.8,0.2c-1.3,1.3-2.6,2.2-3.9,2.9C447.5,86.6,446.2,87,444.7,87z M447.7,81.5c0.6,0,1.3-0.2,2.1-0.6
			s1.5-0.9,2.3-1.6l-0.8,2.2V66l0.9,1.7c-1.2-0.3-2.3-0.5-3.2-0.5c-1.8,0-3.1,0.6-3.9,1.9c-0.8,1.3-1.2,3-1.2,5.2
			c0,1.4,0.1,2.7,0.4,3.8c0.3,1.1,0.7,1.9,1.3,2.5C446.2,81.2,446.9,81.5,447.7,81.5z"/>
		<path class="st2" d="M475,62c3.7,0,6.5,1,8.5,3.1s3,5.1,3,8.9c0,2.7-0.5,5-1.5,6.9c-1,1.9-2.4,3.4-4.2,4.4s-4,1.6-6.6,1.6
			c-3.6,0-6.4-1-8.4-3.1c-2-2.1-2.9-5.1-2.9-8.9c0-2.7,0.5-5,1.4-7s2.3-3.4,4.2-4.4C470.3,62.5,472.4,62,475,62z M474.7,67.3
			c-1.4,0-2.4,0.6-3.1,1.7s-0.9,3-0.9,5.6s0.3,4.4,0.9,5.5c0.6,1.1,1.6,1.6,2.9,1.6c1,0,1.8-0.3,2.3-0.8c0.6-0.5,1-1.3,1.3-2.4
			c0.3-1.1,0.4-2.5,0.4-4.1c0-2.5-0.3-4.4-0.9-5.4S476.1,67.3,474.7,67.3z"/>
		<path class="st2" d="M507.9,96.6v-4l4.1-1.4l-0.8,1.2v-8.8l1.5-0.5c-1.3,1.3-2.6,2.3-3.9,2.9c-1.3,0.6-2.6,1-4.1,1
			c-1.7,0-3.2-0.5-4.5-1.4c-1.3-0.9-2.3-2.2-3.1-4c-0.8-1.8-1.1-4-1.1-6.5c0-3.3,0.6-5.9,1.7-7.8c1.2-1.9,2.8-3.3,4.8-4.1
			c2.1-0.8,4.5-1.2,7.2-1.2c1.4,0,2.8,0.1,4.3,0.2c1.5,0.2,3.1,0.4,4.7,0.7v29.5l-0.8-1.2l3.5,1.4v4H507.9z M507.8,81.5
			c0.6,0,1.3-0.2,2.1-0.6s1.5-0.9,2.3-1.6l-0.8,2.2V66l0.9,1.7c-1.2-0.3-2.3-0.5-3.2-0.5c-1.8,0-3.1,0.6-3.9,1.9
			c-0.8,1.3-1.2,3-1.2,5.2c0,1.4,0.1,2.7,0.4,3.8c0.3,1.1,0.7,1.9,1.3,2.5C506.2,81.2,506.9,81.5,507.8,81.5z"/>
		<path class="st2" d="M531.3,87c-2,0-3.6-0.6-5-1.9c-1.4-1.3-2-3.3-2-5.9V66.7l0.7,1l-3.4-1.2v-3.8l10.2-0.4v15.5
			c0,1.2,0.3,2,0.8,2.6c0.5,0.6,1.2,0.8,2.1,0.8c0.6,0,1.4-0.2,2.1-0.5c0.8-0.3,1.6-0.9,2.4-1.6l-0.4,1.2V66.5l0.6,1.2l-3.3-1.2
			v-3.8l10.2-0.4v20.2l-0.9-1.2l3.5,1.3v3.8l-8.5,0.4l-1-4.3l1,0.3c-1.4,1.4-3,2.5-4.5,3.2C534.3,86.6,532.8,87,531.3,87z"/>
		<path class="st2" d="M561.7,87c-2.2,0-4.2-0.5-5.8-1.4c-1.7-0.9-3-2.2-3.9-4c-0.9-1.8-1.4-4-1.4-6.6c0-2.7,0.5-5,1.5-7
			c1-1.9,2.4-3.4,4.2-4.4c1.8-1,3.9-1.5,6.4-1.5c2.4,0,4.3,0.5,5.8,1.4s2.6,2.2,3.3,3.8c0.7,1.6,1,3.4,1,5.4c0,0.6,0,1.1-0.1,1.7
			c0,0.6-0.1,1.2-0.3,1.8h-15.7V72h9.4l-1.1,0.8c0-1.2,0-2.1-0.2-2.9c-0.2-0.8-0.5-1.4-1-1.9c-0.5-0.4-1.1-0.6-1.9-0.6
			c-1,0-1.7,0.3-2.3,0.9c-0.5,0.6-0.9,1.4-1.1,2.4c-0.2,1-0.3,2-0.3,3.2c0,1.4,0.1,2.7,0.4,3.9c0.3,1.2,0.8,2.1,1.6,2.8
			c0.8,0.7,1.8,1,3.2,1c0.9,0,1.9-0.2,3-0.5s2.3-0.8,3.5-1.5l2.5,3.9c-1.8,1.2-3.6,2.1-5.4,2.7C565.2,86.7,563.4,87,561.7,87z"/>
		<path class="st2" d="M582.2,96.6v-3.8l3.6-1.4l-0.9,1.2V66.8l0.8,1l-3.5-1.2v-3.8l8.5-0.4l0.8,3.9l-0.8-0.4c1.4-1.2,2.7-2.2,4-2.8
			c1.3-0.6,2.7-1,4.1-1c1.7,0,3.3,0.5,4.6,1.4c1.3,0.9,2.3,2.2,3.1,4s1.1,3.9,1.1,6.5c0,2.9-0.5,5.4-1.5,7.3c-1,1.9-2.4,3.4-4.2,4.4
			c-1.8,1-3.9,1.5-6.2,1.5c-0.7,0-1.4-0.1-2.1-0.2c-0.7-0.1-1.4-0.2-2.1-0.4l0.9-0.8v6.9l-0.7-1.1l3.9,1.2v3.8H582.2z M594.7,81.7
			c1.9,0,3.2-0.6,3.9-1.9c0.8-1.3,1.2-3,1.2-5.2c0-1.4-0.2-2.7-0.5-3.8c-0.3-1.1-0.7-1.9-1.3-2.5c-0.6-0.6-1.3-0.9-2.1-0.9
			c-0.7,0-1.4,0.2-2.1,0.6s-1.5,0.9-2.3,1.6l0.9-1.9v14.9l-0.9-1.4C592.7,81.5,593.8,81.7,594.7,81.7z"/>
		<path class="st2" d="M609.8,86.4v-3.8l3.4-1.1l-0.7,1.1V66.6l0.8,1.2l-3.5-1.2v-3.8l8.5-0.4l0.9,4.1l-0.9-0.2
			c1.4-1.4,2.7-2.4,4-3.2s2.7-1.1,4.1-1.1c0.9,0,2,0.1,3.1,0.4l-0.4,9h-4.3l-0.7-4.9l0.7,1.4c-0.1-0.1-0.3-0.1-0.5-0.1
			c-0.2,0-0.3,0-0.5,0c-0.8,0-1.6,0.3-2.4,0.8c-0.8,0.5-1.4,1.1-1.9,1.8l0.6-1.9v14l-0.8-1.1l4.3,1.1v3.8H609.8z"/>
		<path class="st2" d="M641.7,87c-2.2,0-4.2-0.5-5.8-1.4s-3-2.2-3.9-4s-1.4-4-1.4-6.6c0-2.7,0.5-5,1.5-7c1-1.9,2.4-3.4,4.2-4.4
			c1.8-1,3.9-1.5,6.4-1.5c2.4,0,4.3,0.5,5.8,1.4s2.6,2.2,3.3,3.8c0.7,1.6,1,3.4,1,5.4c0,0.6,0,1.1-0.1,1.7c0,0.6-0.1,1.2-0.3,1.8
			h-15.7V72h9.4l-1.1,0.8c0-1.2,0-2.1-0.2-2.9c-0.2-0.8-0.5-1.4-1-1.9c-0.5-0.4-1.1-0.6-1.9-0.6c-1,0-1.7,0.3-2.3,0.9
			c-0.5,0.6-0.9,1.4-1.1,2.4s-0.3,2-0.3,3.2c0,1.4,0.1,2.7,0.4,3.9c0.3,1.2,0.8,2.1,1.6,2.8c0.8,0.7,1.8,1,3.2,1
			c0.9,0,1.9-0.2,3-0.5s2.3-0.8,3.5-1.5l2.5,3.9c-1.8,1.2-3.6,2.1-5.4,2.7C645.2,86.7,643.4,87,641.7,87z"/>
		<path class="st2" d="M667.5,62.8l10.4-0.4v3.8l-2.2,1.2l0.9-1.1l-7.1,20.1h-8.8l-6.1-19.9l1,0.8l-2.5-0.8v-3.8l11.4-0.4v3.8
			l-2.8,1.1l0.5-0.9l3.8,15.4h-0.6l4.3-15l0.4,0.5l-2.7-0.7V62.8z"/>
		<path class="st2" d="M689.1,82.1l-0.5-0.6l3.2,1.1v3.8h-12.9v-3.8l3.2-1.1l-0.5,0.6V67.2l0.4,0.4l-3.1-1.1v-3.8l10.2-0.4V82.1z
			 M685.2,59.6c-1.3,0-2.3-0.4-3.1-1.1c-0.8-0.7-1.2-1.8-1.2-3.1c0-1.4,0.4-2.5,1.2-3.2c0.8-0.7,1.8-1,3.1-1c1.2,0,2.2,0.3,3,1
			c0.8,0.7,1.2,1.7,1.2,3.2c0,1.4-0.4,2.4-1.2,3.1C687.4,59.3,686.4,59.6,685.2,59.6z"/>
		<path class="st2" d="M704.4,87c-2.2,0-4.2-0.5-5.8-1.4s-3-2.2-3.9-4s-1.4-4-1.4-6.6c0-2.7,0.5-5,1.5-7c1-1.9,2.4-3.4,4.2-4.4
			c1.8-1,3.9-1.5,6.4-1.5c2.4,0,4.3,0.5,5.8,1.4s2.6,2.2,3.3,3.8c0.7,1.6,1,3.4,1,5.4c0,0.6,0,1.1-0.1,1.7c0,0.6-0.1,1.2-0.3,1.8
			h-15.7V72h9.4l-1.1,0.8c0-1.2,0-2.1-0.2-2.9c-0.2-0.8-0.5-1.4-1-1.9c-0.5-0.4-1.1-0.6-1.9-0.6c-1,0-1.7,0.3-2.3,0.9
			c-0.5,0.6-0.9,1.4-1.1,2.4s-0.3,2-0.3,3.2c0,1.4,0.1,2.7,0.4,3.9c0.3,1.2,0.8,2.1,1.6,2.8c0.8,0.7,1.8,1,3.2,1
			c0.9,0,1.9-0.2,3-0.5s2.3-0.8,3.5-1.5l2.5,3.9c-1.8,1.2-3.6,2.1-5.4,2.7C708,86.7,706.2,87,704.4,87z"/>
		<path class="st2" d="M717.7,86.4v-3.8l3.6-1.2l-0.9,1.1V66.6l0.9,1.2l-3.6-1.2v-3.8l8.5-0.4l0.9,4.2l-0.9-0.3
			c1.4-1.4,2.9-2.5,4.5-3.2c1.6-0.7,3.1-1,4.6-1c2,0,3.6,0.6,5,1.9c1.4,1.3,2,3.2,2,5.8v12.7l-0.6-1l3.3,1.2v3.8h-10.2V71.3
			c0-1.2-0.3-2.1-0.8-2.7c-0.5-0.6-1.2-0.9-2.1-0.9c-0.7,0-1.4,0.2-2.2,0.5s-1.6,0.9-2.3,1.5l0.5-1v13.8l-0.7-1.1l3,1.1v3.8H717.7z"
			/>
		<path class="st2" d="M757.5,87c-2.2,0-4.2-0.5-5.8-1.4s-3-2.2-3.9-4s-1.4-4-1.4-6.6c0-2.7,0.5-5,1.5-7c1-1.9,2.4-3.4,4.2-4.4
			c1.8-1,3.9-1.5,6.4-1.5c2.4,0,4.3,0.5,5.8,1.4s2.6,2.2,3.3,3.8c0.7,1.6,1,3.4,1,5.4c0,0.6,0,1.1-0.1,1.7c0,0.6-0.1,1.2-0.3,1.8
			h-15.7V72h9.4l-1.1,0.8c0-1.2,0-2.1-0.2-2.9c-0.2-0.8-0.5-1.4-1-1.9c-0.5-0.4-1.1-0.6-1.9-0.6c-1,0-1.7,0.3-2.3,0.9
			c-0.5,0.6-0.9,1.4-1.1,2.4s-0.3,2-0.3,3.2c0,1.4,0.1,2.7,0.4,3.9c0.3,1.2,0.8,2.1,1.6,2.8c0.8,0.7,1.8,1,3.2,1
			c0.9,0,1.9-0.2,3-0.5s2.3-0.8,3.5-1.5l2.5,3.9c-1.8,1.2-3.6,2.1-5.4,2.7C761.1,86.7,759.3,87,757.5,87z"/>
	</g>
	<g class="st1">
		<path class="st2" d="M64.9,135.3l-0.5-0.6l3.2,1.1v3.8H54.7v-3.8l3.2-1.1l-0.5,0.6v-14.9l0.4,0.4l-3.1-1.1V116l10.2-0.4V135.3z
			 M61,112.8c-1.3,0-2.3-0.4-3.1-1.1c-0.8-0.7-1.2-1.8-1.2-3.1c0-1.4,0.4-2.5,1.2-3.2c0.8-0.7,1.8-1,3.1-1c1.2,0,2.2,0.3,3,1
			c0.8,0.7,1.2,1.7,1.2,3.2c0,1.4-0.4,2.4-1.2,3.1C63.3,112.5,62.3,112.8,61,112.8z"/>
		<path class="st2" d="M69.2,139.6v-3.8l3.6-1.2l-0.9,1.1v-15.9l0.9,1.2l-3.6-1.2V116l8.5-0.4l0.9,4.2l-0.9-0.3
			c1.4-1.4,2.9-2.5,4.5-3.2c1.6-0.7,3.1-1,4.6-1c2,0,3.6,0.6,5,1.9c1.4,1.3,2,3.2,2,5.8v12.7l-0.6-1l3.3,1.2v3.8H86.4v-15.1
			c0-1.2-0.3-2.1-0.8-2.7s-1.2-0.9-2.1-0.9c-0.7,0-1.4,0.2-2.2,0.5c-0.8,0.4-1.6,0.9-2.3,1.5l0.5-1v13.8l-0.7-1.1l3,1.1v3.8H69.2z"
			/>
		<path class="st2" d="M98.1,139.6v-3.8l3.3-1.1l-0.6,0.8v-15.2l0.6,0.8h-3.5v-4l3.7-1.1l-0.8,1.1v-2.4c0-3.4,0.9-5.9,2.7-7.5
			c1.8-1.6,4.2-2.4,7.3-2.4c0.9,0,1.8,0.1,2.7,0.2c0.9,0.1,1.9,0.3,2.9,0.6l-1.1,5c-0.5-0.1-1-0.3-1.6-0.4c-0.6-0.1-1.1-0.2-1.6-0.2
			c-1.1,0-2,0.3-2.7,0.9c-0.8,0.6-1.1,1.6-1.1,3.1v3.1l-0.9-0.9h6.2l-0.1,4.9h-5.8l0.7-0.8v15.2l-0.6-0.7l3.9,1.1v3.8H98.1z"/>
		<path class="st2" d="M125.7,140.2c-2.2,0-4.2-0.5-5.8-1.4s-3-2.2-3.9-4c-0.9-1.8-1.4-4-1.4-6.6c0-2.7,0.5-5,1.5-7
			c1-1.9,2.4-3.4,4.2-4.4c1.8-1,3.9-1.5,6.4-1.5c2.4,0,4.3,0.5,5.8,1.4c1.5,0.9,2.6,2.2,3.3,3.8c0.7,1.6,1,3.4,1,5.4
			c0,0.6,0,1.1-0.1,1.7c0,0.6-0.1,1.2-0.3,1.8h-15.7v-4.1h9.4l-1.1,0.8c0-1.2,0-2.1-0.2-2.9c-0.2-0.8-0.5-1.4-1-1.9
			c-0.5-0.4-1.1-0.6-1.9-0.6c-1,0-1.7,0.3-2.3,0.9c-0.5,0.6-0.9,1.4-1.1,2.4c-0.2,1-0.3,2-0.3,3.2c0,1.4,0.1,2.7,0.4,3.9
			c0.3,1.2,0.8,2.1,1.6,2.8c0.8,0.7,1.8,1,3.2,1c0.9,0,1.9-0.2,3-0.5s2.3-0.8,3.5-1.5l2.5,3.9c-1.8,1.2-3.6,2.1-5.4,2.7
			C129.3,139.9,127.5,140.2,125.7,140.2z"/>
		<path class="st2" d="M150,140.2c-2.1,0-4-0.5-5.7-1.4c-1.7-1-3-2.4-4-4.2s-1.5-4.1-1.5-6.7c0-2.4,0.4-4.4,1.1-6
			c0.7-1.6,1.7-2.9,2.9-3.9c1.2-1,2.5-1.7,4-2.1c1.5-0.4,2.9-0.6,4.5-0.6c1.6,0,3.1,0.2,4.6,0.6s2.7,0.7,3.5,1.1l-0.2,7h-4.7
			l-0.7-3.4l0.6,0.4c-0.3-0.1-0.8-0.2-1.3-0.3c-0.5-0.1-1-0.1-1.6-0.1c-1.2,0-2.1,0.3-2.8,0.9c-0.7,0.6-1.2,1.4-1.5,2.4
			c-0.3,1-0.5,2.3-0.5,3.7c0,1.6,0.2,2.9,0.6,4c0.4,1.1,1,1.9,1.8,2.4c0.8,0.5,1.7,0.8,2.7,0.8c0.9,0,1.8-0.2,2.9-0.5
			c1-0.4,2.1-0.9,3.3-1.6l2.4,3.8c-1.7,1.3-3.4,2.3-5.1,2.9S151.8,140.2,150,140.2z"/>
		<path class="st2" d="M172.3,140.2c-2.1,0-4-0.5-5.7-1.4c-1.7-1-3-2.4-4-4.2s-1.5-4.1-1.5-6.7c0-2.4,0.4-4.4,1.1-6
			c0.7-1.6,1.7-2.9,2.9-3.9c1.2-1,2.5-1.7,4-2.1c1.5-0.4,2.9-0.6,4.5-0.6c1.6,0,3.1,0.2,4.6,0.6s2.7,0.7,3.5,1.1l-0.2,7h-4.7
			l-0.7-3.4l0.6,0.4c-0.3-0.1-0.8-0.2-1.3-0.3c-0.5-0.1-1-0.1-1.6-0.1c-1.2,0-2.1,0.3-2.8,0.9c-0.7,0.6-1.2,1.4-1.5,2.4
			c-0.3,1-0.5,2.3-0.5,3.7c0,1.6,0.2,2.9,0.6,4c0.4,1.1,1,1.9,1.8,2.4c0.8,0.5,1.7,0.8,2.7,0.8c0.9,0,1.8-0.2,2.9-0.5
			c1-0.4,2.1-0.9,3.3-1.6l2.4,3.8c-1.7,1.3-3.4,2.3-5.1,2.9S174,140.2,172.3,140.2z"/>
		<path class="st2" d="M194,135.3l-0.5-0.6l3.2,1.1v3.8h-12.9v-3.8l3.2-1.1l-0.5,0.6v-14.9l0.4,0.4l-3.1-1.1V116l10.2-0.4V135.3z
			 M190.1,112.8c-1.3,0-2.3-0.4-3.1-1.1c-0.8-0.7-1.2-1.8-1.2-3.1c0-1.4,0.4-2.5,1.2-3.2c0.8-0.7,1.8-1,3.1-1c1.2,0,2.2,0.3,3,1
			c0.8,0.7,1.2,1.7,1.2,3.2c0,1.4-0.4,2.4-1.2,3.1C192.3,112.5,191.3,112.8,190.1,112.8z"/>
		<path class="st2" d="M210.3,115.2c3.7,0,6.5,1,8.5,3.1s3,5.1,3,8.9c0,2.7-0.5,5-1.5,6.9c-1,1.9-2.4,3.4-4.2,4.4
			c-1.8,1-4,1.6-6.6,1.6c-3.6,0-6.4-1-8.4-3.1c-2-2.1-2.9-5.1-2.9-8.9c0-2.7,0.5-5,1.4-7c1-1.9,2.3-3.4,4.2-4.4
			C205.6,115.7,207.7,115.2,210.3,115.2z M210,120.5c-1.4,0-2.4,0.6-3.1,1.7s-0.9,3-0.9,5.6s0.3,4.4,0.9,5.5
			c0.6,1.1,1.6,1.6,2.9,1.6c1,0,1.8-0.3,2.3-0.8c0.6-0.5,1-1.3,1.3-2.4c0.3-1.1,0.4-2.5,0.4-4.1c0-2.5-0.3-4.4-0.9-5.4
			S211.4,120.5,210,120.5z"/>
		<path class="st2" d="M223.8,139.6v-3.8l3.6-1.2l-0.9,1.1v-15.9l0.9,1.2l-3.6-1.2V116l8.5-0.4l0.9,4.2l-0.9-0.3
			c1.4-1.4,2.9-2.5,4.5-3.2c1.6-0.7,3.1-1,4.6-1c2,0,3.6,0.6,5,1.9c1.4,1.3,2,3.2,2,5.8v12.7l-0.6-1l3.3,1.2v3.8H241v-15.1
			c0-1.2-0.3-2.1-0.8-2.7s-1.2-0.9-2.1-0.9c-0.7,0-1.4,0.2-2.2,0.5c-0.8,0.4-1.6,0.9-2.3,1.5l0.5-1v13.8l-0.7-1.1l3,1.1v3.8H223.8z"
			/>
		<path class="st2" d="M263.6,140.2c-2.2,0-4.2-0.5-5.8-1.4s-3-2.2-3.9-4c-0.9-1.8-1.4-4-1.4-6.6c0-2.7,0.5-5,1.5-7
			c1-1.9,2.4-3.4,4.2-4.4c1.8-1,3.9-1.5,6.4-1.5c2.4,0,4.3,0.5,5.8,1.4c1.5,0.9,2.6,2.2,3.3,3.8c0.7,1.6,1,3.4,1,5.4
			c0,0.6,0,1.1-0.1,1.7c0,0.6-0.1,1.2-0.3,1.8h-15.7v-4.1h9.4L267,126c0-1.2,0-2.1-0.2-2.9c-0.2-0.8-0.5-1.4-1-1.9
			c-0.5-0.4-1.1-0.6-1.9-0.6c-1,0-1.7,0.3-2.3,0.9c-0.5,0.6-0.9,1.4-1.1,2.4c-0.2,1-0.3,2-0.3,3.2c0,1.4,0.1,2.7,0.4,3.9
			c0.3,1.2,0.8,2.1,1.6,2.8c0.8,0.7,1.8,1,3.2,1c0.9,0,1.9-0.2,3-0.5s2.3-0.8,3.5-1.5l2.5,3.9c-1.8,1.2-3.6,2.1-5.4,2.7
			C267.2,139.9,265.4,140.2,263.6,140.2z"/>
		<path class="st2" d="M284.9,121.9c0,0.6,0.3,1.1,0.9,1.4c0.6,0.4,1.4,0.7,2.3,0.9s1.9,0.6,3,0.9c1.1,0.3,2.1,0.7,3,1.3
			s1.7,1.2,2.3,2.1c0.6,0.9,0.9,2,0.9,3.3c0,1.9-0.5,3.5-1.5,4.7c-1,1.2-2.4,2.1-4.1,2.7c-1.7,0.6-3.7,0.9-5.8,0.9
			c-1.3,0-2.7-0.1-4.1-0.3s-2.9-0.5-4.3-0.9l0.3-7h4.7l0.6,3.7l-0.6-1c0.6,0.2,1.2,0.4,1.9,0.4c0.7,0.1,1.3,0.1,1.8,0.1
			c0.6,0,1.2-0.1,1.8-0.2c0.6-0.1,1.1-0.3,1.4-0.6c0.4-0.3,0.5-0.7,0.5-1.2c0-0.6-0.3-1.1-0.9-1.5c-0.6-0.4-1.3-0.7-2.3-0.9
			s-1.9-0.6-2.9-0.9c-1-0.3-2-0.7-2.9-1.3c-0.9-0.5-1.7-1.3-2.3-2.2c-0.6-0.9-0.9-2.1-0.9-3.6c0-1.8,0.4-3.3,1.3-4.5
			c0.9-1.1,2.1-2,3.7-2.5c1.6-0.5,3.3-0.8,5.2-0.8c1.3,0,2.7,0.1,4.1,0.3c1.4,0.2,2.9,0.5,4.5,1l-0.3,6.4h-4.7l-0.8-3.4l1,1.1
			c-1.3-0.3-2.5-0.4-3.5-0.4c-0.9,0-1.7,0.2-2.2,0.5C285.2,120.9,284.9,121.3,284.9,121.9z"/>
		<path class="st2" d="M315.6,140.2c-1.7,0-3.2-0.5-4.5-1.4c-1.3-0.9-2.3-2.2-3.1-4c-0.8-1.8-1.1-3.9-1.1-6.5c0-4.5,1.1-7.8,3.4-9.9
			c2.3-2.1,5.5-3.2,9.7-3.2c0.5,0,1.1,0,1.7,0c0.6,0,1.2,0.1,1.8,0.2l-1.3,0.8v-6.5l0.5,0.7l-3.4-1.3v-3.8l10.4-0.4v30.5l-0.8-1
			l3.5,1.3v3.8l-8.5,0.4l-1-3.9l0.8,0.2c-1.3,1.3-2.6,2.2-3.9,2.9C318.4,139.8,317.1,140.2,315.6,140.2z M318.6,134.7
			c0.6,0,1.3-0.2,2.1-0.6c0.7-0.4,1.5-0.9,2.3-1.6l-0.8,2.2v-15.5l0.9,1.7c-1.2-0.3-2.3-0.5-3.2-0.5c-1.8,0-3.1,0.6-3.9,1.9
			c-0.8,1.3-1.2,3-1.2,5.2c0,1.4,0.1,2.7,0.4,3.8c0.3,1.1,0.7,1.9,1.3,2.5C317,134.4,317.8,134.7,318.6,134.7z"/>
		<path class="st2" d="M344.9,140.2c-2.2,0-4.2-0.5-5.8-1.4s-3-2.2-3.9-4c-0.9-1.8-1.4-4-1.4-6.6c0-2.7,0.5-5,1.5-7
			c1-1.9,2.4-3.4,4.2-4.4c1.8-1,3.9-1.5,6.4-1.5c2.4,0,4.3,0.5,5.8,1.4c1.5,0.9,2.6,2.2,3.3,3.8c0.7,1.6,1,3.4,1,5.4
			c0,0.6,0,1.1-0.1,1.7c0,0.6-0.1,1.2-0.3,1.8h-15.7v-4.1h9.4l-1.1,0.8c0-1.2,0-2.1-0.2-2.9c-0.2-0.8-0.5-1.4-1-1.9
			c-0.5-0.4-1.1-0.6-1.9-0.6c-1,0-1.7,0.3-2.3,0.9c-0.5,0.6-0.9,1.4-1.1,2.4c-0.2,1-0.3,2-0.3,3.2c0,1.4,0.1,2.7,0.4,3.9
			c0.3,1.2,0.8,2.1,1.6,2.8c0.8,0.7,1.8,1,3.2,1c0.9,0,1.9-0.2,3-0.5s2.3-0.8,3.5-1.5l2.5,3.9c-1.8,1.2-3.6,2.1-5.4,2.7
			C348.5,139.9,346.7,140.2,344.9,140.2z"/>
		<path class="st2" d="M374.7,140.2c-2.2,0-3.9-0.7-5.1-2s-1.7-3.3-1.7-6v-12.4l0.9,0.9h-4.1v-3.9l4.2-1.3l-1,1.3v-6.2l7.5-1.4v7.5
			l-0.8-1h6.7l-0.1,4.9h-6.6l0.8-0.9v11.3c0,1.2,0.2,2.1,0.6,2.7c0.4,0.6,1,0.8,1.8,0.8c0.4,0,0.9-0.1,1.5-0.2
			c0.5-0.1,1.2-0.3,1.8-0.6l1.4,4C379.9,139.4,377.3,140.2,374.7,140.2z"/>
		<path class="st2" d="M384,139.6v-3.8l3.4-1.1l-0.7,1.1v-15.9l0.8,1.2l-3.5-1.2V116l8.5-0.4l0.9,4.1l-0.9-0.2
			c1.4-1.4,2.7-2.4,4-3.2c1.3-0.7,2.7-1.1,4.1-1.1c0.9,0,2,0.1,3.1,0.4l-0.4,9H399l-0.7-4.9l0.7,1.4c-0.1-0.1-0.3-0.1-0.5-0.1
			c-0.2,0-0.3,0-0.5,0c-0.8,0-1.6,0.3-2.4,0.8c-0.8,0.5-1.4,1.1-1.9,1.8l0.6-1.9v14l-0.8-1.1l4.3,1.1v3.8H384z"/>
		<path class="st2" d="M425.3,135.9l-1-1.5l3.7,1.4v3.8l-8.6,0.4l-0.9-4.2l0.4,0.1c-1.1,1.4-2.3,2.5-3.6,3.2
			c-1.3,0.7-2.8,1.1-4.3,1.1c-2,0-3.7-0.6-4.9-1.9c-1.3-1.3-1.9-3-1.9-5.3c0-1.7,0.4-3,1.1-4c0.7-1,1.8-1.8,3.2-2.2s3.2-0.7,5.3-0.7
			h4.3l-0.4,0.4v-2.3c0-1.2-0.3-2.1-0.9-2.7c-0.6-0.5-1.5-0.8-2.6-0.8c-0.5,0-1.1,0-1.7,0.1c-0.6,0.1-1.3,0.2-2,0.4l0.7-0.8
			l-0.7,3.4h-4.6l-0.4-7c2.2-0.6,4.1-1,5.9-1.3c1.8-0.3,3.4-0.4,4.9-0.4c3,0,5.2,0.6,6.7,1.8c1.5,1.2,2.3,3.1,2.3,5.7V135.9z
			 M411.7,132.1c0,0.9,0.2,1.6,0.7,2.1s1,0.7,1.7,0.7c0.6,0,1.3-0.2,2-0.5s1.4-0.9,2-1.5l-0.3,1v-4.7l0.4,0.5h-3.1
			c-1.2,0-2.1,0.2-2.6,0.6S411.7,131.2,411.7,132.1z"/>
		<path class="st2" d="M429.4,139.6v-3.8l3.6-1.2l-0.9,1.1v-15.9l0.9,1.2l-3.6-1.2V116l8.5-0.4l0.9,4.2l-0.9-0.3
			c1.4-1.4,2.9-2.5,4.5-3.2c1.6-0.7,3.1-1,4.6-1c2,0,3.6,0.6,5,1.9c1.4,1.3,2,3.2,2,5.8v12.7l-0.6-1l3.3,1.2v3.8h-10.2v-15.1
			c0-1.2-0.3-2.1-0.8-2.7c-0.5-0.6-1.2-0.9-2.1-0.9c-0.7,0-1.4,0.2-2.2,0.5c-0.8,0.4-1.6,0.9-2.3,1.5l0.5-1v13.8l-0.7-1.1l3,1.1v3.8
			H429.4z"/>
		<path class="st2" d="M466.1,121.9c0,0.6,0.3,1.1,0.9,1.4c0.6,0.4,1.4,0.7,2.3,0.9c0.9,0.3,1.9,0.6,3,0.9c1.1,0.3,2.1,0.7,3,1.3
			c0.9,0.5,1.7,1.2,2.3,2.1c0.6,0.9,0.9,2,0.9,3.3c0,1.9-0.5,3.5-1.5,4.7s-2.4,2.1-4.1,2.7c-1.7,0.6-3.7,0.9-5.8,0.9
			c-1.3,0-2.7-0.1-4.1-0.3c-1.4-0.2-2.9-0.5-4.3-0.9l0.3-7h4.7l0.6,3.7l-0.6-1c0.6,0.2,1.2,0.4,1.9,0.4c0.7,0.1,1.3,0.1,1.8,0.1
			c0.6,0,1.2-0.1,1.8-0.2c0.6-0.1,1.1-0.3,1.4-0.6c0.4-0.3,0.5-0.7,0.5-1.2c0-0.6-0.3-1.1-0.9-1.5s-1.3-0.7-2.3-0.9
			c-0.9-0.3-1.9-0.6-2.9-0.9c-1-0.3-2-0.7-2.9-1.3c-0.9-0.5-1.7-1.3-2.3-2.2c-0.6-0.9-0.9-2.1-0.9-3.6c0-1.8,0.4-3.3,1.3-4.5
			c0.9-1.1,2.1-2,3.7-2.5c1.5-0.5,3.3-0.8,5.2-0.8c1.3,0,2.7,0.1,4.1,0.3c1.4,0.2,2.9,0.5,4.5,1l-0.3,6.4h-4.7l-0.8-3.4l1,1.1
			c-1.3-0.3-2.5-0.4-3.5-0.4c-0.9,0-1.7,0.2-2.2,0.5C466.4,120.9,466.1,121.3,466.1,121.9z"/>
		<path class="st2" d="M504.1,119.1l-1,0.4c1.4-1.4,2.9-2.5,4.5-3.2s3.1-1.1,4.5-1.1c1.9,0,3.5,0.6,4.8,1.9c1.3,1.2,1.9,3.1,1.9,5.7
			v12.8l-0.7-1l3.3,1.2v3.8h-10.2v-15.1c0-1.2-0.2-2.1-0.7-2.7c-0.5-0.6-1.1-0.9-1.9-0.9c-0.6,0-1.3,0.2-2.1,0.6
			c-0.8,0.4-1.6,0.9-2.4,1.7l0.5-1.6c0,0.2,0,0.4,0,0.6s0,0.3,0,0.4v13.1l-0.6-1l3.3,1.2v3.8h-10.2v-15.1c0-1.2-0.2-2.1-0.7-2.7
			s-1.1-0.9-1.9-0.9c-0.6,0-1.3,0.2-2.1,0.5s-1.5,0.9-2.3,1.5l0.5-1v13.8l-0.7-1.1l3.4,1.1v3.8h-12.9v-3.8l3.6-1.2l-0.9,1.1v-15.9
			l0.9,1.2l-3.6-1.2V116l8.5-0.4l0.9,4.2l-0.9-0.3c1.4-1.4,2.8-2.4,4.4-3.1c1.6-0.7,3.1-1.1,4.5-1.1c1.3,0,2.5,0.3,3.6,1
			S503.5,117.8,504.1,119.1z"/>
		<path class="st2" d="M533.1,135.3l-0.5-0.6l3.2,1.1v3.8h-12.9v-3.8l3.2-1.1l-0.5,0.6v-14.9l0.4,0.4l-3.1-1.1V116l10.2-0.4V135.3z
			 M529.2,112.8c-1.3,0-2.3-0.4-3.1-1.1s-1.2-1.8-1.2-3.1c0-1.4,0.4-2.5,1.2-3.2c0.8-0.7,1.8-1,3.1-1c1.2,0,2.2,0.3,3,1
			c0.8,0.7,1.2,1.7,1.2,3.2c0,1.4-0.4,2.4-1.2,3.1C531.4,112.5,530.4,112.8,529.2,112.8z"/>
		<path class="st2" d="M545.3,121.9c0,0.6,0.3,1.1,0.9,1.4c0.6,0.4,1.4,0.7,2.3,0.9c0.9,0.3,1.9,0.6,3,0.9c1.1,0.3,2.1,0.7,3,1.3
			c0.9,0.5,1.7,1.2,2.3,2.1c0.6,0.9,0.9,2,0.9,3.3c0,1.9-0.5,3.5-1.5,4.7s-2.4,2.1-4.1,2.7c-1.7,0.6-3.7,0.9-5.8,0.9
			c-1.3,0-2.7-0.1-4.1-0.3c-1.4-0.2-2.9-0.5-4.3-0.9l0.3-7h4.7l0.6,3.7l-0.6-1c0.6,0.2,1.2,0.4,1.9,0.4c0.7,0.1,1.3,0.1,1.8,0.1
			c0.6,0,1.2-0.1,1.8-0.2c0.6-0.1,1.1-0.3,1.4-0.6c0.4-0.3,0.5-0.7,0.5-1.2c0-0.6-0.3-1.1-0.9-1.5s-1.3-0.7-2.3-0.9
			c-0.9-0.3-1.9-0.6-2.9-0.9c-1-0.3-2-0.7-2.9-1.3c-0.9-0.5-1.7-1.3-2.3-2.2c-0.6-0.9-0.9-2.1-0.9-3.6c0-1.8,0.4-3.3,1.3-4.5
			c0.9-1.1,2.1-2,3.7-2.5c1.5-0.5,3.3-0.8,5.2-0.8c1.3,0,2.7,0.1,4.1,0.3c1.4,0.2,2.9,0.5,4.5,1l-0.3,6.4h-4.7l-0.8-3.4l1,1.1
			c-1.3-0.3-2.5-0.4-3.5-0.4c-0.9,0-1.7,0.2-2.2,0.5C545.6,120.9,545.3,121.3,545.3,121.9z"/>
		<path class="st2" d="M570,135.3l-0.5-0.6l3.2,1.1v3.8h-12.9v-3.8l3.2-1.1l-0.5,0.6v-14.9l0.4,0.4l-3.1-1.1V116l10.2-0.4V135.3z
			 M566.1,112.8c-1.3,0-2.3-0.4-3.1-1.1s-1.2-1.8-1.2-3.1c0-1.4,0.4-2.5,1.2-3.2c0.8-0.7,1.8-1,3.1-1c1.2,0,2.2,0.3,3,1
			c0.8,0.7,1.2,1.7,1.2,3.2c0,1.4-0.4,2.4-1.2,3.1C568.3,112.5,567.3,112.8,566.1,112.8z"/>
		<path class="st2" d="M586.3,115.2c3.7,0,6.5,1,8.5,3.1s3,5.1,3,8.9c0,2.7-0.5,5-1.5,6.9c-1,1.9-2.4,3.4-4.2,4.4
			c-1.8,1-4,1.6-6.6,1.6c-3.6,0-6.4-1-8.4-3.1c-2-2.1-2.9-5.1-2.9-8.9c0-2.7,0.5-5,1.4-7s2.3-3.4,4.2-4.4
			C581.6,115.7,583.8,115.2,586.3,115.2z M582.7,113l-2.5-3.6l9.7-7.6l3.7,5L582.7,113z M586,120.5c-1.4,0-2.4,0.6-3.1,1.7
			s-0.9,3-0.9,5.6s0.3,4.4,0.9,5.5c0.6,1.1,1.6,1.6,2.9,1.6c1,0,1.8-0.3,2.3-0.8c0.6-0.5,1-1.3,1.3-2.4c0.3-1.1,0.4-2.5,0.4-4.1
			c0-2.5-0.3-4.4-0.9-5.4S587.4,120.5,586,120.5z"/>
		<path class="st2" d="M599.9,139.6v-3.8l3.6-1.2l-0.9,1.1v-15.9l0.9,1.2l-3.6-1.2V116l8.5-0.4l0.9,4.2l-0.9-0.3
			c1.4-1.4,2.9-2.5,4.5-3.2c1.6-0.7,3.1-1,4.6-1c2,0,3.6,0.6,5,1.9c1.4,1.3,2,3.2,2,5.8v12.7l-0.6-1l3.3,1.2v3.8H617v-15.1
			c0-1.2-0.3-2.1-0.8-2.7c-0.5-0.6-1.2-0.9-2.1-0.9c-0.7,0-1.4,0.2-2.2,0.5s-1.6,0.9-2.3,1.5l0.5-1v13.8l-0.7-1.1l3,1.1v3.8H599.9z"
			/>
		<path class="st2" d="M644.1,121.9c0,0.6,0.3,1.1,0.9,1.4c0.6,0.4,1.4,0.7,2.3,0.9c0.9,0.3,1.9,0.6,3,0.9c1.1,0.3,2.1,0.7,3,1.3
			c0.9,0.5,1.7,1.2,2.3,2.1c0.6,0.9,0.9,2,0.9,3.3c0,1.9-0.5,3.5-1.5,4.7s-2.4,2.1-4.1,2.7c-1.7,0.6-3.7,0.9-5.8,0.9
			c-1.3,0-2.7-0.1-4.1-0.3c-1.4-0.2-2.9-0.5-4.3-0.9l0.3-7h4.7l0.6,3.7l-0.6-1c0.6,0.2,1.2,0.4,1.9,0.4c0.7,0.1,1.3,0.1,1.8,0.1
			c0.6,0,1.2-0.1,1.8-0.2c0.6-0.1,1.1-0.3,1.4-0.6c0.4-0.3,0.5-0.7,0.5-1.2c0-0.6-0.3-1.1-0.9-1.5s-1.3-0.7-2.3-0.9
			c-0.9-0.3-1.9-0.6-2.9-0.9c-1-0.3-2-0.7-2.9-1.3c-0.9-0.5-1.7-1.3-2.3-2.2c-0.6-0.9-0.9-2.1-0.9-3.6c0-1.8,0.4-3.3,1.3-4.5
			c0.9-1.1,2.1-2,3.7-2.5c1.6-0.5,3.3-0.8,5.2-0.8c1.3,0,2.7,0.1,4.1,0.3c1.4,0.2,2.9,0.5,4.5,1l-0.3,6.4h-4.7l-0.8-3.4l1,1.1
			c-1.3-0.3-2.5-0.4-3.5-0.4c-0.9,0-1.7,0.2-2.2,0.5C644.3,120.9,644.1,121.3,644.1,121.9z"/>
		<path class="st2" d="M669.6,140.2c-2.2,0-4.2-0.5-5.8-1.4s-3-2.2-3.9-4s-1.4-4-1.4-6.6c0-2.7,0.5-5,1.5-7c1-1.9,2.4-3.4,4.2-4.4
			c1.8-1,3.9-1.5,6.4-1.5c2.4,0,4.3,0.5,5.8,1.4s2.6,2.2,3.3,3.8c0.7,1.6,1,3.4,1,5.4c0,0.6,0,1.1-0.1,1.7c0,0.6-0.1,1.2-0.3,1.8
			h-15.7v-4.1h9.4l-1.1,0.8c0-1.2,0-2.1-0.2-2.9c-0.2-0.8-0.5-1.4-1-1.9c-0.5-0.4-1.1-0.6-1.9-0.6c-1,0-1.7,0.3-2.3,0.9
			c-0.5,0.6-0.9,1.4-1.1,2.4s-0.3,2-0.3,3.2c0,1.4,0.1,2.7,0.4,3.9c0.3,1.2,0.8,2.1,1.6,2.8c0.8,0.7,1.8,1,3.2,1
			c0.9,0,1.9-0.2,3-0.5s2.3-0.8,3.5-1.5l2.5,3.9c-1.8,1.2-3.6,2.1-5.4,2.7C673.1,139.9,671.3,140.2,669.6,140.2z"/>
		<path class="st2" d="M681.3,139.6v-3.8l3.6-0.8l-1.8,1l6.8-9.3l1.8,0l7.1-10.5l6.6-0.4v3.8l-3.7,1.1l2.1-1.2l-6.7,8.8l-1.6,0
			l-7.6,11.5H681.3z M693.2,139.6v-3.8l2.7-0.5l-0.4,1l-5.2-7.2l-7.1-9.7l1.5,1.3l-2.9-0.8V116l11.7-0.4v3.8l-2.7,0.7l0.5-1.1
			l4.3,6.2l8,10.7l-1.2-1l3.4,0.9v3.8H693.2z"/>
		<path class="st2" d="M715.8,140.2c-2,0-3.6-0.6-5-1.9c-1.4-1.3-2-3.3-2-5.9v-12.4l0.7,1l-3.4-1.2V116l10.2-0.4v15.5
			c0,1.2,0.3,2,0.8,2.6c0.5,0.6,1.2,0.8,2.1,0.8c0.6,0,1.4-0.2,2.1-0.5c0.8-0.3,1.6-0.9,2.4-1.6l-0.4,1.2v-13.9l0.6,1.2l-3.3-1.2
			V116l10.2-0.4v20.2l-0.9-1.2l3.5,1.3v3.8l-8.5,0.4l-1-4.3l1,0.3c-1.4,1.4-3,2.5-4.5,3.2S717.3,140.2,715.8,140.2z"/>
		<path class="st2" d="M756.2,135.9l-1-1.5l3.7,1.4v3.8l-8.6,0.4l-0.9-4.2l0.4,0.1c-1.1,1.4-2.3,2.5-3.6,3.2s-2.8,1.1-4.3,1.1
			c-2,0-3.7-0.6-4.9-1.9c-1.3-1.3-1.9-3-1.9-5.3c0-1.7,0.4-3,1.1-4s1.8-1.8,3.2-2.2c1.4-0.5,3.2-0.7,5.3-0.7h4.3l-0.4,0.4v-2.3
			c0-1.2-0.3-2.1-0.9-2.7c-0.6-0.5-1.5-0.8-2.6-0.8c-0.5,0-1.1,0-1.8,0.1s-1.3,0.2-2,0.4l0.7-0.8l-0.7,3.4h-4.6l-0.4-7
			c2.2-0.6,4.1-1,5.9-1.3c1.8-0.3,3.4-0.4,4.9-0.4c3,0,5.2,0.6,6.7,1.8s2.3,3.1,2.3,5.7V135.9z M742.6,132.1c0,0.9,0.2,1.6,0.7,2.1
			s1,0.7,1.7,0.7c0.6,0,1.3-0.2,2-0.5c0.7-0.4,1.4-0.9,2-1.5l-0.3,1v-4.7l0.4,0.5h-3.1c-1.2,0-2.1,0.2-2.6,0.6
			S742.6,131.2,742.6,132.1z"/>
		<path class="st2" d="M769.9,135.3l-0.5-0.6l3.2,1.1v3.8h-12.9v-3.8l3.2-1.1l-0.5,0.6v-25.6l0.4,0.4l-3.1-1v-3.8l10.2-0.4V135.3z"
			/>
		<path class="st2" d="M776,136.2c0-1.2,0.4-2.2,1.2-2.9c0.8-0.7,1.8-1.1,2.9-1.1c1.3,0,2.3,0.4,3,1.1s1.1,1.7,1.1,2.9
			c0,1.2-0.4,2.2-1.2,2.9c-0.8,0.7-1.8,1.1-2.9,1.1c-1.3,0-2.3-0.4-3-1.1C776.3,138.3,776,137.4,776,136.2z M777.3,128.5l-1.2-20.2
			h8l-1.2,19.9L777.3,128.5z"/>
		<path class="st2" d="M788.3,136.1c0-1.2,0.4-2.2,1.2-2.9c0.8-0.7,1.8-1.1,2.9-1.1c1.3,0,2.3,0.4,3,1.1s1.1,1.7,1.1,2.9
			c0,1.2-0.4,2.2-1.2,2.9c-0.8,0.7-1.8,1.1-2.9,1.1c-1.3,0-2.3-0.4-3-1.1S788.3,137.3,788.3,136.1z"/>
	</g>
</g>
</svg>
