<?xml version="1.0" encoding="utf-8"?>
<!-- Generator: Adobe Illustrator 25.4.1, SVG Export Plug-In . SVG Version: 6.00 Build 0)  -->
<svg version="1.1" id="Capa_1" xmlns="http://www.w3.org/2000/svg" xmlns:xlink="http://www.w3.org/1999/xlink" x="0px" y="0px"
	 viewBox="0 0 604.9 222.4" style="enable-background:new 0 0 604.9 222.4;" xml:space="preserve">
<style type="text/css">
	.st0{fill:none;stroke:#3C246F;stroke-miterlimit:10;}
	.st1{enable-background:new    ;}
	.st2{fill:#3C246F;}
	.st3{fill:#DE85D2;}
	.st4{fill:#FFFFFF;}
</style>
<g>
	<g>
		<g>
			<path class="st0" d="M324.4,89.9c-12.1,27.3,5.3,60,33.3,62.5c0.4,0,0.7,0.1,1.1,0.1"/>
			<polyline class="st0" points="352.4,138.2 364.5,153.5 340.4,164.3 			"/>
		</g>
	</g>
	<g class="st1">
		<path class="st2" d="M377.9,147.2h1.9v13.6h-1.9V147.2z"/>
		<path class="st2" d="M399.7,151.5c0.8,0.8,1.1,1.9,1.1,3.3v5.9h-1.9v-5.7c0-1-0.2-1.8-0.7-2.3s-1.1-0.8-2-0.8
			c-0.9,0-1.7,0.3-2.3,0.9c-0.6,0.6-0.8,1.4-0.8,2.5v5.3h-1.9v-5.7c0-1-0.2-1.8-0.7-2.3c-0.5-0.5-1.1-0.8-2-0.8
			c-0.9,0-1.7,0.3-2.3,0.9c-0.6,0.6-0.8,1.4-0.8,2.5v5.3h-1.9v-10.3h1.8v1.5c0.4-0.5,0.9-0.9,1.5-1.2c0.6-0.3,1.3-0.4,2.1-0.4
			c0.8,0,1.5,0.2,2.1,0.5c0.6,0.3,1.1,0.8,1.4,1.4c0.4-0.6,0.9-1.1,1.6-1.4c0.7-0.3,1.5-0.5,2.3-0.5
			C397.9,150.4,398.9,150.8,399.7,151.5z"/>
		<path class="st2" d="M412.4,151.1c0.8,0.4,1.4,1.1,1.9,1.8s0.7,1.7,0.7,2.7c0,1-0.2,2-0.7,2.8c-0.4,0.8-1.1,1.4-1.9,1.9
			c-0.8,0.4-1.7,0.7-2.7,0.7c-0.7,0-1.4-0.1-2-0.4c-0.6-0.3-1.1-0.7-1.6-1.2v5.3h-1.9v-14.1h1.8v1.6c0.4-0.6,0.9-1,1.6-1.3
			c0.6-0.3,1.3-0.4,2.1-0.4C410.7,150.4,411.6,150.6,412.4,151.1z M411.3,158.8c0.5-0.3,0.9-0.7,1.2-1.3c0.3-0.6,0.5-1.2,0.5-1.9
			c0-0.7-0.2-1.3-0.5-1.9c-0.3-0.6-0.7-1-1.2-1.3c-0.5-0.3-1.1-0.4-1.8-0.4c-0.6,0-1.2,0.2-1.8,0.5c-0.5,0.3-0.9,0.7-1.2,1.3
			s-0.5,1.2-0.5,1.9c0,0.7,0.1,1.3,0.4,1.9c0.3,0.6,0.7,1,1.2,1.3c0.5,0.3,1.1,0.5,1.8,0.5C410.2,159.3,410.8,159.1,411.3,158.8z"/>
		<path class="st2" d="M417.5,146.4h1.9v14.4h-1.9V146.4z"/>
		<path class="st2" d="M430,151.5c0.8,0.7,1.1,1.7,1.1,3.1v6.2h-1.8v-1.4c-0.3,0.5-0.8,0.8-1.3,1.1s-1.3,0.4-2.1,0.4
			c-1.2,0-2.1-0.3-2.8-0.8c-0.7-0.6-1-1.3-1-2.2s0.3-1.6,1-2.2c0.7-0.6,1.7-0.8,3.2-0.8h3v-0.4c0-0.8-0.2-1.4-0.7-1.8
			c-0.5-0.4-1.2-0.6-2.1-0.6c-0.6,0-1.2,0.1-1.8,0.3c-0.6,0.2-1.1,0.5-1.5,0.8l-0.8-1.4c0.5-0.4,1.2-0.8,1.9-1
			c0.7-0.2,1.5-0.3,2.4-0.3C428.1,150.4,429.2,150.8,430,151.5z M428.1,159c0.5-0.3,0.9-0.8,1.1-1.4v-1.4h-2.9
			c-1.6,0-2.4,0.5-2.4,1.6c0,0.5,0.2,0.9,0.6,1.2c0.4,0.3,1,0.4,1.7,0.4C427,159.5,427.6,159.3,428.1,159z"/>
		<path class="st2" d="M443.2,151.5c0.8,0.8,1.2,1.9,1.2,3.3v5.9h-1.9v-5.7c0-1-0.2-1.8-0.7-2.3s-1.2-0.8-2.1-0.8
			c-1,0-1.8,0.3-2.4,0.9c-0.6,0.6-0.9,1.4-0.9,2.5v5.3h-1.9v-10.3h1.8v1.6c0.4-0.5,0.9-0.9,1.5-1.2c0.6-0.3,1.4-0.4,2.2-0.4
			C441.4,150.4,442.4,150.8,443.2,151.5z"/>
		<path class="st2" d="M453.6,160.2c-0.3,0.2-0.6,0.4-1,0.5c-0.4,0.1-0.8,0.2-1.2,0.2c-1,0-1.8-0.3-2.4-0.8s-0.9-1.4-0.9-2.4V152
			h-1.8v-1.5h1.8v-2.3h1.9v2.3h3v1.5h-3v5.6c0,0.6,0.1,1,0.4,1.3c0.3,0.3,0.7,0.4,1.2,0.4c0.6,0,1.1-0.2,1.5-0.5L453.6,160.2z"/>
		<path class="st2" d="M464.8,156.3h-8.4c0.1,0.9,0.5,1.6,1.2,2.2c0.7,0.6,1.5,0.8,2.5,0.8c1.2,0,2.2-0.4,3-1.2l1,1.2
			c-0.5,0.5-1,1-1.7,1.2c-0.7,0.3-1.5,0.4-2.3,0.4c-1.1,0-2.1-0.2-2.9-0.7c-0.8-0.4-1.5-1.1-2-1.9c-0.5-0.8-0.7-1.7-0.7-2.7
			c0-1,0.2-1.9,0.7-2.7c0.4-0.8,1.1-1.4,1.8-1.9c0.8-0.4,1.7-0.7,2.7-0.7c1,0,1.9,0.2,2.6,0.7s1.4,1.1,1.8,1.9
			c0.4,0.8,0.7,1.7,0.7,2.8C464.9,155.9,464.8,156,464.8,156.3z M457.5,152.8c-0.6,0.5-1,1.3-1.1,2.1h6.6c-0.1-0.9-0.5-1.6-1.1-2.1
			c-0.6-0.6-1.4-0.8-2.2-0.8C458.9,152,458.1,152.3,457.5,152.8z"/>
		<path class="st2" d="M473.2,160.6c-0.8-0.2-1.4-0.5-1.8-0.9l0.8-1.5c0.5,0.3,1,0.6,1.7,0.8c0.6,0.2,1.3,0.3,2,0.3
			c1.6,0,2.5-0.5,2.5-1.4c0-0.3-0.1-0.6-0.3-0.7s-0.5-0.3-0.8-0.4c-0.3-0.1-0.8-0.2-1.4-0.3c-0.8-0.1-1.5-0.3-2-0.4
			c-0.5-0.2-1-0.5-1.4-0.9c-0.4-0.4-0.6-1-0.6-1.7c0-0.9,0.4-1.7,1.2-2.2c0.8-0.6,1.8-0.8,3.1-0.8c0.7,0,1.4,0.1,2.1,0.3
			c0.7,0.2,1.3,0.4,1.7,0.7l-0.8,1.5c-0.8-0.5-1.8-0.8-3-0.8c-0.8,0-1.4,0.1-1.8,0.4s-0.6,0.6-0.6,1c0,0.3,0.1,0.6,0.3,0.8
			c0.2,0.2,0.5,0.3,0.9,0.4c0.3,0.1,0.8,0.2,1.4,0.3c0.8,0.1,1.5,0.3,2,0.5c0.5,0.2,1,0.4,1.3,0.8c0.4,0.4,0.5,0.9,0.5,1.6
			c0,0.9-0.4,1.7-1.2,2.2s-1.9,0.8-3.3,0.8C474.8,160.9,474,160.8,473.2,160.6z"/>
		<path class="st2" d="M492,150.5v10.3h-1.8v-1.6c-0.4,0.5-0.9,0.9-1.5,1.2s-1.3,0.4-2,0.4c-1.4,0-2.5-0.4-3.2-1.1s-1.2-1.9-1.2-3.4
			v-5.9h1.9v5.7c0,1,0.2,1.8,0.7,2.3c0.5,0.5,1.2,0.8,2.1,0.8c1,0,1.8-0.3,2.3-0.9c0.6-0.6,0.9-1.4,0.9-2.5v-5.3H492z"/>
		<path class="st2" d="M505.3,146.4v14.4h-1.8v-1.6c-0.4,0.6-0.9,1-1.6,1.3c-0.6,0.3-1.3,0.4-2.1,0.4c-1,0-1.9-0.2-2.7-0.7
			c-0.8-0.4-1.4-1.1-1.9-1.9c-0.4-0.8-0.7-1.7-0.7-2.8c0-1,0.2-2,0.7-2.7s1.1-1.4,1.9-1.8c0.8-0.4,1.7-0.7,2.7-0.7
			c0.7,0,1.4,0.1,2,0.4c0.6,0.3,1.1,0.7,1.6,1.2v-5.7H505.3z M501.8,158.8c0.5-0.3,0.9-0.7,1.2-1.3c0.3-0.6,0.4-1.2,0.4-1.9
			c0-0.7-0.1-1.3-0.4-1.9c-0.3-0.6-0.7-1-1.2-1.3c-0.5-0.3-1.1-0.4-1.8-0.4c-0.7,0-1.3,0.1-1.8,0.4c-0.5,0.3-0.9,0.7-1.2,1.3
			c-0.3,0.6-0.5,1.2-0.5,1.9c0,0.7,0.2,1.3,0.5,1.9c0.3,0.6,0.7,1,1.2,1.3s1.1,0.5,1.8,0.5C500.7,159.3,501.2,159.1,501.8,158.8z"/>
		<path class="st2" d="M518.1,156.3h-8.4c0.1,0.9,0.5,1.6,1.2,2.2c0.7,0.6,1.5,0.8,2.5,0.8c1.2,0,2.2-0.4,3-1.2l1,1.2
			c-0.5,0.5-1,1-1.7,1.2c-0.7,0.3-1.5,0.4-2.3,0.4c-1.1,0-2.1-0.2-2.9-0.7c-0.8-0.4-1.5-1.1-2-1.9c-0.5-0.8-0.7-1.7-0.7-2.7
			c0-1,0.2-1.9,0.7-2.7c0.4-0.8,1.1-1.4,1.8-1.9c0.8-0.4,1.7-0.7,2.7-0.7s1.9,0.2,2.6,0.7c0.8,0.4,1.4,1.1,1.8,1.9
			c0.4,0.8,0.7,1.7,0.7,2.8C518.2,155.9,518.2,156,518.1,156.3z M510.8,152.8c-0.6,0.5-1,1.3-1.1,2.1h6.6c-0.1-0.9-0.5-1.6-1.1-2.1
			c-0.6-0.6-1.4-0.8-2.2-0.8C512.2,152,511.4,152.3,510.8,152.8z M514.3,146.5h2.4l-3.3,2.5h-1.8L514.3,146.5z"/>
		<path class="st2" d="M524,150.9c0.6-0.3,1.4-0.5,2.3-0.5v1.8c-0.1,0-0.2,0-0.4,0c-1,0-1.8,0.3-2.4,0.9s-0.9,1.5-0.9,2.6v5.1h-1.9
			v-10.3h1.8v1.7C522.9,151.6,523.4,151.2,524,150.9z"/>
		<path class="st2" d="M544.6,151.5c0.8,0.8,1.1,1.9,1.1,3.3v5.9h-1.9v-5.7c0-1-0.2-1.8-0.7-2.3s-1.1-0.8-2-0.8
			c-0.9,0-1.7,0.3-2.3,0.9c-0.6,0.6-0.8,1.4-0.8,2.5v5.3h-1.9v-5.7c0-1-0.2-1.8-0.7-2.3c-0.5-0.5-1.1-0.8-2-0.8
			c-0.9,0-1.7,0.3-2.3,0.9c-0.6,0.6-0.8,1.4-0.8,2.5v5.3h-1.9v-10.3h1.8v1.5c0.4-0.5,0.9-0.9,1.5-1.2c0.6-0.3,1.3-0.4,2.1-0.4
			c0.8,0,1.5,0.2,2.1,0.5c0.6,0.3,1.1,0.8,1.4,1.4c0.4-0.6,0.9-1.1,1.6-1.4c0.7-0.3,1.5-0.5,2.3-0.5
			C542.8,150.4,543.8,150.8,544.6,151.5z"/>
		<path class="st2" d="M549.2,148.2c-0.2-0.2-0.4-0.5-0.4-0.9c0-0.3,0.1-0.6,0.4-0.9s0.5-0.4,0.9-0.4s0.7,0.1,0.9,0.3
			c0.2,0.2,0.4,0.5,0.4,0.8c0,0.4-0.1,0.6-0.4,0.9c-0.2,0.2-0.5,0.4-0.9,0.4S549.4,148.4,549.2,148.2z M549.2,150.5h1.9v10.3h-1.9
			V150.5z"/>
		<path class="st2" d="M556.3,160.2c-0.8-0.5-1.5-1.1-1.9-1.9s-0.7-1.7-0.7-2.7s0.2-1.9,0.7-2.7c0.5-0.8,1.1-1.4,1.9-1.9
			c0.8-0.4,1.8-0.7,2.8-0.7c0.9,0,1.8,0.2,2.5,0.6c0.7,0.4,1.3,0.9,1.7,1.6l-1.4,0.9c-0.3-0.5-0.7-0.9-1.2-1.1
			c-0.5-0.2-1-0.4-1.6-0.4c-0.7,0-1.3,0.1-1.8,0.4c-0.5,0.3-1,0.7-1.3,1.3c-0.3,0.6-0.5,1.2-0.5,1.9c0,0.7,0.2,1.4,0.5,1.9
			c0.3,0.6,0.7,1,1.3,1.3c0.5,0.3,1.1,0.4,1.8,0.4c0.6,0,1.1-0.1,1.6-0.4c0.5-0.2,0.9-0.6,1.2-1.1l1.4,0.9c-0.4,0.7-1,1.3-1.7,1.6
			s-1.6,0.6-2.5,0.6C558,160.9,557.1,160.7,556.3,160.2z"/>
		<path class="st2" d="M567.2,160.2c-0.8-0.5-1.5-1.1-1.9-1.9s-0.7-1.7-0.7-2.7s0.2-1.9,0.7-2.7c0.5-0.8,1.1-1.4,1.9-1.9
			c0.8-0.4,1.7-0.7,2.8-0.7s1.9,0.2,2.8,0.7s1.4,1.1,1.9,1.9c0.5,0.8,0.7,1.7,0.7,2.7s-0.2,1.9-0.7,2.7c-0.5,0.8-1.1,1.4-1.9,1.9
			c-0.8,0.5-1.7,0.7-2.8,0.7S568,160.7,567.2,160.2z M571.7,158.8c0.5-0.3,0.9-0.7,1.2-1.3c0.3-0.6,0.4-1.2,0.4-1.9
			c0-0.7-0.1-1.3-0.4-1.9c-0.3-0.6-0.7-1-1.2-1.3c-0.5-0.3-1.1-0.4-1.8-0.4c-0.7,0-1.3,0.1-1.8,0.4c-0.5,0.3-0.9,0.7-1.2,1.3
			c-0.3,0.6-0.5,1.2-0.5,1.9c0,0.7,0.2,1.3,0.5,1.9c0.3,0.6,0.7,1,1.2,1.3c0.5,0.3,1.1,0.5,1.8,0.5
			C570.6,159.3,571.2,159.1,571.7,158.8z"/>
	</g>
</g>
<g>
	<g>
		<path class="st3" d="M18.4,107.4L18.4,107.4c-0.9-13.6,9.5-25.3,23.1-26.2l371.8-23.3c13.6-0.9,25.3,9.5,26.2,23.1l0,0
			c0.9,13.6-9.5,25.3-23.1,26.2L44.6,130.5C31,131.3,19.3,121,18.4,107.4z"/>
	</g>
	<g>
		<g>
			<path class="st4" d="M48.9,95.9c10.2-1.3,20.3-2.1,30.5-2.8C89.6,92.5,99.8,92,110,92c-10.2,1.3-20.3,2.1-30.5,2.8
				C69.3,95.4,59.1,95.9,48.9,95.9z"/>
		</g>
		<g>
			<path class="st4" d="M146.5,90.8l66.5-5l66.5-4.8c22.2-1.5,44.4-2.9,66.5-4.2c11.1-0.6,22.2-1.2,33.3-1.7
				c11.1-0.5,22.2-0.9,33.3-1.3L379.4,76l-33.3,2.2c-22.2,1.5-44.3,3-66.5,4.6c-22.2,1.5-44.3,3-66.5,4.4l-33.3,2
				C168.7,89.7,157.6,90.3,146.5,90.8z"/>
		</g>
	</g>
</g>
</svg>
