<?xml version="1.0" encoding="utf-8"?>
<!-- Generator: Adobe Illustrator 25.4.1, SVG Export Plug-In . SVG Version: 6.00 Build 0)  -->
<svg version="1.1" id="Capa_1" xmlns="http://www.w3.org/2000/svg" xmlns:xlink="http://www.w3.org/1999/xlink" x="0px" y="0px"
	 viewBox="0 0 471.5 96.9" style="enable-background:new 0 0 471.5 96.9;" xml:space="preserve">
<style type="text/css">
	.st0{opacity:0.7;fill:#DFEB6A;enable-background:new    ;}
	.st1{enable-background:new    ;}
	.st2{fill:#3C246F;}
</style>
<g>
	<path class="st0" d="M320.9,42.4c6.1,4.5,49.5-0.4,52.7,1c2.7,1.8-0.2,34.1-2.4,38.8c-0.8,1.7-1.7,2-4,1.2
		c-3.6-1.5-49.4,1.3-49.4,1.3c-0.6-1-2.3,2.4-2.7,1.1c-1.2-2.8-75.3,0.8-81.7,1c-3.8,0.1-0.9-1.8-5.4-1.1c-9.6,1.5-30.7,0-37.9,1.7
		c-5.8,1.5-7,1.5-12.7,0.3c-5.8-1.1-36.2,0.4-39.6,2.6c-0.8,0.6-1.5,0.4-1.5-0.3c0-0.2-21.5-0.7-21.6-1.3c-0.2-0.7-0.9-1.1-1.4-0.6
		c-1.1,0.7-23.9,3.4-24.3,1.3c-1.4-6,0.8-31.4,3.2-37.5c2.4-6.6,17.7,0.9,29.5-3.1l55.9-0.3l11.9-2.4c1.5,2.2,6.5-3.2,9.9,0.6
		c1.4,1.5,10.9,1.8,13,0.2c1.8-1.2,50.6,2,55.4-2.3C276.7,48.4,312.6,43.3,320.9,42.4z"/>
	<path class="st0" d="M379,11.5c10.6,5,77.6-3.3,82.2-2.1c4.3,1.8,2,37-1.2,42.3c-1.2,1.9-2.7,2.3-6.3,1.6
		c-1.5-0.3-7.1-0.1-14.8,0.2c-10.4,0.5-15.4,0.9-64.2,4c-1-1.1-3.7,2.6-4.3,1.3c-1-1.5-31.1-0.7-62.4,0.1
		c-15.6,0.4-66.1,1.2-68.7,1.2c-6.2,0-1.3-2-8.5-1.4c-15.5,1.4-49.1-1.4-60.8,0c-9.5,1.1-11.5,1.1-20.4-0.5
		c-7.5-1.4-57.8-2.8-63.7-0.8c-1.4,0.6-2.4,0.3-2.4-0.5c-0.9-0.1-34.2-3.3-34.3-3.9C49,52.3,48,51.8,47,52.3
		c-1.9,0.8-38.7,0.5-39-1.9c-0.8-6.6,8.2-33.6,13.2-39.9c2.6-3.4,9.4-2.5,18-1.2s19,3,28.5,1.6c98.2,6.6,89,4.8,105.9,3.1
		c2,2.4,10.4-3,15.3,1.2c2,1.7,16.9,2.5,20.2,0.9c1.4-0.7,21.1,0.5,41.5,0.9c6.1,0.1,40.3,1,45.2-2.1C311.8,19.3,373,12,379,11.5z"
		/>
</g>
<g>
	<g class="st1">
		<path class="st2" d="M40.5,41.2h3.6v8.1H25.8v-3.1l3.1-1l-0.7,1.1V27.2l0.7,1.1l-3.1-1v-3.1L37,24.1v3.1l-3.2,1.2l0.6-1.1v18.6
			l-0.9-0.9h6.9l-0.8,1L40.5,41.2z"/>
		<path class="st2" d="M56.9,27.2l-3,1.2l0.6-0.9v18.6l-0.6-0.9l3,1v3.1h-11v-3.1l2.9-1l-0.5,0.8V27.5l0.8,0.9l-3.1-1.1v-3.1l11-0.2
			V27.2z"/>
		<path class="st2" d="M70.9,49.8c-2.4,0-4.4-0.5-6.2-1.5s-3.2-2.4-4.2-4.4c-1-1.9-1.5-4.3-1.5-7.1c0-2.8,0.5-5.2,1.5-7.1
			s2.4-3.5,4.2-4.5c1.8-1,4.1-1.6,6.7-1.6c1.4,0,2.9,0.2,4.4,0.5c1.5,0.3,3.1,0.8,4.6,1.4l-0.4,6.8h-3.6l-1-4l1,0.8
			c-0.8-0.3-1.5-0.5-2.3-0.6s-1.5-0.2-2.1-0.2c-1.3,0-2.4,0.3-3.4,0.9c-0.9,0.6-1.7,1.5-2.1,2.8s-0.7,2.8-0.7,4.7
			c0,2.6,0.5,4.6,1.5,6.1s2.5,2.2,4.5,2.2c0.5,0,1.1-0.1,1.7-0.2s1.2-0.3,1.9-0.5l-0.7,1.2v-6.3l1,1l-3.4-0.8v-3.2l10.5-0.2v3.2
			l-2.9,0.9l0.6-1v8.4c-1.7,0.7-3.3,1.2-4.9,1.5C73.8,49.6,72.3,49.8,70.9,49.8z"/>
		<path class="st2" d="M107.1,46.6l-1.6-1.4l2.9,1.1v3.1H97.8v-3.1l2.8-1l-0.5,0.9L98.8,42l0.9,0.8H91l0.7-0.7L90.4,46l-0.1-0.6
			l2.5,0.9v3.1h-9.6v-3.1l2.9-1.1l-1.4,1.2l8.3-22.3l6.4-0.2L107.1,46.6z M92.5,39.3l-0.4-0.8h6.6l-0.6,1l-3.2-12.1l1.4,0L92.5,39.3
			z"/>
		<path class="st2" d="M120.6,24.1c1.9,0,3.5,0.3,4.9,0.8c1.4,0.5,2.7,1.3,3.6,2.3c1,1,1.7,2.3,2.3,3.8c0.5,1.5,0.8,3.3,0.8,5.3
			c0,2.9-0.5,5.3-1.5,7.2c-1,1.9-2.4,3.4-4.3,4.4s-4.1,1.5-6.6,1.5h-10.7v-3.1l3.2-1.1l-0.8,1.2V27.2l0.9,1.2l-3.3-1.1v-3.1l8.8-0.2
			H120.6z M120.1,44.9c0.6,0,1.2-0.1,1.9-0.2c0.6-0.2,1.2-0.5,1.8-1c0.5-0.5,1-1.4,1.3-2.5c0.3-1.1,0.5-2.6,0.5-4.6
			c0-1.9-0.2-3.3-0.5-4.4c-0.3-1.1-0.7-1.9-1.2-2.4s-1.1-0.8-1.7-1c-0.6-0.2-1.2-0.2-1.8-0.2h-3.7l0.9-0.9v18.3l-0.9-0.9H120.1z"/>
		<path class="st2" d="M148.4,24.3l11-0.2v3.1l-3,1.2l0.6-1.5v12.5c0,1.4-0.1,2.6-0.4,3.7c-0.3,1.1-0.7,2.1-1.2,2.9
			c-0.6,0.8-1.3,1.5-2.1,2.1c-0.8,0.6-1.8,1-2.9,1.3c-1.1,0.3-2.4,0.4-3.9,0.4c-2,0-3.7-0.2-5-0.7c-1.3-0.5-2.3-1.1-3-1.9
			c-0.7-0.8-1.2-1.7-1.5-2.6c-0.3-0.9-0.5-1.8-0.6-2.6c-0.1-0.8-0.1-1.5-0.1-2.1v-13l0.7,1.5l-3.1-1v-3.1l11-0.2v3.1l-3,1.2l0.6-1.5
			v13c0,0.6,0,1.2,0.1,1.8c0.1,0.5,0.2,1,0.3,1.4c0.1,0.4,0.4,0.8,0.7,1.1s0.7,0.5,1.2,0.7c0.5,0.2,1.1,0.2,1.8,0.2
			c0.7,0,1.4-0.1,1.8-0.2c0.5-0.2,0.9-0.4,1.2-0.8c0.3-0.3,0.6-0.7,0.8-1.2c0.2-0.5,0.3-1,0.3-1.6c0-0.6,0.1-1.2,0.1-2V26.9l0.5,1.4
			l-2.9-0.9V24.3z"/>
		<path class="st2" d="M160.8,49.3v-3.1l3.1-1.1l-0.8,1.2V27.2l1.1,1.2l-3.5-1.1v-3.1l8.9-0.2h3.1c3,0,5.2,0.6,6.7,1.8
			c1.5,1.2,2.2,3,2.2,5.3c0,2-0.6,3.7-1.8,5.1c-1.2,1.3-3.2,2.2-5.9,2.5l0-0.7c0.9,0,1.7,0.1,2.3,0.4s1.1,0.6,1.5,1
			c0.4,0.4,0.7,0.9,1.1,1.5l2.8,5.2l-1.7-1.1l3.4,1.2v3.1h-6.6l-3.2-6.8c-0.4-0.9-0.7-1.5-1-2c-0.3-0.5-0.6-0.8-0.9-0.9
			c-0.4-0.1-0.9-0.2-1.6-0.2l-1.6,0l1-0.9v7.7l-0.8-1.2l3.3,1.1v3.1H160.8z M169.4,36.8l-1-1.5h2.7c1.4,0,2.5-0.3,3.2-0.9
			c0.7-0.6,1.1-1.5,1.1-2.7c0-1-0.3-1.7-0.8-2.3s-1.4-0.8-2.6-0.8h-3.6l1-0.9V36.8z"/>
		<path class="st2" d="M207.7,46.6l-1.6-1.4l2.9,1.1v3.1h-10.7v-3.1l2.8-1l-0.5,0.9l-1.2-4.1l0.9,0.8h-8.8l0.7-0.7l-1.3,3.9
			l-0.1-0.6l2.5,0.9v3.1h-9.6v-3.1l2.9-1.1l-1.4,1.2l8.3-22.3l6.4-0.2L207.7,46.6z M193.1,39.3l-0.4-0.8h6.6l-0.6,1l-3.2-12.1l1.4,0
			L193.1,39.3z"/>
		<path class="st2" d="M227.8,24.1c1.9,0,3.5,0.3,4.9,0.8c1.4,0.5,2.7,1.3,3.6,2.3c1,1,1.7,2.3,2.3,3.8c0.5,1.5,0.8,3.3,0.8,5.3
			c0,2.9-0.5,5.3-1.5,7.2c-1,1.9-2.4,3.4-4.3,4.4s-4.1,1.5-6.6,1.5h-10.7v-3.1l3.2-1.1l-0.8,1.2V27.2l0.9,1.2l-3.3-1.1v-3.1l8.8-0.2
			H227.8z M227.3,44.9c0.6,0,1.2-0.1,1.9-0.2c0.6-0.2,1.2-0.5,1.8-1c0.5-0.5,1-1.4,1.3-2.5c0.3-1.1,0.5-2.6,0.5-4.6
			c0-1.9-0.2-3.3-0.5-4.4c-0.3-1.1-0.7-1.9-1.2-2.4s-1.1-0.8-1.7-1c-0.6-0.2-1.2-0.2-1.8-0.2H224l0.9-0.9v18.3l-0.9-0.9H227.3z"/>
		<path class="st2" d="M256.9,42.2h3.7l-0.1,7.1h-18.9v-3.1l3.2-1.1l-0.8,1.2V27.2l0.8,1.2l-3.1-1v-3.1l8.5-0.2h10.1v6.8h-3.7
			l-0.8-3.2l1.1,0.8h-7.5l0.9-0.9v7.7l-0.9-0.9h8v4.3h-8l0.9-1.1v8.3l-0.9-0.9h8l-1.1,0.9L256.9,42.2z"/>
		<path class="st2" d="M273.4,49.3v-3.1l3.9-1.1l-1.1,1.5V27.6l1.2,0.9h-5.3l1.4-1.2l-1,4.5h-3.7v-7.8h21.1v7.8h-3.6l-1-4.2l1.3,0.9
			h-5.4l1.2-0.9v19.1l-1-1.5l3.8,1.1v3.1H273.4z"/>
		<path class="st2" d="M290.9,49.3v-3.1l3.1-1.1l-0.8,1.2V27.2l1.1,1.2l-3.5-1.1v-3.1l8.9-0.2h3.1c3,0,5.2,0.6,6.7,1.8
			c1.5,1.2,2.2,3,2.2,5.3c0,2-0.6,3.7-1.8,5.1c-1.2,1.3-3.2,2.2-5.9,2.5l0-0.7c0.9,0,1.7,0.1,2.3,0.4s1.1,0.6,1.5,1
			c0.4,0.4,0.7,0.9,1.1,1.5l2.8,5.2L310,45l3.4,1.2v3.1h-6.6l-3.2-6.8c-0.4-0.9-0.7-1.5-1-2c-0.3-0.5-0.6-0.8-0.9-0.9
			c-0.4-0.1-0.9-0.2-1.6-0.2l-1.6,0l1-0.9v7.7l-0.8-1.2l3.3,1.1v3.1H290.9z M299.5,36.8l-1-1.5h2.7c1.4,0,2.5-0.3,3.2-0.9
			c0.7-0.6,1.1-1.5,1.1-2.7c0-1-0.3-1.7-0.8-2.3s-1.4-0.8-2.6-0.8h-3.6l1-0.9V36.8z"/>
		<path class="st2" d="M325.6,49.8c-2.4,0-4.4-0.5-6.1-1.4c-1.7-1-3-2.4-3.9-4.3c-0.9-1.9-1.3-4.2-1.3-7c0-2.2,0.3-4.2,0.9-5.9
			s1.4-3.1,2.4-4.2s2.3-2,3.8-2.5s3.1-0.8,5-0.8c1.8,0,3.4,0.3,4.9,0.8s2.6,1.4,3.6,2.4c1,1.1,1.8,2.4,2.3,4s0.8,3.4,0.8,5.4
			c0,2.8-0.5,5.2-1.5,7.3c-1,2-2.4,3.6-4.3,4.7C330.4,49.3,328.2,49.8,325.6,49.8z M326,45.1c1,0,2-0.3,2.8-0.8
			c0.8-0.5,1.4-1.4,1.9-2.6c0.5-1.2,0.7-3,0.7-5.2c0-2-0.2-3.7-0.6-4.9c-0.4-1.2-1-2-1.8-2.5c-0.8-0.5-1.7-0.8-2.8-0.8
			c-1,0-2,0.2-2.7,0.7c-0.8,0.5-1.4,1.4-1.8,2.6c-0.4,1.2-0.6,3-0.6,5.2c0,2,0.2,3.6,0.6,4.8c0.4,1.2,0.9,2.1,1.7,2.6
			S324.9,45.1,326,45.1z"/>
		<path class="st2" d="M368.9,27.2l-3.2,1.3l0.8-1.6v19.5l-0.8-1.2l3.2,1.1v3.1h-10.5v-3.1l3.4-1.1l-1,1.2V30.6l1,0L356,42.8
			l-3.9,0.2l-5.5-12.4h0.9v15.8l-0.6-1.1l3,1v3.1h-9.8v-3.1l3.2-1.1l-0.8,1.2V26.9l0.8,1.5l-3.2-1.1v-3.1l10-0.2l5,12.7h-0.7
			l5.3-12.5l9.2-0.2V27.2z"/>
		<path class="st2" d="M381,40.8h-2.6l1.2-0.9v6.5l-0.9-1.1l4,1v3.1H371v-3.1l3.3-1.1l-0.9,1.2V27.1l1.1,1.3l-3.5-1.1v-3.1l8.7-0.2
			h2.9c2,0,3.7,0.4,5,1.1c1.3,0.7,2.2,1.7,2.9,2.9c0.6,1.2,0.9,2.6,0.9,4.1c0,1.6-0.4,3.1-1.1,4.4c-0.7,1.3-1.9,2.4-3.4,3.1
			S383.4,40.8,381,40.8z M381.7,28.5h-2.9l0.9-0.9v9.7l-1.2-0.9h2.6c1.4,0,2.4-0.4,3.1-1.1c0.7-0.8,1-1.8,1-3c0-1.1-0.3-2-0.9-2.7
			C383.6,28.8,382.8,28.5,381.7,28.5z"/>
		<path class="st2" d="M414.2,46.6l-1.6-1.4l2.9,1.1v3.1h-10.7v-3.1l2.8-1l-0.5,0.9l-1.2-4.1l0.9,0.8H398l0.7-0.7l-1.3,3.9l-0.1-0.6
			l2.5,0.9v3.1h-9.6v-3.1l2.9-1.1l-1.4,1.2l8.3-22.3l6.4-0.2L414.2,46.6z M399.6,39.3l-0.4-0.8h6.6l-0.6,1l-3.2-12.1l1.4,0
			L399.6,39.3z"/>
		<path class="st2" d="M422.8,30.5c0,0.6,0.2,1.1,0.7,1.5c0.5,0.4,1.1,0.8,1.8,1.1s1.6,0.6,2.5,0.9c0.9,0.3,1.8,0.6,2.7,1
			c0.9,0.4,1.7,0.9,2.5,1.5c0.8,0.6,1.4,1.3,1.8,2.2s0.7,2,0.7,3.2c0,1.9-0.5,3.4-1.4,4.6s-2.2,2-3.8,2.6c-1.6,0.6-3.3,0.8-5.2,0.8
			c-1.3,0-2.7-0.1-4-0.4s-2.7-0.6-4.1-1.1l0.2-7.2h3.5l0.9,4.2l-0.6-1c0.7,0.3,1.4,0.5,2.1,0.7c0.8,0.2,1.5,0.2,2.2,0.2
			c0.8,0,1.5-0.1,2.1-0.3c0.6-0.2,1.1-0.5,1.5-0.9c0.4-0.4,0.6-0.9,0.6-1.5c0-0.7-0.2-1.2-0.7-1.6c-0.5-0.4-1.1-0.8-1.8-1.1
			s-1.6-0.6-2.5-0.8c-0.9-0.3-1.8-0.6-2.7-0.9s-1.7-0.8-2.5-1.4c-0.8-0.6-1.4-1.3-1.8-2.2s-0.7-2-0.7-3.3c0-1.8,0.4-3.2,1.2-4.3
			c0.8-1.1,2-2,3.4-2.5s3.1-0.8,4.9-0.8c1.3,0,2.6,0.1,4,0.4c1.4,0.3,2.8,0.7,4.2,1.2l-0.4,6.6h-3.7l-0.9-3.7l0.6,0.6
			c-0.5-0.2-1.1-0.3-1.7-0.4c-0.6-0.1-1.2-0.2-1.8-0.2c-0.7,0-1.3,0.1-1.9,0.2c-0.6,0.2-1.1,0.4-1.4,0.8
			C422.9,29.5,422.8,29.9,422.8,30.5z"/>
	</g>
	<g class="st1">
		<path class="st2" d="M105.9,71.6c-0.3-1.3-0.5-2.7-0.5-4.1c0-1.5,0.2-2.8,0.5-4.1c0.3-1.3,0.8-2.4,1.4-3.4h1.5
			c-0.6,1.1-1.1,2.3-1.4,3.5s-0.4,2.6-0.4,4s0.1,2.8,0.4,4s0.8,2.4,1.4,3.5h-1.5C106.7,74,106.2,72.8,105.9,71.6z"/>
		<path class="st2" d="M121.4,71.8l0-8.2l-4.1,6.8h-0.7l-4.1-6.8v8.1H111V60.6h1.3l4.7,7.9l4.6-7.9h1.3l0,11.2H121.4z"/>
		<path class="st2" d="M127.5,70.7c-0.8-0.9-1.3-2.1-1.3-3.7v-6.4h1.6v6.3c0,2.4,1.1,3.6,3.2,3.6c1,0,1.8-0.3,2.4-0.9
			c0.5-0.6,0.8-1.5,0.8-2.7v-6.3h1.6V67c0,1.6-0.4,2.9-1.3,3.7c-0.8,0.9-2,1.3-3.5,1.3S128.3,71.5,127.5,70.7z"/>
		<path class="st2" d="M138.6,71.5c-0.6-0.3-1-0.7-1.4-1.2l0.9-1.1c0.6,0.9,1.4,1.3,2.3,1.3c0.6,0,1.1-0.2,1.4-0.6
			c0.3-0.4,0.5-1,0.5-1.7V62h-4.1v-1.4h5.7v7.6c0,1.2-0.3,2.2-0.9,2.8c-0.6,0.6-1.5,0.9-2.6,0.9C139.8,72,139.2,71.8,138.6,71.5z"/>
		<path class="st2" d="M155.4,70.4v1.4h-8.2V60.6h7.9V62h-6.3v3.5h5.6v1.4h-5.6v3.6H155.4z"/>
		<path class="st2" d="M165.5,71.8l-2.4-3.5c-0.3,0-0.5,0-0.7,0h-2.8v3.4H158V60.6h4.4c1.5,0,2.6,0.3,3.4,1c0.8,0.7,1.3,1.7,1.3,2.9
			c0,0.9-0.2,1.6-0.6,2.2c-0.4,0.6-1,1.1-1.8,1.3l2.7,3.8H165.5z M164.7,66.4c0.5-0.4,0.8-1.1,0.8-1.9c0-0.8-0.3-1.4-0.8-1.9
			s-1.3-0.7-2.3-0.7h-2.7v5.1h2.7C163.4,67.1,164.1,66.8,164.7,66.4z"/>
		<path class="st2" d="M177.9,70.4v1.4h-8.2V60.6h7.9V62h-6.3v3.5h5.6v1.4h-5.6v3.6H177.9z"/>
		<path class="st2" d="M181.3,71.6c-0.8-0.3-1.4-0.6-1.9-1l0.6-1.3c0.4,0.4,1,0.7,1.6,0.9s1.4,0.4,2.1,0.4c0.9,0,1.6-0.2,2.1-0.5
			c0.5-0.3,0.7-0.7,0.7-1.3c0-0.4-0.1-0.7-0.4-0.9c-0.3-0.2-0.6-0.4-0.9-0.6c-0.4-0.1-0.9-0.3-1.6-0.4c-0.8-0.2-1.5-0.4-2-0.6
			c-0.5-0.2-1-0.5-1.3-0.9c-0.4-0.4-0.6-1-0.6-1.7c0-0.6,0.2-1.1,0.5-1.6c0.3-0.5,0.8-0.9,1.4-1.2s1.4-0.4,2.4-0.4
			c0.7,0,1.3,0.1,2,0.3c0.6,0.2,1.2,0.4,1.7,0.7l-0.5,1.3c-0.5-0.3-1-0.5-1.5-0.7c-0.5-0.2-1.1-0.2-1.6-0.2c-0.9,0-1.6,0.2-2,0.5
			c-0.5,0.3-0.7,0.8-0.7,1.3c0,0.4,0.1,0.7,0.4,0.9c0.3,0.2,0.6,0.4,1,0.6c0.4,0.1,0.9,0.3,1.6,0.4c0.8,0.2,1.5,0.4,2,0.6
			s1,0.5,1.3,0.9c0.4,0.4,0.6,1,0.6,1.7c0,0.6-0.2,1.1-0.5,1.6c-0.3,0.5-0.8,0.9-1.5,1.2c-0.7,0.3-1.5,0.4-2.4,0.4
			C182.9,72,182.1,71.8,181.3,71.6z"/>
		<path class="st2" d="M195.9,70.7c-0.8-0.9-1.3-2.1-1.3-3.7v-6.4h1.6v6.3c0,2.4,1.1,3.6,3.2,3.6c1,0,1.8-0.3,2.4-0.9
			c0.5-0.6,0.8-1.5,0.8-2.7v-6.3h1.6V67c0,1.6-0.4,2.9-1.3,3.7c-0.8,0.9-2,1.3-3.5,1.3S196.7,71.5,195.9,70.7z"/>
		<path class="st2" d="M221.5,60.6v11.2h-1.6v-5h-6.5v5h-1.6V60.6h1.6v4.8h6.5v-4.8H221.5z"/>
		<path class="st2" d="M226.8,71.2c-0.9-0.5-1.6-1.2-2.1-2.1c-0.5-0.9-0.8-1.9-0.8-2.9s0.3-2.1,0.8-2.9s1.2-1.6,2.1-2.1
			c0.9-0.5,1.9-0.7,3.1-0.7c1.1,0,2.1,0.2,3.1,0.7c0.9,0.5,1.6,1.2,2.1,2.1s0.8,1.9,0.8,2.9c0,1.1-0.3,2.1-0.8,2.9s-1.2,1.6-2.1,2.1
			c-0.9,0.5-1.9,0.7-3.1,0.7C228.8,72,227.8,71.7,226.8,71.2z M232.1,70c0.7-0.4,1.2-0.9,1.6-1.6c0.4-0.7,0.6-1.4,0.6-2.2
			c0-0.8-0.2-1.6-0.6-2.2c-0.4-0.7-0.9-1.2-1.6-1.6s-1.4-0.6-2.2-0.6c-0.8,0-1.6,0.2-2.2,0.6c-0.7,0.4-1.2,0.9-1.6,1.6
			c-0.4,0.7-0.6,1.4-0.6,2.2c0,0.8,0.2,1.5,0.6,2.2c0.4,0.7,0.9,1.2,1.6,1.6c0.7,0.4,1.4,0.6,2.2,0.6
			C230.7,70.5,231.5,70.4,232.1,70z"/>
		<path class="st2" d="M248.8,71.8l0-8.2l-4.1,6.8h-0.7l-4.1-6.8v8.1h-1.5V60.6h1.3l4.7,7.9l4.6-7.9h1.3l0,11.2H248.8z"/>
		<path class="st2" d="M262.8,67c0.4,0.5,0.6,1.1,0.6,1.8c0,1-0.4,1.7-1.1,2.2s-1.8,0.8-3.2,0.8h-5.4V60.6h5c1.3,0,2.3,0.3,3,0.8
			c0.7,0.5,1.1,1.2,1.1,2.1c0,0.6-0.1,1.1-0.4,1.5c-0.3,0.4-0.6,0.8-1.1,1C261.9,66.2,262.4,66.5,262.8,67z M255.3,61.9v3.6h3.3
			c0.8,0,1.5-0.2,1.9-0.5c0.4-0.3,0.7-0.8,0.7-1.3s-0.2-1-0.7-1.3s-1.1-0.5-1.9-0.5H255.3z M261,70.1c0.5-0.3,0.7-0.8,0.7-1.4
			c0-1.3-0.9-1.9-2.7-1.9h-3.7v3.7h3.7C259.9,70.5,260.6,70.4,261,70.1z"/>
		<path class="st2" d="M273.4,71.8l-2.4-3.5c-0.3,0-0.5,0-0.7,0h-2.8v3.4h-1.6V60.6h4.4c1.5,0,2.6,0.3,3.4,1
			c0.8,0.7,1.3,1.7,1.3,2.9c0,0.9-0.2,1.6-0.6,2.2c-0.4,0.6-1,1.1-1.8,1.3l2.7,3.8H273.4z M272.5,66.4c0.5-0.4,0.8-1.1,0.8-1.9
			c0-0.8-0.3-1.4-0.8-1.9c-0.5-0.4-1.3-0.7-2.3-0.7h-2.7v5.1h2.7C271.2,67.1,272,66.8,272.5,66.4z"/>
		<path class="st2" d="M285.7,70.4v1.4h-8.2V60.6h7.9V62h-6.3v3.5h5.6v1.4h-5.6v3.6H285.7z"/>
		<path class="st2" d="M289.1,71.6c-0.8-0.3-1.4-0.6-1.9-1l0.6-1.3c0.4,0.4,1,0.7,1.6,0.9c0.7,0.2,1.4,0.4,2.1,0.4
			c0.9,0,1.6-0.2,2.1-0.5c0.5-0.3,0.7-0.7,0.7-1.3c0-0.4-0.1-0.7-0.4-0.9c-0.3-0.2-0.6-0.4-0.9-0.6c-0.4-0.1-0.9-0.3-1.6-0.4
			c-0.8-0.2-1.5-0.4-2-0.6c-0.5-0.2-1-0.5-1.3-0.9c-0.4-0.4-0.6-1-0.6-1.7c0-0.6,0.2-1.1,0.5-1.6c0.3-0.5,0.8-0.9,1.4-1.2
			s1.4-0.4,2.4-0.4c0.7,0,1.3,0.1,2,0.3c0.6,0.2,1.2,0.4,1.7,0.7l-0.5,1.3c-0.5-0.3-1-0.5-1.5-0.7c-0.5-0.2-1.1-0.2-1.6-0.2
			c-0.9,0-1.6,0.2-2,0.5s-0.7,0.8-0.7,1.3c0,0.4,0.1,0.7,0.4,0.9c0.3,0.2,0.6,0.4,1,0.6c0.4,0.1,0.9,0.3,1.5,0.4
			c0.8,0.2,1.5,0.4,2,0.6c0.5,0.2,1,0.5,1.3,0.9s0.6,1,0.6,1.7c0,0.6-0.2,1.1-0.5,1.6s-0.8,0.9-1.5,1.2c-0.7,0.3-1.5,0.4-2.4,0.4
			C290.7,72,289.9,71.8,289.1,71.6z"/>
		<path class="st2" d="M304.8,62H301v-1.4h9.3V62h-3.9v9.8h-1.6V62z"/>
		<path class="st2" d="M319.5,71.8l-2.4-3.5c-0.3,0-0.5,0-0.7,0h-2.8v3.4H312V60.6h4.4c1.5,0,2.6,0.3,3.4,1c0.8,0.7,1.3,1.7,1.3,2.9
			c0,0.9-0.2,1.6-0.6,2.2c-0.4,0.6-1,1.1-1.8,1.3l2.7,3.8H319.5z M318.7,66.4c0.5-0.4,0.8-1.1,0.8-1.9c0-0.8-0.3-1.4-0.8-1.9
			c-0.5-0.4-1.3-0.7-2.3-0.7h-2.7v5.1h2.7C317.4,67.1,318.1,66.8,318.7,66.4z"/>
		<path class="st2" d="M330.9,69h-6l-1.2,2.8H322l5.1-11.2h1.6l5.1,11.2h-1.7L330.9,69z M330.3,67.7l-2.4-5.5l-2.4,5.5H330.3z"/>
		<path class="st2" d="M345.1,60.6v11.2h-1.3l-6.7-8.4v8.4h-1.6V60.6h1.3l6.7,8.4v-8.4H345.1z"/>
		<path class="st2" d="M349.3,71.6c-0.8-0.3-1.4-0.6-1.9-1l0.6-1.3c0.4,0.4,1,0.7,1.6,0.9c0.7,0.2,1.4,0.4,2.1,0.4
			c0.9,0,1.6-0.2,2.1-0.5c0.5-0.3,0.7-0.7,0.7-1.3c0-0.4-0.1-0.7-0.4-0.9s-0.6-0.4-0.9-0.6c-0.4-0.1-0.9-0.3-1.6-0.4
			c-0.8-0.2-1.5-0.4-2-0.6s-1-0.5-1.3-0.9c-0.4-0.4-0.6-1-0.6-1.7c0-0.6,0.2-1.1,0.5-1.6c0.3-0.5,0.8-0.9,1.4-1.2s1.4-0.4,2.4-0.4
			c0.7,0,1.3,0.1,2,0.3c0.6,0.2,1.2,0.4,1.7,0.7l-0.5,1.3c-0.5-0.3-1-0.5-1.5-0.7c-0.5-0.2-1.1-0.2-1.6-0.2c-0.9,0-1.6,0.2-2,0.5
			c-0.5,0.3-0.7,0.8-0.7,1.3c0,0.4,0.1,0.7,0.4,0.9s0.6,0.4,1,0.6s0.9,0.3,1.6,0.4c0.8,0.2,1.5,0.4,2,0.6c0.5,0.2,1,0.5,1.3,0.9
			c0.4,0.4,0.6,1,0.6,1.7c0,0.6-0.2,1.1-0.5,1.6c-0.3,0.5-0.8,0.9-1.5,1.2c-0.7,0.3-1.5,0.4-2.4,0.4C350.9,72,350.1,71.8,349.3,71.6
			z"/>
		<path class="st2" d="M357.3,75c0.6-1.1,1.1-2.3,1.4-3.5c0.3-1.2,0.5-2.6,0.5-4s-0.2-2.8-0.5-4c-0.3-1.2-0.8-2.4-1.4-3.5h1.5
			c0.6,1,1.1,2.1,1.4,3.4c0.3,1.3,0.5,2.7,0.5,4.1c0,1.5-0.2,2.8-0.5,4.1s-0.8,2.4-1.4,3.4H357.3z"/>
	</g>
</g>
</svg>
