<?xml version="1.0" encoding="utf-8"?>
<!-- Generator: Adobe Illustrator 25.4.1, SVG Export Plug-In . SVG Version: 6.00 Build 0)  -->
<svg version="1.1" id="Capa_1" xmlns="http://www.w3.org/2000/svg" xmlns:xlink="http://www.w3.org/1999/xlink" x="0px" y="0px"
	 viewBox="0 0 514.6 514.7" style="enable-background:new 0 0 514.6 514.7;" xml:space="preserve">
<style type="text/css">
	.st0{opacity:0.12;}
	.st1{fill:#030A4C;}
	.st2{opacity:0.15;fill:#030A4C;}
	.st3{fill:none;stroke:#030A4C;stroke-linecap:round;stroke-linejoin:round;stroke-miterlimit:10;}
	.st4{fill:#030A4C;stroke:#030A4C;stroke-linecap:round;stroke-linejoin:round;stroke-miterlimit:10;}
	
		.st5{clip-path:url(#SVGID_00000150793227056941499840000005718840655618624177_);fill:none;stroke:#030A4C;stroke-linecap:round;stroke-linejoin:round;stroke-miterlimit:10;}
	
		.st6{clip-path:url(#SVGID_00000076582431378017493200000001155513216632570812_);fill:none;stroke:#030A4C;stroke-linecap:round;stroke-linejoin:round;stroke-miterlimit:10;}
	
		.st7{clip-path:url(#SVGID_00000012444298330798114070000013289583659588450974_);fill:none;stroke:#030A4C;stroke-linecap:round;stroke-linejoin:round;stroke-miterlimit:10;}
	
		.st8{clip-path:url(#SVGID_00000143603974279356259240000011416229150367178118_);fill:none;stroke:#030A4C;stroke-linecap:round;stroke-linejoin:round;stroke-miterlimit:10;}
	.st9{fill:#DFEB6A;}
	.st10{fill:#D9E140;}
	.st11{opacity:0.15;fill:#452499;}
	.st12{fill:#FFFFFF;}
	.st13{fill:none;stroke:#2C2355;stroke-linecap:round;stroke-linejoin:round;stroke-miterlimit:10;}
	.st14{fill:#2C2355;}
	.st15{fill:#7E4BFE;}
	.st16{fill:#FF614C;}
	.st17{fill:#F04F44;}
	.st18{fill:#2C2355;stroke:#2C2355;stroke-linecap:round;stroke-linejoin:round;stroke-miterlimit:10;}
	.st19{fill:#FF51F7;}
	.st20{clip-path:url(#SVGID_00000030450659516446658940000002027255055852695195_);}
	.st21{fill:none;stroke:#FF79F8;stroke-linecap:round;stroke-linejoin:round;stroke-miterlimit:10;}
	.st22{clip-path:url(#SVGID_00000172442454897320785520000011310274086991471250_);}
	.st23{fill:#FF79F8;}
	.st24{clip-path:url(#SVGID_00000078742538304942848250000002845311149448429716_);}
	.st25{fill:#DD38BE;}
	.st26{clip-path:url(#SVGID_00000145049998218671191540000013070386029684592573_);}
</style>
<g>
	<g class="st0">
		<g>
			<defs>
				<path id="SVGID_1_" d="M182,264.9c-13.5,9-25.7,19.9-36,32.4c-25.6,30.7-40,70.7-39.8,110.7c0,1.7,0,3.4,0.1,5.1h85.3
					c0,0,8.9-52.4,7.2-83.5C197.2,298.4,182,264.9,182,264.9z"/>
			</defs>
			<clipPath id="SVGID_00000150098237974660090980000008673400927248165506_">
				<use xlink:href="#SVGID_1_"  style="overflow:visible;"/>
			</clipPath>
		</g>
		<g>
			<defs>
				<path id="SVGID_00000139284285457868066690000002781178282057376177_" d="M182,264.9c19.8-13.3,44.3-22.2,67.8-26.4
					c25.6-1.8,52.6-3.3,75.4,8.4c24.7,12.6,40.3,39.3,43.7,66.8c3.4,27.5-4.3,55.4-18.9,82.4c6.1,36,12.2,71.9,15.7,109.8
					c-66.3,20.2-138.5,20.5-204.6-0.1c1.2-28.3,5.3-56.6,12.5-83.6C188.9,371.4,191.8,316.9,182,264.9"/>
			</defs>
			<clipPath id="SVGID_00000042001115893625468360000002242427551540994724_">
				<use xlink:href="#SVGID_00000139284285457868066690000002781178282057376177_"  style="overflow:visible;"/>
			</clipPath>
		</g>
		<g>
			<defs>
				<path id="SVGID_00000112632309124495138020000016235366442512354494_" d="M257.7,423.2L240.3,397l0,0c-29.9,1.1-59.8,3.4-89.5,7
					l-44.5,9.1c0.7,16,4.6,32.4,16.1,43.2c10.2,9.7,24.7,13.2,38.7,15.2c27.8,3.9,56.1,2.8,83.6-2.5L257.7,423.2z"/>
			</defs>
			<clipPath id="SVGID_00000178900930795575684450000017869662087699166368_">
				<use xlink:href="#SVGID_00000112632309124495138020000016235366442512354494_"  style="overflow:visible;"/>
			</clipPath>
		</g>
		<g>
			<defs>
				<path id="SVGID_00000173143267393982518090000006385139807533811135_" d="M387.8,307.1c3.8,10.6,7.1,21.3,10.2,31.9
					c7,24.3,13,50.3,6.1,74.6c-2.3,8-6,15.7-12.2,21.2c-7.7,6.9-18.7,9.5-28.8,7.6c-10.1-2-19.1-8.4-24.9-16.9
					c-7.6-11.3-9.4-25.5-11-39c-2.7-23.2-5.4-46.4-8.1-69.6"/>
			</defs>
			<clipPath id="SVGID_00000143594174117262343560000005815506884640246445_">
				<use xlink:href="#SVGID_00000173143267393982518090000006385139807533811135_"  style="overflow:visible;"/>
			</clipPath>
		</g>
		<path class="st1" d="M357.4,115.3c32.8,41.8,92.7,56,121.6,100.6c21,32.4,30.7,71.9,27.1,110.4c-6.4,69.6-56,130.8-118.6,161.8
			c-69.1,34.3-154.2,34.5-223.5,0.5c-69.3-34-121.2-101.5-136.3-177.2s6.8-157.9,57.6-216c36.2-41.4,88.3-71,143.3-71.3
			C283.5,23.9,319.9,67.5,357.4,115.3z"/>
		<path class="st1" d="M420.1,240.2c-76.6-12-117.4,84.1-163.7,86c-46.3,1.9-101.3-23-133.7-57.1c-27-28.5-62.3-34.3-99.5,8
			c0.6,11.5,2.1,23,4.3,34.4c15.2,75.7,67.1,143.1,136.3,177.2c69.3,34,154.4,33.8,223.5-0.5c60.8-30.2,109.4-88.9,118-156.1
			C489.2,292.1,461.8,246.7,420.1,240.2z"/>
		<path class="st2" d="M335.3,227.1l-13.1-42.8c11.1-12.7,6.2-23.2,6.2-23.2l-31.1-19.6l0.7-23.6l-144.3,1.8
			c-13.4,22.4,2.4,43.8,2.4,43.8l-7.2,11.4c-13.2,21.2,7.7,29.7,7.7,29.7L146,229.4c-10.7,40.5,26.6,46.7,26.6,46.7
			c-87.3,73.2-77.7,143.8-70.2,169.5c18.2,17.3,38.9,31.9,61.4,43c66.2,32.5,146.9,33.8,214.3,3.8l-8.5-41
			c20.8,1.2,46.5-3.2,41-67.1C405.2,320.4,335.3,227.1,335.3,227.1z"/>
		<path class="st1" d="M363.6,186.6c0,0-0.1,0-0.1,0c-0.4-0.1-0.8-0.4-0.9-0.8c-1.7-7.4-2.8-13.8-3.8-20.1
			c-6.8-0.1-13.5-0.4-19.8-0.9c-10.7-0.9-19.3-9.2-20.5-19.9c-3.4-29.8-4.2-61.2-2.5-93.3c0.6-10.5,8.3-19.2,18.8-21
			c20.7-3.6,41.8-4.1,62.6-1.3c9.5,1.3,17.2,8.6,19.1,18.2c0,0,0,0,0,0c6.3,31.8,8.3,62.6,6.2,94.3c-0.7,10.6-8.8,19.4-19.2,21
			c-9.1,1.3-18.5,2.3-28,2.7L364.5,186C364.4,186.4,364,186.6,363.6,186.6z"/>
		<path class="st2" d="M317.2,132.6c0.4,4.1,0.8,8.2,1.2,12.2c1.2,10.6,9.8,19,20.5,19.9c6.3,0.5,13,0.8,19.8,0.9
			c1,6.4,2,12.7,3.8,20.1c0.1,0.4,0.5,0.8,0.9,0.8c0,0,0.1,0,0.1,0c0.4,0,0.8-0.2,1-0.6l10.9-20.7c9.5-0.5,18.9-1.4,28-2.7
			c10.4-1.5,18.5-10.4,19.2-21c0.8-11.6,1-23.1,0.7-34.6C392.3,132.6,334.2,133.1,317.2,132.6z"/>
		<path class="st3" d="M353.6,28.1c14.5-1.2,29.2-0.8,43.7,1.1c9.5,1.3,17.2,8.6,19.1,18.2c0,0,0,0,0,0c6.3,31.8,8.3,62.6,6.2,94.3
			c-0.7,10.6-8.8,19.4-19.2,21c-9.1,1.3-18.5,2.3-28,2.7L364.5,186c-0.2,0.4-0.6,0.6-1,0.6c0,0-0.1,0-0.1,0
			c-0.4-0.1-0.8-0.4-0.9-0.8c-1.7-7.4-2.8-13.8-3.8-20.1c-6.8-0.1-13.5-0.4-19.8-0.9c-10.7-0.9-19.3-9.2-20.5-19.9
			c-3.4-29.8-4.2-61.2-2.5-93.3c0.4-8.5,5.5-15.7,12.9-19.2"/>
		<path class="st3" d="M334.7,30.5c2.1-0.4,4.3-0.7,6.4-1"/>
		<path class="st1" d="M358.9,73c-0.8-1.3-1.4-2.9-2-4.8c-0.5-1.9-0.8-4.1-0.8-6.8c0-2.6,0.3-5,1-7c0.7-2,1.6-3.6,2.8-4.9
			c1.2-1.3,2.6-2.2,4.2-2.8c1.6-0.6,3.4-0.9,5.4-0.9c5.3,0,9.3,2.6,12.1,8c2.7,5.3,4.1,12.3,4.2,21c0.1,16.3-4.9,26.7-15.1,31.4
			l-2.5,1.1c-2.6,1.2-5.7-0.2-6.5-2.9c0,0,0,0,0-0.1c-0.7-2.4-1-5.2-1.1-8.5c0-3.2-1.7-13.8-1-15.4 M356.8,122.9
			c0-2.7,0.8-4.9,2.5-6.6c1.7-1.7,4-2.6,6.9-2.6c2.9,0,5.2,0.8,6.9,2.6c1.7,1.7,2.5,3.9,2.5,6.6c0,2.7-0.8,4.9-2.5,6.6
			c-1.7,1.7-4,2.6-6.9,2.6c-2.9,0-5.2-0.8-6.9-2.6C357.7,127.7,356.8,125.5,356.8,122.9z"/>
		<path class="st1" d="M186.8,273.2c-18.3,0.9-36.4-11.8-41.8-29.2c-5.4-17.5,2.4-38.1,16.7-46c-0.9-10.2-1.1-20.4-0.1-33.2
			c-11.9-13-15.3-33.1-8.4-49.4c6.9-16.2,23.8-27.7,40.2-27.8c6.1-9.8,17.1-15.7,28.3-18.8c14.2-3.9,29.6-3.7,43.5,1.4
			c13.8,5.1,25.9,15.3,32.2,28.6c6.4,13.3,6.8,29.5,0.1,42.6c0,0,9.5,34.8,10.1,36.4c11.3-1.2,22.7,5.5,28.5,15.2
			c5.8,9.8,6.4,22.1,3.1,33c-3.3,10.9-10.3,20.4-18.6,28.1L186.8,273.2z"/>
		<path class="st1" d="M232.9,209.7c0.8,12.9,1.6,25.8,3.1,39.9c10.1,1.8,20.7,0.5,30.1-3.5c-2.2-12.5-4.5-25.1-6.7-37.6
			L232.9,209.7z"/>
		<path class="st1" d="M261.5,220.7c-0.7-4.1-1.5-8.1-2.2-12.2l-26.5,1.2c0.3,4.4,0.6,8.8,0.9,13.2
			C240.3,224.4,250.5,225.2,261.5,220.7z"/>
		<path class="st1" d="M180.1,157.2c-9.2-3.2-20.2-0.6-27,6.4c-6.8,7-9,18.1-5.3,27.1c3.7,9,13.2,15.3,23,15.2
			c9.7-0.2,19.1-6.9,22.1-16.2L180.1,157.2z"/>
		<path class="st3" d="M158.1,187.7c0.2-3.9,2-7.7,5-10.3c2.9-2.6,6.9-4,10.9-3.7"/>
		<path class="st3" d="M164.9,176c1.7,5.2,5.8,9.6,10.8,11.7"/>
		<path class="st1" d="M175.9,201.2c-3.1-2.2-8.3,0.1-8.7,3.9c-0.4,3.8,4.2,7.1,7.7,5.5C178.5,209.1,179.1,203.5,175.9,201.2z"/>
		<path class="st1" d="M287.2,141c7.2-6.6,18.3-8.6,27.3-4.9c9,3.7,15.5,13,15.6,22.8c0.2,9.7-6,19.3-15.1,23
			c-9,3.7-20.3,1.2-26.7-6.1L287.2,141z"/>
		<path class="st3" d="M319.4,160.3c-1.7-3.5-4.9-6.3-8.6-7.5c-3.7-1.2-7.9-0.9-11.4,0.9"/>
		<path class="st3" d="M308.6,152.3c0.5,5.5-1.5,11.1-5.3,15"/>
		<path class="st1" d="M302.4,180.7c2-3.3,7.6-3.2,9.5,0.2c1.9,3.3-1.1,8.2-4.9,8.1C303.1,188.9,300.4,184,302.4,180.7z"/>
		<path class="st1" d="M289.6,133.3c1.1,13.1,1.5,32.8-1.1,45.7c-2.6,12.9-9.3,25.6-20.6,32.3c-12.8,7.7-29,6.5-43.5,2.9
			c-7.4-1.8-14.8-4.3-21.2-8.6c-7.8-5.3-13.7-13.1-18-21.5c-4.3-8.4-7.1-17.5-8.9-27.6c9.6-9.8,17.2-21.5,22.4-34.1
			c1.8,4.3,4,8.4,6.6,12.2c0.9,1.3,2.3,2.8,3.9,2.4c1.7-0.5,2-2.8,1.9-4.5c-0.3-4.5-1.2-8.9-1.3-12.8
			C232.2,135.1,261.2,135.4,289.6,133.3z"/>
		<path class="st1" d="M285.2,183c-5.7-4.4-14.8-3.4-19.4,2.2c-4.5,5.6-3.7,14.7,1.8,19.4c1.6,1.4,3.5,2.3,5.6,2.8
			c6.6-5.9,11.2-14,13.8-22.6C286.4,184.1,285.8,183.5,285.2,183z"/>
		<path class="st1" d="M213,184.6c-5.7-4.4-14.8-3.4-19.4,2.2c-1.6,1.9-2.5,4.3-2.8,6.8c3.4,4.7,7.4,8.8,12.2,12
			c1.8,1.2,3.6,2.2,5.5,3.2c2.7-0.8,5.2-2.4,7-4.9C220,198.2,218.7,189.1,213,184.6z"/>
		<path class="st4" d="M237,190.2c-3.1,0.3-6.1-2.2-6.4-5.3c-0.3-3,2.1-6.1,5.1-6.6c3-0.4,6.2,1.9,6.7,4.9
			C242.9,186.3,240.7,189.9,237,190.2z"/>
		<path class="st3" d="M242,151.9c3.3,2.8,7.3,4.9,11.5,6.1l-6.7,4.2"/>
		<path class="st4" d="M270.2,156.7c1.6-0.1,2.7-2.1,1.9-3.5c-0.8-1.4-3.1-1.5-4-0.1C267.2,154.4,268.2,156.8,270.2,156.7z"/>
		<path class="st3" d="M260.1,143.6c7.1-1.9,15.1-0.1,20.8,4.6"/>
		<path class="st4" d="M216.6,161.9c1.4-0.8,1.5-3.1,0.2-4c-1.3-0.9-3.5,0.1-3.6,1.7C213,161.1,214.9,162.8,216.6,161.9z"/>
		<path class="st3" d="M205.4,148.1c2.2-3.7,6.4-6.1,10.7-6.1c4.3,0,8.5,2.4,10.7,6.1"/>
		<path class="st1" d="M182,264.9c-13.5,9-25.7,19.9-36,32.4c-25.6,30.7-40,70.7-39.8,110.7c0,1.7,0,3.4,0.1,5.1h85.3
			c0,0,8.9-52.4,7.2-83.5C197.2,298.4,182,264.9,182,264.9z"/>
		<g>
			<defs>
				<path id="SVGID_00000048503452393447094810000011237060305290441372_" d="M182,264.9c-13.5,9-25.7,19.9-36,32.4
					c-25.6,30.7-40,70.7-39.8,110.7c0,1.7,0,3.4,0.1,5.1h85.3c0,0,8.9-52.4,7.2-83.5C197.2,298.4,182,264.9,182,264.9z"/>
			</defs>
			<clipPath id="SVGID_00000098909314586595394730000012058139567583761834_">
				<use xlink:href="#SVGID_00000048503452393447094810000011237060305290441372_"  style="overflow:visible;"/>
			</clipPath>
			
				<path style="clip-path:url(#SVGID_00000098909314586595394730000012058139567583761834_);fill:none;stroke:#030A4C;stroke-linecap:round;stroke-linejoin:round;stroke-miterlimit:10;" d="
				M134,306.4c20.4,8.1,39,20.7,54.3,36.5"/>
			
				<path style="clip-path:url(#SVGID_00000098909314586595394730000012058139567583761834_);fill:none;stroke:#030A4C;stroke-linecap:round;stroke-linejoin:round;stroke-miterlimit:10;" d="
				M111,353.6c26.6,4.9,52.7,12.2,78.1,21.6"/>
			
				<path style="clip-path:url(#SVGID_00000098909314586595394730000012058139567583761834_);fill:none;stroke:#030A4C;stroke-linecap:round;stroke-linejoin:round;stroke-miterlimit:10;" d="
				M102,400c27.2-3.7,54.8-4.2,82-1.5"/>
		</g>
		<path class="st1" d="M368.9,313.6c-3.4-27.5-19-54.2-43.7-66.8c-7.5-3.8-15.4-6.2-23.6-7.6l-38.3,27.4l-60.4-13.3
			c-7.3,3.4-14.3,7.3-20.8,11.6l0-0.1c9.8,52.1,6.9,106.5-8.4,157.3c-5.6,21.3-9.4,43.4-11.3,65.6c0.6,0.3,1.1,0.6,1.7,0.8
			c61.9,30.4,136.5,33.5,201,9.3c-3.6-35-9.2-68.4-14.9-101.8C364.6,369.1,372.3,341.1,368.9,313.6z"/>
		<g>
			<defs>
				<path id="SVGID_00000049909832540502462390000010405572530943345068_" d="M182,264.9c19.8-13.3,44.3-22.2,67.8-26.4
					c25.6-1.8,52.6-3.3,75.4,8.4c24.7,12.6,40.3,39.3,43.7,66.8c3.4,27.5-4.3,55.4-18.9,82.4c6.1,36,12.2,71.9,15.7,109.8
					c-66.3,20.2-138.5,20.5-204.6-0.1c1.2-28.3,5.3-56.6,12.5-83.6C188.9,371.4,191.8,316.9,182,264.9"/>
			</defs>
			<clipPath id="SVGID_00000177442526096589406350000012848310940699433650_">
				<use xlink:href="#SVGID_00000049909832540502462390000010405572530943345068_"  style="overflow:visible;"/>
			</clipPath>
			
				<path style="clip-path:url(#SVGID_00000177442526096589406350000012848310940699433650_);fill:none;stroke:#030A4C;stroke-linecap:round;stroke-linejoin:round;stroke-miterlimit:10;" d="
				M369.3,444.8c0,0-123.3-3.2-208.2,4.5"/>
			
				<path style="clip-path:url(#SVGID_00000177442526096589406350000012848310940699433650_);fill:none;stroke:#030A4C;stroke-linecap:round;stroke-linejoin:round;stroke-miterlimit:10;" d="
				M152.6,483.9c0,0,131.9-5.3,225.4,2.8"/>
			
				<path style="clip-path:url(#SVGID_00000177442526096589406350000012848310940699433650_);fill:none;stroke:#030A4C;stroke-linecap:round;stroke-linejoin:round;stroke-miterlimit:10;" d="
				M178,282.9c58.1-16.6,119.5-21.8,179.6-15.4"/>
			
				<path style="clip-path:url(#SVGID_00000177442526096589406350000012848310940699433650_);fill:none;stroke:#030A4C;stroke-linecap:round;stroke-linejoin:round;stroke-miterlimit:10;" d="
				M177.2,320.4c65.7-15.3,133.5-21.1,200.9-17.1"/>
			
				<path style="clip-path:url(#SVGID_00000177442526096589406350000012848310940699433650_);fill:none;stroke:#030A4C;stroke-linecap:round;stroke-linejoin:round;stroke-miterlimit:10;" d="
				M181.8,355.6c64.4-16.2,131.4-22.3,197.6-17.9"/>
			
				<path style="clip-path:url(#SVGID_00000177442526096589406350000012848310940699433650_);fill:none;stroke:#030A4C;stroke-linecap:round;stroke-linejoin:round;stroke-miterlimit:10;" d="
				M180.2,387.4c59.5-9.7,120.4-11.2,180.4-4.5"/>
		</g>
		<path class="st2" d="M350,396c3.1-5.8,6-11.7,8.4-17.6c-3.8-41.2-8.6-93-9-94.4c-0.3-1.2-2.6-12.2-4.6-22.5
			c-5.7-5.9-12.2-11-19.6-14.7c-6.6-3.4-13.6-5.6-20.7-7.1l4,67.4c0,0-2.6,6.2-2.1,16.2s3.5,13.6,3.5,13.6s-0.8,42.4,3.2,64.6
			c1.6,8.5,3.1,14.5,4.5,18.7l-148.1,19.4c-3.2,14.9-5.5,30.1-6.9,45.5c11.1,1.7,34.6,4.1,66.2,0.7c0,0,14.3,5.1,35.8-6
			c0,0,44.5-12.6,75.6-33.7c0,0,7.4,7.8,19.3,7.6C356.5,434.4,353.3,415.2,350,396z"/>
		<path class="st3" d="M162.2,487.8c1.9-22.3,5.7-44.4,11.3-65.6c11.5-37.9,16-77.8,13.4-117.3"/>
		<path class="st1" d="M292.1,238l-31.2,23.9l-50.3-12c-2.6,1.1-5.2,2.2-7.7,3.3c11,18.9,34.3,30.1,55.9,26.3
			c20.5-3.6,37.8-20.3,42.9-40.4C298.5,238.7,295.3,238.3,292.1,238z"/>
		<path class="st3" d="M350,396c5.7,33.4,11.3,66.9,14.9,101.8"/>
		<path class="st1" d="M292.2,238c-13.9-1.3-28.4-0.4-42.4,0.5c-13.1,2.3-26.5,6.2-39.3,11.5c9,15.5,28,24.9,45.8,21.9
			C273.6,269,288.1,254.8,292.2,238z"/>
		<path class="st1" d="M257.7,423.2L240.3,397l0,0c-29.9,1.1-59.8,3.4-89.5,7l-44.5,9.1c0.7,16,4.6,32.4,16.1,43.2
			c10.2,9.7,24.7,13.2,38.7,15.2c27.8,3.9,56.1,2.8,83.6-2.5L257.7,423.2z"/>
		<g>
			<defs>
				<path id="SVGID_00000098217696345978461740000002243561450226598328_" d="M257.7,423.2L240.3,397l0,0c-29.9,1.1-59.8,3.4-89.5,7
					l-44.5,9.1c0.7,16,4.6,32.4,16.1,43.2c10.2,9.7,24.7,13.2,38.7,15.2c27.8,3.9,56.1,2.8,83.6-2.5L257.7,423.2z"/>
			</defs>
			<clipPath id="SVGID_00000135671507481970330710000004911636129516399492_">
				<use xlink:href="#SVGID_00000098217696345978461740000002243561450226598328_"  style="overflow:visible;"/>
			</clipPath>
			
				<path style="clip-path:url(#SVGID_00000135671507481970330710000004911636129516399492_);fill:none;stroke:#030A4C;stroke-linecap:round;stroke-linejoin:round;stroke-miterlimit:10;" d="
				M131.7,467c26.2-16.2,46.1-42.1,55.1-71.5"/>
			
				<path style="clip-path:url(#SVGID_00000135671507481970330710000004911636129516399492_);fill:none;stroke:#030A4C;stroke-linecap:round;stroke-linejoin:round;stroke-miterlimit:10;" d="
				M207.3,395.8c-2.9,28-8.5,55.7-16.6,82.7"/>
		</g>
		<path class="st2" d="M175.7,458.2c-31-2.5-53.8-17.3-67.5-29.2c2.2,10.4,6.5,20.1,14.2,27.4c10.2,9.7,24.7,13.2,38.7,15.2
			c27.8,3.9,56.1,2.8,83.6-2.5l6-21.3C225.1,454.6,197.3,459.9,175.7,458.2z"/>
		<path class="st3" d="M106.3,413.1c0.7,16,4.6,32.4,16.1,43.2c10.2,9.7,24.7,13.2,38.7,15.2c27.8,3.9,56.1,2.8,83.6-2.5l12.9-45.7
			L240.3,397l0,0c-29.9,1.1-59.8,3.4-89.5,7"/>
		<path class="st1" d="M342.1,398.3c-33.9-2.1-67.9-2.5-101.8-1.3c-0.5,19.6-0.1,47.8,4.5,72c37.1-7.2,73-22.1,104.7-42.9
			C349.5,426.1,345.7,397.2,342.1,398.3z"/>
		<path class="st1" d="M321.7,423.7c0,0-38.2,16-79.7,26.3c0.7,6.4,1.6,12.8,2.8,19c37.1-7.2,73-22.1,104.7-42.9
			c0,0-3.8-28.9-7.4-27.8c-8.7-0.5-17.3-0.9-26-1.3C317.8,413.7,321.7,423.7,321.7,423.7z"/>
		<path class="st1" d="M254.4,397.1c6.1,22.2,8.2,45.4,6.1,68.2c-0.1,1.2-0.9,2.3-2,2.8c-8.1,3.6-17.3,5-26,3.8
			c-1.4-0.2-2.5-1.3-2.8-2.6c-5.1-23.5-6.3-47.2-4.2-70.2c0.1-1.4,1.1-2.6,2.5-3c7.5-1.9,15.3-2.4,23.5-1.5
			C252.9,394.7,254.1,395.7,254.4,397.1z"/>
		<path class="st2" d="M229.7,469.2c0.3,1.4,1.4,2.4,2.8,2.6c8.7,1.2,17.9-0.2,26-3.8c1.1-0.5,1.9-1.6,2-2.8
			c0.6-6.8,0.8-13.7,0.7-20.5c-11,3.2-22.7,6.3-34.4,8.7C227.6,458.7,228.5,464,229.7,469.2z"/>
		<path class="st3" d="M254.4,397.1c6.1,22.2,8.2,45.4,6.1,68.2c-0.1,1.2-0.9,2.3-2,2.8c-8.1,3.6-17.3,5-26,3.8
			c-1.4-0.2-2.5-1.3-2.8-2.6c-5.1-23.5-6.3-47.2-4.2-70.2c0.1-1.4,1.1-2.6,2.5-3c7.5-1.9,15.3-2.4,23.5-1.5
			C252.9,394.7,254.1,395.7,254.4,397.1z"/>
		<path class="st1" d="M387.8,307.1c-12.1-34-28.9-66.5-56.6-91.6c-11.8-17.5-25.2-33.9-40.1-48.8c-0.9-0.9-1.9-1.8-3.1-2.3
			c-1.2-0.4-2.7-0.3-3.5,0.8c-1.1,1.4-0.2,3.4,0.7,4.9c4.2,7.3,8.7,14.5,13.3,21.6c-3.8,0.7-6.8,1.6-9.4,3.1
			c-1.4-3.6-3.7-7.4-6.7-10.7c-0.6-0.6-1.1-1.2-1.9-1.5c-0.7-0.3-1.7-0.4-2.3,0.2c-0.8,0.6-0.9,1.8-0.8,2.8
			c0.4,5.8,4.1,10.8,7.6,15.4c3.2,13.7,12.3,24.7,24.1,30.7c3.4,28.7,6.8,57,10.1,85.2c0,0,20.1,8.4,43,3.5S387.8,307.1,387.8,307.1
			z"/>
		<path class="st3" d="M331.2,215.6c-11.8-17.5-25.2-33.9-40.1-48.8c-0.9-0.9-1.9-1.8-3.1-2.3c-1.2-0.4-2.7-0.3-3.5,0.8
			c-1.1,1.4-0.2,3.4,0.7,4.9c4.2,7.3,8.7,14.5,13.3,21.6c-3.8,0.7-6.8,1.6-9.4,3.1c-1.4-3.6-3.7-7.4-6.7-10.7
			c-0.6-0.6-1.1-1.2-1.9-1.5c-0.7-0.3-1.7-0.4-2.3,0.2c-0.8,0.6-0.9,1.8-0.8,2.8c0.4,5.8,4.1,10.8,7.6,15.4
			c3.2,13.7,12.3,24.7,24.1,30.7c3.4,28.7,6.8,57,10.1,85.2"/>
		<path class="st1" d="M315.8,217.3c-3.2-0.1-6.4-1.2-8.9-3.3c-2.5-2-4.3-4.9-5-8.1c-2.7-0.5-4.9,0.6-6.7,2
			c-1.8,1.4-3.4,3.1-5.1,4.6c-1.2,1-2.8,1.9-4.1,1.1c-1.3-0.8-1.3-2.7-0.9-4.2c0.5-2.1,1.5-4.1,2.7-5.8l0,0
			c-2.5,1.7-4.6,3.8-6.1,6.3c-0.6,0.9-1.1,1.9-1.9,2.7c-0.8,0.8-1.9,1.4-3,1.2c-1.1-0.2-1.9-1.1-2.3-2.1c-0.4-1-0.3-2.2-0.1-3.2
			c0.5-2.9,1.9-5.4,3.9-7.6c-1.5,0.8-2.9,1.8-4.2,3c-1.3,1.1-2.8,2.5-4.5,2.2c-1.5-0.3-2.4-1.9-2.3-3.4c0-1.5,0.8-2.9,1.6-4.1
			c6.1-8.8,22-13.5,32.2-8.1"/>
		<path class="st3" d="M296.2,197.1c-3.4,1.3-6.3,3.6-8.4,6.5"/>
		<path class="st3" d="M315.8,217.3c-3.2-0.1-6.4-1.2-8.9-3.3c-2.5-2-4.3-4.9-5-8.1c-2.7-0.5-4.9,0.6-6.7,2
			c-1.8,1.4-3.4,3.1-5.1,4.6c-1.2,1-2.8,1.9-4.1,1.1c-1.3-0.8-1.3-2.7-0.9-4.2c0.5-2.1,1.5-4.1,2.7-5.8l0,0
			c-2.5,1.7-4.6,3.8-6.1,6.3c-0.6,0.9-1.1,1.9-1.9,2.7c-0.8,0.8-1.9,1.4-3,1.2c-1.1-0.2-1.9-1.1-2.3-2.1c-0.4-1-0.3-2.2-0.1-3.2
			c0.5-2.9,1.9-5.4,3.9-7.6c-1.5,0.8-2.9,1.8-4.2,3c-1.3,1.1-2.8,2.5-4.5,2.2c-1.5-0.3-2.4-1.9-2.3-3.4c0-1.5,0.8-2.9,1.6-4.1
			c6.1-8.8,22-13.5,32.2-8.1"/>
		<path class="st3" d="M293.3,192.9c-3.5,0.9-6.9,2-10,3.9c-1.9,1.1-3.6,2.5-5,4.1"/>
		<path class="st1" d="M387.8,307.1c3.8,10.6,7.1,21.3,10.2,31.9c7,24.3,13,50.3,6.1,74.6c-2.3,8-6,15.7-12.2,21.2
			c-7.7,6.9-18.7,9.5-28.8,7.6c-10.1-2-19.1-8.4-24.9-16.9c-7.6-11.3-9.4-25.5-11-39c-2.7-23.2-5.4-46.4-8.1-69.6"/>
		<g>
			<defs>
				<path id="SVGID_00000039840413224109363330000014868919568001334418_" d="M387.8,307.1c3.8,10.6,7.1,21.3,10.2,31.9
					c7,24.3,13,50.3,6.1,74.6c-2.3,8-6,15.7-12.2,21.2c-7.7,6.9-18.7,9.5-28.8,7.6c-10.1-2-19.1-8.4-24.9-16.9
					c-7.6-11.3-9.4-25.5-11-39c-2.7-23.2-5.4-46.4-8.1-69.6"/>
			</defs>
			<clipPath id="SVGID_00000142858145446126052600000003965018523402581158_">
				<use xlink:href="#SVGID_00000039840413224109363330000014868919568001334418_"  style="overflow:visible;"/>
			</clipPath>
			
				<path style="clip-path:url(#SVGID_00000142858145446126052600000003965018523402581158_);fill:none;stroke:#030A4C;stroke-linecap:round;stroke-linejoin:round;stroke-miterlimit:10;" d="
				M320,359.7c28.4,3.5,57.7-0.6,84-11.6"/>
			
				<path style="clip-path:url(#SVGID_00000142858145446126052600000003965018523402581158_);fill:none;stroke:#030A4C;stroke-linecap:round;stroke-linejoin:round;stroke-miterlimit:10;" d="
				M324.6,390.8c28.2,5.7,58.1,3,84.9-7.6"/>
			
				<path style="clip-path:url(#SVGID_00000142858145446126052600000003965018523402581158_);fill:none;stroke:#030A4C;stroke-linecap:round;stroke-linejoin:round;stroke-miterlimit:10;" d="
				M333.5,423.8c24,4.8,49.5,2.1,72-7.6"/>
		</g>
		<path class="st2" d="M327.2,386.5c1.6,13.6,3.4,27.7,11,39c5.7,8.5,14.8,14.9,24.9,16.9c10.1,2,21.1-0.7,28.8-7.6
			c6.2-5.5,9.9-13.3,12.2-21.2c1.3-4.5,2.1-9,2.6-13.5c-9.1,8.9-22,16.1-39.1,12.8c-21.7-4.1-34.4-20.8-41.3-34.5
			C326.5,381.2,326.8,383.9,327.2,386.5z"/>
		<path class="st3" d="M404.1,413.7c-2.3,8-6,15.7-12.2,21.2c-7.7,6.9-18.7,9.5-28.8,7.6c-10.1-2-19.1-8.4-24.9-16.9
			c-7.6-11.3-9.4-25.5-11-39c-2.7-23.2-5.4-46.4-8.1-69.6"/>
		<path class="st1" d="M387.2,297.3c6.2,7.8,9.2,18,8.4,27.9c-0.2,2.5-1.9,4.7-4.3,5.6c-21.4,7.9-45.6,10.3-68.8,6.6
			c-3-0.5-5.4-2.9-5.7-6c-0.6-6.4-1.1-12.6-1.4-18.7c-0.1-2.9,1.6-5.7,4.4-6.6c19-6.7,39.2-10.3,61.9-11.3
			C383.8,294.7,385.9,295.6,387.2,297.3z"/>
		<path class="st3" d="M387.2,297.3c6.2,7.8,9.2,18,8.4,27.9c-0.2,2.5-1.9,4.7-4.3,5.6c-21.4,7.9-45.6,10.3-68.8,6.6
			c-3-0.5-5.4-2.9-5.7-6c-0.6-6.4-1.1-12.6-1.4-18.7c-0.1-2.9,1.6-5.7,4.4-6.6c19-6.7,39.2-10.3,61.9-11.3
			C383.8,294.7,385.9,295.6,387.2,297.3z"/>
		<g>
			<defs>
				<path id="SVGID_00000052085839094123059610000014272793524372468642_" d="M182,264.9c-13.5,9-25.7,19.9-36,32.4
					c-25.6,30.7-40,70.7-39.8,110.7c0,1.7,0,3.4,0.1,5.1h85.3c0,0,8.9-52.4,7.2-83.5C197.2,298.4,182,264.9,182,264.9z"/>
			</defs>
			<clipPath id="SVGID_00000047738982163030303520000011785889791107433373_">
				<use xlink:href="#SVGID_00000052085839094123059610000014272793524372468642_"  style="overflow:visible;"/>
			</clipPath>
		</g>
		<g>
			<defs>
				<path id="SVGID_00000040568555860686705200000016214687266144577963_" d="M182,264.9c19.8-13.3,44.3-22.2,67.8-26.4
					c25.6-1.8,52.6-3.3,75.4,8.4c24.7,12.6,40.3,39.3,43.7,66.8c3.4,27.5-4.3,55.4-18.9,82.4c6.1,36,12.2,71.9,15.7,109.8
					c-66.3,20.2-138.5,20.5-204.6-0.1c1.2-28.3,5.3-56.6,12.5-83.6C188.9,371.4,191.8,316.9,182,264.9"/>
			</defs>
			<clipPath id="SVGID_00000051358808544317594980000011492835466082171019_">
				<use xlink:href="#SVGID_00000040568555860686705200000016214687266144577963_"  style="overflow:visible;"/>
			</clipPath>
		</g>
		<g>
			<defs>
				<path id="SVGID_00000050625173178450830570000015756985031658223549_" d="M257.7,423.2L240.3,397l0,0c-29.9,1.1-59.8,3.4-89.5,7
					l-44.5,9.1c0.7,16,4.6,32.4,16.1,43.2c10.2,9.7,24.7,13.2,38.7,15.2c27.8,3.9,56.1,2.8,83.6-2.5L257.7,423.2z"/>
			</defs>
			<clipPath id="SVGID_00000011010745390100704650000004058603290785677495_">
				<use xlink:href="#SVGID_00000050625173178450830570000015756985031658223549_"  style="overflow:visible;"/>
			</clipPath>
		</g>
		<g>
			<defs>
				<path id="SVGID_00000120549614561507033190000013984234658071414406_" d="M387.8,307.1c3.8,10.6,7.1,21.3,10.2,31.9
					c7,24.3,13,50.3,6.1,74.6c-2.3,8-6,15.7-12.2,21.2c-7.7,6.9-18.7,9.5-28.8,7.6c-10.1-2-19.1-8.4-24.9-16.9
					c-7.6-11.3-9.4-25.5-11-39c-2.7-23.2-5.4-46.4-8.1-69.6"/>
			</defs>
			<clipPath id="SVGID_00000111911437975985891090000012144039587652706960_">
				<use xlink:href="#SVGID_00000120549614561507033190000013984234658071414406_"  style="overflow:visible;"/>
			</clipPath>
		</g>
	</g>
	<g>
		<g>
			<g>
				<g>
					<g>
						<g>
							<defs>
								<path id="SVGID_00000067204890126459891820000011964778809996743595_" d="M175,257.9c-13.5,9-25.7,19.9-36,32.4
									C113.4,321.1,99,361,99.2,401c0,1.7,0,3.4,0.1,5.1h85.3c0,0,8.9-52.4,7.2-83.5C190.2,291.4,175,257.9,175,257.9z"/>
							</defs>
							<clipPath id="SVGID_00000028287239721396451700000016804013041106898862_">
								<use xlink:href="#SVGID_00000067204890126459891820000011964778809996743595_"  style="overflow:visible;"/>
							</clipPath>
						</g>
					</g>
					<g>
						<g>
							<defs>
								<path id="SVGID_00000088122876302871582940000016406931443769624227_" d="M175,257.9c19.8-13.3,44.3-22.2,67.8-26.4
									c25.6-1.8,52.6-3.3,75.4,8.4c24.7,12.6,40.3,39.3,43.7,66.8c3.4,27.5-4.3,55.4-18.9,82.4c6.1,36,12.2,71.9,15.7,109.8
									c-66.3,20.2-138.5,20.5-204.6-0.1c1.2-28.3,5.3-56.6,12.5-83.6C181.9,364.4,184.8,309.9,175,257.9"/>
							</defs>
							<clipPath id="SVGID_00000181807027459553419710000018280435428177711544_">
								<use xlink:href="#SVGID_00000088122876302871582940000016406931443769624227_"  style="overflow:visible;"/>
							</clipPath>
						</g>
					</g>
					<g>
						<g>
							<g>
								<defs>
									<path id="SVGID_00000182515221677088414780000018405754538679766434_" d="M250.7,416.2L233.3,390l0,0
										c-29.9,1.1-59.8,3.4-89.5,7l-44.5,9.1c0.7,16,4.6,32.4,16.1,43.2c10.2,9.7,24.7,13.2,38.7,15.2c27.8,3.9,56.1,2.8,83.6-2.5
										L250.7,416.2z"/>
								</defs>
								<clipPath id="SVGID_00000044176844650685441550000004790231500278480542_">
									<use xlink:href="#SVGID_00000182515221677088414780000018405754538679766434_"  style="overflow:visible;"/>
								</clipPath>
							</g>
						</g>
					</g>
					<g>
						<g>
							<g>
								<g>
									<defs>
										<path id="SVGID_00000021112602839698268190000004986763723205197726_" d="M380.8,300.1c3.8,10.6,7.1,21.3,10.2,31.9
											c7,24.3,13,50.3,6.1,74.6c-2.3,8-6,15.7-12.2,21.2c-7.7,6.9-18.7,9.5-28.8,7.6c-10.1-2-19.1-8.4-24.9-16.9
											c-7.6-11.3-9.4-25.5-11-39c-2.7-23.2-5.4-46.4-8.1-69.6"/>
									</defs>
									<clipPath id="SVGID_00000073700843236883923570000001658506663992040367_">
										<use xlink:href="#SVGID_00000021112602839698268190000004986763723205197726_"  style="overflow:visible;"/>
									</clipPath>
								</g>
							</g>
						</g>
					</g>
				</g>
			</g>
		</g>
		<g>
			<g>
				<path class="st9" d="M350.4,108.3c32.8,41.8,92.7,56,121.6,100.6c21,32.4,30.7,71.9,27.1,110.4c-6.4,69.6-56,130.8-118.6,161.8
					c-69.1,34.3-154.2,34.5-223.5,0.5c-69.3-34-121.2-101.5-136.3-177.2s6.8-157.9,57.6-216c36.2-41.4,88.3-71,143.3-71.3
					C276.5,16.9,312.9,60.5,350.4,108.3z"/>
				<path class="st10" d="M413.1,233.2c-76.6-12-117.4,84.1-163.7,86c-46.3,1.9-101.3-23-133.7-57.1c-27-28.5-62.3-34.3-99.5,8
					c0.6,11.5,2.1,23,4.3,34.4c15.2,75.7,67.1,143.1,136.3,177.2c69.3,34,154.4,33.8,223.5-0.5c60.8-30.2,109.4-88.9,118-156.1
					C482.2,285.1,454.8,239.7,413.1,233.2z"/>
				<path class="st11" d="M328.3,220.1l-13.1-42.8c11.1-12.7,6.2-23.2,6.2-23.2l-31.1-19.6l0.7-23.6l-144.3,1.8
					c-13.4,22.4,2.4,43.8,2.4,43.8l-7.2,11.4c-13.2,21.2,7.7,29.7,7.7,29.7L139,222.4c-10.7,40.5,26.6,46.7,26.6,46.7
					c-87.3,73.2-77.7,143.8-70.2,169.5c18.2,17.3,38.9,31.9,61.4,43c66.2,32.5,146.9,33.8,214.3,3.8l-8.5-41
					c20.8,1.2,46.5-3.2,41-67.1C398.2,313.4,328.3,220.1,328.3,220.1z"/>
			</g>
			<g>
				<path class="st12" d="M356.6,179.6c0,0-0.1,0-0.1,0c-0.4-0.1-0.8-0.4-0.9-0.8c-1.7-7.4-2.8-13.8-3.8-20.1
					c-6.8-0.1-13.5-0.4-19.8-0.9c-10.7-0.9-19.3-9.2-20.5-19.9c-3.4-29.8-4.2-61.2-2.5-93.3c0.6-10.5,8.3-19.2,18.8-21
					c20.7-3.6,41.8-4.1,62.6-1.3c9.5,1.3,17.2,8.6,19.1,18.2c0,0,0,0,0,0c6.3,31.8,8.3,62.6,6.2,94.3c-0.7,10.6-8.8,19.4-19.2,21
					c-9.1,1.3-18.5,2.3-28,2.7L357.5,179C357.4,179.4,357,179.6,356.6,179.6z"/>
				<path class="st11" d="M310.2,125.6c0.4,4.1,0.8,8.2,1.2,12.2c1.2,10.6,9.8,19,20.5,19.9c6.3,0.5,13,0.8,19.8,0.9
					c1,6.4,2,12.7,3.8,20.1c0.1,0.4,0.5,0.8,0.9,0.8c0,0,0.1,0,0.1,0c0.4,0,0.8-0.2,1-0.6l10.9-20.7c9.5-0.5,18.9-1.4,28-2.7
					c10.4-1.5,18.5-10.4,19.2-21c0.8-11.6,1-23.1,0.7-34.6C385.3,125.6,327.2,126.1,310.2,125.6z"/>
				<g>
					<path class="st13" d="M346.6,21.1c14.5-1.2,29.2-0.8,43.7,1.1c9.5,1.3,17.2,8.6,19.1,18.2c0,0,0,0,0,0
						c6.3,31.8,8.3,62.6,6.2,94.3c-0.7,10.6-8.8,19.4-19.2,21c-9.1,1.3-18.5,2.3-28,2.7L357.5,179c-0.2,0.4-0.6,0.6-1,0.6
						c0,0-0.1,0-0.1,0c-0.4-0.1-0.8-0.4-0.9-0.8c-1.7-7.4-2.8-13.8-3.8-20.1c-6.8-0.1-13.5-0.4-19.8-0.9
						c-10.7-0.9-19.3-9.2-20.5-19.9c-3.4-29.8-4.2-61.2-2.5-93.3c0.4-8.5,5.5-15.7,12.9-19.2"/>
					<path class="st13" d="M327.7,23.5c2.1-0.4,4.3-0.7,6.4-1"/>
				</g>
				<g>
					<path class="st14" d="M351.9,66c-0.8-1.3-1.4-2.9-2-4.8c-0.5-1.9-0.8-4.1-0.8-6.8c0-2.6,0.3-5,1-7c0.7-2,1.6-3.6,2.8-4.9
						c1.2-1.3,2.6-2.2,4.2-2.8c1.6-0.6,3.4-0.9,5.4-0.9c5.3,0,9.3,2.6,12.1,8c2.7,5.3,4.1,12.3,4.2,21c0.1,16.3-4.9,26.7-15.1,31.4
						l-2.5,1.1c-2.6,1.2-5.7-0.2-6.5-2.9c0,0,0,0,0-0.1c-0.7-2.4-1-5.2-1.1-8.5c0-3.2-1.7-13.8-1-15.4 M349.8,115.9
						c0-2.7,0.8-4.9,2.5-6.6c1.7-1.7,4-2.6,6.9-2.6c2.9,0,5.2,0.8,6.9,2.6c1.7,1.7,2.5,3.9,2.5,6.6c0,2.7-0.8,4.9-2.5,6.6
						c-1.7,1.7-4,2.6-6.9,2.6c-2.9,0-5.2-0.8-6.9-2.6C350.7,120.7,349.8,118.5,349.8,115.9z"/>
				</g>
			</g>
			<g>
				<g>
					<path class="st15" d="M179.8,266.2c-18.3,0.9-36.4-11.8-41.8-29.2c-5.4-17.5,2.4-38.1,16.7-46c-0.9-10.2-1.1-20.4-0.1-33.2
						c-11.9-13-15.3-33.1-8.4-49.4c6.9-16.2,23.8-27.7,40.2-27.8c6.1-9.8,17.1-15.7,28.3-18.8c14.2-3.9,29.6-3.7,43.5,1.4
						c13.8,5.1,25.9,15.3,32.2,28.6c6.4,13.3,6.8,29.5,0.1,42.6c0,0,9.5,34.8,10.1,36.4c11.3-1.2,22.7,5.5,28.5,15.2
						c5.8,9.8,6.4,22.1,3.1,33c-3.3,10.9-10.3,20.4-18.6,28.1L179.8,266.2z"/>
					<g>
						<path class="st16" d="M225.9,202.7c0.8,12.9,1.6,25.8,3.1,39.9c10.1,1.8,20.7,0.5,30.1-3.5c-2.2-12.5-4.5-25.1-6.7-37.6
							L225.9,202.7z"/>
						<path class="st17" d="M254.5,213.7c-0.7-4.1-1.5-8.1-2.2-12.2l-26.5,1.2c0.3,4.4,0.6,8.8,0.9,13.2
							C233.3,217.4,243.5,218.2,254.5,213.7z"/>
					</g>
					<g>
						<g>
							<path class="st16" d="M173.1,150.2c-9.2-3.2-20.2-0.6-27,6.4c-6.8,7-9,18.1-5.3,27.1c3.7,9,13.2,15.3,23,15.2
								c9.7-0.2,19.1-6.9,22.1-16.2L173.1,150.2z"/>
							<g>
								<path class="st13" d="M151.1,180.7c0.2-3.9,2-7.7,5-10.3c2.9-2.6,6.9-4,10.9-3.7"/>
								<path class="st13" d="M157.9,169c1.7,5.2,5.8,9.6,10.8,11.7"/>
							</g>
							<path class="st12" d="M168.9,194.2c-3.1-2.2-8.3,0.1-8.7,3.9c-0.4,3.8,4.2,7.1,7.7,5.5C171.5,202.1,172.1,196.5,168.9,194.2z
								"/>
						</g>
						<g>
							<path class="st16" d="M280.2,134c7.2-6.6,18.3-8.6,27.3-4.9c9,3.7,15.5,13,15.6,22.8c0.2,9.7-6,19.3-15.1,23
								c-9,3.7-20.3,1.2-26.7-6.1L280.2,134z"/>
							<g>
								<path class="st13" d="M312.4,153.3c-1.7-3.5-4.9-6.3-8.6-7.5c-3.7-1.2-7.9-0.9-11.4,0.9"/>
								<path class="st13" d="M301.6,145.3c0.5,5.5-1.5,11.1-5.3,15"/>
							</g>
							<path class="st12" d="M295.4,173.7c2-3.3,7.6-3.2,9.5,0.2c1.9,3.3-1.1,8.2-4.9,8.1C296.1,181.9,293.4,177,295.4,173.7z"/>
						</g>
						<g>
							<path class="st16" d="M282.6,126.3c1.1,13.1,1.5,32.8-1.1,45.7c-2.6,12.9-9.3,25.6-20.6,32.3c-12.8,7.7-29,6.5-43.5,2.9
								c-7.4-1.8-14.8-4.3-21.2-8.6c-7.8-5.3-13.7-13.1-18-21.5c-4.3-8.4-7.1-17.5-8.9-27.6c9.6-9.8,17.2-21.5,22.4-34.1
								c1.8,4.3,4,8.4,6.6,12.2c0.9,1.3,2.3,2.8,3.9,2.4c1.7-0.5,2-2.8,1.9-4.5c-0.3-4.5-1.2-8.9-1.3-12.8
								C225.2,128.1,254.2,128.4,282.6,126.3z"/>
							<g>
								<path class="st17" d="M278.2,176c-5.7-4.4-14.8-3.4-19.4,2.2c-4.5,5.6-3.7,14.7,1.8,19.4c1.6,1.4,3.5,2.3,5.6,2.8
									c6.6-5.9,11.2-14,13.8-22.6C279.4,177.1,278.8,176.5,278.2,176z"/>
								<path class="st17" d="M206,177.6c-5.7-4.4-14.8-3.4-19.4,2.2c-1.6,1.9-2.5,4.3-2.8,6.8c3.4,4.7,7.4,8.8,12.2,12
									c1.8,1.2,3.6,2.2,5.5,3.2c2.7-0.8,5.2-2.4,7-4.9C213,191.2,211.7,182.1,206,177.6z"/>
							</g>
							<path class="st18" d="M230,183.2c-3.1,0.3-6.1-2.2-6.4-5.3c-0.3-3,2.1-6.1,5.1-6.6c3-0.4,6.2,1.9,6.7,4.9
								C235.9,179.3,233.7,182.9,230,183.2z"/>
							<g>
								<path class="st13" d="M235,144.9c3.3,2.8,7.3,4.9,11.5,6.1l-6.7,4.2"/>
								<g>
									<path class="st18" d="M263.2,149.7c1.6-0.1,2.7-2.1,1.9-3.5c-0.8-1.4-3.1-1.5-4-0.1C260.2,147.4,261.2,149.8,263.2,149.7z"
										/>
									<path class="st13" d="M253.1,136.6c7.1-1.9,15.1-0.1,20.8,4.6"/>
								</g>
								<g>
									<path class="st18" d="M209.6,154.9c1.4-0.8,1.5-3.1,0.2-4c-1.3-0.9-3.5,0.1-3.6,1.7C206,154.1,207.9,155.8,209.6,154.9z"/>
									<path class="st13" d="M198.4,141.1c2.2-3.7,6.4-6.1,10.7-6.1c4.3,0,8.5,2.4,10.7,6.1"/>
								</g>
							</g>
						</g>
					</g>
				</g>
				<g>
					<g>
						<path class="st19" d="M175,257.9c-13.5,9-25.7,19.9-36,32.4C113.4,321.1,99,361,99.2,401c0,1.7,0,3.4,0.1,5.1h85.3
							c0,0,8.9-52.4,7.2-83.5C190.2,291.4,175,257.9,175,257.9z"/>
						<g>
							<defs>
								<path id="SVGID_00000160191492330374211230000007461076178153590180_" d="M175,257.9c-13.5,9-25.7,19.9-36,32.4
									C113.4,321.1,99,361,99.2,401c0,1.7,0,3.4,0.1,5.1h85.3c0,0,8.9-52.4,7.2-83.5C190.2,291.4,175,257.9,175,257.9z"/>
							</defs>
							<clipPath id="SVGID_00000059992633041847063150000013924895503805399987_">
								<use xlink:href="#SVGID_00000160191492330374211230000007461076178153590180_"  style="overflow:visible;"/>
							</clipPath>
							<g style="clip-path:url(#SVGID_00000059992633041847063150000013924895503805399987_);">
								<path class="st21" d="M127,299.4c20.4,8.1,39,20.7,54.3,36.5"/>
								<path class="st21" d="M104,346.6c26.6,4.9,52.7,12.2,78.1,21.6"/>
								<path class="st21" d="M95,393c27.2-3.7,54.8-4.2,82-1.5"/>
							</g>
						</g>
					</g>
					<g>
						<path class="st19" d="M361.9,306.6c-3.4-27.5-19-54.2-43.7-66.8c-7.5-3.8-15.4-6.2-23.6-7.6l-38.3,27.4l-60.4-13.3
							c-7.3,3.4-14.3,7.3-20.8,11.6l0-0.1c9.8,52.1,6.9,106.5-8.4,157.3c-5.6,21.3-9.4,43.4-11.3,65.6c0.6,0.3,1.1,0.6,1.7,0.8
							c61.9,30.4,136.5,33.5,201,9.3c-3.6-35-9.2-68.4-14.9-101.8C357.6,362.1,365.3,334.1,361.9,306.6z"/>
						<g>
							<defs>
								<path id="SVGID_00000070821395176633921360000013540591974748027043_" d="M175,257.9c19.8-13.3,44.3-22.2,67.8-26.4
									c25.6-1.8,52.6-3.3,75.4,8.4c24.7,12.6,40.3,39.3,43.7,66.8c3.4,27.5-4.3,55.4-18.9,82.4c6.1,36,12.2,71.9,15.7,109.8
									c-66.3,20.2-138.5,20.5-204.6-0.1c1.2-28.3,5.3-56.6,12.5-83.6C181.9,364.4,184.8,309.9,175,257.9"/>
							</defs>
							<clipPath id="SVGID_00000107555783500262168340000013438284087129614496_">
								<use xlink:href="#SVGID_00000070821395176633921360000013540591974748027043_"  style="overflow:visible;"/>
							</clipPath>
							<g style="clip-path:url(#SVGID_00000107555783500262168340000013438284087129614496_);">
								<path class="st21" d="M362.3,437.8c0,0-123.3-3.2-208.2,4.5"/>
								<path class="st21" d="M145.6,476.9c0,0,131.9-5.3,225.4,2.8"/>
								<path class="st21" d="M171,275.9c58.1-16.6,119.5-21.8,179.6-15.4"/>
								<path class="st21" d="M170.2,313.4c65.7-15.3,133.5-21.1,200.9-17.1"/>
								<path class="st21" d="M174.8,348.6c64.4-16.2,131.4-22.3,197.6-17.9"/>
								<path class="st21" d="M173.2,380.4c59.5-9.7,120.4-11.2,180.4-4.5"/>
							</g>
						</g>
						<path class="st11" d="M343,389c3.1-5.8,6-11.7,8.4-17.6c-3.8-41.2-8.6-93-9-94.4c-0.3-1.2-2.6-12.2-4.6-22.5
							c-5.7-5.9-12.2-11-19.6-14.7c-6.6-3.4-13.6-5.6-20.7-7.1l4,67.4c0,0-2.6,6.2-2.1,16.2s3.5,13.6,3.5,13.6s-0.8,42.4,3.2,64.6
							c1.6,8.5,3.1,14.5,4.5,18.7l-148.1,19.4c-3.2,14.9-5.5,30.1-6.9,45.5c11.1,1.7,34.6,4.1,66.2,0.7c0,0,14.3,5.1,35.8-6
							c0,0,44.5-12.6,75.6-33.7c0,0,7.4,7.8,19.3,7.6C349.5,427.4,346.3,408.2,343,389z"/>
						<path class="st13" d="M155.2,480.8c1.9-22.3,5.7-44.4,11.3-65.6c11.5-37.9,16-77.8,13.4-117.3"/>
						<path class="st23" d="M285.1,231l-31.2,23.9l-50.3-12c-2.6,1.1-5.2,2.2-7.7,3.3c11,18.9,34.3,30.1,55.9,26.3
							c20.5-3.6,37.8-20.3,42.9-40.4C291.5,231.7,288.3,231.3,285.1,231z"/>
						<path class="st13" d="M343,389c5.7,33.4,11.3,66.9,14.9,101.8"/>
						<path class="st16" d="M285.2,231c-13.9-1.3-28.4-0.4-42.4,0.5c-13.1,2.3-26.5,6.2-39.3,11.5c9,15.5,28,24.9,45.8,21.9
							C266.6,262,281.1,247.8,285.2,231z"/>
					</g>
					<g>
						<g>
							<path class="st19" d="M250.7,416.2L233.3,390l0,0c-29.9,1.1-59.8,3.4-89.5,7l-44.5,9.1c0.7,16,4.6,32.4,16.1,43.2
								c10.2,9.7,24.7,13.2,38.7,15.2c27.8,3.9,56.1,2.8,83.6-2.5L250.7,416.2z"/>
							<g>
								<defs>
									<path id="SVGID_00000044886438881054059920000005990674634108709786_" d="M250.7,416.2L233.3,390l0,0
										c-29.9,1.1-59.8,3.4-89.5,7l-44.5,9.1c0.7,16,4.6,32.4,16.1,43.2c10.2,9.7,24.7,13.2,38.7,15.2c27.8,3.9,56.1,2.8,83.6-2.5
										L250.7,416.2z"/>
								</defs>
								<clipPath id="SVGID_00000011020977757289669150000009505327298360786850_">
									<use xlink:href="#SVGID_00000044886438881054059920000005990674634108709786_"  style="overflow:visible;"/>
								</clipPath>
								<g style="clip-path:url(#SVGID_00000011020977757289669150000009505327298360786850_);">
									<path class="st21" d="M124.7,460c26.2-16.2,46.1-42.1,55.1-71.5"/>
									<path class="st21" d="M200.3,388.8c-2.9,28-8.5,55.7-16.6,82.7"/>
								</g>
							</g>
							<path class="st11" d="M168.7,451.2c-31-2.5-53.8-17.3-67.5-29.2c2.2,10.4,6.5,20.1,14.2,27.4c10.2,9.7,24.7,13.2,38.7,15.2
								c27.8,3.9,56.1,2.8,83.6-2.5l6-21.3C218.1,447.6,190.3,452.9,168.7,451.2z"/>
							<path class="st13" d="M99.3,406.1c0.7,16,4.6,32.4,16.1,43.2c10.2,9.7,24.7,13.2,38.7,15.2c27.8,3.9,56.1,2.8,83.6-2.5
								l12.9-45.7L233.3,390l0,0c-29.9,1.1-59.8,3.4-89.5,7"/>
						</g>
						<g>
							<path class="st16" d="M335.1,391.3c-33.9-2.1-67.9-2.5-101.8-1.3c-0.5,19.6-0.1,47.8,4.5,72c37.1-7.2,73-22.1,104.7-42.9
								C342.5,419.1,338.7,390.2,335.1,391.3z"/>
							<path class="st17" d="M314.7,416.7c0,0-38.2,16-79.7,26.3c0.7,6.4,1.6,12.8,2.8,19c37.1-7.2,73-22.1,104.7-42.9
								c0,0-3.8-28.9-7.4-27.8c-8.7-0.5-17.3-0.9-26-1.3C310.8,406.7,314.7,416.7,314.7,416.7z"/>
						</g>
						<g>
							<path class="st25" d="M247.4,390.1c6.1,22.2,8.2,45.4,6.1,68.2c-0.1,1.2-0.9,2.3-2,2.8c-8.1,3.6-17.3,5-26,3.8
								c-1.4-0.2-2.5-1.3-2.8-2.6c-5.1-23.5-6.3-47.2-4.2-70.2c0.1-1.4,1.1-2.6,2.5-3c7.5-1.9,15.3-2.4,23.5-1.5
								C245.9,387.7,247.1,388.7,247.4,390.1z"/>
							<path class="st11" d="M222.7,462.2c0.3,1.4,1.4,2.4,2.8,2.6c8.7,1.2,17.9-0.2,26-3.8c1.1-0.5,1.9-1.6,2-2.8
								c0.6-6.8,0.8-13.7,0.7-20.5c-11,3.2-22.7,6.3-34.4,8.7C220.6,451.7,221.5,457,222.7,462.2z"/>
							<path class="st13" d="M247.4,390.1c6.1,22.2,8.2,45.4,6.1,68.2c-0.1,1.2-0.9,2.3-2,2.8c-8.1,3.6-17.3,5-26,3.8
								c-1.4-0.2-2.5-1.3-2.8-2.6c-5.1-23.5-6.3-47.2-4.2-70.2c0.1-1.4,1.1-2.6,2.5-3c7.5-1.9,15.3-2.4,23.5-1.5
								C245.9,387.7,247.1,388.7,247.4,390.1z"/>
						</g>
					</g>
					<g>
						<g>
							<g>
								<path class="st16" d="M380.8,300.1c-12.1-34-28.9-66.5-56.6-91.6c-11.8-17.5-25.2-33.9-40.1-48.8c-0.9-0.9-1.9-1.8-3.1-2.3
									c-1.2-0.4-2.7-0.3-3.5,0.8c-1.1,1.4-0.2,3.4,0.7,4.9c4.2,7.3,8.7,14.5,13.3,21.6c-3.8,0.7-6.8,1.6-9.4,3.1
									c-1.4-3.6-3.7-7.4-6.7-10.7c-0.6-0.6-1.1-1.2-1.9-1.5c-0.7-0.3-1.7-0.4-2.3,0.2c-0.8,0.6-0.9,1.8-0.8,2.8
									c0.4,5.8,4.1,10.8,7.6,15.4c3.2,13.7,12.3,24.7,24.1,30.7c3.4,28.7,6.8,57,10.1,85.2c0,0,20.1,8.4,43,3.5
									S380.8,300.1,380.8,300.1z"/>
								<path class="st13" d="M324.2,208.6c-11.8-17.5-25.2-33.9-40.1-48.8c-0.9-0.9-1.9-1.8-3.1-2.3c-1.2-0.4-2.7-0.3-3.5,0.8
									c-1.1,1.4-0.2,3.4,0.7,4.9c4.2,7.3,8.7,14.5,13.3,21.6c-3.8,0.7-6.8,1.6-9.4,3.1c-1.4-3.6-3.7-7.4-6.7-10.7
									c-0.6-0.6-1.1-1.2-1.9-1.5c-0.7-0.3-1.7-0.4-2.3,0.2c-0.8,0.6-0.9,1.8-0.8,2.8c0.4,5.8,4.1,10.8,7.6,15.4
									c3.2,13.7,12.3,24.7,24.1,30.7c3.4,28.7,6.8,57,10.1,85.2"/>
							</g>
							<g>
								<path class="st16" d="M308.8,210.3c-3.2-0.1-6.4-1.2-8.9-3.3c-2.5-2-4.3-4.9-5-8.1c-2.7-0.5-4.9,0.6-6.7,2
									c-1.8,1.4-3.4,3.1-5.1,4.6c-1.2,1-2.8,1.9-4.1,1.1c-1.3-0.8-1.3-2.7-0.9-4.2c0.5-2.1,1.5-4.1,2.7-5.8l0,0
									c-2.5,1.7-4.6,3.8-6.1,6.3c-0.6,0.9-1.1,1.9-1.9,2.7c-0.8,0.8-1.9,1.4-3,1.2c-1.1-0.2-1.9-1.1-2.3-2.1
									c-0.4-1-0.3-2.2-0.1-3.2c0.5-2.9,1.9-5.4,3.9-7.6c-1.5,0.8-2.9,1.8-4.2,3c-1.3,1.1-2.8,2.5-4.5,2.2
									c-1.5-0.3-2.4-1.9-2.3-3.4c0-1.5,0.8-2.9,1.6-4.1c6.1-8.8,22-13.5,32.2-8.1"/>
								<g>
									<path class="st13" d="M289.2,190.1c-3.4,1.3-6.3,3.6-8.4,6.5"/>
									<path class="st13" d="M308.8,210.3c-3.2-0.1-6.4-1.2-8.9-3.3c-2.5-2-4.3-4.9-5-8.1c-2.7-0.5-4.9,0.6-6.7,2
										c-1.8,1.4-3.4,3.1-5.1,4.6c-1.2,1-2.8,1.9-4.1,1.1c-1.3-0.8-1.3-2.7-0.9-4.2c0.5-2.1,1.5-4.1,2.7-5.8l0,0
										c-2.5,1.7-4.6,3.8-6.1,6.3c-0.6,0.9-1.1,1.9-1.9,2.7c-0.8,0.8-1.9,1.4-3,1.2c-1.1-0.2-1.9-1.1-2.3-2.1
										c-0.4-1-0.3-2.2-0.1-3.2c0.5-2.9,1.9-5.4,3.9-7.6c-1.5,0.8-2.9,1.8-4.2,3c-1.3,1.1-2.8,2.5-4.5,2.2
										c-1.5-0.3-2.4-1.9-2.3-3.4c0-1.5,0.8-2.9,1.6-4.1c6.1-8.8,22-13.5,32.2-8.1"/>
									<path class="st13" d="M286.3,185.9c-3.5,0.9-6.9,2-10,3.9c-1.9,1.1-3.6,2.5-5,4.1"/>
								</g>
							</g>
						</g>
						<g>
							<g>
								<path class="st19" d="M380.8,300.1c3.8,10.6,7.1,21.3,10.2,31.9c7,24.3,13,50.3,6.1,74.6c-2.3,8-6,15.7-12.2,21.2
									c-7.7,6.9-18.7,9.5-28.8,7.6c-10.1-2-19.1-8.4-24.9-16.9c-7.6-11.3-9.4-25.5-11-39c-2.7-23.2-5.4-46.4-8.1-69.6"/>
								<g>
									<defs>
										<path id="SVGID_00000156576331333416303340000008964470711680187271_" d="M380.8,300.1c3.8,10.6,7.1,21.3,10.2,31.9
											c7,24.3,13,50.3,6.1,74.6c-2.3,8-6,15.7-12.2,21.2c-7.7,6.9-18.7,9.5-28.8,7.6c-10.1-2-19.1-8.4-24.9-16.9
											c-7.6-11.3-9.4-25.5-11-39c-2.7-23.2-5.4-46.4-8.1-69.6"/>
									</defs>
									<clipPath id="SVGID_00000074423844987907664250000009325742107435554211_">
										<use xlink:href="#SVGID_00000156576331333416303340000008964470711680187271_"  style="overflow:visible;"/>
									</clipPath>
									<g style="clip-path:url(#SVGID_00000074423844987907664250000009325742107435554211_);">
										<path class="st21" d="M313,352.7c28.4,3.5,57.7-0.6,84-11.6"/>
										<path class="st21" d="M317.6,383.8c28.2,5.7,58.1,3,84.9-7.6"/>
										<path class="st21" d="M326.5,416.8c24,4.8,49.5,2.1,72-7.6"/>
									</g>
								</g>
								<path class="st11" d="M320.2,379.5c1.6,13.6,3.4,27.7,11,39c5.7,8.5,14.8,14.9,24.9,16.9c10.1,2,21.1-0.7,28.8-7.6
									c6.2-5.5,9.9-13.3,12.2-21.2c1.3-4.5,2.1-9,2.6-13.5c-9.1,8.9-22,16.1-39.1,12.8c-21.7-4.1-34.4-20.8-41.3-34.5
									C319.5,374.2,319.8,376.9,320.2,379.5z"/>
								<path class="st13" d="M397.1,406.7c-2.3,8-6,15.7-12.2,21.2c-7.7,6.9-18.7,9.5-28.8,7.6c-10.1-2-19.1-8.4-24.9-16.9
									c-7.6-11.3-9.4-25.5-11-39c-2.7-23.2-5.4-46.4-8.1-69.6"/>
							</g>
							<g>
								<path class="st25" d="M380.2,290.3c6.2,7.8,9.2,18,8.4,27.9c-0.2,2.5-1.9,4.7-4.3,5.6c-21.4,7.9-45.6,10.3-68.8,6.6
									c-3-0.5-5.4-2.9-5.7-6c-0.6-6.4-1.1-12.6-1.4-18.7c-0.1-2.9,1.6-5.7,4.4-6.6c19-6.7,39.2-10.3,61.9-11.3
									C376.8,287.7,378.9,288.6,380.2,290.3z"/>
								<path class="st13" d="M380.2,290.3c6.2,7.8,9.2,18,8.4,27.9c-0.2,2.5-1.9,4.7-4.3,5.6c-21.4,7.9-45.6,10.3-68.8,6.6
									c-3-0.5-5.4-2.9-5.7-6c-0.6-6.4-1.1-12.6-1.4-18.7c-0.1-2.9,1.6-5.7,4.4-6.6c19-6.7,39.2-10.3,61.9-11.3
									C376.8,287.7,378.9,288.6,380.2,290.3z"/>
							</g>
						</g>
					</g>
				</g>
			</g>
		</g>
		<g>
			<g>
				<g>
					<g>
						<g>
							<defs>
								<path id="SVGID_00000152254754006271199270000006109920378054691476_" d="M175,257.9c-13.5,9-25.7,19.9-36,32.4
									C113.4,321.1,99,361,99.2,401c0,1.7,0,3.4,0.1,5.1h85.3c0,0,8.9-52.4,7.2-83.5C190.2,291.4,175,257.9,175,257.9z"/>
							</defs>
							<clipPath id="SVGID_00000162310909411486438400000014297218635264603545_">
								<use xlink:href="#SVGID_00000152254754006271199270000006109920378054691476_"  style="overflow:visible;"/>
							</clipPath>
						</g>
					</g>
					<g>
						<g>
							<defs>
								<path id="SVGID_00000164484769158053884940000007483005933051606687_" d="M175,257.9c19.8-13.3,44.3-22.2,67.8-26.4
									c25.6-1.8,52.6-3.3,75.4,8.4c24.7,12.6,40.3,39.3,43.7,66.8c3.4,27.5-4.3,55.4-18.9,82.4c6.1,36,12.2,71.9,15.7,109.8
									c-66.3,20.2-138.5,20.5-204.6-0.1c1.2-28.3,5.3-56.6,12.5-83.6C181.9,364.4,184.8,309.9,175,257.9"/>
							</defs>
							<clipPath id="SVGID_00000054954728972971392160000017272266852475686791_">
								<use xlink:href="#SVGID_00000164484769158053884940000007483005933051606687_"  style="overflow:visible;"/>
							</clipPath>
						</g>
					</g>
					<g>
						<g>
							<g>
								<defs>
									<path id="SVGID_00000100364258422474488880000012619666470859145379_" d="M250.7,416.2L233.3,390l0,0
										c-29.9,1.1-59.8,3.4-89.5,7l-44.5,9.1c0.7,16,4.6,32.4,16.1,43.2c10.2,9.7,24.7,13.2,38.7,15.2c27.8,3.9,56.1,2.8,83.6-2.5
										L250.7,416.2z"/>
								</defs>
								<clipPath id="SVGID_00000062179676094895453780000008342891696763998346_">
									<use xlink:href="#SVGID_00000100364258422474488880000012619666470859145379_"  style="overflow:visible;"/>
								</clipPath>
							</g>
						</g>
					</g>
					<g>
						<g>
							<g>
								<g>
									<defs>
										<path id="SVGID_00000075134628656820842650000011727159466487937440_" d="M380.8,300.1c3.8,10.6,7.1,21.3,10.2,31.9
											c7,24.3,13,50.3,6.1,74.6c-2.3,8-6,15.7-12.2,21.2c-7.7,6.9-18.7,9.5-28.8,7.6c-10.1-2-19.1-8.4-24.9-16.9
											c-7.6-11.3-9.4-25.5-11-39c-2.7-23.2-5.4-46.4-8.1-69.6"/>
									</defs>
									<clipPath id="SVGID_00000151542215096848058730000013391903555689079741_">
										<use xlink:href="#SVGID_00000075134628656820842650000011727159466487937440_"  style="overflow:visible;"/>
									</clipPath>
								</g>
							</g>
						</g>
					</g>
				</g>
			</g>
		</g>
	</g>
</g>
</svg>
