<?xml version="1.0" encoding="utf-8"?>
<!-- Generator: Adobe Illustrator 25.4.1, SVG Export Plug-In . SVG Version: 6.00 Build 0)  -->
<svg version="1.1" id="Capa_1" xmlns="http://www.w3.org/2000/svg" xmlns:xlink="http://www.w3.org/1999/xlink" x="0px" y="0px"
	 viewBox="0 0 604.9 222.4" style="enable-background:new 0 0 604.9 222.4;" xml:space="preserve">
<style type="text/css">
	.st0{opacity:0.7;fill:#CAE591;enable-background:new    ;}
	.st1{enable-background:new    ;}
	.st2{fill:#3C246F;}
</style>
<g>
	<g>
		<path class="st0" d="M134.2,138.7c-13.5-9.2-95.6,7.5-101.9,5.1c-5.4-3.3-4.4-68.4-0.6-78.4c1.3-3.5,3.2-4.2,7.8-3
			c5.7,1.9,81.7-7.3,98-9.1c1.4,2,4.5-5,5.3-2.5c1.2,2.8,38.7,0.7,77.5-1.4c14.3-0.8,42.8-2.7,85.3-3.8c7.7-0.2,1.6,3.7,10.6,2.3
			c19.2-3,61,1.3,75.6-1.7c11.7-2.4,14.2-2.4,25.3,0.4c9.5,2.4,71.9,3.3,79.2-0.6c1.8-1.1,3-0.6,3,0.9c0,0,42.6,4.9,42.7,6
			c0.2,1.5,1.5,2.2,2.8,1.4c2.3-1.5,48.1-2.2,48.5,2c1.1,12.2-9.4,62.5-15.5,74.4c-6.4,12.6-33.6-5.1-57.7,0.9
			c-119.9-8.7-109-6.3-131.4-2.4c-2.6-4.5-12.8,5.9-19-1.9c-2.5-3.2-21-4.1-25.1-1c-1.8,1.3-26.2-0.3-51.5-0.6
			c-25.3-0.4-51.3,0.6-56,4.9C217.5,122.9,142,137.6,134.2,138.7z"/>
		<path class="st0" d="M61.9,120.6c-3.9-5.6-22.1-2.4-35.8-2.3c-1.8,0-11.7-0.5-12.9-1.9c-1.2-2.4,14-74.1,14.6-76.8
			c1.2-5.6,1-1.9,2.6-1c0.9,0.5,5.1,0.5,6.2,0.5c5.1-0.3,12.5-1.9,17.4-3.2c0.7,2,0.8-4.8,1.4-2.4c1.6,6.5,47.1-7.3,53.6-8.6
			c2.6-0.5,1.3,3.5,4.2,1.6c3.1-2,8.6-2.7,13.9-3.5c19.9-2.7,12.6-9.1,22.2-5c4.4,1.5,27.3-2.8,29.9-7.2c0.6-1.3,1.1-0.8,1.2,0.6
			c0,0.2,4.2,0.3,8.6,0.8c4.4,0.5,8.7,1.2,8.8,1.8c0.2,1.4,0.7,2.1,1.2,1.2c0.6-1.8,19.8-5.6,19.8-1.4c0.3,12.1-4.5,62.9-6.3,75.2
			c-1.9,13.2-10.1-3.1-17.2,5.1c-6.6-0.2-18.6,0.2-34.6,1.8l-6.9,5.6c-1.7-4.2-3.1,6.9-6.6-0.5c-1.4-3-7.7-2.7-8.6,0.7
			c-0.4,1.3-8.9,1.4-17.9,2.4c-8.9,1-18.2,2.9-19.2,7.3C94.3,105.9,74.5,116.2,61.9,120.6z"/>
		<path class="st0" d="M216.4,197.8c-12.5-7.9-78.4,16.5-84.6,14.7c-5-2.7-13.7-67.2-12-77.3c0.6-3.6,2.1-4.5,6.1-3.7
			c5,1.3,61.7-13.6,81.1-18.4c1.4,1.8,3.1-5.4,4.1-3.1c2.2,4,112.2-19,135.3-22.8c6.4-1,1.9,3.5,9.2,1c15.5-5.2,51-6.2,62.6-11.1
			c9.3-3.9,11.4-4.1,21.1-3c9.8,1.2,60.1-7,65.4-11.9c1.3-1.4,2.4-1,2.6,0.4c0,0,35.9-1.6,36.1-0.7c0.4,1.4,1.6,2,2.5,0.9
			c1.7-1.7,38.9-10.3,40-6.1c3.1,11.8,3.6,63,0.8,75.7c-3.1,13.6-29.3,0.8-48.1,10.5c-107.9,10.8-87,7.9-110.3,16.5
			c-2.8-4.1-9.8,7.6-16.2,0.6c-2.6-2.8-18.1-1.4-21.2,2.2c-1.3,1.5-22,3-43.2,5.6s-42.8,6.4-46.1,11.2
			C285.8,173.9,229.3,193.3,216.4,197.8z"/>
	</g>
	<g>
		<g class="st1">
			<path class="st2" d="M62.2,92.1c0,1.5-0.5,2.7-1.6,3.6c-1,0.9-2.2,1.4-3.6,1.4c-1.6,0-2.9-0.5-3.8-1.4c-0.9-0.9-1.4-2.1-1.4-3.6
				c0-1.6,0.5-2.8,1.5-3.7c1-0.9,2.2-1.4,3.6-1.4c1.6,0,2.9,0.5,3.8,1.4C61.8,89.3,62.2,90.5,62.2,92.1z M60.4,101.6L62,127H52
				l1.5-25L60.4,101.6z"/>
			<path class="st2" d="M91.8,78l15.4-0.3v4.8l-5,1.9l1.3-1.9V117H92.3L77.8,87.9h1.3v24.5l-1.4-1.9l5.1,1.7v4.8H67.5v-4.8l5.1-1.7
				l-1.4,1.9V82.6l0.9,1.7l-4.6-1.5V78l15.2-0.3l14.2,28.5h-1.4V82.6l1.4,1.9l-5.1-1.7V78z"/>
			<path class="st2" d="M127.5,117.8c-3.7,0-6.9-0.8-9.5-2.3c-2.6-1.5-4.6-3.7-6-6.7c-1.4-3-2.1-6.6-2.1-10.8c0-3.5,0.4-6.5,1.3-9.1
				c0.9-2.6,2.2-4.8,3.8-6.6c1.6-1.8,3.6-3.1,5.9-3.9c2.3-0.9,4.9-1.3,7.8-1.3c2.8,0,5.3,0.4,7.6,1.3c2.2,0.9,4.1,2.1,5.7,3.8
				c1.6,1.7,2.7,3.7,3.6,6.2c0.8,2.4,1.2,5.2,1.2,8.3c0,4.4-0.8,8.1-2.4,11.3c-1.6,3.2-3.8,5.6-6.7,7.3
				C134.9,116.9,131.5,117.8,127.5,117.8z M128.2,110.4c1.6,0,3.1-0.4,4.3-1.2c1.2-0.8,2.2-2.2,2.9-4.1c0.7-1.9,1.1-4.6,1.1-8.1
				c0-3.2-0.3-5.7-0.9-7.6c-0.6-1.9-1.5-3.2-2.7-3.9c-1.2-0.8-2.6-1.2-4.4-1.2c-1.6,0-3,0.4-4.3,1.1c-1.2,0.8-2.1,2.1-2.8,4
				c-0.6,1.9-1,4.6-1,8.1c0,3.1,0.3,5.6,0.9,7.5c0.6,1.9,1.5,3.2,2.6,4.1C125,110,126.4,110.4,128.2,110.4z"/>
			<path class="st2" d="M175.1,103.7h-4.1l1.9-1.4v10.2l-1.3-1.8l6.2,1.6v4.8h-18.2v-4.8l5.2-1.7l-1.4,1.9v-30l1.7,2l-5.4-1.7V78
				l13.6-0.3h4.4c3.2,0,5.8,0.6,7.8,1.7c2,1.1,3.5,2.6,4.4,4.5s1.4,4,1.4,6.3c0,2.5-0.6,4.8-1.7,6.8c-1.1,2.1-2.9,3.7-5.3,4.9
				C182,103.1,178.9,103.7,175.1,103.7z M176.1,84.6h-4.6l1.4-1.4v15.1l-1.9-1.4h4.1c2.1,0,3.7-0.6,4.8-1.8c1.1-1.2,1.6-2.7,1.6-4.7
				c0-1.8-0.5-3.2-1.4-4.2C179.2,85.1,177.9,84.6,176.1,84.6z"/>
			<path class="st2" d="M193,117v-4.8l4.9-1.7l-1.2,1.8V82.6l1.7,1.9l-5.4-1.8V78l13.8-0.3h4.8c4.6,0,8.1,1,10.4,2.9
				s3.5,4.6,3.5,8.2c0,3.1-1,5.8-2.9,7.9c-1.9,2.1-5,3.4-9.1,3.9l0.1-1.1c1.4,0,2.6,0.2,3.6,0.6c0.9,0.4,1.7,0.9,2.3,1.5
				c0.6,0.6,1.2,1.4,1.6,2.4l4.3,8.1l-2.7-1.7l5.3,1.9v4.8h-10.2l-5-10.6c-0.6-1.4-1.1-2.4-1.5-3.1c-0.4-0.7-0.9-1.2-1.5-1.4
				s-1.4-0.3-2.5-0.3l-2.4,0.1l1.6-1.3v12l-1.2-1.8l5.2,1.7v4.8H193z M206.4,97.5l-1.6-2.4h4.2c2.2,0,3.9-0.5,5-1.4
				c1.1-0.9,1.6-2.3,1.6-4.2c0-1.5-0.4-2.7-1.3-3.6c-0.9-0.9-2.2-1.3-4-1.3h-5.6l1.6-1.4V97.5z"/>
			<path class="st2" d="M254.1,106h5.7l-0.1,11.1h-29.4v-4.8l4.9-1.7l-1.2,1.8V82.6l1.2,1.8l-4.9-1.6V78l13.2-0.3h15.7v10.6h-5.7
				l-1.2-5l1.7,1.3h-11.7l1.4-1.4v12l-1.4-1.4h12.4v6.7h-12.4l1.4-1.7v12.9l-1.4-1.4h12.4l-1.8,1.4L254.1,106z"/>
			<path class="st2" d="M275.3,117l-11.6-34.2l2.2,1.7l-4.9-1.7V78l17.3-0.3v4.8l-5.1,1.7l1.1-2.3l7.6,26.7h-1.3l8.4-26.1l0.8,1.9
				l-4.7-1.6V78l15.3-0.3v4.8l-4.9,1.7l2.2-1.6L285.6,117H275.3z"/>
			<path class="st2" d="M318.9,82.5l-4.7,1.9l0.9-1.4v29l-0.9-1.3l4.7,1.6v4.8h-17.1v-4.8l4.6-1.6l-0.8,1.3V83l1.2,1.4l-4.9-1.7V78
				l17.1-0.3V82.5z"/>
			<path class="st2" d="M346,106h5.7l-0.1,11.1h-29.4v-4.8l4.9-1.7l-1.2,1.8V82.6l1.2,1.8l-4.9-1.6V78l13.2-0.3h15.7v10.6h-5.7
				l-1.2-5l1.7,1.3h-11.7l1.4-1.4v12l-1.4-1.4h12.4v6.7h-12.4l1.4-1.7v12.9l-1.4-1.4h12.4l-1.8,1.4L346,106z"/>
			<path class="st2" d="M380,78l15.4-0.3v4.8l-5,1.9l1.3-1.9V117h-11.1L366,87.9h1.3v24.5l-1.4-1.9l5.1,1.7v4.8h-15.4v-4.8l5.1-1.7
				l-1.4,1.9V82.6l0.9,1.7l-4.6-1.5V78l15.2-0.3l14.2,28.5h-1.4V82.6l1.4,1.9l-5.1-1.7V78z"/>
			<path class="st2" d="M421.8,106h5.7l-0.1,11.1H398v-4.8l4.9-1.7l-1.2,1.8V82.6l1.2,1.8l-4.9-1.6V78l13.2-0.3h15.7v10.6h-5.7
				l-1.2-5l1.7,1.3H410l1.4-1.4v12l-1.4-1.4h12.4v6.7H410l1.4-1.7v12.9l-1.4-1.4h12.4l-1.8,1.4L421.8,106z"/>
			<path class="st2" d="M458.1,82.5l-4.7,1.9l0.9-1.4v29l-0.9-1.3l4.7,1.6v4.8H441v-4.8l4.6-1.6l-0.8,1.3V83l1.2,1.4l-4.9-1.7V78
				l17.1-0.3V82.5z"/>
			<path class="st2" d="M467,117v-4.8l6-1.7l-1.7,2.4V83.2l1.9,1.4H465l2.1-1.8l-1.6,7h-5.7V77.7h32.8v12.1h-5.7l-1.6-6.6l2.1,1.4
				h-8.3l1.9-1.4v29.7l-1.6-2.4l5.9,1.7v4.8H467z"/>
			<path class="st2" d="M504.2,87.7c0,0.9,0.4,1.7,1.1,2.3c0.7,0.6,1.6,1.2,2.8,1.6s2.5,0.9,3.9,1.4c1.4,0.4,2.8,1,4.2,1.6
				s2.7,1.4,3.8,2.3c1.2,0.9,2.1,2,2.8,3.4c0.7,1.4,1.1,3,1.1,5c0,2.9-0.7,5.3-2.2,7.1s-3.5,3.2-5.9,4.1s-5.2,1.3-8.2,1.3
				c-2,0-4.1-0.2-6.3-0.6c-2.1-0.4-4.3-1-6.3-1.8l0.3-11.2h5.5l1.3,6.6l-0.9-1.5c1,0.5,2.1,0.9,3.3,1.1c1.2,0.3,2.3,0.4,3.4,0.4
				c1.2,0,2.3-0.2,3.2-0.5c1-0.3,1.7-0.8,2.3-1.4c0.6-0.6,0.9-1.4,0.9-2.3c0-1-0.4-1.9-1.1-2.5c-0.7-0.6-1.6-1.2-2.8-1.7
				c-1.2-0.5-2.5-0.9-3.9-1.3c-1.4-0.4-2.8-0.9-4.2-1.5c-1.4-0.6-2.7-1.3-3.8-2.2c-1.2-0.9-2.1-2-2.8-3.4c-0.7-1.4-1.1-3-1.1-5.1
				c0-2.7,0.6-5,1.9-6.8c1.3-1.8,3.1-3.1,5.3-3.9c2.2-0.9,4.8-1.3,7.6-1.3c2,0,4,0.2,6.3,0.6c2.2,0.4,4.4,1,6.5,1.8l-0.6,10.3h-5.7
				l-1.3-5.8l1,0.9c-0.9-0.3-1.8-0.5-2.7-0.7c-0.9-0.2-1.9-0.2-2.9-0.2c-1.1,0-2.1,0.1-3,0.4s-1.7,0.6-2.2,1.2
				S504.2,86.9,504.2,87.7z"/>
			<path class="st2" d="M529.4,112.7c0-1.6,0.5-2.8,1.5-3.7c1-0.9,2.2-1.4,3.6-1.4c1.6,0,2.9,0.5,3.8,1.4c0.9,0.9,1.4,2.1,1.4,3.7
				c0,1.5-0.5,2.7-1.6,3.6c-1,0.9-2.2,1.4-3.6,1.4c-1.6,0-2.9-0.5-3.8-1.4C529.8,115.5,529.4,114.3,529.4,112.7z M531.1,103.1
				l-1.6-25.4h10l-1.6,25L531.1,103.1z"/>
			<path class="st2" d="M544.9,112.7c0-1.6,0.5-2.8,1.6-3.7c1-0.9,2.3-1.4,3.7-1.4c1.6,0,2.9,0.5,3.8,1.4c0.9,0.9,1.4,2.1,1.4,3.7
				c0,1.5-0.5,2.7-1.6,3.6c-1,0.9-2.2,1.4-3.6,1.4c-1.6,0-2.9-0.5-3.8-1.4C545.3,115.4,544.9,114.2,544.9,112.7z"/>
		</g>
	</g>
</g>
</svg>
