<?xml version="1.0" encoding="utf-8"?>
<!-- Generator: Adobe Illustrator 25.4.1, SVG Export Plug-In . SVG Version: 6.00 Build 0)  -->
<svg version="1.1" id="Capa_1" xmlns="http://www.w3.org/2000/svg" xmlns:xlink="http://www.w3.org/1999/xlink" x="0px" y="0px"
	 viewBox="0 0 275.3 324.9" style="enable-background:new 0 0 275.3 324.9;" xml:space="preserve">
<style type="text/css">
	.st0{fill:#EEDEE8;}
	.st1{fill:#FFB2C0;}
	.st2{opacity:0.39;fill:#FFB2C0;enable-background:new    ;}
	.st3{fill:#3C246F;}
	.st4{enable-background:new    ;}
</style>
<g>
	<g>
		
			<rect x="47.1" y="32.9" transform="matrix(0.9905 -0.1374 0.1374 0.9905 -17.5552 21.8712)" class="st0" width="205.1" height="210.4"/>
		<path class="st1" d="M244.3,220.9L81,243.6c-5.6,0.8-10.8-3.1-11.6-8.7l-23.3-168c-0.8-5.6,3.1-10.8,8.7-11.6l163.3-22.6
			c5.6-0.8,10.8,3.1,11.6,8.7l23.3,168C253.8,215,249.9,220.2,244.3,220.9z"/>
		<path class="st2" d="M246.6,211.7c-4,6-10.5,10.3-18.3,11.4L97,241.4c-14.4,2-27.8-8.1-29.8-22.5L48.4,82.8
			c-1.1-7.7,1.3-15.1,6-20.6c-3.5,5.2-5.2,11.6-4.2,18.3L69,216.6c2,14.4,15.3,24.5,29.8,22.5l131.3-18.2
			C236.8,219.9,242.5,216.5,246.6,211.7z"/>
	</g>
	<g>
		<g>
			<g>
				<path class="st3" d="M37.8,165.5c-4.5,3.4-8.4,7.6-11.6,12.2c-3.2,4.6-5.7,9.7-7.6,15.1c-3.8,10.6-5.1,22.1-4.5,33.3
					c0.6,11.3,3.1,22.4,7.5,32.8c4.3,10.4,10.6,20,18.7,27.8l-0.7,0.7c-8.1-8-14.4-17.7-18.7-28.2s-6.8-21.8-7.3-33.1
					s0.9-22.8,4.7-33.5c1.9-5.3,4.5-10.4,7.7-15.1c3.2-4.6,7.2-8.8,11.8-12.2L37.8,165.5z"/>
			</g>
			<g>
				<polygon class="st3" points="41.4,260.9 46.8,294.5 46.9,295.3 46.2,295.1 9.6,283.5 9.7,283.1 46.5,294.1 45.8,294.7 41.1,261 
									"/>
			</g>
		</g>
		<g>
			<g class="st4">
				<path class="st3" d="M78.7,294.2c0.9,0.7,1.3,1.8,1.3,3.1s-0.4,2.3-1.3,3.1s-2.1,1.1-3.7,1.1h-3v3.6h-1.7v-12h4.7
					C76.6,293.1,77.8,293.5,78.7,294.2z M77.5,299.3c0.6-0.5,0.9-1.1,0.9-2c0-0.9-0.3-1.5-0.9-2c-0.6-0.5-1.4-0.7-2.5-0.7h-2.9v5.4
					H75C76.1,300,76.9,299.7,77.5,299.3z"/>
				<path class="st3" d="M88.4,296.8c0.7,0.6,1,1.5,1,2.8v5.5h-1.6v-1.2c-0.3,0.4-0.7,0.7-1.2,1c-0.5,0.2-1.1,0.3-1.8,0.3
					c-1,0-1.8-0.2-2.4-0.7c-0.6-0.5-0.9-1.1-0.9-1.9c0-0.8,0.3-1.4,0.9-1.9c0.6-0.5,1.5-0.7,2.8-0.7h2.6v-0.3c0-0.7-0.2-1.2-0.6-1.6
					c-0.4-0.4-1-0.6-1.8-0.6c-0.5,0-1.1,0.1-1.6,0.3c-0.5,0.2-0.9,0.4-1.3,0.7l-0.7-1.2c0.5-0.4,1-0.7,1.7-0.9
					c0.7-0.2,1.3-0.3,2.1-0.3C86.8,295.9,87.8,296.2,88.4,296.8z M86.8,303.5c0.5-0.3,0.8-0.7,1-1.2V301h-2.5
					c-1.4,0-2.1,0.5-2.1,1.4c0,0.5,0.2,0.8,0.5,1.1s0.8,0.4,1.5,0.4C85.8,303.9,86.3,303.8,86.8,303.5z"/>
				<path class="st3" d="M95.3,296.3c0.6-0.3,1.2-0.4,2-0.4v1.6c-0.1,0-0.2,0-0.4,0c-0.9,0-1.6,0.3-2.1,0.8
					c-0.5,0.5-0.8,1.3-0.8,2.3v4.5h-1.6V296h1.6v1.5C94.3,297,94.8,296.6,95.3,296.3z"/>
				<path class="st3" d="M100.8,304.6c-0.7-0.4-1.3-1-1.7-1.7s-0.6-1.5-0.6-2.4c0-0.9,0.2-1.7,0.6-2.4s1-1.2,1.7-1.6
					c0.7-0.4,1.5-0.6,2.5-0.6c0.8,0,1.6,0.2,2.2,0.5c0.6,0.3,1.1,0.8,1.5,1.4l-1.3,0.8c-0.3-0.4-0.6-0.8-1.1-1s-0.9-0.3-1.4-0.3
					c-0.6,0-1.1,0.1-1.6,0.4c-0.5,0.3-0.8,0.6-1.1,1.1c-0.3,0.5-0.4,1-0.4,1.7c0,0.6,0.1,1.2,0.4,1.7c0.3,0.5,0.6,0.9,1.1,1.1
					c0.5,0.3,1,0.4,1.6,0.4c0.5,0,1-0.1,1.4-0.3s0.8-0.5,1.1-1l1.3,0.8c-0.4,0.6-0.9,1.1-1.5,1.4c-0.6,0.3-1.4,0.5-2.2,0.5
					C102.3,305.2,101.5,305,100.8,304.6z"/>
				<path class="st3" d="M116.6,296.9c0.7,0.7,1,1.6,1,2.9v5.2h-1.6v-5c0-0.9-0.2-1.5-0.6-2c-0.4-0.4-1-0.7-1.8-0.7
					c-0.9,0-1.6,0.3-2.1,0.8c-0.5,0.5-0.8,1.3-0.8,2.2v4.7H109v-12.7h1.6v4.9c0.3-0.4,0.8-0.8,1.3-1c0.6-0.2,1.2-0.4,1.9-0.4
					C115,295.9,115.9,296.3,116.6,296.9z"/>
				<path class="st3" d="M128.8,301.1h-7.4c0.1,0.8,0.5,1.4,1.1,1.9c0.6,0.5,1.3,0.7,2.2,0.7c1.1,0,2-0.4,2.6-1.1l0.9,1.1
					c-0.4,0.5-0.9,0.8-1.5,1.1c-0.6,0.3-1.3,0.4-2,0.4c-1,0-1.8-0.2-2.6-0.6c-0.7-0.4-1.3-0.9-1.7-1.7s-0.6-1.5-0.6-2.4
					c0-0.9,0.2-1.7,0.6-2.4c0.4-0.7,0.9-1.3,1.6-1.7c0.7-0.4,1.5-0.6,2.3-0.6s1.6,0.2,2.3,0.6c0.7,0.4,1.2,0.9,1.6,1.7
					c0.4,0.7,0.6,1.5,0.6,2.4C128.9,300.7,128.9,300.9,128.8,301.1z M122.4,298c-0.5,0.5-0.8,1.1-0.9,1.9h5.8
					c-0.1-0.8-0.4-1.4-0.9-1.9c-0.5-0.5-1.2-0.7-2-0.7C123.6,297.3,122.9,297.5,122.4,298z"/>
			</g>
		</g>
	</g>
</g>
</svg>
