<?xml version="1.0" encoding="utf-8"?>
<!-- Generator: Adobe Illustrator 25.4.1, SVG Export Plug-In . SVG Version: 6.00 Build 0)  -->
<svg version="1.1" id="Capa_1" xmlns="http://www.w3.org/2000/svg" xmlns:xlink="http://www.w3.org/1999/xlink" x="0px" y="0px"
	 viewBox="0 0 289.1 207.5" style="enable-background:new 0 0 289.1 207.5;" xml:space="preserve">
<style type="text/css">
	.st0{opacity:0.33;fill:url(#SVGID_1_);enable-background:new    ;}
	.st1{fill:#C5B2EB;}
	.st2{opacity:0.29;fill:#C5B2EB;enable-background:new    ;}
	.st3{opacity:0.24;fill:#3B64CF;enable-background:new    ;}
	.st4{fill:#F9C8F1;}
	.st5{opacity:0.29;fill:#3B64CF;enable-background:new    ;}
	.st6{fill:#FFD8F8;}
	.st7{fill:#FFF0F9;}
	.st8{opacity:0.58;fill:#F9C8F1;enable-background:new    ;}
	.st9{enable-background:new    ;}
	.st10{fill:#3C246F;}
</style>
<g>
	<g>
		
			<linearGradient id="SVGID_1_" gradientUnits="userSpaceOnUse" x1="148.0042" y1="0.4539" x2="302.0927" y2="0.4539" gradientTransform="matrix(0.8957 0.4447 0.4447 -0.8957 -98.7296 -2.9188)">
			<stop  offset="3.723940e-03" style="stop-color:#FFB2C0;stop-opacity:0"/>
			<stop  offset="4.695790e-02" style="stop-color:#E59DB6;stop-opacity:1.550621e-02"/>
			<stop  offset="0.1191" style="stop-color:#C081A7;stop-opacity:4.138048e-02"/>
			<stop  offset="0.1974" style="stop-color:#A0689A;stop-opacity:6.947975e-02"/>
			<stop  offset="0.282" style="stop-color:#875490;stop-opacity:9.981480e-02"/>
			<stop  offset="0.3753" style="stop-color:#734588;stop-opacity:0.1333"/>
			<stop  offset="0.4816" style="stop-color:#653A82;stop-opacity:0.1714"/>
			<stop  offset="0.6125" style="stop-color:#5D347F;stop-opacity:0.2183"/>
			<stop  offset="0.8402" style="stop-color:#5A327E;stop-opacity:0.3"/>
		</linearGradient>
		<path class="st0" d="M139.7,168.9L23.3,111.1c-5.9-2.9-8.3-10.2-5.4-16.1l32.3-65c2.9-5.9,10.2-8.3,16.1-5.4l116.5,57.8
			c5.9,2.9,8.3,10.2,5.4,16.1l-32.3,65C152.9,169.4,145.7,171.8,139.7,168.9z"/>
		<g>
			<g>
				<path class="st1" d="M140.8,159.2L19.2,98.9c-4.1-2-5.7-6.9-3.7-11L51.2,16c2-4.1,6.9-5.7,11-3.7l121.6,60.4
					c4.1,2,5.7,6.9,3.7,11l-35.7,71.9C149.8,159.6,144.8,161.3,140.8,159.2z"/>
				<path class="st2" d="M140.8,159.2L19.2,98.9c-4.1-2-5.7-6.9-3.7-11L51.2,16c2-4.1,6.9-5.7,11-3.7l121.6,60.4
					c4.1,2,5.7,6.9,3.7,11l-35.7,71.9C149.8,159.6,144.8,161.3,140.8,159.2z"/>
				<path class="st1" d="M141.8,162.2L20.2,101.8c-4.1-2-5.7-6.9-3.7-11l35.7-71.9c2-4.1,6.9-5.7,11-3.7l121.6,60.4
					c4.1,2,5.7,6.9,3.7,11l-35.7,71.9C150.8,162.6,145.8,164.2,141.8,162.2z"/>
			</g>
			<path class="st3" d="M169.4,89.2l-108.8-54c-2.8-1.4-4-4.9-2.6-7.7l0,0c1.4-2.8,4.9-4,7.7-2.6l108.8,54c2.8,1.4,4,4.9,2.6,7.7
				l0,0C175.7,89.4,172.3,90.6,169.4,89.2z"/>
			<path class="st3" d="M139.5,149.4l-108.8-54c-2.8-1.4-4-4.9-2.6-7.7l0,0c1.4-2.8,4.9-4,7.7-2.6l108.8,54c2.8,1.4,4,4.9,2.6,7.7
				l0,0C145.8,149.6,142.4,150.8,139.5,149.4z"/>
			<g>
				<ellipse class="st4" cx="104.6" cy="88.2" rx="13.7" ry="13.7"/>
				<g>
					<ellipse class="st5" cx="104.6" cy="88.2" rx="15.6" ry="15.6"/>
					<g>
						<ellipse class="st6" cx="104.6" cy="88.2" rx="13.7" ry="13.7"/>
						<path class="st7" d="M117.8,84.3c-1.1-3.3-3.5-6.1-6.8-7.7c-6.8-3.4-15-0.6-18.4,6.2c-1.6,3.2-1.8,6.7-0.9,9.9
							c-1.2-3.3-1-7.1,0.7-10.5c3.4-6.8,11.6-9.6,18.4-6.2C114.3,77.7,116.7,80.8,117.8,84.3z"/>
						<path class="st8" d="M116.9,94.3c-3.4,6.8-11.6,9.6-18.4,6.2c-3.5-1.8-6-4.8-7-8.4c1.2,3.1,3.5,5.7,6.7,7.3
							c6.8,3.4,15,0.6,18.4-6.2c1.6-3.2,1.8-6.7,0.9-9.8C118.8,86.8,118.7,90.8,116.9,94.3z"/>
					</g>
				</g>
			</g>
		</g>
	</g>
	<g>
		<g>
			<g>
				<path class="st7" d="M37.5,116.1c-2.1,5-3,10.4-2.7,15.8c0.3,5.3,1.8,10.6,4.4,15.3c2.5,4.7,6.1,8.7,10.5,11.7
					c4.3,2.9,9.5,4.6,14.6,4.9c0.7,0,1.3,0.7,1.3,1.4s-0.7,1.3-1.4,1.3c0,0,0,0-0.1,0c-5.6-0.5-11.1-2.5-15.7-5.8S40.2,153,37.7,148
					s-3.8-10.4-4-15.9c-0.1-5.5,1-11,3.3-16c0-0.1,0.2-0.2,0.3-0.1C37.5,115.9,37.6,116,37.5,116.1z"/>
			</g>
			<g>
				<path class="st7" d="M59.8,153.5l10.4,11.2c0.7,0.7,0.6,1.8-0.1,2.5c-0.2,0.2-0.4,0.3-0.6,0.4l0,0L50.2,175
					c-0.3,0.1-0.7,0-0.9-0.4c-0.1-0.3,0-0.7,0.3-0.8l18.3-9.5l-0.7,2.8l-8.5-12.7c-0.2-0.3-0.1-0.7,0.2-0.9
					C59.2,153.2,59.6,153.2,59.8,153.5z"/>
			</g>
		</g>
		<g class="st9">
			<path class="st10" d="M87.6,177.3c0.8,0.7,1.2,1.6,1.2,2.7c0,1.2-0.4,2.1-1.2,2.7c-0.8,0.7-1.9,1-3.3,1h-2.6v3.2h-1.5v-10.7h4.2
				C85.8,176.3,86.9,176.6,87.6,177.3z M86.6,181.8c0.5-0.4,0.8-1,0.8-1.8c0-0.8-0.3-1.4-0.8-1.8s-1.2-0.6-2.2-0.6h-2.6v4.8h2.6
				C85.3,182.4,86,182.2,86.6,181.8z"/>
			<path class="st10" d="M96.3,179.6c0.6,0.5,0.9,1.4,0.9,2.5v4.9h-1.4v-1.1c-0.2,0.4-0.6,0.7-1,0.9c-0.5,0.2-1,0.3-1.6,0.3
				c-0.9,0-1.6-0.2-2.2-0.7c-0.5-0.4-0.8-1-0.8-1.7c0-0.7,0.3-1.3,0.8-1.7c0.5-0.4,1.3-0.6,2.5-0.6h2.3V182c0-0.6-0.2-1.1-0.5-1.4
				s-0.9-0.5-1.6-0.5c-0.5,0-0.9,0.1-1.4,0.2c-0.5,0.2-0.8,0.4-1.2,0.6l-0.6-1.1c0.4-0.3,0.9-0.6,1.5-0.8c0.6-0.2,1.2-0.3,1.8-0.3
				C94.8,178.8,95.7,179.1,96.3,179.6z M94.8,185.5c0.4-0.2,0.7-0.6,0.9-1.1v-1.1h-2.3c-1.2,0-1.9,0.4-1.9,1.2c0,0.4,0.2,0.7,0.5,1
				c0.3,0.2,0.8,0.3,1.3,0.3S94.4,185.8,94.8,185.5z"/>
			<path class="st10" d="M100.3,186.7c-0.6-0.2-1.1-0.4-1.4-0.7l0.6-1.2c0.4,0.3,0.8,0.5,1.3,0.6s1,0.2,1.5,0.2
				c1.3,0,1.9-0.4,1.9-1.1c0-0.2-0.1-0.4-0.3-0.6c-0.2-0.1-0.4-0.2-0.6-0.3c-0.3-0.1-0.6-0.1-1.1-0.2c-0.6-0.1-1.2-0.2-1.6-0.3
				c-0.4-0.1-0.8-0.4-1.1-0.7c-0.3-0.3-0.4-0.8-0.4-1.3c0-0.7,0.3-1.3,0.9-1.8s1.4-0.7,2.5-0.7c0.5,0,1.1,0.1,1.6,0.2s1,0.3,1.3,0.5
				l-0.6,1.2c-0.7-0.4-1.4-0.6-2.3-0.6c-0.6,0-1.1,0.1-1.4,0.3s-0.5,0.5-0.5,0.8c0,0.3,0.1,0.5,0.3,0.6s0.4,0.3,0.7,0.3
				c0.3,0.1,0.6,0.2,1.1,0.2c0.6,0.1,1.2,0.2,1.6,0.4c0.4,0.1,0.7,0.3,1,0.6c0.3,0.3,0.4,0.7,0.4,1.3c0,0.7-0.3,1.3-0.9,1.7
				c-0.6,0.4-1.5,0.6-2.5,0.6C101.5,187,100.9,186.9,100.3,186.7z"/>
			<path class="st10" d="M112,186.5c-0.2,0.2-0.5,0.3-0.8,0.4c-0.3,0.1-0.6,0.1-1,0.1c-0.8,0-1.4-0.2-1.9-0.7
				c-0.4-0.4-0.7-1.1-0.7-1.9v-4.4h-1.4v-1.2h1.4v-1.8h1.5v1.8h2.3v1.2h-2.3v4.4c0,0.4,0.1,0.8,0.3,1s0.5,0.3,0.9,0.3
				c0.4,0,0.8-0.1,1.1-0.4L112,186.5z"/>
			<path class="st10" d="M113.8,177c-0.2-0.2-0.3-0.4-0.3-0.7c0-0.3,0.1-0.5,0.3-0.7c0.2-0.2,0.4-0.3,0.7-0.3s0.5,0.1,0.7,0.3
				c0.2,0.2,0.3,0.4,0.3,0.7c0,0.3-0.1,0.5-0.3,0.7c-0.2,0.2-0.4,0.3-0.7,0.3S114,177.2,113.8,177z M113.8,178.9h1.5v8.1h-1.5V178.9
				z"/>
			<path class="st10" d="M118.1,175.6h1.5v11.3h-1.5V175.6z"/>
			<path class="st10" d="M122.3,175.6h1.5v11.3h-1.5V175.6z"/>
			<path class="st10" d="M132,179.6c0.6,0.5,0.9,1.4,0.9,2.5v4.9h-1.4v-1.1c-0.2,0.4-0.6,0.7-1,0.9c-0.5,0.2-1,0.3-1.6,0.3
				c-0.9,0-1.6-0.2-2.2-0.7c-0.5-0.4-0.8-1-0.8-1.7c0-0.7,0.3-1.3,0.8-1.7c0.5-0.4,1.3-0.6,2.5-0.6h2.3V182c0-0.6-0.2-1.1-0.5-1.4
				s-0.9-0.5-1.6-0.5c-0.5,0-0.9,0.1-1.4,0.2c-0.5,0.2-0.8,0.4-1.2,0.6l-0.6-1.1c0.4-0.3,0.9-0.6,1.5-0.8c0.6-0.2,1.2-0.3,1.8-0.3
				C130.6,178.8,131.5,179.1,132,179.6z M130.6,185.5c0.4-0.2,0.7-0.6,0.9-1.1v-1.1h-2.3c-1.2,0-1.9,0.4-1.9,1.2
				c0,0.4,0.2,0.7,0.5,1c0.3,0.2,0.8,0.3,1.3,0.3S130.2,185.8,130.6,185.5z"/>
			<path class="st10" d="M147.3,175.6v11.3h-1.4v-1.3c-0.3,0.4-0.7,0.8-1.2,1c-0.5,0.2-1,0.4-1.6,0.4c-0.8,0-1.5-0.2-2.1-0.5
				c-0.6-0.3-1.1-0.8-1.5-1.5c-0.3-0.6-0.5-1.3-0.5-2.2s0.2-1.5,0.5-2.1c0.4-0.6,0.8-1.1,1.5-1.4c0.6-0.3,1.3-0.5,2.1-0.5
				c0.6,0,1.1,0.1,1.6,0.3c0.5,0.2,0.9,0.5,1.2,1v-4.4H147.3z M144.6,185.4c0.4-0.2,0.7-0.6,1-1c0.2-0.4,0.4-0.9,0.4-1.5
				c0-0.6-0.1-1.1-0.4-1.5c-0.2-0.4-0.6-0.8-1-1s-0.9-0.4-1.4-0.4c-0.5,0-1,0.1-1.4,0.4c-0.4,0.2-0.7,0.6-1,1
				c-0.2,0.4-0.4,0.9-0.4,1.5c0,0.6,0.1,1.1,0.4,1.5c0.2,0.4,0.6,0.8,1,1c0.4,0.2,0.9,0.4,1.4,0.4
				C143.7,185.7,144.2,185.6,144.6,185.4z"/>
			<path class="st10" d="M157.4,183.4h-6.5c0.1,0.7,0.4,1.3,0.9,1.7c0.5,0.4,1.2,0.6,2,0.6c1,0,1.7-0.3,2.3-1l0.8,0.9
				c-0.4,0.4-0.8,0.8-1.4,1c-0.5,0.2-1.1,0.3-1.8,0.3c-0.9,0-1.6-0.2-2.3-0.5c-0.7-0.4-1.2-0.8-1.5-1.5s-0.5-1.3-0.5-2.1
				c0-0.8,0.2-1.5,0.5-2.1c0.4-0.6,0.8-1.1,1.4-1.5c0.6-0.3,1.3-0.5,2.1-0.5c0.8,0,1.5,0.2,2.1,0.5s1.1,0.8,1.4,1.5s0.5,1.3,0.5,2.2
				C157.4,183,157.4,183.2,157.4,183.4z M151.7,180.7c-0.5,0.4-0.7,1-0.8,1.7h5.2c-0.1-0.7-0.4-1.2-0.8-1.7
				c-0.5-0.4-1.1-0.6-1.8-0.6S152.1,180.2,151.7,180.7z"/>
			<path class="st10" d="M159.4,175.6h1.5v11.3h-1.5V175.6z"/>
			<path class="st10" d="M175.4,175.6v11.3H174v-1.3c-0.3,0.4-0.7,0.8-1.2,1c-0.5,0.2-1,0.4-1.6,0.4c-0.8,0-1.5-0.2-2.1-0.5
				c-0.6-0.3-1.1-0.8-1.5-1.5c-0.3-0.6-0.5-1.3-0.5-2.2s0.2-1.5,0.5-2.1c0.4-0.6,0.8-1.1,1.5-1.4c0.6-0.3,1.3-0.5,2.1-0.5
				c0.6,0,1.1,0.1,1.6,0.3c0.5,0.2,0.9,0.5,1.2,1v-4.4H175.4z M172.6,185.4c0.4-0.2,0.7-0.6,1-1c0.2-0.4,0.3-0.9,0.3-1.5
				c0-0.6-0.1-1.1-0.3-1.5c-0.2-0.4-0.6-0.8-1-1s-0.9-0.4-1.4-0.4c-0.5,0-1,0.1-1.4,0.4s-0.7,0.6-1,1c-0.2,0.4-0.4,0.9-0.4,1.5
				c0,0.6,0.1,1.1,0.4,1.5c0.2,0.4,0.6,0.8,1,1s0.9,0.4,1.4,0.4C171.7,185.7,172.2,185.6,172.6,185.4z"/>
			<path class="st10" d="M179.8,175.7h1.9l-2.6,2h-1.4L179.8,175.7z M178.2,178.9h1.5v8.1h-1.5V178.9z"/>
			<path class="st10" d="M187.9,179.6c0.6,0.5,0.9,1.4,0.9,2.5v4.9h-1.4v-1.1c-0.2,0.4-0.6,0.7-1,0.9c-0.5,0.2-1,0.3-1.6,0.3
				c-0.9,0-1.6-0.2-2.2-0.7c-0.5-0.4-0.8-1-0.8-1.7c0-0.7,0.3-1.3,0.8-1.7c0.5-0.4,1.3-0.6,2.5-0.6h2.3V182c0-0.6-0.2-1.1-0.5-1.4
				s-0.9-0.5-1.6-0.5c-0.5,0-0.9,0.1-1.4,0.2c-0.5,0.2-0.8,0.4-1.2,0.6l-0.6-1.1c0.4-0.3,0.9-0.6,1.5-0.8s1.2-0.3,1.8-0.3
				C186.5,178.8,187.3,179.1,187.9,179.6z M186.4,185.5c0.4-0.2,0.7-0.6,0.9-1.1v-1.1h-2.3c-1.2,0-1.9,0.4-1.9,1.2
				c0,0.4,0.2,0.7,0.5,1c0.3,0.2,0.8,0.3,1.3,0.3C185.6,185.9,186,185.8,186.4,185.5z"/>
			<path class="st10" d="M203.2,175.6v11.3h-1.4v-1.3c-0.3,0.4-0.7,0.8-1.2,1c-0.5,0.2-1,0.4-1.6,0.4c-0.8,0-1.5-0.2-2.1-0.5
				c-0.6-0.3-1.1-0.8-1.5-1.5c-0.3-0.6-0.5-1.3-0.5-2.2s0.2-1.5,0.5-2.1c0.4-0.6,0.8-1.1,1.5-1.4c0.6-0.3,1.3-0.5,2.1-0.5
				c0.6,0,1.1,0.1,1.6,0.3c0.5,0.2,0.9,0.5,1.2,1v-4.4H203.2z M200.4,185.4c0.4-0.2,0.7-0.6,1-1c0.2-0.4,0.3-0.9,0.3-1.5
				c0-0.6-0.1-1.1-0.3-1.5c-0.2-0.4-0.6-0.8-1-1s-0.9-0.4-1.4-0.4c-0.5,0-1,0.1-1.4,0.4s-0.7,0.6-1,1c-0.2,0.4-0.4,0.9-0.4,1.5
				c0,0.6,0.1,1.1,0.4,1.5c0.2,0.4,0.6,0.8,1,1s0.9,0.4,1.4,0.4C199.6,185.7,200,185.6,200.4,185.4z"/>
			<path class="st10" d="M213.2,183.4h-6.5c0.1,0.7,0.4,1.3,0.9,1.7c0.5,0.4,1.2,0.6,2,0.6c1,0,1.7-0.3,2.3-1l0.8,0.9
				c-0.4,0.4-0.8,0.8-1.4,1c-0.5,0.2-1.1,0.3-1.8,0.3c-0.9,0-1.6-0.2-2.3-0.5c-0.7-0.4-1.2-0.8-1.5-1.5c-0.4-0.6-0.5-1.3-0.5-2.1
				c0-0.8,0.2-1.5,0.5-2.1s0.8-1.1,1.4-1.5c0.6-0.3,1.3-0.5,2.1-0.5c0.8,0,1.5,0.2,2.1,0.5s1.1,0.8,1.4,1.5s0.5,1.3,0.5,2.2
				C213.3,183,213.3,183.2,213.2,183.4z M207.5,180.7c-0.5,0.4-0.7,1-0.8,1.7h5.2c-0.1-0.7-0.4-1.2-0.8-1.7
				c-0.5-0.4-1.1-0.6-1.8-0.6S208,180.2,207.5,180.7z"/>
			<path class="st10" d="M215.7,186.7c-0.6-0.2-1.1-0.4-1.4-0.7l0.6-1.2c0.4,0.3,0.8,0.5,1.3,0.6c0.5,0.2,1,0.2,1.5,0.2
				c1.3,0,1.9-0.4,1.9-1.1c0-0.2-0.1-0.4-0.3-0.6c-0.2-0.1-0.4-0.2-0.6-0.3c-0.3-0.1-0.6-0.1-1.1-0.2c-0.6-0.1-1.2-0.2-1.6-0.3
				c-0.4-0.1-0.8-0.4-1.1-0.7s-0.4-0.8-0.4-1.3c0-0.7,0.3-1.3,0.9-1.8c0.6-0.4,1.4-0.7,2.5-0.7c0.5,0,1.1,0.1,1.6,0.2
				c0.5,0.1,1,0.3,1.3,0.5l-0.6,1.2c-0.7-0.4-1.4-0.6-2.3-0.6c-0.6,0-1.1,0.1-1.4,0.3c-0.3,0.2-0.5,0.5-0.5,0.8
				c0,0.3,0.1,0.5,0.3,0.6s0.4,0.3,0.7,0.3c0.3,0.1,0.6,0.2,1.1,0.2c0.6,0.1,1.2,0.2,1.6,0.4c0.4,0.1,0.7,0.3,1,0.6
				c0.3,0.3,0.4,0.7,0.4,1.3c0,0.7-0.3,1.3-0.9,1.7c-0.6,0.4-1.5,0.6-2.5,0.6C216.9,187,216.3,186.9,215.7,186.7z"/>
			<path class="st10" d="M229.3,179.3c0.6,0.3,1.1,0.8,1.5,1.4c0.4,0.6,0.5,1.3,0.5,2.1s-0.2,1.5-0.5,2.2c-0.3,0.6-0.8,1.1-1.5,1.5
				c-0.6,0.3-1.3,0.5-2.1,0.5c-0.6,0-1.1-0.1-1.6-0.3c-0.5-0.2-0.9-0.5-1.2-1v4.2h-1.5v-11h1.4v1.3c0.3-0.4,0.7-0.8,1.2-1
				s1-0.3,1.6-0.3C228,178.8,228.7,179,229.3,179.3z M228.5,185.4c0.4-0.2,0.7-0.6,1-1c0.2-0.4,0.4-0.9,0.4-1.5
				c0-0.6-0.1-1.1-0.4-1.5c-0.2-0.4-0.6-0.8-1-1c-0.4-0.2-0.9-0.4-1.4-0.4c-0.5,0-1,0.1-1.4,0.4s-0.7,0.6-1,1
				c-0.2,0.4-0.4,0.9-0.4,1.5c0,0.6,0.1,1.1,0.4,1.5c0.2,0.4,0.6,0.8,1,1s0.9,0.4,1.4,0.4C227.6,185.7,228,185.6,228.5,185.4z"/>
			<path class="st10" d="M240.8,178.9v8.1h-1.4v-1.2c-0.3,0.4-0.7,0.7-1.2,1c-0.5,0.2-1,0.3-1.6,0.3c-1.1,0-1.9-0.3-2.5-0.9
				s-0.9-1.5-0.9-2.6v-4.6h1.5v4.5c0,0.8,0.2,1.4,0.6,1.8c0.4,0.4,0.9,0.6,1.6,0.6c0.8,0,1.4-0.2,1.8-0.7c0.4-0.5,0.7-1.1,0.7-2
				v-4.2H240.8z"/>
			<path class="st10" d="M250.9,183.4h-6.5c0.1,0.7,0.4,1.3,0.9,1.7c0.5,0.4,1.2,0.6,2,0.6c1,0,1.7-0.3,2.3-1l0.8,0.9
				c-0.4,0.4-0.8,0.8-1.4,1c-0.5,0.2-1.1,0.3-1.8,0.3c-0.9,0-1.6-0.2-2.3-0.5c-0.7-0.4-1.2-0.8-1.5-1.5c-0.4-0.6-0.5-1.3-0.5-2.1
				c0-0.8,0.2-1.5,0.5-2.1s0.8-1.1,1.4-1.5c0.6-0.3,1.3-0.5,2.1-0.5c0.8,0,1.5,0.2,2.1,0.5s1.1,0.8,1.4,1.5s0.5,1.3,0.5,2.2
				C250.9,183,250.9,183.2,250.9,183.4z M245.1,180.7c-0.5,0.4-0.7,1-0.8,1.7h5.2c-0.1-0.7-0.4-1.2-0.8-1.7
				c-0.5-0.4-1.1-0.6-1.8-0.6S245.6,180.2,245.1,180.7z M247.8,175.7h1.9l-2.6,2h-1.4L247.8,175.7z"/>
			<path class="st10" d="M253.3,186.7c-0.6-0.2-1.1-0.4-1.4-0.7l0.6-1.2c0.4,0.3,0.8,0.5,1.3,0.6c0.5,0.2,1,0.2,1.5,0.2
				c1.3,0,1.9-0.4,1.9-1.1c0-0.2-0.1-0.4-0.3-0.6c-0.2-0.1-0.4-0.2-0.6-0.3c-0.3-0.1-0.6-0.1-1.1-0.2c-0.6-0.1-1.2-0.2-1.6-0.3
				s-0.8-0.4-1.1-0.7c-0.3-0.3-0.4-0.8-0.4-1.3c0-0.7,0.3-1.3,0.9-1.8c0.6-0.4,1.4-0.7,2.5-0.7c0.5,0,1.1,0.1,1.6,0.2
				c0.5,0.1,1,0.3,1.3,0.5l-0.6,1.2c-0.7-0.4-1.4-0.6-2.3-0.6c-0.6,0-1.1,0.1-1.4,0.3c-0.3,0.2-0.5,0.5-0.5,0.8
				c0,0.3,0.1,0.5,0.3,0.6s0.4,0.3,0.7,0.3s0.6,0.2,1.1,0.2c0.6,0.1,1.2,0.2,1.6,0.4c0.4,0.1,0.7,0.3,1,0.6c0.3,0.3,0.4,0.7,0.4,1.3
				c0,0.7-0.3,1.3-0.9,1.7c-0.6,0.4-1.5,0.6-2.5,0.6C254.6,187,253.9,186.9,253.3,186.7z"/>
		</g>
	</g>
</g>
</svg>
