<?xml version="1.0" encoding="utf-8"?>
<!-- Generator: Adobe Illustrator 25.4.1, SVG Export Plug-In . SVG Version: 6.00 Build 0)  -->
<svg version="1.1" id="Capa_1" xmlns="http://www.w3.org/2000/svg" xmlns:xlink="http://www.w3.org/1999/xlink" x="0px" y="0px"
	 viewBox="0 0 255.2 271.1" style="enable-background:new 0 0 255.2 271.1;" xml:space="preserve">
<style type="text/css">
	.st0{fill:#FFB100;}
	.st1{fill:#FF8F00;}
	.st2{fill:#FF5E93;}
	.st3{fill:#FF2084;}
	.st4{fill:#F80076;}
</style>
<g>
	<path class="st0" d="M164.4,164.2c1.4,6,2.8,11.9,4.1,17.9c1.7,7.9,3.4,15.8,4.9,23.8c1.5,7.9,3,15.9,4.2,23.9
		c-2.3-7.8-4.3-15.6-6.3-23.5c-1.9-7.9-3.8-15.7-5.5-23.6c-1.3-5.7-2.5-11.4-3.6-17.1l-11.4,7.4c0.3,2.3,0.4,4.7,0.3,7.1
		c-0.1-2.3-0.3-4.6-0.7-6.8l-4.6,3c0.4,2.8,0.4,5.6,0.2,8.5c-0.1,1.3-0.3,2.6-0.6,3.9c-0.1,0.1-0.2,0.3-0.3,0.4c0,0-1.2-4.3-3.8-9.9
		L125,189.6l-7,5.4l1.4-5.7l-6.4-1.2l1.3-6.3l-6.9-1.4l0.7-7.3h-6.2l0.3-7.3l-5.9-0.3l0.7-6.2l-6.2-1.7l0.2-1
		c-4.4,2-9.2,4.8-14.3,8.5c2.3-4.6,5.5-8.6,9.5-12c1-0.8,2-1.6,3.1-2.3l-4-0.8l0.3-2.7c-0.9,0.6-1.7,1.2-2.5,1.9
		c-3.6,2.9-6.6,6.4-8.9,10.2c2.8-5.4,6.8-10.1,11.6-13.7l0.3-3h-6.2l0.3-7.3l-5.9-0.3l0.7-6.2l-1.6-0.5l-40,6.4l0,0l-9.9,2.2l5,4.1
		l-3.2,5.4l5.2,2.7l-3.3,6.5l5.7,2.5l-3.6,6.4l5.5,3.9l-3.3,5.2l5,4.1l-3.2,5.4l5.2,2.7l-3.3,6.5l5.7,2.5l-3.6,6.4l5.4,3.8l-3.5,5.4
		l5,4.1l-3.2,5.4l5.2,2.7l-3.3,6.5l5.7,2.5l-3.6,6.4l5.8,4.1l-3.8,5.2l5.4,3.7l-3.6,4.7l8.5-2.1l123.6-19.5l11.5-2.9l-5-4.1l3.2-5.4
		l-5.2-2.7l3.3-6.5l-5.7-2.5l3.6-6.4l-5.5-3.9l3.3-5.2l-5-4.1l3.2-5.4l-5.2-2.7l3.3-6.5l-5.7-2.5l3.6-6.4l-5.4-3.8l3.5-5.4l-1.1-0.9
		L164.4,164.2z M106.8,215.4c1.2,0.1,2.4,0.2,3.6,0.2c13.3,0,25.3-7.1,32-18.1c-2.3,4.6-5.5,8.6-9.5,11.9c-7.5,6.2-17,9.2-26.8,8.2
		c-9.7-0.9-18.5-5.6-24.7-13.1c-5.9-7.1-8.8-16-8.3-25.2c0.2,8.2,3.2,16.1,8.6,22.6C87.9,209.7,96.8,214.5,106.8,215.4z M54.8,221
		c-1.9-7.9-3.8-15.7-5.5-23.6c-1.7-7.9-3.4-15.8-4.9-23.8c-1.5-7.9-3-15.9-4.2-23.9c2.3,7.8,4.3,15.6,6.3,23.5
		c1.9,7.9,3.8,15.7,5.5,23.6c1.7,7.9,3.4,15.8,4.9,23.8c1.5,7.9,3,15.9,4.2,23.9C58.7,236.7,56.7,228.8,54.8,221z M103.7,228.4
		c-15-0.4-28.8-8.8-35.7-22.1c-9-17.3-2.1-34,4.5-44.1c-2.4,4.6-3.9,9.7-4.4,15.1c-1.1,11.1,2.3,21.9,9.4,30.4
		c7.1,8.6,17.1,13.9,28.1,14.9c1.3,0.1,2.7,0.2,4,0.2c9.6,0,18.9-3.3,26.4-9.5c4.3-3.5,7.7-7.8,10.3-12.6c1.7-1.9,2.6-3.2,2.6-3.2
		S144.9,229.6,103.7,228.4z"/>
	<path class="st1" d="M136,213.3c-7.5,6.2-16.8,9.5-26.4,9.5c-1.3,0-2.7-0.1-4-0.2c-11.1-1.1-21.1-6.3-28.1-14.9
		c-7.1-8.6-10.4-19.4-9.4-30.4c0.5-5.4,2-10.5,4.4-15.1c-6.6,10.1-13.6,26.7-4.5,44.1c6.9,13.3,20.7,21.7,35.7,22.1
		c41.3,1.2,45.2-30.8,45.2-30.8s-0.9,1.3-2.6,3.2C143.7,205.5,140.3,209.8,136,213.3z"/>
	<path class="st1" d="M76.7,165c5.1-3.8,9.8-6.5,14.3-8.5l0.8-5.3l-2.5-0.5c-1.1,0.7-2.1,1.5-3.1,2.3
		C82.1,156.4,78.9,160.5,76.7,165z"/>
	<path class="st1" d="M145.3,188.6c0.3-1.3,0.5-2.6,0.6-3.9c0.3-2.9,0.2-5.7-0.2-8.5l-4.4,2.9c2.6,5.6,3.8,9.9,3.8,9.9
		C145.2,188.9,145.3,188.7,145.3,188.6z"/>
	<path class="st1" d="M81.3,204.6c6.2,7.5,15,12.2,24.7,13.1c9.7,0.9,19.2-2,26.8-8.2c4-3.3,7.2-7.4,9.5-11.9
		c-6.6,10.9-18.6,18.1-32,18.1c-1.2,0-2.4-0.1-3.6-0.2c-9.9-0.9-18.9-5.7-25.3-13.4c-5.3-6.5-8.3-14.3-8.6-22.6
		C72.5,188.6,75.4,197.5,81.3,204.6z"/>
	<path class="st1" d="M74.1,159.4c2.4-3.8,5.4-7.3,8.9-10.2c0.8-0.7,1.7-1.3,2.5-1.9l0.2-1.6C80.9,149.3,76.9,154,74.1,159.4z"/>
	<path class="st1" d="M150.8,173l-0.5,0.3c0.4,2.2,0.7,4.5,0.7,6.8C151.2,177.7,151.1,175.3,150.8,173z"/>
	<path class="st1" d="M171.3,206.3c2,7.8,4,15.7,6.3,23.5c-1.2-8-2.6-16-4.2-23.9c-1.5-7.9-3.2-15.9-4.9-23.8
		c-1.3-6-2.7-12-4.1-17.9l-2.2,1.4c1.2,5.7,2.4,11.4,3.6,17.1C167.6,190.6,169.4,198.5,171.3,206.3z"/>
	<path class="st1" d="M56.9,220.5c-1.5-7.9-3.2-15.9-4.9-23.8c-1.7-7.9-3.6-15.8-5.5-23.6c-2-7.8-4-15.7-6.3-23.5
		c1.2,8,2.6,16,4.2,23.9c1.5,7.9,3.2,15.9,4.9,23.8c1.7,7.9,3.6,15.8,5.5,23.6c2,7.8,4,15.7,6.3,23.5
		C59.9,236.4,58.4,228.5,56.9,220.5z"/>
	<path class="st2" d="M239.5,114.6l-6.2-1.7l0.7-6.2l-5.9-0.3l0.3-7.3h-6.2l0.7-7.3l-6.6-1.3l1-6.1l-6.2-1.7l0.7-6.2l-5.9-0.3
		l0.3-7.3h-6.2l0.7-7.3l-6.5-1.3l1-6.3l-6.2-1.7l0.7-6.2l-5.9-0.3l0.3-7.3h-6.2l0.7-7.3l-6.9-1.4l1.3-6.3l-6.4-1.2l1.4-5.7l-8.3,6.4
		l-105.1,68l0,0l-8.1,6l6.2,1.7l-0.7,6.2l5.9,0.3l-0.3,7.3h6.2l-0.7,7.3l6.6,1.3l-1,6.1l4.6,1.3l1.6,0.5l-0.7,6.2l5.9,0.3l-0.3,7.3
		h6.2l-0.3,3l-0.2,1.6l-0.3,2.7l4,0.8l2.5,0.5l-0.8,5.3l-0.2,1l6.2,1.7l-0.7,6.2l5.9,0.3l-0.3,7.3h6.2l-0.7,7.3l6.9,1.4l-1.3,6.3
		l6.4,1.2L118,195l7-5.4l16.3-10.5l4.4-2.9l4.6-3l0.5-0.3l11.4-7.4l2.2-1.4l11.3-7.3l54.4-35.1L239.5,114.6z M82,120.7
		c4.9,6.4,9.8,12.9,14.6,19.4c4.8,6.5,9.5,13.1,14.1,19.7c4.6,6.6,9.2,13.3,13.5,20.2C119,173.8,114,167.4,109,161
		c-4.9-6.4-9.8-12.9-14.6-19.4c-4.8-6.5-9.5-13.1-14.1-19.7c-4.6-6.6-9.2-13.3-13.5-20.2C72.1,107.9,77.1,114.3,82,120.7z
		 M142.6,150.6c-15,1-29.5-6-37.6-18.6c-11.1-17.1-4.8-35,1-45.6c5.6-15.9,20.7-27.2,38.5-27.2c22.5,0,40.8,18.3,40.8,40.8
		c0,0.1,0,0.3,0,0.4c-1.4-21.6-19.4-38.7-41.3-38.7c-17.2,0-32,10.5-38.2,25.5c-2.1,4.9-3.2,10.3-3.2,15.9
		c0,22.8,18.6,41.4,41.4,41.4c16.9,0,31.5-10.2,37.9-24.8c1.8-2.5,2.8-4.1,2.8-4.1S183.8,147.9,142.6,150.6z M144,139.9
		c-20.3,0-36.8-16.5-36.8-36.8c0-0.2,0-0.3,0-0.5c1.3,19.4,17.5,34.8,37.3,34.8c15.5,0,28.7-9.4,34.4-22.8
		C174.1,129.3,160.3,139.9,144,139.9z M144,66.4c1.8,0,3.5,0.1,5.2,0.4c2.5,0.5,5.1,1.3,7.8,2.3c2.1,0.8,4.1,1.7,6,2.6
		c10.7,6.4,17.8,18.1,17.8,31.5c0,1.2-0.1,2.4-0.2,3.5c-0.1,0.3-0.3,0.5-0.4,0.8c0,0-22.6-60.4-70.6-17.2
		C114.7,76.3,128.2,66.4,144,66.4z M209.7,100.5c-5-6.4-9.8-12.9-14.6-19.4c-4.8-6.5-9.5-13.1-14.1-19.7
		c-4.6-6.6-9.2-13.3-13.5-20.2c5.3,6.2,10.3,12.5,15.2,18.9c4.9,6.4,9.8,12.9,14.6,19.4c4.8,6.5,9.5,13.1,14.1,19.7
		c4.6,6.6,9.2,13.3,13.5,20.2C219.7,113.2,214.7,106.9,209.7,100.5z"/>
	<path class="st3" d="M144,144.6c-22.8,0-41.4-18.6-41.4-41.4c0-5.6,1.1-11,3.2-15.9c0.1-0.3,0.2-0.5,0.3-0.8
		c-5.8,10.6-12.1,28.5-1,45.6c8.2,12.6,22.6,19.6,37.6,18.6c41.2-2.7,42.1-35,42.1-35s-0.9,1.7-2.8,4.1
		C175.5,134.4,160.9,144.6,144,144.6z"/>
	<path class="st3" d="M180.1,107.5c0.2-0.3,0.3-0.5,0.4-0.8c0.1-1.2,0.2-2.3,0.2-3.5c0-13.3-7.1-25-17.8-31.5
		c-1.9-0.9-3.9-1.8-6-2.6c-2.7-1-5.2-1.8-7.8-2.3c-1.7-0.2-3.4-0.4-5.2-0.4c-15.8,0-29.2,10-34.4,23.9
		C157.5,47,180.1,107.5,180.1,107.5z"/>
	<path class="st4" d="M144.5,137.4c-19.7,0-35.9-15.4-37.3-34.8c0,0.2,0,0.3,0,0.5c0,20.3,16.5,36.8,36.8,36.8
		c16.3,0,30.1-10.6,34.9-25.3C173.2,128,159.9,137.4,144.5,137.4z"/>
	<path class="st4" d="M144,61.7c21.9,0,39.9,17.1,41.3,38.7c0-0.1,0-0.3,0-0.4c0-22.5-18.3-40.8-40.8-40.8
		c-17.8,0-32.9,11.4-38.5,27.2c-0.1,0.3-0.2,0.5-0.3,0.8C112,72.2,126.8,61.7,144,61.7z"/>
	<path class="st4" d="M197.3,79.5c-4.8-6.5-9.6-13-14.6-19.4c-5-6.4-10-12.7-15.2-18.9c4.3,6.9,8.9,13.5,13.5,20.2
		c4.6,6.6,9.3,13.2,14.1,19.7c4.8,6.5,9.6,13,14.6,19.4c5,6.4,10,12.7,15.2,18.9c-4.3-6.9-8.9-13.5-13.5-20.2
		C206.8,92.6,202.1,86,197.3,79.5z"/>
	<path class="st4" d="M94.4,141.7c4.8,6.5,9.7,13,14.6,19.4c5,6.4,10,12.7,15.2,18.9c-4.3-6.9-8.9-13.5-13.5-20.2
		c-4.6-6.6-9.3-13.2-14.1-19.7c-4.8-6.5-9.6-13-14.6-19.4c-5-6.4-10-12.7-15.2-18.9c4.3,6.9,8.9,13.5,13.5,20.2
		C84.9,128.6,89.6,135.2,94.4,141.7z"/>
</g>
</svg>
