<?xml version="1.0" encoding="utf-8"?>
<!-- Generator: Adobe Illustrator 25.4.1, SVG Export Plug-In . SVG Version: 6.00 Build 0)  -->
<svg version="1.1" id="Capa_1" xmlns="http://www.w3.org/2000/svg" xmlns:xlink="http://www.w3.org/1999/xlink" x="0px" y="0px"
	 viewBox="0 0 827.06 527.29" style="enable-background:new 0 0 827.06 527.29;" xml:space="preserve">
<style type="text/css">
	.st0{opacity:0.28;fill:#D04467;}
	.st1{fill:#F2A2A5;}
	.st2{opacity:0.28;fill:#F2A2A5;}
	.st3{fill:#FBC1C9;}
	.st4{fill:#EEEFF0;}
	.st5{fill:#DA7C80;}
	.st6{opacity:0.58;fill:#F2A2A5;}
	.st7{opacity:0.37;}
	.st8{opacity:0.17;fill:#F2A2A5;}
	.st9{opacity:0.11;fill:#F2A2A5;}
	.st10{opacity:0.39;fill:#F2A2A5;}
	.st11{fill:#86CFC7;}
	.st12{fill:#ABE2DD;}
	.st13{opacity:0.43;fill:#ABE2DD;}
	.st14{opacity:0.24;fill:#ABE2DD;}
	.st15{opacity:0.22;}
	.st16{opacity:0.32;}
	.st17{opacity:0.8;fill:#ABE2DD;}
	.st18{fill:#99D9CF;}
	.st19{opacity:0.21;fill:#ABE2DD;}
	.st20{opacity:0.45;}
	.st21{opacity:0.31;fill:#FBC1C9;}
	.st22{opacity:0.28;}
	.st23{fill:#FFEEED;}
	.st24{opacity:0.31;}
	.st25{fill:#FFE1E6;}
	.st26{opacity:0.28;fill:#FBC1C9;}
	.st27{opacity:0.24;fill:#FBC1C9;}
	.st28{fill:#D22855;}
	.st29{opacity:0.17;fill:#D22855;}
	.st30{opacity:0.19;}
</style>
<g>
	<g>
		<path class="st0" d="M810.87,484.4c0,11.01-10.2,25.48-185.3,25.48c-22.49,0-42.3-0.16-59.74-0.44
			c-27.01,2.68-71.88,4.3-146.25,4.3c-18.84,0-35.79-0.11-51.03-0.31c-17.62,5.61-63.9,3.79-176.94,3.79
			c-171.25,0-186.69-8.93-186.69-19.94c0-11.04,83.58-19.97,186.69-19.97c22.38,0,43.83,0.42,63.71,1.2
			c31.98-6.12,92.91-10.22,162.87-10.22c27.21,0,53.05,0.62,76.36,1.75c33.59-3.48,79.29-5.61,129.63-5.61
			C727.29,464.43,810.87,473.36,810.87,484.4z"/>
		<g>
			<g>
				<g>
					<path class="st1" d="M285.73,14.97v472.56c0,4.4-3.54,7.96-7.94,7.96H44.34c-4.38,0-7.94-3.56-7.94-7.96V14.97
						c0-4.38,3.56-7.94,7.94-7.94h233.44C282.19,7.03,285.73,10.59,285.73,14.97z"/>
					<g>
						<g>
							<path class="st2" d="M153.27,428.91L153.27,428.91c-3.39,0-6.13-2.75-6.13-6.13V77.1c0-3.39,2.75-6.13,6.13-6.13l0,0
								c3.39,0,6.13,2.75,6.13,6.13v345.68C159.4,426.16,156.66,428.91,153.27,428.91z"/>
							<path class="st3" d="M156.59,428.91L156.59,428.91c-3.39,0-6.13-2.75-6.13-6.13V77.1c0-3.39,2.75-6.13,6.13-6.13l0,0
								c3.39,0,6.13,2.75,6.13,6.13v345.68C162.72,426.16,159.97,428.91,156.59,428.91z"/>
							<g>
								<g>
									<g>
										<circle class="st2" cx="154.95" cy="455.67" r="17.67"/>
										<path class="st4" d="M175.88,453.68c0,6.46-3.46,12.11-8.65,15.17c-2.62,1.58-5.7,2.49-9.01,2.49
											c-9.75,0-17.66-7.91-17.66-17.66c0-8.12,5.47-14.94,12.9-17.02c1.5-0.43,3.1-0.66,4.76-0.66
											C167.99,436,175.88,443.91,175.88,453.68z"/>
									</g>
									<g>
										<path class="st5" d="M200.98,453.52c0,1.92-0.93,3.62-2.37,4.67c-0.96,0.72-2.13,1.13-3.43,1.13c-3.19,0-5.8-2.59-5.8-5.8
											c0-2.01,1.03-3.79,2.59-4.82c0.91-0.62,2.01-0.98,3.21-0.98C198.39,447.72,200.98,450.33,200.98,453.52z"/>
										<path class="st6" d="M198.6,458.19c-0.96,0.72-2.13,1.13-3.43,1.13c-3.19,0-5.8-2.59-5.8-5.8c0-2.01,1.03-3.79,2.59-4.82
											C191.48,452.41,192.04,457.64,198.6,458.19z"/>
									</g>
								</g>
								<g>
									<g>
										<path class="st5" d="M124.72,453.52c0,1.92-0.93,3.62-2.37,4.67c-0.96,0.72-2.13,1.13-3.43,1.13c-3.19,0-5.8-2.59-5.8-5.8
											c0-2.01,1.03-3.79,2.59-4.82c0.91-0.62,2.01-0.98,3.21-0.98C122.13,447.72,124.72,450.33,124.72,453.52z"/>
										<path class="st6" d="M122.35,458.19c-0.96,0.72-2.13,1.13-3.43,1.13c-3.19,0-5.8-2.59-5.8-5.8c0-2.01,1.03-3.79,2.59-4.82
											C115.23,452.41,115.78,457.64,122.35,458.19z"/>
									</g>
									<g>
										<circle class="st2" cx="81.27" cy="455.78" r="17.67"/>
										<path class="st4" d="M102.21,453.78c0,6.21-3.21,11.65-8.04,14.78c-2.75,1.83-6.06,2.88-9.62,2.88
											c-9.77,0-17.66-7.91-17.66-17.66c0-7.12,4.2-13.26,10.28-16.03c2.24-1.04,4.73-1.63,7.38-1.63
											C94.3,436.12,102.21,444.04,102.21,453.78z"/>
									</g>
								</g>
								<g>
									<g>
										<circle class="st2" cx="81.27" cy="113.77" r="17.67"/>
										<path class="st4" d="M102.21,111.79c0,5.75-2.75,10.84-7,14.07c-2.95,2.24-6.64,3.59-10.66,3.59
											c-9.77,0-17.66-7.91-17.66-17.66c0-7.58,4.73-14.05,11.43-16.54c1.93-0.74,4.05-1.15,6.23-1.15
											C94.3,94.1,102.21,102.01,102.21,111.79z"/>
									</g>
									<g>
										<path class="st5" d="M88.71,78.57c0,1.92-0.93,3.62-2.37,4.67c-0.96,0.72-2.13,1.13-3.43,1.13c-3.19,0-5.8-2.59-5.8-5.8
											c0-2.01,1.03-3.79,2.59-4.82c0.91-0.62,2.01-0.98,3.21-0.98C86.12,72.77,88.71,75.38,88.71,78.57z"/>
										<path class="st6" d="M86.34,83.25c-0.96,0.72-2.13,1.13-3.43,1.13c-3.19,0-5.8-2.59-5.8-5.8c0-2.01,1.03-3.79,2.59-4.82
											C79.22,77.47,79.77,82.7,86.34,83.25z"/>
									</g>
									<g>
										<circle class="st2" cx="81.27" cy="182.17" r="17.67"/>
										<path class="st4" d="M102.21,180.19c0,5.95-2.95,11.2-7.46,14.4c-2.88,2.06-6.39,3.26-10.2,3.26
											c-9.77,0-17.66-7.91-17.66-17.66c0-7.38,4.5-13.69,10.92-16.31c2.09-0.87,4.35-1.35,6.74-1.35
											C94.3,162.53,102.21,170.41,102.21,180.19z"/>
									</g>
									<g>
										<path class="st5" d="M88.71,146.97c0,1.92-0.93,3.62-2.37,4.67c-0.96,0.72-2.13,1.13-3.43,1.13c-3.19,0-5.8-2.59-5.8-5.8
											c0-2.01,1.03-3.79,2.59-4.82c0.91-0.62,2.01-0.98,3.21-0.98C86.12,141.17,88.71,143.79,88.71,146.97z"/>
										<path class="st6" d="M86.34,151.65c-0.96,0.72-2.13,1.13-3.43,1.13c-3.19,0-5.8-2.59-5.8-5.8c0-2.01,1.03-3.79,2.59-4.82
											C79.22,145.87,79.77,151.1,86.34,151.65z"/>
									</g>
									<g>
										<circle class="st2" cx="81.27" cy="250.57" r="17.67"/>
										<path class="st4" d="M102.21,248.58c0,5.73-2.75,10.81-6.97,14.05c-2.95,2.26-6.67,3.61-10.69,3.61
											c-9.77,0-17.66-7.91-17.66-17.66c0-7.58,4.76-14.05,11.48-16.51c1.93-0.76,4-1.14,6.18-1.14
											C94.3,230.93,102.21,238.81,102.21,248.58z"/>
									</g>
									<g>
										<path class="st5" d="M88.71,215.38c0,1.92-0.93,3.62-2.37,4.67c-0.96,0.72-2.13,1.13-3.43,1.13c-3.19,0-5.8-2.59-5.8-5.8
											c0-2.01,1.03-3.79,2.59-4.82c0.91-0.62,2.01-0.98,3.21-0.98C86.12,209.58,88.71,212.19,88.71,215.38z"/>
										<path class="st6" d="M86.34,220.05c-0.96,0.72-2.13,1.13-3.43,1.13c-3.19,0-5.8-2.59-5.8-5.8c0-2.01,1.03-3.79,2.59-4.82
											C79.22,214.27,79.77,219.5,86.34,220.05z"/>
									</g>
									<g>
										<path class="st2" d="M98.94,318.97c0,9.76-7.91,17.67-17.67,17.67c-9.76,0-17.66-7.91-17.66-17.67
											c0-9.76,7.91-17.66,17.66-17.66C91.03,301.31,98.94,309.22,98.94,318.97z"/>
										<path class="st4" d="M102.21,316.98c0,5.93-2.93,11.2-7.43,14.38c-2.88,2.06-6.41,3.28-10.23,3.28
											c-9.77,0-17.66-7.91-17.66-17.66c0-7.4,4.53-13.72,10.94-16.34c2.09-0.87,4.35-1.32,6.72-1.32
											C94.3,299.32,102.21,307.21,102.21,316.98z"/>
									</g>
									<g>
										<path class="st5" d="M88.71,283.78c0,1.92-0.93,3.62-2.37,4.67c-0.96,0.72-2.13,1.13-3.43,1.13c-3.19,0-5.8-2.59-5.8-5.8
											c0-2.01,1.03-3.79,2.59-4.82c0.91-0.62,2.01-0.98,3.21-0.98C86.12,277.98,88.71,280.59,88.71,283.78z"/>
										<path class="st6" d="M86.34,288.45c-0.96,0.72-2.13,1.13-3.43,1.13c-3.19,0-5.8-2.59-5.8-5.8c0-2.01,1.03-3.79,2.59-4.82
											C79.22,282.67,79.77,287.9,86.34,288.45z"/>
									</g>
									<g>
										
											<ellipse transform="matrix(0.0825 -0.9966 0.9966 0.0825 -311.4864 436.4225)" class="st2" cx="81.27" cy="387.38" rx="17.67" ry="17.66"/>
										<path class="st4" d="M102.21,385.38c0,5.73-2.72,10.81-6.95,14.02c-2.98,2.29-6.67,3.64-10.71,3.64
											c-9.77,0-17.66-7.91-17.66-17.66c0-7.58,4.78-14.07,11.5-16.54c1.91-0.74,4-1.12,6.16-1.12
											C94.3,367.72,102.21,375.64,102.21,385.38z"/>
									</g>
									<g>
										<path class="st5" d="M88.71,352.18c0,1.92-0.93,3.62-2.37,4.67c-0.96,0.72-2.13,1.13-3.43,1.13c-3.19,0-5.8-2.59-5.8-5.8
											c0-2.01,1.03-3.79,2.59-4.82c0.91-0.62,2.01-0.98,3.21-0.98C86.12,346.38,88.71,348.99,88.71,352.18z"/>
										<path class="st6" d="M86.34,356.85c-0.96,0.72-2.13,1.13-3.43,1.13c-3.19,0-5.8-2.59-5.8-5.8c0-2.01,1.03-3.79,2.59-4.82
											C79.22,351.08,79.77,356.3,86.34,356.85z"/>
									</g>
									<g>
										<path class="st5" d="M88.71,420.58c0,1.92-0.93,3.62-2.37,4.67c-0.96,0.72-2.13,1.13-3.43,1.13c-3.19,0-5.8-2.59-5.8-5.8
											c0-2.01,1.03-3.79,2.59-4.82c0.91-0.62,2.01-0.98,3.21-0.98C86.12,414.78,88.71,417.39,88.71,420.58z"/>
										<path class="st6" d="M86.34,425.26c-0.96,0.72-2.13,1.13-3.43,1.13c-3.19,0-5.8-2.59-5.8-5.8c0-2.01,1.03-3.79,2.59-4.82
											C79.22,419.48,79.77,424.7,86.34,425.26z"/>
									</g>
								</g>
								<g>
									<g>
										<g>
											<circle class="st2" cx="81.27" cy="45.37" r="17.67"/>
											<path class="st4" d="M102.21,43.39c0,5.95-2.95,11.22-7.48,14.43c-2.88,2.04-6.39,3.23-10.18,3.23
												c-9.77,0-17.66-7.91-17.66-17.66c0-7.38,4.48-13.69,10.87-16.31c2.09-0.89,4.4-1.37,6.79-1.37
												C94.3,25.7,102.21,33.61,102.21,43.39z"/>
										</g>
										<g>
											<circle class="st2" cx="154.95" cy="45.37" r="17.67"/>
											<path class="st4" d="M175.88,43.39c0,5.93-2.9,11.17-7.4,14.35c-2.88,2.09-6.41,3.31-10.25,3.31
												c-9.75,0-17.66-7.91-17.66-17.66c0-8.7,6.26-15.9,14.5-17.38c1.02-0.2,2.09-0.31,3.16-0.31
												C167.99,25.7,175.88,33.61,175.88,43.39z"/>
										</g>
										<g>
											<path class="st5" d="M124.72,43.22c0,1.92-0.93,3.62-2.37,4.67c-0.96,0.72-2.13,1.13-3.43,1.13c-3.19,0-5.8-2.59-5.8-5.8
												c0-2.01,1.03-3.79,2.59-4.82c0.91-0.62,2.01-0.98,3.21-0.98C122.13,37.42,124.72,40.03,124.72,43.22z"/>
											<path class="st6" d="M122.35,47.89c-0.96,0.72-2.13,1.13-3.43,1.13c-3.19,0-5.8-2.59-5.8-5.8c0-2.01,1.03-3.79,2.59-4.82
												C115.23,42.12,115.78,47.34,122.35,47.89z"/>
										</g>
										<g>
											<path class="st5" d="M200.98,43.22c0,1.92-0.93,3.62-2.37,4.67c-0.96,0.72-2.13,1.13-3.43,1.13c-3.19,0-5.8-2.59-5.8-5.8
												c0-2.01,1.03-3.79,2.59-4.82c0.91-0.62,2.01-0.98,3.21-0.98C198.39,37.42,200.98,40.03,200.98,43.22z"/>
											<path class="st6" d="M198.6,47.89c-0.96,0.72-2.13,1.13-3.43,1.13c-3.19,0-5.8-2.59-5.8-5.8c0-2.01,1.03-3.79,2.59-4.82
												C191.48,42.12,192.04,47.34,198.6,47.89z"/>
										</g>
									</g>
									<g>
										<g>
											<circle class="st2" cx="228.46" cy="455.67" r="17.67"/>
											<path class="st4" d="M249.39,453.68c0,6.67-3.71,12.47-9.16,15.47c-2.52,1.4-5.42,2.19-8.5,2.19
												c-9.75,0-17.66-7.91-17.66-17.66c0-7.96,5.24-14.68,12.44-16.92c1.65-0.48,3.41-0.76,5.22-0.76
												C241.48,436,249.39,443.91,249.39,453.68z"/>
										</g>
										<g>
											<g>
												<circle class="st2" cx="228.46" cy="45.37" r="17.67"/>
												<path class="st4" d="M249.39,43.39c0,6.46-3.49,12.11-8.68,15.17c-2.62,1.6-5.7,2.49-8.98,2.49
													c-9.75,0-17.66-7.91-17.66-17.66c0-8.17,5.55-15.06,13.05-17.07c1.48-0.41,3-0.61,4.61-0.61
													C241.48,25.7,249.39,33.61,249.39,43.39z"/>
											</g>
											<g>
												<g>
													<circle class="st2" cx="229.32" cy="113.77" r="17.67"/>
													<path class="st4" d="M250.26,111.79c0,6.59-3.61,12.34-8.98,15.37c-2.57,1.45-5.52,2.29-8.68,2.29
														c-9.77,0-17.66-7.91-17.66-17.66c0-8.07,5.39-14.89,12.77-17c1.55-0.46,3.18-0.69,4.89-0.69
														C242.34,94.1,250.26,102.01,250.26,111.79z"/>
												</g>
												<g>
													<path class="st5" d="M236.76,78.57c0,1.92-0.93,3.62-2.37,4.67c-0.96,0.72-2.13,1.13-3.43,1.13
														c-3.19,0-5.8-2.59-5.8-5.8c0-2.01,1.03-3.79,2.59-4.82c0.91-0.62,2.01-0.98,3.21-0.98
														C234.17,72.77,236.76,75.38,236.76,78.57z"/>
													<path class="st6" d="M234.38,83.25c-0.96,0.72-2.13,1.13-3.43,1.13c-3.19,0-5.8-2.59-5.8-5.8
														c0-2.01,1.03-3.79,2.59-4.82C227.26,77.47,227.82,82.7,234.38,83.25z"/>
												</g>
												<g>
													<circle class="st2" cx="229.32" cy="182.17" r="17.67"/>
													<path class="st4" d="M250.26,180.19c0,6.74-3.79,12.6-9.34,15.57c-2.47,1.32-5.32,2.09-8.32,2.09
														c-9.77,0-17.66-7.91-17.66-17.66c0-7.91,5.17-14.58,12.32-16.85c1.68-0.53,3.49-0.81,5.34-0.81
														C242.34,162.53,250.26,170.41,250.26,180.19z"/>
												</g>
												<g>
													<path class="st5" d="M236.76,146.97c0,1.92-0.93,3.62-2.37,4.67c-0.96,0.72-2.13,1.13-3.43,1.13
														c-3.19,0-5.8-2.59-5.8-5.8c0-2.01,1.03-3.79,2.59-4.82c0.91-0.62,2.01-0.98,3.21-0.98
														C234.17,141.17,236.76,143.79,236.76,146.97z"/>
													<path class="st6" d="M234.38,151.65c-0.96,0.72-2.13,1.13-3.43,1.13c-3.19,0-5.8-2.59-5.8-5.8
														c0-2.01,1.03-3.79,2.59-4.82C227.26,145.87,227.82,151.1,234.38,151.65z"/>
												</g>
												<g>
													<circle class="st2" cx="229.32" cy="250.57" r="17.67"/>
													<path class="st4" d="M250.26,248.58c0,6.59-3.61,12.34-8.96,15.34c-2.57,1.48-5.52,2.32-8.7,2.32
														c-9.77,0-17.66-7.91-17.66-17.66c0-8.09,5.39-14.89,12.8-16.97c1.55-0.46,3.18-0.69,4.86-0.69
														C242.34,230.93,250.26,238.81,250.26,248.58z"/>
												</g>
												<g>
													<path class="st5" d="M236.76,215.38c0,1.92-0.93,3.62-2.37,4.67c-0.96,0.72-2.13,1.13-3.43,1.13
														c-3.19,0-5.8-2.59-5.8-5.8c0-2.01,1.03-3.79,2.59-4.82c0.91-0.62,2.01-0.98,3.21-0.98
														C234.17,209.58,236.76,212.19,236.76,215.38z"/>
													<path class="st6" d="M234.38,220.05c-0.96,0.72-2.13,1.13-3.43,1.13c-3.19,0-5.8-2.59-5.8-5.8
														c0-2.01,1.03-3.79,2.59-4.82C227.26,214.27,227.82,219.5,234.38,220.05z"/>
												</g>
												<g>
													<path class="st2" d="M246.99,318.97c0,9.76-7.91,17.67-17.67,17.67c-9.76,0-17.67-7.91-17.67-17.67
														c0-9.76,7.91-17.66,17.67-17.66C239.08,301.31,246.99,309.22,246.99,318.97z"/>
													<path class="st4" d="M250.26,316.98c0,6.74-3.79,12.6-9.34,15.57c-2.47,1.32-5.32,2.09-8.32,2.09
														c-9.77,0-17.66-7.91-17.66-17.66c0-7.91,5.19-14.61,12.34-16.85c1.68-0.53,3.46-0.81,5.32-0.81
														C242.34,299.32,250.26,307.21,250.26,316.98z"/>
												</g>
												<g>
													<path class="st5" d="M236.76,283.78c0,1.92-0.93,3.62-2.37,4.67c-0.96,0.72-2.13,1.13-3.43,1.13
														c-3.19,0-5.8-2.59-5.8-5.8c0-2.01,1.03-3.79,2.59-4.82c0.91-0.62,2.01-0.98,3.21-0.98
														C234.17,277.98,236.76,280.59,236.76,283.78z"/>
													<path class="st6" d="M234.38,288.45c-0.96,0.72-2.13,1.13-3.43,1.13c-3.19,0-5.8-2.59-5.8-5.8
														c0-2.01,1.03-3.79,2.59-4.82C227.26,282.67,227.82,287.9,234.38,288.45z"/>
												</g>
												<g>
													
														<ellipse transform="matrix(0.1602 -0.9871 0.9871 0.1602 -189.7872 551.6849)" class="st2" cx="229.32" cy="387.38" rx="17.67" ry="17.67"/>
													<path class="st4" d="M250.26,385.38c0,6.57-3.59,12.32-8.93,15.34c-2.57,1.48-5.55,2.32-8.73,2.32
														c-9.77,0-17.66-7.91-17.66-17.66c0-8.09,5.42-14.91,12.85-16.97c1.53-0.46,3.13-0.69,4.81-0.69
														C242.34,367.72,250.26,375.64,250.26,385.38z"/>
												</g>
												<g>
													<path class="st5" d="M236.76,352.18c0,1.92-0.93,3.62-2.37,4.67c-0.96,0.72-2.13,1.13-3.43,1.13
														c-3.19,0-5.8-2.59-5.8-5.8c0-2.01,1.03-3.79,2.59-4.82c0.91-0.62,2.01-0.98,3.21-0.98
														C234.17,346.38,236.76,348.99,236.76,352.18z"/>
													<path class="st6" d="M234.38,356.85c-0.96,0.72-2.13,1.13-3.43,1.13c-3.19,0-5.8-2.59-5.8-5.8
														c0-2.01,1.03-3.79,2.59-4.82C227.26,351.08,227.82,356.3,234.38,356.85z"/>
												</g>
												<g>
													<path class="st5" d="M236.76,420.58c0,1.92-0.93,3.62-2.37,4.67c-0.96,0.72-2.13,1.13-3.43,1.13
														c-3.19,0-5.8-2.59-5.8-5.8c0-2.01,1.03-3.79,2.59-4.82c0.91-0.62,2.01-0.98,3.21-0.98
														C234.17,414.78,236.76,417.39,236.76,420.58z"/>
													<path class="st6" d="M234.38,425.26c-0.96,0.72-2.13,1.13-3.43,1.13c-3.19,0-5.8-2.59-5.8-5.8
														c0-2.01,1.03-3.79,2.59-4.82C227.26,419.48,227.82,424.7,234.38,425.26z"/>
												</g>
											</g>
										</g>
									</g>
								</g>
							</g>
						</g>
						<g class="st7">
							<path class="st3" d="M94.73,57.81c-2.88,2.04-6.39,3.23-10.18,3.23c-9.77,0-17.66-7.91-17.66-17.66
								c0-7.38,4.48-13.69,10.87-16.31L94.73,57.81z"/>
							<path class="st3" d="M168.47,57.74c-2.88,2.09-6.41,3.31-10.25,3.31c-9.75,0-17.66-7.91-17.66-17.66
								c0-8.7,6.26-15.9,14.5-17.38C159.21,35.12,164.35,47.56,168.47,57.74z"/>
							<path class="st3" d="M167.23,468.85c-2.62,1.58-5.7,2.49-9.01,2.49c-9.75,0-17.66-7.91-17.66-17.66
								c0-8.12,5.47-14.94,12.9-17.02C157.4,445.06,162.77,457.88,167.23,468.85z"/>
							<path class="st3" d="M240.71,58.55c-2.62,1.6-5.7,2.49-8.98,2.49c-9.75,0-17.66-7.91-17.66-17.66
								c0-8.17,5.55-15.06,13.05-17.07C231.35,35.65,236.59,48.35,240.71,58.55z"/>
							<path class="st3" d="M95.21,125.86c-2.95,2.24-6.64,3.59-10.66,3.59c-9.77,0-17.66-7.91-17.66-17.66
								c0-7.58,4.73-14.05,11.43-16.54L95.21,125.86z"/>
							<path class="st3" d="M241.27,127.16c-2.57,1.45-5.52,2.29-8.68,2.29c-9.77,0-17.66-7.91-17.66-17.66
								c0-8.07,5.39-14.89,12.77-17C232.01,104.43,237.25,117.18,241.27,127.16z"/>
							<path class="st3" d="M94.75,194.59c-2.88,2.06-6.39,3.26-10.2,3.26c-9.77,0-17.66-7.91-17.66-17.66
								c0-7.38,4.5-13.69,10.92-16.31L94.75,194.59z"/>
							<path class="st3" d="M240.92,195.76c-2.47,1.32-5.32,2.09-8.32,2.09c-9.77,0-17.66-7.91-17.66-17.66
								c0-7.91,5.17-14.58,12.32-16.85C231.53,172.78,236.8,185.58,240.92,195.76z"/>
							<path class="st3" d="M95.24,262.63c-2.95,2.26-6.67,3.61-10.69,3.61c-9.77,0-17.66-7.91-17.66-17.66
								c0-7.58,4.76-14.05,11.48-16.51L95.24,262.63z"/>
							<path class="st3" d="M241.3,263.93c-2.57,1.48-5.52,2.32-8.7,2.32c-9.77,0-17.66-7.91-17.66-17.66
								c0-8.09,5.39-14.89,12.8-16.97C232.06,241.26,237.3,253.98,241.3,263.93z"/>
							<path class="st3" d="M94.78,331.36c-2.88,2.06-6.41,3.28-10.23,3.28c-9.77,0-17.66-7.91-17.66-17.66
								c0-7.4,4.53-13.72,10.94-16.34L94.78,331.36z"/>
							<path class="st3" d="M240.92,332.56c-2.47,1.32-5.32,2.09-8.32,2.09c-9.77,0-17.66-7.91-17.66-17.66
								c0-7.91,5.19-14.61,12.34-16.85C231.55,309.61,236.82,322.4,240.92,332.56z"/>
							<path class="st3" d="M95.26,399.41c-2.98,2.29-6.67,3.64-10.71,3.64c-9.77,0-17.66-7.91-17.66-17.66
								c0-7.58,4.78-14.07,11.5-16.54L95.26,399.41z"/>
							<path class="st3" d="M241.33,400.73c-2.57,1.48-5.55,2.32-8.73,2.32c-9.77,0-17.66-7.91-17.66-17.66
								c0-8.09,5.42-14.91,12.85-16.97C232.09,378.06,237.33,390.78,241.33,400.73z"/>
							<path class="st3" d="M94.17,468.57c-2.75,1.83-6.06,2.88-9.62,2.88c-9.77,0-17.66-7.91-17.66-17.66
								c0-7.12,4.2-13.26,10.28-16.03L94.17,468.57z"/>
							<path class="st3" d="M240.23,469.15c-2.52,1.4-5.42,2.19-8.5,2.19c-9.75,0-17.66-7.91-17.66-17.66
								c0-7.96,5.24-14.68,12.44-16.92C230.69,445.84,235.98,458.67,240.23,469.15z"/>
						</g>
					</g>
					<g>
						<path class="st8" d="M285.73,421.68v65.86c0,4.4-3.54,7.96-7.94,7.96H44.34c-4.38,0-7.94-3.56-7.94-7.96V14.97
							c0-4.38,3.56-7.94,7.94-7.94h38.5c-0.13,5.83-0.25,12.11-0.28,18.8v1.93c-0.03,2.62-0.03,5.29,0,8.02
							c0,7.94,0.13,16.36,0.38,25.17c0,0.66,0.03,1.32,0.05,1.99c0.08,3.23,0.18,6.54,0.33,9.87c0.1,3.26,0.25,6.54,0.43,9.87
							c0,0.53,0.03,1.09,0.05,1.63c0.18,3.23,0.36,6.49,0.53,9.8c0.05,0.76,0.1,1.53,0.15,2.32c0.23,3.79,0.48,7.61,0.79,11.48
							c0.51,7,1.12,14.12,1.83,21.35c0.03,0.38,0.08,0.76,0.1,1.15c1.09,10.99,2.44,22.19,4.05,33.49c0.18,1.37,0.38,2.77,0.59,4.17
							c1.2,8.02,2.49,16.08,4,24.12c0.08,0.46,0.15,0.92,0.23,1.37c8.22,44.33,21.07,88.55,40.97,126.11
							c3.18,6.01,6.54,11.83,10.1,17.48c1.07,1.73,2.19,3.44,3.31,5.11c2.85,4.33,5.85,8.5,8.96,12.55c1.09,1.42,2.19,2.82,3.31,4.2
							c13.36,16.54,28.93,30.59,47,41.15c6.62,3.89,13.59,7.3,20.89,10.2C247.12,416.92,265.42,420.86,285.73,421.68z"/>
						<g>
							<path class="st9" d="M285.73,14.97v338.61c-19.06-1.63-37.2-7.61-53.84-17.15c-0.18-0.1-0.36-0.2-0.51-0.31
								c-1.22-0.69-2.42-1.42-3.59-2.14c-3.1-1.93-6.13-3.97-9.11-6.13c-2.24-1.6-4.43-3.28-6.59-5.06
								c-19.72-15.9-36.57-37.28-49.37-62.47c-1.12-2.21-2.24-4.48-3.31-6.79c-3.31-7.1-6.31-14.5-8.96-22.14
								c-1.2-3.33-2.29-6.74-3.31-10.18c-7.13-23.64-11.02-49.39-11.02-76.34c0-29.42,4.66-57.43,13.05-82.83
								c0.33-0.99,0.66-1.98,0.99-2.95c2.75-7.94,5.85-15.62,9.31-23c1.04-2.24,2.11-4.43,3.21-6.59c0.46-0.92,0.94-1.83,1.42-2.75
								c3.61-6.9,7.53-13.46,11.73-19.72h101.94C282.19,7.03,285.73,10.59,285.73,14.97z"/>
							
								<ellipse transform="matrix(0.3827 -0.9239 0.9239 0.3827 -240.0278 378.6692)" class="st9" cx="163.35" cy="368.95" rx="55.89" ry="55.89"/>
						</g>
					</g>
				</g>
				<path class="st10" d="M285.73,119.17v368.36c0,4.4-3.54,7.96-7.94,7.96h-43.31c-0.51-6.87-1.02-14.5-1.5-22.77
					c-0.03-0.46-0.05-0.92-0.08-1.4c-0.41-7.07-0.79-14.63-1.12-22.55c-0.15-3.44-0.28-6.95-0.41-10.53
					c-0.03-0.74-0.05-1.48-0.08-2.21c-0.13-3.16-0.23-6.39-0.31-9.64c-0.03-0.69-0.05-1.35-0.05-2.04c-0.1-3.13-0.18-6.31-0.23-9.54
					c-0.03-1.48-0.05-2.95-0.1-4.45c-0.03-1.78-0.05-3.59-0.08-5.39c0-0.69-0.03-1.37-0.03-2.06c-0.1-9.24-0.13-18.75-0.05-28.42
					c0-1.55,0.03-3.13,0.05-4.68c0-0.64,0-1.3,0.03-1.93c0.05-3.26,0.1-6.57,0.15-9.87c0.03-0.71,0.05-1.43,0.05-2.16
					c0.08-3.13,0.18-6.29,0.28-9.44c0.1-3.28,0.2-6.57,0.33-9.87c0-0.13,0.03-0.25,0.03-0.38c0.03-0.51,0.05-1.04,0.05-1.55
					c0.31-7.35,0.69-14.76,1.17-22.19c0.2-3.54,0.46-7.07,0.71-10.61c0.05-0.79,0.1-1.58,0.18-2.39c0.28-3.64,0.56-7.3,0.89-10.94
					c0.25-2.9,0.53-5.78,0.84-8.6c0.46-4.53,0.99-8.96,1.55-13.28c0.05-0.28,0.08-0.56,0.13-0.84c0.41-3.18,0.87-6.31,1.32-9.39
					c0.99-6.41,2.06-12.62,3.23-18.58c0.25-1.32,0.53-2.65,0.79-3.94C254.43,174.06,274.76,136.83,285.73,119.17z"/>
			</g>
			<g>
				<g>
					<path class="st11" d="M532.84,487.86c0,3.38-4.25,6.46-24.58,8.7c-4.76,0.53-10.38,1.02-17.05,1.45
						c-22.88,1.48-57.89,2.34-111.2,2.34c-142.32,0-152.86-5.6-152.86-12.49c0-3.49,5.09-6.67,27.46-8.93
						c21.73-2.21,59.8-3.56,125.4-3.56c52.01,0,87.1,0.94,110.39,2.57c5.55,0.36,10.43,0.79,14.68,1.22
						C526.45,481.42,532.84,484.5,532.84,487.86z"/>
					<g>
						<g>
							<path class="st12" d="M408.84,91.66c0,0-39.62-1.7-57.74,4.53c0,0-0.56-37.23,29.29-39.03c0.05-0.03,0.1-0.03,0.15-0.03
								c17.33-0.97,24.12,9.85,26.74,19.62C409.4,84.54,408.84,91.66,408.84,91.66z"/>
							<path class="st13" d="M408.84,91.66c0,0-39.62-1.7-57.74,4.53c0,0-0.56-37.23,29.29-39.03c-3.64,5.85-11.48,17.43-7.84,16.95
								c7.37-0.97,15.73-1.07,34.73,2.65C409.4,84.54,408.84,91.66,408.84,91.66z"/>
						</g>
						<g>
							<path class="st12" d="M510.47,393.76c-0.25,42.98-2.82,73.62-3.03,76.49c-0.25,3.69-0.99,6.64-2.37,8.91
								c-2.39,4.12-6.82,5.98-14.02,5.98h-0.56c-15.29,0.08-178.68,2.98-221.26,2.98c-4.96,0-11.58-0.84-14.63-9.19
								c-1.09-2.9-1.73-6.69-1.73-11.65c0-18.25-31.71-346.27,99.62-382.97c6.95-1.96,14.33-3.08,22.21-3.31
								c1.32-0.05,2.62-0.05,3.94-0.05c10.92,0.1,20.94,1.91,30.15,5.24c1.02,0.33,2.01,0.71,3,1.12
								c33.39,13.38,55.73,46.69,70.59,88.37c16.74,46.92,24,104.48,26.69,156.24C510.24,354.02,510.57,375.06,510.47,393.76z"/>
							<path class="st14" d="M510.47,393.76c-0.25,42.98-2.82,73.62-3.03,76.49c-0.25,3.69-0.99,6.64-2.37,8.91
								c-2.39,4.12-6.82,5.98-14.02,5.98h-0.56c-15.29,0.08-178.68,2.98-221.26,2.98c-4.96,0-11.58-0.84-14.63-9.19
								c-1.09-2.9-1.73-6.69-1.73-11.65c0-18.25-31.71-346.27,99.62-382.97c6.95-1.96,14.33-3.08,22.21-3.31
								c-2.39,3.46-4.89,7.4-7.46,11.93c-15.75,27.58-34.1,76.01-42.16,158c-0.74,7.61-0.89,14.81-0.46,21.63
								c2.65,46.97,30.97,75.88,66.14,93.64c31.78,16.06,69.19,23,98.32,25.96C496.9,392.95,504.11,393.46,510.47,393.76z"/>
							<g class="st15">
								<path class="st12" d="M509.09,331.93c-2.42,0.15-4.86,0.23-7.3,0.23c-4.61,0-9.13-0.25-13.61-0.76
									c-65.75-7.4-117.03-67.79-117.03-141.18c0-0.74,0-1.48,0.03-2.21c0.05-4.55,0.31-9.06,0.76-13.49
									c3.26-32.06,16.31-60.92,35.88-82.9c0.36-0.41,0.71-0.79,1.07-1.2c0.97-1.04,1.93-2.09,2.93-3.1
									c33.39,13.38,55.73,46.69,70.59,88.37C499.14,222.61,506.4,280.17,509.09,331.93z"/>
								<circle class="st12" cx="341.41" cy="330.9" r="60.72"/>
							</g>
						</g>
					</g>
				</g>
				<g class="st16">
					<g>
						<path class="st12" d="M435.1,203.64c1.47,7.47,2.81,14.95,4.02,22.46c-0.24-1.47-0.47-2.94-0.71-4.41
							c6.95,43.67,9.35,87.99,7.12,132.15c-0.44,8.71,8.56,16.81,17.06,16.21c9.57-0.68,15.74-7.73,16.21-17.06
							c2.05-40.53,0.23-81.23-5.49-121.41c-1.79-12.59-3.9-25.14-6.35-37.62c-0.76-3.86-4.59-7.92-7.9-9.74
							c-3.62-1.99-8.9-2.74-12.86-1.35c-3.99,1.41-7.81,4-9.74,7.9C434.35,195.01,434.19,199.02,435.1,203.64L435.1,203.64z"/>
					</g>
					<g>
						<path class="st12" d="M436.8,174.99c8.7-0.22,16.84-8.09,16.21-17.06c-0.64-9-7.74-16.45-17.06-16.21
							c-8.7,0.22-16.84,8.09-16.21,17.06C420.37,167.78,427.48,175.23,436.8,174.99L436.8,174.99z"/>
					</g>
				</g>
				<path class="st17" d="M532.84,487.86c0,3.38-4.25,6.46-24.58,8.7c-4.76,0.53-10.38,1.02-17.05,1.45l-0.71-12.88l-0.1-7.2
					l-1.3-85.78l-0.92-60.77l-2.14-142.04L371.17,188l-23.69-0.28c0,0,1.98-13.33,9.26-13.33c1.3,0,6.9,0.05,15.19,0.13
					c26.26,0.25,79.72,0.84,110.46,1.17c16.74,46.92,24,104.48,26.69,156.24c1.14,22.09,1.48,43.13,1.37,61.83
					c-0.25,42.98-2.82,73.62-3.03,76.49c-0.25,3.69-0.99,6.64-2.37,8.91C526.45,481.42,532.84,484.5,532.84,487.86z"/>
			</g>
			<g>
				<g>
					
						<ellipse transform="matrix(0.7071 -0.7071 0.7071 0.7071 -48.2105 584.5394)" class="st18" cx="681.5" cy="350.46" rx="137.09" ry="137.09"/>
					<g>
						<g>
							<g>
								<path class="st14" d="M782.74,357.71c0,24.07-7.9,46.28-21.29,64.14c0,0.06-0.06,0.09-0.09,0.12
									c-8.17,10.88-18.37,20.19-30.03,27.29c-16.25,9.93-35.34,15.66-55.79,15.66c-59.19,0-107.2-47.98-107.2-107.2
									c0-27.4,10.29-52.42,27.26-71.39c0.03,0,0.03-0.03,0.03-0.06c17.92-20.04,43.24-33.28,71.66-35.46h0.03
									c2.71-0.18,5.46-0.3,8.23-0.3C734.75,250.5,782.74,298.51,782.74,357.71z"/>
								<path class="st12" d="M788.7,350.46c0,27.43-10.29,52.45-27.26,71.39c0,0.06-0.06,0.09-0.09,0.12
									c-9.63,10.77-21.41,19.56-34.65,25.73c-13.75,6.38-29.05,9.96-45.21,9.96c-59.19,0-107.2-47.98-107.2-107.2
									c0-24.06,7.9-46.25,21.29-64.14c0.03,0,0.03-0.03,0.03-0.06c17.98-23.98,45.77-40.2,77.41-42.67
									c2.8-0.21,5.64-0.33,8.47-0.33C740.72,243.26,788.7,291.27,788.7,350.46z"/>
							</g>
							<path class="st19" d="M788.7,350.46c0,27.43-10.29,52.45-27.26,71.39c0,0.06-0.06,0.09-0.09,0.12
								c-8.17,10.88-18.37,20.19-30.03,27.29c-1.55-0.48-3.1-1.01-4.62-1.55c-49.23-18.01-84.39-65.28-84.39-120.74
								c0-28.54,9.27-54.87,24.96-76.16h0.03c1.82-2.48,3.73-4.89,5.73-7.22c2.8-0.21,5.64-0.33,8.47-0.33
								C740.72,243.26,788.7,291.27,788.7,350.46z"/>
						</g>
						<g class="st20">
							<g>
								<path class="st18" d="M686.07,267.11c21.71,3.03,41.64,13.52,56,30.16c14.85,17.21,21.91,40.23,20.58,62.77
									c-0.56,9.59,14.35,9.55,14.91,0c1.54-26.2-7.32-52.37-24.19-72.43c-15.81-18.79-39.04-31.49-63.33-34.88
									c-3.98-0.56-8.01,0.97-9.17,5.21C679.91,261.42,682.06,266.55,686.07,267.11L686.07,267.11z"/>
							</g>
							<g>
								<path class="st18" d="M761.82,388.73c9.59,0,9.61-14.91,0-14.91C752.23,373.82,752.22,388.73,761.82,388.73L761.82,388.73z"
									/>
							</g>
							<g>
								<path class="st18" d="M721.23,423.58c-9.84,5.77-21.14,7.18-32.34,8c-12.26,0.9-25.11,0.82-36.91-2.97
									c-17.69-5.68-32.75-20.03-38.68-37.76c-1.28-3.82-4.48-6.7-8.78-5.84c-3.57,0.72-7.12,4.94-5.84,8.78
									c7.49,22.39,24.72,40.87,47.29,48.54c13.85,4.7,28.57,5.01,43.02,4.07c13.37-0.87,27.07-2.54,38.84-9.44
									c3.47-2.03,5.26-6.19,3.39-9.99C729.53,423.56,724.72,421.54,721.23,423.58L721.23,423.58z"/>
							</g>
							<g>
								<path class="st18" d="M599.83,364.56c-0.75-2.25-1.34-4.55-1.73-6.9c-0.06-0.33-0.11-0.67-0.16-1
									c0.04,0.32,0.09,0.65,0.13,0.97c-0.2-0.12-0.18-1.76-0.2-2.02c-0.08-1.1-0.12-2.2-0.12-3.3c0-1.1,0.04-2.2,0.12-3.3
									c0.02-0.24,0.01-1.94,0.19-2.02c-0.05,0.32-0.09,0.65-0.14,0.97c0.05-0.34,0.1-0.67,0.15-1.01c0.38-2.34,0.97-4.64,1.71-6.9
									c1.22-3.71-1.42-8.31-5.21-9.17c-4.11-0.94-7.86,1.24-9.17,5.21c-3.43,10.39-3.42,22.05,0.04,32.44
									c1.23,3.69,5.2,6.49,9.17,5.21C598.3,372.54,601.16,368.52,599.83,364.56L599.83,364.56z"/>
							</g>
						</g>
					</g>
				</g>
				<g>
					<g>
						<g>
							<g>
								<g>
									<path class="st3" d="M679.07,404.78v16.59c0,3.54-2.26,6.54-5.45,7.63c-0.84,0.28-1.73,0.43-2.65,0.43h-70.69
										c-0.92,0-1.81-0.15-2.65-0.43c-3.18-1.09-5.45-4.1-5.45-7.63v-16.59c0-4.48,3.61-8.09,8.09-8.09h70.69
										C675.46,396.69,679.07,400.3,679.07,404.78z"/>
									<path class="st21" d="M679.07,419.05v2.32c0,3.54-2.26,6.54-5.45,7.63c-0.84,0.28-1.73,0.43-2.65,0.43h-70.69
										c-0.92,0-1.81-0.15-2.65-0.43c-3.18-1.09-5.45-4.1-5.45-7.63v-16.59c0-4.48,3.61-8.09,8.09-8.09h14.86
										c-0.15,6.11,1.17,19.98,14.22,21.27C639.22,418.95,662.38,419.11,679.07,419.05z"/>
								</g>
								<g class="st22">
									<g>
										<path class="st23" d="M629.46,407.23c10.91-0.47,21.83-0.56,32.74-0.26c4.09,0.11,4.4-6.24,0.3-6.35
											c-10.91-0.3-21.84-0.21-32.74,0.26c-1.72,0.07-3.24,1.2-3.33,3.03C626.35,405.5,627.73,407.3,629.46,407.23L629.46,407.23
											z"/>
									</g>
									<g>
										<path class="st23" d="M670.29,407.19c4.09,0.02,4.13-6.34,0.03-6.36C666.23,400.81,666.19,407.17,670.29,407.19
											L670.29,407.19z"/>
									</g>
								</g>
							</g>
							<g>
								<g>
									<path class="st3" d="M679.07,436.64v16.59c0,3.1-1.76,5.8-4.33,7.15c-1.12,0.59-2.42,0.92-3.77,0.92h-70.69
										c-1.35,0-2.65-0.33-3.77-0.92c-2.57-1.35-4.33-4.05-4.33-7.15v-16.59c0-3.56,2.26-6.57,5.45-7.63
										c0.84-0.31,1.73-0.46,2.65-0.46h70.69c0.92,0,1.81,0.15,2.65,0.46C676.81,430.07,679.07,433.08,679.07,436.64z"/>
									<path class="st21" d="M679.07,450.91v2.32c0,3.1-1.76,5.8-4.33,7.15c-1.12,0.59-2.42,0.92-3.77,0.92h-70.69
										c-1.35,0-2.65-0.33-3.77-0.92c-2.57-1.35-4.33-4.05-4.33-7.15v-16.59c0-3.56,2.26-6.57,5.45-7.63
										c0.84-0.31,1.73-0.46,2.65-0.46h14.86v0.89c0,5.04,1.07,13.87,7.46,18.09c1.81,1.2,4.02,2.01,6.77,2.29
										C639.22,450.81,662.38,450.96,679.07,450.91z"/>
								</g>
								<g class="st22">
									<g>
										<path class="st23" d="M629.46,441.26c10.91-0.47,21.83-0.56,32.74-0.26c4.09,0.11,4.4-6.24,0.3-6.35
											c-10.91-0.3-21.84-0.21-32.74,0.26c-1.72,0.07-3.24,1.2-3.33,3.03C626.35,439.54,627.73,441.34,629.46,441.26
											L629.46,441.26z"/>
									</g>
									<g>
										<path class="st23" d="M670.29,441.23c4.09,0.02,4.13-6.34,0.03-6.36C666.23,434.85,666.19,441.21,670.29,441.23
											L670.29,441.23z"/>
									</g>
								</g>
							</g>
							<g>
								<g>
									<path class="st3" d="M679.07,467.53v16.59c0,4.45-3.61,8.07-8.09,8.07h-70.69c-2.44,0-4.66-1.09-6.11-2.8
										c-1.25-1.4-1.98-3.23-1.98-5.27v-16.59c0-3.13,1.76-5.83,4.33-7.15c1.12-0.61,2.42-0.94,3.77-0.94h70.69
										c1.35,0,2.65,0.33,3.77,0.94C677.32,461.7,679.07,464.4,679.07,467.53z"/>
									<path class="st21" d="M679.07,481.81v2.32c0,4.45-3.61,8.07-8.09,8.07h-70.69c-2.44,0-4.66-1.09-6.11-2.8
										c-1.25-1.4-1.98-3.23-1.98-5.27v-16.59c0-3.13,1.76-5.83,4.33-7.15c1.12-0.61,2.42-0.94,3.77-0.94h14.86
										c-0.03,0.56-0.03,1.17,0.03,1.86c0.05,2.06,0.28,4.61,0.97,7.15c0,0.03,0,0.03,0,0.03c1.48,5.67,5.04,11.43,13.23,12.24
										C639.22,481.7,662.38,481.86,679.07,481.81z"/>
								</g>
								<g class="st22">
									<g>
										<path class="st23" d="M629.46,472.11c10.91-0.47,21.83-0.56,32.74-0.26c4.09,0.11,4.4-6.24,0.3-6.35
											c-10.91-0.3-21.84-0.21-32.74,0.26c-1.72,0.07-3.24,1.2-3.33,3.03C626.35,470.39,627.73,472.19,629.46,472.11
											L629.46,472.11z"/>
									</g>
									<g>
										<path class="st23" d="M670.29,472.08c4.09,0.02,4.13-6.34,0.03-6.36C666.23,465.7,666.19,472.06,670.29,472.08
											L670.29,472.08z"/>
									</g>
								</g>
							</g>
						</g>
						<path class="st21" d="M622.61,447.53c-0.41,4.02-1.2,8.02-2.49,11.91c-0.18,0.61-0.41,1.25-0.64,1.86
							c-0.89,2.42-2.01,4.81-3.33,7.15c0,0.03,0,0.03,0,0.03c-4.48,7.91-11.5,15.12-21.96,20.92c-1.25-1.4-1.98-3.23-1.98-5.27
							v-16.59c0-3.13,1.76-5.83,4.33-7.15c-2.57-1.35-4.33-4.05-4.33-7.15v-16.59c0-3.56,2.26-6.57,5.45-7.63
							c-3.18-1.09-5.45-4.1-5.45-7.63v-16.59c0-4.48,3.61-8.09,8.09-8.09h11.96c3.66,8.09,7.94,19.49,9.75,31.86
							c0.08,0.28,0.13,0.59,0.15,0.89C622.99,435.34,623.24,441.47,622.61,447.53z"/>
					</g>
					<g>
						<g>
							<path class="st3" d="M615.48,439.92c0,9.16-2.34,17.81-6.51,25.32c-0.2,0.43-0.46,0.87-0.71,1.3
								c-9.14,15.6-26.08,26.06-45.45,26.06c-8.52,0-16.62-2.04-23.74-5.65c-17.18-8.68-28.93-26.49-28.93-47.02
								c0-17,8.04-32.11,20.53-41.73c8.91-6.87,20.05-10.94,32.14-10.94c2.01,0,4,0.1,5.93,0.36c4.61,0.48,9.01,1.6,13.18,3.23
								C601.56,398.47,615.48,417.55,615.48,439.92z"/>
							<g>
								<g class="st24">
									<path class="st3" d="M561.07,484.82c-7.07,0-14.11-1.68-20.36-4.85c-15.31-7.73-24.82-23.19-24.82-40.33
										c0-24.91,20.27-45.18,45.18-45.18c5.65,0,11.16,1.04,16.39,3.08c17.49,6.8,28.79,23.32,28.79,42.1
										C606.26,464.55,585.99,484.82,561.07,484.82z M561.07,396.58c-23.74,0-43.05,19.31-43.05,43.05
										c0,16.34,9.06,31.06,23.65,38.43c5.96,3.02,12.66,4.62,19.4,4.62c23.74,0,43.05-19.31,43.05-43.05
										c0-17.89-10.77-33.64-27.43-40.12C571.71,397.57,566.45,396.58,561.07,396.58z"/>
								</g>
								<g>
									<path class="st25" d="M562.81,485.1c-7.07,0-14.11-1.68-20.36-4.85c-15.31-7.73-24.82-23.19-24.82-40.33
										c0-24.91,20.27-45.18,45.18-45.18c5.65,0,11.16,1.04,16.39,3.08c17.49,6.8,28.79,23.32,28.79,42.1
										C607.99,464.83,587.72,485.1,562.81,485.1z M562.81,396.87c-23.74,0-43.05,19.31-43.05,43.05
										c0,16.34,9.06,31.06,23.65,38.43c5.96,3.02,12.66,4.62,19.4,4.62c23.74,0,43.05-19.31,43.05-43.05
										c0-17.89-10.77-33.64-27.43-40.12C573.44,397.86,568.19,396.87,562.81,396.87z"/>
								</g>
							</g>
						</g>
						<g>
							<g>
								<path class="st26" d="M608.26,466.54c-9.14,15.6-26.08,26.06-45.45,26.06c-8.52,0-16.62-2.04-23.74-5.65
									c-17.18-8.68-28.93-26.49-28.93-47.02c0-17,8.04-32.11,20.53-41.73C529.6,424.6,534.28,476.16,608.26,466.54z"/>
								<path class="st27" d="M615.48,439.92c0,9.16-2.34,17.81-6.51,25.32c-0.46,0.03-0.92,0.03-1.37,0.03
									c-26.82,0-48.55-21.73-48.55-48.55c0-10.92,3.59-20.99,9.69-29.11c4.61,0.48,9.01,1.6,13.18,3.23
									C601.56,398.47,615.48,417.55,615.48,439.92z"/>
							</g>
							<g>
								<g class="st24">
									<path class="st23" d="M540.19,410.58c-8.36,5.05-15.18,11.69-16.94,21.68c-1.81,10.2,1.59,21.69,8.7,29.18
										c2.08,2.19,6.05,1.54,7.88-0.58c2.13-2.47,1.5-5.69-0.58-7.88c0.63,0.67-0.17-0.2-0.28-0.34
										c-0.28-0.36-0.56-0.73-0.82-1.11c-0.54-0.78-1.05-1.6-1.48-2.44c0.38,0.74-0.37-0.87-0.36-0.84
										c-0.2-0.46-0.38-0.93-0.56-1.39c-0.36-0.95-0.66-1.91-0.93-2.89c-0.13-0.49-0.27-0.98-0.37-1.48
										c0.15,0.72-0.05-0.39-0.09-0.62c-0.16-0.99-0.27-1.98-0.33-2.98c-0.03-0.49-0.05-0.98-0.06-1.47
										c0-0.02,0.04-1.84-0.02-0.79c0.06-0.91,0.19-1.82,0.37-2.71c0.18-0.88,0.41-1.76,0.69-2.62c-0.24,0.75,0,0.02,0.15-0.33
										c0.16-0.38,0.32-0.77,0.5-1.15c0.35-0.73,0.74-1.45,1.17-2.14c-0.58,0.92,0.03-0.02,0.18-0.2c0.25-0.32,0.5-0.64,0.76-0.95
										c0.54-0.64,1.13-1.24,1.73-1.82c1.15-1.12-0.8,0.56,0.52-0.45c0.37-0.28,0.72-0.58,1.09-0.86
										c1.73-1.32,3.57-2.49,5.43-3.61c2.58-1.56,3.07-5.39,1.44-7.77C546.16,409.41,542.78,409.01,540.19,410.58L540.19,410.58z"
										/>
								</g>
								<g class="st24">
									<path class="st23" d="M545.99,473.58c7.19,0,7.2-11.18,0-11.18C538.8,462.4,538.79,473.58,545.99,473.58L545.99,473.58z"/>
								</g>
							</g>
						</g>
						<path class="st21" d="M615.48,439.92c0,29.09-23.59,52.67-52.67,52.67c-8.52,0-16.62-2.04-23.74-5.65l42.85-96.11
							C601.56,398.47,615.48,417.55,615.48,439.92z"/>
					</g>
				</g>
			</g>
			<g>
				<g>
					<g>
						<g>
							<path class="st28" d="M511.42,470.3c-0.81-0.13-1.68-0.15-2.54-0.15c-0.86,0-1.7,0.03-2.54,0.15
								c-4.76,0.56-8.68,3.21-8.68,13.21c0,7.38,5.04,13.38,11.22,13.38c6.21,0,11.25-6.01,11.25-13.38
								C520.12,473.51,516.2,470.86,511.42,470.3z M508.88,491.8c-3.38,0-6.13-3.72-6.13-8.3c0-8.27,2.57-8.27,6.13-8.27
								c3.59,0,6.16,0,6.16,8.27C515.03,488.09,512.29,491.8,508.88,491.8z"/>
						</g>
						<g>
							<rect x="506.33" y="458.16" class="st28" width="5.09" height="14.53"/>
						</g>
					</g>
					<path class="st28" d="M511.42,458.16v5.04c-1.81,0.23-3.54,0.23-5.09,0.15v-5.19H511.42z"/>
				</g>
				<g>
					<g>
						<g>
							<g>
								<g>
									<g>
										<path class="st28" d="M671.5,175.93v16.03c0,2.11-1.71,3.82-3.82,3.82c-2.11,0-3.82-1.7-3.82-3.82v-12.21H513.23v25.88
											c0,2.11-1.7,3.82-3.82,3.82c-2.11,0-3.82-1.7-3.82-3.82v-29.7c0-2.09,1.71-3.82,3.82-3.82h158.28
											C669.8,172.11,671.5,173.85,671.5,175.93z"/>
									</g>
									<path class="st28" d="M513.23,195.55v10.08c0,2.11-1.7,3.82-3.82,3.82c-2.11,0-3.82-1.7-3.82-3.82v-9.19
										C507.81,195.98,510.5,195.58,513.23,195.55z"/>
								</g>
								<path class="st28" d="M671.5,187.71v4.25c0,2.11-1.71,3.82-3.82,3.82c-2.11,0-3.82-1.7-3.82-3.82v-4.17
									C665.4,187.46,668.63,187.15,671.5,187.71z"/>
							</g>
							<g>
								<path class="st28" d="M667.37,216.3c-5.69,0-10.32-5.69-10.32-12.67c0-6.99,4.63-12.67,10.32-12.67
									c5.69,0,10.32,5.69,10.32,12.67C677.69,210.61,673.06,216.3,667.37,216.3z M667.37,196.04c-2.83,0-5.23,3.47-5.23,7.58
									c0,4.11,2.39,7.58,5.23,7.58c2.83,0,5.23-3.47,5.23-7.58C672.6,199.51,670.21,196.04,667.37,196.04z"/>
							</g>
						</g>
						<g>
							<g>
								<g>
									<g>
										<path class="st28" d="M347.48,175.93v16.03c0,2.11,1.71,3.82,3.82,3.82c2.11,0,3.82-1.7,3.82-3.82v-12.21h150.64v25.88
											c0,2.11,1.7,3.82,3.82,3.82c2.11,0,3.82-1.7,3.82-3.82v-29.7c0-2.09-1.71-3.82-3.82-3.82H351.3
											C349.19,172.11,347.48,173.85,347.48,175.93z"/>
									</g>
									<path class="st28" d="M505.76,195.55v10.08c0,2.11,1.7,3.82,3.82,3.82c2.11,0,3.82-1.7,3.82-3.82v-9.19
										C511.18,195.98,508.48,195.58,505.76,195.55z"/>
								</g>
								<path class="st28" d="M347.48,187.71v4.25c0,2.11,1.71,3.82,3.82,3.82c2.11,0,3.82-1.7,3.82-3.82v-4.17
									C353.59,187.46,350.36,187.15,347.48,187.71z"/>
							</g>
							<g>
								<path class="st28" d="M341.3,203.62c0-6.99,4.63-12.67,10.32-12.67c5.69,0,10.32,5.69,10.32,12.67
									c0,6.99-4.63,12.67-10.32,12.67C345.93,216.3,341.3,210.61,341.3,203.62z M346.39,203.62c0,4.11,2.4,7.58,5.23,7.58
									c2.83,0,5.23-3.47,5.23-7.58c0-4.11-2.39-7.58-5.23-7.58C348.78,196.04,346.39,199.51,346.39,203.62z"/>
							</g>
						</g>
					</g>
					<g>
						<path class="st1" d="M521.5,212.27v235.84c0,5.55-4.53,10.08-10.08,10.08h-5.06c-5.57,0-10.08-4.53-10.08-10.08V212.27
							c0-0.36,0.03-0.69,0.05-1.02c0.1-0.89,0.28-1.73,0.61-2.52c1.43-3.82,5.09-6.51,9.41-6.51h5.06
							C516.97,202.22,521.5,206.72,521.5,212.27z"/>
						<path class="st29" d="M521.5,439.89v8.22c0,5.55-4.53,10.08-10.08,10.08h-5.06c-5.57,0-10.08-4.53-10.08-10.08V212.27
							c0-5.55,4.5-10.05,10.08-10.05h3.44c-1.83,6.16-3.72,18.86-3.72,45.12c0,51.91-1.22,138.56,1.63,159.8
							C510.02,424.36,513.68,441.32,521.5,439.89z"/>
						<g class="st30">
							<g>
								<g>
									<g>
										<path class="st28" d="M521.5,229.62v2.6c-3.05,0.46-5.65,0.56-7.53,0.56c-1.91,0-3.08-0.13-3.23-0.13
											c-0.71-0.08-1.22-0.71-1.14-1.4c0.08-0.71,0.69-1.22,1.43-1.15C511.06,230.13,515.39,230.56,521.5,229.62z"/>
									</g>
									<g>
										<path class="st28" d="M508.95,241.89c0.1,0.69-0.38,1.32-1.07,1.43c-2.52,0.38-4.96,0.51-7.23,0.51
											c-1.53,0-3-0.08-4.38-0.18v-2.57c3.36,0.31,7.18,0.31,11.22-0.28C508.19,240.72,508.85,241.18,508.95,241.89z"/>
									</g>
								</g>
								<g>
									<g>
										<path class="st28" d="M521.5,236.14v2.6c-2.32,0.28-4.27,0.36-5.8,0.36c-1.93,0-3.1-0.13-3.26-0.15
											c-0.69-0.08-1.2-0.71-1.12-1.4c0.08-0.69,0.69-1.2,1.4-1.12C512.79,236.42,516.33,236.77,521.5,236.14z"/>
									</g>
									<g>
										<path class="st28" d="M510.66,248.17c0.1,0.69-0.38,1.32-1.07,1.43c-2.52,0.38-4.94,0.53-7.23,0.53
											c-2.19,0-4.22-0.13-6.08-0.36v-2.6c3.71,0.46,8.17,0.59,12.95-0.1C509.89,247,510.55,247.46,510.66,248.17z"/>
									</g>
								</g>
							</g>
							<g>
								<g>
									<g>
										<path class="st28" d="M521.5,265.86v2.6c-3.05,0.46-5.65,0.56-7.53,0.56c-1.91,0-3.08-0.13-3.23-0.15
											c-0.71-0.08-1.22-0.69-1.14-1.4c0.08-0.69,0.69-1.2,1.43-1.12C511.06,266.37,515.39,266.8,521.5,265.86z"/>
									</g>
									<g>
										<path class="st28" d="M508.95,278.1c0.1,0.69-0.38,1.35-1.07,1.45c-2.52,0.36-4.96,0.51-7.23,0.51
											c-1.53,0-3-0.08-4.38-0.18v-2.57c3.33,0.28,7.15,0.31,11.22-0.28C508.19,276.93,508.85,277.41,508.95,278.1z"/>
									</g>
								</g>
								<g>
									<g>
										<path class="st28" d="M521.5,272.37v2.57c-2.32,0.28-4.27,0.36-5.8,0.36c-1.93,0-3.1-0.13-3.26-0.13
											c-0.69-0.08-1.2-0.71-1.12-1.4c0.08-0.71,0.69-1.22,1.4-1.14C512.79,272.65,516.31,273.01,521.5,272.37z"/>
									</g>
									<g>
										<path class="st28" d="M510.66,284.38c0.1,0.71-0.38,1.35-1.07,1.45c-2.52,0.36-4.94,0.51-7.23,0.51
											c-2.19,0-4.22-0.13-6.08-0.36v-2.57c3.74,0.46,8.17,0.59,12.95-0.1C509.89,283.24,510.55,283.7,510.66,284.38z"/>
									</g>
								</g>
							</g>
							<g>
								<g>
									<g>
										<path class="st28" d="M521.5,363.57v2.6c-3.05,0.46-5.65,0.56-7.53,0.56c-1.91,0-3.08-0.1-3.23-0.13
											c-0.71-0.08-1.22-0.71-1.14-1.4c0.08-0.71,0.69-1.22,1.43-1.15C511.06,364.08,515.39,364.51,521.5,363.57z"/>
									</g>
									<g>
										<path class="st28" d="M508.95,375.84c0.1,0.69-0.38,1.32-1.07,1.43c-2.52,0.38-4.96,0.51-7.23,0.51
											c-1.53,0-3-0.08-4.38-0.18v-2.57c3.36,0.31,7.18,0.31,11.22-0.28C508.19,374.67,508.85,375.13,508.95,375.84z"/>
									</g>
								</g>
								<g>
									<g>
										<path class="st28" d="M521.5,370.09v2.6c-2.32,0.28-4.27,0.36-5.8,0.36c-1.93,0-3.1-0.13-3.26-0.15
											c-0.69-0.08-1.2-0.71-1.12-1.4c0.08-0.69,0.69-1.2,1.4-1.12C512.79,370.37,516.33,370.72,521.5,370.09z"/>
									</g>
									<g>
										<path class="st28" d="M510.66,382.12c0.1,0.69-0.38,1.32-1.07,1.43c-2.52,0.38-4.94,0.53-7.23,0.53
											c-2.19,0-4.22-0.13-6.08-0.36v-2.6c3.71,0.46,8.17,0.59,12.95-0.1C509.89,380.95,510.55,381.41,510.66,382.12z"/>
									</g>
								</g>
							</g>
							<g>
								<g>
									<g>
										<path class="st28" d="M521.5,300.11v2.6c-3.05,0.46-5.65,0.56-7.53,0.56c-1.91,0-3.08-0.1-3.23-0.13
											c-0.71-0.08-1.22-0.71-1.14-1.4c0.08-0.71,0.69-1.22,1.43-1.14C511.06,300.62,515.39,301.05,521.5,300.11z"/>
									</g>
									<g>
										<path class="st28" d="M508.95,312.38c0.1,0.69-0.38,1.32-1.07,1.43c-2.52,0.38-4.96,0.51-7.23,0.51
											c-1.53,0-3-0.08-4.38-0.18v-2.57c3.36,0.31,7.18,0.31,11.22-0.28C508.19,311.2,508.85,311.66,508.95,312.38z"/>
									</g>
								</g>
								<g>
									<g>
										<path class="st28" d="M521.5,328.81v2.6c-2.32,0.28-4.27,0.36-5.8,0.36c-1.93,0-3.1-0.13-3.26-0.15
											c-0.69-0.08-1.2-0.69-1.12-1.4c0.08-0.69,0.69-1.2,1.4-1.12C512.79,329.09,516.31,329.45,521.5,328.81z"/>
									</g>
									<g>
										<path class="st28" d="M510.66,340.85c0.1,0.69-0.38,1.35-1.07,1.45c-2.52,0.36-4.94,0.51-7.23,0.51
											c-2.19,0-4.22-0.13-6.08-0.36v-2.6c3.74,0.48,8.17,0.61,12.95-0.08C509.89,339.68,510.55,340.16,510.66,340.85z"/>
									</g>
								</g>
							</g>
							<g>
								<g>
									<g>
										<path class="st28" d="M521.5,391.61v2.6c-3.05,0.46-5.65,0.56-7.53,0.56c-1.91,0-3.08-0.13-3.23-0.15
											c-0.71-0.08-1.22-0.69-1.14-1.4c0.08-0.69,0.69-1.2,1.43-1.12C511.06,392.12,515.39,392.56,521.5,391.61z"/>
									</g>
									<g>
										<path class="st28" d="M508.95,403.85c0.1,0.71-0.38,1.35-1.07,1.45c-2.52,0.36-4.96,0.51-7.23,0.51
											c-1.53,0-3-0.08-4.38-0.18v-2.57c3.33,0.28,7.15,0.31,11.22-0.28C508.19,402.68,508.85,403.17,508.95,403.85z"/>
									</g>
								</g>
								<g>
									<g>
										<path class="st28" d="M521.5,431.32v2.57c-2.32,0.28-4.27,0.36-5.8,0.36c-1.93,0-3.1-0.1-3.26-0.13
											c-0.69-0.08-1.2-0.71-1.12-1.4c0.08-0.71,0.69-1.22,1.4-1.14C512.79,431.6,516.31,431.95,521.5,431.32z"/>
									</g>
									<g>
										<path class="st28" d="M510.66,443.35c0.1,0.69-0.38,1.32-1.07,1.43c-2.52,0.38-4.94,0.51-7.23,0.51
											c-2.19,0-4.22-0.13-6.08-0.36v-2.57c3.71,0.46,8.17,0.59,12.95-0.1C509.89,442.18,510.55,442.64,510.66,443.35z"/>
									</g>
								</g>
							</g>
							<g>
								<g>
									<g>
										<path class="st28" d="M510.66,209.65c0.1,0.69-0.38,1.32-1.07,1.43c-2.52,0.38-4.94,0.53-7.23,0.53
											c-2.16,0-4.17-0.13-6.03-0.36c0.1-0.89,0.28-1.73,0.61-2.52c3.59,0.41,7.79,0.48,12.29-0.18
											C509.89,208.48,510.55,208.94,510.66,209.65z"/>
									</g>
								</g>
							</g>
						</g>
					</g>
				</g>
			</g>
		</g>
	</g>
</g>
</svg>
