<?xml version="1.0" encoding="utf-8"?>
<!-- Generator: Adobe Illustrator 25.4.1, SVG Export Plug-In . SVG Version: 6.00 Build 0)  -->
<svg version="1.1" id="Capa_1" xmlns="http://www.w3.org/2000/svg" xmlns:xlink="http://www.w3.org/1999/xlink" x="0px" y="0px"
	 viewBox="0 0 434.8 96.9" style="enable-background:new 0 0 434.8 96.9;" xml:space="preserve">
<style type="text/css">
	.st0{opacity:0.7;fill:#DFEB6A;enable-background:new    ;}
	.st1{enable-background:new    ;}
	.st2{fill:#3C246F;}
</style>
<g>
	<path class="st0" d="M305.9,47.8c7.2,4.4,58.1-0.4,61.9,0.9c3.1,1.8-0.2,33.3-2.8,38c-0.9,1.7-2,1.9-4.7,1.2
		c-4.2-1.4-58,1.3-58,1.3c-0.8-1-2.7,2.3-3.2,1.1c-1.4-2.8-88.5,0.8-95.9,1c-4.5,0.1-1-1.8-6.3-1c-11.3,1.5-36,0-44.5,1.7
		c-6.8,1.4-8.3,1.5-14.9,0.3c-6.8-1-42.5,0.4-46.5,2.6c-1,0.6-1.7,0.4-1.8-0.3c0-0.1-25.3-0.7-25.4-1.3c-0.2-0.7-1-1-1.7-0.6
		c-1.3,0.7-28,3.3-28.6,1.3c-1.6-5.8,0.9-30.7,3.7-36.7c2.9-6.4,20.8,0.8,34.7-3l65.6-0.3l14-2.4c1.7,2.1,7.7-3.2,11.6,0.6
		c1.7,1.5,12.8,1.7,15.2,0.2c2.1-1.2,59.4,2,65.1-2.2C254,53.6,296.1,48.6,305.9,47.8z"/>
	<path class="st0" d="M349.5,7.6c9.8,5.3,71.9-3.5,76.2-2.2c4,1.9,1.9,39-1.2,44.7c-1.1,2-2.5,2.4-5.9,1.7
		c-1.4-0.4-6.6-0.2-13.7,0.3c-9.6,0.6-14.3,0.9-59.5,4.2c-1-1.1-3.4,2.8-4,1.4c-0.9-1.6-28.8-0.7-57.8,0.1
		c-14.5,0.4-61.3,1.3-63.6,1.3c-5.7,0-1.2-2.1-7.9-1.4c-14.3,1.5-45.5-1.5-56.4,0c-8.8,1.2-10.6,1.2-18.9-0.6
		c-6.9-1.5-53.6-2.9-59-0.8c-1.3,0.6-2.3,0.3-2.2-0.5c-0.8-0.1-31.7-3.4-31.8-4.1c-0.2-0.8-1.1-1.3-2-0.8c-1.7,0.8-35.9,0.5-36.1-2
		c-0.7-7,7.6-35.4,12.2-42.1c2.4-3.6,8.7-2.7,16.7-1.3C42.5,6.7,52.1,8.5,61,7c91,7,82.5,5,98.1,3.3c1.9,2.6,9.7-3.2,14.2,1.3
		c1.9,1.8,15.6,2.6,18.7,0.9c1.3-0.7,19.6,0.5,38.5,1c5.7,0.1,37.3,1,41.9-2.2C287.1,15.9,343.9,8.2,349.5,7.6z"/>
</g>
<g>
	<g class="st1">
		<path class="st2" d="M68.9,53.5L59,24.4l1.9,1.4l-4.2-1.4v-4.1l14.7-0.2v4.1l-4.3,1.5l0.9-2l6.5,22.7h-1.1l7.2-22.2l0.7,1.6
			l-4-1.4v-4.1l13.1-0.2v4.1l-4.2,1.4l1.8-1.4L77.7,53.5H68.9z"/>
		<path class="st2" d="M118.5,49.8l-2.1-1.8l3.9,1.5v4.1h-14.2v-4.1l3.6-1.3l-0.7,1.1l-1.6-5.5l1.2,1H97.1l0.9-0.9l-1.7,5.2
			l-0.2-0.8l3.4,1.2v4.1H86.7v-4.1l3.8-1.4l-1.8,1.6l11-29.5L108,20L118.5,49.8z M99.1,40.2l-0.5-1.1h8.7l-0.8,1.3l-4.3-16l1.9,0
			L99.1,40.2z"/>
		<path class="st2" d="M129.8,28.6c0,0.8,0.3,1.5,0.9,2c0.6,0.5,1.4,1,2.4,1.4c1,0.4,2.1,0.8,3.3,1.2s2.4,0.8,3.6,1.3
			c1.2,0.5,2.3,1.2,3.3,1.9s1.8,1.7,2.4,2.9c0.6,1.2,0.9,2.6,0.9,4.3c0,2.5-0.6,4.5-1.9,6c-1.3,1.6-2.9,2.7-5.1,3.5
			c-2.1,0.7-4.4,1.1-7,1.1c-1.7,0-3.5-0.2-5.3-0.5c-1.8-0.3-3.6-0.8-5.4-1.5l0.3-9.6h4.7l1.1,5.6l-0.8-1.3c0.9,0.4,1.8,0.7,2.8,0.9
			c1,0.2,2,0.3,2.9,0.3c1,0,1.9-0.1,2.7-0.4c0.8-0.3,1.5-0.7,2-1.2c0.5-0.5,0.8-1.2,0.8-2c0-0.9-0.3-1.6-0.9-2.2
			c-0.6-0.6-1.4-1-2.4-1.4c-1-0.4-2.1-0.8-3.3-1.1c-1.2-0.3-2.4-0.8-3.6-1.3c-1.2-0.5-2.3-1.1-3.3-1.9s-1.8-1.7-2.4-2.9
			c-0.6-1.2-0.9-2.6-0.9-4.3c0-2.3,0.6-4.2,1.7-5.7c1.1-1.5,2.6-2.6,4.5-3.4c1.9-0.7,4.1-1.1,6.5-1.1c1.7,0,3.4,0.2,5.3,0.5
			c1.9,0.3,3.7,0.9,5.6,1.6l-0.5,8.8H140l-1.1-4.9l0.9,0.8c-0.7-0.3-1.5-0.4-2.3-0.6c-0.8-0.1-1.6-0.2-2.4-0.2
			c-0.9,0-1.8,0.1-2.6,0.3c-0.8,0.2-1.4,0.5-1.9,1C130.1,27.2,129.8,27.9,129.8,28.6z"/>
		<path class="st2" d="M169.3,44.1h4.9l-0.1,9.4h-25v-4.1l4.2-1.4l-1,1.6V24.2l1,1.6l-4.2-1.4v-4.1l11.2-0.2h13.3v9h-4.9l-1-4.3
			l1.5,1.1h-10l1.2-1.2v10.2l-1.2-1.2h10.5v5.7h-10.5l1.2-1.5v11l-1.2-1.2h10.5l-1.5,1.2L169.3,44.1z"/>
		<path class="st2" d="M191.1,54.1c-2.6,0-5-0.6-7.2-1.9s-3.9-3.2-5.2-5.7c-1.3-2.6-2-5.7-2-9.5c0-3.7,0.6-6.8,1.9-9.4
			c1.3-2.6,3.1-4.6,5.4-6s5.1-2.1,8.3-2.1c1.7,0,3.4,0.2,5.2,0.6c1.8,0.4,3.6,1,5.7,1.9l-0.5,9h-4.8l-1.3-5.4l1.4,1.2
			c-1-0.4-2-0.7-2.8-0.9c-0.9-0.2-1.7-0.3-2.5-0.3c-1.6,0-2.9,0.4-4,1.2c-1,0.8-1.8,2-2.3,3.5c-0.5,1.5-0.8,3.4-0.8,5.6
			c0,2.6,0.3,4.8,0.9,6.5c0.6,1.7,1.5,3,2.7,3.8c1.2,0.8,2.5,1.2,4,1.2c1.1,0,2.3-0.2,3.6-0.7c1.3-0.5,2.6-1.2,3.9-2.1l3,4.7
			c-2,1.6-4.1,2.8-6.2,3.6C195.2,53.8,193.1,54.1,191.1,54.1z"/>
		<path class="st2" d="M211.1,53.5v-4.1l5.1-1.5l-1.4,2V24.7l1.6,1.2h-7l1.8-1.6l-1.4,6h-4.9V20.1h28v10.3H228l-1.3-5.6l1.8,1.2
			h-7.1l1.7-1.2V50l-1.4-2l5,1.5v4.1H211.1z"/>
		<path class="st2" d="M249.3,54.1c-3.2,0-5.8-0.6-8.1-1.9s-3.9-3.2-5.1-5.7c-1.2-2.5-1.8-5.6-1.8-9.2c0-3,0.4-5.6,1.1-7.8
			s1.8-4.1,3.2-5.6c1.4-1.5,3.1-2.6,5-3.4c2-0.7,4.2-1.1,6.6-1.1c2.4,0,4.5,0.4,6.4,1.1c1.9,0.7,3.5,1.8,4.8,3.2s2.3,3.2,3,5.2
			c0.7,2.1,1,4.4,1,7.1c0,3.7-0.7,6.9-2,9.6c-1.3,2.7-3.2,4.8-5.7,6.2C255.5,53.4,252.6,54.1,249.3,54.1z M249.8,47.9
			c1.4,0,2.6-0.3,3.6-1c1-0.7,1.9-1.8,2.5-3.5c0.6-1.7,0.9-3.9,0.9-6.9c0-2.7-0.3-4.9-0.8-6.4c-0.5-1.6-1.3-2.7-2.3-3.4
			s-2.3-1-3.7-1c-1.4,0-2.6,0.3-3.6,1c-1,0.6-1.8,1.8-2.4,3.4s-0.8,3.9-0.8,6.9c0,2.6,0.3,4.8,0.8,6.4c0.5,1.6,1.2,2.7,2.2,3.5
			C247.1,47.5,248.3,47.9,249.8,47.9z"/>
		<path class="st2" d="M306.6,24.2l-4.3,1.7l1.1-2.1v25.8l-1.1-1.6l4.3,1.4v4.1h-13.9v-4.1l4.4-1.5l-1.3,1.6V28.7l1.3,0l-7.6,16.1
			l-5.1,0.2l-7.3-16.4h1.2v20.9l-0.9-1.5l4,1.3v4.1h-12.9v-4.1l4.3-1.4l-1.1,1.6V23.8l1.1,2l-4.3-1.4v-4.1l13.2-0.2l6.6,16.8h-0.9
			l7-16.6l12.2-0.2V24.2z"/>
		<path class="st2" d="M324,24.2l-4,1.6l0.8-1.2v24.6l-0.8-1.1l4,1.4v4.1h-14.6v-4.1l3.9-1.3l-0.7,1.1V24.6l1,1.2l-4.2-1.4v-4.1
			l14.6-0.2V24.2z"/>
		<path class="st2" d="M356.6,49.8l-2.1-1.8l3.9,1.5v4.1h-14.2v-4.1l3.6-1.3l-0.7,1.1l-1.6-5.5l1.2,1h-11.6l0.9-0.9l-1.7,5.2
			l-0.2-0.8l3.4,1.2v4.1h-12.8v-4.1l3.8-1.4l-1.8,1.6l11-29.5l8.5-0.2L356.6,49.8z M337.2,40.2l-0.5-1.1h8.8l-0.8,1.3l-4.3-16l1.9,0
			L337.2,40.2z"/>
	</g>
	<g class="st1">
		<path class="st2" d="M86.8,83c-0.4-1.7-0.7-3.5-0.7-5.5s0.2-3.8,0.7-5.5c0.4-1.7,1.1-3.2,1.9-4.5h1.9c-0.9,1.5-1.5,3-1.9,4.7
			s-0.6,3.4-0.6,5.3c0,1.9,0.2,3.6,0.6,5.3s1,3.2,1.9,4.7h-1.9C87.8,86.2,87.2,84.7,86.8,83z"/>
		<path class="st2" d="M106.4,68.4l-6.5,14.9h-2.1l-6.6-14.9h2.3l5.4,12.2l5.4-12.2H106.4z"/>
		<path class="st2" d="M117.4,79.6h-7.9l-1.6,3.7h-2.2l6.7-14.9h2.1l6.8,14.9H119L117.4,79.6z M116.6,77.9l-3.2-7.3l-3.2,7.3H116.6z
			"/>
		<path class="st2" d="M133.4,83.3l-3.2-4.6c-0.4,0-0.7,0-0.9,0h-3.7v4.5h-2.1V68.4h5.8c1.9,0,3.4,0.5,4.6,1.4
			c1.1,0.9,1.7,2.2,1.7,3.8c0,1.1-0.3,2.1-0.9,2.9s-1.4,1.4-2.4,1.8l3.5,5H133.4z M132.3,76.1c0.7-0.6,1.1-1.4,1.1-2.5
			s-0.4-1.9-1.1-2.5c-0.7-0.6-1.7-0.9-3.1-0.9h-3.6V77h3.6C130.5,77,131.6,76.7,132.3,76.1z"/>
		<path class="st2" d="M141.6,82.5c-1.2-0.7-2.2-1.6-2.8-2.7c-0.7-1.2-1-2.5-1-3.9s0.3-2.7,1-3.9c0.7-1.2,1.6-2.1,2.8-2.7
			c1.2-0.7,2.6-1,4.1-1c1.5,0,2.8,0.3,4,1c1.2,0.7,2.1,1.6,2.8,2.7c0.7,1.2,1,2.5,1,3.9c0,1.4-0.3,2.7-1,3.9
			c-0.7,1.2-1.6,2.1-2.8,2.7c-1.2,0.7-2.6,1-4,1C144.1,83.5,142.8,83.2,141.6,82.5z M148.6,80.9c0.9-0.5,1.6-1.2,2.1-2.1
			c0.5-0.9,0.8-1.8,0.8-2.9s-0.3-2.1-0.8-2.9c-0.5-0.9-1.2-1.6-2.1-2.1c-0.9-0.5-1.9-0.7-2.9-0.7c-1.1,0-2.1,0.2-3,0.7
			c-0.9,0.5-1.6,1.2-2.1,2.1c-0.5,0.9-0.8,1.8-0.8,2.9s0.3,2.1,0.8,2.9c0.5,0.9,1.2,1.6,2.1,2.1c0.9,0.5,1.9,0.7,3,0.7
			C146.7,81.6,147.7,81.4,148.6,80.9z M146.9,64.5h2.6l-3.6,2.8H144L146.9,64.5z"/>
		<path class="st2" d="M169.6,68.4v14.9h-1.7l-8.9-11.1v11.1h-2.1V68.4h1.7l8.9,11.1V68.4H169.6z"/>
		<path class="st2" d="M182.4,82.5c-1.2-0.7-2.2-1.6-2.8-2.7c-0.7-1.2-1-2.5-1-3.9s0.3-2.7,1-3.9c0.7-1.2,1.6-2.1,2.8-2.7
			c1.2-0.7,2.6-1,4.1-1c1.5,0,2.8,0.3,4,1c1.2,0.7,2.1,1.6,2.8,2.7c0.7,1.2,1,2.5,1,3.9c0,1.4-0.3,2.7-1,3.9
			c-0.7,1.2-1.6,2.1-2.8,2.7c-1.2,0.7-2.6,1-4,1C185,83.5,183.6,83.2,182.4,82.5z M189.4,80.9c0.9-0.5,1.6-1.2,2.1-2.1
			c0.5-0.9,0.8-1.8,0.8-2.9s-0.3-2.1-0.8-2.9c-0.5-0.9-1.2-1.6-2.1-2.1c-0.9-0.5-1.9-0.7-2.9-0.7c-1.1,0-2.1,0.2-3,0.7
			c-0.9,0.5-1.6,1.2-2.1,2.1c-0.5,0.9-0.8,1.8-0.8,2.9s0.3,2.1,0.8,2.9c0.5,0.9,1.2,1.6,2.1,2.1c0.9,0.5,1.9,0.7,3,0.7
			C187.6,81.6,188.6,81.4,189.4,80.9z"/>
		<path class="st2" d="M217.2,83.3l0-10.9l-5.4,9h-1l-5.4-9v10.8h-2V68.4h1.7l6.2,10.5l6.1-10.5h1.7l0,14.9H217.2z"/>
		<path class="st2" d="M225.2,81.8c-1.1-1.1-1.7-2.8-1.7-4.9v-8.5h2.1v8.4c0,3.2,1.4,4.8,4.2,4.8c1.4,0,2.4-0.4,3.1-1.2
			s1.1-2,1.1-3.6v-8.4h2.1v8.5c0,2.1-0.6,3.8-1.7,4.9c-1.1,1.1-2.7,1.7-4.6,1.7C227.9,83.5,226.3,82.9,225.2,81.8z"/>
		<path class="st2" d="M239.9,82.9c-0.8-0.4-1.4-0.9-1.9-1.6l1.2-1.4c0.8,1.2,1.9,1.8,3.1,1.8c0.8,0,1.5-0.3,1.9-0.8
			c0.4-0.5,0.6-1.3,0.6-2.3v-8.4h-5.4v-1.9h7.5v10.1c0,1.6-0.4,2.9-1.2,3.7c-0.8,0.8-1.9,1.2-3.5,1.2
			C241.5,83.5,240.7,83.3,239.9,82.9z"/>
		<path class="st2" d="M262.2,81.5v1.9h-10.8V68.4h10.5v1.9h-8.4v4.6h7.5v1.8h-7.5v4.8H262.2z"/>
		<path class="st2" d="M275.6,83.3l-3.2-4.6c-0.4,0-0.7,0-0.9,0h-3.7v4.5h-2.1V68.4h5.8c1.9,0,3.4,0.5,4.6,1.4
			c1.1,0.9,1.7,2.2,1.7,3.8c0,1.1-0.3,2.1-0.9,2.9s-1.4,1.4-2.4,1.8l3.5,5H275.6z M274.5,76.1c0.7-0.6,1.1-1.4,1.1-2.5
			s-0.4-1.9-1.1-2.5c-0.7-0.6-1.7-0.9-3.1-0.9h-3.6V77h3.6C272.8,77,273.8,76.7,274.5,76.1z"/>
		<path class="st2" d="M292,81.5v1.9h-10.8V68.4h10.5v1.9h-8.4v4.6h7.5v1.8h-7.5v4.8H292z"/>
		<path class="st2" d="M296.5,83c-1-0.3-1.9-0.8-2.5-1.4l0.8-1.7c0.6,0.5,1.3,0.9,2.2,1.2c0.9,0.3,1.8,0.5,2.7,0.5
			c1.2,0,2.2-0.2,2.8-0.6s0.9-1,0.9-1.7c0-0.5-0.2-0.9-0.5-1.2c-0.3-0.3-0.7-0.6-1.2-0.7c-0.5-0.2-1.2-0.4-2.1-0.6
			c-1.1-0.3-2-0.5-2.7-0.8c-0.7-0.3-1.3-0.7-1.8-1.2c-0.5-0.6-0.7-1.3-0.7-2.3c0-0.8,0.2-1.5,0.6-2.1c0.4-0.6,1.1-1.1,1.9-1.5
			s1.9-0.6,3.2-0.6c0.9,0,1.7,0.1,2.6,0.3c0.9,0.2,1.6,0.6,2.2,1l-0.7,1.7c-0.6-0.4-1.3-0.7-2-0.9c-0.7-0.2-1.4-0.3-2.1-0.3
			c-1.2,0-2.1,0.2-2.7,0.7c-0.6,0.4-0.9,1-0.9,1.7c0,0.5,0.2,0.9,0.5,1.2c0.3,0.3,0.8,0.6,1.3,0.7c0.5,0.2,1.2,0.4,2.1,0.6
			c1.1,0.3,2,0.5,2.7,0.8s1.3,0.7,1.8,1.2c0.5,0.6,0.7,1.3,0.7,2.2c0,0.8-0.2,1.5-0.6,2.1c-0.4,0.6-1.1,1.2-1.9,1.5
			c-0.9,0.4-1.9,0.6-3.2,0.6C298.6,83.5,297.5,83.3,296.5,83z"/>
		<path class="st2" d="M317.3,70.3h-5.1v-1.9h12.3v1.9h-5.1v13h-2.1V70.3z"/>
		<path class="st2" d="M330,70.3h-5.1v-1.9h12.3v1.9h-5.1v13H330V70.3z"/>
		<path class="st2" d="M338,87.5c0.9-1.5,1.5-3,1.9-4.7c0.4-1.6,0.6-3.4,0.6-5.3c0-1.9-0.2-3.6-0.6-5.3c-0.4-1.6-1-3.2-1.9-4.7h1.9
			c0.8,1.3,1.5,2.8,1.9,4.5s0.7,3.5,0.7,5.5c0,1.9-0.2,3.8-0.7,5.5s-1.1,3.2-1.9,4.5H338z"/>
	</g>
</g>
</svg>
