<?xml version="1.0" encoding="utf-8"?>
<!-- Generator: Adobe Illustrator 25.4.1, SVG Export Plug-In . SVG Version: 6.00 Build 0)  -->
<svg version="1.1" id="Capa_1" xmlns="http://www.w3.org/2000/svg" xmlns:xlink="http://www.w3.org/1999/xlink" x="0px" y="0px"
	 viewBox="0 0 1080 261" style="enable-background:new 0 0 1080 261;" xml:space="preserve">
<style type="text/css">
	.st0{fill:#F4CBF0;}
	.st1{clip-path:url(#SVGID_00000139269878554863331540000010170079429374336432_);fill:#DE85D2;}
	.st2{clip-path:url(#SVGID_00000139269878554863331540000010170079429374336432_);fill:none;}
</style>
<rect x="1.13" y="8.87" class="st0" width="1078.98" height="252.13"/>
<g>
	<defs>
		<rect id="SVGID_1_" x="2.41" y="0.04" width="1077.7" height="260.81"/>
	</defs>
	<clipPath id="SVGID_00000000930318694634183240000005888134550814523032_">
		<use xlink:href="#SVGID_1_"  style="overflow:visible;"/>
	</clipPath>
	<path style="clip-path:url(#SVGID_00000000930318694634183240000005888134550814523032_);fill:#DE85D2;" d="M1510.53-206.37
		c0-68.41-236.22-123.87-527.61-123.87c-158.66,0-300.96,16.44-397.68,42.47c-7.19,1.93-14.57,2.3-21.84,1
		c-88.64-15.84-199.28-25.25-319.28-25.25c-291.39,0-527.61,55.46-527.61,123.87c0,14.84,11.12,29.07,31.5,42.26
		c30.2,19.53,43.79,66,32.25,107.79c-1.68,6.08-2.53,12.24-2.53,18.45c0,121.73,328.46,220.41,733.63,220.41S1245,102.07,1245-19.66
		c0-0.26,0-0.52,0-0.78c-0.51-43.91,23.85-81.37,56.72-87.23C1428.59-130.29,1510.53-166.09,1510.53-206.37z"/>
	<polygon style="clip-path:url(#SVGID_00000000930318694634183240000005888134550814523032_);fill:none;" points="1046.74,131.45 
		447.23,199.63 447.23,-245.2 1054.98,-245.2 	"/>
</g>
</svg>
