<?xml version="1.0" encoding="utf-8"?>
<!-- Generator: Adobe Illustrator 25.4.1, SVG Export Plug-In . SVG Version: 6.00 Build 0)  -->
<svg version="1.1" id="Capa_1" xmlns="http://www.w3.org/2000/svg" xmlns:xlink="http://www.w3.org/1999/xlink" x="0px" y="0px"
	 viewBox="0 0 1080 146.82" style="enable-background:new 0 0 1080 146.82;" xml:space="preserve">
<style type="text/css">
	.st0{clip-path:url(#SVGID_00000102535226297534509120000006210295554024911488_);fill:#DE85D2;}
	.st1{clip-path:url(#SVGID_00000182523689436538364640000011622174664575961262_);fill:none;}
</style>
<g>
	<g>
		<defs>
			<rect id="SVGID_1_" y="-0.26" width="1080" height="152.15"/>
		</defs>
		<clipPath id="SVGID_00000142161575438658894560000002599012531200324737_">
			<use xlink:href="#SVGID_1_"  style="overflow:visible;"/>
		</clipPath>
		<path style="clip-path:url(#SVGID_00000142161575438658894560000002599012531200324737_);fill:#DE85D2;" d="M1511.33,133.4
			c0-68.56-236.73-124.14-528.73-124.14c-159,0-301.6,16.48-398.53,42.56c-7.21,1.94-14.6,2.3-21.88,1
			c-88.83-15.88-199.7-25.31-319.95-25.31c-292.02,0-528.73,55.57-528.73,124.14c0,14.87,11.15,29.13,31.57,42.35
			c30.26,19.57,43.88,66.14,32.32,108.02c-1.69,6.1-2.54,12.26-2.54,18.49c0,121.99,329.16,220.88,735.19,220.88
			s735.19-98.89,735.19-220.88c0-0.26,0-0.52,0-0.78c-0.51-44,23.9-81.54,56.84-87.41C1429.23,209.65,1511.33,173.78,1511.33,133.4z
			"/>
	</g>
	<g>
		<defs>
			<rect id="SVGID_00000078013961977144611790000011295652074615715762_" y="-0.26" width="1080" height="152.15"/>
		</defs>
		<clipPath id="SVGID_00000072991007971602860850000011090631195444781489_">
			<use xlink:href="#SVGID_00000078013961977144611790000011295652074615715762_"  style="overflow:visible;"/>
		</clipPath>
		<polygon style="clip-path:url(#SVGID_00000072991007971602860850000011090631195444781489_);fill:none;" points="1046.55,471.95 
			445.77,540.27 445.77,94.49 1054.82,94.49 		"/>
	</g>
</g>
</svg>
